<?xml version="1.0" encoding="utf-8"?>
<!-- Generator: Adobe Illustrator 16.0.0, SVG Export Plug-In . SVG Version: 6.00 Build 0)  -->
<!DOCTYPE svg PUBLIC "-//W3C//DTD SVG 1.1//EN" "http://www.w3.org/Graphics/SVG/1.1/DTD/svg11.dtd">
<svg version="1.1" id="Layer_1" xmlns="http://www.w3.org/2000/svg" xmlns:xlink="http://www.w3.org/1999/xlink" x="0px" y="0px"
	 width="609px" height="221px" viewBox="183.5 207.284 609 221" enable-background="new 183.5 207.284 609 221"
	 xml:space="preserve">
<g>
	<path fill="#231F20" d="M633.471,281.406h-6.709l-0.561-0.559v-16.215c0-2.797-1.117-5.032-4.472-5.032
		c-3.355,0-5.032,2.235-5.032,6.15v15.097l-0.56,0.559h-6.71l-0.561-0.559v-16.215c0-2.797-1.118-5.032-4.472-5.032
		c-3.357,0-5.033,2.235-5.033,6.15v15.097l-0.559,0.559h-6.71l-0.559-0.559v-26.84l0.559-0.558h6.15l0.56,0.558l0.559,1.678h0.561
		c0,0,1.676-2.796,6.709-2.796c4.472,0,6.708,2.238,7.828,3.914h0.56c0,0,2.234-3.914,8.389-3.914
		c6.71,0,10.622,3.914,10.622,11.183v16.775L633.471,281.406z"/>
	<path fill="#231F20" d="M663.109,281.406h-3.354l-1.118-0.559l-7.269-8.946h-0.558l-7.271,8.946l-1.117,0.559h-3.354l-0.561-0.559
		v-5.592l6.71-7.827v-0.56l-6.149-7.269v-5.593l0.558-0.558h3.357l1.114,0.558l6.713,8.389h0.559l6.708-8.389l1.121-0.558h3.354
		l0.56,0.558v5.593l-6.15,7.269v0.56l6.71,7.827v5.592L663.109,281.406z"/>
	<path fill="#231F20" d="M694.981,288.116h-26.839l-0.56-0.56v-5.591l0.56-0.56h26.839l0.561,0.56v5.591L694.981,288.116z"/>
	<path fill="#231F20" d="M722.385,281.406h-6.149l-0.56-0.559l-0.56-1.118h-0.562c0,0-2.235,2.236-6.149,2.236
		c-6.15,0-10.064-3.354-10.064-8.946c0-8.387,7.828-9.505,12.303-9.505c2.236,0,3.912,0.558,3.912,0.558l0.562-0.558v-0.561
		c0-2.796-0.562-3.354-3.915-3.354c-1.679,0-3.354,0-3.911,1.676l-0.562,0.56h-6.711l-0.558-0.56c0-3.354,2.794-8.387,11.74-8.387
		c8.947,0,11.741,4.473,11.741,12.861v15.097L722.385,281.406z M714.556,269.665c0,0-1.117-0.561-3.354-0.561
		c-3.354,0-5.032,1.118-5.032,3.354c0,1.679,1.121,2.797,3.915,2.797c2.796,0,5.032-1.679,5.032-3.915v-1.118L714.556,269.665z"/>
	<path fill="#231F20" d="M612.225,335.481l-0.561,0.559h-2.235l-0.561-0.559V317.03c0-3.914-1.676-6.711-6.15-6.711
		c-5.03,0-7.829,2.797-7.829,8.387v16.775l-0.557,0.559h-2.236l-0.559-0.559v-26.84l0.559-0.559h1.679l0.559,0.559l0.557,2.796
		h0.562c1.118-2.236,3.914-3.914,7.826-3.914c4.475,0,6.711,2.238,7.828,4.475h0.561c1.677-2.797,4.475-4.475,8.39-4.475
		c6.147,0,9.502,3.356,9.502,9.507v18.451L629,336.04h-2.236l-0.561-0.559V317.03c0-3.914-1.676-6.711-6.147-6.711
		c-5.033,0-7.829,2.797-7.829,8.387v16.775H612.225z"/>
	<path fill="#231F20" d="M637.947,323.181l-0.56,0.558c0,3.356,2.236,10.065,9.509,10.065c4.472,0,6.707-2.236,7.825-5.591
		l0.562-0.562h2.232l0.561,0.562c-0.561,3.354-3.354,8.387-11.181,8.387c-8.948,0-12.862-6.711-12.862-14.537v-1.12
		c0-7.826,4.475-13.419,12.303-13.419c7.826,0,12.301,5.593,12.301,13.419v1.679l-0.561,0.561L637.947,323.181L637.947,323.181z
		 M655.283,319.826c0-3.914-2.236-9.507-8.947-9.507s-8.947,5.593-8.947,9.507l0.56,0.559h16.774L655.283,319.826z M645.218,304.169
		l-1.12,0.561h-0.559l-0.557-0.561v-1.118l5.028-5.59l1.118-0.561h1.679l0.561,0.561v1.118L645.218,304.169z"/>
	<path fill="#231F20" d="M683.241,336.04h-1.118l-1.118-0.559l-7.829-11.184h-0.558l-7.828,11.184l-1.118,0.559h-1.118l-0.561-0.559
		v-1.678l8.389-11.741V321.5l-8.389-11.183v-1.678l0.561-0.559h1.118l1.118,0.559l7.828,10.625h0.558l7.829-10.625l1.118-0.559
		h1.118l0.56,0.559v1.678l-8.386,11.183v0.562l8.386,11.741v1.678L683.241,336.04z"/>
	<path fill="#231F20" d="M692.19,303.611h-2.239l-0.559-0.561v-3.354l0.559-0.561h2.239l0.558,0.561v3.354L692.19,303.611z
		 M692.19,336.04h-2.239l-0.559-0.559v-26.84l0.559-0.559h2.239l0.558,0.559v26.84L692.19,336.04z"/>
	<path fill="#231F20" d="M710.642,333.804c5.591,0,7.828-3.354,8.388-6.71l0.56-0.559h2.236l0.561,0.559
		c-0.561,5.592-5.031,9.506-11.743,9.506c-7.269,0-12.86-4.473-12.86-14.537c0-10.064,5.593-14.539,12.86-14.539
		c6.712,0,11.184,3.914,11.743,9.507l-0.561,0.558h-2.236l-0.56-0.558c-0.56-3.354-2.797-6.711-8.388-6.711
		s-9.505,3.914-9.505,11.743C701.137,329.889,705.051,333.804,710.642,333.804z"/>
	<path fill="#231F20" d="M725.741,322.062c0-9.507,5.59-14.539,12.86-14.539c7.27,0,12.858,5.032,12.858,14.539
		c0,9.505-5.59,14.537-12.858,14.537C731.331,336.6,725.741,331.567,725.741,322.062z M729.095,322.062
		c0,7.269,3.915,11.741,9.508,11.741c5.591,0,9.505-4.473,9.505-11.741c0-7.268-3.914-11.743-9.505-11.743
		C733.01,310.319,729.095,314.794,729.095,322.062z"/>
	<path fill="#231F20" d="M611.664,390.674h-1.678l-0.559-0.559l-0.561-2.798h-0.559c-1.117,1.677-3.355,3.915-8.946,3.915
		c-6.15,0-9.504-3.354-9.504-8.391c0-6.146,4.473-8.943,11.739-8.943c3.354,0,6.711,0.561,6.711,0.561l0.559-0.561v-1.678
		c0-5.032-1.676-7.27-7.27-7.27c-5.59,0-7.268,2.797-7.268,5.594l-0.559,0.558h-2.236l-0.562-0.558
		c0-4.476,3.355-8.391,10.623-8.391c8.388,0,10.625,3.915,10.625,10.064v17.895L611.664,390.674z M608.868,377.814l-0.559-0.562
		c0,0-2.797-0.558-6.149-0.558c-6.711,0-8.947,2.236-8.947,6.147c0,3.357,1.676,5.593,6.711,5.593c6.15,0,8.944-4.472,8.944-8.388
		V377.814L608.868,377.814z"/>
	<path fill="#231F20" d="M642.977,376.696c0,8.387-3.911,14.537-11.739,14.537c-5.032,0-7.826-2.238-8.947-4.475h-0.557l-0.56,3.355
		l-0.562,0.561h-1.677l-0.561-0.561v-38.021l0.561-0.561h2.238l0.559,0.561v14.535h0.558c1.121-2.233,3.915-4.474,8.947-4.474
		C639.064,362.157,642.977,368.31,642.977,376.696z M621.732,376.696c0,7.828,3.354,11.74,8.945,11.74
		c5.591,0,8.946-3.912,8.946-11.74s-3.355-11.742-8.946-11.742C625.086,364.954,621.732,368.868,621.732,376.696z"/>
	<path fill="#231F20" d="M650.811,358.245h-2.237l-0.562-0.561v-3.354l0.562-0.561h2.237l0.559,0.561v3.354L650.811,358.245z
		 M650.811,390.674h-2.237l-0.562-0.559v-26.842l0.562-0.559h2.237l0.559,0.559v26.842L650.811,390.674z"/>
	<path fill="#231F20" d="M660.315,377.814l-0.56,0.558c0,3.356,2.236,10.064,9.505,10.064c4.476,0,6.711-2.234,7.829-5.594
		l0.559-0.557h2.235l0.561,0.557c-0.561,3.357-3.354,8.391-11.184,8.391c-8.945,0-12.86-6.709-12.86-14.537v-1.119
		c0-7.828,4.475-13.42,12.304-13.42c7.826,0,12.299,5.592,12.299,13.42v1.678l-0.559,0.561L660.315,377.814L660.315,377.814z
		 M677.648,374.459c0-3.914-2.236-9.506-8.944-9.506c-6.711,0-8.947,5.592-8.947,9.506l0.56,0.559h16.774L677.648,374.459z"/>
	<path fill="#231F20" d="M700.017,362.717l0.561,0.558v1.679l-0.561,0.562h-2.794c-5.593,0-7.828,3.911-7.828,9.504v15.099
		l-0.561,0.559h-2.236l-0.561-0.559v-26.842l0.561-0.559h1.677l0.561,0.559l0.56,3.354h0.559c1.679-2.793,4.475-3.912,7.829-3.912
		H700.017L700.017,362.717z"/>
	<path fill="#231F20" d="M719.03,390.674h-3.914c-3.915,0-6.711-2.237-6.711-6.149v-18.453l-0.559-0.558h-4.475l-0.558-0.561v-1.68
		l0.558-0.559h4.475l0.559-0.561v-5.029l0.558-0.561h2.238l0.559,0.561v5.029l0.561,0.561h6.711l0.558,0.559v1.68l-0.558,0.561
		h-6.711l-0.561,0.558v18.453c0,2.233,1.12,3.354,3.356,3.354h3.914l0.558,0.558v1.679L719.03,390.674z"/>
	<path fill="#231F20" d="M722.387,376.696c0-9.507,5.592-14.539,12.859-14.539s12.86,5.032,12.86,14.539
		c0,9.506-5.594,14.537-12.86,14.537C727.979,391.233,722.387,386.202,722.387,376.696z M725.741,376.696
		c0,7.27,3.914,11.74,9.505,11.74c5.592,0,9.507-4.473,9.507-11.74c0-7.271-3.915-11.742-9.507-11.742
		C729.655,364.954,725.741,369.424,725.741,376.696z"/>
</g>
<path fill="#231F20" d="M370.495,391.023c-3.703,0-6.712-3-6.712-6.708V258.57c0-3.707,3.009-6.71,6.712-6.71
	c3.698,0,6.706,3.003,6.706,6.71v125.745C377.201,388.023,374.193,391.023,370.495,391.023z"/>
<path fill="#231F20" d="M246.603,391.023c-3.702,0-6.707-3-6.707-6.708V258.57c0-2.745,1.667-5.209,4.215-6.229
	c2.55-1.009,5.46-0.379,7.351,1.6l60.686,63.657c2.554,2.682,2.45,6.927-0.23,9.48c-2.674,2.555-6.921,2.459-9.482-0.222
	l-49.121-51.53v108.988C253.313,388.023,250.303,391.023,246.603,391.023z"/>
<path fill="#231F20" d="M439.046,261.234c0-5.59-4.531-10.13-10.127-10.13c-5.594,0-10.131,4.54-10.131,10.13
	c0,5.598,4.537,10.132,10.131,10.132C434.515,271.366,439.046,266.832,439.046,261.234z"/>
<path fill="#231F20" d="M560.089,261.234c0-5.59-4.54-10.13-10.122-10.13c-5.606,0-10.143,4.54-10.143,10.13
	c0,5.598,4.535,10.132,10.143,10.132C555.549,271.366,560.089,266.832,560.089,261.234z"/>
<path fill="#231F20" d="M499.57,321.922c0-5.604-4.539-10.134-10.129-10.134c-5.595,0-10.131,4.53-10.131,10.134
	c0,5.594,4.536,10.129,10.131,10.129C495.031,332.051,499.57,327.516,499.57,321.922z"/>
<path fill="#231F20" d="M469.439,291.341c0-5.591-4.542-10.128-10.135-10.128c-5.59,0-10.136,4.537-10.136,10.128
	c0,5.59,4.545,10.127,10.136,10.127C464.897,301.468,469.439,296.931,469.439,291.341z"/>
<path fill="#231F20" d="M469.439,351.547c0-5.594-4.542-10.131-10.135-10.131c-5.59,0-10.136,4.537-10.136,10.131
	c0,5.586,4.545,10.125,10.136,10.125C464.897,361.672,469.439,357.133,469.439,351.547z"/>
<path fill="#231F20" d="M534.153,291.341c0-5.591-4.541-10.128-10.132-10.128c-5.599,0-10.135,4.537-10.135,10.128
	c0,5.59,4.536,10.127,10.135,10.127C529.612,301.468,534.153,296.931,534.153,291.341z"/>
<path fill="#231F20" d="M534.153,351.547c0-5.594-4.541-10.131-10.132-10.131c-5.599,0-10.135,4.537-10.135,10.131
	c0,5.586,4.536,10.125,10.135,10.125C529.612,361.672,534.153,357.133,534.153,351.547z"/>
<path fill="#231F20" d="M439.046,381.649c0-5.59-4.531-10.135-10.127-10.135c-5.594,0-10.131,4.545-10.131,10.135
	c0,5.596,4.537,10.13,10.131,10.13C434.515,391.779,439.046,387.245,439.046,381.649z"/>
<path fill="#231F20" d="M560.089,381.649c0-5.59-4.534-10.135-10.122-10.135c-5.606,0-10.143,4.545-10.143,10.135
	c0,5.596,4.535,10.13,10.143,10.13C555.555,391.779,560.089,387.245,560.089,381.649z"/>
</svg>
