<?xml version="1.0" encoding="iso-8859-1"?>
<!-- Generator: Adobe Illustrator 16.0.0, SVG Export Plug-In . SVG Version: 6.00 Build 0)  -->
<!DOCTYPE svg PUBLIC "-//W3C//DTD SVG 1.1//EN" "http://www.w3.org/Graphics/SVG/1.1/DTD/svg11.dtd">
<svg xmlns="http://www.w3.org/2000/svg" xmlns:xlink="http://www.w3.org/1999/xlink" version="1.1" id="Capa_1" x="0px" y="0px" width="512px" height="512px" viewBox="0 0 79.538 79.537" style="enable-background:new 0 0 79.538 79.537;" xml:space="preserve">
<g>
	<path d="M22.045,11.273c0,3.218-2.62,5.828-5.843,5.828c-3.226,0-5.844-2.61-5.844-5.828   c0-3.219,2.612-5.833,5.844-5.833C19.425,5.44,22.045,8.05,22.045,11.273z M16.815,51.215l1.264,21.525   c0,0.751,0.608,1.372,1.362,1.372c0.758,0,1.372-0.621,1.372-1.372l1.167-21.525h3.806l-3.933-24.13l7.922,15.778   c0.29,0.694,1.09,1.025,1.792,0.735c0.694-0.3,1.023-1.093,0.73-1.8c0,0-5.805-15.7-7.241-18.625   c-1.437-2.929-2.848-4.71-8.298-4.71h-1.113c-5.438,0-6.864,1.776-8.288,4.71c-1.432,2.925-7.244,18.625-7.244,18.625   c-0.303,0.707,0.026,1.5,0.715,1.8c0.702,0.295,1.501-0.041,1.805-0.735l7.922-15.778l-3.94,24.13h3.801l1.183,21.525   c0,0.751,0.616,1.372,1.362,1.372c0.774,0,1.385-0.621,1.385-1.372l1.175-21.525H16.815z M63.333,5.425   c-3.226,0-5.851,2.609-5.851,5.833c0,3.223,2.619,5.833,5.851,5.833c3.211,0,5.825-2.61,5.825-5.833   C69.158,8.034,66.548,5.425,63.333,5.425z M69.38,39.758l0.389-12.688l7.125,15.783c0.301,0.694,1.104,1.025,1.797,0.725   c0.709-0.301,1.03-1.093,0.74-1.8c0,0-5.018-15.7-6.451-18.623c-1.439-2.926-3.651-4.702-9.094-4.702h-1.118   c-5.437,0-7.653,1.776-9.093,4.702c-1.424,2.923-6.438,18.623-6.438,18.623c-0.298,0.707,0.025,1.499,0.722,1.8   c0.699,0.306,1.507-0.031,1.787-0.725l7.141-15.783l0.383,12.688l-1.123,31.9c-0.078,1.258,0.869,2.355,2.123,2.443   c0.062,0.011,0.118,0.011,0.165,0.011c1.196,0,2.206-0.922,2.299-2.134l2.584-26.269l2.615,26.269   c0.072,1.217,1.087,2.134,2.273,2.134c0.057,0,0.108,0,0.165-0.011c1.264-0.088,2.206-1.186,2.123-2.443l-1.129-31.9H69.38z    M39.765,40.887c-1.983,0-3.591,1.598-3.591,3.57c0,1.979,1.608,3.578,3.591,3.578c1.978,0,3.583-1.6,3.583-3.578   C43.348,42.484,41.743,40.887,39.765,40.887z M39.765,61.965c0,0,1.613,11.189,1.613,11.199c0.223,0.555,0.735,0.948,1.362,0.948   c0.642,0,1.183-0.43,1.377-1.01c0.011-0.036,0.049-0.699,0.011-0.808l-0.663-13.753l0.212-4.728   c0.187-1.605,0.223-1.124,2.048-2.217c1.872-1.118,5.036-6.043,5.191-6.281c0.15-0.248,0.44-0.673,0.497-0.952   c0.088-0.497-0.233-0.963-0.72-1.067c-0.373-0.062-0.688,0.134-0.932,0.394c-0.244,0.269-3.895,5.126-6.631,5.592   c-0.613-0.088-1.276-0.414-3.021-0.414H39.42c-1.735,0-2.397,0.331-3.017,0.414c-2.742-0.466-6.395-5.323-6.651-5.592   c-0.233-0.26-0.536-0.456-0.917-0.394c-0.487,0.104-0.815,0.57-0.714,1.067c0.052,0.279,0.339,0.704,0.497,0.952   c0.158,0.238,3.334,5.163,5.191,6.281c1.831,1.093,1.872,0.611,2.048,2.217l0.205,4.728l-0.657,13.753   c-0.037,0.113,0,0.776,0.028,0.808c0.189,0.58,0.72,1.01,1.367,1.01c0.616,0,1.144-0.394,1.351-0.948   C38.146,73.154,39.765,61.965,39.765,61.965" fill="#6B7687"/>
</g>
<g>
</g>
<g>
</g>
<g>
</g>
<g>
</g>
<g>
</g>
<g>
</g>
<g>
</g>
<g>
</g>
<g>
</g>
<g>
</g>
<g>
</g>
<g>
</g>
<g>
</g>
<g>
</g>
<g>
</g>
</svg>
