<?xml version="1.0" encoding="iso-8859-1"?>
<!-- Generator: Adobe Illustrator 19.0.0, SVG Export Plug-In . SVG Version: 6.00 Build 0)  -->
<svg xmlns="http://www.w3.org/2000/svg" xmlns:xlink="http://www.w3.org/1999/xlink" version="1.1" id="Layer_1" x="0px" y="0px" viewBox="0 0 460.526 460.526" style="enable-background:new 0 0 460.526 460.526;" xml:space="preserve" width="512px" height="512px">
<g>
	<g>
		<g>
			<path d="M371.91,58.908h-11.441V35.567c0-5.486-4.448-9.933-9.933-9.933h-41.644v-11.92c0-6.857-5.559-12.417-12.417-12.417     c-6.858,0-12.417,5.559-12.417,12.417v11.92h-41.644c-5.486,0-9.933,4.448-9.933,9.933v29.3c0,5.486,4.448,9.933,9.933,9.933     c5.486,0,9.933-4.448,9.933-9.933V45.501h31.711v96.167l-58.698,14.357l-14.964-21.713l0.972-11.822     c1.246-15.158-10.032-28.455-25.189-29.701l-48.943-4.023c-15.158-1.246-28.455,10.032-29.701,25.189l-8.696,141.049     l11.534,75.205L82.251,432.774c-3.205,11.687,3.673,23.76,15.361,26.965c11.683,3.204,23.76-3.67,26.965-15.361l29.356-107.072     c0.815-2.971,0.995-6.082,0.528-9.128l-10.655-69.476l8.536,0.702l26.177,71.37L156.651,434.03     c-2.51,11.857,5.066,23.503,16.922,26.015c11.882,2.512,23.508-5.087,26.015-16.922l23.174-109.433     c0.855-4.035,0.554-8.23-0.866-12.103l-21.971-59.902l0.807-9.814c-9.272-5.628-58.955-35.783-68.469-41.557     c-10.694-6.491-14.468-20.091-9.09-31.118l25.472-51.821l-10.057,54.658c-1.374,7.465,2.008,15.003,8.497,18.941l39.692,24.091     c13.526,34.105,60.328,58.856,97.28,60.74v149.886h-27.813c-6.857,0-12.417,5.559-12.417,12.417     c0,6.858,5.559,12.417,12.417,12.417h80.46c6.857,0,12.417-5.559,12.417-12.417c0-6.858-5.559-12.417-12.417-12.417h-27.813     V282.854c20.4-6.596,35.469-22.777,43.746-47.101c6.476-19.031,6.516-36.345,6.515-37.107l-0.366-55.236l17.183-11.846     c1.936-1.335,3.093-3.537,3.093-5.889V66.061C379.062,62.111,375.86,58.908,371.91,58.908z M284.057,270.841     c-13.428-0.876-28.993-5.385-43.127-12.538c-8.007-4.052-14.787-8.525-20.636-13.366c7.986,2.784,17.082-0.286,21.636-7.788     c5.24-8.633,2.489-19.88-6.144-25.12l-58.945-35.777l7.775-42.259l2.829,30.36c16.992,10.313,5.913,3.589,45.325,27.51     l51.287-12.545V270.841z M308.89,266.916v-95.897c4.853-4.359,7.214-11.178,5.555-17.959c-0.91-3.72-2.902-6.89-5.555-9.265     V45.501h31.711v13.408h-10.102c-3.95,0-7.153,3.203-7.153,7.153v59.613c0,2.352,1.157,4.554,3.093,5.889l17.447,12.028     l0.365,55.118C344.253,199.272,343.915,251.357,308.89,266.916z" fill="#6B7687"/>
			<circle cx="177.432" cy="37.628" r="37.628" fill="#6B7687"/>
		</g>
	</g>
</g>
<g>
</g>
<g>
</g>
<g>
</g>
<g>
</g>
<g>
</g>
<g>
</g>
<g>
</g>
<g>
</g>
<g>
</g>
<g>
</g>
<g>
</g>
<g>
</g>
<g>
</g>
<g>
</g>
<g>
</g>
</svg>
