<?xml version="1.0" encoding="iso-8859-1"?>
<!-- Generator: Adobe Illustrator 19.0.0, SVG Export Plug-In . SVG Version: 6.00 Build 0)  -->
<svg xmlns="http://www.w3.org/2000/svg" xmlns:xlink="http://www.w3.org/1999/xlink" version="1.1" id="Layer_1" x="0px" y="0px" viewBox="0 0 426.667 426.667" style="enable-background:new 0 0 426.667 426.667;" xml:space="preserve" width="512px" height="512px">
<g>
	<g>
		<path d="M384,96H213.333l-30.869-40.405C175.232,41.131,160.448,32,144.299,32H21.333C9.536,32,0,41.536,0,53.333V352    c0,23.552,19.093,42.667,42.667,42.667H384c23.552,0,42.667-19.115,42.667-42.667V138.667C426.667,115.115,407.552,96,384,96z     M192,352c-11.776,0-21.333-9.557-21.333-21.333s9.557-21.333,21.333-21.333s21.333,9.557,21.333,21.333S203.776,352,192,352z     M213.333,284.885V288h-42.667v-42.667H192c17.643,0,32-14.357,32-32c0-17.643-14.357-32-32-32c-17.643,0-32,14.357-32,32h-42.667    c0-41.173,33.493-74.667,74.667-74.667s74.667,33.493,74.667,74.667C266.667,247.104,244.139,275.691,213.333,284.885z" fill="#6B7687"/>
	</g>
</g>
<g>
</g>
<g>
</g>
<g>
</g>
<g>
</g>
<g>
</g>
<g>
</g>
<g>
</g>
<g>
</g>
<g>
</g>
<g>
</g>
<g>
</g>
<g>
</g>
<g>
</g>
<g>
</g>
<g>
</g>
</svg>
