<?xml version="1.0" encoding="iso-8859-1"?>
<!-- Generator: Adobe Illustrator 19.0.0, SVG Export Plug-In . SVG Version: 6.00 Build 0)  -->
<svg xmlns="http://www.w3.org/2000/svg" xmlns:xlink="http://www.w3.org/1999/xlink" version="1.1" id="Capa_1" x="0px" y="0px" viewBox="0 0 60 60" style="enable-background:new 0 0 60 60;" xml:space="preserve" width="512px" height="512px">
<g>
	<polygon points="46,13 46,0 6,0 6,52 9,52 9,3 36,3  " fill="#6B7687"/>
	<path d="M53.707,58.293L41.486,46.072c1.74-2.06,2.795-4.717,2.795-7.619c0-6.522-5.306-11.828-11.828-11.828   s-11.828,5.306-11.828,11.828s5.306,11.828,11.828,11.828c2.902,0,5.559-1.055,7.619-2.795l12.221,12.221   C52.488,59.902,52.744,60,53,60s0.512-0.098,0.707-0.293C54.098,59.316,54.098,58.684,53.707,58.293z M22.625,38.453   c0-5.419,4.409-9.828,9.828-9.828s9.828,4.409,9.828,9.828s-4.409,9.828-9.828,9.828S22.625,43.872,22.625,38.453z" fill="#6B7687"/>
	<path d="M38,40H27c-0.553,0-1,0.447-1,1s0.447,1,1,1h11c0.553,0,1-0.447,1-1S38.553,40,38,40z" fill="#6B7687"/>
	<path d="M27,36h6c0.553,0,1-0.447,1-1s-0.447-1-1-1h-6c-0.553,0-1,0.447-1,1S26.447,36,27,36z" fill="#6B7687"/>
	<path d="M32.453,52.281c-7.625,0-13.828-6.203-13.828-13.828s6.203-13.828,13.828-13.828s13.828,6.203,13.828,13.828   c0,2.728-0.805,5.267-2.174,7.412L51,52.758V20.586L35.414,5H11v52h35.758l-6.893-6.893C37.72,51.477,35.181,52.281,32.453,52.281z    M34,7.288c0-0.106,0.129-0.16,0.204-0.084l14.592,14.593C48.871,21.872,48.818,22,48.712,22H34V7.288z" fill="#6B7687"/>
</g>
<g>
</g>
<g>
</g>
<g>
</g>
<g>
</g>
<g>
</g>
<g>
</g>
<g>
</g>
<g>
</g>
<g>
</g>
<g>
</g>
<g>
</g>
<g>
</g>
<g>
</g>
<g>
</g>
<g>
</g>
</svg>
