<?xml version="1.0" encoding="iso-8859-1"?>
<!-- Generator: Adobe Illustrator 19.0.0, SVG Export Plug-In . SVG Version: 6.00 Build 0)  -->
<svg xmlns="http://www.w3.org/2000/svg" xmlns:xlink="http://www.w3.org/1999/xlink" version="1.1" id="Capa_1" x="0px" y="0px" viewBox="0 0 489.8 489.8" style="enable-background:new 0 0 489.8 489.8;" xml:space="preserve" width="512px" height="512px">
<g>
	<g>
		<g>
			<path d="M244.9,0C127.1,0,31.5,91.7,31.5,205.3s95.6,205.2,213.4,205.2s213.4-91.7,213.4-205.3S362.7,0,244.9,0z M256.6,21.8     c40.4,0,73.1,17.5,73.1,38.9c0,17.1-31.1,21.8-69.2,78.1c-5.1-1.2-33.7-5.5-57.1,12.4c-10.5-35.4-19.8-79.3-19.8-90.6     C183.5,38.9,216.1,21.8,256.6,21.8z M281.4,205.2c0,20.2-16.3,36.5-36.5,36.5s-36.5-16.3-36.5-36.5s16.3-36.5,36.5-36.5     C265.1,168.7,281.4,185,281.4,205.2z M61.4,193.2c0-40.4,17.5-73.1,38.9-73.1c17.1,0,21.8,31.1,78.1,69.2     c-1.2,5.1-5,33.3,12.4,57.1c-35.4,10.5-79.3,19.8-90.6,19.8C78.9,266.7,61.4,233.6,61.4,193.2z M233.2,388.7     c-40.4,0-73.1-17.5-73.1-38.9c0-17.1,31.1-21.8,69.2-78.1c23,4.9,45.5-3.5,57.1-12.4c10.5,35.4,19.8,79.3,19.8,90.6     C306.3,371.2,273.7,388.7,233.2,388.7z M389.5,290c-17.1,0-21.8-31.1-78.1-69.2c1.2-5.1,8.5-35.2-12.4-57.1     c35.4-10.5,79.3-19.8,90.6-19.8c21.4,0,38.9,32.7,38.9,73.1S410.9,290,389.5,290z" fill="#6B7687"/>
			<path d="M314.9,420.2c-22.2,6.6-45.5,10.5-70,10.5s-47.8-3.5-70-10.5L157,473.5c-2.7,8.2,3.1,16.3,11.7,16.3h152     c8.6,0,14.4-8.2,11.7-16.3L314.9,420.2z M262,470h-34.2c-5.4,0-9.7-4.3-9.7-9.7s4.3-9.7,9.7-9.7H262c5.4,0,9.7,4.3,9.7,9.7     S267.4,470,262,470z" fill="#6B7687"/>
		</g>
	</g>
</g>
<g>
</g>
<g>
</g>
<g>
</g>
<g>
</g>
<g>
</g>
<g>
</g>
<g>
</g>
<g>
</g>
<g>
</g>
<g>
</g>
<g>
</g>
<g>
</g>
<g>
</g>
<g>
</g>
<g>
</g>
</svg>
