<?xml version="1.0" encoding="iso-8859-1"?>
<svg xmlns="http://www.w3.org/2000/svg" xmlns:xlink="http://www.w3.org/1999/xlink" version="1.1" viewBox="0 0 297 297" enable-background="new 0 0 297 297" width="512px" height="512px">
  <g>
    <g>
      <path d="m206.51,32c-0.269-17.718-14.706-32-32.487-32h-49.379c-17.781,0-32.219,14.282-32.487,32h-42.657v265h198v-265h-40.99zm-81.866-16h49.189 0.19c9.099,0 16.5,7.402 16.5,16.5s-7.401,16.5-16.5,16.5h-49.379c-9.099,0-16.5-7.402-16.5-16.5s7.401-16.5 16.5-16.5zm23.856,239h-66v-16h66v16zm0-50h-66v-16h66v16zm0-49h-66v-16h66v16zm0-50h-66v-16h66v16zm43.768,160.029l-19.541-16.204 10.213-12.316 7.793,6.462 12.19-13.362 11.82,10.783-22.475,24.637zm0-50l-19.541-16.204 10.213-12.316 7.793,6.462 12.19-13.362 11.82,10.783-22.475,24.637zm0-49l-19.541-16.204 10.213-12.316 7.793,6.462 12.19-13.362 11.82,10.783-22.475,24.637zm0-50l-19.541-16.204 10.213-12.316 7.793,6.462 12.19-13.362 11.82,10.783-22.475,24.637z" fill="#6B7687"/>
    </g>
  </g>
</svg>
