<?xml version="1.0" encoding="iso-8859-1"?>
<!-- Generator: Adobe Illustrator 19.0.0, SVG Export Plug-In . SVG Version: 6.00 Build 0)  -->
<svg xmlns="http://www.w3.org/2000/svg" xmlns:xlink="http://www.w3.org/1999/xlink" version="1.1" id="Layer_1" x="0px" y="0px" viewBox="0 0 426.667 426.667" style="enable-background:new 0 0 426.667 426.667;" xml:space="preserve" width="512px" height="512px">
<g>
	<g>
		<path d="M213.333,0C95.701,0,0,95.723,0,213.333c0,117.653,95.701,213.333,213.333,213.333s213.333-95.68,213.333-213.333    C426.667,95.723,330.965,0,213.333,0z M213.333,346.667c-14.72,0-26.667-11.925-26.667-26.667    c0-14.72,11.947-26.667,26.667-26.667S240,305.28,240,320C240,334.741,228.053,346.667,213.333,346.667z M234.667,253.333v24H192    v-64h21.333c23.552,0,42.667-19.136,42.667-42.667C256,147.115,236.885,128,213.333,128s-42.667,19.115-42.667,42.667H128    c0-47.04,38.293-85.333,85.333-85.333s85.333,38.293,85.333,85.333C298.667,210.368,271.424,243.819,234.667,253.333z" fill="#6B7687"/>
	</g>
</g>
<g>
</g>
<g>
</g>
<g>
</g>
<g>
</g>
<g>
</g>
<g>
</g>
<g>
</g>
<g>
</g>
<g>
</g>
<g>
</g>
<g>
</g>
<g>
</g>
<g>
</g>
<g>
</g>
<g>
</g>
</svg>
