<?xml version="1.0" encoding="iso-8859-1"?>
<!-- Generator: Adobe Illustrator 19.0.0, SVG Export Plug-In . SVG Version: 6.00 Build 0)  -->
<svg xmlns="http://www.w3.org/2000/svg" xmlns:xlink="http://www.w3.org/1999/xlink" version="1.1" id="Layer_1" x="0px" y="0px" viewBox="0 0 512 512" style="enable-background:new 0 0 512 512;" xml:space="preserve" width="512px" height="512px">
<g>
	<g>
		<path d="M179.743,30.821C148.24-0.677,100.075-8.943,59.889,10.249l-4.798,2.292l71.73,71.721    c11.749,11.747,11.749,30.794,0,42.542c-11.749,11.748-30.799,11.748-42.548,0l-71.73-71.72l-2.292,4.798    C-8.944,100.059-0.677,148.22,30.825,179.717c25.843,25.84,62.902,36.028,97.57,28.264l79.615-79.603    C215.775,93.716,205.586,56.662,179.743,30.821z" fill="#6B7687"/>
	</g>
</g>
<g>
	<g>
		<path d="M481.123,332.159c-25.087-25.084-60.744-35.421-94.522-28.903l-83.302,83.29c-6.52,33.774,3.819,69.426,28.907,94.509    c41.108,41.102,107.495,41.417,148.918,0C522.02,440.164,522.564,373.594,481.123,332.159z M418.947,452.44l-45.839-12.281    l-12.282-45.832l33.556-33.552l45.839,12.281l12.283,45.832L418.947,452.44z" fill="#6B7687"/>
	</g>
</g>
<g>
	<g>
		<path d="M465.404,0.334l-73.661,54.011l14.976,29.948l-129.25,129.232l-56.603-56.595l-63.679,63.67l14.112,14.11L22.257,382.643    c-29.924,29.92-28.931,78.082-0.155,106.853c30.548,30.544,78.777,27.932,106.713,0l148.654-148.633l14.151,14.149l63.679-63.669    l-56.603-56.595l129.25-129.232l29.951,14.974l54.018-73.651L465.404,0.334z M95.269,438.146l-21.226-21.223l160.973-160.951    l21.226,21.223L95.269,438.146z" fill="#6B7687"/>
	</g>
</g>
<g>
</g>
<g>
</g>
<g>
</g>
<g>
</g>
<g>
</g>
<g>
</g>
<g>
</g>
<g>
</g>
<g>
</g>
<g>
</g>
<g>
</g>
<g>
</g>
<g>
</g>
<g>
</g>
<g>
</g>
</svg>
