<?xml version="1.0" encoding="iso-8859-1"?>
<!-- Generator: Adobe Illustrator 18.1.1, SVG Export Plug-In . SVG Version: 6.00 Build 0)  -->
<svg xmlns="http://www.w3.org/2000/svg" xmlns:xlink="http://www.w3.org/1999/xlink" version="1.1" id="Capa_1" x="0px" y="0px" viewBox="0 0 356.496 356.496" style="enable-background:new 0 0 356.496 356.496;" xml:space="preserve" width="512px" height="512px">
<g>
	<g id="Layer_5_13_">
		<g>
			<path d="M335.006,28.814H21.49C9.64,28.814,0,38.454,0,50.305v255.887c0,11.85,9.641,21.49,21.49,21.49h313.516     c11.85,0,21.49-9.64,21.49-21.49V50.305C356.496,38.454,346.855,28.814,335.006,28.814z M261.581,310.465h-19.245     c-3.866,0-7-3.134-7-7s3.134-7,7-7h19.245c3.866,0,7,3.134,7,7S265.447,310.465,261.581,310.465z M316.977,310.465h-19.245     c-3.866,0-7-3.134-7-7s3.134-7,7-7h19.245c3.866,0,7,3.134,7,7S320.844,310.465,316.977,310.465z M331.496,284.747H25v-91.79     c0,0-0.127-2.964,3.134-2.964c7.093,0,22.926,0,28.989,0c3,0,5.398,2.722,5.398,2.722l11.102,12.557     c1.629,1.842,4.076,2.653,6.394,2.118c2.315-0.535,4.16-2.339,4.813-4.706c0,0,9.27-33.924,12.51-45.191     c0.783-2.724,1.691-0.925,1.691-0.925l8.602,20.643c1.151,2.759,3.933,4.613,6.922,4.613c0,0,20.816,0,27.756,0     c2.063,0,2.458,2.111,2.458,2.111l12.322,48.552c0.85,3.339,3.606,4.878,5.96,4.921c0.035,0,0.069,0.001,0.104,0.001     c2.332,0,5.075-1.441,6.033-4.696c0,0,13.983-47.222,18.564-62.986c0.829-2.853,2.007,0.101,2.007,0.101l9.178,18.746     c1.246,2.55,3.991,4.264,6.83,4.264h29.923c3.212,0,6.104-2.147,7.033-5.224c0,0,8.776-29.207,11.75-38.927     c0.567-1.854,0.962,0.494,0.962,0.494l11.673,47.063c0.67,2.717,2.818,4.659,5.473,4.949c2.657,0.292,5.172-1.143,6.415-3.653     l9.969-20.162c0,0,0.325-0.969,1.742-0.969c10.197,0,29.406,0,39.208,0c1.625,0,1.581,1.382,1.581,1.382V284.747z      M331.496,162.999c0,1.5-1.58,1.41-1.58,1.41h-43.199c-2.826,0-5.566,1.702-6.822,4.237c0,0-3.098,6.177-4.084,8.259     c-0.854,1.802-1.157-0.09-1.157-0.09l-13.086-52.764c-0.825-3.346-3.571-4.904-5.925-4.965c-2.366-0.077-5.177,1.354-6.174,4.655     l-16.852,55.826c0,0-0.202,1.27-2.077,1.27c-5.136,0-14.982,0-20.541,0c-1.458,0-2.1-1.248-2.1-1.248l-14.976-30.585     c-1.204-2.464-3.667-3.924-6.282-3.697c-2.613,0.218-4.805,2.058-5.586,4.696l-16.7,56.662c0,0-0.67,3.167-1.456-0.074     c-1.901-7.84-7.938-31.279-7.938-31.279c-0.81-3.18-3.779-5.489-7.061-5.489c0,0-20.598,0-27.464,0     c-2.813,0-3.699-1.961-3.699-1.961l-13.793-33.104c-1.097-2.629-3.557-4.219-6.265-4.046c-2.709,0.17-4.949,2.055-5.706,4.797     c0,0-10.619,36.96-13.676,49.407c-1.3,5.292-4.064,1.799-4.064,1.799l-5.257-5.946c-1.514-1.712-3.873-2.775-6.158-2.775     c0,0-25.084,0-33.445,0c-3.5,0-3.373-2.786-3.373-2.786V71.747h306.496C331.496,71.747,331.496,140.186,331.496,162.999z" fill="#6B7687"/>
		</g>
	</g>
</g>
<g>
</g>
<g>
</g>
<g>
</g>
<g>
</g>
<g>
</g>
<g>
</g>
<g>
</g>
<g>
</g>
<g>
</g>
<g>
</g>
<g>
</g>
<g>
</g>
<g>
</g>
<g>
</g>
<g>
</g>
</svg>
