<?xml version="1.0" encoding="iso-8859-1"?>
<!-- Generator: Adobe Illustrator 19.0.0, SVG Export Plug-In . SVG Version: 6.00 Build 0)  -->
<svg xmlns="http://www.w3.org/2000/svg" xmlns:xlink="http://www.w3.org/1999/xlink" version="1.1" id="Layer_1" x="0px" y="0px" viewBox="0 0 512 512" style="enable-background:new 0 0 512 512;" xml:space="preserve" width="512px" height="512px">
<g>
	<g>
		<polygon points="245.965,23.452 170.475,15.43 0,185.905 75.042,260.946 279.357,56.633   " fill="#6B7687"/>
	</g>
</g>
<g>
	<g>
		<path d="M494.41,84.61l-12.405-12.405c2.863-5.982,4.375-12.577,4.375-19.405c0-12.016-4.679-23.313-13.176-31.809    c-17.526-17.526-46.032-17.541-63.575-0.043l-87.8,86.469l112.497,16.071l55.946,55.947c7.005-8.775,14.601-20.553,18.738-34.166    C515.931,122.489,510.746,100.946,494.41,84.61z" fill="#6B7687"/>
	</g>
</g>
<g>
	<g>
		<rect x="13.639" y="31.603" transform="matrix(0.7071 -0.7071 0.7071 0.7071 -20.7782 57.1721)" width="89.969" height="44.13" fill="#6B7687"/>
	</g>
</g>
<g>
	<g>
		<polygon points="420.187,151.763 294.964,133.874 269.772,158.685 379.507,268.18 468.368,199.944   " fill="#6B7687"/>
	</g>
</g>
<g>
	<g>
		<polygon points="162.93,263.907 0.344,424.031 76.881,500.568 259.538,360.305   " fill="#6B7687"/>
	</g>
</g>
<g>
	<g>
		<path d="M498.068,428.848L223.51,154.891l-63.619,63.619L434.46,492.479c17.383,17.383,45.632,17.987,63.619,0    C518.093,472.465,513.255,444.034,498.068,428.848z" fill="#6B7687"/>
	</g>
</g>
<g>
</g>
<g>
</g>
<g>
</g>
<g>
</g>
<g>
</g>
<g>
</g>
<g>
</g>
<g>
</g>
<g>
</g>
<g>
</g>
<g>
</g>
<g>
</g>
<g>
</g>
<g>
</g>
<g>
</g>
</svg>
