<?xml version="1.0" encoding="iso-8859-1"?>
<!-- Generator: Adobe Illustrator 19.0.0, SVG Export Plug-In . SVG Version: 6.00 Build 0)  -->
<svg xmlns="http://www.w3.org/2000/svg" xmlns:xlink="http://www.w3.org/1999/xlink" version="1.1" id="Layer_1" x="0px" y="0px" viewBox="0 0 512 512" style="enable-background:new 0 0 512 512;" xml:space="preserve" width="512px" height="512px">
<g>
	<g>
		<path d="M421,153.736V136.8c0-24.813-20.187-45-45-45h-60v30h60c8.271,0,15,6.729,15,15v16H228.684    c-6.578-34.685-37.1-61-73.67-61c-37.552,0-68.741,27.742-74.161,63.807C34.556,166.545,0,208.211,0,257.8v30    c0,44.142,27.382,82.004,66.051,97.506C62.211,391.929,60,399.609,60,407.8c0,24.813,20.187,45,45,45s45-20.187,45-45    c0-5.258-0.915-10.305-2.58-15H351v1.793l40.085,35.177c1.009,12.867,11.793,23.03,24.915,23.03c13.785,0,25-11.215,25-25    c0-8.162-3.932-15.421-10-19.986v-17.791c20.535-4.805,39.234-15.718,53.645-31.538C502.285,339.118,512,314.015,512,287.8v-30    C512,204.65,472.302,160.602,421,153.736z M105,422.8c-8.271,0-15-6.729-15-15s6.729-15,15-15s15,6.729,15,15    S113.271,422.8,105,422.8z M112.255,152.8c5.901-17.977,22.833-31,42.759-31c19.926,0,36.858,13.022,42.759,31H112.255z     M401,393.916v4.641l-20-17.551V352.8h20V393.916z" fill="#6B7687"/>
	</g>
</g>
<g>
	<g>
		<polygon points="416,452.8 105,452.8 0,452.8 0,482.8 512,482.8 512,452.8   " fill="#6B7687"/>
	</g>
</g>
<g>
	<g>
		<rect x="50.67" y="88.456" transform="matrix(0.7071 -0.7071 0.7071 0.7071 -46.5974 94.4146)" width="79.999" height="30" fill="#6B7687"/>
	</g>
</g>
<g>
	<g>
		<rect x="15.314" y="53.09" transform="matrix(0.7071 -0.7071 0.7071 0.7071 -31.9463 59.0556)" width="79.999" height="30" fill="#6B7687"/>
	</g>
</g>
<g>
	<g>
		<rect x="204.36" y="63.454" transform="matrix(0.7071 -0.7071 0.7071 0.7071 -8.9034 185.4116)" width="30" height="79.999" fill="#6B7687"/>
	</g>
</g>
<g>
	<g>
		<rect x="239.716" y="28.094" transform="matrix(0.7071 -0.7071 0.7071 0.7071 26.4555 200.0555)" width="30" height="79.999" fill="#6B7687"/>
	</g>
</g>
<g>
</g>
<g>
</g>
<g>
</g>
<g>
</g>
<g>
</g>
<g>
</g>
<g>
</g>
<g>
</g>
<g>
</g>
<g>
</g>
<g>
</g>
<g>
</g>
<g>
</g>
<g>
</g>
<g>
</g>
</svg>
