<?xml version="1.0" encoding="iso-8859-1"?>
<!-- Generator: Adobe Illustrator 16.0.0, SVG Export Plug-In . SVG Version: 6.00 Build 0)  -->
<!DOCTYPE svg PUBLIC "-//W3C//DTD SVG 1.1//EN" "http://www.w3.org/Graphics/SVG/1.1/DTD/svg11.dtd">
<svg xmlns="http://www.w3.org/2000/svg" xmlns:xlink="http://www.w3.org/1999/xlink" version="1.1" id="Capa_1" x="0px" y="0px" width="512px" height="512px" viewBox="0 0 612 612" style="enable-background:new 0 0 612 612;" xml:space="preserve">
<g>
	<path d="M547.624,94.812C497.053,35.875,423.508,2.076,345.836,2.076c-77.757,0-151.31,33.808-201.754,92.703   c-41.581,48.204-64.485,109.831-64.485,173.538c0,11.554,0.776,23.034,2.257,34.383h35.293c-1.068-7.089-1.921-14.221-2.327-21.424   h81.782c0.193,7.267,0.718,14.343,1.23,21.424h26.104c-0.571-7.078-1.105-14.178-1.323-21.424h110.198v61.121   c5.837,2.571,11.232,6.17,15.901,10.782l10.081,9.976v-81.88h110.206c-1.096,36.487-6.783,71.046-15.925,101.606   c-27.467-7.021-56.593-11.062-86.832-12.356l29.059,28.752c16.918,1.897,33.478,4.661,49.234,8.533   c-3.892,9.934-8.234,19.179-12.864,27.859c7.345,8.957,11.586,20.249,11.974,31.864c10.185-15.285,19.166-32.924,26.628-52.583   c14.32,4.696,27.569,10.225,39.692,16.512c-19.341,19.479-41.785,35.19-66.233,46.615v37.769   c39.653-15.683,75.398-40.858,103.867-73.982C589.129,393.718,612,332.091,612,268.316C612,204.549,589.129,142.923,547.624,94.812   z M196.602,255.291h-81.778c2.681-47.401,19.889-92.786,49.354-130.088c14.821,8.143,31.231,15.127,48.95,20.985   C203.499,178.896,197.653,215.803,196.602,255.291z M221.332,121.645c-14.269-4.709-27.492-10.239-39.611-16.513   c22.29-22.508,48.73-40.014,77.655-51.659C244.383,71.841,231.474,94.917,221.332,121.645z M332.811,255.291H222.613   c1.096-36.476,6.78-71.025,15.917-101.578c29.803,7.567,61.407,11.825,94.28,12.715V255.291L332.811,255.291z M332.811,139.949   c-29.606-0.845-58.756-4.566-85.744-11.161C264.58,84.069,290.079,51.1,319.088,38.3c4.551-0.527,9.122-0.947,13.722-1.205   L332.811,139.949L332.811,139.949z M576.772,255.291H495.01c-1.05-39.48-6.894-76.383-16.521-109.087   c17.774-5.88,34.204-12.867,49.008-20.997C556.907,162.437,574.097,207.831,576.772,255.291z M358.794,37.091   c4.597,0.256,9.163,0.677,13.711,1.204c29.022,12.795,54.528,45.775,72.047,90.51c-26.982,6.59-56.138,10.308-85.758,11.147V37.091   z M358.794,255.291v-88.862c32.879-0.885,64.493-5.138,94.294-12.697c9.134,30.549,14.816,65.091,15.912,101.559L358.794,255.291   L358.794,255.291z M432.238,53.477c28.918,11.646,55.371,29.154,77.701,51.667c-12.11,6.257-25.348,11.786-39.654,16.512   C460.143,94.924,447.231,71.847,432.238,53.477z M527.52,411.409c-14.827-8.172-31.273-15.162-49.043-21.001   c9.634-32.716,15.482-69.635,16.533-109.134h81.766C574.113,328.746,556.934,374.152,527.52,411.409z M417.744,484.018V469.27   c0-7.19-2.875-14.081-7.986-19.138l-79.312-78.47c-5.04-4.987-11.844-7.784-18.934-7.784h-40.016V348.87   c0-11.151-9.04-20.19-20.191-20.19H20.19C9.039,328.679,0,337.719,0,348.87v135.147H417.744z M295.255,390.328   c0-1.749,1.414-3.163,3.163-3.163h14.604c0.808,0,1.615,0.337,2.221,0.875l62.12,59.293c2.086,1.952,0.673,5.451-2.153,5.451   h-76.792c-1.75,0-3.163-1.413-3.163-3.163V390.328L295.255,390.328z M417.744,495.174v44.699c0,11.151-9.04,20.191-20.19,20.191   h-21.604c-3.903-26.787-26.988-47.381-54.852-47.381c-27.795,0-50.88,20.595-54.784,47.381h-109.5   c-3.903-26.787-26.989-47.381-54.784-47.381s-50.88,20.595-54.784,47.381H20.19c-11.151,0-20.19-9.04-20.19-20.191v-44.699H417.744   z M321.129,526.17c-23.128,0-41.877,18.749-41.877,41.877s18.749,41.877,41.877,41.877c23.127,0,41.877-18.749,41.877-41.877   S344.256,526.17,321.129,526.17z M321.129,588.985c-11.564,0-20.938-9.375-20.938-20.938s9.374-20.938,20.938-20.938   c11.563,0,20.938,9.374,20.938,20.938S332.692,588.985,321.129,588.985z M102.022,526.17c-23.127,0-41.876,18.749-41.876,41.877   s18.749,41.877,41.876,41.877c23.128,0,41.877-18.749,41.877-41.877S125.15,526.17,102.022,526.17z M102.022,588.985   c-11.563,0-20.938-9.375-20.938-20.938s9.375-20.938,20.938-20.938c11.564,0,20.938,9.374,20.938,20.938   S113.586,588.985,102.022,588.985z" fill="#6B7687"/>
</g>
<g>
</g>
<g>
</g>
<g>
</g>
<g>
</g>
<g>
</g>
<g>
</g>
<g>
</g>
<g>
</g>
<g>
</g>
<g>
</g>
<g>
</g>
<g>
</g>
<g>
</g>
<g>
</g>
<g>
</g>
</svg>
