<?xml version="1.0" encoding="iso-8859-1"?>
<!-- Generator: Adobe Illustrator 19.0.0, SVG Export Plug-In . SVG Version: 6.00 Build 0)  -->
<svg xmlns="http://www.w3.org/2000/svg" xmlns:xlink="http://www.w3.org/1999/xlink" version="1.1" id="Layer_1" x="0px" y="0px" viewBox="0 0 512 512" style="enable-background:new 0 0 512 512;" xml:space="preserve" width="512px" height="512px">
<g>
	<g>
		<path d="M168.721,147.612l63.763-63.763l-39.219-39.22C150.996,2.36,87.591-10.555,19.308,9.19l-7.961,2.302l-2.301,7.961    c-19.745,68.284-6.829,131.689,35.439,173.955l39.219,39.22l63.763-63.763L94.331,115.73l21.254-21.254L168.721,147.612z" fill="#6B7687"/>
	</g>
</g>
<g>
	<g>
		<path d="M500.908,394.958c-25.629-25.63-65.318-28.839-94.47-9.63L168.721,147.611l-21.254,21.254l237.672,237.672    c-8.139,12.212-12.512,26.548-12.512,41.557c0,20.072,7.816,38.943,22.009,53.136l10.627,10.626l106.272-106.271L500.908,394.958z     M407.069,467.543c-2.87-5.995-4.383-12.605-4.383-19.449c0-12.043,4.69-23.366,13.205-31.881    c8.79-8.789,20.336-13.185,31.882-13.185c6.653,0,13.307,1.459,19.433,4.379L407.069,467.543z" fill="#6B7687"/>
	</g>
</g>
<g>
	<g>
		<path d="M511.742,275.152c-2.726-69.503-29.577-135.135-75.955-186.44l21.53-21.529l-21.254-21.255l-21.529,21.528    c-28.888-26.165-62.055-46.024-98.805-59.096l-8.948-3.183l-47.136,47.134l13.611,10.431    c27.284,20.91,53.604,43.602,78.407,67.586l-78.859,78.859l21.254,21.254l78.85-78.849    c40.313,41.683,76.594,87.224,107.956,135.58l10.106,15.582L512,281.719L511.742,275.152z" fill="#6B7687"/>
	</g>
</g>
<g>
	<g>
		
			<rect x="-8.792" y="363.172" transform="matrix(0.7071 -0.7071 0.7071 0.7071 -230.8069 199.187)" width="267.657" height="30.06" fill="#6B7687"/>
	</g>
</g>
<g>
</g>
<g>
</g>
<g>
</g>
<g>
</g>
<g>
</g>
<g>
</g>
<g>
</g>
<g>
</g>
<g>
</g>
<g>
</g>
<g>
</g>
<g>
</g>
<g>
</g>
<g>
</g>
<g>
</g>
</svg>
