<?xml version="1.0" encoding="iso-8859-1"?>
<!-- Generator: Adobe Illustrator 16.0.0, SVG Export Plug-In . SVG Version: 6.00 Build 0)  -->
<!DOCTYPE svg PUBLIC "-//W3C//DTD SVG 1.1//EN" "http://www.w3.org/Graphics/SVG/1.1/DTD/svg11.dtd">
<svg xmlns="http://www.w3.org/2000/svg" xmlns:xlink="http://www.w3.org/1999/xlink" version="1.1" id="Capa_1" x="0px" y="0px" width="512px" height="512px" viewBox="0 0 612 612" style="enable-background:new 0 0 612 612;" xml:space="preserve">
<g>
	<path d="M181.298,386.264c-29.77,0-53.915,24.145-53.915,53.827c0,29.769,24.145,53.914,53.915,53.914   c29.683,0,53.827-24.146,53.827-53.914C235.125,410.409,210.981,386.264,181.298,386.264z M181.298,467.091   c-14.885,0-27-12.115-27-27c0-14.798,12.115-26.914,27-26.914c14.797,0,26.913,12.115,26.913,26.914   C208.211,454.976,196.096,467.091,181.298,467.091z M134.888,386.287H14.228c-4.779,0-8.653,3.874-8.653,8.653v26.256   c0,4.779,3.874,8.653,8.653,8.653h96.714C113.468,412.524,122.212,397.219,134.888,386.287z M462.981,386.264   c-29.684,0-53.827,24.145-53.827,53.827c0,29.769,24.144,53.914,53.827,53.914c29.769,0,53.826-24.146,53.826-53.914   C516.808,410.409,492.75,386.264,462.981,386.264z M462.981,467.091c-14.885,0-26.914-12.115-26.914-27   c0-14.798,12.029-26.914,26.914-26.914c14.884,0,26.913,12.115,26.913,26.914C489.895,454.976,477.865,467.091,462.981,467.091z    M603.347,386.264h-21.029V268.658c0-13.759-4.154-27.259-11.856-38.683l-52.701-78.057   c-12.809-19.039-34.356-30.462-57.375-30.462h-81.692c-9.52,0-17.308,7.702-17.308,17.308v247.5H227.683   c12.635,10.99,21.375,26.222,23.885,43.615h141.144c4.933-34.355,34.529-60.923,70.27-60.923c35.739,0,65.336,26.567,70.355,60.923   h70.01c4.847,0,8.653-3.895,8.653-8.654v-26.307C612,390.158,608.192,386.264,603.347,386.264z M517.153,245.552H409.327   c-4.76,0-8.654-3.808-8.654-8.654v-59.797c0-4.76,3.896-8.654,8.654-8.654h65.683c2.855,0,5.539,1.384,7.097,3.634l42.145,59.884   C528.317,237.677,524.163,245.552,517.153,245.552z M320.192,368.956H17.307C7.749,368.956,0,361.208,0,351.649v-77.885   c0-9.559,7.749-17.308,17.307-17.308h302.885c9.559,0,17.308,7.749,17.308,17.308v77.885   C337.5,361.208,329.751,368.956,320.192,368.956z M138.462,230.495H17.307C7.749,230.495,0,222.745,0,213.187v-77.884   c0-9.559,7.749-17.308,17.307-17.308h121.154c9.559,0,17.308,7.749,17.308,17.308v77.884   C155.77,222.745,148.021,230.495,138.462,230.495z M320.192,230.495H199.039c-9.559,0-17.308-7.749-17.308-17.307v-77.885   c0-9.559,7.749-17.307,17.308-17.307h121.154c9.559,0,17.308,7.749,17.308,17.307v77.885   C337.5,222.745,329.751,230.495,320.192,230.495z" fill="#6B7687"/>
</g>
<g>
</g>
<g>
</g>
<g>
</g>
<g>
</g>
<g>
</g>
<g>
</g>
<g>
</g>
<g>
</g>
<g>
</g>
<g>
</g>
<g>
</g>
<g>
</g>
<g>
</g>
<g>
</g>
<g>
</g>
</svg>
