<?xml version="1.0" encoding="iso-8859-1"?>
<!-- Generator: Adobe Illustrator 19.0.0, SVG Export Plug-In . SVG Version: 6.00 Build 0)  -->
<svg xmlns="http://www.w3.org/2000/svg" xmlns:xlink="http://www.w3.org/1999/xlink" version="1.1" id="Layer_1" x="0px" y="0px" viewBox="0 0 512 512" style="enable-background:new 0 0 512 512;" xml:space="preserve" width="512px" height="512px">
<g>
	<g>
		<g>
			<path d="M503.467,358.4h-102.4v-51.2h102.4c4.719,0,8.533-3.814,8.533-8.533c0-4.719-3.814-8.533-8.533-8.533h-102.4v-25.6     c0-4.719-3.814-8.533-8.533-8.533h-76.8v-42.786c4.599-1.937,9.054-4.164,13.32-6.673l-4.634-6.562     c-11.29-18.534-30.362-29.312-51.354-29.312s-40.064,10.778-51.021,28.809l-4.386,7.415c4.096,2.372,8.346,4.497,12.74,6.349V256     h-76.8c-4.719,0-8.533,3.814-8.533,8.533v26.027C64.35,294.972,0,360.969,0,441.702v61.764C0,508.186,3.814,512,8.533,512     s8.533-3.814,8.533-8.533v-61.764c0-71.347,56.678-129.886,128-134.246v49.34c-43.059,4.284-76.8,40.73-76.8,84.907v61.764     c0,4.719,3.814,8.533,8.533,8.533s8.533-3.814,8.533-8.533v-61.764c0-34.748,26.112-63.454,59.733-67.678v27.042     c0,4.719,3.814,8.533,8.533,8.533h238.933c4.719,0,8.533-3.814,8.533-8.533v-25.6h102.4c4.719,0,8.533-3.814,8.533-8.533     C512,362.214,508.186,358.4,503.467,358.4z M247.467,218.812c0.137,0.034,0.282,0.034,0.427,0.068     c3.908,0.93,7.885,1.656,11.938,2.142c0.358,0.051,0.725,0.077,1.084,0.119c3.994,0.444,8.038,0.725,12.151,0.725     c4.087,0,8.098-0.282,12.066-0.725c0.41-0.043,0.819-0.077,1.237-0.128c4.011-0.486,7.953-1.203,11.827-2.125     c0.154-0.034,0.316-0.043,0.469-0.077V256h-51.2V218.812z M349.867,358.4c0,4.719-3.814,8.533-8.533,8.533H204.8     c-4.719,0-8.533-3.814-8.533-8.533v-51.2c0-4.719,3.814-8.533,8.533-8.533h136.533c4.719,0,8.533,3.814,8.533,8.533V358.4z" fill="#6B7687"/>
			<rect x="213.335" y="315.729" width="119.467" height="34.133" fill="#6B7687"/>
			<path d="M203.546,197.248l3.857-6.528c14.131-23.279,38.656-37.12,65.664-37.12s51.533,13.841,65.604,37.026l4.42,6.246     C368.034,176.512,384,145.562,384,110.933C384,49.766,334.234,0,273.067,0S162.133,49.766,162.133,110.933     C162.133,145.783,178.321,176.896,203.546,197.248z M341.333,102.4c4.71,0,8.533,3.823,8.533,8.533s-3.823,8.533-8.533,8.533     c-4.71,0-8.533-3.823-8.533-8.533S336.623,102.4,341.333,102.4z M324.267,59.733c4.71,0,8.533,3.823,8.533,8.533     c0,4.71-3.823,8.533-8.533,8.533s-8.533-3.823-8.533-8.533C315.733,63.556,319.556,59.733,324.267,59.733z M273.067,34.133     c4.71,0,8.533,3.823,8.533,8.533s-3.823,8.533-8.533,8.533c-4.71,0-8.533-3.823-8.533-8.533S268.356,34.133,273.067,34.133z      M239.01,87.177c3.635-3.038,9.011-2.534,12.015,1.084l28.595,34.27c3.021,3.618,2.526,9.003-1.084,12.024     c-1.604,1.331-3.533,1.98-5.461,1.98c-2.449,0-4.873-1.041-6.562-3.063l-28.587-34.278     C234.897,95.573,235.392,90.189,239.01,87.177z M221.867,59.733c4.71,0,8.533,3.823,8.533,8.533c0,4.71-3.823,8.533-8.533,8.533     s-8.533-3.823-8.533-8.533C213.333,63.556,217.156,59.733,221.867,59.733z M204.8,102.4c4.71,0,8.533,3.823,8.533,8.533     s-3.823,8.533-8.533,8.533s-8.533-3.823-8.533-8.533S200.09,102.4,204.8,102.4z" fill="#6B7687"/>
		</g>
	</g>
</g>
<g>
</g>
<g>
</g>
<g>
</g>
<g>
</g>
<g>
</g>
<g>
</g>
<g>
</g>
<g>
</g>
<g>
</g>
<g>
</g>
<g>
</g>
<g>
</g>
<g>
</g>
<g>
</g>
<g>
</g>
</svg>
