<?xml version="1.0" encoding="iso-8859-1"?>
<!-- Generator: Adobe Illustrator 19.0.0, SVG Export Plug-In . SVG Version: 6.00 Build 0)  -->
<svg xmlns="http://www.w3.org/2000/svg" xmlns:xlink="http://www.w3.org/1999/xlink" version="1.1" id="Layer_1" x="0px" y="0px" viewBox="0 0 511.995 511.995" style="enable-background:new 0 0 511.995 511.995;" xml:space="preserve" width="512px" height="512px">
<g>
	<g>
		<rect x="-2.228" y="73.118" transform="matrix(0.7071 -0.7071 0.7071 0.7071 -39.4946 80.9777)" width="160.458" height="30.09" fill="#6B7687"/>
	</g>
</g>
<g>
	<g>
		<rect x="-2.58" y="37.664" transform="matrix(0.7071 -0.7071 0.7071 0.7071 -24.8083 45.5253)" width="90.259" height="30.09" fill="#6B7687"/>
	</g>
</g>
<g>
	<g>
		<path d="M256,241.088c-13.825,0-25.072,11.247-25.072,25.072s11.247,25.072,25.072,25.072s25.072-11.247,25.072-25.072    C281.072,252.335,269.825,241.088,256,241.088z" fill="#6B7687"/>
	</g>
</g>
<g>
	<g>
		<path d="M444.632,190.991l21.274-21.274L352.443,56.254l-21.274,21.275l24.82,24.82l-19.357,19.357    c-23.873-13.378-51.374-21.021-80.631-21.021c-29.257,0-56.759,7.643-80.631,21.021l-19.357-19.357l24.82-24.82l-21.274-21.274    L46.094,169.717l21.274,21.274l24.82-24.82l19.358,19.358c-13.378,23.872-21.021,51.374-21.021,80.631    c0,91.243,74.231,165.475,165.475,165.475s165.475-74.232,165.475-165.475c0-29.257-7.643-56.759-21.021-80.631l19.358-19.358    L444.632,190.991z M256,321.318c-30.414,0-55.158-24.744-55.158-55.158s24.744-55.158,55.158-55.158s55.158,24.744,55.158,55.158    S286.414,321.318,256,321.318z" fill="#6B7687"/>
	</g>
</g>
<g>
	<g>
		<rect x="418.952" y="7.943" transform="matrix(0.7071 -0.7071 0.7071 0.7071 64.768 332.7076)" width="30.09" height="160.458" fill="#6B7687"/>
	</g>
</g>
<g>
	<g>
		<rect x="454.4" y="7.579" transform="matrix(0.7071 -0.7071 0.7071 0.7071 100.2262 347.3853)" width="30.09" height="90.259" fill="#6B7687"/>
	</g>
</g>
<g>
	<g>
		<g>
			<path d="M331.215,471.75v-25.081c-23.167,9.689-48.574,15.052-75.215,15.052c-26.641,0-52.049-5.362-75.216-15.052v25.081     h-35.101v30.086h220.633V471.75H331.215z" fill="#6B7687"/>
			<polygon points="331.215,446.669 331.215,446.669 331.216,446.669    " fill="#6B7687"/>
		</g>
	</g>
</g>
<g>
</g>
<g>
</g>
<g>
</g>
<g>
</g>
<g>
</g>
<g>
</g>
<g>
</g>
<g>
</g>
<g>
</g>
<g>
</g>
<g>
</g>
<g>
</g>
<g>
</g>
<g>
</g>
<g>
</g>
</svg>
