<?xml version="1.0" encoding="iso-8859-1"?>
<!-- Generator: Adobe Illustrator 19.0.0, SVG Export Plug-In . SVG Version: 6.00 Build 0)  -->
<svg xmlns="http://www.w3.org/2000/svg" xmlns:xlink="http://www.w3.org/1999/xlink" version="1.1" id="Layer_1" x="0px" y="0px" viewBox="0 0 512.002 512.002" style="enable-background:new 0 0 512.002 512.002;" xml:space="preserve" width="512px" height="512px">
<g>
	<g>
		<g>
			<path d="M503.467,477.868H34.133V8.534c0-4.71-3.823-8.533-8.533-8.533c-4.71,0-8.533,3.823-8.533,8.533v469.333H8.533     c-4.71,0-8.533,3.823-8.533,8.533s3.823,8.533,8.533,8.533h8.533v8.533c0,4.71,3.823,8.533,8.533,8.533     c4.71,0,8.533-3.823,8.533-8.533v-8.533h469.333c4.719,0,8.533-3.823,8.533-8.533S508.186,477.868,503.467,477.868z" fill="#6B7687"/>
			<path d="M59.733,247.468H76.8c4.71,0,8.533-3.823,8.533-8.533s-3.823-8.533-8.533-8.533H59.733c-4.71,0-8.533,3.823-8.533,8.533     S55.023,247.468,59.733,247.468z" fill="#6B7687"/>
			<path d="M59.733,213.334H76.8c4.71,0,8.533-3.823,8.533-8.533c0-4.71-3.823-8.533-8.533-8.533H59.733     c-4.71,0-8.533,3.823-8.533,8.533C51.2,209.512,55.023,213.334,59.733,213.334z" fill="#6B7687"/>
			<path d="M59.733,179.201H76.8c4.71,0,8.533-3.823,8.533-8.533s-3.823-8.533-8.533-8.533H59.733c-4.71,0-8.533,3.823-8.533,8.533     S55.023,179.201,59.733,179.201z" fill="#6B7687"/>
			<path d="M59.733,145.068H76.8c4.71,0,8.533-3.823,8.533-8.533s-3.823-8.533-8.533-8.533H59.733c-4.71,0-8.533,3.823-8.533,8.533     S55.023,145.068,59.733,145.068z" fill="#6B7687"/>
			<path d="M59.733,110.934H76.8c4.71,0,8.533-3.823,8.533-8.533c0-4.71-3.823-8.533-8.533-8.533H59.733     c-4.71,0-8.533,3.823-8.533,8.533C51.2,107.111,55.023,110.934,59.733,110.934z" fill="#6B7687"/>
			<path d="M59.733,76.801H76.8c4.71,0,8.533-3.823,8.533-8.533s-3.823-8.533-8.533-8.533H59.733c-4.71,0-8.533,3.823-8.533,8.533     S55.023,76.801,59.733,76.801z" fill="#6B7687"/>
			<path d="M59.733,42.668H76.8c4.71,0,8.533-3.823,8.533-8.533c0-4.71-3.823-8.533-8.533-8.533H59.733     c-4.71,0-8.533,3.823-8.533,8.533C51.2,38.845,55.023,42.668,59.733,42.668z" fill="#6B7687"/>
			<path d="M102.4,452.268c28.237,0,51.2-22.963,51.2-51.2c0-6.622-1.306-12.928-3.601-18.739c0.171-0.12,0.367-0.171,0.529-0.307     l44.962-37.47c9.156,8.559,21.41,13.85,34.91,13.85c28.237,0,51.2-22.963,51.2-51.2c0-10.94-3.473-21.06-9.344-29.389     l35.388-28.305c14.652,9.472,32.051,15.027,50.756,15.027c20.625,0,39.663-6.767,55.177-18.091l83.857,83.857     c1.664,1.664,3.849,2.5,6.033,2.5c2.185,0,4.369-0.836,6.033-2.5c3.337-3.336,3.337-8.73,0-12.066l-83.072-83.072     c15.966-16.845,25.839-39.509,25.839-64.495c0-51.755-42.112-93.867-93.867-93.867s-93.867,42.112-93.867,93.867     c0,26.76,11.315,50.884,29.346,68.002l-33.707,26.957c-8.397-6.033-18.662-9.626-29.773-9.626c-28.237,0-51.2,22.963-51.2,51.2     c0,8.593,2.15,16.683,5.905,23.799l-43.989,36.659c-9.395-10.871-23.253-17.792-38.716-17.792c-28.237,0-51.2,22.963-51.2,51.2     C51.2,429.305,74.163,452.268,102.4,452.268z" fill="#6B7687"/>
		</g>
	</g>
</g>
<g>
</g>
<g>
</g>
<g>
</g>
<g>
</g>
<g>
</g>
<g>
</g>
<g>
</g>
<g>
</g>
<g>
</g>
<g>
</g>
<g>
</g>
<g>
</g>
<g>
</g>
<g>
</g>
<g>
</g>
</svg>
