<?xml version="1.0" encoding="iso-8859-1"?>
<!-- Generator: Adobe Illustrator 19.0.0, SVG Export Plug-In . SVG Version: 6.00 Build 0)  -->
<svg xmlns="http://www.w3.org/2000/svg" xmlns:xlink="http://www.w3.org/1999/xlink" version="1.1" id="Layer_1" x="0px" y="0px" viewBox="0 0 512 512" style="enable-background:new 0 0 512 512;" xml:space="preserve" width="512px" height="512px">
<g>
	<g>
		<path d="M376.971,369.788l-83.592-12.146l-22.371-45.333v-22.682c-0.75,0.11-1.501,0.2-2.251,0.28V0h-25.513v289.907    c-0.75-0.08-1.501-0.17-2.251-0.28v22.682l-22.371,45.333l-83.592,12.146l60.491,58.96L181.242,512L256,472.69L330.758,512    l-14.277-83.252L376.971,369.788z" fill="#6B7687"/>
	</g>
</g>
<g>
	<g>
		<path d="M298.772,0v248.556v17.139v16.438c40.581-16.828,69.185-56.859,69.185-103.453V0H298.772z" fill="#6B7687"/>
	</g>
</g>
<g>
	<g>
		<path d="M144.043,0v178.681c0,46.594,28.604,86.624,69.185,103.453V0H144.043z" fill="#6B7687"/>
	</g>
</g>
<g>
</g>
<g>
</g>
<g>
</g>
<g>
</g>
<g>
</g>
<g>
</g>
<g>
</g>
<g>
</g>
<g>
</g>
<g>
</g>
<g>
</g>
<g>
</g>
<g>
</g>
<g>
</g>
<g>
</g>
</svg>
