<?xml version="1.0" encoding="iso-8859-1"?>
<!-- Generator: Adobe Illustrator 19.0.0, SVG Export Plug-In . SVG Version: 6.00 Build 0)  -->
<svg xmlns="http://www.w3.org/2000/svg" xmlns:xlink="http://www.w3.org/1999/xlink" version="1.1" id="Layer_1" x="0px" y="0px" viewBox="0 0 512.001 512.001" style="enable-background:new 0 0 512.001 512.001;" xml:space="preserve" width="512px" height="512px">
<g>
	<g>
		<path d="M272.567,311.347c-11.028,0-20,8.972-20,20s8.972,20,20,20c11.028,0,20-8.972,20-20S283.594,311.347,272.567,311.347z" fill="#6B7687"/>
	</g>
</g>
<g>
	<g>
		<path d="M272.589,247.566c-13.784,0-24.998,11.215-24.998,25c0,13.785,11.214,25,24.998,25s24.998-11.215,24.998-25    C297.587,258.781,286.373,247.566,272.589,247.566z" fill="#6B7687"/>
	</g>
</g>
<g>
	<g>
		<path d="M272.589,193.785c-11.027,0-19.998,8.972-19.998,20c0,11.028,8.971,20,19.998,20c11.027,0,19.998-8.972,19.998-20    C292.587,202.757,283.617,193.785,272.589,193.785z" fill="#6B7687"/>
	</g>
</g>
<g>
	<g>
		<path d="M213.813,252.566c-11.027,0-19.998,8.972-19.998,20c0,11.028,8.971,20,19.998,20c11.027,0,19.998-8.972,19.998-20    C233.812,261.538,224.841,252.566,213.813,252.566z" fill="#6B7687"/>
	</g>
</g>
<g>
	<g>
		<path d="M331.364,252.566c-11.027,0-19.998,8.972-19.998,20c0,11.028,8.971,20,19.998,20c11.028,0,19.998-8.972,19.998-20    C351.362,261.538,342.391,252.566,331.364,252.566z" fill="#6B7687"/>
	</g>
</g>
<g>
	<g>
		<path d="M272.589,0C199.989,0,131.682,28.221,80.251,79.463C28.836,130.69,0.358,198.867,0.063,271.436L0,286.497h128.299    l0.062-14.939c0.322-78.979,65.022-143.234,144.228-143.234h14.999V0H272.589z" fill="#6B7687"/>
	</g>
</g>
<g>
	<g>
		<path d="M441.878,103.26c-34.423-34.426-77.485-57.062-124.294-65.916v120.98h-44.996c-62.732,0-113.976,50.852-114.231,113.357    l-0.185,44.816H37.19c8.709,47.227,31.423,90.688,66.108,125.375c45.219,45.223,105.342,70.129,169.29,70.129    s124.07-24.906,169.29-70.129C487.098,396.649,512,336.521,512,272.566S487.099,148.483,441.878,103.26z M272.589,364.439    c-50.654,0-91.865-41.214-91.865-91.874c0-50.66,41.211-91.874,91.865-91.874s91.864,41.214,91.864,91.874    S323.244,364.439,272.589,364.439z" fill="#6B7687"/>
	</g>
</g>
<g>
</g>
<g>
</g>
<g>
</g>
<g>
</g>
<g>
</g>
<g>
</g>
<g>
</g>
<g>
</g>
<g>
</g>
<g>
</g>
<g>
</g>
<g>
</g>
<g>
</g>
<g>
</g>
<g>
</g>
</svg>
