<?xml version="1.0" encoding="iso-8859-1"?>
<!-- Generator: Adobe Illustrator 19.0.0, SVG Export Plug-In . SVG Version: 6.00 Build 0)  -->
<svg xmlns="http://www.w3.org/2000/svg" xmlns:xlink="http://www.w3.org/1999/xlink" version="1.1" id="Layer_1" x="0px" y="0px" viewBox="0 0 512.002 512.002" style="enable-background:new 0 0 512.002 512.002;" xml:space="preserve" width="512px" height="512px">
<g>
	<g>
		<path d="M437.001,0h-257v70h-80v31h-100v30h100v28h80v71h332V75C512.001,33.645,478.356,0,437.001,0z M406.001,160h-120v-30h120    V160z M406.001,100h-120V70h120V100z" fill="#6B7687"/>
	</g>
</g>
<g>
	<g>
		<path d="M352.001,260.001V287h0h30v28c0,29.946,20.361,55.212,47.962,62.719c-10.739,59.226-62.686,104.283-124.962,104.283    c-70.028,0-127-56.972-127-127.003c0-49.074-39.925-88.999-88.999-88.999S0.003,305.925,0.003,355l30-0.001    C30.003,322.467,56.47,296,89.002,296s58.999,26.467,58.999,59.002c0,86.57,70.43,157,157,157    c78.535,0,143.784-57.964,155.22-133.356c29.523-6.125,51.78-32.333,51.78-63.645v-55H352.001z" fill="#6B7687"/>
	</g>
</g>
<g>
</g>
<g>
</g>
<g>
</g>
<g>
</g>
<g>
</g>
<g>
</g>
<g>
</g>
<g>
</g>
<g>
</g>
<g>
</g>
<g>
</g>
<g>
</g>
<g>
</g>
<g>
</g>
<g>
</g>
</svg>
