<?xml version="1.0" encoding="iso-8859-1"?>
<!-- Generator: Adobe Illustrator 18.1.1, SVG Export Plug-In . SVG Version: 6.00 Build 0)  -->
<svg xmlns="http://www.w3.org/2000/svg" xmlns:xlink="http://www.w3.org/1999/xlink" version="1.1" id="Capa_1" x="0px" y="0px" viewBox="0 0 475.902 475.902" style="enable-background:new 0 0 475.902 475.902;" xml:space="preserve" width="512px" height="512px">
<g>
	<path d="M13.734,51.167l0.016,0.016c0.26,0.61,0.545,0.878,0.545,0.878l0.179-0.187l121.847,116.539v307.488   h327.663V18.669H136.321v53.405L61.855,0.86l-0.366,0.382C59.018,0.34,45.094-4.806,25.707,15.467S12.726,48.737,13.734,51.167   L13.734,51.167z M353.354,336.7h69.987v98.559h-69.987V336.7z M353.354,151.775h19.305h10.096h27.434h11.242h1.91v176.796h-69.987   V151.775z M353.354,59.312h11.177v84.334h-11.177V59.312z M390.883,59.312h11.177v84.334h-11.177V59.312z M423.341,143.646h-1.91   h-11.242V59.312h13.152V143.646z M382.755,143.646h-10.096V59.312h10.096V143.646z M345.225,143.646h-10.161V59.312h10.161V143.646   z M315.759,59.312h11.177v84.334h-11.177V59.312z M176.964,59.312h130.667v84.334h-42.675v8.129h42.675h27.434h10.161v176.796   v8.129v98.559h-53.852v-18.85h-16.257v18.85h-98.153V283.864h12.803v-16.257h-12.803v-60.322l7.34,7.023   c1.796-8.99,8.348-20.053,16.639-29.515c10.006-11.437,21.573-19.622,30.376-21.858l-54.356-51.99V59.312z" fill="#6B7687"/>
	<path d="M204.455,187.191c-11.453,13.315-15.818,24.768-16.038,30.539c-0.065,1.756,3.877,3.983,4.576,3.983   c0.016,0,0.033,0,0.041,0l9.307,1.114l6.934,0.829l31.653,3.796c0-0.016-0.016-0.033-0.016-0.057   c-0.187-2.365,0.894-5.121,2.967-7.56c1.008-1.179,3.65-3.796,6.942-4.032l-9.031-30.807l-1.951-6.657l-2.43-8.307   c0.146-1.829-1.951-4.178-2.536-4.178C229.011,165.862,216.363,173.34,204.455,187.191z M230.58,175.632l1.463,4.999l1.951,6.657   l7.064,24.093c-1.561,1.195-2.707,2.414-3.365,3.195c-1.081,1.268-1.992,2.609-2.731,3.975l-24.719-2.959l-6.934-0.829   l-5.918-0.707c1.626-4.991,5.69-12.794,13.225-21.557C218.606,183.192,225.995,178.014,230.58,175.632z" fill="#6B7687"/>
	<path d="M246.227,227.582c0.041,0.057,0.041,0.146,0.089,0.195l7.332,6.137   c0.471,0.39,2.203,0.951,3.853,0.951c1.105,0,2.17-0.252,2.788-0.967c1.544-1.78-0.26-5.788-1.049-6.446l-7.332-6.137   c-0.171-0.146-0.398-0.211-0.667-0.211c-0.049,0-0.106,0.024-0.154,0.033c-0.935,0.081-2.26,0.902-3.398,2.219   C246.244,225.021,245.666,226.81,246.227,227.582z" fill="#6B7687"/>
	<polygon points="275.116,293.57 291.373,293.57 291.373,267.607 263.834,267.607 263.834,283.864    275.116,283.864  " fill="#6B7687"/>
	<rect x="215.062" y="267.607" width="23.475" height="16.257" fill="#6B7687"/>
	<rect x="275.116" y="318.866" width="16.257" height="23.475" fill="#6B7687"/>
	<rect x="275.116" y="367.637" width="16.257" height="23.475" fill="#6B7687"/>
</g>
<g>
</g>
<g>
</g>
<g>
</g>
<g>
</g>
<g>
</g>
<g>
</g>
<g>
</g>
<g>
</g>
<g>
</g>
<g>
</g>
<g>
</g>
<g>
</g>
<g>
</g>
<g>
</g>
<g>
</g>
</svg>
