<?xml version="1.0" encoding="iso-8859-1"?>
<!-- Generator: Adobe Illustrator 19.0.0, SVG Export Plug-In . SVG Version: 6.00 Build 0)  -->
<svg xmlns="http://www.w3.org/2000/svg" xmlns:xlink="http://www.w3.org/1999/xlink" version="1.1" id="Capa_1" x="0px" y="0px" viewBox="0 0 464 464" style="enable-background:new 0 0 464 464;" xml:space="preserve" width="512px" height="512px">
<g>
	<g>
		<path d="M0,296v32c0,8.84,7.16,16,16,16h160l-2.912,16L160,432h-38.112c-6.064,0-11.6,3.424-14.312,8.848    C102.256,451.48,109.992,464,121.888,464h220.224c11.896,0,19.632-12.52,14.312-23.152c-2.712-5.424-8.256-8.848-14.312-8.848H304    l-13.088-72L288,344h160c8.84,0,16-7.16,16-16v-32H0z M256,328h-48v-16h48V328z" fill="#6B7687"/>
	</g>
</g>
<g>
	<g>
		<rect x="296" y="104" width="112" height="16" fill="#6B7687"/>
	</g>
</g>
<g>
	<g>
		<rect x="296" y="72" width="48" height="16" fill="#6B7687"/>
	</g>
</g>
<g>
	<g>
		<rect x="296" y="136" width="48" height="16" fill="#6B7687"/>
	</g>
</g>
<g>
	<g>
		<path d="M448,0H16C7.16,0,0,7.16,0,16v264h464V16C464,7.16,456.84,0,448,0z M120,248c-48.6,0-88-39.4-88-88c0-48.6,39.4-88,88-88    v88h88C208,208.6,168.6,248,120,248z M152,128V40c48.6,0,88,39.4,88,88H152z M432,248H272V32h160V248z" fill="#6B7687"/>
	</g>
</g>
<g>
	<g>
		<rect x="296" y="200" width="48" height="16" fill="#6B7687"/>
	</g>
</g>
<g>
	<g>
		<rect x="296" y="168" width="112" height="16" fill="#6B7687"/>
	</g>
</g>
<g>
</g>
<g>
</g>
<g>
</g>
<g>
</g>
<g>
</g>
<g>
</g>
<g>
</g>
<g>
</g>
<g>
</g>
<g>
</g>
<g>
</g>
<g>
</g>
<g>
</g>
<g>
</g>
<g>
</g>
</svg>
