<?xml version="1.0" encoding="iso-8859-1"?>
<!-- Generator: Adobe Illustrator 19.0.0, SVG Export Plug-In . SVG Version: 6.00 Build 0)  -->
<svg xmlns="http://www.w3.org/2000/svg" xmlns:xlink="http://www.w3.org/1999/xlink" version="1.1" id="Layer_1" x="0px" y="0px" viewBox="0 0 512 512" style="enable-background:new 0 0 512 512;" xml:space="preserve" width="512px" height="512px">
<g>
	<g>
		<path d="M385.838,42.607l-18.909-18.91c-1.912-1.912-4.507-2.987-7.212-2.987c-2.705,0-5.299,1.075-7.212,2.987l-41.534,41.534    l-0.962-0.962c-1.912-1.912-4.507-2.987-7.212-2.987c-2.705,0-5.298,1.075-7.212,2.987l-8.459,8.459l-0.719-0.719    c-5.912-5.914-13.773-9.169-22.134-9.169c-8.361,0-16.223,3.256-22.135,9.168l-58.208,58.208c-3.983,3.983-3.983,10.441,0,14.425    c1.992,1.991,4.602,2.987,7.212,2.987s5.22-0.996,7.212-2.987l58.208-58.208c2.06-2.06,4.798-3.194,7.712-3.194    c2.912,0,5.65,1.134,7.712,3.194l0.719,0.719L55.295,304.559c-0.95,0.951-1.702,2.078-2.214,3.319L28.268,367.95    c-1.574,3.808-0.701,8.191,2.214,11.106c1.951,1.951,4.56,2.986,7.215,2.986c1.311,0,2.632-0.252,3.891-0.773l60.072-24.813    c1.241-0.512,2.368-1.265,3.319-2.214l240.289-240.289c3.983-3.983,3.983-10.441,0-14.425l-0.963-0.963l41.533-41.534    C389.821,53.049,389.821,46.591,385.838,42.607z M91.994,338.38l-35.498,14.662l14.662-35.498L302.796,85.907l20.836,20.836    L91.994,338.38z M329.881,84.142l-4.486-4.486l34.321-34.321l4.486,4.486L329.881,84.142z" fill="#6B7687"/>
	</g>
</g>
<g>
	<g>
		<path d="M506.555,135.251c-3.347-1.764-7.396-1.531-10.519,0.61L4.435,472.678c-3.687,2.526-5.299,7.161-3.978,11.43    c1.323,4.271,5.273,7.182,9.743,7.182h491.601c5.632,0,10.199-4.567,10.199-10.199V144.274    C511.999,140.489,509.903,137.016,506.555,135.251z M491.601,470.892h-46.093v-9.421c0-5.632-4.567-10.199-10.199-10.199    c-5.632,0-10.199,4.567-10.199,10.199v9.421h-83.88v-9.421c0-5.632-4.567-10.199-10.199-10.199s-10.199,4.567-10.199,10.199v9.421    h-83.88v-9.421c0-5.632-4.567-10.199-10.199-10.199c-5.632,0-10.199,4.567-10.199,10.199v9.421h-83.88v-9.421    c0-5.632-4.567-10.199-10.199-10.199c-5.632,0-10.199,4.567-10.199,10.199v9.421H43.13l448.47-307.267V470.892z" fill="#6B7687"/>
	</g>
</g>
<g>
	<g>
		<path d="M440.064,260.857c-3.349-1.763-7.397-1.531-10.521,0.61L218.319,406.186c-3.687,2.527-5.299,7.161-3.978,11.431    s5.272,7.181,9.742,7.181h211.225c5.632,0,10.199-4.567,10.199-10.199V269.881C445.507,266.096,443.412,262.623,440.064,260.857z     M425.108,404.4H257.014l168.094-115.168V404.4z" fill="#6B7687"/>
	</g>
</g>
<g>
	<g>
		<path d="M473.242,197.733c-5.632,0-10.199,4.567-10.199,10.199v60.175c0,5.633,4.566,10.199,10.199,10.199    c5.632,0,10.199-4.567,10.199-10.199v-60.175C483.441,202.3,478.874,197.733,473.242,197.733z" fill="#6B7687"/>
	</g>
</g>
<g>
	<g>
		<path d="M473.242,287.485c-5.632,0-10.199,4.567-10.199,10.199v8.159c0,5.633,4.566,10.199,10.199,10.199    c5.632,0,10.199-4.567,10.199-10.199v-8.159C483.441,292.053,478.874,287.485,473.242,287.485z" fill="#6B7687"/>
	</g>
</g>
<g>
</g>
<g>
</g>
<g>
</g>
<g>
</g>
<g>
</g>
<g>
</g>
<g>
</g>
<g>
</g>
<g>
</g>
<g>
</g>
<g>
</g>
<g>
</g>
<g>
</g>
<g>
</g>
<g>
</g>
</svg>
