<?xml version="1.0" encoding="iso-8859-1"?>
<!-- Generator: Adobe Illustrator 19.0.0, SVG Export Plug-In . SVG Version: 6.00 Build 0)  -->
<svg xmlns="http://www.w3.org/2000/svg" xmlns:xlink="http://www.w3.org/1999/xlink" version="1.1" id="Layer_1" x="0px" y="0px" viewBox="0 0 512 512" style="enable-background:new 0 0 512 512;" xml:space="preserve" width="512px" height="512px">
<g>
	<g>
		<path d="M271,433.654V311.839c3.102-3.524,5-8.132,5-13.185c0-11.028-8.972-20-20-20s-20,8.972-20,20c0,5.053,1.898,9.66,5,13.185    v121.815H0v30h512v-30H271z" fill="#6B7687"/>
	</g>
</g>
<g>
	<g>
		<path d="M480.36,301.552c5.628-9.455,23.382-40.633,23.382-40.633s-25.898-16.79-32.451-21.533    c2.363-9.468,10.112-41.931,10.112-41.931s-28.592-9.45-36.203-12.538c-0.353-10.651-1.569-41.439-1.569-41.439    s-29.104-3.896-37.747-5.461c-2.794-8.895-13.533-41.714-13.533-41.714s-29.659,3.09-38.484,3.873    c-6.772-10.157-26.852-38.964-26.852-38.964s-28.093,13.478-35.264,16.809c-8.958-7.344-37.43-29.675-37.43-29.675    s-21.094,22.628-26.845,28.354c-9.5-3.925-41.636-16.641-41.636-16.641s-13.089,27.505-17.023,34.617    c-9.833-1.045-41.591-4.169-41.591-4.169s-6.838,28.759-9.284,36.904c-8.868,1.497-41.772,7.364-41.772,7.364    s-0.942,29.338-1.481,38.375C63.7,178.396,33.44,193.542,33.44,193.542s8.08,29.801,10.125,37.609    c-8.958,8.146-35.245,33.185-35.245,33.185s18.626,24.853,23.319,31.418c-5.625,9.451-23.383,40.634-23.383,40.634    s25.899,16.79,32.453,21.533c-2.374,9.505-10.111,41.931-10.111,41.931s5.002,1.653,11.373,3.801H211v-15.714    c-32.598-16.496-55-50.322-55-89.286c0-55.14,44.86-100,100-100s100,44.86,100,100c0,38.963-22.402,72.789-55,89.286v15.714    h177.528c-0.521-1.923-8.123-29.979-10.093-37.499c8.961-8.148,35.243-33.183,35.243-33.183S485.052,308.115,480.36,301.552z" fill="#6B7687"/>
	</g>
</g>
<g>
	<g>
		<path d="M256,228.654c-38.66,0-70,31.34-70,70c0,21.521,9.72,40.765,25,53.605v-31.85c-3.267-6.736-5-14.164-5-21.755    c0-27.57,22.43-50,50-50s50,22.43,50,50c0,7.591-1.733,15.019-5,21.755v31.85c15.28-12.841,25-32.084,25-53.605    C326,259.994,294.66,228.654,256,228.654z" fill="#6B7687"/>
	</g>
</g>
<g>
</g>
<g>
</g>
<g>
</g>
<g>
</g>
<g>
</g>
<g>
</g>
<g>
</g>
<g>
</g>
<g>
</g>
<g>
</g>
<g>
</g>
<g>
</g>
<g>
</g>
<g>
</g>
<g>
</g>
</svg>
