<?xml version="1.0" encoding="iso-8859-1"?>
<!-- Generator: Adobe Illustrator 16.0.0, SVG Export Plug-In . SVG Version: 6.00 Build 0)  -->
<!DOCTYPE svg PUBLIC "-//W3C//DTD SVG 1.1//EN" "http://www.w3.org/Graphics/SVG/1.1/DTD/svg11.dtd">
<svg xmlns="http://www.w3.org/2000/svg" xmlns:xlink="http://www.w3.org/1999/xlink" version="1.1" id="Capa_1" x="0px" y="0px" width="512px" height="512px" viewBox="0 0 45 45" style="enable-background:new 0 0 45 45;" xml:space="preserve">
<g>
	<path d="M26.083,7.417c0,0.69-0.56,1.25-1.25,1.25H9.917c-0.69,0-1.25-0.56-1.25-1.25s0.56-1.25,1.25-1.25h14.916   C25.523,6.167,26.083,6.727,26.083,7.417z M24.833,11.25H9.917c-0.69,0-1.25,0.56-1.25,1.25s0.56,1.25,1.25,1.25h14.916   c0.69,0,1.25-0.56,1.25-1.25S25.523,11.25,24.833,11.25z M44.939,18.667l-5,22.5c-0.254,1.144-1.27,1.958-2.439,1.958h-5h-25h-5   c-1.381,0-2.5-1.119-2.5-2.5v-30c0-1.381,1.119-2.5,2.5-2.5h1.25v-5c0-0.69,0.559-1.25,1.25-1.25h25c0.689,0,1.25,0.56,1.25,1.25v5   h1.25c1.381,0,2.5,1.119,2.5,2.5v2.5h2.5c1.381,0,2.5,1.119,2.5,2.5h2.5c0.758,0,1.477,0.344,1.949,0.936   C44.924,17.152,45.105,17.927,44.939,18.667z M3.75,10.625H2.5v30h1.25V10.625z M31.25,13.125h1.25v-2.5h-1.25V13.125z    M12.5,15.625h15c0-1.381,1.119-2.5,2.5-2.5v-10H5v37.5h0.002c0-0.182,5.057-23.042,5.057-23.042   C10.313,16.439,11.329,15.625,12.5,15.625z M34.445,36.346L30.5,33.125c-0.344-0.28-0.771-0.378-1.178-0.316l-0.459-0.375   c0.951-1.438,1.377-3.146,1.201-4.885c-0.201-1.992-1.166-3.789-2.717-5.056c-1.338-1.09-3.021-1.691-4.743-1.691   c-2.263,0-4.381,1.004-5.813,2.757c-2.615,3.202-2.137,7.938,1.066,10.553c1.335,1.092,3.019,1.691,4.74,1.691   c1.843,0,3.582-0.675,4.939-1.867l0.52,0.422c0.021,0.41,0.2,0.812,0.545,1.092l3.942,3.221c0.279,0.229,0.615,0.338,0.948,0.338   c0.436,0,0.865-0.188,1.162-0.551C35.184,37.814,35.086,36.87,34.445,36.346z M25.768,24.43c-0.931-0.758-2.05-1.127-3.161-1.127   c-1.449,0-2.887,0.627-3.875,1.838c-1.747,2.14-1.429,5.289,0.71,7.035c0.929,0.758,2.048,1.127,3.159,1.127   c1.448,0,2.887-0.627,3.875-1.838C28.225,29.326,27.904,26.177,25.768,24.43z" fill="#6B7687"/>
</g>
<g>
</g>
<g>
</g>
<g>
</g>
<g>
</g>
<g>
</g>
<g>
</g>
<g>
</g>
<g>
</g>
<g>
</g>
<g>
</g>
<g>
</g>
<g>
</g>
<g>
</g>
<g>
</g>
<g>
</g>
</svg>
