<?xml version="1.0" encoding="iso-8859-1"?>
<!-- Generator: Adobe Illustrator 16.0.0, SVG Export Plug-In . SVG Version: 6.00 Build 0)  -->
<!DOCTYPE svg PUBLIC "-//W3C//DTD SVG 1.1//EN" "http://www.w3.org/Graphics/SVG/1.1/DTD/svg11.dtd">
<svg xmlns="http://www.w3.org/2000/svg" xmlns:xlink="http://www.w3.org/1999/xlink" version="1.1" id="Capa_1" x="0px" y="0px" width="512px" height="512px" viewBox="0 0 612.052 612.052" style="enable-background:new 0 0 612.052 612.052;" xml:space="preserve">
<g>
	<g id="_x34_7">
		<g>
			<path d="M600.557,98.793c-14.979-35.578-32.311-49.602-65.498-61.953c-29.802-11.036-57.053-13.387-92.193,2.829     c-23.944,11.076-43.546,30.638-43.546,30.638L175.372,303.816c0,0-20.12,33.905-20.319,63.029     c-0.159,21.912,12.112,40.956,17.291,48.009c1.395,1.912,2.271,2.908,2.271,2.908s27.411,24.94,54.224,25.856     c27.331,1.036,54.145-21.912,54.145-21.912l201.636-213.628c0,0,10.199-13.228,12.431-24.702     c3.426-17.769-5.618-28.964-22.829-25.578c-13.427,2.669-29.482,14.462-29.482,14.462L255.055,374.016     c0,0-11.355,12.152-22.431,13.188c-18.407,1.674-28.168-16.056-25.22-30.877c1.913-9.562,12.55-18.167,12.55-18.167     l223.947-232.832c0,0,27.053-22.709,51.834-22.311c49.243,0.717,64.741,41.873,66.017,63.706     c1.234,21.156-10.239,42.311-10.239,42.311s-6.614,12.59-16.653,23.228c-63.547,67.69-295.741,309.167-295.741,309.167     s-17.809,18.407-37.132,25.817c-26.933,10.398-60.797,5.657-83.586-5.896c-20.718-10.438-46.574-37.291-56.415-60.559     c-12.829-30.479-12.112-64.901-6.415-83.786c6.813-22.63,20.957-44.542,20.957-44.542L359.438,52.697     c0,0,10.598-10.637,12.271-21.434c2.63-16.574-12.789-28.925-24.82-24.064C335.454,11.9,321.19,21.661,321.19,21.661     L51.825,305.41c0,0-25.578,29.482-39.204,62.591c-16.893,41.036-17.052,84.503,0.876,130.32     c15.618,39.921,44.104,71.714,89.125,91.914c46.574,20.836,86.137,20,126.257,2.908c28.686-12.231,51.674-35.101,51.674-35.101     l290.88-304.506c0,0,24.503-25.538,34.901-53.626C617.848,168.794,609.92,120.945,600.557,98.793z" fill="#6B7687"/>
		</g>
	</g>
</g>
<g>
</g>
<g>
</g>
<g>
</g>
<g>
</g>
<g>
</g>
<g>
</g>
<g>
</g>
<g>
</g>
<g>
</g>
<g>
</g>
<g>
</g>
<g>
</g>
<g>
</g>
<g>
</g>
<g>
</g>
</svg>
