<?xml version="1.0" encoding="iso-8859-1"?>
<!-- Generator: Adobe Illustrator 16.0.0, SVG Export Plug-In . SVG Version: 6.00 Build 0)  -->
<!DOCTYPE svg PUBLIC "-//W3C//DTD SVG 1.1//EN" "http://www.w3.org/Graphics/SVG/1.1/DTD/svg11.dtd">
<svg xmlns="http://www.w3.org/2000/svg" xmlns:xlink="http://www.w3.org/1999/xlink" version="1.1" id="Capa_1" x="0px" y="0px" width="512px" height="512px" viewBox="0 0 32 32" style="enable-background:new 0 0 32 32;" xml:space="preserve">
<g>
	<path d="M25.02,15.78V8.197l-8.644-2.392V5.789l-7.75,2.136v7.759L0,16.537v7.722l16.305,1.952L32,24.327v-7.854L25.02,15.78z    M6.978,17.248l1.324-0.088v1.229l-1.324,0.049V17.248z M5.107,17.342l1.208-0.08v1.172l-1.208,0.045V17.342z M3.458,17.469   l1.11-0.072v1.121l-1.11,0.043V17.469z M2.025,17.58l1.028-0.068v1.08L2.025,18.63V17.58z M0.591,17.688l0.949-0.062v1.037   l-0.949,0.035V17.688z M1.54,22.123L0.59,22.07v-1.012l0.95,0.027V22.123z M1.55,20.48L0.6,20.469v-1.011l0.95-0.015V20.48z    M3.053,22.194l-1.028-0.058v-1.052l1.028,0.029V22.194z M3.063,20.482l-1.029-0.012V19.42l1.029-0.017V20.482z M4.567,22.264   l-1.109-0.062v-1.092l1.109,0.031V22.264z M4.579,20.484l-1.111-0.014V19.38l1.111-0.019V20.484z M6.314,22.342l-1.208-0.066   v-1.137l1.208,0.032V22.342z M6.327,20.486l-1.209-0.014v-1.138l1.209-0.021V20.486z M8.302,22.482l-1.324-0.073v-1.188   l1.324,0.036V22.482z M8.314,20.539L6.99,20.523v-1.19l1.324-0.021V20.539z M14.05,12.398v-2.14l1.054-0.209v2.188L14.05,12.398z    M15.104,12.822v2.188l-1.054,0.104v-2.141L15.104,12.822z M14.024,7.534l1.052-0.267v2.187l-1.052,0.221V7.534z M12.429,15.267   v-2.072l0.984-0.141v2.113L12.429,15.267z M12.597,16.837v1.349l-1.593,0.062v-1.304L12.597,16.837z M12.429,12.641v-2.072   l0.984-0.195v2.114L12.429,12.641z M12.404,7.935l0.983-0.249v2.113l-0.983,0.207V7.935z M11.815,12.742l-0.922,0.143V10.88   l0.922-0.183V12.742z M9.398,13.141v-1.94l0.862-0.171v1.978L9.398,13.141z M10.261,13.537v1.978l-0.863,0.086v-1.94L10.261,13.537   z M9.377,8.734l0.861-0.218v1.977l-0.861,0.18V8.734z M8.917,17.1l1.451-0.096v1.285l-1.451,0.057V17.1z M10.367,22.579   l-1.45-0.081v-1.244l1.45,0.04V22.579z M10.382,20.542l-1.451-0.017v-1.244l1.451-0.024V20.542z M10.871,8.331l0.921-0.233v2.044   l-0.921,0.193V8.331z M10.894,13.422l0.922-0.132v2.045l-0.922,0.092V13.422z M12.597,22.686l-1.594-0.088v-1.305l1.594,0.043   V22.686z M12.612,20.548l-1.594-0.017v-1.305l1.594-0.027V20.548z M15.104,22.818l-1.762-0.098v-1.369l1.762,0.047V22.818z    M15.122,20.57l-1.763-0.021v-1.368l1.763-0.031V20.57z M15.123,18.139l-1.763,0.064v-1.369l1.763-0.116V18.139z M23.725,8.842   l0.739,0.188v1.863l-0.739-0.156V8.842z M22.316,8.519l0.789,0.199v1.921l-0.789-0.165V8.519z M22.27,11.022l0.789,0.156v1.924   L22.27,12.98V11.022z M23.07,13.66v1.923l-0.789-0.078v-1.957L23.07,13.66z M20.771,10.703l0.842,0.167v1.985l-0.842-0.13V10.703z    M19.157,7.715l0.899,0.229v2.052l-0.899-0.188V7.715z M17.546,7.307l0.96,0.243v2.119l-0.96-0.202V7.307z M17.486,10.072   l0.963,0.189v2.122l-0.963-0.149V10.072z M18.463,12.999v2.121l-0.961-0.096v-2.162L18.463,12.999z M18.98,22.664l-1.523,0.082   v-1.354l1.523-0.041V22.664z M18.993,20.492l-1.521,0.015v-1.354l1.521,0.026V20.492z M19.007,18.082l-1.521-0.062v-1.353   l1.521,0.102V18.082z M19.104,10.393l0.9,0.178v2.055l-0.9-0.14V10.393z M19.116,13.093l0.899,0.129v2.054l-0.899-0.09V13.093z    M21.23,22.553l-1.385,0.075v-1.289l1.385-0.038V22.553z M21.242,20.48l-1.383,0.015v-1.29l1.383,0.023V20.48z M21.255,18.182   l-1.383-0.055v-1.289l1.383,0.092V18.182z M21.626,15.417l-0.841-0.084v-2.022l0.841,0.12V15.417z M21.663,10.314l-0.839-0.177   v-2.02l0.839,0.213V10.314z M23.264,22.439L22,22.508v-1.232l1.264-0.033V22.439z M23.273,20.458l-1.264,0.013v-1.231l1.264,0.022   V20.458z M23.286,18.259l-1.265-0.051v-1.229l1.265,0.084V18.259z M23.68,11.268l0.74,0.146v1.865l-0.74-0.115V11.268z    M23.689,13.715l0.74,0.106v1.864l-0.74-0.074V13.715z M25.105,22.361l-1.16,0.062v-1.179l1.16-0.032V22.361z M25.117,20.462   l-1.16,0.013v-1.18l1.16,0.02V20.462z M25.127,18.354l-1.159-0.047v-1.178l1.159,0.077V18.354z M26.814,22.257l-1.066,0.058v-1.131   l1.066-0.028V22.257z M26.825,20.434l-1.067,0.011v-1.13l1.067,0.018V20.434z M26.835,18.409l-1.067-0.042v-1.131l1.067,0.07   V18.409z M28.413,22.18l-0.985,0.053v-1.086l0.985-0.026V22.18z M28.422,20.426l-0.984,0.012v-1.086l0.984,0.017V20.426z    M28.432,18.48l-0.984-0.039v-1.084l0.984,0.064V18.48z M29.878,22.096l-0.913,0.049v-1.043l0.913-0.025V22.096z M29.887,20.408   l-0.912,0.009v-1.044l0.912,0.016V20.408z M29.895,18.535l-0.912-0.036v-1.043l0.912,0.062V18.535z M31.223,22.041l-0.849,0.046   v-1.006l0.849-0.022V22.041z M31.229,20.413l-0.848,0.009v-1.006l0.848,0.014V20.413z M31.236,18.607l-0.848-0.033v-1.006   l0.848,0.056V18.607z" fill="#6B7687"/>
</g>
<g>
</g>
<g>
</g>
<g>
</g>
<g>
</g>
<g>
</g>
<g>
</g>
<g>
</g>
<g>
</g>
<g>
</g>
<g>
</g>
<g>
</g>
<g>
</g>
<g>
</g>
<g>
</g>
<g>
</g>
</svg>
