<?xml version="1.0" encoding="iso-8859-1"?>
<!-- Generator: Adobe Illustrator 19.0.0, SVG Export Plug-In . SVG Version: 6.00 Build 0)  -->
<svg xmlns="http://www.w3.org/2000/svg" xmlns:xlink="http://www.w3.org/1999/xlink" version="1.1" id="Layer_1" x="0px" y="0px" viewBox="0 0 461.137 461.137" style="enable-background:new 0 0 461.137 461.137;" xml:space="preserve" width="512px" height="512px">
<g>
	<g>
		<g>
			<path d="M115.006,53.742c-9.531,0-18.885,1.708-27.801,5.077l-5.128,1.938c-1.257,3.601-1.949,7.468-1.949,11.498     c0,19.263,15.615,34.878,34.878,34.878s34.878-15.615,34.878-34.878c0-4.03-0.692-7.897-1.949-11.498l-5.128-1.938     C133.89,55.45,124.537,53.742,115.006,53.742z" fill="#6B7687"/>
			<path d="M183.071,152.49c-7.808-22.72-20.9-34.24-38.911-34.24c-25.309,0-33.046,0-58.308,0c-18.012,0-31.103,11.52-38.911,34.24     C34.839,187.703,7.361,262.883,7.085,263.638c-3.192,8.729,1.298,18.393,10.026,21.584c8.734,3.193,18.395-1.302,21.584-10.026     c0.234-0.641,19.967-54.628,33.445-92.784c-0.904,7.387,1.966-8.241-23.903,125.32c-0.531,2.74,0.192,5.573,1.967,7.727     c1.775,2.154,4.421,3.41,7.212,3.41c3.62,0,7.981,0,12.842,0v122.073c0,11.153,9.041,20.194,20.194,20.194     c11.153,0,20.194-9.041,20.194-20.194V318.869c2.903,0,5.816,0,8.719,0v122.073c0,11.153,9.041,20.194,20.194,20.194     s20.194-9.041,20.194-20.194V318.869c4.862,0,9.223,0,12.842,0c2.793,0,5.439-1.249,7.215-3.404     c1.776-2.155,2.494-4.992,1.963-7.733C155.683,173.03,158.769,189.763,157.8,181.84c14.51,39.75,38.013,99.726,39.173,102.685     c3.391,8.649,13.152,12.918,21.811,9.524c8.653-3.393,12.917-13.158,9.524-21.811C227.978,271.395,195.11,187.523,183.071,152.49     z" fill="#6B7687"/>
			<path d="M83.678,49.485c10.094-3.814,20.711-5.722,31.328-5.722s21.234,1.907,31.328,5.722     c4.654-12.317,9.308-24.634,13.963-36.951c0.363-0.962,0.32-2.03-0.117-2.961c-0.437-0.93-1.232-1.644-2.204-1.979     c-13.921-4.794-28.445-7.19-42.97-7.19c-14.525,0-29.049,2.397-42.97,7.19c-0.972,0.335-1.768,1.048-2.205,1.979     c-0.437,0.931-0.479,1.999-0.115,2.961C74.369,24.851,79.023,37.168,83.678,49.485z M104.278,17.792h5.738v-5.738h9.979v5.738     h5.738v9.979h-5.738v5.738h-9.979V27.77h-5.738V17.792z" fill="#6B7687"/>
			<path d="M307.702,177.544v-10.335c0-5.272-4.288-9.56-9.56-9.56c-0.011,0-0.021,0.002-0.032,0.002v26.17     c0.01,0.012,0.022,0.023,0.032,0.036C300.594,180.885,303.91,178.651,307.702,177.544z" fill="#6B7687"/>
			<path d="M360.704,153.209c0-11.699,5.8-22.189,15-28.443v-0.133v-17.256c0-7.436-2.81-14.225-7.42-19.37h-21.455     c-0.006,0-0.012,0.001-0.019,0.001c-0.006,0-0.012-0.001-0.019-0.001h-21.789c-4.61,5.145-7.42,11.934-7.42,19.37v15.479     c1.23,0.542,2.429,1.139,3.602,1.777c15.212,8.277,25.398,24.427,25.398,42.576v18.833c0,16.325-13.281,29.607-29.606,29.607     h-3.833c-6.032,0-11.432-2.762-15-7.087c-0.01,0.012-0.022,0.024-0.032,0.037l0.009,230.562c0,12.137,9.839,21.976,21.976,21.976     c12.137,0,21.976-9.839,21.976-21.976V263.506h9.489V439.16c0,12.137,9.839,21.976,21.976,21.976s21.976-9.839,21.976-21.976     c0-16.954-0.398-234.56-0.398-251.512C376.136,187.63,360.704,172.188,360.704,153.209z" fill="#6B7687"/>
			<path d="M249.702,186.042V168.91l-11.037,94.729c-1.17,10.046,6.024,19.139,16.07,20.31c10.045,1.171,19.139-6.024,20.31-16.07     l6.086-52.229h-1.821C262.984,215.649,249.702,202.367,249.702,186.042z" fill="#6B7687"/>
			<path d="M278.702,122.856v-15.479c0-5.473,0.668-10.791,1.896-15.893c-15.076,6.453-25.816,21.219-26.359,38.49l-2.88,24.717     C255.177,140.528,265.306,128.755,278.702,122.856z" fill="#6B7687"/>
			<path d="M454.955,263.639l-15.574-133.666c-0.548-17.414-11.458-32.288-26.732-38.656c1.254,5.152,1.934,10.526,1.934,16.059     v17.389c9.2,6.254,15,16.744,15,28.443c0,14.104-8.526,26.249-20.691,31.568l9.682,83.102     c1.172,10.056,10.276,17.242,20.31,16.07C448.93,282.778,456.125,273.685,454.955,263.639z" fill="#6B7687"/>
			<path d="M283.142,188.709h-3.833c-1.47,0-2.667-1.196-2.667-2.667v-18.833c0-11.855,9.645-21.5,21.5-21.5     c11.855,0,21.5,9.645,21.5,21.5v18.833c0,1.47-1.196,2.667-2.667,2.667h-3.833c-4.142,0-7.5,3.358-7.5,7.5     c0,4.142,3.358,7.5,7.5,7.5h3.833c9.741,0,17.667-7.925,17.667-17.667v-18.833c0-17.556-12.46-32.253-29-35.722v-24.111     c0-15.883,9.084-29.675,22.324-36.481c5.554,3.184,11.983,5.014,18.844,5.014c6.796,0,13.168-1.795,18.686-4.923     c13.144,6.838,22.147,20.578,22.147,36.39v24.623c-8.729,3.096-15,11.432-15,21.21c0,12.407,10.093,22.5,22.5,22.5     c12.407,0,22.5-10.093,22.5-22.5c0-9.777-6.271-18.114-15-21.21v-24.623c0-19.566-10.093-36.809-25.339-46.826     c4.8-6.467,7.46-14.395,7.46-22.596C384.765,16.993,367.772,0,346.81,0c-20.962,0-37.954,16.993-37.954,37.954     c0,7.887,2.461,15.789,7.355,22.449c-15.373,9.994-25.569,27.31-25.569,46.973v24.111c-16.54,3.469-29,18.166-29,35.722v18.833     c0,9.741,7.925,17.667,17.667,17.667h3.833c4.142,0,7.5-3.358,7.5-7.5C290.642,192.067,287.284,188.709,283.142,188.709z      M395.143,145.709c4.136,0,7.5,3.364,7.5,7.5s-3.364,7.5-7.5,7.5s-7.5-3.364-7.5-7.5S391.008,145.709,395.143,145.709z" fill="#6B7687"/>
		</g>
	</g>
</g>
<g>
</g>
<g>
</g>
<g>
</g>
<g>
</g>
<g>
</g>
<g>
</g>
<g>
</g>
<g>
</g>
<g>
</g>
<g>
</g>
<g>
</g>
<g>
</g>
<g>
</g>
<g>
</g>
<g>
</g>
</svg>
