<?xml version="1.0" encoding="iso-8859-1"?>
<!-- Generator: Adobe Illustrator 16.0.0, SVG Export Plug-In . SVG Version: 6.00 Build 0)  -->
<!DOCTYPE svg PUBLIC "-//W3C//DTD SVG 1.1//EN" "http://www.w3.org/Graphics/SVG/1.1/DTD/svg11.dtd">
<svg xmlns="http://www.w3.org/2000/svg" xmlns:xlink="http://www.w3.org/1999/xlink" version="1.1" id="Capa_1" x="0px" y="0px" width="512px" height="512px" viewBox="0 0 32 32" style="enable-background:new 0 0 32 32;" xml:space="preserve">
<g>
	<path d="M28.184,15.618v-3.992l-4.955-0.697V7.821l-3.416-0.662V5.88l-5.616-1.205l-3.672,0.817v1.523L8.564,7.39l-0.003,3.347   l-5.291,0.61v4.064L0,15.626v9.906l14.909,1.793L32,25.155V15.82L28.184,15.618z M0.63,16.905l2.177-0.084v0.649L0.63,17.53V16.905   z M2.822,19.067v0.65l-2.171-0.029v-0.625L2.822,19.067z M0.627,17.841l2.18-0.046v0.651l-2.18,0.021V17.841z M0.648,20.004   l2.176,0.041v0.651L0.648,20.63V20.004z M0.671,21.252l2.123,0.09v0.649l-2.123-0.113V21.252z M2.826,22.976L0.7,22.823v-0.627   l2.126,0.127V22.976z M7.467,11.785l0.924-0.104v0.716l-0.924,0.094V11.785z M7.466,12.841l0.925-0.089v0.716l-0.925,0.078V12.841z    M7.469,16.022v-0.705l0.922-0.051v0.716L7.469,16.022z M8.378,16.733v0.715l-0.9,0.019v-0.705L8.378,16.733z M7.47,14.962v-0.706   l0.92-0.066v0.716L7.47,14.962z M6.214,11.908l0.885-0.101v0.7l-0.885,0.092V11.908z M6.213,12.942l0.886-0.085v0.7l-0.886,0.075   V12.942z M6.215,16.057v-0.69l0.884-0.05v0.701L6.215,16.057z M7.087,16.753v0.699l-0.863,0.019v-0.69L7.087,16.753z M6.216,15.019   v-0.69l0.882-0.064v0.7L6.216,15.019z M4.874,12.075L5.72,11.98v0.685l-0.846,0.086V12.075z M4.873,13.086l0.847-0.082v0.685   l-0.847,0.072V13.086z M4.876,16.131v-0.675l0.844-0.048v0.686L4.876,16.131z M5.708,16.812v0.686l-0.824,0.017v-0.675   L5.708,16.812z M4.877,15.115v-0.674l0.842-0.062v0.686L4.877,15.115z M3.725,12.188l0.812-0.093v0.671l-0.812,0.083V12.188z    M3.724,13.178l0.813-0.079v0.671l-0.813,0.069V13.178z M3.726,16.162V15.5l0.812-0.045v0.671L3.726,16.162z M4.526,16.83v0.67   l-0.792,0.017v-0.66L4.526,16.83z M3.727,15.167v-0.661l0.81-0.06v0.671L3.727,15.167z M4.49,23.165l-0.81-0.063V22.44l0.81,0.055   V23.165z M3.682,22.108v-0.66l0.808,0.039v0.67L3.682,22.108z M4.49,20.811l-0.812-0.03v-0.66l0.812,0.021V20.811z M4.49,19.808   l-0.81-0.017V19.13l0.811,0.007L4.49,19.808L4.49,19.808z M4.538,18.512l-0.793,0.002v-0.661l0.793-0.012V18.512z M5.671,23.276   l-0.843-0.064v-0.676l0.843,0.057V23.276z M4.829,22.196v-0.674l0.841,0.041v0.685L4.829,22.196z M5.671,20.874l-0.845-0.032   v-0.674l0.845,0.021V20.874z M5.671,19.851l-0.844-0.018v-0.674l0.844,0.007V19.851z M5.721,18.528L4.896,18.53v-0.674l0.825-0.013   V18.528z M7.048,23.368L6.165,23.3V22.61l0.883,0.059V23.368z M6.166,22.263v-0.689l0.881,0.043v0.701L6.166,22.263z M7.048,20.909   l-0.885-0.032v-0.688l0.885,0.021V20.909z M7.048,19.862l-0.884-0.018v-0.689l0.884,0.008V19.862z M7.1,18.51l-0.863,0.002v-0.69   L7.1,17.809V18.51z M8.338,23.489l-0.921-0.071v-0.704l0.921,0.061V23.489z M7.418,22.36v-0.705L8.336,21.7v0.716L7.418,22.36z    M8.338,20.979l-0.924-0.035v-0.705l0.924,0.024V20.979z M8.338,19.907l-0.922-0.019v-0.704l0.922,0.008V19.907z M8.392,18.526   l-0.9,0.002v-0.705l0.9-0.013V18.526z M9.27,8.959l4.939-0.8V8.94L9.27,9.683V8.959z M9.266,10.062l4.949-0.715v0.781l-4.949,0.657   V10.062z M14.221,10.962v0.78l-4.936,0.537v-0.724L14.221,10.962z M9.259,12.644l4.962-0.511v0.781l-4.962,0.452V12.644z    M9.265,16.61l4.962-0.193v0.781l-4.962,0.136V16.61z M9.259,17.692l4.968-0.106v0.78l-4.968,0.049V17.692z M14.221,19.153v0.781   l-4.944-0.066v-0.724L14.221,19.153z M9.271,20.233l4.956,0.094v0.783l-4.956-0.153V20.233z M9.318,21.716l4.836,0.209v0.78   L9.318,22.44V21.716z M14.23,23.887l-4.847-0.351v-0.726l4.847,0.294V23.887z M14.232,15.672L9.27,15.921v-0.724l4.962-0.307   V15.672z M14.232,14.498l-4.956,0.335V14.11l4.956-0.393V14.498z M21.771,12.689l0.727,0.078v0.656l-0.727-0.07V12.689z    M21.768,14.105l0.728,0.062v0.656l-0.728-0.054V14.105z M20.738,11.563l0.752,0.094v0.667l-0.752-0.085V11.563z M20.736,12.587   l0.75,0.081v0.667l-0.75-0.072V12.587z M20.732,14.056l0.752,0.063v0.667l-0.752-0.055V14.056z M20.73,15.08l0.752,0.051v0.667   l-0.752-0.042V15.08z M20.729,16.536l0.752,0.032v0.667l-0.752-0.023V16.536z M19.417,15.725v-0.69l0.783,0.053v0.681   L19.417,15.725z M20.198,16.555v0.683l-0.785-0.024v-0.69L20.198,16.555z M19.419,14.678v-0.69l0.784,0.064v0.682L19.419,14.678z    M19.422,13.178v-0.69l0.784,0.084v0.682L19.422,13.178z M19.425,12.131v-0.69l0.784,0.097v0.682L19.425,12.131z M19.348,8.894   l0.784,0.129v0.682l-0.784-0.121V8.894z M18.299,15.702V15l0.812,0.053v0.693L18.299,15.702z M19.107,16.547v0.694l-0.812-0.025   v-0.702L19.107,16.547z M18.302,14.636v-0.702L19.115,14v0.694L18.302,14.636z M18.305,13.11v-0.703l0.812,0.086v0.693   L18.305,13.11z M18.307,12.044v-0.703l0.813,0.101v0.693L18.307,12.044z M18.227,8.748l0.813,0.133v0.694l-0.813-0.124V8.748z    M16.792,15.62v-0.719l0.853,0.056v0.71L16.792,15.62z M17.641,16.487v0.709l-0.852-0.024v-0.72L17.641,16.487z M16.795,14.529   V13.81l0.852,0.07v0.709L16.795,14.529z M16.798,12.966v-0.719l0.853,0.09v0.71L16.798,12.966z M16.801,11.874v-0.719l0.852,0.104   v0.71L16.801,11.874z M16.716,8.5l0.854,0.14v0.711L16.716,9.22V8.5z M15.577,15.595v-0.732l0.883,0.058v0.723L15.577,15.595z    M16.457,16.478V17.2l-0.883-0.025v-0.732L16.457,16.478z M15.58,14.484V13.75l0.884,0.072v0.723L15.58,14.484z M15.583,12.891   v-0.733l0.883,0.093v0.724L15.583,12.891z M15.586,11.779v-0.733l0.885,0.108v0.724L15.586,11.779z M15.498,8.341l0.886,0.145V9.21   l-0.886-0.135V8.341z M15.494,9.454l0.886,0.13v0.724l-0.886-0.12V9.454z M15.57,17.554l0.884,0.021v0.723l-0.884-0.012V17.554z    M16.46,23.666l-0.883,0.062v-0.732l0.883-0.053V23.666z M16.464,22.569l-0.884,0.045v-0.732l0.884-0.037V22.569z M16.467,21.01   l-0.884,0.026v-0.733l0.884-0.017V21.01z M16.471,19.913l-0.884,0.011V19.19h0.884V19.913z M16.713,9.593l0.854,0.125v0.711   l-0.854-0.116V9.593z M16.786,17.543l0.853,0.021v0.711l-0.853-0.012V17.543z M17.645,23.544l-0.853,0.059v-0.719l0.853-0.05   V23.544z M17.646,22.466l-0.853,0.045v-0.719l0.853-0.035V22.466z M17.648,20.937l-0.852,0.024v-0.72l0.852-0.015V20.937z    M17.652,19.86l-0.852,0.01v-0.721h0.852V19.86z M18.223,9.815l0.814,0.12v0.694l-0.814-0.11V9.815z M18.293,17.58l0.812,0.02   v0.694l-0.812-0.012V17.58z M19.109,23.444L18.297,23.5v-0.702l0.812-0.048V23.444z M19.113,22.391l-0.812,0.042v-0.701   l0.812-0.035V22.391z M19.116,20.896l-0.812,0.023v-0.703l0.812-0.014V20.896z M19.119,19.843l-0.812,0.01v-0.703h0.812V19.843z    M19.343,9.942l0.787,0.116v0.683l-0.787-0.108V9.942z M19.411,17.569l0.784,0.021v0.683l-0.784-0.012V17.569z M20.2,23.33   l-0.784,0.054v-0.689l0.784-0.045V23.33z M20.203,22.296l-0.784,0.04v-0.69l0.784-0.031V22.296z M20.206,20.827l-0.784,0.021v-0.69   l0.784-0.013V20.827z M20.209,19.793l-0.784,0.009v-0.689h0.784V19.793z M20.727,17.562l0.752,0.021v0.667l-0.752-0.012V17.562z    M21.482,23.202l-0.752,0.051v-0.676l0.752-0.043V23.202z M21.484,22.19l-0.752,0.037v-0.676l0.752-0.029V22.19z M21.486,20.751   l-0.75,0.021v-0.676l0.75-0.013V20.751z M21.49,19.739l-0.752,0.006v-0.674h0.752V19.739z M21.493,10.886l-0.752-0.103v-0.675   l0.752,0.111V10.886z M21.496,9.874l-0.752-0.116V9.083l0.752,0.123V9.874z M21.757,15.14l0.728,0.048v0.656l-0.728-0.04V15.14z    M22.488,16.602v0.655l-0.727-0.021v-0.665L22.488,16.602z M21.76,17.552l0.727,0.02v0.655l-0.727-0.011V17.552z M22.491,23.098   l-0.726,0.05v-0.664l0.726-0.041V23.098z M22.494,22.102l-0.727,0.037v-0.665l0.727-0.027V22.102z M22.497,20.688l-0.728,0.02   v-0.664l0.728-0.012V20.688z M22.499,19.692L21.773,19.7v-0.666l0.726,0.002V19.692z M22.499,12.428l-0.728-0.083v-0.664   l0.728,0.091V12.428z M22.502,10.988l-0.727-0.101v-0.663l0.727,0.108V10.988z M22.505,9.993l-0.728-0.112V9.217l0.728,0.12V9.993z    M23.749,14.26l3.608,0.304v0.602l-3.608-0.264V14.26z M23.688,19.018l3.617,0.007v0.604l-3.617,0.033V19.018z M23.688,19.952   l3.617-0.051v0.604l-3.617,0.091V19.952z M27.311,22.716l-3.617,0.239v-0.645l3.617-0.198V22.716z M27.314,21.842L23.7,22.022   V21.38l3.614-0.141V21.842z M27.332,18.243l-3.613-0.06v-0.642l3.613,0.099V18.243z M27.338,17.427l-3.611-0.113v-0.643   l3.611,0.154V17.427z M27.357,16.042l-3.608-0.205v-0.642l3.608,0.246V16.042z M27.377,13.938l-3.605-0.346V12.95l3.605,0.386   V13.938z M27.384,13.122l-3.606-0.4V12.08l3.606,0.438V13.122z M30.866,18.97l0.522,0.002v0.557l-0.522,0.004V18.97z    M30.124,18.999L30.663,19v0.565l-0.539,0.004V18.999z M29.133,18.995l0.561,0.003v0.575l-0.561,0.004V18.995z M28.34,19.026   l0.576,0.002v0.584l-0.576,0.006V19.026z M28.337,19.924l0.577-0.009V20.5l-0.577,0.015V19.924z M28.932,22.571l-0.576,0.037   v-0.591l0.576-0.03V22.571z M28.934,21.685l-0.576,0.028v-0.591l0.576-0.022V21.685z M28.939,18.368l-0.576-0.008v-0.592   l0.576,0.016V18.368z M28.941,17.481l-0.574-0.018v-0.591l0.574,0.022V17.481z M29.131,19.88l0.561-0.008v0.576l-0.561,0.014V19.88   z M29.708,22.489l-0.56,0.035v-0.582l0.56-0.029V22.489z M29.71,21.614l-0.56,0.026v-0.582l0.56-0.021V21.614z M29.716,18.348   l-0.559-0.008v-0.582l0.559,0.015V18.348z M29.718,17.474l-0.559-0.018v-0.582l0.559,0.023V17.474z M30.122,19.866l0.539-0.008   v0.564l-0.539,0.014V19.866z M30.678,22.427l-0.537,0.035v-0.571l0.537-0.028V22.427z M30.68,21.569l-0.537,0.025v-0.57   l0.537-0.021V21.569z M30.686,18.362l-0.537-0.008v-0.57l0.537,0.015V18.362z M30.688,17.505l-0.537-0.018v-0.57l0.537,0.023   V17.505z M30.863,19.823l0.523-0.006v0.557l-0.523,0.014V19.823z M31.402,22.349l-0.522,0.034v-0.563l0.522-0.026V22.349z    M31.404,21.503l-0.522,0.025v-0.563l0.522-0.019V21.503z M31.411,18.343l-0.522-0.008v-0.562l0.522,0.014V18.343z M31.413,17.497   l-0.522-0.018v-0.562l0.522,0.021V17.497z" fill="#6B7687"/>
</g>
<g>
</g>
<g>
</g>
<g>
</g>
<g>
</g>
<g>
</g>
<g>
</g>
<g>
</g>
<g>
</g>
<g>
</g>
<g>
</g>
<g>
</g>
<g>
</g>
<g>
</g>
<g>
</g>
<g>
</g>
</svg>
