<?xml version="1.0" encoding="iso-8859-1"?>
<!-- Generator: Adobe Illustrator 16.0.0, SVG Export Plug-In . SVG Version: 6.00 Build 0)  -->
<!DOCTYPE svg PUBLIC "-//W3C//DTD SVG 1.1//EN" "http://www.w3.org/Graphics/SVG/1.1/DTD/svg11.dtd">
<svg xmlns="http://www.w3.org/2000/svg" xmlns:xlink="http://www.w3.org/1999/xlink" version="1.1" id="Capa_1" x="0px" y="0px" width="512px" height="512px" viewBox="0 0 31.918 31.919" style="enable-background:new 0 0 31.918 31.919;" xml:space="preserve">
<g>
	<path d="M22.717,15.083V8.075l-2.332-0.742V1.8L16.088,0l-4.54,1.883l-0.067,5.77l-2.159,0.68v6.765l-2.351,0.436v15.307   l8.968,1.078l9.009-1.007V15.495L22.717,15.083z M8.627,17.23l0.595-0.088v0.861l-0.595,0.077V17.23z M8.616,20.104L9.21,20.05   v0.861l-0.594,0.044V20.104z M9.232,21.43v0.861l-0.595,0.027v-0.852L9.232,21.43z M7.624,17.35l0.571-0.086v0.846l-0.571,0.074   V17.35z M7.613,20.166l0.57-0.053v0.845l-0.57,0.043V20.166z M8.214,21.466v0.845l-0.571,0.028v-0.836L8.214,21.466z M7.587,22.881   l0.57-0.021v0.845l-0.57,0.012V22.881z M8.169,26.534l-0.57-0.021V25.68l0.57,0.01V26.534z M8.226,25.145l-0.571-0.004v-0.834   L8.226,24.3V25.145z M8.24,19.562L7.667,19.62v-0.836l0.572-0.067L8.24,19.562L8.24,19.562z M8.251,16.709L7.679,16.8v-0.836   l0.572-0.101V16.709z M8.589,22.872l0.593-0.022v0.861l-0.593,0.012V22.872z M9.195,26.6l-0.594-0.021v-0.852l0.594,0.01V26.6z    M9.243,25.182l-0.595-0.005v-0.852l0.595-0.007V25.182z M9.258,19.486l-0.595,0.062v-0.854l0.595-0.069V19.486z M9.271,16.578   l-0.596,0.094v-0.853l0.596-0.102V16.578z M15.2,10.295v0.96l-0.736,0.172V10.48L15.2,10.295z M15.184,8.032l-0.736,0.212V7.297   l0.736-0.225V8.032z M14.444,5.926V4.979l0.735-0.254v0.959L14.444,5.926z M14.444,1.776l0.735-0.295V2.44l-0.735,0.284V1.776z    M14.432,3.424l0.736-0.274v0.959l-0.736,0.262V3.424z M13.94,10.576v0.939l-0.705,0.165v-0.927L13.94,10.576z M13.925,8.361   L13.22,8.565V7.638l0.705-0.215V8.361z M13.216,6.296V5.369l0.704-0.244v0.939L13.216,6.296z M13.216,2.235l0.704-0.283v0.939   l-0.704,0.271V2.235z M13.205,3.848l0.705-0.263v0.938l-0.705,0.251V3.848z M12.667,10.862v0.918l-0.674,0.158v-0.907   L12.667,10.862z M12.654,8.697l-0.675,0.195V7.985l0.675-0.206V8.697z M11.975,6.673V5.766l0.674-0.232v0.918L11.975,6.673z    M11.975,2.701l0.674-0.271v0.918l-0.674,0.26V2.701z M11.965,4.278l0.674-0.251v0.917l-0.674,0.24V4.278z M10.818,8.393   l0.646-0.196v0.896L10.818,9.28V8.393z M11.477,11.214v0.898l-0.646,0.15v-0.888L11.477,11.214z M9.739,8.691l0.62-0.189v0.88   l-0.62,0.179V8.691z M10.372,11.458v0.881l-0.621,0.144v-0.87L10.372,11.458z M9.689,10.137l0.619-0.172v0.879l-0.619,0.162V10.137   z M9.701,13.057l0.619-0.138v0.88l-0.619,0.128V13.057z M10.358,20.861l-0.62,0.046v-0.869l0.62-0.058V20.861z M10.381,21.393   v0.881L9.76,22.302v-0.87L10.381,21.393z M9.75,17.102l0.62-0.09v0.881l-0.62,0.08V17.102z M9.71,22.866l0.619-0.022v0.879   L9.71,23.736V22.866z M10.343,26.675l-0.62-0.021v-0.87l0.62,0.012V26.675z M10.394,25.227l-0.621-0.004v-0.871l0.621-0.006V25.227   z M10.409,19.407L9.788,19.47V18.6l0.621-0.072V19.407z M10.422,16.436L9.8,16.533v-0.871l0.622-0.108V16.436z M10.766,9.869   l0.645-0.18v0.897l-0.645,0.169V9.869z M10.78,12.848l0.645-0.143v0.897l-0.645,0.133V12.848z M11.462,20.812l-0.646,0.047v-0.887   l0.646-0.06V20.812z M11.487,21.354v0.897l-0.646,0.03v-0.889L11.487,21.354z M10.83,16.977l0.646-0.095v0.898l-0.646,0.083V16.977   z M10.788,22.857l0.645-0.023v0.898l-0.645,0.013V22.857z M11.447,26.744l-0.645-0.021v-0.889l0.645,0.014V26.744z M11.5,25.268   l-0.646-0.007v-0.888l0.646-0.006V25.268z M11.516,19.327l-0.647,0.065v-0.89l0.647-0.076V19.327z M11.53,16.292l-0.647,0.103   v-0.89l0.647-0.112V16.292z M11.965,9.482l0.674-0.188v0.918l-0.674,0.177V9.482z M11.98,12.528l0.674-0.151v0.919l-0.674,0.139   V12.528z M12.033,16.747l0.675-0.099v0.918l-0.675,0.088V16.747z M12.002,21.266l0.675-0.043v0.918l-0.675,0.032V21.266z    M11.989,22.76l0.675-0.023v0.918l-0.675,0.014V22.76z M12.677,26.732l-0.675-0.022v-0.907l0.675,0.014V26.732z M12.692,25.223   l-0.675-0.006v-0.906l0.675-0.008V25.223z M12.694,20.667l-0.675,0.05v-0.906l0.675-0.062V20.667z M12.707,19.152l-0.675,0.068   v-0.908l0.675-0.08V19.152z M12.722,16.052l-0.676,0.106V15.25l0.676-0.117V16.052z M13.205,9.169l0.705-0.196v0.938l-0.705,0.185   V9.169z M13.22,12.283l0.705-0.157v0.938L13.22,13.21V12.283z M13.244,21.218l0.706-0.045v0.938l-0.706,0.033V21.218z    M13.23,22.746l0.705-0.026v0.939l-0.705,0.014V22.746z M13.95,26.811l-0.706-0.024v-0.929l0.706,0.014V26.811z M13.965,25.264   l-0.706-0.006V24.33l0.706-0.007V25.264z M13.967,20.604l-0.706,0.053v-0.928l0.706-0.063V20.604z M13.982,19.057l-0.706,0.07   v-0.928l0.706-0.083V19.057z M13.982,17.434l-0.706,0.092v-0.928l0.706-0.104V17.434z M13.996,15.884l-0.706,0.111v-0.929   l0.706-0.123V15.884z M14.432,8.86l0.736-0.204v0.96l-0.736,0.192V8.86z M14.448,12.043l0.736-0.163v0.959l-0.736,0.151V12.043z    M14.505,16.45l0.738-0.106v0.961L14.505,17.4V16.45z M14.473,21.173l0.737-0.047v0.96l-0.737,0.034V21.173z M14.458,22.732   l0.736-0.025v0.96l-0.736,0.015V22.732z M15.21,26.887l-0.737-0.025v-0.947l0.737,0.014V26.887z M15.226,25.307l-0.737-0.006   v-0.947l0.737-0.008V25.307z M15.228,20.545L14.491,20.6V19.65l0.737-0.066V20.545z M15.243,18.962l-0.738,0.074v-0.948   l0.738-0.086V18.962z M15.259,15.72l-0.738,0.115v-0.948l0.738-0.128V15.72z M19.971,12.457v0.989l-0.654-0.135V12.31   L19.971,12.457z M19.969,10.441l-0.655-0.171v-1l0.655,0.182V10.441z M19.321,18.223l0.655,0.077v0.988l-0.655-0.065V18.223z    M19.331,19.764l0.656,0.061v0.988l-0.656-0.049V19.764z M19.343,17.663v-1l0.653,0.096v0.988L19.343,17.663z M19.989,16.225   l-0.656-0.103v-1l0.656,0.113V16.225z M19.98,9.011l-0.655-0.188v-1l0.655,0.198V9.011z M19.325,2.267l0.654,0.264v0.988   l-0.654-0.252V2.267z M19.313,3.712l0.656,0.247v0.989l-0.656-0.235V3.712z M18.752,12.23v1.011l-0.686-0.14v-1.023L18.752,12.23z    M18.75,10.171l-0.686-0.178V8.971L18.75,9.16V10.171z M18.075,18.122l0.685,0.08v1.011l-0.685-0.068V18.122z M18.084,19.697   l0.685,0.062v1.011l-0.685-0.049V19.697z M18.096,17.551v-1.021l0.686,0.099v1.011L18.096,17.551z M18.77,16.081l-0.686-0.105   v-1.023l0.686,0.118V16.081z M18.761,8.709l-0.685-0.195V7.491l0.685,0.207V8.709z M18.075,1.811l0.687,0.275v1.011l-0.687-0.264   V1.811z M18.065,3.289l0.686,0.257v1.011l-0.686-0.245V3.289z M17.459,12.024v1.034l-0.717-0.146v-1.047L17.459,12.024z    M17.458,9.917l-0.717-0.185V8.687l0.719,0.197v1.033H17.458z M16.749,18.05l0.717,0.083v1.033l-0.717-0.068V18.05z M16.76,19.661   l0.717,0.063v1.032l-0.717-0.05V19.661z M16.773,17.465v-1.046l0.716,0.103v1.033L16.773,17.465z M17.478,15.963l-0.717-0.109   v-1.047l0.717,0.123V15.963z M17.469,8.422l-0.717-0.203V7.173l0.717,0.216V8.422z M16.75,1.36l0.718,0.287v1.034L16.75,2.407V1.36   z M16.741,2.873l0.717,0.269v1.034L16.741,3.92V2.873z M16.731,4.558l0.717,0.248v1.033l-0.717-0.235V4.558z M16.733,10.252   l0.717,0.179v1.034l-0.717-0.166V10.252z M16.737,21.246l0.719,0.044v1.033l-0.719-0.03V21.246z M16.749,22.857l0.717,0.023v1.033   l-0.717-0.012V22.857z M16.763,24.492l0.716,0.005v1.033l-0.716,0.009V24.492z M17.491,27.12l-0.717,0.028v-1.047l0.717-0.016   V27.12z M18.056,4.935l0.687,0.238v1.011l-0.687-0.226V4.935z M18.057,10.501l0.686,0.171v1.012l-0.686-0.159V10.501z    M18.062,21.246l0.685,0.043V22.3l-0.685-0.03V21.246z M18.073,22.82l0.686,0.024v1.011l-0.686-0.012V22.82z M18.087,24.42   l0.684,0.004v1.012l-0.684,0.008V24.42z M18.782,26.989l-0.684,0.026v-1.022l0.684-0.015V26.989z M19.304,5.323l0.655,0.228V6.54   l-0.655-0.217V5.323z M19.305,10.768l0.656,0.164v0.989l-0.656-0.152V10.768z M19.31,21.277l0.656,0.043v0.988l-0.656-0.029V21.277   z M19.321,22.818l0.655,0.023v0.989l-0.655-0.011V22.818z M19.333,24.383l0.656,0.006v0.988l-0.656,0.006V24.383z M19.999,26.898   l-0.654,0.023v-1.001l0.654-0.013V26.898z M21.771,18.43l0.601,0.071v0.946l-0.601-0.062V18.43z M21.766,13.733v-0.957l0.6,0.135   v0.946L21.766,13.733z M21.782,19.902l0.6,0.057v0.945l-0.6-0.045V19.902z M21.792,17.895v-0.955l0.599,0.088v0.945L21.792,17.895z    M22.381,16.516l-0.6-0.095v-0.956l0.6,0.104V16.516z M21.774,8.485l0.6,0.183v0.946l-0.6-0.173V8.485z M21.765,9.869l0.601,0.167   v0.946l-0.601-0.156V9.869z M20.561,18.293l0.626,0.074v0.968l-0.626-0.063V18.293z M20.556,13.49v-0.979l0.626,0.141v0.968   L20.556,13.49z M20.571,19.8l0.627,0.058v0.968l-0.627-0.048V19.8z M20.581,17.746v-0.979l0.627,0.092v0.968L20.581,17.746z    M21.2,16.337l-0.627-0.099V15.26l0.627,0.109V16.337z M20.564,8.123l0.628,0.191v0.967l-0.628-0.18V8.123z M20.554,9.538   l0.627,0.176v0.967l-0.627-0.164V9.538z M20.545,11.003l0.628,0.158v0.967l-0.628-0.146V11.003z M20.55,21.281l0.627,0.039v0.969   L20.55,22.26V21.281z M20.56,22.788l0.627,0.022v0.967l-0.627-0.012V22.788z M20.573,24.316l0.627,0.006v0.967l-0.627,0.006V24.316   z M21.209,26.777L20.583,26.8v-0.978l0.627-0.012V26.777z M21.756,11.301l0.602,0.151v0.946l-0.602-0.141V11.301z M21.761,21.354   l0.601,0.037v0.947l-0.601-0.027V21.354z M21.771,22.826l0.601,0.021v0.945l-0.601-0.012V22.826z M21.784,24.32l0.6,0.006v0.945   l-0.6,0.006V24.32z M22.392,26.729l-0.601,0.021v-0.956l0.601-0.011V26.729z M24.01,15.865l0.551,0.096v0.907l-0.551-0.087V15.865z    M24.571,17.357v0.908l-0.553-0.072v-0.916L24.571,17.357z M24,18.707l0.551,0.064v0.908L24,19.622V18.707z M24.56,20.17v0.906   l-0.552-0.04v-0.917L24.56,20.17z M22.901,15.678l0.573,0.101v0.927l-0.573-0.091V15.678z M23.483,17.206v0.926l-0.574-0.073   v-0.938L23.483,17.206z M22.889,18.581l0.575,0.067v0.928l-0.575-0.059V18.581z M23.473,20.077v0.926l-0.575-0.042v-0.938   L23.473,20.077z M22.88,21.441l0.575,0.037v0.928L22.88,22.38V21.441z M22.889,22.886l0.575,0.021v0.926l-0.575-0.011V22.886z    M22.901,24.35l0.574,0.006v0.926l-0.574,0.005V24.35z M23.485,26.706l-0.574,0.021V25.79l0.574-0.011V26.706z M23.991,21.508   l0.553,0.035v0.907l-0.553-0.025V21.508z M23.999,22.92l0.553,0.021v0.906l-0.553-0.011V22.92z M24.011,24.354l0.551,0.004v0.908   l-0.551,0.004V24.354z M24.571,26.66l-0.552,0.02v-0.916l0.552-0.011V26.66z" fill="#6B7687"/>
</g>
<g>
</g>
<g>
</g>
<g>
</g>
<g>
</g>
<g>
</g>
<g>
</g>
<g>
</g>
<g>
</g>
<g>
</g>
<g>
</g>
<g>
</g>
<g>
</g>
<g>
</g>
<g>
</g>
<g>
</g>
</svg>
