<?xml version="1.0" encoding="iso-8859-1"?>
<!-- Generator: Adobe Illustrator 16.0.0, SVG Export Plug-In . SVG Version: 6.00 Build 0)  -->
<!DOCTYPE svg PUBLIC "-//W3C//DTD SVG 1.1//EN" "http://www.w3.org/Graphics/SVG/1.1/DTD/svg11.dtd">
<svg xmlns="http://www.w3.org/2000/svg" xmlns:xlink="http://www.w3.org/1999/xlink" version="1.1" id="Capa_1" x="0px" y="0px" width="512px" height="512px" viewBox="0 0 32 32" style="enable-background:new 0 0 32 32;" xml:space="preserve">
<g>
	<path d="M26.412,10.576V8.387l0.654,0.123V7.252l-7.986-1.68V5.553l-8.201,1.73v1.27l0.953-0.18v2.717l-5.913-0.653L0,11.424v0.914   l0.661-0.098v13.25l5.315,0.787l5.884-0.676v-0.025l7.188,0.871l0.015-0.021l1.276-0.154v-3.834l2.017-0.117v3.709l1.254-0.151   v-3.653l1.812-0.105v3.541l6.078-0.725V12.329l0.5,0.065v-0.988L26.412,10.576z M4.77,14.432l0.783-0.07v0.822L4.77,15.241V14.432z    M1.566,14.729l0.683-0.061v0.768l-0.683,0.05V14.729z M2.249,21.992l-0.683-0.047v-0.757l0.683,0.036V21.992z M2.249,20.664   l-0.683-0.026v-0.757l0.683,0.017V20.664z M2.254,19.363l-0.683-0.008V18.6l0.683-0.003V19.363z M2.254,18.078l-0.683,0.011v-0.756   l0.683-0.021V18.078z M2.254,16.729l-0.683,0.03v-0.756l0.683-0.042V16.729z M2.261,14.152l-0.683,0.069v-0.757l0.683-0.08V14.152z    M2.261,12.908l-0.683,0.087V12.24l0.683-0.099V12.908z M2.612,14.615l0.715-0.064v0.785l-0.715,0.052V14.615z M3.327,22.046   l-0.715-0.05v-0.772l0.715,0.036V22.046z M3.327,20.687l-0.715-0.028v-0.772l0.715,0.017V20.687z M3.333,19.355l-0.715-0.009   v-0.772l0.715-0.004V19.355z M3.333,18.039l-0.715,0.013v-0.772l0.715-0.023V18.039z M3.333,16.658l-0.715,0.033v-0.773   l0.715-0.045V16.658z M3.339,14.021l-0.715,0.072v-0.773l0.715-0.084V14.021z M3.339,12.749l-0.715,0.092v-0.773l0.715-0.104   V12.749z M3.657,14.528l0.747-0.066v0.803l-0.747,0.054V14.528z M4.404,22.127l-0.747-0.051v-0.791l0.747,0.039V22.127z    M4.404,20.738l-0.747-0.03v-0.79l0.747,0.017V20.738z M4.411,19.376l-0.748-0.011v-0.791l0.748-0.002V19.376z M4.411,18.031   l-0.748,0.012v-0.79l0.748-0.024V18.031z M4.411,16.617L3.663,16.65V15.86l0.748-0.046V16.617z M4.417,13.921l-0.748,0.075v-0.791   l0.748-0.088V13.921z M4.417,12.619l-0.748,0.096v-0.791l0.748-0.108V12.619z M5.552,22.21L4.77,22.156v-0.81l0.783,0.041v0.822   H5.552z M5.552,20.787L4.77,20.756v-0.811l0.783,0.02v0.822H5.552z M5.559,19.393l-0.783-0.009v-0.81l0.783-0.004V19.393z    M5.559,18.016l-0.783,0.014v-0.811l0.783-0.025V18.016z M5.559,16.57l-0.783,0.034v-0.809l0.783-0.049V16.57z M5.566,13.809   l-0.783,0.079v-0.81l0.784-0.092L5.566,13.809L5.566,13.809z M5.566,12.477l-0.784,0.1v-0.81l0.784-0.113V12.477z M10.626,12.079   l0.83,0.078v0.756l-0.83-0.069V12.079z M10.626,13.33l0.83,0.064v0.756l-0.83-0.056V13.33z M10.626,14.647l0.83,0.048v0.756   l-0.83-0.04V14.647z M10.616,15.964l0.83,0.033v0.756l-0.83-0.024V15.964z M10.616,17.216l0.83,0.021v0.756l-0.83-0.012V17.216z    M9.293,11.923l0.86,0.082v0.77l-0.86-0.073V11.923z M9.293,13.198l0.86,0.067v0.77l-0.86-0.058V13.198z M9.293,14.539l0.86,0.051   v0.77l-0.86-0.042V14.539z M9.283,15.88l0.861,0.035v0.77L9.283,16.66V15.88z M9.283,17.156l0.861,0.021v0.771l-0.861-0.012V17.156   z M7.839,11.732l0.895,0.086v0.784l-0.895-0.076V11.732z M7.839,13.032l0.895,0.07v0.785l-0.895-0.061V13.032z M7.839,14.4   l0.895,0.053v0.785l-0.895-0.044V14.4z M7.829,15.768l0.895,0.037v0.785l-0.895-0.028V15.768z M7.829,17.068l0.895,0.021v0.785   l-0.895-0.012V17.068z M6.384,11.604l0.93,0.089v0.8l-0.93-0.079V11.604z M6.384,12.93l0.93,0.073v0.8l-0.93-0.063V12.93z    M6.384,14.324l0.93,0.056v0.8l-0.93-0.046V14.324z M6.373,15.719l0.93,0.039v0.8l-0.93-0.028V15.719z M6.373,17.045l0.93,0.021   v0.801l-0.93-0.013V17.045z M6.373,18.439l0.93,0.006v0.801l-0.93,0.005V18.439z M7.314,22.144l-0.93,0.04v-0.811l0.93-0.029   V22.144z M7.325,20.768l-0.93,0.024v-0.81l0.93-0.016V20.768z M7.829,18.436l0.895,0.006v0.785L7.829,19.23V18.436z M8.734,22.07   l-0.895,0.039v-0.795l0.895-0.029V22.07z M8.745,20.721L7.85,20.742v-0.795l0.895-0.013V20.721z M9.283,18.496l0.861,0.005v0.77   l-0.861,0.005V18.496z M10.154,22.059l-0.86,0.038v-0.778l0.86-0.029V22.059z M10.164,20.736l-0.86,0.021v-0.778l0.86-0.013V20.736   z M10.616,18.531l0.83,0.004v0.757l-0.83,0.005V18.531z M11.456,22.031l-0.83,0.037v-0.766l0.83-0.027V22.031z M11.465,20.732   l-0.829,0.021v-0.765l0.829-0.014V20.732z M17.346,11.595l1.243-0.146v1.038l-1.243,0.126V11.595z M12.361,12.194l1.048-0.123   v0.952l-1.048,0.105V12.194z M13.409,21.162l-1.048-0.043v-0.937l1.048,0.026V21.162z M13.409,19.514l-1.048-0.013v-0.937   l1.048-0.004V19.514z M13.418,17.898l-1.048,0.018v-0.937l1.048-0.034V17.898z M13.418,16.304l-1.048,0.045v-0.936l1.048-0.063   V16.304z M13.418,14.628l-1.048,0.076v-0.935l1.048-0.094V14.628z M13.427,11.429l-1.049,0.134v-0.935l1.049-0.152V11.429z    M13.427,9.885l-1.049,0.163V9.113l1.049-0.181V9.885z M13.97,11.978l1.109-0.13v0.98L13.97,12.94V11.978z M15.08,21.203   l-1.109-0.045v-0.961l1.109,0.025V21.203z M15.08,19.508l-1.109-0.014v-0.963l1.109-0.004V19.508z M15.089,17.846l-1.11,0.018   v-0.961l1.11-0.037V17.846z M15.089,16.204l-1.11,0.049V15.29l1.11-0.067V16.204z M15.089,14.479l-1.11,0.081v-0.962l1.11-0.1   V14.479z M15.099,11.187l-1.11,0.144v-0.963l1.11-0.162V11.187z M15.099,9.599l-1.11,0.173V8.809l1.11-0.191V9.599z M15.594,11.796   l1.173-0.138v1.009l-1.173,0.118V11.796z M16.768,21.281l-1.173-0.047v-0.99l1.173,0.028V21.281z M16.768,19.537l-1.173-0.015   v-0.989l1.173-0.004V19.537z M16.777,17.826l-1.173,0.021v-0.989l1.173-0.037V17.826z M16.777,16.139l-1.173,0.052v-0.99   l1.173-0.07V16.139z M16.777,14.366l-1.173,0.086v-0.99l1.173-0.105V14.366z M16.788,10.979l-1.174,0.151v-0.989l1.174-0.171   V10.979z M16.788,9.345l-1.174,0.183v-0.99l1.174-0.202V9.345z M18.588,21.361l-1.244-0.051v-1.018l1.244,0.029V21.361z    M18.588,19.564l-1.244-0.016v-1.018l1.244-0.006V19.564z M18.6,17.803l-1.244,0.021v-1.02l1.244-0.04V17.803z M18.6,16.063   l-1.244,0.055v-1.018l1.244-0.075V16.063z M18.6,14.238l-1.244,0.091V13.31l1.244-0.111V14.238z M18.609,10.749l-1.244,0.16V9.891   l1.244-0.181V10.749z M18.609,9.067L17.365,9.26V8.241l1.244-0.214V9.067z M24.829,10.414l1.039,0.151v0.98l-1.039-0.134V10.414z    M24.829,13.669l1.039,0.093v0.98l-1.039-0.075V13.669z M23.238,10.159l1.098,0.16v1.007l-1.098-0.142V10.159z M23.238,13.504   l1.098,0.099v1.007l-1.098-0.079V13.504z M21.59,9.915l1.159,0.17v1.034L21.59,10.97V9.915z M21.59,13.354l1.159,0.104v1.034   l-1.159-0.084V13.354z M19.721,9.628l1.23,0.181v1.065l-1.23-0.159V9.628z M20.973,11.57v1.065l-1.229-0.124v-1.087L20.973,11.57z    M19.721,13.172l1.23,0.111v1.065l-1.23-0.089V13.172z M20.943,21.336l-1.231,0.051V20.3l1.231-0.029V21.336z M20.961,19.592   l-1.229,0.016v-1.087l1.229,0.007V19.592z M20.962,17.808l-1.229-0.021v-1.088l1.229,0.043V17.808z M20.982,16.114l-1.229-0.054   v-1.087l1.229,0.076V16.114z M20.994,9.186l-1.229-0.193V7.907l1.229,0.214L20.994,9.186L20.994,9.186z M22.721,21.271l-1.16,0.049   v-1.056l1.16-0.028V21.271z M22.738,19.582l-1.159,0.015v-1.055l1.159,0.005V19.582z M22.738,17.849l-1.159-0.019v-1.055   l1.159,0.038V17.849z M22.759,16.184L21.6,16.132v-1.054l1.159,0.071V16.184z M22.77,12.828l-1.158-0.116v-1.055l1.158,0.137   V12.828z M22.77,9.456l-1.158-0.182V8.221l1.158,0.201V9.456z M24.273,21.208l-1.1,0.045v-1.026l1.1-0.027V21.208z M24.326,19.562   l-1.098,0.016v-1.025l1.098,0.004V19.562z M24.326,17.877l-1.098-0.018v-1.026l1.098,0.036V17.877z M24.346,16.255l-1.097-0.048   v-1.025l1.097,0.067V16.255z M24.355,12.99l-1.098-0.11v-1.026l1.098,0.129V12.99z M24.355,9.708l-1.098-0.173V8.51l1.098,0.191   V9.708z M25.852,21.154l-1.039,0.043v-0.998l1.039-0.024V21.154z M25.857,19.564l-1.039,0.016v-1l1.039,0.005V19.564z    M25.859,17.923l-1.041-0.017v-0.998l1.041,0.033V17.923z M25.877,16.345l-1.038-0.046v-0.998l1.038,0.063V16.345z M25.887,13.165   l-1.037-0.104v-0.997l1.037,0.121V13.165z M25.887,9.97L24.85,9.807V8.81l1.037,0.181V9.97z M29.926,14.144l0.862,0.086v0.893   l-0.862-0.071V14.144z M28.637,14.013l0.904,0.091v0.915l-0.904-0.074V14.013z M27.202,12.319l0.952,0.122v0.939l-0.952-0.105   V12.319z M27.186,13.857l0.953,0.096v0.939l-0.953-0.079V13.857z M28.133,21.053l-0.955,0.029v-0.956l0.955-0.015V21.053z    M28.146,19.515l-0.955,0.003v-0.957l0.955,0.016V19.515z M28.146,17.941l-0.953-0.024v-0.956l0.953,0.042V17.941z M28.164,16.449   l-0.954-0.052v-0.956l0.954,0.068V16.449z M29.52,21.017l-0.906,0.028v-0.932L29.52,20.1V21.017z M29.533,19.521l-0.905,0.004   v-0.932l0.905,0.014V19.521z M29.533,17.988l-0.905-0.022v-0.931l0.905,0.039V17.988z M29.549,16.515l-0.904-0.049v-0.931   l0.904,0.064V16.515z M29.559,13.546l-0.906-0.1v-0.93l0.906,0.115V13.546z M30.738,20.979l-0.863,0.027v-0.909l0.863-0.013V20.979   z M30.779,19.52l-0.862,0.003v-0.907l0.862,0.012V19.52z M30.779,18.022l-0.862-0.021v-0.909l0.862,0.037V18.022z M30.795,16.584   l-0.861-0.046V15.63l0.861,0.061V16.584z M30.803,13.686l-0.861-0.095v-0.908l0.861,0.109V13.686z" fill="#6B7687"/>
</g>
<g>
</g>
<g>
</g>
<g>
</g>
<g>
</g>
<g>
</g>
<g>
</g>
<g>
</g>
<g>
</g>
<g>
</g>
<g>
</g>
<g>
</g>
<g>
</g>
<g>
</g>
<g>
</g>
<g>
</g>
</svg>
