<?xml version="1.0" encoding="iso-8859-1"?>
<!-- Generator: Adobe Illustrator 16.0.0, SVG Export Plug-In . SVG Version: 6.00 Build 0)  -->
<!DOCTYPE svg PUBLIC "-//W3C//DTD SVG 1.1//EN" "http://www.w3.org/Graphics/SVG/1.1/DTD/svg11.dtd">
<svg xmlns="http://www.w3.org/2000/svg" xmlns:xlink="http://www.w3.org/1999/xlink" version="1.1" id="Capa_1" x="0px" y="0px" width="512px" height="512px" viewBox="0 0 31.955 31.955" style="enable-background:new 0 0 31.955 31.955;" xml:space="preserve">
<g>
	<path d="M15.439,0L5.6,1.68v29.165l9.84,1.11l10.916-1.432V2.117L15.439,0z M13.354,3.152l1.043-0.159v1.183l-1.043,0.145V3.152z    M13.354,4.915l1.043-0.141v1.183l-1.043,0.128V4.915z M13.354,7.323l1.043-0.115V8.39l-1.043,0.103V7.323z M13.354,9.086   l1.043-0.097v1.182l-1.043,0.085V9.086z M13.354,11.458l1.043-0.072v1.182l-1.043,0.061V11.458z M11.694,3.431l1.008-0.152V4.44   l-1.008,0.142V3.431z M11.694,5.165l1.008-0.136v1.162l-1.008,0.124V5.165z M11.694,7.533l1.008-0.111v1.162l-1.008,0.1V7.533z    M11.694,9.268l1.008-0.094v1.162l-1.008,0.082V9.268z M11.694,11.6l1.008-0.069v1.162l-1.008,0.059V11.6z M10.029,3.678   l0.975-0.147v1.143l-0.975,0.136V3.678z M10.029,5.382l0.975-0.131v1.143l-0.975,0.12V5.382z M10.029,7.711l0.975-0.107v1.143   l-0.975,0.095V7.711z M10.029,9.415l0.975-0.09v1.143l-0.975,0.079V9.415z M10.029,11.709l0.975-0.067v1.143l-0.975,0.057V11.709z    M8.371,3.947l0.941-0.143v1.122L8.371,5.059V3.947z M8.371,5.623l0.941-0.127v1.123L8.371,6.734V5.623z M8.371,7.911l0.941-0.104   V8.93L8.371,9.023V7.911z M8.371,9.587L9.312,9.5v1.123l-0.941,0.076V9.587z M8.371,11.842l0.941-0.065V12.9l-0.941,0.054V11.842z    M6.93,4.181l0.913-0.139v1.105L6.93,5.275V4.181z M6.93,5.831l0.913-0.122v1.105L6.93,6.927V5.831z M6.93,8.085l0.913-0.101V9.09   L6.93,9.181V8.085z M6.93,9.735l0.913-0.084v1.105L6.93,10.831V9.735z M6.93,11.956l0.913-0.063v1.105L6.93,13.052V11.956z    M6.93,13.606l0.913-0.047v1.105L6.93,14.702V13.606z M6.946,19.575l0.913,0.011v1.105l-0.913-0.021V19.575z M6.946,21.227   l0.913,0.026v1.104L6.946,22.32V21.227z M7.875,26.285L6.962,26.21v-1.096l0.913,0.065V26.285z M7.875,24.618l-0.913-0.06v-1.096   l0.913,0.049V24.618z M7.906,18.473H6.992v-1.096l0.914-0.011V18.473z M7.906,16.805l-0.914,0.018v-1.097L7.906,15.7V16.805z    M8.371,13.518l0.941-0.049v1.123L8.371,14.63V13.518z M8.386,19.577l0.942,0.011v1.123l-0.942-0.021V19.577z M8.386,21.253   l0.942,0.028v1.121l-0.942-0.037V21.253z M9.346,26.391l-0.942-0.076v-1.112l0.942,0.065V26.391z M9.346,24.698l-0.942-0.062   v-1.111l0.942,0.05V24.698z M9.375,18.458l-0.942-0.001v-1.112l0.942-0.011V18.458z M9.375,16.766L8.434,16.78v-1.112l0.942-0.027   V16.766z M10.029,13.414l0.975-0.051v1.143l-0.975,0.039V13.414z M10.044,19.579l0.975,0.011v1.143l-0.975-0.022V19.579z    M10.044,21.284l0.975,0.026v1.145l-0.975-0.04V21.284z M11.038,26.512l-0.975-0.08v-1.131l0.975,0.068V26.512z M11.038,24.79   l-0.975-0.063v-1.131l0.975,0.051V24.79z M11.071,18.439h-0.976v-1.133l0.976-0.012V18.439z M11.071,16.717l-0.976,0.018v-1.132   l0.976-0.028V16.717z M11.694,13.334l1.008-0.052v1.162l-1.008,0.04V13.334z M11.71,19.604l1.008,0.013v1.163l-1.008-0.024V19.604z    M11.71,21.339l1.008,0.029v1.162l-1.008-0.041V21.339z M12.739,26.657l-1.009-0.082v-1.15l1.009,0.07V26.657z M12.739,24.906   l-1.009-0.065v-1.151l1.009,0.054V24.906z M12.771,18.445h-1.01v-1.15l1.01-0.012V18.445z M12.771,16.693l-1.01,0.018V15.56   l1.01-0.029V16.693z M13.354,13.222l1.043-0.055v1.183l-1.043,0.042V13.222z M13.373,19.598l1.043,0.012v1.183l-1.043-0.022V19.598   z M13.373,21.359l1.043,0.031v1.183l-1.043-0.043V21.359z M14.436,26.771l-1.043-0.086v-1.17l1.043,0.072V26.771z M14.436,24.988   l-1.043-0.067v-1.17l1.043,0.056V24.988z M14.469,18.419h-1.044v-1.171l1.044-0.012V18.419z M14.469,16.636l-1.044,0.02v-1.17   l1.044-0.031V16.636z M21.705,7.906l3.435,0.423v1.012l-3.435-0.385V7.906z M21.693,9.499l3.436,0.365v1.013l-3.436-0.327V9.499z    M21.682,11.781l3.436,0.282v1.013l-3.436-0.244V11.781z M21.668,13.375l3.438,0.225v1.013l-3.438-0.187V13.375z M21.656,15.64   l3.438,0.142v1.013l-3.438-0.104V15.64z M16.51,7.327l3.812,0.467V8.86L16.51,8.436V7.327z M16.496,9.008l3.814,0.403v1.065   l-3.814-0.36V9.008z M16.483,11.415l3.815,0.312v1.066l-3.815-0.269V11.415z M16.469,13.097l3.816,0.247v1.066l-3.816-0.205V13.097   z M16.455,15.485l3.817,0.155v1.067l-3.817-0.113V15.485z M16.439,17.168l3.819,0.092v1.066l-3.819-0.049V17.168z M20.285,26.242   l-3.817,0.267V25.4l3.817-0.225V26.242z M20.298,24.624l-3.815,0.201v-1.108l3.815-0.158V24.624z M20.311,22.325l-3.814,0.11   v-1.107l3.814-0.068V22.325z M20.324,20.708l-3.812,0.046v-1.107l3.812-0.004V20.708z M20.336,6.565l-3.813-0.517V4.941L20.336,5.5   V6.565z M20.35,4.95l-3.812-0.581V3.262l3.812,0.622V4.95z M21.644,17.234l3.438,0.084v1.013l-3.438-0.046V17.234z M25.104,25.852   l-3.437,0.236v-1.051l3.437-0.199V25.852z M25.117,24.312l-3.437,0.181v-1.052l3.437-0.141V24.312z M25.127,22.131l-3.434,0.098   v-1.052l3.434-0.059V22.131z M25.141,20.594l-3.434,0.039v-1.051h3.434V20.594z M25.151,7.161l-3.433-0.467v-1.05l3.433,0.505   V7.161z M25.164,5.627L21.73,5.103V4.052l3.434,0.563V5.627z" fill="#6B7687"/>
</g>
<g>
</g>
<g>
</g>
<g>
</g>
<g>
</g>
<g>
</g>
<g>
</g>
<g>
</g>
<g>
</g>
<g>
</g>
<g>
</g>
<g>
</g>
<g>
</g>
<g>
</g>
<g>
</g>
<g>
</g>
</svg>
