<?xml version="1.0" encoding="iso-8859-1"?>
<!-- Generator: Adobe Illustrator 16.0.0, SVG Export Plug-In . SVG Version: 6.00 Build 0)  -->
<!DOCTYPE svg PUBLIC "-//W3C//DTD SVG 1.1//EN" "http://www.w3.org/Graphics/SVG/1.1/DTD/svg11.dtd">
<svg xmlns="http://www.w3.org/2000/svg" xmlns:xlink="http://www.w3.org/1999/xlink" version="1.1" id="Capa_1" x="0px" y="0px" width="512px" height="512px" viewBox="0 0 32 32" style="enable-background:new 0 0 32 32;" xml:space="preserve">
<g>
	<path d="M24.782,5.488V0.566l-8.739-0.56V0l-8.24,0.572v4.867L4.47,5.569v1.958l1.239-0.033v23.3l0.992,0.118v-5.26l3.36,0.295   v5.367l1.003,0.121v-5.375l3.549,0.312v5.488L15.78,32l11.194-1.354V7.786L27.53,7.8V5.596L24.782,5.488z M8.707,9.844l1.512-0.018   v1.478l-1.512,0.004V9.844z M8.707,12.153l1.512,0.005v1.478l-1.512-0.019V12.153z M6.741,9.838l1.476-0.017v1.459l-1.476,0.004   V9.838z M6.741,12.12l1.476,0.004v1.459l-1.476-0.018V12.12z M8.176,23.83l-1.475-0.111v-1.445l1.475,0.099V23.83z M8.176,21.527   l-1.475-0.09v-1.445l1.475,0.076V21.527z M8.258,18.732l-1.477-0.064v-1.445l1.477,0.051V18.732z M8.258,16.43l-1.477-0.044V14.94   l1.477,0.029V16.43z M10.177,24.01l-1.511-0.113v-1.463l1.511,0.1V24.01z M10.177,21.68l-1.511-0.094v-1.463l1.511,0.079V21.68z    M10.261,18.85l-1.513-0.066v-1.465l1.513,0.054V18.85z M10.261,16.518l-1.513-0.045v-1.465l1.513,0.031V16.518z M8.721,4.876   V3.732l6.218-0.308v1.188L8.721,4.876z M13.302,11.349V9.843l1.6-0.018v1.52L13.302,11.349z M14.902,12.224v1.52l-1.6-0.019v-1.506   L14.902,12.224z M11.224,11.324V9.837l1.56-0.018v1.501L11.224,11.324z M12.783,12.188v1.501l-1.56-0.02v-1.486L12.783,12.188z    M12.741,24.227l-1.559-0.119v-1.484l1.559,0.104V24.227z M12.741,21.857l-1.559-0.096v-1.486l1.559,0.082V21.857z M12.827,18.982   l-1.561-0.067V17.43l1.561,0.053V18.982z M12.827,16.615l-1.561-0.047v-1.486l1.561,0.032V16.615z M14.859,24.416l-1.6-0.121V22.79   l1.6,0.106V24.416z M14.859,22.02l-1.6-0.1v-1.505l1.6,0.084V22.02z M14.947,19.105l-1.601-0.069V17.53l1.601,0.057V19.105z    M14.947,16.708l-1.601-0.048v-1.506l1.601,0.033V16.708z M14.971,2.465L8.75,2.808v-1.15l6.221-0.388V2.465z M24.131,15.034   l1.312,0.004v1.396l-1.312,0.012V15.034z M17.795,1.404l5.878,0.362v1.097L17.795,2.54V1.404z M17.764,3.475l5.881,0.29v1.097   l-5.881-0.25V3.475z M22.272,15.107l1.35,0.004v1.417l-1.35,0.012V15.107z M19.788,15.101l1.4,0.004v1.443l-1.4,0.013V15.101z    M17.8,15.178l1.443,0.002v1.466L17.8,16.66V15.178z M17.795,17.426l1.444-0.021v1.465l-1.444,0.038V17.426z M19.282,24.062   l-1.442,0.094v-1.48l1.442-0.078V24.062z M19.288,21.838l-1.442,0.07v-1.481l1.442-0.054V21.838z M19.306,13.527l-1.443-0.021   v-1.48l1.443,0.037V13.527z M19.311,11.306l-1.442-0.046V9.78l1.442,0.062V11.306z M19.782,17.314l1.401-0.02v1.443l-1.401,0.035   V17.314z M21.229,23.854l-1.399,0.092v-1.459l1.399-0.074V23.854z M21.233,21.664l-1.4,0.066v-1.459l1.4-0.052V21.664z    M21.249,13.476l-1.399-0.021v-1.458l1.399,0.036V13.476z M21.254,11.286l-1.399-0.045V9.783l1.399,0.061V11.286z M22.268,17.28   l1.349-0.02v1.416l-1.349,0.034V17.28z M23.657,23.697l-1.349,0.087v-1.431l1.349-0.072V23.697z M23.663,21.548l-1.348,0.063v-1.43   l1.348-0.052V21.548z M23.679,13.514l-1.348-0.021v-1.432l1.348,0.036V13.514z M23.684,11.364l-1.348-0.043v-1.43l1.348,0.058   V11.364z M24.124,17.177l1.312-0.019v1.396l-1.312,0.032V17.177z M25.478,23.502l-1.311,0.084v-1.409l1.311-0.069V23.502z    M25.481,21.384l-1.31,0.062v-1.41l1.31-0.047V21.384z M25.497,13.464l-1.311-0.021v-1.41l1.311,0.034V13.464z M25.502,11.345   l-1.31-0.042v-1.41l1.31,0.058V11.345z" fill="#6B7687"/>
</g>
<g>
</g>
<g>
</g>
<g>
</g>
<g>
</g>
<g>
</g>
<g>
</g>
<g>
</g>
<g>
</g>
<g>
</g>
<g>
</g>
<g>
</g>
<g>
</g>
<g>
</g>
<g>
</g>
<g>
</g>
</svg>
