<?xml version="1.0" encoding="iso-8859-1"?>
<!-- Generator: Adobe Illustrator 16.0.0, SVG Export Plug-In . SVG Version: 6.00 Build 0)  -->
<!DOCTYPE svg PUBLIC "-//W3C//DTD SVG 1.1//EN" "http://www.w3.org/Graphics/SVG/1.1/DTD/svg11.dtd">
<svg xmlns="http://www.w3.org/2000/svg" xmlns:xlink="http://www.w3.org/1999/xlink" version="1.1" id="Capa_1" x="0px" y="0px" width="512px" height="512px" viewBox="0 0 32 32" style="enable-background:new 0 0 32 32;" xml:space="preserve">
<g>
	<path d="M23.534,7.782V4.465l0.991,0.187V2.745L12.425,0.198V0.17L0,2.792v1.924l1.444-0.271v26.058l10.933,1.326l1.956-0.269   v-5.809l3.056-0.18v5.619l1.898-0.229v-5.534l2.745-0.159v5.362l1.501-0.181l7.707-0.916V10.438L32,10.536V9.039L23.534,7.782z    M9.796,9.326l1.885-0.222v1.573l-1.885,0.19V9.326z M2.245,10.232l1.588-0.187v1.443l-1.588,0.159V10.232z M3.833,23.819   l-1.588-0.063v-1.417l1.588,0.039V23.819z M3.833,21.323l-1.588-0.021v-1.417l1.588-0.007V21.323z M3.848,18.875l-1.589,0.025   v-1.418l1.589-0.052V18.875z M3.848,16.458l-1.589,0.069V15.11l1.589-0.096V16.458z M3.848,13.92l-1.589,0.115v-1.417l1.589-0.143   V13.92z M3.861,9.072L2.272,9.276V7.859l1.589-0.23V9.072z M3.861,6.733L2.272,6.981V5.564l1.589-0.274V6.733z M4.684,9.905   l1.681-0.198v1.485l-1.681,0.17V9.905z M6.364,23.883l-1.681-0.066v-1.459l1.681,0.041V23.883z M6.364,21.315l-1.681-0.021v-1.457   l1.681-0.008V21.315z M6.379,18.795l-1.682,0.027v-1.459l1.682-0.055V18.795z M6.379,16.309l-1.682,0.073v-1.458l1.682-0.102   V16.309z M6.379,13.694l-1.682,0.123V12.36l1.682-0.151V13.694z M6.394,8.708L4.712,8.924V7.466l1.682-0.245V8.708z M6.394,6.3   L4.712,6.562V5.105l1.682-0.29V6.3z M7.144,9.63l1.777-0.209v1.527l-1.777,0.18V9.63z M8.921,24.002l-1.777-0.073v-1.498   l1.777,0.044V24.002z M8.921,21.358l-1.777-0.021v-1.498l1.777-0.009V21.358z M8.938,18.768L7.16,18.796v-1.498l1.778-0.06V18.768z    M8.938,16.21L7.16,16.288V14.79l1.778-0.107V16.21z M8.938,13.523L7.16,13.651v-1.498l1.778-0.159V13.523z M8.953,8.393   L7.175,8.621V7.123l1.778-0.259V8.393z M8.953,5.917L7.175,6.192V4.694l1.778-0.307V5.917z M11.681,24.122l-1.885-0.077v-1.542   l1.885,0.046V24.122z M11.681,21.399l-1.885-0.021v-1.542l1.885-0.009V21.399z M11.697,18.731l-1.885,0.03v-1.543l1.885-0.062   V18.731z M11.697,16.096l-1.885,0.083v-1.543l1.885-0.113V16.096z M11.697,13.329l-1.885,0.138v-1.543l1.885-0.169V13.329z    M11.714,8.044L9.829,8.287V6.744l1.885-0.273V8.044z M11.714,5.495L9.829,5.788V4.245l1.885-0.324V5.495z M21.137,7.537   l1.573,0.229V9.25l-1.573-0.202V7.537z M21.137,12.468l1.573,0.141v1.484l-1.573-0.113V12.468z M18.727,7.149l1.662,0.243v1.525   l-1.662-0.215V7.149z M18.727,12.218l1.662,0.148v1.525l-1.662-0.12V12.218z M16.229,6.78l1.756,0.257v1.567l-1.756-0.227V6.78z    M16.229,11.989l1.756,0.158v1.566l-1.756-0.127V11.989z M13.396,6.345l1.864,0.273v1.615l-1.864-0.241V6.345z M15.293,9.287v1.613   l-1.863-0.188V9.066L15.293,9.287z M13.396,11.715l1.864,0.168v1.614l-1.864-0.136V11.715z M15.248,24.084l-1.865,0.076v-1.647   l1.865-0.044V24.084z M15.275,21.442l-1.864,0.023v-1.646l1.864,0.009V21.442z M15.276,18.737l-1.864-0.029v-1.646l1.864,0.063   V18.737z M15.309,16.171l-1.862-0.082v-1.646l1.862,0.114V16.171z M15.325,5.675l-1.861-0.292V3.737l1.861,0.324V5.675z    M17.939,23.985l-1.756,0.072V22.46l1.756-0.043V23.985z M17.967,21.425l-1.756,0.022V19.85l1.756,0.008V21.425z M17.967,18.8   l-1.756-0.028v-1.598l1.756,0.059V18.8z M17.999,16.276L16.244,16.2v-1.598l1.755,0.108V16.276z M18.014,11.192l-1.754-0.176V9.42   l1.754,0.206V11.192z M18.014,6.085L16.26,5.811V4.212l1.754,0.306V6.085z M20.295,23.889l-1.666,0.068v-1.557l1.666-0.039V23.889z    M20.374,21.397l-1.664,0.022v-1.556l1.664,0.008V21.397z M20.374,18.842l-1.662-0.025v-1.556l1.662,0.056V18.842z M20.402,16.386   l-1.66-0.073v-1.554l1.66,0.102V16.386z M20.418,11.438l-1.662-0.167V9.717l1.662,0.196V11.438z M20.418,6.466l-1.662-0.261V4.651   l1.662,0.289V6.466z M22.686,23.809l-1.576,0.064V22.36l1.576-0.037V23.809z M22.695,21.399l-1.574,0.021v-1.514l1.574,0.007   V21.399z M22.697,18.913l-1.575-0.024v-1.513l1.575,0.052V18.913z M22.723,16.522l-1.572-0.068v-1.512l1.572,0.096V16.522z    M22.738,11.705l-1.573-0.158v-1.512l1.573,0.185V11.705z M22.738,6.863l-1.573-0.247V5.105l1.573,0.274V6.863z M29.048,13.188   l1.308,0.13v1.353l-1.308-0.107V13.188z M27.096,12.988l1.37,0.137v1.387l-1.37-0.112V12.988z M24.922,10.421l1.445,0.186v1.423   l-1.445-0.16V10.421z M24.896,12.751l1.444,0.146v1.423l-1.444-0.119V12.751z M26.333,23.653l-1.446,0.045V22.25l1.446-0.021   V23.653z M26.354,21.323l-1.444,0.006v-1.449l1.444,0.021V21.323z M26.354,18.94l-1.444-0.037v-1.448l1.444,0.063V18.94z    M26.379,16.678L24.936,16.6v-1.448l1.443,0.103V16.678z M28.432,23.6l-1.373,0.043v-1.41l1.373-0.021V23.6z M28.454,21.334   l-1.371,0.005v-1.411l1.371,0.02V21.334z M28.454,19.012l-1.371-0.035v-1.41l1.371,0.06V19.012z M28.479,16.78l-1.371-0.074v-1.41   l1.371,0.098V16.78z M28.491,12.281l-1.37-0.151v-1.41l1.37,0.175V12.281z M30.282,23.542l-1.31,0.04v-1.377l1.31-0.02V23.542z    M30.342,21.332l-1.307,0.005v-1.377l1.307,0.02V21.332z M30.343,19.065l-1.307-0.033v-1.377l1.307,0.057V19.065z M30.366,16.884   l-1.306-0.069v-1.376l1.306,0.093V16.884z M30.378,12.493l-1.306-0.145v-1.377l1.306,0.167V12.493z" fill="#6B7687"/>
</g>
<g>
</g>
<g>
</g>
<g>
</g>
<g>
</g>
<g>
</g>
<g>
</g>
<g>
</g>
<g>
</g>
<g>
</g>
<g>
</g>
<g>
</g>
<g>
</g>
<g>
</g>
<g>
</g>
<g>
</g>
</svg>
