<?xml version="1.0" encoding="iso-8859-1"?>
<!-- Generator: Adobe Illustrator 16.0.0, SVG Export Plug-In . SVG Version: 6.00 Build 0)  -->
<!DOCTYPE svg PUBLIC "-//W3C//DTD SVG 1.1//EN" "http://www.w3.org/Graphics/SVG/1.1/DTD/svg11.dtd">
<svg xmlns="http://www.w3.org/2000/svg" xmlns:xlink="http://www.w3.org/1999/xlink" version="1.1" id="Capa_1" x="0px" y="0px" width="512px" height="512px" viewBox="0 0 32 32" style="enable-background:new 0 0 32 32;" xml:space="preserve">
<g>
	<g>
		<polygon points="22.968,1.288 6.122,1.167 0,10.586 0,11.664 14.337,14.749 21.798,2.371 29.939,12.028 32,12.009   " fill="#6B7687"/>
		<path d="M14.852,15.629L0.775,12.526L0.78,24.702l8.231,3.522v-7.796l4.104,1.22v8.332l1.96,0.84v0.013l14.032-6.003V13.042    v-0.254v-0.596l-7.246-8.582L14.852,15.629z M6.397,23.576l-3.488-1.213v-2.924l3.488,1.074V23.576z M6.582,18.798l-3.504-1    v-2.931l3.504,0.861V18.798z M13.116,20.662l-4.104-1.171v-3.165l4.104,1.008V20.662z M21.939,24.363l-4.217,1.476V22.42    l4.217-1.302V24.363z M23.58,15.771l3.658-0.9v3.026L23.58,18.95V15.771z M23.549,20.623l3.662-1.131v3.027L23.549,23.8V20.623z     M21.975,19.41l-4.216,1.211v-3.416l4.216-1.038V19.41z" fill="#6B7687"/>
	</g>
</g>
<g>
</g>
<g>
</g>
<g>
</g>
<g>
</g>
<g>
</g>
<g>
</g>
<g>
</g>
<g>
</g>
<g>
</g>
<g>
</g>
<g>
</g>
<g>
</g>
<g>
</g>
<g>
</g>
<g>
</g>
</svg>
