<?xml version="1.0" encoding="iso-8859-1"?>
<!-- Generator: Adobe Illustrator 16.0.0, SVG Export Plug-In . SVG Version: 6.00 Build 0)  -->
<!DOCTYPE svg PUBLIC "-//W3C//DTD SVG 1.1//EN" "http://www.w3.org/Graphics/SVG/1.1/DTD/svg11.dtd">
<svg xmlns="http://www.w3.org/2000/svg" xmlns:xlink="http://www.w3.org/1999/xlink" version="1.1" id="Capa_1" x="0px" y="0px" width="512px" height="512px" viewBox="0 0 30.938 30.938" style="enable-background:new 0 0 30.938 30.938;" xml:space="preserve">
<g>
	<path d="M20.795,6.806V5.78l-3.385-0.956c-0.184-0.442-0.756-0.787-1.481-0.885v-3.72L15.598,0l-0.297,0.219v3.699   c-0.813,0.053-1.476,0.413-1.685,0.889l-3.013,1.078V7.01L9.307,7.347v22.857l6.202,0.733l6.121-0.727V7.027L20.795,6.806z    M10.662,29.512L10.17,29.46V8.528l0.492-0.116V29.512z M11.861,29.65l-0.512-0.053V8.263l0.512-0.121V29.65z M13.188,29.76   l-0.533-0.056V7.924l0.533-0.127V29.76z M14.575,29.915l-0.557-0.06V7.61l0.557-0.133V29.915z M17.184,29.748l-0.566,0.059V7.323   l0.566,0.137V29.748z M18.512,29.643L17.946,29.7V7.674l0.566,0.137V29.643z M19.737,29.527l-0.513,0.055V7.996l0.513,0.123V29.527   z M20.903,29.436l-0.52,0.056V8.303l0.52,0.125V29.436z" fill="#6B7687"/>
</g>
<g>
</g>
<g>
</g>
<g>
</g>
<g>
</g>
<g>
</g>
<g>
</g>
<g>
</g>
<g>
</g>
<g>
</g>
<g>
</g>
<g>
</g>
<g>
</g>
<g>
</g>
<g>
</g>
<g>
</g>
</svg>
