<?xml version="1.0" encoding="iso-8859-1"?>
<!-- Generator: Adobe Illustrator 16.0.0, SVG Export Plug-In . SVG Version: 6.00 Build 0)  -->
<!DOCTYPE svg PUBLIC "-//W3C//DTD SVG 1.1//EN" "http://www.w3.org/Graphics/SVG/1.1/DTD/svg11.dtd">
<svg xmlns="http://www.w3.org/2000/svg" xmlns:xlink="http://www.w3.org/1999/xlink" version="1.1" id="Capa_1" x="0px" y="0px" width="512px" height="512px" viewBox="0 0 801.329 801.33" style="enable-background:new 0 0 801.329 801.33;" xml:space="preserve">
<g>
	<g>
		<path d="M334.985,544.359c-8.438,0-15.305,6.863-15.305,15.303c0,8.44,6.865,15.305,15.305,15.305    c8.438,0,15.304-6.863,15.304-15.305C350.289,551.222,343.425,544.359,334.985,544.359z" fill="#6B7687"/>
		<path d="M232.275,546.177c-7.439,0-13.484,6.045-13.484,13.484c0,7.438,6.045,13.482,13.484,13.482s13.484-6.045,13.484-13.482    C245.759,552.222,239.715,546.177,232.275,546.177z" fill="#6B7687"/>
		<path d="M442.078,546.177c-7.441,0-13.482,6.045-13.482,13.484c0,7.438,6.041,13.482,13.482,13.482    c7.438,0,13.484-6.045,13.484-13.482C455.563,552.222,449.519,546.177,442.078,546.177z" fill="#6B7687"/>
		<path d="M119.358,546.177c-7.438,0-13.482,6.045-13.482,13.484c0,7.438,6.044,13.482,13.482,13.482    c7.44,0,13.485-6.045,13.485-13.482C132.843,552.222,126.799,546.177,119.358,546.177z" fill="#6B7687"/>
		<path d="M79.289,503.931v3.691c-25.842,3.236-45.895,25.342-45.895,52.039c0,26.699,20.053,48.8,45.895,52.041v3.688h499.922    v-3.688c25.84-3.241,45.895-25.342,45.895-52.041c0-26.697-20.055-48.803-45.895-52.039v-3.691H79.289z M548.066,586.259    c-12.396,0-22.741-8.555-25.686-20.041h-54.63c-2.938,11.486-13.279,20.041-25.674,20.041c-12.397,0-22.744-8.555-25.676-20.041    H362.57c-2.988,12.512-14.193,21.859-27.588,21.859c-13.392,0-24.598-9.35-27.585-21.859h-49.45    c-2.931,11.486-13.282,20.041-25.675,20.041c-12.398,0-22.744-8.555-25.674-20.041H145.03    c-2.947,11.486-13.293,20.041-25.674,20.041c-14.663,0-26.597-11.936-26.597-26.598c0-14.659,11.934-26.601,26.597-26.601    c12.381,0,22.727,8.558,25.674,20.042h61.569c2.93-11.486,13.275-20.042,25.674-20.042c12.393,0,22.744,8.558,25.675,20.042h49.45    c2.987-12.508,14.193-21.861,27.585-21.861c13.395,0,24.6,9.354,27.588,21.861h53.831c2.932-11.486,13.276-20.042,25.676-20.042    c12.395,0,22.737,8.558,25.674,20.042h54.63c2.942-11.486,13.288-20.042,25.686-20.042c14.677,0,26.598,11.939,26.598,26.601    C574.663,574.326,562.742,586.259,548.066,586.259z" fill="#6B7687"/>
		<path d="M548.066,546.177c-7.43,0-13.483,6.045-13.483,13.484c0,7.438,6.056,13.482,13.483,13.482    c7.429,0,13.483-6.045,13.483-13.482C561.551,552.222,555.494,546.177,548.066,546.177z" fill="#6B7687"/>
		<path d="M713.909,382.629h-64.476v20.755h-23.074c-5.972-42.731-29.377-69.918-29.377-69.918H494.105v-69.938h-13.111v69.938    h-39.891v-36.121H427.99v36.121h-23.318v-36.121h-13.115v36.121h-29.501l1.104-105.999H257.156v-41.528h-69.942v41.528h-18.927    v90.696l-123.112,2.18c0,0-92.519,65.486-12.751,163.833c0,0,31.318-3.191,79.404-3.191h448.748c0,0,34.053-0.999,50.439,10.422    c4.434-8.935,7.584-17.574,10.143-26.026l28.275,12.137v38.432c24.33,65.65,151.896,35.062,151.896,35.062    C727.006,541.271,713.909,382.629,713.909,382.629z M327.457,382.629h-52.275v-55.898h-89.057v-72.45h141.332V382.629z     M649.436,463.25l-24.972-10.719c2.674-12.757,3.612-24.843,3.085-36.034h21.887V463.25L649.436,463.25z" fill="#6B7687"/>
	</g>
</g>
<g>
</g>
<g>
</g>
<g>
</g>
<g>
</g>
<g>
</g>
<g>
</g>
<g>
</g>
<g>
</g>
<g>
</g>
<g>
</g>
<g>
</g>
<g>
</g>
<g>
</g>
<g>
</g>
<g>
</g>
</svg>
