<?xml version="1.0" encoding="iso-8859-1"?>
<!-- Generator: Adobe Illustrator 16.0.0, SVG Export Plug-In . SVG Version: 6.00 Build 0)  -->
<!DOCTYPE svg PUBLIC "-//W3C//DTD SVG 1.1//EN" "http://www.w3.org/Graphics/SVG/1.1/DTD/svg11.dtd">
<svg xmlns="http://www.w3.org/2000/svg" xmlns:xlink="http://www.w3.org/1999/xlink" version="1.1" id="Capa_1" x="0px" y="0px" width="512px" height="512px" viewBox="0 0 797.893 797.893" style="enable-background:new 0 0 797.893 797.893;" xml:space="preserve">
<g>
	<g>
		<path d="M218.017,422.313c-48.109,0-87.112,39.004-87.112,87.112c0,48.106,39.003,87.114,87.112,87.114    c48.106,0,87.111-39.008,87.111-87.114C305.128,461.317,266.123,422.313,218.017,422.313z M218.017,560.854    c-28.397,0-51.428-23.03-51.428-51.428c0-28.396,23.031-51.425,51.428-51.425c28.394,0,51.423,23.027,51.423,51.425    C269.439,537.823,246.41,560.854,218.017,560.854z" fill="#6B7687"/>
		<path d="M218.017,490.442c-10.492,0-18.985,8.494-18.985,18.983c0,10.491,8.493,18.982,18.985,18.982    c10.488,0,18.982-8.491,18.982-18.982C236.999,498.937,228.505,490.442,218.017,490.442z" fill="#6B7687"/>
		<path d="M637.392,596.997c36.823,0,69.732-16.53,91.898-42.512h-183.8C567.654,580.467,600.568,596.997,637.392,596.997z" fill="#6B7687"/>
		<path d="M637.392,355.382c-47.322,0-88.191,27.29-108.013,66.932h216.024C725.58,382.672,684.718,355.382,637.392,355.382z" fill="#6B7687"/>
		<path d="M459.631,476.19h-54.915v-13.766l110.839-73.58l-14.191-187.949H305.128l-10.476,137.648h-95.621v-36.566h18.985v-13.807    H161.95v13.807h13.806v36.566c0,0-187.276,22.811-175.196,170.882l113.904,45.062c0,0-27.613-165.062,103.552-165.643    c129.029-0.566,112.753,162.471,112.19,165.614c0.63-2.22,74.509,0.026,74.509,0.026v-29.76l82.448-15.302v18.982h258.24    l52.489-27.208v-52.527H515.555L459.631,476.19z M374.514,349.181h-40.867V244.836h40.867V349.181z M393.12,349.181V244.836    h11.596h61.819l20.629,104.345H393.12z" fill="#6B7687"/>
		<path d="M330.207,554.459c-0.003,0.01-0.015,0.019-0.015,0.026C330.192,554.524,330.198,554.511,330.207,554.459z" fill="#6B7687"/>
	</g>
</g>
<g>
</g>
<g>
</g>
<g>
</g>
<g>
</g>
<g>
</g>
<g>
</g>
<g>
</g>
<g>
</g>
<g>
</g>
<g>
</g>
<g>
</g>
<g>
</g>
<g>
</g>
<g>
</g>
<g>
</g>
</svg>
