<?xml version="1.0" encoding="iso-8859-1"?>
<!-- Generator: Adobe Illustrator 16.0.0, SVG Export Plug-In . SVG Version: 6.00 Build 0)  -->
<!DOCTYPE svg PUBLIC "-//W3C//DTD SVG 1.1//EN" "http://www.w3.org/Graphics/SVG/1.1/DTD/svg11.dtd">
<svg xmlns="http://www.w3.org/2000/svg" xmlns:xlink="http://www.w3.org/1999/xlink" version="1.1" id="Capa_1" x="0px" y="0px" width="512px" height="512px" viewBox="0 0 795.863 795.863" style="enable-background:new 0 0 795.863 795.863;" xml:space="preserve">
<g>
	<g>
		<path d="M148.076,488.185c5.637,0,11.183-0.486,16.67-1.282l-2.185,267.654l-53.109,26.554h89.323h4.827h47.985l-47.985-25.931    v-12.695V624.002l526.59-123.479l-1.508,149.414l-27.764,17.711h94.942l-35.383-19.313V274.137l-21.729-26.554l-37.831,8.258    V97.904c0,0-14.482-94.155-207.619-82.082l-171.406,121.5c0,0,132.778,366.159,379.025,158.545v-6.285l19.406-5.469l11.976,9.338    l-1.698,166.613L203.602,577.775V474.248c44.585-23.156,78.35-73.33,88.951-134.739l2.543-0.582    c16.805,63.882,62.389,123.422,166.82,128.346c205.206,9.655,239.006-107.676,239.006-107.676    c-277.63,176.348-400.753-172.428-400.753-172.428c-4.604,10.581-9.203,28.916-11.656,51.228    c-19.558-75.499-74.99-130.024-140.438-130.024C66.297,108.372,0,193.394,0,298.278C0.001,403.164,66.298,488.185,148.076,488.185    z M493.828,45.306c0,0,115.354-31.9,161.224,52.598C655.051,97.904,564.351,164.104,493.828,45.306z M148.076,152.017    c62.994,0,114.033,65.48,114.033,146.261c0,2.904-0.188,5.738-0.34,8.605c-0.643,14.332-2.887,28.098-6.525,41.059    c-5.924,20.931-15.709,39.25-27.857,54.504l-34.421-61.013c1.96-4.888,3.661-10.075,4.938-15.58    c2.001-8.655,3.286-17.841,3.286-27.575c0-45.337-23.783-82.08-53.114-82.08c-7.735,0-15.048,2.697-21.673,7.279l-30.966-54.863    C111.183,158.07,129.063,152.017,148.076,152.017z M66.579,196.071l35.289,62.528c-4.263,11.805-6.901,25.192-6.901,39.678    c0,45.34,23.782,82.083,53.109,82.083c6.186,0,12.032-1.96,17.578-4.96c0.531-0.281,0.959-0.812,1.488-1.11l31.102,55.125    c-10.297,6.472-21.387,11.055-33.156,13.318c-5.548,1.072-11.206,1.808-17.012,1.808c-62.996,0-114.029-65.481-114.029-146.265    C34.047,258.48,46.454,222.439,66.579,196.071z" fill="#6B7687"/>
	</g>
</g>
<g>
</g>
<g>
</g>
<g>
</g>
<g>
</g>
<g>
</g>
<g>
</g>
<g>
</g>
<g>
</g>
<g>
</g>
<g>
</g>
<g>
</g>
<g>
</g>
<g>
</g>
<g>
</g>
<g>
</g>
</svg>
