<?xml version="1.0" encoding="iso-8859-1"?>
<!-- Generator: Adobe Illustrator 16.0.0, SVG Export Plug-In . SVG Version: 6.00 Build 0)  -->
<!DOCTYPE svg PUBLIC "-//W3C//DTD SVG 1.1//EN" "http://www.w3.org/Graphics/SVG/1.1/DTD/svg11.dtd">
<svg xmlns="http://www.w3.org/2000/svg" xmlns:xlink="http://www.w3.org/1999/xlink" version="1.1" id="Capa_1" x="0px" y="0px" width="512px" height="512px" viewBox="0 0 787.711 787.711" style="enable-background:new 0 0 787.711 787.711;" xml:space="preserve">
<g>
	<g>
		<path d="M712.725,454.507c6.006-16.682,19.344-34.268,49.256-34.268v-58.87l-163.75-34.164v-59.885l17.59-4.059v-16.24h-35.176    v76.521l-23.027-4.804l-39.234-215.182H391.158H263.951l-39.24,215.182l-204.362,42.63v58.87    c31.101,0,44.323,19.027,49.957,36.282C28.931,475.211,0,516.776,0,565.049c0,65.676,53.431,119.104,119.107,119.104    c65.673,0,119.104-53.432,119.104-119.104c0-54.666-37.081-100.724-87.357-114.683c13.291-38.728,50.846-28.766,50.846-28.766    c78.472,0,69.021,197.572,69.021,197.572h120.438h120.466c0,0-9.482-197.572,69.021-197.572c0,0,38.377-10.137,51.254,30.195    c-47.762,15.524-82.402,60.391-82.402,113.25c0,65.676,53.436,119.104,119.104,119.104c65.68,0,119.109-53.432,119.109-119.104    C787.711,514.968,756.592,472.101,712.725,454.507z M177.307,565.049c0,32.099-26.1,58.205-58.2,58.205    c-32.103,0-58.205-26.106-58.205-58.205c0-32.1,26.101-58.2,58.205-58.2C151.206,506.849,177.307,532.951,177.307,565.049z     M370.855,317.391H258.537l23-173.23h89.318V317.391L370.855,317.391z M411.455,317.391v-173.23h89.324l23.023,173.23H411.455z     M668.6,623.254c-32.104,0-58.205-26.106-58.205-58.205c0-32.1,26.104-58.2,58.205-58.2c32.104,0,58.205,26.102,58.205,58.2    C726.805,597.147,700.703,623.254,668.6,623.254z" fill="#6B7687"/>
		<path d="M77.14,565.049c0,23.143,18.827,41.967,41.967,41.967c23.138,0,41.963-18.824,41.963-41.967    c0-23.138-18.825-41.963-41.963-41.962C95.967,523.086,77.14,541.913,77.14,565.049z" fill="#6B7687"/>
		<path d="M668.6,523.086c-23.137,0-41.963,18.824-41.963,41.963c0,23.143,18.826,41.967,41.963,41.967    c23.141,0,41.965-18.824,41.965-41.967C710.564,541.914,691.74,523.086,668.6,523.086z" fill="#6B7687"/>
	</g>
</g>
<g>
</g>
<g>
</g>
<g>
</g>
<g>
</g>
<g>
</g>
<g>
</g>
<g>
</g>
<g>
</g>
<g>
</g>
<g>
</g>
<g>
</g>
<g>
</g>
<g>
</g>
<g>
</g>
<g>
</g>
</svg>
