<?xml version="1.0" encoding="iso-8859-1"?>
<!-- Generator: Adobe Illustrator 16.0.0, SVG Export Plug-In . SVG Version: 6.00 Build 0)  -->
<!DOCTYPE svg PUBLIC "-//W3C//DTD SVG 1.1//EN" "http://www.w3.org/Graphics/SVG/1.1/DTD/svg11.dtd">
<svg xmlns="http://www.w3.org/2000/svg" xmlns:xlink="http://www.w3.org/1999/xlink" version="1.1" id="Capa_1" x="0px" y="0px" width="512px" height="512px" viewBox="0 0 793.423 793.423" style="enable-background:new 0 0 793.423 793.423;" xml:space="preserve">
<g>
	<g>
		<path d="M533.433,578.916c10.656-225.893,210.977-157.695,210.977-157.695c-57.538-119.341-309.004-108.688-309.004-108.688    V184.671c-51.144-117.211-238.681-53.277-238.681-53.277l-19.178,134.258C-20.641,261.391,0.667,395.646,0.667,395.646    c59.672-49.197,133.758-53.262,181.142-49.197c186.098,15.998,179.01,232.469,179.01,232.469L533.433,578.916L533.433,578.916z     M207.382,280.57l17.049-121.472c151.305-38.36,183.272,44.753,183.272,44.753v142.598l-35.495,53.46    C343.105,289.094,207.382,280.57,207.382,280.57z" fill="#6B7687"/>
		<path d="M162.63,399.909c-80.03,0-144.914,64.885-144.914,144.911c0,80.035,64.884,144.912,144.914,144.912    c80.028,0,144.91-64.877,144.91-144.912C307.54,464.792,242.658,399.909,162.63,399.909z M162.63,621.539    c-42.372,0-76.72-34.346-76.72-76.719c0-42.371,34.349-76.717,76.72-76.717s76.717,34.346,76.717,76.717    C239.347,587.193,205.001,621.539,162.63,621.539z" fill="#6B7687"/>
		<circle cx="162.63" cy="544.821" r="34.095" fill="#6B7687"/>
		<path d="M684.741,689.732c60.019,0,108.682-48.666,108.682-108.684c0-60.02-48.663-108.688-108.682-108.688    c-60.018,0-108.685,48.669-108.685,108.688C576.057,641.065,624.724,689.732,684.741,689.732z M684.741,523.51    c31.782,0,57.537,25.756,57.537,57.539c0,31.784-25.754,57.539-57.537,57.539c-31.784,0-57.54-25.755-57.54-57.539    C627.201,549.266,652.957,523.51,684.741,523.51z" fill="#6B7687"/>
		<path d="M684.741,606.621c14.116,0,25.572-11.452,25.572-25.57c0-14.117-11.456-25.572-25.572-25.572    c-14.118,0-25.573,11.455-25.573,25.572S670.623,606.621,684.741,606.621z" fill="#6B7687"/>
		<path d="M554.747,103.69c0,0-62.271,46.882-55.878,200.321h55.878c0,0-28.174-112.932,0-159.831V103.69z" fill="#6B7687"/>
	</g>
</g>
<g>
</g>
<g>
</g>
<g>
</g>
<g>
</g>
<g>
</g>
<g>
</g>
<g>
</g>
<g>
</g>
<g>
</g>
<g>
</g>
<g>
</g>
<g>
</g>
<g>
</g>
<g>
</g>
<g>
</g>
</svg>
