<?xml version="1.0" encoding="iso-8859-1"?>
<!-- Generator: Adobe Illustrator 16.0.0, SVG Export Plug-In . SVG Version: 6.00 Build 0)  -->
<!DOCTYPE svg PUBLIC "-//W3C//DTD SVG 1.1//EN" "http://www.w3.org/Graphics/SVG/1.1/DTD/svg11.dtd">
<svg xmlns="http://www.w3.org/2000/svg" xmlns:xlink="http://www.w3.org/1999/xlink" version="1.1" id="Capa_1" x="0px" y="0px" width="512px" height="512px" viewBox="0 0 798.252 798.252" style="enable-background:new 0 0 798.252 798.252;" xml:space="preserve">
<g>
	<g>
		<path d="M624.617,303.323c0,0,42.016,2.791,44.807,47.606c0,0,36.396-77.03,109.23-23.809h19.598    C798.25,327.122,747.848,192.696,624.617,303.323z" fill="#6B7687"/>
		<path d="M669.422,413.248c-2.791,44.814-44.807,47.609-44.807,47.609c123.23,110.627,173.635-23.803,173.635-23.803h-19.598    C705.818,490.281,669.422,413.248,669.422,413.248z" fill="#6B7687"/>
		<path d="M509.771,373.352c0,0,2.787-66.09,58.82-68.064L403.326,146.464c0,0-18.183,89.621-72.8,95.233L509.771,373.352z" fill="#6B7687"/>
		<path d="M238.79,433.564l60.917-173.93c-100.83,26.337-121.838-59.951-121.838-59.951l-74.215,173.668    C187.681,349.552,238.79,433.564,238.79,433.564z" fill="#6B7687"/>
		<path d="M658.213,373.352c0-33.252-26.969-60.218-60.215-60.218c-33.25,0-60.217,26.965-60.217,60.218    c0,33.244,26.967,60.212,60.217,60.212C631.246,433.564,658.213,406.598,658.213,373.352z M571.377,373.352    c0-14.689,11.922-26.607,26.623-26.607c14.705,0,26.615,11.918,26.615,26.607c0,14.688-11.91,26.599-26.615,26.599    C583.299,399.951,571.377,388.04,571.377,373.352z" fill="#6B7687"/>
		<path d="M204.586,146.464c0,44.212,35.842,80.071,80.055,80.071c44.229,0,80.086-35.859,80.086-80.071    c0-44.216-35.856-80.068-80.086-80.068C240.428,66.396,204.586,102.249,204.586,146.464z M284.641,111.082    c19.545,0,35.381,15.852,35.381,35.383c0,19.526-15.836,35.379-35.381,35.379c-19.532,0-35.384-15.853-35.384-35.379    C249.257,126.934,265.109,111.082,284.641,111.082z" fill="#6B7687"/>
		<path d="M60.332,493.318c0,44.211,35.858,80.07,80.083,80.07c44.213,0,80.056-35.859,80.056-80.07    c0-44.217-35.843-80.07-80.056-80.07C96.191,413.248,60.332,449.102,60.332,493.318z M140.415,457.934    c19.532,0,35.383,15.855,35.383,35.387c0,19.523-15.851,35.377-35.383,35.377c-19.562,0-35.382-15.854-35.382-35.377    C105.034,473.787,120.854,457.934,140.415,457.934z" fill="#6B7687"/>
		<path d="M0,731.855h264.68l-44.209-158.467c0,0-67.6,79.607-160.139,0L0,731.855z" fill="#6B7687"/>
	</g>
</g>
<g>
</g>
<g>
</g>
<g>
</g>
<g>
</g>
<g>
</g>
<g>
</g>
<g>
</g>
<g>
</g>
<g>
</g>
<g>
</g>
<g>
</g>
<g>
</g>
<g>
</g>
<g>
</g>
<g>
</g>
</svg>
