<?xml version="1.0" encoding="iso-8859-1"?>
<!-- Generator: Adobe Illustrator 16.0.0, SVG Export Plug-In . SVG Version: 6.00 Build 0)  -->
<!DOCTYPE svg PUBLIC "-//W3C//DTD SVG 1.1//EN" "http://www.w3.org/Graphics/SVG/1.1/DTD/svg11.dtd">
<svg xmlns="http://www.w3.org/2000/svg" xmlns:xlink="http://www.w3.org/1999/xlink" version="1.1" id="Capa_1" x="0px" y="0px" width="512px" height="512px" viewBox="0 0 790.592 790.592" style="enable-background:new 0 0 790.592 790.592;" xml:space="preserve">
<g>
	<g>
		<path d="M127.1,496.065c-39.573,0-71.667,32.093-71.667,71.683c0,39.574,32.093,71.668,71.667,71.668    c39.604,0,71.683-32.094,71.683-71.668C198.781,528.158,166.703,496.065,127.1,496.065z M127.1,610.05    c-23.367,0-42.3-18.942-42.3-42.302c0-23.372,18.933-42.316,42.3-42.316c23.374,0,42.32,18.944,42.32,42.316    C169.419,591.105,150.472,610.05,127.1,610.05z" fill="#6B7687"/>
		<path d="M127.1,552.119c-8.624,0-15.612,6.986-15.612,15.629c0,8.625,6.988,15.613,15.612,15.613    c8.625,0,15.625-6.988,15.625-15.613C142.725,559.105,135.725,552.119,127.1,552.119z" fill="#6B7687"/>
		<path d="M464.085,461.354c-49.182,0-89.035,39.864-89.035,89.029c0,49.164,39.855,89.031,89.035,89.031    c49.173,0,89.027-39.867,89.027-89.031S513.258,461.354,464.085,461.354z M464.085,602.938c-29.038,0-52.557-23.536-52.557-52.555    c0-29.02,23.519-52.557,52.557-52.557c29.027,0,52.552,23.537,52.552,52.557C516.637,579.401,493.112,602.938,464.085,602.938z" fill="#6B7687"/>
		<path d="M464.085,530.984c-10.709,0-19.402,8.68-19.402,19.398c0,10.722,8.693,19.402,19.402,19.402    c10.702,0,19.397-8.682,19.397-19.402C483.484,539.664,474.787,530.984,464.085,530.984z" fill="#6B7687"/>
		<path d="M483.484,151.176l-19.397,12.939v63.496l-34.48,1.17l-79.959-77.605H198.781c0,0-63.082,128.771-56.058,201.374    c0,0-225.791,10.225-109.381,199.569c0,0,14.691-90.766,93.756-90.766c79.097,0,92.573,68.484,92.573,92.571h134.683    c0,0-9.608-119.25,119.25-119.25c128.854,0,108.86,117.442,113.572,117.442l203.416-1.734v-19.398l-169.323-22.342    L483.484,151.176z M395.295,387.674c-40.197-2.203-65.634,35.125-65.634,35.125L166.208,352.55    c-3.526-44.384,44.686-173.153,44.686-173.153h129.349l71.72,72.822L395.295,387.674z M498.984,376.941l-54.302-75.843v-48.881    h38.802l48.422,124.725H498.984L498.984,376.941z" fill="#6B7687"/>
	</g>
</g>
<g>
</g>
<g>
</g>
<g>
</g>
<g>
</g>
<g>
</g>
<g>
</g>
<g>
</g>
<g>
</g>
<g>
</g>
<g>
</g>
<g>
</g>
<g>
</g>
<g>
</g>
<g>
</g>
<g>
</g>
</svg>
