<?xml version="1.0" encoding="iso-8859-1"?>
<!-- Generator: Adobe Illustrator 16.0.0, SVG Export Plug-In . SVG Version: 6.00 Build 0)  -->
<!DOCTYPE svg PUBLIC "-//W3C//DTD SVG 1.1//EN" "http://www.w3.org/Graphics/SVG/1.1/DTD/svg11.dtd">
<svg xmlns="http://www.w3.org/2000/svg" xmlns:xlink="http://www.w3.org/1999/xlink" version="1.1" id="Capa_1" x="0px" y="0px" width="512px" height="512px" viewBox="0 0 799.483 799.484" style="enable-background:new 0 0 799.483 799.484;" xml:space="preserve">
<g>
	<g>
		<path d="M176.834,444.72c-39.194,0-70.978,31.789-70.978,70.979c0,39.195,31.782,70.977,70.978,70.977    c39.205,0,70.975-31.781,70.975-70.977C247.809,476.509,216.04,444.72,176.834,444.72z M176.834,554.414    c-21.375,0-38.715-17.326-38.715-38.715c0-21.383,17.34-38.713,38.715-38.713c21.387,0,38.714,17.33,38.714,38.713    C215.548,537.087,198.221,554.414,176.834,554.414z" fill="#6B7687"/>
		<path d="M176.834,497.417c-10.097,0-18.275,8.189-18.275,18.281c0,10.096,8.18,18.289,18.275,18.289    c10.108,0,18.297-8.193,18.297-18.289C195.131,505.607,186.943,497.417,176.834,497.417z" fill="#6B7687"/>
		<path d="M495.151,444.72c-39.203,0-70.974,31.789-70.974,70.979c0,39.195,31.771,70.977,70.974,70.977    c39.204,0,70.979-31.781,70.979-70.977C566.129,476.509,534.357,444.72,495.151,444.72z M495.154,554.414    c-21.388,0-38.714-17.326-38.714-38.715c0-21.383,17.327-38.713,38.712-38.713c21.386,0,38.717,17.33,38.717,38.713    C533.869,537.087,516.537,554.414,495.154,554.414z" fill="#6B7687"/>
		<path d="M495.152,497.417c-10.096,0-18.283,8.189-18.283,18.281c0,10.096,8.188,18.289,18.283,18.289    c10.095,0,18.285-8.193,18.285-18.289C513.438,505.607,505.247,497.417,495.152,497.417z" fill="#6B7687"/>
		<path d="M776.9,558.814l-65.593-133.357l-42.509,19.264v42.357l-15.562,42.715c0,0,38.729,90.316,146.247,29.021H776.9    L776.9,558.814z" fill="#6B7687"/>
		<path d="M653.238,444.72L620.8,415.941l-40.425-35.866h-10.468h-47.209l-45.827-41.817h-72.066l-35.736-107.847h16.23    l0.168-17.603h-0.168H223.68v17.603h11.619v107.846h-58.465c0.012-48.375-18.275-93.569-18.275-93.569h-13.986    c9.313,27.942,9.078,71.458,10.727,93.569H71.45l-41.651,29.82l-5,76.645H9.074c0,0-20.417,73.146,0,89.266h35.725h25.879    c-1.017-5.943-1.553-12.051-1.553-18.285c0-59.484,48.222-107.707,107.708-107.707c59.486,0,107.708,48.225,107.708,107.707    c0,6.234-0.536,12.342-1.553,18.285H389c-1.018-5.943-1.553-12.051-1.553-18.285c0-59.482,48.221-107.707,107.708-107.707    c16.325,0,31.8,3.641,45.664,10.141c23.884,11.197,42.98,30.898,53.391,55.213c7.52,23.766,6.336,48.16,6.336,60.641h0.765h19.49    h12.007l20.433-49.463L653.238,444.72L653.238,444.72z M261.797,337.077l0.002-106.667h82.699l31.932,106.667H261.797z" fill="#6B7687"/>
	</g>
</g>
<g>
</g>
<g>
</g>
<g>
</g>
<g>
</g>
<g>
</g>
<g>
</g>
<g>
</g>
<g>
</g>
<g>
</g>
<g>
</g>
<g>
</g>
<g>
</g>
<g>
</g>
<g>
</g>
<g>
</g>
</svg>
