<?xml version="1.0" encoding="iso-8859-1"?>
<!-- Generator: Adobe Illustrator 16.0.0, SVG Export Plug-In . SVG Version: 6.00 Build 0)  -->
<!DOCTYPE svg PUBLIC "-//W3C//DTD SVG 1.1//EN" "http://www.w3.org/Graphics/SVG/1.1/DTD/svg11.dtd">
<svg xmlns="http://www.w3.org/2000/svg" xmlns:xlink="http://www.w3.org/1999/xlink" version="1.1" id="Capa_1" x="0px" y="0px" width="512px" height="512px" viewBox="0 0 796.186 796.186" style="enable-background:new 0 0 796.186 796.186;" xml:space="preserve">
<g>
	<g>
		<path d="M74.527,451.729h360.092v-92.975c0,0,11.807-54.604-110.683-51.654l-7.381,53.129h-45.75l-7.378-26.562l-28.041-4.428    l-2.95-11.808h-16.073v-45.748h-11.806v45.748h-25.25l-2.952-19.186h-17.709v16.233h-48.703l-2.949,41.321l-32.469,1.477    C74.527,357.278,49.438,429.593,74.527,451.729z M338.692,324.812c112.162-11.805,76.742,110.686,76.742,110.686    C309.176,419.263,338.692,324.812,338.692,324.812z" fill="#6B7687"/>
		<path d="M427.238,298.247c0,0,22.141,8.854,26.564,36.895c0,0-1.477-39.846,121.016-36.895c122.49,2.953,141.676,0,141.676,0    v-23.611c0,0,0-33.943,19.188-47.226H530.545C530.545,227.409,450.32,253.607,427.238,298.247z" fill="#6B7687"/>
		<path d="M735.68,361.706v90.022c0,0,41.322,14.76,54.602-28.041V234.788h-17.707C772.574,234.788,717.969,231.836,735.68,361.706z    " fill="#6B7687"/>
		<path d="M644.18,417.786c0,0-42.797,104.781,35.418,112.158c78.219,7.381,116.588-75.762,116.588-75.762    C704.689,527.481,644.18,417.786,644.18,417.786z" fill="#6B7687"/>
		<path d="M271.544,532.38c7.597,0,13.774-6.18,13.774-13.779s-6.178-13.773-13.774-13.773c-7.599,0-13.78,6.176-13.78,13.773    C257.764,526.2,263.945,532.38,271.544,532.38z" fill="#6B7687"/>
		<path d="M179.063,530.741c6.701,0,12.141-5.443,12.141-12.143c0-6.701-5.44-12.141-12.141-12.141    c-6.699,0-12.139,5.439-12.139,12.141C166.924,525.298,172.364,530.741,179.063,530.741z" fill="#6B7687"/>
		<path d="M367.964,530.741c6.697,0,12.141-5.443,12.141-12.143c0-6.701-5.443-12.141-12.141-12.141    c-6.699,0-12.138,5.439-12.138,12.141C355.827,525.298,361.265,530.741,367.964,530.741z" fill="#6B7687"/>
		<path d="M77.396,530.741c6.698,0,12.142-5.443,12.142-12.143c0-6.701-5.443-12.141-12.142-12.141    c-6.7,0-12.141,5.439-12.141,12.141C65.255,525.298,70.696,530.741,77.396,530.741z" fill="#6B7687"/>
		<path d="M491.436,568.776v-3.316c23.268-2.92,41.324-22.814,41.324-46.857c0-24.037-18.059-43.938-41.324-46.854v-3.322H41.321    v3.322C18.054,474.665,0,494.565,0,518.603c0,24.043,18.055,43.938,41.321,46.857v3.316H491.436L491.436,568.776z M77.396,494.653    c11.149,0,20.466,7.701,23.119,18.043h55.432c2.642-10.342,11.958-18.043,23.116-18.043c11.163,0,20.477,7.701,23.118,18.043    h44.528c2.688-11.264,12.772-19.68,24.835-19.68c12.059,0,22.147,8.416,24.833,19.68h48.47    c2.643-10.342,11.957-18.043,23.117-18.043s20.478,7.701,23.118,18.043h49.183c2.654-10.342,11.969-18.043,23.129-18.043    c13.211,0,23.949,10.746,23.949,23.945c0,13.201-10.738,23.947-23.949,23.947c-11.16,0-20.477-7.703-23.129-18.043h-49.183    c-2.642,10.34-11.958,18.043-23.118,18.043s-20.475-7.703-23.117-18.043h-48.47c-2.686,11.266-12.775,19.68-24.833,19.68    c-12.063,0-22.147-8.414-24.835-19.68h-44.528c-2.641,10.34-11.956,18.043-23.118,18.043c-11.158,0-20.475-7.703-23.116-18.043    h-55.432c-2.653,10.34-11.969,18.043-23.119,18.043c-13.201,0-23.949-10.746-23.949-23.947    C53.448,505.401,64.195,494.653,77.396,494.653z" fill="#6B7687"/>
		<path d="M463.396,530.741c6.689,0,12.143-5.443,12.143-12.143c0-6.701-5.451-12.141-12.143-12.141    c-6.688,0-12.141,5.439-12.141,12.141C451.256,525.298,456.709,530.741,463.396,530.741z" fill="#6B7687"/>
	</g>
</g>
<g>
</g>
<g>
</g>
<g>
</g>
<g>
</g>
<g>
</g>
<g>
</g>
<g>
</g>
<g>
</g>
<g>
</g>
<g>
</g>
<g>
</g>
<g>
</g>
<g>
</g>
<g>
</g>
<g>
</g>
</svg>
