<?xml version="1.0" encoding="iso-8859-1"?>
<!-- Generator: Adobe Illustrator 16.0.0, SVG Export Plug-In . SVG Version: 6.00 Build 0)  -->
<!DOCTYPE svg PUBLIC "-//W3C//DTD SVG 1.1//EN" "http://www.w3.org/Graphics/SVG/1.1/DTD/svg11.dtd">
<svg xmlns="http://www.w3.org/2000/svg" xmlns:xlink="http://www.w3.org/1999/xlink" version="1.1" id="Capa_1" x="0px" y="0px" width="512px" height="512px" viewBox="0 0 366.039 366.039" style="enable-background:new 0 0 366.039 366.039;" xml:space="preserve">
<g>
	<g>
		<path d="M128.665,221.236c-43.406,53.599-87.168,97.67-87.643,98.142c-4.013,4.033-4.002,10.554,0.029,14.567l29.186,29.09    c2.009,2.004,4.64,3.004,7.272,3.004c2.64,0,5.281-1.01,7.295-3.025c1.907-1.914,41.736-41.98,84.458-93.77    C155.735,253.982,138.693,233.445,128.665,221.236z" fill="#6B7687"/>
		<path d="M325.068,319.521c-0.462-0.469-11.481-11.701-27.638-29.405c-6.906-7.565-15.139-16.331-23.898-25.655    c-16.064-17.1-77.79-86.308-100.269-115.753c-44.243-57.955-36.25-76.236-35.944-76.946c1.118-2.581,11.904-9.953,45.654-9.953    c19.657,0,28.489,4.085,29.629,6.83c0.326,0.782,6.511,17.398-24.694,69.84c1.881,2.365,23.25,29.227,41.262,50.496    c9.86-15.112,18.154-29.291,24.76-42.347c21.43-42.353,26.586-75.616,15.759-101.69c-6.398-15.411-18.297-27.551-34.409-35.107    C221.177,3.215,204.068,0,182.974,0c-25.561,0-45.943,3.257-62.317,9.959C101.351,17.86,87.87,30.397,80.593,47.22    c-14.691,33.956-1.114,77.774,42.728,137.906c4.571,6.271,68.404,85.877,105.187,121.683l0.131,0.141    c8.518,9.066,16.562,17.629,23.139,24.836c17.412,19.078,29.117,30.975,29.235,31.092c3.99,4.053,10.51,4.102,14.561,0.111    l29.373-28.9C328.996,330.1,329.051,323.58,325.068,319.521z" fill="#6B7687"/>
	</g>
</g>
<g>
</g>
<g>
</g>
<g>
</g>
<g>
</g>
<g>
</g>
<g>
</g>
<g>
</g>
<g>
</g>
<g>
</g>
<g>
</g>
<g>
</g>
<g>
</g>
<g>
</g>
<g>
</g>
<g>
</g>
</svg>
