<?xml version="1.0" encoding="iso-8859-1"?>
<!-- Generator: Adobe Illustrator 16.0.0, SVG Export Plug-In . SVG Version: 6.00 Build 0)  -->
<!DOCTYPE svg PUBLIC "-//W3C//DTD SVG 1.1//EN" "http://www.w3.org/Graphics/SVG/1.1/DTD/svg11.dtd">
<svg xmlns="http://www.w3.org/2000/svg" xmlns:xlink="http://www.w3.org/1999/xlink" version="1.1" id="Capa_1" x="0px" y="0px" width="512px" height="512px" viewBox="0 0 386.422 386.422" style="enable-background:new 0 0 386.422 386.422;" xml:space="preserve">
<g>
	<path d="M285.454,222.313c-50.998-20.857-60.574-37.622-84.091-40.809c-3.377-0.458-6.071,0.149-8.203,1.245   c0.231-13.555,0.527-27.549,0.659-29.182c0.338,0.61,0.697,1.213,1.092,1.804c7.285,10.908,21.434,14.246,40.201,1.714   c17.839-11.912,27.765-47.101,27.765-47.101s-36.308-4.316-54.146,7.596c-4.446,2.97-7.959,6.042-10.652,9.146   c0.446-1.932,0.896-3.764,1.322-5.525c1.449-5.941,2.729-11.209,3.194-16.651c11.263-3.56,18.323-15.108,14.46-35.597   c-3.979-21.078-32.469-43.988-32.469-43.988s-18.19,31.716-14.213,52.794c3.48,18.448,12.57,26.92,22.949,27.849   c-0.512,4.115-1.541,8.363-2.777,13.436c-0.521,2.136-1.066,4.374-1.607,6.754c-1.801-3.783-4.447-7.761-8.066-11.887   c-14.144-16.127-50.326-21.363-50.326-21.363s0.469,36.559,14.611,52.686c14.881,16.967,29.41,17.408,39.272,8.758   c0.073-0.063,0.142-0.131,0.214-0.194c-0.124,1.617-0.44,17.038-0.671,30.777c-2.762-3.702-7.248-3.186-7.248-3.186   c-12.914,0.534-42.248,41.666-42.248,41.666c-6.853,11.711-8.011,22.557-7.797,30.219c0,0-67.704-37.819-88.712-45.871   c-20.878-8.002-64.881-2.459-15.158,32.135c31.146,21.668,135.559,100.243,154.574,105.002   c23.628,5.914,110.845-7.78,129.404-6.725c18.558,1.055,58.437,14.349,79.635,23.641v-74.918   C368.552,276.537,347.528,247.703,285.454,222.313z M203.966,278.708c-48.379-6.242-33.596-40.973-33.596-40.973   c10.3-22.187,14.808-35.484,15.404-43.635l0.718,0.059c1.655,8.544,10.857,20.851,28.92,33.6   C250.785,252.728,253.597,285.11,203.966,278.708z" fill="#6B7687"/>
</g>
<g>
</g>
<g>
</g>
<g>
</g>
<g>
</g>
<g>
</g>
<g>
</g>
<g>
</g>
<g>
</g>
<g>
</g>
<g>
</g>
<g>
</g>
<g>
</g>
<g>
</g>
<g>
</g>
<g>
</g>
</svg>
