<?xml version="1.0" encoding="iso-8859-1"?>
<!-- Generator: Adobe Illustrator 16.0.0, SVG Export Plug-In . SVG Version: 6.00 Build 0)  -->
<!DOCTYPE svg PUBLIC "-//W3C//DTD SVG 1.1//EN" "http://www.w3.org/Graphics/SVG/1.1/DTD/svg11.dtd">
<svg xmlns="http://www.w3.org/2000/svg" xmlns:xlink="http://www.w3.org/1999/xlink" version="1.1" id="Capa_1" x="0px" y="0px" width="512px" height="512px" viewBox="0 0 433.995 433.995" style="enable-background:new 0 0 433.995 433.995;" xml:space="preserve">
<g>
	<g>
		<path d="M340.464,123.468c0.002-32.929-12.852-63.919-36.194-87.264C280.926,12.858,249.932,0,216.996,0    C148.915,0,93.528,55.388,93.528,123.468c0,68.08,55.387,123.467,123.468,123.467    C285.075,246.936,340.464,191.548,340.464,123.468z M216.996,224.087c-55.477,0-100.61-45.143-100.61-100.63    c0-3.911,0.261-7.939,0.774-11.976c3.664,5.4,8.02,11.579,12.952,18.367c15.127,20.786,26.752,24.547,39.063,28.531    c7.342,2.376,14.934,4.832,24.172,11.669c6.341,4.688,11.03,6.873,14.756,6.873c2.522,0,4.738-0.985,6.236-2.771    c0.72-0.858,1.249-1.87,1.567-3.002h0.001c1.597,4.244,3.205,7.833,4.271,10.096c0.646,1.373,1.866,2.468,3.284,3.01    c1.739,0.664,4.816,2.866,5.324,6.894c0.202,1.611,0.23,4.371,0.261,7.297c0.082,7.754,0.184,17.405,3.11,24.424    C227.042,223.676,221.94,224.087,216.996,224.087z M254.321,154.66c-1.627-0.488-3.329-0.997-5.083-1.539    c-6.765-2.073-11.237-10.706-12.656-14.981c-0.555-1.669-1.827-3.003-3.468-3.635c-3.599-1.384-6.705-2.056-9.501-2.056    c-4.634,0-8.425,1.962-10.684,5.528c-2.489,3.935-2.978,10.003-1.45,18.032c-4.275-6.109-9.782-9.757-14.73-9.757h-0.162    c-3.705,0-9.894-10.247-12.963-19.42l-0.01-0.029c-1.054-3.674-2.674-14.285,2.429-19.219c1.837-1.78,2.673-1.829,2.681-1.829    c0.393,0,1.385,0.533,2.368,1.078c1.688,0.938,4.513,2.508,8.009,2.508c0.932,0,1.867-0.112,2.798-0.335    c4.269-1.044,7.92-3.972,10.279-8.244c2.994-5.414,3.532-12.388,1.447-18.642c-0.169-0.508-0.351-0.974-0.56-1.429    c1.318-0.346,2.737-0.696,4.258-1.049c7.232-1.671,16.958-4.78,17.911-12.443c0.843-6.735-5.741-11.116-8.611-12.685    c-1.601-0.876-3.513-0.958-5.18-0.229c-0.504,0.221-3.188,1.319-6.654,1.319c-3.05,0-5.704-0.82-8.105-2.499    c-2.5-1.756-4.884-2.609-7.286-2.609c-2.119,0-4.074,0.659-5.979,2.014h-0.001c-0.723-1.1-1.543-2.52-2.436-4.221    c-4.231-8.049-11.313-12.67-21.047-13.734c14.533-7.761,30.368-11.695,47.062-11.695c27.203,0,52.684,10.731,71.749,30.216    c-11.696,3.08-19.426,9.397-22.355,18.273l-13.104,15.053c-9.998,11.81-7.476,22.228-5.083,27.386    c4.081,8.801,13.749,15.376,19.669,15.376c0.819,0,1.605-0.117,2.324-0.343c0.99-0.31,1.986-0.75,2.858-1.136    c1.507-0.664,3.063-1.349,4.199-1.349c0.94,0,2.444,0.903,4.261,5.19c2.804,6.686,4.211,17.872,5.341,26.857    c0.203,1.612,0.388,3.077,0.568,4.441c-3.149-1.436-7.08-1.619-10.15-1.619c-2.333,0-4.689,0.135-6.687,0.269    c-2.333-2.569-6.629-3.934-16.13-6.776L254.321,154.66z M263.122,212.736l2.674-3.806c2.496-3.145,8.149-10.594,9.457-15.107    c0.472-0.679,2.01-2.094,3.551-3.488c3.412-3.094,8.085-7.33,11.744-13.375c0.357,0.707,0.749,1.314,1.189,1.842    c1.611,1.942,3.871,3.011,6.359,3.011c0.248,0,0.5-0.011,0.721-0.03C289.573,194.738,277.23,205.441,263.122,212.736z" fill="#6B7687"/>
		<path d="M184.484,370.245c-1.589-3.888-3.367-7.736-5.285-11.442c-12.563-24.271-29.815-40.47-46.504-56.136    c-4.703-4.413-10.692-11.315-17.034-18.625c-9.258-10.666-18.832-21.694-25.264-25.901c-5.829-3.811-10.592-3.916-14.16-0.312    c-5.202,5.256-3.667,15.049,4.978,31.75c5.777,11.163,14.154,24.311,23.024,38.23c1.425,2.236,2.873,4.512,4.33,6.806    c-15.709-17.181-27.245-32.808-34.344-46.521c-8.152-15.746-9.81-27.916-4.667-34.261c3.632-4.481,10.545-5.595,19.465-3.135    l1.322,0.364l-0.319-1.336c-0.166-0.69-16.649-69.36-20.131-82.357c-0.766-2.866-1.833-5.63-3.17-8.212    c-4.801-9.275-12.389-14.907-18.043-13.39c-2.728,0.734-7.223,3.834-6.631,16.398l8.583,108.401    c0.44,3.539,0.749,7.246,1.077,11.177c1.001,12.009,2.038,24.428,6.953,33.923c2.044,3.951,4.414,7.52,7.24,10.907    c5.091,6.101,19.251,20.835,34.242,36.43c14.593,15.185,29.685,30.884,35.195,37.439c4.323,5.145,8.065,10.813,11.44,17.336    c2.719,5.252,5,10.672,7.038,16.215h52.745l-0.792-2.693C199.435,409.769,192.471,389.795,184.484,370.245z" fill="#6B7687"/>
		<path d="M385.312,145.767c-5.654-1.517-13.241,4.115-18.042,13.39c-1.336,2.582-2.404,5.346-3.171,8.212    c-3.481,12.997-19.965,81.667-20.13,82.357l-0.318,1.336l1.32-0.364c8.922-2.46,15.833-1.347,19.467,3.135    c5.143,6.345,3.484,18.515-4.667,34.261c-7.101,13.713-18.636,29.34-34.345,46.521c1.458-2.294,2.904-4.569,4.33-6.806    c8.87-13.92,17.247-27.067,23.023-38.23c8.645-16.701,10.18-26.494,4.978-31.75c-3.567-3.604-8.331-3.498-14.16,0.312    c-6.433,4.207-16.007,15.236-25.265,25.901c-6.342,7.31-12.332,14.212-17.034,18.625c-16.688,15.667-33.941,31.864-46.504,56.136    c-1.918,3.706-3.696,7.555-5.285,11.442c-7.987,19.55-14.951,39.522-21.288,61.057l-0.792,2.693h52.745    c2.038-5.543,4.319-10.963,7.038-16.215c3.375-6.522,7.117-12.192,11.44-17.336c5.511-6.557,20.602-22.256,35.194-37.439    c14.991-15.595,29.152-30.329,34.243-36.43c2.827-3.388,5.196-6.956,7.24-10.907c4.916-9.495,5.952-21.914,6.954-33.923    c0.329-3.931,0.637-7.638,1.077-11.177l8.583-108.401C392.534,149.601,388.039,146.5,385.312,145.767z" fill="#6B7687"/>
	</g>
</g>
<g>
</g>
<g>
</g>
<g>
</g>
<g>
</g>
<g>
</g>
<g>
</g>
<g>
</g>
<g>
</g>
<g>
</g>
<g>
</g>
<g>
</g>
<g>
</g>
<g>
</g>
<g>
</g>
<g>
</g>
</svg>
