<?xml version="1.0" encoding="iso-8859-1"?>
<!-- Generator: Adobe Illustrator 16.0.0, SVG Export Plug-In . SVG Version: 6.00 Build 0)  -->
<!DOCTYPE svg PUBLIC "-//W3C//DTD SVG 1.1//EN" "http://www.w3.org/Graphics/SVG/1.1/DTD/svg11.dtd">
<svg xmlns="http://www.w3.org/2000/svg" xmlns:xlink="http://www.w3.org/1999/xlink" version="1.1" id="Capa_1" x="0px" y="0px" width="512px" height="512px" viewBox="0 0 364.905 364.905" style="enable-background:new 0 0 364.905 364.905;" xml:space="preserve">
<g>
	<g>
		<path d="M295.364,97.878c1.489-1.999,1.606-4.698,0.306-6.82c-1.303-2.125-3.766-3.24-6.221-2.825    c-0.091,0.017-8.82,1.483-16.376,1.697c11.971-19.669,17.964-45.403,18.286-78.267c0.031-3.343-2.631-6.087-5.974-6.155    c-0.734-0.016-1.511-0.022-2.312-0.022c-19.441,0-69.836,5.12-91.834,27.22c-12.676-20.294-29.616-31.53-49.409-32.641    C141.061,0.021,140.284,0,139.512,0c-25.204,0-45.75,22.406-59.342,37.233c-3.75,4.088-7.294,7.952-9.316,9.417    c-1.556,1.13-2.494,2.922-2.523,4.845c-0.025,1.921,0.851,3.743,2.373,4.918c7.148,5.515,12.122,17.148,17.382,29.46    c5.103,11.938,10.385,24.281,18.693,34.501c21.832,26.853,52.674,32.489,74.698,32.489c22.889,0,47.497-6.4,65.825-17.125    C282.177,115.332,294.844,98.582,295.364,97.878z M111.833,56.042c-4.491,0-8.132-3.64-8.132-8.129    c0-4.491,3.641-8.128,8.132-8.128c4.486,0,8.126,3.637,8.126,8.128C119.959,52.402,116.32,56.042,111.833,56.042z" fill="#6B7687"/>
		<path d="M149.938,301.155c-1.589-3.888-3.367-7.736-5.284-11.442c-12.563-24.271-29.817-40.468-46.504-56.137    c-4.702-4.412-10.691-11.314-17.034-18.624c-9.259-10.664-18.832-21.696-25.265-25.903c-5.828-3.808-10.593-3.914-14.16-0.311    c-5.201,5.256-3.667,15.048,4.978,31.75c5.778,11.162,14.155,24.309,23.025,38.229c1.425,2.237,2.872,4.514,4.329,6.807    c-15.709-17.182-27.247-32.807-34.345-46.52c-8.152-15.746-9.811-27.917-4.667-34.26c3.632-4.483,10.545-5.595,19.466-3.135    l1.321,0.363l-0.319-1.335c-0.165-0.692-16.65-69.362-20.131-82.357c-0.766-2.867-1.834-5.63-3.17-8.213    c-4.8-9.276-12.388-14.908-18.043-13.389c-2.729,0.734-7.223,3.834-6.632,16.398l8.584,108.402    c0.44,3.537,0.749,7.246,1.076,11.175c1.003,12.009,2.04,24.429,6.955,33.923c2.042,3.952,4.412,7.52,7.239,10.906    c5.092,6.103,19.251,20.835,34.243,36.432c14.593,15.184,29.684,30.882,35.194,37.438c4.324,5.145,8.065,10.813,11.441,17.336    c2.719,5.253,5,10.672,7.038,16.215h52.747l-0.794-2.692C164.889,340.678,157.927,320.705,149.938,301.155z" fill="#6B7687"/>
		<path d="M350.768,76.679c-5.656-1.519-13.243,4.113-18.043,13.389c-1.336,2.583-2.404,5.346-3.171,8.213    c-3.48,12.995-19.965,81.666-20.131,82.357l-0.318,1.335l1.32-0.363c8.921-2.459,15.834-1.348,19.468,3.135    c5.144,6.343,3.485,18.513-4.667,34.261c-7.099,13.711-18.636,29.338-34.345,46.519c1.457-2.294,2.903-4.568,4.329-6.806    c8.87-13.92,17.247-27.068,23.025-38.229c8.645-16.703,10.179-26.494,4.978-31.75c-3.566-3.603-8.333-3.497-14.161,0.312    c-6.433,4.207-16.006,15.238-25.265,25.902c-6.342,7.309-12.331,14.212-17.034,18.624c-16.687,15.668-33.941,31.865-46.503,56.138    c-1.917,3.705-3.695,7.553-5.284,11.441c-7.988,19.55-14.951,39.521-21.289,61.057l-0.792,2.692h52.746    c2.038-5.543,4.319-10.962,7.038-16.215c3.375-6.522,7.117-12.191,11.441-17.336c5.51-6.557,20.601-22.255,35.194-37.438    c14.99-15.597,29.15-30.33,34.242-36.432c2.828-3.387,5.197-6.955,7.239-10.906c4.915-9.495,5.951-21.914,6.955-33.923    c0.327-3.929,0.635-7.638,1.076-11.175l8.584-108.402C357.99,80.513,353.495,77.412,350.768,76.679z" fill="#6B7687"/>
	</g>
</g>
<g>
</g>
<g>
</g>
<g>
</g>
<g>
</g>
<g>
</g>
<g>
</g>
<g>
</g>
<g>
</g>
<g>
</g>
<g>
</g>
<g>
</g>
<g>
</g>
<g>
</g>
<g>
</g>
<g>
</g>
</svg>
