<?xml version="1.0" encoding="iso-8859-1"?>
<!-- Generator: Adobe Illustrator 16.0.0, SVG Export Plug-In . SVG Version: 6.00 Build 0)  -->
<!DOCTYPE svg PUBLIC "-//W3C//DTD SVG 1.1//EN" "http://www.w3.org/Graphics/SVG/1.1/DTD/svg11.dtd">
<svg xmlns="http://www.w3.org/2000/svg" xmlns:xlink="http://www.w3.org/1999/xlink" version="1.1" id="Capa_1" x="0px" y="0px" width="512px" height="512px" viewBox="0 0 405.984 405.984" style="enable-background:new 0 0 405.984 405.984;" xml:space="preserve">
<g>
	<g>
		<path d="M186.847,177.511c121.612,0,125-12.13,125-37.807c0-28.946-32.004-53.743-77.459-64.117c0.07,2.207,0.11,4.468,0.11,6.777    c0,22.969-3.704,41.587-8.271,41.587c-4.567,0-8.271-18.618-8.271-41.587c0-3.368,0.081-6.638,0.231-9.773    c-6.941-0.994-14.114-1.665-21.467-1.983c0.175,3.775,0.274,7.71,0.273,11.757c0.001,28.189-4.545,51.039-10.149,51.039    c-5.606,0-10.15-22.85-10.15-51.039c0-4.047,0.097-7.981,0.274-11.757c-7.353,0.318-14.528,0.989-21.469,1.983    c0.151,3.136,0.232,6.405,0.232,9.773c0,22.969-3.703,41.587-8.27,41.587c-4.568,0-8.271-18.618-8.271-41.587    c0-2.31,0.04-4.57,0.111-6.777c-45.455,10.374-77.459,35.171-77.459,64.117C61.847,165.381,65.234,177.511,186.847,177.511z" fill="#6B7687"/>
		<path d="M402.343,239.72c-27.2-5.271-53.047-8.971-79.012-11.308c-5.164-0.465-10.393-0.7-15.543-0.7    c-33.736,0-61.283,9.727-87.926,19.131c-7.509,2.649-18.473,5.301-30.084,8.105c-16.945,4.096-34.469,8.331-42.73,12.998    c-7.484,4.229-10.303,9.391-8.377,15.346c2.811,8.686,14.416,12.559,37.631,12.559c15.518,0,34.684-1.723,54.975-3.547    c3.262-0.293,6.575-0.59,9.918-0.886c-27.748,7.472-51.424,11.255-70.484,11.255c-21.891,0.002-36.17-5.086-40.207-14.324    c-2.852-6.524-0.15-14.734,7.607-23.116l1.15-1.243l-1.645-0.406c-0.854-0.211-85.484-21.107-101.709-24.666    c-3.578-0.785-7.213-1.183-10.803-1.183c-12.893,0-23.371,5.122-24.916,12.18c-0.744,3.41,0.105,10.097,14.213,16.575    l123.707,52.102c4.131,1.524,8.371,3.291,12.863,5.159c13.734,5.716,27.938,11.627,41.135,11.626c5.49,0,10.746-0.57,16.064-1.748    c9.576-2.117,33.762-9.281,59.367-16.867c24.926-7.383,50.699-15.018,61.012-17.338c8.093-1.822,16.433-2.707,25.498-2.707    c15.629,0,30.968,2.629,46.609,5.557l5.328,0.996v-62.842L402.343,239.72z" fill="#6B7687"/>
	</g>
</g>
<g>
</g>
<g>
</g>
<g>
</g>
<g>
</g>
<g>
</g>
<g>
</g>
<g>
</g>
<g>
</g>
<g>
</g>
<g>
</g>
<g>
</g>
<g>
</g>
<g>
</g>
<g>
</g>
<g>
</g>
</svg>
