<?xml version="1.0" encoding="iso-8859-1"?>
<!-- Generator: Adobe Illustrator 16.0.0, SVG Export Plug-In . SVG Version: 6.00 Build 0)  -->
<!DOCTYPE svg PUBLIC "-//W3C//DTD SVG 1.1//EN" "http://www.w3.org/Graphics/SVG/1.1/DTD/svg11.dtd">
<svg xmlns="http://www.w3.org/2000/svg" xmlns:xlink="http://www.w3.org/1999/xlink" version="1.1" id="Capa_1" x="0px" y="0px" width="512px" height="512px" viewBox="0 0 386.422 386.422" style="enable-background:new 0 0 386.422 386.422;" xml:space="preserve">
<g>
	<g>
		<path d="M118.209,38.866c-1.606-0.295-3.175,0.203-4.303,1.216C104.44,47.783,98.289,58.14,96.105,70.05    c-2.202,11.999-0.076,23.952,6.146,34.567c1.31,2.231,4.089,3.122,6.451,2.061c2.359-1.059,3.542-3.727,2.743-6.189    c-2.972-9.153-3.604-18.563-1.881-27.97c1.727-9.405,5.656-17.979,11.682-25.482c0.543-0.678,0.887-1.455,1.033-2.257    c0.012-0.06,0.021-0.121,0.03-0.181C122.711,41.904,120.907,39.359,118.209,38.866z" fill="#6B7687"/>
		<path d="M285.454,240.574c-50.998-20.858-60.574-37.622-84.091-40.81c-4.557-0.618-7.873,0.701-10.232,2.548    c0.248-3.129-0.589-6.906-0.495-8.149c-0.114-2.411,12.97-14.744,15.113-22.221c3.303,1.59,3.89,3.014,7.713,0.687    c3.026-1.841,3.75-6.874,3.735-11.36c29.854-5.597,52.922-42.49,52.922-81.976c0-42.884-27.208-72.584-60.769-72.584    c-16.425,0-31.321,7.116-42.257,19.405c-14.848-11.989-33.582-16.789-52.432-11.762c-34.348,9.16-52.161,46.391-41.437,86.604    c5.217,19.563,16.646,37.71,31.353,49.786c15.914,13.069,33.693,17.862,50.06,13.498c0.265-0.07,0.528-0.15,0.79-0.227    c2.274,5.971,6.292,13.946,10.418,9.686c1.664-1.718,3.142-3.023,4.46-4.035c2.077,3.071,2.65,5.629,3.208,8.133    c0.946,4.238,1.926,8.621,9.158,13.936c0.983,0.722,2.607,1.93,2.485,2.393c-0.122,0.463-2.013,4.435-2.731,7.144    c-2.627-1.978-5.701-1.623-5.701-1.623c-12.914,0.534-42.248,41.666-42.248,41.666c-6.853,11.711-8.012,22.558-7.797,30.219    c0,0-67.704-37.819-88.712-45.871c-20.878-8.002-64.881-2.458-15.158,32.135c31.146,21.668,135.559,100.243,154.574,105.002    c23.628,5.914,110.845-7.78,129.404-6.725c18.558,1.055,58.437,14.349,79.635,23.641v-74.918    C368.552,294.797,347.528,265.962,285.454,240.574z M150.718,149.547c-11.507,3.068-24.464-0.681-36.49-10.557    c-12.302-10.103-21.893-25.395-26.308-41.952c-8.492-31.836,4.69-61.066,30.662-67.992c14.189-3.784,28.381,0.113,39.726,9.619    c-6.149,11.289-9.724,25.093-9.724,40.628c0,22.282,7.346,43.737,19.113,59.21C162.902,144.047,157.145,147.833,150.718,149.547z     M167.301,90.587c-3.637-13.163-2.496-26.589,3.295-38.827c5.748-12.149,15.31-21.496,27.662-27.046    c1.499-0.765,3.323-0.85,4.963-0.075c2.752,1.303,3.958,4.548,2.758,7.32c-0.025,0.062-0.055,0.124-0.085,0.186    c-0.387,0.818-0.979,1.554-1.752,2.124c-8.609,6.324-15.275,14.394-19.814,23.988c-4.54,9.594-6.552,19.867-5.982,30.533    c0.152,2.869-1.881,5.392-4.715,5.853C170.793,95.104,168.066,93.357,167.301,90.587z M177.906,176.817    c-0.63-2.83-1.318-5.901-3.786-9.57c4.386-2.169,6.087-0.896,7.06-5.828c0.628-3.191-2.037-6.768-5.047-9.667    c0.69-0.68,1.363-1.383,2.025-2.107c4.488,3.817,9.352,6.874,14.494,8.988c-2.201,5.18-3.475,10.839,1.396,10.976    c3.147,0.089,5.552,0.423,7.447,0.865c-1.5,5.648-4.913,9.521-8.718,13.827c-1.672,1.892-3.365,3.815-4.921,5.93    c-0.796-0.761-1.636-1.475-2.521-2.125C179.463,183.791,178.776,180.713,177.906,176.817z M203.966,296.967    c-48.379-6.242-33.596-40.972-33.596-40.972c9.964-21.464,14.496-34.595,15.322-42.808c0.311,0,0.689,0.006,0.988,0.004    c2.039,8.506,11.202,20.451,28.731,32.826C250.785,270.986,253.597,303.37,203.966,296.967z" fill="#6B7687"/>
	</g>
</g>
<g>
</g>
<g>
</g>
<g>
</g>
<g>
</g>
<g>
</g>
<g>
</g>
<g>
</g>
<g>
</g>
<g>
</g>
<g>
</g>
<g>
</g>
<g>
</g>
<g>
</g>
<g>
</g>
<g>
</g>
</svg>
