<?xml version="1.0" encoding="iso-8859-1"?>
<!DOCTYPE svg PUBLIC "-//W3C//DTD SVG 1.1//EN" "http://www.w3.org/Graphics/SVG/1.1/DTD/svg11.dtd">
<svg xmlns="http://www.w3.org/2000/svg" xmlns:xlink="http://www.w3.org/1999/xlink" version="1.1" viewBox="0 0 512 512" enable-background="new 0 0 512 512" width="512px" height="512px">
  <g>
    <path d="m464,176c0-17.672-14.328-32-32-32v-80c17.672,0 32-14.328 32-32s-14.328-32-32-32h-32-288-32c-17.672,0-32,14.328-32,32s14.328,32 32,32v80c-17.672,0-32,14.328-32,32s14.328,32 32,32v96c-17.672,0-32,14.328-32,32s14.328,32 32,32v80c-17.672,0-32,14.328-32,32s14.328,32 32,32h32 288 32c17.672,0 32-14.328 32-32s-14.328-32-32-32v-80c17.672,0 32-14.328 32-32s-14.328-32-32-32v-96c17.672,0 32-14.328 32-32zm-208,191.997c-61.855,0-112-50.145-112-112 0-61.857 50.145-112 112-112s112,50.143 112,112c0,61.856-50.145,112-112,112z" fill="#6B7687"/>
    <path d="m202.667,285.091c0,28.119 23.88,50.906 53.333,50.906s53.333-22.787 53.333-50.906c0-36.373-53.333-109.094-53.333-109.094s-53.333,72.721-53.333,109.094z" fill="#6B7687"/>
  </g>
</svg>
