<?xml version="1.0" encoding="iso-8859-1"?>
<!DOCTYPE svg PUBLIC "-//W3C//DTD SVG 1.1//EN" "http://www.w3.org/Graphics/SVG/1.1/DTD/svg11.dtd">
<svg xmlns="http://www.w3.org/2000/svg" xmlns:xlink="http://www.w3.org/1999/xlink" version="1.1" viewBox="0 0 512 512" enable-background="new 0 0 512 512" width="512px" height="512px">
  <path d="m453.865,405.65l-91.73-160.798c-6.665-13.329-10.135-28.028-10.135-42.932v-137.334c17.672,1.42109e-14 32-14.328 32-32 0-17.672-14.328-32.586-32-32.586h-192c-17.672,0-32,14.914-32,32.586 0,17.672 14.328,32 32,32v137.334c0,14.904-3.47,29.603-10.135,42.933l-91.73,160.797c-6.665,13.33-10.135,28.03-10.135,42.933v32c0,17.673 14.327,31.417 32,31.417h352c17.673,0 32-13.744 32-31.417v-32c0-14.903-3.47-29.603-10.135-42.933zm-213.865,58.933c-17.673,0-32-14.327-32-32 0-17.674 14.327-32 32-32s32,14.326 32,32c0,17.673-14.327,32-32,32zm-16-128c0-8.837 7.163-16 16-16s16,7.163 16,16c0,8.836-7.163,16-16,16s-16-7.164-16-16zm80,64c-8.837,0-16-7.164-16-16 0-8.837 7.163-16 16-16s16,7.163 16,16c0,8.836-7.163,16-16,16zm-112-112l12.47-21.993c12.804-22.58 19.534-48.061 19.534-74.019-0.001-40.002-0.004-127.954-0.004-127.985h64v127.949c0,25.947 6.725,51.451 19.519,74.025l12.481,22.023h-128z" fill="#6B7687"/>
</svg>
