<?xml version="1.0" encoding="iso-8859-1"?>
<!DOCTYPE svg PUBLIC "-//W3C//DTD SVG 1.1//EN" "http://www.w3.org/Graphics/SVG/1.1/DTD/svg11.dtd">
<svg xmlns="http://www.w3.org/2000/svg" xmlns:xlink="http://www.w3.org/1999/xlink" version="1.1" viewBox="0 0 512 512" enable-background="new 0 0 512 512" width="512px" height="512px">
  <path d="m371.156,111.07c-7.891-12.656-23.469-18.188-37.578-13.328-14.102,4.859-22.977,18.813-21.398,33.641 2.969,27.883-1.789,48.516-15.656,65.242-29.563-33.797-39.734-81.266-25.156-124.984 2.578-7.727 5.977-15.242 10.383-22.984 6.234-10.953 4.852-25.375-2.586-35.555-6.024-8.227-15.61-13.094-25.813-13.102-0.008,0-0.008,0-0.016,0-10.195,0-19.773,4.859-25.805,13.078-15.922,21.703-155.531,215.211-155.531,324.383 0,96.242 81.344,174.539 181.336,174.539 101.18,0 186.664-79.93 186.664-174.539 0-71.531-26.383-158.273-68.844-226.391zm-116.866,368.927c-52.859,0-95.719-34.18-95.719-76.359 0-45.28 65.93-128.114 88.354-154.98 2.168-2.597 6.99-1.235 6.919,1.931-0.274,12.249-0.018,33.315 3.709,53.406 3.686,19.877 10.77,38.799 24.094,47.285 21.196-12.284 30.563-27.965 31.355-47.264 0.133-3.224 5.234-4.412 7.079-1.579 22.143,34.013 33.347,72.368 33.347,101.201 0.001,42.179-46.277,76.359-99.138,76.359z" fill="#6B7687"/>
</svg>
