<?xml version="1.0" encoding="iso-8859-1"?>
<!-- Generator: Adobe Illustrator 19.0.0, SVG Export Plug-In . SVG Version: 6.00 Build 0)  -->
<svg xmlns="http://www.w3.org/2000/svg" xmlns:xlink="http://www.w3.org/1999/xlink" version="1.1" id="Layer_1" x="0px" y="0px" viewBox="0 0 511.999 511.999" style="enable-background:new 0 0 511.999 511.999;" xml:space="preserve" width="512px" height="512px">
<g>
	<g>
		<path d="M196.587,220.779l-70.276,1.088l-31.243-45.472l36.341,31.465l15.825-0.245v-45.046c0-15.711-12.737-28.447-28.447-28.447    H68.056c-18.148,0-30.298,16.893-28.447,29.612v145.01l9.206,74.261L8.877,479.942c-4.884,11.851,0.766,25.419,12.618,30.301    c11.845,4.883,25.417-0.763,30.301-12.618l42.263-102.577c1.524-3.698,2.066-7.728,1.574-11.697    c-1.385-11.168-5.878-47.416-7.263-58.581h18.026c2.173,16.637,4.346,33.277,6.536,50.042L89.814,483.976    c-2.656,12.54,5.358,24.859,17.898,27.515c12.556,2.657,24.862-5.37,27.515-17.898l23.94-113.046    c0.544-2.569,0.648-5.21,0.308-7.814c-4.458-34.149-3.841-29.426-5.139-39.363c-13.688-1.867-25.492-10.784-30.922-23.796    c-4.636-11.11-3.765-23.16,1.347-33.112c-0.435,0.007-8.593,0.136-9.028,0.136c-16.242,0-27.307-11.482-29.723-17.685    l-21.524-55.268l34.501,50.214c3.866,5.625,10.324,8.914,17.062,8.81c11.775-0.183,69.399-1.075,81.168-1.258    c11.3-0.168,20.242-9.558,19.993-20.767C216.961,229.443,207.683,220.609,196.587,220.779z" fill="#6B7687"/>
	</g>
</g>
<g>
	<g>
		<path d="M93.642,37.291c-23.258,0-42.111,18.855-42.111,42.112c0,23.337,18.964,42.11,42.111,42.11    c23.146,0,42.111-18.774,42.111-42.111C135.753,56.144,116.899,37.291,93.642,37.291z" fill="#6B7687"/>
	</g>
</g>
<g>
	<g>
		<path d="M395.128,196.183c-5.09-12.198-19.102-17.956-31.298-12.867l-85.316,35.604l-3.955-9.477    c-2.829-6.779-10.59-9.746-17.099-7.03l-6.426,2.682c-8.453-17.651-29.434-26.04-48.016-18.284    c-9.494,3.962-16.492,11.416-20.127,20.254l19.384,0.211c1.949-2.114,4.355-3.863,7.178-5.042    c10.046-4.195,21.26,0.177,26.118,9.315l-13.939,5.879c5.999,6.261,9.373,14.432,9.508,23.138    c0.292,18.828-14.736,34.48-33.71,34.771c-7.589,0.117-45.44,0.705-53.194,0.824c-7.759,6.556-10.752,17.618-6.632,27.491    c5.09,12.197,19.102,17.957,31.298,12.867l22.271-9.293l3.955,9.477c2.772,6.643,10.42,9.818,17.099,7.03l81.643-34.071    c6.681-2.789,9.802-10.459,7.03-17.1l-3.955-9.477l85.316-35.604C394.457,222.391,400.218,208.379,395.128,196.183z" fill="#6B7687"/>
	</g>
</g>
<g>
	<g>
		<path d="M504.878,11.576C504.878,5.182,499.695,0,493.302,0H266.423c-4.031,0-7.771,2.097-9.875,5.536    c-2.103,3.439-2.271,7.727-0.432,11.314c4.423,8.626,12.167,16.727,22.632,24.051c-0.007,0.294-0.022,0.585-0.022,0.881    c0,23.434,19.74,42.316,43.542,40.788c5.955,21.18,27.898,34.18,49.731,28.465l26.222,26.222    c5.867,5.867,9.163,13.824,9.163,22.12v12.235c0,2.385,1.713,4.425,4.061,4.84l23.422,4.133c1.63,0.288,3.007,1.377,3.661,2.898    c0.653,1.521,0.498,3.269-0.414,4.651l-28.117,42.564c-1.704,2.579-2.612,5.603-2.612,8.695v261.03    c0,6.393,5.182,11.576,11.576,11.576h51.689c6.393,0,11.576-5.182,11.576-11.576V159.378c0-8.297,3.296-16.254,9.163-22.12    l10.101-10.101c2.171-2.171,3.391-5.116,3.391-8.185V11.576H504.878z M466.924,127.029c-5.867,5.867-13.824,9.163-22.12,9.163    c-8.297,0-16.254-3.296-22.12-9.163l-29.527-29.527c2.217-2.684,4.089-5.661,5.569-8.856    c8.279,12.073,22.169,19.997,37.915,19.997c16.686,0,31.292-8.895,39.341-22.202c3.619,6.631,8.71,12.34,14.829,16.701    L466.924,127.029z" fill="#6B7687"/>
	</g>
</g>
<g>
</g>
<g>
</g>
<g>
</g>
<g>
</g>
<g>
</g>
<g>
</g>
<g>
</g>
<g>
</g>
<g>
</g>
<g>
</g>
<g>
</g>
<g>
</g>
<g>
</g>
<g>
</g>
<g>
</g>
</svg>
