<?xml version="1.0" encoding="iso-8859-1"?>
<!-- Generator: Adobe Illustrator 19.0.0, SVG Export Plug-In . SVG Version: 6.00 Build 0)  -->
<svg xmlns="http://www.w3.org/2000/svg" xmlns:xlink="http://www.w3.org/1999/xlink" version="1.1" id="Layer_1" x="0px" y="0px" viewBox="0 0 512 512" style="enable-background:new 0 0 512 512;" xml:space="preserve" width="512px" height="512px">
<g>
	<g>
		<path d="M512,295.913c0-9.237-6.972-16.842-15.94-17.849c5.629-7.053,5.18-17.361-1.35-23.892    c-6.531-6.531-16.839-6.979-23.892-1.35c-1.007-8.968-8.612-15.94-17.849-15.94c-9.237,0-16.842,6.972-17.849,15.94    c-7.053-5.629-17.361-5.182-23.892,1.35c-6.531,6.531-6.979,16.839-1.35,23.892c-8.967,1.007-15.94,8.612-15.94,17.849    c0,9.237,6.972,16.842,15.94,17.849c-5.629,7.053-5.182,17.361,1.35,23.892c3.152,3.152,7.185,4.873,11.305,5.192    c-2.635,12.025-5.978,30.95-8.53,57.754l-19.653-16.378c-3.674-3.06-9.133-2.565-12.198,1.109    c-3.062,3.675-2.565,9.134,1.108,12.197l29.032,24.194c-0.185,2.744-0.361,5.558-0.525,8.432h-48.394    c-6.377,0-11.547,5.169-11.547,11.547c0,6.378,5.17,11.547,11.547,11.547h112.696c6.377,0,11.547-5.169,11.547-11.547    c0-6.378-5.17-11.547-11.547-11.547h-46.95c2.346-39.703,6.725-66.399,9.979-81.785c3.294,4.009,8.278,6.575,13.871,6.575    c9.237,0,16.842-6.972,17.849-15.94c7.053,5.629,17.361,5.18,23.892-1.35c6.531-6.531,6.979-16.839,1.35-23.892    C505.028,312.755,512,305.15,512,295.913z M452.969,319.012c-12.757,0-23.099-10.342-23.099-23.099    c0-12.757,10.342-23.099,23.099-23.099c12.757,0,23.099,10.342,23.099,23.099C476.067,308.67,465.726,319.012,452.969,319.012z" fill="#6B7687"/>
	</g>
</g>
<g>
	<g>
		<circle cx="360.847" cy="115.651" r="56.901" fill="#6B7687"/>
	</g>
</g>
<g>
	<g>
		<path d="M352.342,327.379l-87.811-50.442l8.961-80.116l10.875,69.605l30.427-34.845c13.879-16.062,12.108-40.334-3.954-54.212    l-49.488-42.76c-16.943-14.64-42.811-11.747-56.093,6.311L101.945,280.873c-15.498,20.994-12.632,50.337,6.686,67.878    c14.654,13.305,30.665,27.733,46.709,42.065l-124.193-0.858c-0.073,0-0.146-0.001-0.218-0.001    c-16.983,0-30.811,13.709-30.929,30.72c-0.118,17.085,13.636,31.029,30.72,31.147l206.101,1.422c0.072,0,0.144,0.001,0.216,0.001    c28.33-0.001,41.74-35.124,20.606-54.003l-49.505-44.223l11.578-13.4c-10.845-6.23-8.442-4.85-19.128-10.988    c-16.113-9.256-22.58-28.847-15.861-45.614l37.529-93.929l-10.839,96.915c-1.141,10.201,3.878,20.106,12.778,25.218    l102.468,58.861c12.348,7.094,28.103,2.828,35.191-9.512C368.945,350.226,364.687,334.47,352.342,327.379z" fill="#6B7687"/>
	</g>
</g>
<g>
</g>
<g>
</g>
<g>
</g>
<g>
</g>
<g>
</g>
<g>
</g>
<g>
</g>
<g>
</g>
<g>
</g>
<g>
</g>
<g>
</g>
<g>
</g>
<g>
</g>
<g>
</g>
<g>
</g>
</svg>
