<?xml version="1.0" encoding="iso-8859-1"?>
<!-- Generator: Adobe Illustrator 19.0.0, SVG Export Plug-In . SVG Version: 6.00 Build 0)  -->
<svg xmlns="http://www.w3.org/2000/svg" xmlns:xlink="http://www.w3.org/1999/xlink" version="1.1" id="Layer_1" x="0px" y="0px" viewBox="0 0 511.993 511.993" style="enable-background:new 0 0 511.993 511.993;" xml:space="preserve" width="512px" height="512px">
<g>
	<g>
		<path d="M348.825,366.465c-1.187-5.567-6.944-8.85-12.324-7.058l-20.288,6.762l-9.415-28.252    c-1.698-5.099-7.221-7.866-12.323-6.163l-2.258,0.752l-31.792-95.4c13.87-9.537,20.833-27.642,15.043-45.015    c-0.922-2.768-2.907-5.056-5.517-6.36c-1.557-0.779-3.26-1.16-4.969-1.152c-0.971,13.749-8.685,26.495-21.126,33.571    c-8.042,4.574-12.542,4.679-38.019,9.39c7.637,10.715,20.227,17.058,33.714,16.522l31.793,95.401l-2.258,0.752    c-5.105,1.701-7.865,7.219-6.164,12.324l9.415,28.252l-2.826,0.942c-1.207-2.525-2.823-4.902-4.901-7.003l-86.568-87.51    c-3.364-3.4-7.609-5.796-12.258-6.916c0,0-94.551-19.062-106.682-21.331c8.37-0.373,67.492-3.01,76.179-3.398h0.002l2.839-16.075    c-10.967,1.096-28.186-6.431-34.16-16.809c-4.912-8.534-38.594-67.057-43.082-74.856l60.916,64.592    c4.98,5.138,12.249,7.465,19.293,6.158c0.001,0,0.003,0,0.004,0l85.893-15.882c12.361-2.29,20.205-14.735,16.688-27.004    c-2.999-10.46-13.585-17.168-24.499-15.147l-72.902,13.51L89.54,115.524l63.693,38.776l2.346-13.645    c2.882-16.321-8.011-31.888-24.333-34.771l-52.7-9.307c-16.322-2.882-31.889,8.011-34.771,24.333    c-0.18,1.021-26.694,151.147-26.958,152.641l0.032-0.018c-1.778,12.93,6.501,25.355,19.459,28.478l110.307,26.589l81.423,82.308    c7.063,7.141,17.684,9.605,27.358,5.963c5.485,8.639,12.021,17.174,19.005,24.849c11.044-10.975,25.561-18.461,41.749-20.604    c8.311-14.584,20.721-26.221,35.443-33.648C351.135,380.109,350.216,372.99,348.825,366.465z" fill="#6B7687"/>
	</g>
</g>
<g>
	<g>
		<path d="M495.012,499.53c-5.395-19.032-22.775-32.423-42.486-32.879c1.995-35.949-26.731-66.275-62.706-66.275    c-27.192,0-50.805,17.306-59.378,42.321c-34.078-3.139-61.76,27.806-54.444,61.516c0.964,4.444,4.895,7.613,9.443,7.613h200.276    C492.127,511.827,496.758,505.69,495.012,499.53z" fill="#6B7687"/>
	</g>
</g>
<g>
	<g>
		<path d="M130.641,392.044l-6.216-48.838l-53.578-13.512l8.07,63.4L52.98,478.816c-4.114,13.597,3.573,27.954,17.17,32.068    c2.483,0.751,4.991,1.11,7.458,1.11c11.04-0.001,21.247-7.166,24.61-18.279l27.527-90.974    C130.793,399.278,131.098,395.633,130.641,392.044z" fill="#6B7687"/>
	</g>
</g>
<g>
	<g>
		<circle cx="115.167" cy="44.423" r="44.423" fill="#6B7687"/>
	</g>
</g>
<g>
</g>
<g>
</g>
<g>
</g>
<g>
</g>
<g>
</g>
<g>
</g>
<g>
</g>
<g>
</g>
<g>
</g>
<g>
</g>
<g>
</g>
<g>
</g>
<g>
</g>
<g>
</g>
<g>
</g>
</svg>
