<?xml version="1.0" encoding="iso-8859-1"?>
<!-- Generator: Adobe Illustrator 19.0.0, SVG Export Plug-In . SVG Version: 6.00 Build 0)  -->
<svg xmlns="http://www.w3.org/2000/svg" xmlns:xlink="http://www.w3.org/1999/xlink" version="1.1" id="Layer_1" x="0px" y="0px" viewBox="0 0 511.999 511.999" style="enable-background:new 0 0 511.999 511.999;" xml:space="preserve" width="512px" height="512px">
<g>
	<g>
		<path d="M131.732,439.666l-15.556,37.757c-5.267,12.783,0.827,27.415,13.61,32.682c12.786,5.268,27.416-0.83,32.682-13.61    l35.173-85.37C174.708,418.119,152.546,427.728,131.732,439.666z" fill="#6B7687"/>
	</g>
</g>
<g>
	<g>
		<path d="M278.796,365.575c-14.564,19.651-35.361,33.601-59.109,39.63l-16.214,76.569c-2.864,13.526,5.779,26.812,19.304,29.677    c13.524,2.865,26.811-5.778,29.677-19.304C280.355,360.394,278.721,369.047,278.796,365.575z" fill="#6B7687"/>
	</g>
</g>
<g>
	<g>
		<path d="M457.924,212.6c-1.169-6.239-6.851-11.62-16.056-9.894l-53.546,5.22c-2.138-5.895-8.258-9.254-14.244-8.132    c-6.762,1.269-11.436,7.835-10.128,14.805l0.493,2.627l-19.091,3.58c3.955,7.676,5.15,16.505,3.124,25.225l20.642-3.87    l0.469,2.498c1.309,6.982,8.034,11.398,14.805,10.129c6.127-1.149,10.434-6.555,10.333-12.663l55.014-15.076l-0.032-0.171    C455.49,224.823,459.091,218.824,457.924,212.6z" fill="#6B7687"/>
	</g>
</g>
<g>
	<g>
		<path d="M286.941,270.974l-25.69-4.113c-2.795,8.287-3.774,17.321-2.503,26.558c4.655,33.849-16.923,65.24-50.193,73.02    c-56.596,13.234-105.151,38.538-150.069,75.471c-5.411,4.449-6.19,12.442-1.741,17.853c4.451,5.413,12.445,6.189,17.853,1.741    c41.52-34.134,86.419-57.898,139.733-70.365c22.163-5.182,41.47-18.367,54.363-37.124c12.894-18.758,18.286-41.506,15.185-64.055    C282.952,283.219,284.141,276.665,286.941,270.974z" fill="#6B7687"/>
	</g>
</g>
<g>
	<g>
		<circle cx="207.597" cy="45.418" r="45.418" fill="#6B7687"/>
	</g>
</g>
<g>
	<g>
		<path d="M315.978,216.027l-74.851-11.99l-24.681-54.146l32.716,40.221l16.238,2.601v-57.595c0-16.945-13.737-30.681-30.682-30.681    h-54.715c-16.945,0-30.682,13.737-30.682,30.681v157.663l9.094,73.343c25.763-9.742,44.774-13.688,48.623-14.74l-5.124-41.324    h19.443l4.168,31.914c13.496-10.839,20.921-28.209,18.403-46.517c-1.475-10.727-0.545-21.239,2.376-30.991l-26.087-4.179    c-16.989-2.722-27.251-16.538-28.829-24.44l-12.524-62.732l27.254,59.791c2.975,6.527,9.065,11.362,16.475,12.55l86.454,13.848    c11.909,1.908,23.184-6.184,25.105-18.173C336.066,229.182,327.929,217.942,315.978,216.027z" fill="#6B7687"/>
	</g>
</g>
<g>
</g>
<g>
</g>
<g>
</g>
<g>
</g>
<g>
</g>
<g>
</g>
<g>
</g>
<g>
</g>
<g>
</g>
<g>
</g>
<g>
</g>
<g>
</g>
<g>
</g>
<g>
</g>
<g>
</g>
</svg>
