<?xml version="1.0" encoding="iso-8859-1"?>
<!-- Generator: Adobe Illustrator 19.0.0, SVG Export Plug-In . SVG Version: 6.00 Build 0)  -->
<svg xmlns="http://www.w3.org/2000/svg" xmlns:xlink="http://www.w3.org/1999/xlink" version="1.1" id="Layer_1" x="0px" y="0px" viewBox="0 0 512.004 512.004" style="enable-background:new 0 0 512.004 512.004;" xml:space="preserve" width="512px" height="512px">
<g>
	<g>
		<polygon points="274.972,149.302 283.092,176.3 300.751,177.215 300.751,149.302   " fill="#6B7687"/>
	</g>
</g>
<g>
	<g>
		<path d="M278.865,71.069l-22.839-18.524c-4.032-3.27-9.357-4.064-13.814-2.724l-15.926,4.79l-2.154-7.161    c-2.199-7.31-9.908-11.451-17.217-9.255c-7.311,2.2-11.454,9.907-9.255,17.218l2.154,7.161l-10.953,3.294    c-3.486,1.049-5.463,4.725-4.414,8.212l8.07,26.83c1.049,3.487,4.725,5.463,8.212,4.414l10.953-3.294l22.553,74.981    c9.031-3.507,14.902-2.472,28.332-1.775l-24.413-81.167c23.021-6.924,14.72-4.428,38.458-11.567    C281.67,80.98,282.969,74.399,278.865,71.069z" fill="#6B7687"/>
	</g>
</g>
<g>
	<g>
		<path d="M466.561,477.425l-43.075-104.551l9.93-80.093V135.12c0-16.946-13.736-30.681-30.681-30.681H348.02    c-16.945,0-30.681,13.736-30.681,30.681v44.06l42.567-33.485l-35.456,47.789l-75.703-3.924    c-12.086-0.626-22.394,8.747-23.02,20.747c0,0.001,0,0.002,0,0.004c-0.626,12.069,8.654,22.394,20.751,23.02l87.438,4.532    c7.16,0.372,14.291-2.842,18.735-8.827l39.152-52.772l-25.363,58.727c-2.906,6.729-15.553,18.792-33.301,17.872    c-12.217-0.633-9.819-0.509-15.799-0.819v10.512c-0.691,2.523,0.389-4.859-13.206,99.237c-0.366,2.807-0.254,5.658,0.332,8.428    l25.821,121.926c2.865,13.526,16.153,22.169,29.676,19.304c13.526-2.865,22.168-16.15,19.304-29.676l-24.935-117.741    c4.761-36.451,4.914-37.625,7.049-53.971h19.443c-0.863,6.957-6.996,56.431-7.833,63.183c-0.532,4.282,0.054,8.627,1.697,12.615    l45.582,110.636c5.268,12.786,19.9,18.876,32.682,13.611C465.736,504.84,471.827,490.207,466.561,477.425z" fill="#6B7687"/>
	</g>
</g>
<g>
	<g>
		<path d="M375.138,0c-25.084,0-45.419,20.335-45.419,45.419c0,25.17,20.454,45.42,45.419,45.42    c24.964,0,45.419-20.249,45.419-45.419C420.557,20.335,400.222,0,375.138,0z" fill="#6B7687"/>
	</g>
</g>
<g>
	<g>
		<path d="M154.315,115.061c-1.433-4.351-6.123-6.716-10.47-5.284l-26.079,8.587V12.872c0-6.34-5.14-11.48-11.479-11.48H55.028    c-6.34,0-11.48,5.14-11.48,11.48v487.65c0,6.34,5.14,11.48,11.48,11.48h51.259c6.34,0,11.479-5.14,11.479-11.48V135.828    l31.265-10.295C153.382,124.099,155.747,119.412,154.315,115.061z" fill="#6B7687"/>
	</g>
</g>
<g>
</g>
<g>
</g>
<g>
</g>
<g>
</g>
<g>
</g>
<g>
</g>
<g>
</g>
<g>
</g>
<g>
</g>
<g>
</g>
<g>
</g>
<g>
</g>
<g>
</g>
<g>
</g>
<g>
</g>
</svg>
