<?xml version="1.0" encoding="iso-8859-1"?>
<!-- Generator: Adobe Illustrator 19.0.0, SVG Export Plug-In . SVG Version: 6.00 Build 0)  -->
<svg xmlns="http://www.w3.org/2000/svg" xmlns:xlink="http://www.w3.org/1999/xlink" version="1.1" id="Layer_1" x="0px" y="0px" viewBox="0 0 511.999 511.999" style="enable-background:new 0 0 511.999 511.999;" xml:space="preserve" width="512px" height="512px">
<g>
	<g>
		<path d="M387.77,168.927h-34.811l9.193-7.661c2.675,1.28,5.757,1.954,9.148,1.954c7.224,0,15.049-3.156,19.934-8.042    c15.997-15.997,12.99-37.693,12.854-38.61c-0.406-2.732-2.549-4.877-5.282-5.281c-0.747-0.111-22.549-3.207-38.61,12.854    c-6.809,6.809-10.109,18.9-6.579,27.917l-11.424,9.52c2.947-53.488,10.759-77.113,10.911-77.564    c1.127-3.271-0.608-6.836-3.878-7.967c-3.269-1.129-6.842,0.603-7.974,3.876c-0.31,0.896-6.168,18.273-9.826,57.19l-10.286-8.571    c3.53-9.017,0.229-21.107-6.579-27.917c-16.06-16.06-37.862-12.965-38.61-12.853c-2.732,0.405-4.877,2.549-5.282,5.281    c-0.136,0.916-3.143,22.612,12.854,38.609c4.884,4.886,12.709,8.042,19.934,8.042c3.392,0,6.474-0.673,9.149-1.954l17.59,14.658    c-0.352,5.198-0.66,10.701-0.912,16.518h-45.655c-3.462,0-6.269,2.807-6.269,6.269V195.7c14.1,2.258,20.24,3.242,34.315,5.497    c20.084,3.217,33.852,22.182,30.628,42.311c-1.293,8.071-5.467,16.094-12.143,21.944h30.737c2.781,0,5.229-1.833,6.015-4.501    l15.474-52.61h5.388c3.462,0,6.269-2.807,6.269-6.269v-26.875C394.04,171.735,391.234,168.927,387.77,168.927z" fill="#6B7687"/>
	</g>
</g>
<g>
	<g>
		<circle cx="200.913" cy="45.418" r="45.418" fill="#6B7687"/>
	</g>
</g>
<g>
	<g>
		<path d="M309.298,216.028l-74.851-11.99l-24.681-54.146l32.717,40.222l16.238,2.601v-57.595c0-16.945-13.737-30.682-30.682-30.682    h-54.715c-16.945,0-30.682,13.737-30.682,30.682v151.536l9.929,86.217l-43.075,104.55c-5.267,12.783,0.827,27.415,13.61,32.682    c12.786,5.268,27.416-0.83,32.682-13.61l45.582-110.636c1.644-3.989,2.228-8.335,1.697-12.616l-7.833-63.183h19.443l7.048,53.971    l-24.935,117.74c-2.864,13.525,5.778,26.812,19.303,29.677c13.527,2.864,26.813-5.78,29.677-19.303l25.822-121.926    c0.587-2.771,0.699-5.62,0.332-8.428l-12.292-94.12l-46.097-7.384c-17.64-2.825-27.383-17.202-28.829-24.44l-12.524-62.732    l27.254,59.792c3.039,6.663,9.212,11.386,16.475,12.55l86.454,13.848c11.891,1.906,23.182-6.165,25.105-18.173    C329.385,229.182,321.249,217.942,309.298,216.028z" fill="#6B7687"/>
	</g>
</g>
<g>
</g>
<g>
</g>
<g>
</g>
<g>
</g>
<g>
</g>
<g>
</g>
<g>
</g>
<g>
</g>
<g>
</g>
<g>
</g>
<g>
</g>
<g>
</g>
<g>
</g>
<g>
</g>
<g>
</g>
</svg>
