<?xml version="1.0" encoding="iso-8859-1"?>
<!-- Generator: Adobe Illustrator 19.0.0, SVG Export Plug-In . SVG Version: 6.00 Build 0)  -->
<svg xmlns="http://www.w3.org/2000/svg" xmlns:xlink="http://www.w3.org/1999/xlink" version="1.1" id="Layer_1" x="0px" y="0px" viewBox="0 0 512 512" style="enable-background:new 0 0 512 512;" xml:space="preserve" width="512px" height="512px">
<g>
	<g>
		<path d="M453.671,67.927c-2.979-5.157-9.574-6.923-14.729-3.946l-55.359,31.962l41.089-48.967    c3.827-4.562,3.233-11.363-1.329-15.19c-4.561-3.829-11.363-3.233-15.19,1.328l-41.09,48.969l21.863-60.068    c2.037-5.595-0.848-11.783-6.445-13.819c-5.593-2.036-11.783,0.848-13.819,6.445l-21.863,60.068V10.782    C346.799,4.827,341.972,0,336.018,0s-10.782,4.827-10.782,10.782v63.925l-21.863-60.068c-2.036-5.596-8.227-8.482-13.819-6.445    c-5.595,2.036-8.481,8.224-6.445,13.819l21.864,60.069l-41.09-48.969c-3.829-4.562-10.631-5.156-15.19-1.329    c-4.562,3.829-5.157,10.63-1.329,15.191l41.087,48.967l-55.358-31.961c-5.156-2.979-11.751-1.21-14.729,3.946    c-2.977,5.157-1.21,11.752,3.947,14.729l100.229,57.868v26.359l-49.716,8.964l-32.649-41.878    c-9.141-11.727-22.911-18.453-37.781-18.453c-10.426,0-86.079,0-98.744,0c-25.266,0-45.924,20.555-46.05,45.819l-0.719,142.961    c-0.054,10.747,8.614,19.503,19.362,19.557c0.034,0,0.067,0,0.099,0c10.701,0,19.403-8.647,19.457-19.361L96.52,161.53    c0.01-2.247,1.836-4.06,4.082-4.055c2.245,0.006,4.062,1.827,4.062,4.073c-0.01,187.175-0.424,23.665-0.424,327.1    c0,12.896,10.454,23.351,23.351,23.351s23.351-10.454,23.351-23.351V302h10.081v186.649c0,12.896,10.454,23.351,23.351,23.351    s23.351-10.454,23.351-23.351l0.009-332.444c1.454,1.081-1.483-2.452,41.625,52.843c4.366,5.601,11.552,8.491,18.8,7.187    l54.381-9.805v238.866c0,7.444,6.035,13.478,13.478,13.478s13.478-6.033,13.478-13.478V201.568l4.621-0.834    c10.576-1.906,17.604-12.028,15.698-22.604c-1.769-9.812-10.605-16.56-20.319-15.961v-21.647l100.229-57.868    C454.881,79.678,456.648,73.084,453.671,67.927z" fill="#6B7687"/>
	</g>
</g>
<g>
	<g>
		<circle cx="155.723" cy="57.596" r="40.331" fill="#6B7687"/>
	</g>
</g>
<g>
</g>
<g>
</g>
<g>
</g>
<g>
</g>
<g>
</g>
<g>
</g>
<g>
</g>
<g>
</g>
<g>
</g>
<g>
</g>
<g>
</g>
<g>
</g>
<g>
</g>
<g>
</g>
<g>
</g>
</svg>
