<?xml version="1.0" encoding="iso-8859-1"?>
<!-- Generator: Adobe Illustrator 19.0.0, SVG Export Plug-In . SVG Version: 6.00 Build 0)  -->
<svg xmlns="http://www.w3.org/2000/svg" xmlns:xlink="http://www.w3.org/1999/xlink" version="1.1" id="Layer_1" x="0px" y="0px" viewBox="0 0 513.022 513.022" style="enable-background:new 0 0 513.022 513.022;" xml:space="preserve" width="512px" height="512px">
<g>
	<g>
		<path d="M339.74,304.867c0,0-9.182-0.678-17.217-17.513l-4.615-9.347c-4.536,4.006-10.487,6.444-17,6.444    c-14.18,0-25.717-11.537-25.717-25.717c0-1.873,0.006-6.033,4.194-15.122h-44.973l64.798-69.456    c5.753-6.167,5.418-15.829-0.749-21.583c-6.166-5.752-15.829-5.417-21.582,0.749l-66.57,71.357l-46.136-82.383    c-4.549-8.121-13.156-13.166-22.463-13.166H0v28.683h23.76v85.801H0v0.248c0,16.956,0,30.615,0,47.293    c39.452,0.013,71.545,32.114,71.545,71.569H182.06c0-39.462,32.106-71.569,71.568-71.569c39.462,0,71.569,32.106,71.569,71.569    h4.617c16.445,0,29.778-13.331,29.778-29.778C359.592,319.979,351.304,308.956,339.74,304.867z M98.894,293.324H68.158    c-6.499,0-11.767-5.269-11.767-11.768c0-6.505,5.29-11.768,11.767-11.768h30.736c6.478,0,11.767,5.263,11.767,11.768    C110.66,288.055,105.393,293.324,98.894,293.324z M54.301,243.612v-85.8h85.688l48.048,85.8H54.301z" fill="#6B7687"/>
	</g>
</g>
<g>
	<g>
		<path d="M300.908,240.732c-1.975,3.308-8.083,14.155-8.083,18.002c0,4.464,3.618,8.083,8.083,8.083    c4.105,0,7.487-3.063,8.006-7.026C309.477,255.486,303.123,244.442,300.908,240.732z" fill="#6B7687"/>
	</g>
</g>
<g>
	<g>
		<path d="M0,317.303v27.023c10.149,0.013,18.373,8.243,18.373,18.396S10.149,381.104,0,381.118v27.023    c25.073-0.013,45.395-20.343,45.395-45.418C45.395,337.645,25.073,317.315,0,317.303z" fill="#6B7687"/>
	</g>
</g>
<g>
	<g>
		<path d="M253.629,317.301c-25.085,0-45.419,20.335-45.419,45.418c0,25.085,20.335,45.419,45.419,45.419    c25.085,0,45.418-20.335,45.418-45.419C299.047,337.637,278.714,317.301,253.629,317.301z M253.629,381.118    c-10.16,0-18.398-8.237-18.398-18.398c0-10.16,8.237-18.398,18.398-18.398c10.16,0,18.398,8.238,18.398,18.398    C272.027,372.881,263.789,381.118,253.629,381.118z" fill="#6B7687"/>
	</g>
</g>
<g>
	<g>
		<path d="M512.157,387.369l-19.592-55.316l-0.075-27.162l-29.322,33.956c0.079,0.273,0.155,0.548,0.251,0.816l20.445,57.727    c2.767,7.813,11.342,11.903,19.157,9.136C510.834,403.759,514.924,395.183,512.157,387.369z" fill="#6B7687"/>
	</g>
</g>
<g>
	<g>
		<circle cx="443.84" cy="130.801" r="25.919" fill="#6B7687"/>
	</g>
</g>
<g>
	<g>
		<path d="M503.754,247.563l-16.445-73.892c-2.074-9.445-11.412-15.42-20.857-13.346l-30.497,6.698    c-9.445,2.074-15.42,11.412-13.346,20.857l0.028,0.128l0.81,4.649l24.278-19.449l-30.432,40.752l-43.233-1.522    c-0.01-0.003-0.436-0.008-0.449-0.008c-6.682,0-12.252,5.332-12.49,12.066c-0.239,6.764,5.026,12.686,12.058,12.938l50.935,1.774    c4.057,0.148,8.159-1.801,10.606-5.214c0,0,36.091-52.349,36.458-53.868c0.45,2.836-17.017,49.592-21.069,59.912    c-2.092,5.328-7.654,10.321-13.206,12.933c4.143,18.866,4.153,18.909,4.975,22.652l27.95-19.805l-49.137,59.315    c-1.574,1.824-2.688,4-3.244,6.345l-16.854,67.518c-1.912,8.065,3.075,16.152,11.14,18.065c8.039,1.908,16.146-3.052,18.065-11.14    l16.007-63.949l52.482-62.178C503.481,263.645,505.503,255.421,503.754,247.563z" fill="#6B7687"/>
	</g>
</g>
<g>
	<g>
		<path d="M395.752,254.764l-23.155-0.806c-16.09-0.568-28.56-14.094-27.999-30.043c0.348-9.907,5.612-18.717,13.776-23.732    c-1.815,0.16-3.631,0.636-5.361,1.491l-29.117,14.375c-1.252,0.618-2.369,1.398-3.364,2.285l-19.453,1.687    c-1.284,0.112-2.156,1.363-1.81,2.608l2.035,7.335c0.224,0.81,0.919,1.403,1.755,1.498l12.761,1.454    c0.258,1.167,0.642,2.323,1.194,3.442l21.323,43.188c3.701,7.496,12.81,10.586,20.309,6.884l29.117-14.376    C394.277,268.839,397.456,261.541,395.752,254.764z" fill="#6B7687"/>
	</g>
</g>
<g>
</g>
<g>
</g>
<g>
</g>
<g>
</g>
<g>
</g>
<g>
</g>
<g>
</g>
<g>
</g>
<g>
</g>
<g>
</g>
<g>
</g>
<g>
</g>
<g>
</g>
<g>
</g>
<g>
</g>
</svg>
