<?xml version="1.0" encoding="iso-8859-1"?>
<!DOCTYPE svg PUBLIC "-//W3C//DTD SVG 1.1//EN" "http://www.w3.org/Graphics/SVG/1.1/DTD/svg11.dtd">
<svg xmlns="http://www.w3.org/2000/svg" xmlns:xlink="http://www.w3.org/1999/xlink" version="1.1" viewBox="0 0 317.879 317.879" enable-background="new 0 0 317.879 317.879" width="512px" height="512px">
  <g>
    <path d="m267.055,42.501c-2.483-3.983-7.728-5.197-11.71-2.714l-46,28.692c-2.489,1.553-4.002,4.278-4.002,7.212v29.892l-26.075,8.155-2.889-22.005c-0.424-12.152-8.245-22.47-19.068-26.604-0.493,10.816-9.421,19.47-20.356,19.47h-48.569c-10.797,0-19.639-8.437-20.336-19.061-10.546,4.49-17.994,14.939-18.055,27.085l-.461,91.833c-0.034,6.903 5.534,12.527 12.438,12.563 0.021,0 0.042,0 0.063,0 6.874,0 12.464-5.556 12.499-12.438l.461-91.833c0.007-1.368 1.119-2.471 2.487-2.468 1.367,0.004 2.473,1.113 2.473,2.48l.006,210.117c0,8.284 6.716,15 15,15s15-6.716 15-15c0-19.932 0-99.107 0-116.534 0-1.857 1.505-3.363 3.363-3.363 1.719,0 3.113,1.393 3.113,3.113 0,16.906 0,96.766 0,116.784 0,8.284 6.716,15 15,15s15-6.716 15-15l-.266-209.916c-0.002-1.373 1.058-2.513 2.427-2.612s2.584,0.877 2.777,2.236c0.008,0.054 0.015,0.108 0.021,0.162 0.252,2.106 5.02,38.983 5.02,38.983 0.48,3.659 2.553,6.919 5.663,8.906 3.065,1.959 6.885,2.513 10.461,1.397l32.803-10.258v17.555c0,4.694 3.806,8.5 8.5,8.5 4.694,0 8.5-3.806 8.5-8.5v-22.872l1.038-.325c6.589-2.061 10.261-9.072 8.2-15.661-1.386-4.429-5.012-7.529-9.238-8.466v-21.598l41.998-26.196c3.984-2.485 5.199-7.728 2.714-11.711z" fill="#6B7687"/>
    <path d="m88.386,72.601h48.569c4.641,0 8.404-3.763 8.404-8.404v-55.793c0-4.641-3.762-8.404-8.404-8.404h-48.569c-4.641,0-8.404,3.763-8.404,8.404v55.793c0.001,4.641 3.763,8.404 8.404,8.404zm6.907-51.176c0-2.352 1.907-4.259 4.259-4.259h26.238c2.352,0 4.258,1.907 4.258,4.259v10.616c0,2.352-1.907,4.259-4.258,4.259h-26.238c-2.352,0-4.259-1.907-4.259-4.259v-10.616z" fill="#6B7687"/>
  </g>
</svg>
