<?xml version="1.0" encoding="iso-8859-1"?>
<!DOCTYPE svg PUBLIC "-//W3C//DTD SVG 1.1//EN" "http://www.w3.org/Graphics/SVG/1.1/DTD/svg11.dtd">
<svg xmlns="http://www.w3.org/2000/svg" xmlns:xlink="http://www.w3.org/1999/xlink" version="1.1" viewBox="0 0 314.759 314.759" enable-background="new 0 0 314.759 314.759" width="512px" height="512px">
  <g>
    <circle cx="157.516" cy="25.907" r="25.907" fill="#6B7687"/>
    <path d="m259.409,123.497l1.823-.661c6.49-2.354 9.843-9.522 7.489-16.013-2.354-6.489-9.522-9.849-16.013-7.489l-1.768,.641-6.165-17.126c-0.764-2.121-2.338-3.853-4.378-4.813-2.041-0.959-4.379-1.07-6.498-0.306-4.665,1.68-9.376,3.199-14.122,4.56-3.29-12.753-14.902-22.221-28.643-22.221h-33.607c-0.05,0-0.099,0.007-0.149,0.007-0.05-0.001-0.099-0.007-0.149-0.007h-33.607c-13.712,0-25.304,9.429-28.622,22.141-4.653-1.341-9.271-2.833-13.845-4.48-2.118-0.765-4.457-0.653-6.498,0.306-2.04,0.96-3.614,2.691-4.378,4.813l-6.2,17.221-2.031-.737c-6.49-2.354-13.659,0.999-16.013,7.489-2.354,6.49 0.999,13.659 7.489,16.013l2.086,.757-7.4,20.554c-0.764,2.121-0.654,4.458 0.306,6.498 0.96,2.04 2.691,3.614 4.813,4.378 23.03,8.292 46.861,13.739 70.943,16.347l.006,128.39c0,8.284 6.716,15 15,15 8.284,0 15-6.716 15-15v-116.659c0-1.788 1.45-3.238 3.238-3.238 1.788,0 3.238,1.45 3.238,3.238v116.659c0,8.284 6.716,15 15,15 8.284,0 15-6.716 15-15l-.272-128.356c24.184-2.595 48.117-8.055 71.241-16.38 2.121-0.764 3.852-2.338 4.813-4.378 0.96-2.04 1.069-4.377 0.306-6.498l-7.433-20.65zm-192.28,18.292l16.318-45.325c48.084,15.418 100.078,15.418 148.162,0l16.318,45.325c-58.614,19.172-122.183,19.172-180.798,0z" fill="#6B7687"/>
  </g>
</svg>
