<?xml version="1.0" encoding="iso-8859-1"?>
<!DOCTYPE svg PUBLIC "-//W3C//DTD SVG 1.1//EN" "http://www.w3.org/Graphics/SVG/1.1/DTD/svg11.dtd">
<svg xmlns="http://www.w3.org/2000/svg" xmlns:xlink="http://www.w3.org/1999/xlink" version="1.1" viewBox="0 0 317.836 317.836" enable-background="new 0 0 317.836 317.836" width="512px" height="512px">
  <g>
    <circle cx="116.328" cy="28.984" r="25.906" fill="#6B7687"/>
    <path d="m262.943,52.492c2.971-5.147 2.971-11.543-0.001-16.69l-15.851-27.453c-2.971-5.15-8.511-8.349-14.457-8.349h-31.702c-5.946,0-11.485,3.199-14.456,8.347l-15.851,27.453c-2.974,5.148-2.974,11.545-0.001,16.694l15.852,27.455c2.972,5.147 8.511,8.346 14.456,8.346h7.351v17.306l-25.883,8.095c0,0-2.43-16.475-2.889-22.004-1.308-15.775-13.632-28.543-29.564-28.543h-67.239c-16.23,0-29.5,13.204-29.581,29.434l-.462,91.832c-0.034,6.903 5.533,12.527 12.438,12.563 0.021,0 0.042,0 0.063,0 6.874,0 12.464-5.555 12.499-12.438l.462-91.832c0.007-1.368 1.119-2.472 2.487-2.468 1.367,0.004 2.473,1.113 2.473,2.48l.005,210.116c0,8.284 6.716,15 15,15 8.284,0 15-6.716 15-15v-116.658c0-1.788 1.45-3.238 3.238-3.238 1.788,0 3.238,1.45 3.238,3.238v116.658c0,8.284 6.716,15 15,15s15-6.716 15-15l-.266-209.809c-0.002-1.387 1.077-2.535 2.461-2.621 1.384-0.085 2.598,0.922 2.764,2.299v0.002c0.594,4.907 2.711,21.4 2.779,21.918 0.561,4.266 2.241,17.064 2.241,17.064 0.48,3.659 2.554,6.919 5.663,8.906 3.065,1.959 6.885,2.513 10.461,1.397l32.61-10.198v38.624c0,4.694 3.806,8.5 8.5,8.5 4.694,0 8.5-3.806 8.5-8.5v-43.94l1.23-.385c6.589-2.06 10.261-9.072 8.2-15.661-1.407-4.497-5.121-7.63-9.431-8.514v-13.623h7.352c5.945,0 11.484-3.198 14.456-8.346l15.855-27.457z" fill="#6B7687"/>
  </g>
</svg>
