<?xml version="1.0" encoding="iso-8859-1"?>
<!DOCTYPE svg PUBLIC "-//W3C//DTD SVG 1.1//EN" "http://www.w3.org/Graphics/SVG/1.1/DTD/svg11.dtd">
<svg xmlns="http://www.w3.org/2000/svg" xmlns:xlink="http://www.w3.org/1999/xlink" version="1.1" viewBox="0 0 314.848 314.848" enable-background="new 0 0 314.848 314.848" width="512px" height="512px">
  <g>
    <path d="m310.863,51.805c-5.204-9.119-15.09-15.094-27.123-16.39-11.188-1.211-23.395,1.579-34.373,7.843-2.835,1.618-5.509,3.427-8.001,5.393l3.598,20.229c3.338-4.19 7.757-7.964 12.827-10.857 6.918-3.946 14.333-5.88 20.885-5.88 7.797,0 14.371,2.739 17.422,8.086 5.613,9.841-2.442,25.456-17.593,34.1-2.576,1.469-5.263,2.674-7.978,3.608l-3.458,4.228 9.357,4.293c2.46,1.129 4.445,2.907 5.826,5.053 1.578-0.739 3.141-1.54 4.677-2.417 10.979-6.263 19.588-15.354 24.243-25.6 5.006-11.017 4.894-22.568-0.309-31.689z" fill="#6B7687"/>
    <path d="m281.428,127.512c-2.401,3.009-6.021,4.956-10.086,5.147l-9.616,.451 .742,2.362c10.957,4.824 18.569,15.292 18.569,27.407 0,16.676-14.418,30.243-32.14,30.243-13.621,0-25.281-8.018-29.953-19.297-2.451,2.071-5.596,3.268-8.879,3.268-1.788,0-3.535-0.343-5.192-1.02-0.1-0.041-0.192-0.091-0.29-0.134-5.927-2.578-9.196-8.797-8.002-15.109-10.886,4.534-21.92,3.725-26.904-2.888-5.367-7.121-2.205-19.719 7.111-29.498-0.822-4.389 0.574-8.946 3.658-12.134l-1.255-1.442c-0.739-0.849-1.283-1.723-1.62-2.599l-1.828-4.764-5.063-.627c-9.854-1.22-17.286-10.651-17.286-21.94 0-10.919 7.157-20.313 16.648-21.853l6.783-1.101 .346-6.863c0.686-13.625 10.021-24.299 21.253-24.299 5.816,0 11.093,2.852 14.94,7.463 1.751-5.14 6.452-8.901 12.12-9.266 0.294-0.019 0.589-0.028 0.88-0.028 0.437,0 0.869,0.023 1.297,0.063-7.03-9.307-17.525-15.232-29.236-15.232-18.386,0-33.896,14.578-37.503,34.18-14.352,5.359-24.527,20.169-24.527,36.936 0,16.708 9.803,31.172 23.849,36.69-11.777,15.317-13.755,33.789-4.142,46.545 6.319,8.385 16.262,12.59 27.319,12.59 6.003,0 12.334-1.242 18.593-3.727 6.272,19.154 24.916,33.085 46.884,33.085 27.096,0 49.14-21.193 49.14-47.243 0-14.063-6.433-26.704-16.61-35.366z" fill="#6B7687"/>
    <circle cx="89.662" cy="57.04" r="27.59" fill="#6B7687"/>
    <path d="m197.732,243.691h-21.056v-21.447h9.313c4.694,0 8.5-3.806 8.5-8.5 0-4.694-3.806-8.5-8.5-8.5h-35.624c-4.694,0-8.5,3.806-8.5,8.5 0,4.694 3.806,8.5 8.5,8.5h9.311v21.447h-21.056c-5.109,0-9.25,4.141-9.25,9.25v38.833c0,5.109 4.141,9.25 9.25,9.25h59.111c5.109,0 9.25-4.141 9.25-9.25v-38.833c0.001-5.109-4.141-9.25-9.249-9.25z" fill="#6B7687"/>
    <path d="m226.365,40.992c-0.037,0-0.075,0.001-0.113,0.004-0.88,0.057-1.578,0.766-1.62,1.647l-2.094,43.932c-0.104,2.191-1.295,4.187-3.173,5.32-1.041,0.628-2.217,0.945-3.397,0.945-0.95,0-1.902-0.206-2.788-0.621l-21.765-10.189c-0.236-0.111-0.486-0.164-0.734-0.164-0.548,0-1.082,0.26-1.415,0.732-0.484,0.685-0.409,1.618 0.179,2.216l18.208,18.511c1.392,1.415 2.07,3.383 1.846,5.355-0.224,1.972-1.327,3.738-3.001,4.804l-17.157,10.934c-0.686,0.437-0.976,1.293-0.696,2.058 0.253,0.69 0.908,1.137 1.626,1.137 0.078,0 0.156-0.005 0.234-0.016l17.812-2.421c0.296-0.04 0.592-0.06 0.887-0.06 1.848,0 3.628,0.78 4.884,2.173 1.456,1.615 2.02,3.845 1.507,5.958l-7.214,29.704c-0.202,0.833 0.235,1.689 1.029,2.013 0.214,0.087 0.436,0.129 0.655,0.129 0.595,0 1.169-0.308 1.489-0.846l15.727-26.396c1.114-1.87 3.082-3.068 5.255-3.199 0.133-0.008 0.264-0.012 0.396-0.012 2.03,0 3.956,0.939 5.205,2.557l14.783,19.143c0.338,0.437 0.85,0.674 1.372,0.674 0.272,0 0.546-0.064 0.801-0.197 0.744-0.388 1.103-1.255 0.852-2.056l-9.486-30.211c-0.203-0.645-0.094-1.347 0.293-1.901 0.387-0.554 1.009-0.897 1.684-0.929l22.341-1.049c0.799-0.038 1.468-0.616 1.62-1.401 0.152-0.785-0.252-1.572-0.978-1.905l-20.912-9.595c-0.613-0.281-1.062-0.831-1.214-1.489-0.152-0.658 0.009-1.349 0.436-1.871l24.571-30.043c0.545-0.666 0.518-1.631-0.063-2.267-0.339-0.371-0.807-0.564-1.28-0.564-0.337,0-0.676,0.098-0.972,0.299l-30.477,20.68c-0.533,0.362-1.154,0.546-1.779,0.546-0.417,0-0.836-0.082-1.231-0.249-0.989-0.417-1.699-1.307-1.887-2.364l-8.542-48.026c-0.147-0.832-0.87-1.43-1.704-1.43z" fill="#6B7687"/>
    <path d="m122.102,156.363l-41.878-10.764-13.639-39.186 21.061,28.704 7.338,1.886 6.382-16.714c3.672-9.616-1.147-20.388-10.764-24.06l-31.05-11.856c-9.616-3.672-20.388,1.147-24.06,10.764l-33.932,88.871-.01,.027c-2.839,5.746-1.758,12.9 3.142,17.535l34.026,32.192-35.282,42.708c-5.276,6.387-4.376,15.842 2.011,21.118 6.402,5.287 15.854,4.361 21.118-2.011l44.214-53.519c5.026-6.085 4.479-15.025-1.256-20.45l-9.08-8.593c-0.19-0.18-0.206-0.476-0.037-0.675 0.169-0.199 0.465-0.231 0.673-0.073l25.444,19.372-20.389,48.576c-3.206,7.639 0.387,16.431 8.025,19.637 7.657,3.212 16.437-0.403 19.637-8.025l24.883-59.283c2.646-6.304 0.694-13.599-4.744-17.74l-37.696-28.7 1.156-3.028-12.871-3.308c-10.774-2.769-16.999-12.239-17.641-18.37l-3.119-44.503 15.054,43.253c1.376,3.953 4.639,6.955 8.694,7.998l48.369,12.432h0.001c6.668,1.714 13.495-2.294 15.217-8.995 1.717-6.688-2.31-13.502-8.997-15.22zm-120.719,28.111l.001-.003" fill="#6B7687"/>
  </g>
</svg>
