<?xml version="1.0" encoding="iso-8859-1"?>
<!DOCTYPE svg PUBLIC "-//W3C//DTD SVG 1.1//EN" "http://www.w3.org/Graphics/SVG/1.1/DTD/svg11.dtd">
<svg xmlns="http://www.w3.org/2000/svg" xmlns:xlink="http://www.w3.org/1999/xlink" version="1.1" viewBox="0 0 316.455 316.455" enable-background="new 0 0 316.455 316.455" width="512px" height="512px">
  <g>
    <circle cx="88.384" cy="27.597" r="27.59" fill="#6B7687"/>
    <path d="m311.964,306.489l-20-114.392c-0.711-4.068-4.243-7.036-8.373-7.036h-95.463c-4.13,0-7.662,2.968-8.373,7.036l-20,114.392c-0.809,4.624 2.285,9.028 6.909,9.837 4.623,0.813 9.029-2.285 9.837-6.909l18.77-107.355h81.178l18.77,107.355c0.722,4.129 4.31,7.038 8.363,7.037 0.485,0 0.979-0.041 1.474-0.128 4.623-0.809 7.716-5.213 6.908-9.837z" fill="#6B7687"/>
    <path d="m220.859,168.394h30c0-8.271-6.729-15-15-15-8.271,0-15,6.729-15,15z" fill="#6B7687"/>
    <path d="m235.859,141.394c14.888,0 27,12.112 27,27h21.465c2.311,0 4.432-1.281 5.507-3.326l2.893-5.499c1.429-2.717 0.664-6.069-1.802-7.897l-5.382-3.988c-1.646-1.22-2.586-3.172-2.514-5.22l.237-6.694c0.109-3.068-2.035-5.756-5.05-6.333l-6.579-1.258c-2.013-0.385-3.707-1.736-4.53-3.612l-2.691-6.134c-1.233-2.811-4.331-4.303-7.298-3.514l-6.473,1.721c-1.98,0.527-4.093,0.045-5.649-1.289l-5.086-4.359c-2.33-1.997-5.769-1.997-8.1,0l-5.086,4.359c-1.556,1.334-3.668,1.816-5.649,1.289l-6.473-1.721c-2.966-0.789-6.065,0.703-7.298,3.514l-2.69,6.134c-0.823,1.877-2.517,3.228-4.53,3.612l-6.579,1.258c-3.015,0.577-5.159,3.265-5.05,6.333l.237,6.694c0.073,2.048-0.868,4-2.514,5.22l-5.006,3.71h-42.052c-0.134,2.173-0.554,4.363-1.302,6.518-1.442,4.158-3.941,7.73-7.121,10.482 19.414,0 69.895,0 78.161,0 0.004-14.887 12.117-27 27.004-27z" fill="#6B7687"/>
    <path d="m142.036,211.309c3.963,2.619 9.298,1.529 11.917-2.434l9.619-14.555c1.38-2.094 1.324-4.928-0.339-6.981-2.055-2.536-5.778-2.927-8.315-0.871l-13.555,10.984c-0.654,0.535-1.271,1.199-1.761,1.94-2.618,3.963-1.529,9.298 2.434,11.917z" fill="#6B7687"/>
    <path d="m158.3,228.108c-2.826-1.634-6.442-0.668-8.076,2.159l-8.732,15.104c-0.419,0.733-0.758,1.574-0.951,2.442-1.029,4.637 1.896,9.23 6.533,10.259 4.637,1.029 9.23-1.896 10.259-6.533l3.779-17.032c0.541-2.45-0.525-5.077-2.812-6.399z" fill="#6B7687"/>
    <path d="m132.999,272.238c-0.183-2.501-1.957-4.713-4.526-5.325-3.176-0.757-6.364,1.205-7.12,4.381l-4.042,16.972c-0.192,0.823-0.276,1.725-0.212,2.612 0.342,4.738 4.459,8.301 9.197,7.959 4.738-0.342 8.301-4.46 7.959-9.197l-1.256-17.402z" fill="#6B7687"/>
    <path d="m126.482,153.98c2.263-6.522-1.19-13.643-7.713-15.906l-40.851-14.171-9.369-36.296 17.628,26.459 9.405,3.262 7.477-27.518c2.699-9.933-3.166-20.174-13.099-22.872l-32.074-8.715c-9.933-2.699-20.174,3.166-22.872,13.099l-24.45,89.986c-1.721,3.804-1.867,8.298-0.002,12.396l20.547,45.139-25.971,77.862c-2.621,7.858 1.625,16.354 9.483,18.976 7.843,2.618 16.351-1.612 18.976-9.483l27.837-83.456c1.199-3.595 0.993-7.511-0.577-10.96l-15.108-33.19c-0.498-1.093-0.319-2.376 0.459-3.291 0.778-0.915 2.015-1.298 3.174-0.983 0.853,0.232 1.567,0.817 1.961,1.608l21.525,43.182v82.348c0,8.284 6.716,15 15,15s15-6.716 15-15v-85.879c0-2.322-0.539-4.613-1.575-6.691l-19.796-39.714 1.208-4.445-23.244-8.063c-10.509-3.646-15.936-13.595-16.071-19.759l1.66-40.311 10.337,40.047c1.047,4.054 4.052,7.314 8.007,8.686l47.183,16.367c6.515,2.26 13.641-1.189 15.905-7.714z" fill="#6B7687"/>
  </g>
</svg>
