<?xml version="1.0" encoding="iso-8859-1"?>
<!DOCTYPE svg PUBLIC "-//W3C//DTD SVG 1.1//EN" "http://www.w3.org/Graphics/SVG/1.1/DTD/svg11.dtd">
<svg xmlns="http://www.w3.org/2000/svg" xmlns:xlink="http://www.w3.org/1999/xlink" version="1.1" viewBox="0 0 303.125 303.125" enable-background="new 0 0 303.125 303.125" width="512px" height="512px">
  <g>
    <path d="m294.625,38.187h-40.5c-4.694,0-8.5,3.806-8.5,8.5v19c-4.694,0-8.5,3.806-8.5,8.5 0,4.694 3.806,8.5 8.5,8.5h16.5c4.694,0 8.5-3.806 8.5-8.5 0-4.526-3.54-8.215-8-8.475v-10.525h23.5v212.5c0,4.694 3.806,8.5 8.5,8.5s8.5-3.806 8.5-8.5v-221c0-4.695-3.806-8.5-8.5-8.5z" fill="#6B7687"/>
    <path d="m257.625,107.687c-0.362-1.033-1.182-1.915-2.298-2.298-1.933-0.664-4.038,0.365-4.702,2.298l-5,14.562c-0.627,1.825-0.675,3.87 0,5.837 1.612,4.694 6.724,7.193 11.419,5.581 4.694-1.612 7.193-6.724 5.581-11.419l-5-14.561z" fill="#6B7687"/>
    <path d="m257.625,158.687c-0.362-1.033-1.182-1.915-2.298-2.298-1.933-0.664-4.038,0.365-4.702,2.298l-5,14.562c-0.627,1.825-0.675,3.87 0,5.837 1.612,4.694 6.724,7.193 11.419,5.581 4.694-1.612 7.193-6.724 5.581-11.419l-5-14.561z" fill="#6B7687"/>
    <circle cx="142.128" cy="54.536" r="27.59" fill="#6B7687"/>
    <path d="m222.578,122.993c-4.257-1.977-9.311-0.127-11.289,4.131l-5.23,11.268c-1.359,2.926-4.825,4.194-7.749,2.836-2.927-1.358-4.195-4.824-2.837-7.75l5.23-11.267c1.977-4.259 0.127-9.313-4.131-11.289-4.264-1.98-9.314-0.127-11.289,4.131l-5.23,11.267c-4.037,8.697-2.108,18.656 4.082,25.255l-3.503,7.547c6.371,5.414 9.655,13.858 8.387,22.31l10.529-22.682c8.853,0.474 17.81-4.32 21.931-13.2l5.23-11.267c1.977-4.258 0.127-9.313-4.131-11.29z" fill="#6B7687"/>
    <path d="m163.335,202.247c0.744,2.056 2.274,3.826 4.413,4.819 4.248,1.973 9.31,0.134 11.289-4.131l4.161-8.964c-4.761,5.416-11.925,8.751-19.863,8.276z" fill="#6B7687"/>
    <path d="m95.17,124.515l10.337,40.047c1.047,4.054 4.052,7.313 8.007,8.686l47.183,16.367c6.516,2.261 13.643-1.187 15.906-7.713 2.263-6.522-1.191-13.644-7.713-15.906l-40.851-14.171-9.369-36.296 17.628,26.459 5.815,2.017 8.441-22.107c3.672-9.616-1.147-20.388-10.764-24.06l-31.05-11.856c-9.616-3.672-20.388,1.147-24.06,10.764l-32.01,83.837c-0.998,2.98-1.92,4.809-1.421,8.981l8.693,56.623h-44.942c-8.284,0-15,6.716-15,15 0,8.284 6.716,15 15,15h62.421c9.182,0 16.221-8.193 14.826-17.276l-8.579-55.878 38.456,9.685-10.657,45.01c-1.908,8.061 3.079,16.144 11.141,18.053 8.089,1.91 16.149-3.102 18.053-11.141 15.26-64.448 14.724-60.784 14.389-64.282-23.453-8.136-23.852-8.274-45.468-15.773-10.51-3.646-15.936-13.595-16.071-19.759l1.659-40.311z" fill="#6B7687"/>
  </g>
</svg>
