<?xml version="1.0" encoding="iso-8859-1"?>
<!DOCTYPE svg PUBLIC "-//W3C//DTD SVG 1.1//EN" "http://www.w3.org/Graphics/SVG/1.1/DTD/svg11.dtd">
<svg xmlns="http://www.w3.org/2000/svg" xmlns:xlink="http://www.w3.org/1999/xlink" version="1.1" viewBox="0 0 295.85 295.85" enable-background="new 0 0 295.85 295.85" width="512px" height="512px">
  <g>
    <path d="m275.636,67.808v-7.133h9.474c4.525,0 8.193-3.668 8.193-8.193v-7.212c0-4.525-3.668-8.193-8.193-8.193h-9.474v-7.133c0-4.525-3.668-8.193-8.193-8.193h-79.373-17.337-9.803c-4.525,0-8.193,3.668-8.193,8.193v7.212c0,4.525 3.668,8.193 8.193,8.193h9.803v22.459c0,4.525 3.668,8.193 8.193,8.193h32.275l-55.579,209.165c-1.206,4.537 1.495,9.192 6.032,10.397 4.531,1.203 9.192-1.493 10.397-6.032l42.633-160.443v124.912c0,4.694 3.806,8.5 8.5,8.5 4.694,0 8.5-3.806 8.5-8.5v-124.913l42.634,160.444c1.205,4.536 5.86,7.238 10.397,6.032 4.537-1.205 7.238-5.86 6.032-10.397l-55.578-209.166h32.275c4.524,0 8.192-3.668 8.192-8.192z" fill="#6B7687"/>
    <circle cx="95.49" cy="27.597" r="27.59" fill="#6B7687"/>
    <path d="m128.843,133.239l-41.877-10.764-12.6-36.199 20.021,25.716 1.364,.351 8.164-21.383c3.672-9.616-1.147-20.388-10.763-24.06l-31.05-11.856c-9.616-3.672-20.388,1.147-24.06,10.763l-33.958,88.939c-2.368,4.846-2.042,10.805 1.365,15.458l31.406,42.882-32.525,60.673c-3.914,7.301-1.168,16.393 6.134,20.307 7.3,3.915 16.394,1.168 20.307-6.133l36.989-69c2.729-5.089 2.294-11.292-1.118-15.95l-14.895-20.337c-1.23-1.679-1.207-3.968 0.055-5.622 1.263-1.655 3.464-2.281 5.408-1.539 0.773,0.295 1.454,0.789 1.974,1.432l28.749,35.505-25.35,62.811c-3.101,7.683 0.614,16.424 8.297,19.524 7.688,3.101 16.424-0.619 19.523-8.296l28.654-71c2.039-5.055 1.178-10.817-2.252-15.054l-32.779-40.485c-7.105-1.826-5.578-1.434-12.762-3.28-10.774-2.77-17-12.239-17.641-18.37l-1.968-41.193 13.902,39.944c1.282,3.68 4.418,6.899 8.694,7.998l48.369,12.432c5.941,1.526 12.116-1.487 14.563-7.09 3.096-7.095-0.908-15.214-8.34-17.124z" fill="#6B7687"/>
  </g>
</svg>
