<?xml version="1.0" encoding="iso-8859-1"?>
<!DOCTYPE svg PUBLIC "-//W3C//DTD SVG 1.1//EN" "http://www.w3.org/Graphics/SVG/1.1/DTD/svg11.dtd">
<svg xmlns="http://www.w3.org/2000/svg" xmlns:xlink="http://www.w3.org/1999/xlink" version="1.1" viewBox="0 0 316.455 316.455" enable-background="new 0 0 316.455 316.455" width="512px" height="512px">
  <g>
    <path d="m287.47,234.909c-3.463-3.17-8.84-2.935-12.009,0.528l-17.086,18.659-31.713,5.949c-2.849,0.535-5.229,2.484-6.314,5.172l-8.934,22.122-29.185,8.156v12.459c0,1.872-0.274,3.677-0.746,5.401l38.534-10.77c2.54-0.71 4.606-2.559 5.594-5.004l8.758-21.686 29.928-5.614c1.809-0.34 3.459-1.257 4.701-2.614l19-20.75c3.171-3.461 2.934-8.838-0.528-12.008z" fill="#6B7687"/>
    <path d="m185.183,277.189l4.036-68.615c0.277-4.71-3.478-8.674-8.178-8.674h-10.811v-17c12.893,0 8.755,0 14.5,0 4.694,0 8.5-3.806 8.5-8.5 0-4.694-3.806-8.5-8.5-8.5-6.133,0-18.953,0-30.028,0-4.44,4.143-10.362,6.607-16.71,6.607-2.449,0-4.867-0.386-7.207-1.108-0.353,0.934-0.555,1.943-0.555,3.001 0,4.694 3.806,8.5 8.5,8.5 5.764,0 1.601,0 14.5,0v17h-10.811c-4.662,0-8.458,3.926-8.178,8.674l4.036,68.615c0.255,4.343 3.881,7.712 8.178,7.712h6.775v23.055c0,4.694 3.806,8.5 8.5,8.5 4.694,0 8.5-3.806 8.5-8.5v-23.056h6.775c4.297,0 7.923-3.369 8.178-7.711z" fill="#6B7687"/>
    <path d="m103.359,169.171l1.799-6.624-22.38-7.763c-10.51-3.646-15.936-13.595-16.071-19.759l1.481-41.004 10.516,40.741c1.047,4.054 4.052,7.313 8.007,8.686l47.183,16.367c6.517,2.261 13.643-1.187 15.906-7.713 2.263-6.523-1.19-13.644-7.713-15.906l-40.851-14.171-9.53-36.921 17.79,27.085 8.54,2.962 6.885-25.34c2.699-9.933-3.166-20.174-13.099-22.872l-32.074-8.715c-9.933-2.699-20.174,3.166-22.873,13.099l-24.45,89.987c-1.721,3.805-1.867,8.298-0.001,12.397l20.547,45.137-25.971,77.861c-2.621,7.858 1.625,16.354 9.483,18.976 1.574,0.525 3.175,0.774 4.748,0.774 6.279,0 12.132-3.974 14.228-10.258l27.837-83.456c1.199-3.595 0.993-7.511-0.577-10.961l-15.107-33.189c-0.498-1.093-0.319-2.376 0.459-3.291 0.778-0.915 2.015-1.298 3.174-0.984 0.853,0.232 1.567,0.817 1.961,1.608l21.524,43.182v82.348c0,8.284 6.716,15 15,15s15-6.716 15-15v-85.879c0-2.322-0.539-4.613-1.575-6.691l-19.796-39.713z" fill="#6B7687"/>
    <circle cx="110.246" cy="27.597" r="27.59" fill="#6B7687"/>
  </g>
</svg>
