<?xml version="1.0" encoding="iso-8859-1"?>
<!-- Generator: Adobe Illustrator 19.0.0, SVG Export Plug-In . SVG Version: 6.00 Build 0)  -->
<svg xmlns="http://www.w3.org/2000/svg" xmlns:xlink="http://www.w3.org/1999/xlink" version="1.1" id="Layer_1" x="0px" y="0px" viewBox="0 0 512.001 512.001" style="enable-background:new 0 0 512.001 512.001;" xml:space="preserve" width="512px" height="512px">
<g>
	<g>
		<path d="M340.519,42.715h-99.029C241.491,19.124,222.366,0,198.775,0S156.06,19.124,156.06,42.715H57.031    c-8.921,0-16.151,7.232-16.151,16.151v400.118c0,8.921,7.232,16.151,16.151,16.151h95.066l0.096-85.343    c0-14.3,9.288-26.462,22.146-30.793v-10.183c-6.293-6.366-10.169-15.12-10.12-24.757l0.65-129.295    c0.099-19.825,10.064-37.374,25.199-48.023V73.483c0-4.808,3.898-8.706,8.706-8.706s8.706,3.898,8.706,8.706v64.872    c8.808-2.567,15.319-2.357,19.525-2.357c-6.063-8.716-9.629-19.292-9.629-30.689c0-29.714,24.174-53.888,53.889-53.888    s53.889,24.174,53.889,53.888c0,11.398-3.567,21.973-9.629,30.689h4.65c14.072,0,27.319,6.1,36.496,16.373V58.867    C356.67,49.946,349.44,42.715,340.519,42.715z" fill="#6B7687"/>
	</g>
</g>
<g>
	<g>
		<path d="M335.903,255.405l-0.806-1.419c0,0,0.383,58.008,0.383,221.151h5.038c8.921,0,16.151-7.232,16.151-16.151v-187.23    C348.002,269.252,340.471,263.457,335.903,255.405z" fill="#6B7687"/>
	</g>
</g>
<g>
	<g>
		<path d="M455.48,171.011h-28.181c-8.638,0-15.641,7.003-15.641,15.641v7.556l11.573-2.126    c18.971-3.487,37.257,9.026,40.763,28.112c3.487,18.987-9.123,37.273-28.111,40.761l-24.044,4.416    c1.096,7.567,7.589,13.387,15.46,13.387h28.181c8.638,0,15.641-7.003,15.641-15.641v-76.464    C471.121,178.013,464.119,171.011,455.48,171.011z" fill="#6B7687"/>
	</g>
</g>
<g>
	<g>
		<path d="M446.868,223.339c-1.756-9.555-10.928-15.888-20.489-14.131l-50.892,9.349l-27.907-49.186    c-5.585-9.844-16.086-15.959-27.404-15.959c-12.154,0-85.261,0-96.244,0c-22.851,0-41.534,18.589-41.649,41.439l-0.65,129.297    c-0.033,6.693,3.674,12.53,9.158,15.534c-0.043,19.32-0.034,15.063-0.078,34.472h-6.027c-8.638,0-15.641,7.003-15.641,15.641    v76.464c0,8.638,7.003,15.641,15.641,15.641c29.097,0,16.837,0,28.181,0c4.611,0,8.744-2.008,11.606-5.183v14.164    c0,11.663,9.455,21.119,21.119,21.119c11.664,0,21.119-9.455,21.119-21.119V322.072h9.118v168.81    c0,11.66,9.452,21.119,21.119,21.119c11.664,0,21.119-9.455,21.119-21.119c0-279.048-0.383-120.69-0.383-302.271h0.338v-0.001    l33.023,58.202c3.707,6.535,11.139,9.976,18.487,8.625l63.203-11.609C442.297,242.073,448.624,232.899,446.868,223.339z     M212.865,374.153h-5.302l0.078-34.456c5.446-2.969,9.156-8.731,9.19-15.371l0.65-129.298c0.016-3.14,2.34-6.417,6.983-6.417    l0.008,190.724C221.609,376.16,217.477,374.153,212.865,374.153z" fill="#6B7687"/>
	</g>
</g>
<g>
	<g>
		<path d="M271.265,68.835c-20.145,0-36.475,16.33-36.475,36.475c0,20.263,16.468,36.475,36.475,36.475    c20.1,0,36.475-16.291,36.475-36.475C307.74,85.165,291.41,68.835,271.265,68.835z" fill="#6B7687"/>
	</g>
</g>
<g>
	<g>
		<path d="M410.207,404.254h-5.285l0.077-33.564c0.01-4.654-3.753-8.434-8.406-8.445c-0.007,0-0.013,0-0.02,0    c-4.644,0-8.414,3.759-8.425,8.406l-0.077,33.601h-6.045c-8.638,0-15.641,7.003-15.641,15.641v76.464    c0,8.638,7.003,15.641,15.641,15.641h28.181c8.638,0,15.641-7.003,15.641-15.641v-76.464    C425.848,411.257,418.845,404.254,410.207,404.254z" fill="#6B7687"/>
	</g>
</g>
<g>
</g>
<g>
</g>
<g>
</g>
<g>
</g>
<g>
</g>
<g>
</g>
<g>
</g>
<g>
</g>
<g>
</g>
<g>
</g>
<g>
</g>
<g>
</g>
<g>
</g>
<g>
</g>
<g>
</g>
</svg>
