<?xml version="1.0" encoding="iso-8859-1"?>
<!-- Generator: Adobe Illustrator 19.0.0, SVG Export Plug-In . SVG Version: 6.00 Build 0)  -->
<svg xmlns="http://www.w3.org/2000/svg" xmlns:xlink="http://www.w3.org/1999/xlink" version="1.1" id="Layer_1" x="0px" y="0px" viewBox="0 0 512 512" style="enable-background:new 0 0 512 512;" xml:space="preserve" width="512px" height="512px">
<g>
	<g>
		<circle cx="327.476" cy="42.141" r="42.141" fill="#6B7687"/>
	</g>
</g>
<g>
	<g>
		<path d="M373.647,301.495h-37.297c-1.34,0-2.636-0.185-3.88-0.499V487.6c0,13.475,10.924,24.4,24.4,24.4    c13.475,0,24.4-10.924,24.4-24.4V299.538C379.006,300.783,376.409,301.495,373.647,301.495z" fill="#6B7687"/>
	</g>
</g>
<g>
	<g>
		<path d="M430.003,145.591c-0.132-26.4-21.717-47.877-48.117-47.877c-12.094,0-90.329,0-101.605,0    c-14.602,0-28.237,6.516-37.411,17.877l-36.494,45.198h-33.592c1.64-1.302,2.694-3.309,2.694-5.567v-5.037    c22.407-3.812,37.931-12.061,37.931-21.628c0-0.574-0.071-1.141-0.199-1.703c-0.249-1.1-2.105-1.927-4.32-1.927H86.179    c-2.207,0-4.067,0.826-4.319,1.922c-0.13,0.563-0.204,1.133-0.204,1.708c0,9.565,15.525,17.815,37.931,21.628v5.037    c0,3.927,3.184,7.111,7.111,7.111h5.411c-7.373,3.052-12.563,10.311-12.563,18.788c0,11.23,9.103,20.333,20.333,20.333h76.214    c6.145,0,11.96-2.779,15.82-7.56l41.214-51.044l0.009,344.749c0,13.475,10.924,24.4,24.4,24.4c13.475,0,24.4-10.924,24.4-24.4    l0.023-229.7c-14.235-2.924-27.145-14.637-28.998-29.859c-2.205-18.114,11.427-34.659,28.998-38.252v-4.379    c0-8.054,6.032-14.832,14.033-15.765l35.817-4.351c3.135-0.365,6.252,0.214,9.019,1.618V145.73c0-2.35,1.904-4.254,4.254-4.255    c2.35,0,4.255,1.904,4.255,4.253c0,0.022,0,0.044,0,0.066v89.817l23.132-1.635c10.243-1.246,17.927-9.968,17.876-20.286    C430.3,204.536,430.049,154.621,430.003,145.591z" fill="#6B7687"/>
	</g>
</g>
<g>
	<g>
		<path d="M307.293,226.296c0.954,7.837,7.733,14.077,14.666,16.626v-38.157C313.291,207.94,306.13,216.738,307.293,226.296z" fill="#6B7687"/>
	</g>
</g>
<g>
	<g>
		<path d="M153.383,50.527c0.696-1.082,1.104-2.368,1.104-3.751c0-3.841-3.114-6.954-6.954-6.954c-3.841,0-6.954,3.114-6.954,6.954    c0,1.383,0.409,2.667,1.104,3.751c-31.168,2.828-55.881,28.015-57.949,59.398c-0.073,1.105,0.316,2.19,1.072,2.998    c0.756,0.809,1.814,1.271,2.921,1.271h119.613c1.108,0,2.166-0.459,2.923-1.268c0.756-0.809,1.144-1.895,1.07-3.001    C209.263,78.544,184.551,53.355,153.383,50.527z" fill="#6B7687"/>
	</g>
</g>
<g>
</g>
<g>
</g>
<g>
</g>
<g>
</g>
<g>
</g>
<g>
</g>
<g>
</g>
<g>
</g>
<g>
</g>
<g>
</g>
<g>
</g>
<g>
</g>
<g>
</g>
<g>
</g>
<g>
</g>
</svg>
