<?xml version="1.0" encoding="iso-8859-1"?>
<!-- Generator: Adobe Illustrator 19.0.0, SVG Export Plug-In . SVG Version: 6.00 Build 0)  -->
<svg xmlns="http://www.w3.org/2000/svg" xmlns:xlink="http://www.w3.org/1999/xlink" version="1.1" id="Layer_1" x="0px" y="0px" viewBox="0 0 512 512" style="enable-background:new 0 0 512 512;" xml:space="preserve" width="512px" height="512px">
<g>
	<g>
		<circle cx="114.892" cy="42.141" r="42.141" fill="#6B7687"/>
	</g>
</g>
<g>
	<g>
		<path d="M83.29,97.713c3.491,9.848,13.743,38.781,17.649,49.802c10.642,0,17.818,0,27.336,0    c3.921-11.063,14.241-40.186,17.648-49.802C120.207,97.713,110.837,97.713,83.29,97.713z" fill="#6B7687"/>
	</g>
</g>
<g>
	<g>
		<path d="M100.747,210.787l-50.194-24.375c15-23.392,17.936-29.059,23.164-37.613l-8.678,30.134l15.813,7.678l4.396-35.938    c-7.997-22.566-8.941-25.232-18.148-51.208c-14.826,4.474-21.972,16.358-28.456,28.253c-5.786,10.612-30.982,50.118-33.296,53.638    c-9.469,14.402-3.743,26.494,6.715,31.573l70.92,34.44c10.102,4.905,22.267,0.691,27.172-9.409    C115.06,227.858,110.848,215.692,100.747,210.787z" fill="#6B7687"/>
	</g>
</g>
<g>
	<g>
		<path d="M404.058,456.289h-44.901c4.23,7.001,6.667,15.2,6.667,23.958c0,1.463-0.077,2.909-0.21,4.338H397.6    c-0.133-1.429-0.21-2.875-0.21-4.338C397.391,471.488,399.83,463.289,404.058,456.289z" fill="#6B7687"/>
	</g>
</g>
<g>
	<g>
		<path d="M497.313,456.289H483.66c4.23,7.001,6.667,15.2,6.667,23.958c0,1.463-0.077,2.909-0.21,4.338h7.196    c7.813,0,14.147-6.334,14.147-14.147S505.127,456.289,497.313,456.289z" fill="#6B7687"/>
	</g>
</g>
<g>
	<g>
		<path d="M457.511,297.08h-26.508v-36.982c0-4.22-3.421-7.639-7.639-7.639h-11.694c0.537-1.013,0.845-2.168,0.845-3.395    c0-4.01-3.25-7.26-7.26-7.26c-4.01,0-7.26,3.25-7.26,7.26c0,1.227,0.308,2.382,0.845,3.395h-11.694    c-4.22,0-7.639,3.421-7.639,7.639v36.982h-19.807v-55.658c0-4.22-3.421-7.639-7.639-7.639h-36.218    c-4.22,0-7.639,3.421-7.639,7.639v55.658h-21.594v-34.522c0-7.814-6.334-14.147-14.147-14.147h-1.994    c-0.762-4.227-2.841-8.25-6.252-11.374l-44.778-41.02c-8.235-22.204-17.03-41.575-22.306-56.93    c-7.591-22.092-19.321-35.413-34.954-39.774c-14.624,41.269-12.016,33.908-17.788,50.193    c6.077,49.675,1.667,21.069,20.618,131.353c0.498,2.9-0.304,5.873-2.199,8.123c-1.895,2.25-4.687,3.55-7.629,3.55    c-20.094,0-60.466,0-80.571,0c-2.94,0-5.732-1.309-7.626-3.558s-2.701-5.218-2.203-8.116l4.411-25.674l-19.31-9.377    l-15.661,80.845c-0.641,3.31,0.232,6.733,2.376,9.336c2.144,2.603,5.341,4.121,8.714,4.121c4.379,0,9.633,0,15.516,0v147.492    c0,13.475,10.924,24.399,24.399,24.399s24.399-10.924,24.399-24.399V340.108c3.508,0,7.027,0,10.535,0v147.492    c0,13.475,10.924,24.399,24.399,24.399s24.399-10.924,24.399-24.399V340.108c5.883,0,11.138,0,15.516,0    c3.374,0,6.572-1.508,8.717-4.113c2.146-2.604,3.014-6.031,2.372-9.344c-2.832-14.632-29.211-154.124-29.211-154.124    s11.138,26.948,16.559,42.012c1.116,3.1,2.968,5.882,5.397,8.108l33.894,31.05c-1.952,2.425-3.126,5.504-3.126,8.86    c0,7.813,6.334,14.147,14.147,14.147h25.089c0,10.749,0,187.286,0,193.732c0,7.14,5.438,14.147,14.793,14.147    c-0.133-1.429-0.21-2.875-0.21-4.338c0-12.854,5.249-24.504,13.713-32.925V325.375h170.907c7.812,0,14.146-6.334,14.146-14.147    S465.324,297.08,457.511,297.08z" fill="#6B7687"/>
	</g>
</g>
<g>
	<g>
		<path d="M442.32,409.781H317.819c-7.813,0-14.147,6.334-14.147,14.147c0,7.827,6.375,14.147,14.147,14.147    c12.927,0,111.612,0,124.501,0c7.765,0,14.147-6.342,14.147-14.147C456.467,416.116,450.133,409.781,442.32,409.781z" fill="#6B7687"/>
	</g>
</g>
<g>
	<g>
		<path d="M442.32,365.641H317.819c-7.813,0-14.147,6.334-14.147,14.147s6.334,14.147,14.147,14.147H442.32    c7.813,0,14.147-6.334,14.147-14.147S450.133,365.641,442.32,365.641z" fill="#6B7687"/>
	</g>
</g>
<g>
	<g>
		<path d="M319.358,448.493c-17.506,0-31.753,14.241-31.753,31.753c0,17.384,14.149,31.753,31.753,31.753    c17.439,0,31.755-14.204,31.755-31.753C351.112,462.731,336.845,448.493,319.358,448.493z M319.358,492.256    c-6.622,0-12.011-5.388-12.011-12.011c0-6.623,5.388-12.011,12.011-12.011c6.623,0,12.012,5.388,12.012,12.011    S325.981,492.256,319.358,492.256z" fill="#6B7687"/>
	</g>
</g>
<g>
	<g>
		<path d="M443.859,448.493c-17.487,0-31.753,14.221-31.753,31.753c0,17.399,14.162,31.753,31.753,31.753    c17.439,0,31.754-14.204,31.754-31.753C475.614,462.731,461.346,448.493,443.859,448.493z M443.859,492.256    c-6.622,0-12.011-5.388-12.011-12.011c0-6.623,5.388-12.011,12.011-12.011c6.623,0,12.012,5.388,12.012,12.011    S450.483,492.256,443.859,492.256z" fill="#6B7687"/>
	</g>
</g>
<g>
</g>
<g>
</g>
<g>
</g>
<g>
</g>
<g>
</g>
<g>
</g>
<g>
</g>
<g>
</g>
<g>
</g>
<g>
</g>
<g>
</g>
<g>
</g>
<g>
</g>
<g>
</g>
<g>
</g>
</svg>
