<?xml version="1.0" encoding="iso-8859-1"?>
<!-- Generator: Adobe Illustrator 19.0.0, SVG Export Plug-In . SVG Version: 6.00 Build 0)  -->
<svg xmlns="http://www.w3.org/2000/svg" xmlns:xlink="http://www.w3.org/1999/xlink" version="1.1" id="Layer_1" x="0px" y="0px" viewBox="0 0 512 512" style="enable-background:new 0 0 512 512;" xml:space="preserve" width="512px" height="512px">
<g>
	<g>
		<path d="M94.808,468.364l-69.892,0.072l0.032,31.285c0.007,6.802,15.658,12.298,34.959,12.278    c19.3-0.02,34.941-5.55,34.933-12.351L94.808,468.364z" fill="#6B7687"/>
	</g>
</g>
<g>
	<g>
		<path d="M487.003,18.913C487.003,8.484,478.52,0,468.09,0H207.698c-7.93,0-14.359,6.428-14.359,14.359v21.576    c10.631,0.411,20.487,3.877,28.717,9.55c14.271,9.836,23.648,26.286,23.648,44.891c0,13.848-5.201,26.499-13.74,36.122    c8.655,1.269,17.07,4.06,24.769,8.268l21.313,11.651l30.719-33.849c12.151-13.388,32.852-14.393,46.243-2.241    c13.388,12.15,14.392,32.854,2.241,46.243l-48.044,52.939c-10.157,11.194-26.667,13.981-39.944,6.725l-14.712-8.042    c0.731,5.972-2.258-10.066,25.623,133.886c3.075,15.88-7.768,30.953-23.529,33.296v114.479c0,8.073-2.413,15.589-6.544,21.88    h219.752c9.528,0,17.251-7.723,17.251-17.251L487.003,18.913z M373.128,109.88c-2.457-4.075-1.148-9.369,2.927-11.827    l44.019-26.556c4.075-2.456,9.37-1.148,11.827,2.927c2.457,4.075,1.148,9.369-2.927,11.827l-44.019,26.556    C380.878,115.265,375.585,113.952,373.128,109.88z M420.201,139.084l-33.041,3.522c-4.723,0.505-8.975-2.914-9.48-7.653    c-0.503-4.731,2.923-8.975,7.654-9.48l33.041-3.522c4.72-0.508,8.976,2.921,9.48,7.653    C428.359,134.335,424.933,138.579,420.201,139.084z M441.434,292.508c-8.565,0-15.507-6.943-15.507-15.507    s6.943-15.507,15.507-15.507c8.565,0,15.507,6.943,15.507,15.507C456.941,285.566,449.998,292.508,441.434,292.508z" fill="#6B7687"/>
	</g>
</g>
<g>
	<g>
		<path d="M262.404,345.517l-15.594-80.513H199.11l4.812,39.15c0.471,3.832-2.252,7.319-6.084,7.789    c-3.82,0.474-7.318-2.247-7.789-6.084l-4.846-39.428l-4.075,20.416c-0.756,3.789-4.442,6.243-8.223,5.485    c-3.785-0.756-6.241-4.437-5.485-8.221l3.814-19.108h-37.923l-15.594,80.513c-1.215,6.272,3.621,12.068,9.944,12.068    c3.923,0,8.647,0,13.914,0v132.267c0,12.084,9.796,21.88,21.88,21.88s21.882-9.796,21.882-21.88V357.584c3.146,0,6.301,0,9.447,0    v132.267c0,12.084,9.796,21.88,21.88,21.88s21.88-9.796,21.88-21.88V357.584c5.268,0,9.992,0,13.913,0    C258.836,357.584,263.615,351.77,262.404,345.517z" fill="#6B7687"/>
	</g>
</g>
<g>
	<g>
		<path d="M345.259,121.066c-7.457-6.768-18.99-6.208-25.757,1.248l-38.394,42.305c-34.67-18.952-31.847-17.452-34.162-18.559    c-6.808-3.26-14.207-5.208-21.737-5.712c-3.17-0.212-67.221-0.225-70.142,0c-17.694,1.364-25.027,13.038-33.382,26.769    c-10.862,17.848-23.913,38.716-23.913,38.716c-10.796-3.233-18.138-5.432-29.209-8.746L68.447,85.643    c-0.006-4.959-4.027-8.977-8.986-8.977c-0.002,0-0.007,0-0.009,0c-4.964,0.006-8.983,4.032-8.977,8.996l0.111,106.571    c-8.18-0.471-15.911,4.672-18.363,12.861c-2.868,9.574,2.57,19.659,12.144,22.527l6.258,1.875l0.197,188.496    c-14.941,3.982-25.942,17.609-25.925,33.802l0.003,2.664l69.892-0.074l-0.002-2.663c-0.017-16.192-11.047-29.797-25.995-33.747    L68.604,234.88c11.721,3.509,19.57,5.86,32.019,9.588c7.934,2.375,16.319-0.955,20.563-7.784    c0.158-0.255,14.045-22.598,23.745-37.713l-8.915,52.056h108.085l-11.259-71.228c20.28,11.086,19.179,10.484,43.373,23.709    c7.39,4.04,16.587,2.493,22.248-3.746l48.044-52.939C353.274,139.366,352.716,127.834,345.259,121.066z" fill="#6B7687"/>
	</g>
</g>
<g>
	<g>
		<path d="M191.208,52.585c-20.871,0-37.791,16.92-37.791,37.791c0,20.993,17.068,37.791,37.791,37.791    c20.741,0,37.791-16.815,37.791-37.791C228.999,69.505,212.079,52.585,191.208,52.585z" fill="#6B7687"/>
	</g>
</g>
<g>
</g>
<g>
</g>
<g>
</g>
<g>
</g>
<g>
</g>
<g>
</g>
<g>
</g>
<g>
</g>
<g>
</g>
<g>
</g>
<g>
</g>
<g>
</g>
<g>
</g>
<g>
</g>
<g>
</g>
</svg>
