<?xml version="1.0" encoding="iso-8859-1"?>
<!DOCTYPE svg PUBLIC "-//W3C//DTD SVG 1.1//EN" "http://www.w3.org/Graphics/SVG/1.1/DTD/svg11.dtd">
<svg xmlns="http://www.w3.org/2000/svg" xmlns:xlink="http://www.w3.org/1999/xlink" version="1.1" viewBox="0 0 297 297" enable-background="new 0 0 297 297" width="512px" height="512px">
  <g>
    <path d="m105.206,211.159l-2.505-.769-11.778,5.049c-1.842,0.791-3.932,0.791-5.775,0l-11.778-5.049-2.505,.769c-2.884,0.994-4.817,3.699-4.817,6.755v18.305h43.974v-18.305c0.001-3.056-1.932-5.761-4.816-6.755z" fill="#6B7687"/>
    <path d="m46.155,236.219h5.235v-18.305c0-9.4 5.992-17.712 14.909-20.685 0.056-0.018 0.112-0.037 0.169-0.054l5.173-1.587c1.657-0.507 3.444-0.413 5.037,0.271l11.359,4.869 11.36-4.87c1.594-0.683 3.378-0.779 5.035-0.27l5.173,1.587c0.056,0.017 0.112,0.036 0.169,0.054 8.917,2.972 14.909,11.285 14.909,20.685v18.305h5.235v-89.517c0-3.615-2.931-6.546-6.546-6.546h-70.671c-3.615,0-6.546,2.931-6.546,6.546v89.517zm41.88-87.196c12.123,0 21.987,9.864 21.987,21.987 0,12.123-9.864,21.987-21.987,21.987s-21.987-9.864-21.987-21.987c0-12.123 9.864-21.987 21.987-21.987z" fill="#6B7687"/>
    <path d="m88.035,178.34c4.041,0 7.329-3.288 7.329-7.329 0-4.041-3.288-7.329-7.329-7.329s-7.329,3.288-7.329,7.329c0,4.04 3.289,7.329 7.329,7.329z" fill="#6B7687"/>
    <path d="m200.327,44.846h-17.276c-4.963,0-8.876-4.061-8.9-9.023-0.067-14.088-11.548-25.528-25.651-25.528s-25.584,11.44-25.651,25.528c-0.024,4.963-3.937,9.023-8.9,9.023h-17.276c-4.626,0-8.376,3.75-8.376,8.376v34.552c0,4.626 3.75,8.376 8.376,8.376h103.654c4.626,0 8.376-3.75 8.376-8.376v-34.552c0-4.626-3.75-8.376-8.376-8.376zm-51.827,2.094c-5.484,0-9.947-4.462-9.947-9.947s4.462-9.947 9.947-9.947 9.947,4.462 9.947,9.947-4.463,9.947-9.947,9.947z" fill="#6B7687"/>
    <path d="m268.034,61.599h-41.532v43.451c0,4.915-3.985,8.9-8.9,8.9h-138.204c-4.915,0-8.9-3.985-8.9-8.9v-43.451h-41.532c-15.971,0-28.966,12.994-28.966,28.966v167.173c0,15.972 12.995,28.966 28.966,28.966h239.067c15.972,0 28.966-12.995 28.966-28.966v-167.173c0.001-15.972-12.994-28.966-28.965-28.966zm-92.574,86.378h34.551c4.915,0 8.9,3.985 8.9,8.9 0,4.915-3.985,8.9-8.9,8.9h-34.551c-4.915,0-8.9-3.985-8.9-8.9 0.001-4.916 3.985-8.9 8.9-8.9zm-30.886,95.572c0,4.048-3.281,7.329-7.329,7.329h-98.419c-4.048,0-7.329-3.281-7.329-7.329v-110.721c0-4.048 3.281-7.329 7.329-7.329h98.419c4.048,0 7.329,3.281 7.329,7.329v110.721zm117.264-8.671h-86.378c-4.915,0-8.9-3.985-8.9-8.9s3.985-8.9 8.9-8.9h86.378c4.915,0 8.9,3.985 8.9,8.9s-3.985,8.9-8.9,8.9zm0-34.551h-86.378c-4.915,0-8.9-3.985-8.9-8.9s3.985-8.9 8.9-8.9h86.378c4.915,0 8.9,3.985 8.9,8.9s-3.985,8.9-8.9,8.9z" fill="#6B7687"/>
  </g>
</svg>
