<?xml version="1.0" encoding="iso-8859-1"?>
<!DOCTYPE svg PUBLIC "-//W3C//DTD SVG 1.1//EN" "http://www.w3.org/Graphics/SVG/1.1/DTD/svg11.dtd">
<svg xmlns="http://www.w3.org/2000/svg" xmlns:xlink="http://www.w3.org/1999/xlink" version="1.1" viewBox="0 0 297 297" enable-background="new 0 0 297 297" width="512px" height="512px">
  <g>
    <path d="m243.491,38.536c-29.505,0-53.509,24.004-53.509,53.509 0,17.985 8.928,33.913 22.574,43.619v-14.739c0-8.086 5.154-15.235 12.824-17.791 0.053-0.018 4.403-1.353 4.403-1.353 1.643-0.503 3.414-0.374 4.967,0.363l8.741,4.156 8.741-4.156c1.553-0.737 3.324-0.868 4.967-0.363 0,0 4.35,1.335 4.403,1.353 7.67,2.555 12.824,9.705 12.824,17.791v14.739c13.646-9.706 22.574-25.634 22.574-43.619 0-29.505-24.004-53.509-53.509-53.509zm0,58.84c-11.629,0-21.091-9.462-21.091-21.092 0-11.629 9.462-21.091 21.091-21.091s21.091,9.462 21.091,21.091c0,11.631-9.462,21.092-21.091,21.092z" fill="#6B7687"/>
    <path d="m243.491,68.939c-4.05,0-7.345,3.295-7.345,7.345 0,4.051 3.295,7.346 7.345,7.346s7.345-3.295 7.345-7.346c0-4.049-3.295-7.345-7.345-7.345z" fill="#6B7687"/>
    <path d="m257.319,116.196l-1.596-.489-9.28,4.412c-1.868,0.888-4.035,0.888-5.902,0l-9.28-4.412-1.596,.489c-2.013,0.7-3.362,2.593-3.362,4.73v21.78c5.399,1.837 11.177,2.849 17.189,2.849s11.79-1.012 17.189-2.849v-21.78c-0.001-2.138-1.349-4.03-3.362-4.73z" fill="#6B7687"/>
    <path d="m232.334,158.357l-5.112,19.847c5.877,0.033 11.374,1.698 16.059,4.568l6.117-23.748c-1.948,0.17-3.915,0.275-5.907,0.275-3.802,0.001-7.526-0.332-11.157-0.942z" fill="#6B7687"/>
    <path d="m227.045,191.945c-9.609,0-17.427,7.818-17.427,17.427s7.818,17.427 17.427,17.427 17.427-7.818 17.427-17.427-7.817-17.427-17.427-17.427z" fill="#6B7687"/>
    <path d="m154.636,253.555h-146.291c-4.609,0-8.345,3.736-8.345,8.345s3.736,8.345 8.345,8.345h146.291c4.609,0 8.345-3.736 8.345-8.345s-3.736-8.345-8.345-8.345z" fill="#6B7687"/>
    <path d="m154.636,120.648l23.02-14.842c-0.928-4.444-1.42-9.045-1.42-13.761 0-1.796 0.092-3.569 0.231-5.33l-21.831,14.075v-65.69c0-4.609-3.736-8.345-8.345-8.345h-129.6c-4.609,0-8.345,3.736-8.345,8.345v210.6h146.291v-67.497l41.871,24.896c1.162-5.665 3.869-10.771 7.655-14.866l-49.526-29.448v-38.137zm-89.346,68.597h-16.2c-4.609,0-8.345-3.736-8.345-8.345 0-4.609 3.736-8.345 8.345-8.345h16.2c4.609,0 8.345,3.736 8.345,8.345 0,4.609-3.736,8.345-8.345,8.345zm0-32.4h-16.2c-4.609,0-8.345-3.736-8.345-8.345s3.736-8.345 8.345-8.345h16.2c4.609,0 8.345,3.736 8.345,8.345s-3.736,8.345-8.345,8.345zm0-32.4h-16.2c-4.609,0-8.345-3.736-8.345-8.345s3.736-8.345 8.345-8.345h16.2c4.609,0 8.345,3.736 8.345,8.345s-3.736,8.345-8.345,8.345zm0-32.4h-16.2c-4.609,0-8.345-3.736-8.345-8.345 0-4.609 3.736-8.345 8.345-8.345h16.2c4.609,0 8.345,3.736 8.345,8.345 0,4.609-3.736,8.345-8.345,8.345zm48.6,97.2h-16.2c-4.609,0-8.345-3.736-8.345-8.345 0-4.609 3.736-8.345 8.345-8.345h16.2c4.609,0 8.345,3.736 8.345,8.345 0,4.609-3.736,8.345-8.345,8.345zm0-32.4h-16.2c-4.609,0-8.345-3.736-8.345-8.345s3.736-8.345 8.345-8.345h16.2c4.609,0 8.345,3.736 8.345,8.345s-3.736,8.345-8.345,8.345zm0-32.4h-16.2c-4.609,0-8.345-3.736-8.345-8.345s3.736-8.345 8.345-8.345h16.2c4.609,0 8.345,3.736 8.345,8.345s-3.736,8.345-8.345,8.345zm0-32.4h-16.2c-4.609,0-8.345-3.736-8.345-8.345 0-4.609 3.736-8.345 8.345-8.345h16.2c4.609,0 8.345,3.736 8.345,8.345 0,4.609-3.736,8.345-8.345,8.345z" fill="#6B7687"/>
  </g>
</svg>
