<?xml version="1.0" encoding="iso-8859-1"?>
<!DOCTYPE svg PUBLIC "-//W3C//DTD SVG 1.1//EN" "http://www.w3.org/Graphics/SVG/1.1/DTD/svg11.dtd">
<svg xmlns="http://www.w3.org/2000/svg" xmlns:xlink="http://www.w3.org/1999/xlink" version="1.1" viewBox="0 0 297 297" enable-background="new 0 0 297 297" width="512px" height="512px">
  <g>
    <path d="m54.84,184.364c-6.685,0-12.123,5.438-12.123,12.122 0,6.685 5.438,12.123 12.123,12.123 6.684,0 12.122-5.438 12.122-12.123 0-6.684-5.438-12.122-12.122-12.122z" fill="#6B7687"/>
    <path d="m265.345,240.264l-4.18-1.283-16.207,7.073c-1.784,0.779-3.811,0.779-5.595,0l-16.207-7.073-4.179,1.283c-4.821,1.639-8.055,6.151-8.055,11.25v22.552c0,4.322 3.503,7.825 7.825,7.825h46.829c4.322,0 7.825-3.503 7.825-7.825v-22.552c-0.001-5.099-3.235-9.611-8.056-11.25z" fill="#6B7687"/>
    <path d="m180.892,220.172l-6.634-2.035-22.959,10.022c-1.786,0.779-3.811,0.779-5.597,0l-22.959-10.022-6.634,2.035c-7.626,2.578-12.744,9.704-12.744,17.759v36.135c0,4.322 3.503,7.825 7.825,7.825h74.622c4.322,0 7.825-3.503 7.825-7.825v-36.135c-0.001-8.055-5.119-15.181-12.745-17.759z" fill="#6B7687"/>
    <path d="m148.5,143.834c-10.516,0-19.071,8.555-19.071,19.071s8.555,19.071 19.071,19.071 19.071-8.555 19.071-19.071-8.555-19.071-19.071-19.071z" fill="#6B7687"/>
    <path d="m78.023,240.264l-4.179-1.283-16.207,7.073c-1.784,0.779-3.811,0.779-5.595,0l-16.207-7.073-4.18,1.283c-4.821,1.639-8.055,6.151-8.055,11.25v22.552c0,4.322 3.503,7.825 7.825,7.825h46.829c4.322,0 7.825-3.503 7.825-7.825v-22.552c-0.001-5.099-3.234-9.611-8.056-11.25z" fill="#6B7687"/>
    <path d="m242.16,184.364c-6.684,0-12.122,5.438-12.122,12.122 0,6.685 5.438,12.123 12.122,12.123 6.685,0 12.123-5.438 12.123-12.123-2.84217e-14-6.684-5.438-12.122-12.123-12.122z" fill="#6B7687"/>
    <path d="m288.507,15.109h-280.014c-4.69,0-8.493,3.803-8.493,8.494v232.309c0,4.691 3.803,8.493 8.493,8.493h1.118v-12.891c0-11.154 7.11-21.018 17.692-24.545 0.053-0.018 0.106-0.035 0.16-0.052l6.746-2.07c1.596-0.488 3.319-0.391 4.849,0.277l15.782,6.888 15.782-6.888c1.531-0.669 3.251-0.765 4.85-0.277l6.745,2.07c0.053,0.017 0.106,0.034 0.159,0.052 2.859,0.953 5.453,2.381 7.734,4.159 2.37-11.194 10.466-20.523 21.649-24.252 0.053-0.018 0.106-0.035 0.16-0.052l9.197-2.822c1.599-0.488 3.318-0.39 4.851,0.277l22.535,9.837 22.535-9.837c1.533-0.668 3.251-0.766 4.851-0.277l9.197,2.822c0.054,0.017 0.107,0.034 0.16,0.052 11.183,3.728 19.279,13.058 21.649,24.252 2.28-1.778 4.875-3.206 7.734-4.159 0.053-0.018 0.106-0.035 0.159-0.052l6.745-2.07c1.599-0.488 3.319-0.391 4.85,0.277l15.782,6.888 15.782-6.888c1.531-0.669 3.252-0.765 4.849-0.277l6.746,2.07c0.054,0.017 0.107,0.034 0.16,0.052 10.582,3.526 17.692,13.391 17.692,24.545v12.891h1.118c4.691,0 8.493-3.803 8.493-8.493v-232.309c-0.004-4.691-3.807-8.494-8.497-8.494zm-233.667,207.489c-14.399,0-26.112-11.713-26.112-26.112 0-14.398 11.713-26.111 26.112-26.111 14.398,0 26.111,11.713 26.111,26.111-1.42109e-14,14.399-11.714,26.112-26.111,26.112zm93.66-26.634c-18.229,0-33.059-14.831-33.059-33.059s14.831-33.059 33.059-33.059 33.059,14.831 33.059,33.059-14.83,33.059-33.059,33.059zm59.444-91.365c-1.314,3.346-4.518,5.389-7.907,5.389-1.033,0-2.084-0.189-3.104-0.59-4.366-1.715-6.514-6.645-4.799-11.011l4.03-10.255-46.304,20.178c-1.081,0.471-2.236,0.707-3.393,0.707-1.053,0-2.108-0.196-3.107-0.588-2.096-0.824-3.779-2.447-4.679-4.512l-5.921-13.589-34.964,15.236c-4.298,1.876-9.304-0.092-11.179-4.393-1.874-4.3 0.093-9.305 4.393-11.179l42.75-18.629c2.066-0.901 4.403-0.943 6.5-0.119 2.096,0.824 3.779,2.447 4.679,4.512l5.921,13.589 40.401-17.605-12.957-5.092c-4.366-1.715-6.513-6.646-4.798-11.012 1.716-4.366 6.647-6.514 11.012-4.798l30.688,12.062c4.366,1.715 6.513,6.646 4.798,11.011l-12.06,30.688zm34.216,117.999c-14.398,0-26.111-11.713-26.111-26.112 0-14.398 11.713-26.111 26.111-26.111 14.399,0 26.112,11.713 26.112,26.111 0,14.399-11.713,26.112-26.112,26.112z" fill="#6B7687"/>
  </g>
</svg>
