<?xml version="1.0" encoding="iso-8859-1"?>
<!DOCTYPE svg PUBLIC "-//W3C//DTD SVG 1.1//EN" "http://www.w3.org/Graphics/SVG/1.1/DTD/svg11.dtd">
<svg xmlns="http://www.w3.org/2000/svg" xmlns:xlink="http://www.w3.org/1999/xlink" version="1.1" viewBox="0 0 297 297" enable-background="new 0 0 297 297" width="512px" height="512px">
  <g>
    <path d="m240.507,102.858c27.56,0 49.982-22.422 49.982-49.982s-22.422-49.981-49.982-49.981-49.981,22.421-49.981,49.981 22.421,49.982 49.981,49.982z" fill="#6B7687"/>
    <path d="M190.526,165v124.572c0,4.102,3.326,7.428,7.428,7.428h80.092c4.102,0,7.428-3.326,7.428-7.428V165   c0-26.219-21.255-47.474-47.474-47.474h0C211.781,117.526,190.526,138.781,190.526,165z" fill="#6B7687"/>
    <path d="m147.939,37.688l-130.764-37.361c-0.769-0.219-1.549-0.327-2.322-0.327-1.789,0-3.538,0.578-5.014,1.692-2.115,1.596-3.327,4.03-3.327,6.679v97.282c0,2.649 1.212,5.083 3.327,6.679 2.114,1.595 4.787,2.091 7.337,1.365l130.764-37.361c3.572-1.021 6.066-4.328 6.066-8.043v-22.562c0-3.715-2.495-7.022-6.067-8.043z" fill="#6B7687"/>
    <path d="m120.457,109.945l-33.319,10.602v-11.39l-18.039,5.154v18.571c0,2.878 1.373,5.582 3.695,7.281 1.565,1.144 3.434,1.739 5.325,1.739 0.916,0 1.838-0.14 2.734-0.425l51.358-16.342c3.743-1.191 6.285-4.667 6.285-8.595v-22.057l-18.039,5.154v10.308z" fill="#6B7687"/>
  </g>
</svg>
