<?xml version="1.0" encoding="iso-8859-1"?>
<!DOCTYPE svg PUBLIC "-//W3C//DTD SVG 1.1//EN" "http://www.w3.org/Graphics/SVG/1.1/DTD/svg11.dtd">
<svg xmlns="http://www.w3.org/2000/svg" xmlns:xlink="http://www.w3.org/1999/xlink" version="1.1" viewBox="0 0 297 297" enable-background="new 0 0 297 297" width="512px" height="512px">
  <g>
    <path d="m291.34,125.044l-23.281-23.281c-3.363-3.362-8.814-3.362-12.177,0-3.362,3.362-3.362,8.815 0,12.177l8.677,8.677h-39.633c-3.976-35.54-32.276-63.816-67.815-67.795v-25.425l8.583,8.583c1.682,1.681 3.885,2.521 6.089,2.521 2.204,0 4.407-0.841 6.089-2.521 3.362-3.362 3.362-8.815 0-12.177l-23.283-23.282c-3.363-3.361-8.814-3.361-12.177-8.88178e-16l-23.282,23.281c-3.362,3.363-3.362,8.815 0,12.177 3.363,3.361 8.814,3.361 12.177,0l8.583-8.583v25.425c-35.539,3.979-63.839,32.255-67.815,67.795h-39.633l8.677-8.677c3.362-3.362 3.362-8.815 0-12.177-3.364-3.362-8.814-3.362-12.177,0l-23.282,23.282c-3.362,3.362-3.362,8.815 0,12.177l23.281,23.281c1.682,1.681 3.885,2.522 6.089,2.522s4.407-0.841 6.089-2.522c3.362-3.362 3.362-8.815 0-12.177l-8.489-8.489h47.577c4.755,0 8.61-3.855 8.61-8.61 0-32.91 26.774-59.683 59.683-59.683s59.683,26.774 59.683,59.683c0,4.755 3.855,8.61 8.61,8.61h47.577l-8.489,8.489c-3.362,3.362-3.362,8.815 0,12.177 1.682,1.681 3.885,2.522 6.089,2.522s4.407-0.841 6.089-2.522l23.281-23.281c3.362-3.362 3.362-8.815-5.68434e-14-12.177z" fill="#6B7687"/>
    <path d="m189.453,130.449c0-22.578-18.368-40.946-40.946-40.946-22.578,0-40.946,18.368-40.946,40.946 0,22.578 18.368,40.946 40.946,40.946 22.578,0 40.946-18.368 40.946-40.946z" fill="#6B7687"/>
    <path d="m203.451,191.238l-.068-.022-21.657-3.586c-1.844-0.567-3.813,0.409-4.476,2.227l-24.574,67.425c-1.417,3.89-6.919,3.89-8.336,0l-24.574-67.425c-0.535-1.469-1.921-2.389-3.406-2.389-0.352,0-22.727,3.743-22.727,3.743-14.929,4.974-24.903,18.813-24.903,34.463v56.103c0,8.407 6.816,15.223 15.223,15.223h129.097c8.407,0 15.223-6.816 15.223-15.223v-56.289c-0.002-15.582-10.015-29.399-24.822-34.25z" fill="#6B7687"/>
    <path d="m158.563,185.791c-1.063-1.159-2.618-1.742-4.191-1.742h-11.73c-1.573,0-3.127,0.583-4.191,1.742-1.646,1.794-1.885,4.385-0.717,6.41l6.27,9.453-2.935,24.762 5.78,15.376c0.564,1.546 2.75,1.546 3.314,0l5.78-15.376-2.935-24.762 6.27-9.453c1.17-2.026 0.931-4.617-0.715-6.41z" fill="#6B7687"/>
  </g>
</svg>
