<?xml version="1.0" encoding="iso-8859-1"?>
<!DOCTYPE svg PUBLIC "-//W3C//DTD SVG 1.1//EN" "http://www.w3.org/Graphics/SVG/1.1/DTD/svg11.dtd">
<svg xmlns="http://www.w3.org/2000/svg" xmlns:xlink="http://www.w3.org/1999/xlink" version="1.1" viewBox="0 0 297 297" enable-background="new 0 0 297 297" width="512px" height="512px">
  <g>
    <path d="m233.329,159.951c17.176,0 31.149-13.973 31.149-31.149 0-17.176-13.973-31.149-31.149-31.149s-31.149,13.973-31.149,31.149c0.001,17.176 13.974,31.149 31.149,31.149z" fill="#6B7687"/>
    <path d="m96.96,40.151c4.875,0 8.827-3.952 8.827-8.827v-12.851c0-4.875-3.952-8.827-8.827-8.827-4.875,0-8.827,3.952-8.827,8.827v12.851c0,4.875 3.952,8.827 8.827,8.827z" fill="#6B7687"/>
    <path d="m19.854,104.405h12.851c4.875,0 8.827-3.952 8.827-8.827s-3.952-8.827-8.827-8.827h-12.851c-4.875,0-8.827,3.952-8.827,8.827s3.953,8.827 8.827,8.827z" fill="#6B7687"/>
    <path d="m152.388,95.578c0,4.875 3.952,8.827 8.827,8.827h12.851c4.875,0 8.827-3.952 8.827-8.827s-3.952-8.827-8.827-8.827h-12.851c-4.875,0.001-8.827,3.953-8.827,8.827z" fill="#6B7687"/>
    <path d="m146.157,56.766c2.26,0 4.518-0.862 6.242-2.585l9.087-9.087c3.447-3.447 3.447-9.037 0-12.484-3.448-3.446-9.036-3.446-12.484,0l-9.086,9.087c-3.447,3.447-3.447,9.037 0,12.484 1.723,1.723 3.982,2.585 6.241,2.585z" fill="#6B7687"/>
    <path d="m41.521,54.181c1.724,1.723 3.982,2.585 6.242,2.585 2.259,0 4.518-0.862 6.242-2.585 3.447-3.447 3.447-9.037 0-12.484l-9.087-9.087c-3.448-3.446-9.036-3.446-12.484,0-3.447,3.447-3.447,9.037 0,12.484l9.087,9.087z" fill="#6B7687"/>
    <path d="m291.35,255.162h-285.7c-3.115,0-5.65,2.534-5.65,5.65v20.893c0,3.115 2.534,5.65 5.65,5.65h285.7c3.115,0 5.65-2.534 5.65-5.65v-20.893c0-3.116-2.534-5.65-5.65-5.65z" fill="#6B7687"/>
    <path d="m172.64,201.242v37.511c0,2.18 1.767,3.947 3.947,3.947h113.474c2.18,0 3.947-1.767 3.947-3.947v-37.631c0-11.858-7.615-22.376-18.882-26.076l-.052-.017-16.475-2.728c-1.402-0.431-2.901,0.311-3.405,1.694l-18.694,51.292c-1.078,2.959-5.263,2.959-6.342,0l-18.694-51.292c-0.407-1.117-1.462-1.817-2.591-1.817-0.268,0-17.289,2.847-17.289,2.847-11.356,3.784-18.944,14.312-18.944,26.217z" fill="#6B7687"/>
    <path d="m68.171,138.981c0.426,3.037 0.814,5.883 1.162,8.51h16.935l-6.669-34.296c-0.355-1.827 0.125-3.717 1.308-5.153 1.183-1.436 2.947-2.268 4.808-2.268h22.489c1.861,0 3.625,0.832 4.808,2.268 1.183,1.436 1.663,3.325 1.308,5.153l-6.669,34.296h16.935c0.348-2.628 0.736-5.473 1.162-8.51 14.214-9.548 22.875-25.599 22.875-42.899 0-28.488-23.176-51.663-51.664-51.663-28.488,0-51.663,23.176-51.663,51.663 0.001,17.301 8.661,33.351 22.875,42.899z" fill="#6B7687"/>
    <path d="m122.645,164.583c0.072-1.141 0.215-2.709 0.419-4.629h-52.208c0.204,1.92 0.347,3.487 0.419,4.628 0.054,0.866 0.143,1.713 0.254,2.546h50.861c0.112-0.833 0.2-1.68 0.255-2.545z" fill="#6B7687"/>
    <polygon points="93.275,118.237 96.96,137.191 100.646,118.237  " fill="#6B7687"/>
    <path d="m96.96,190.582c9.012,0 16.428-4.103 20.952-10.992h-41.904c4.524,6.889 11.941,10.992 20.952,10.992z" fill="#6B7687"/>
    <path d="m240.392,171.105c-0.747-0.814-1.84-1.224-2.946-1.224h-8.245c-1.105,0-2.198,0.41-2.946,1.224-1.157,1.261-1.325,3.082-0.504,4.505l4.407,6.644-2.063,17.405 4.063,10.808c0.396,1.087 1.933,1.087 2.33,0l4.063-10.808-2.063-17.405 4.407-6.644c0.822-1.423 0.654-3.244-0.503-4.505z" fill="#6B7687"/>
  </g>
</svg>
