<?xml version="1.0" encoding="iso-8859-1"?>
<!DOCTYPE svg PUBLIC "-//W3C//DTD SVG 1.1//EN" "http://www.w3.org/Graphics/SVG/1.1/DTD/svg11.dtd">
<svg xmlns="http://www.w3.org/2000/svg" xmlns:xlink="http://www.w3.org/1999/xlink" version="1.1" viewBox="0 0 297 297" enable-background="new 0 0 297 297" width="512px" height="512px">
  <g>
    <path d="m112.632,185.074l6.88-3.972c2.804-1.619 3.765-5.205 2.146-8.01l-13.036-22.579c-1.086-1.881-3.057-2.933-5.083-2.933-0.995,0-2.003,0.253-2.926,0.787l-6.88,3.972c-0.945,0.545-1.947,0.794-2.923,0.794-3.063,0-5.872-2.449-5.872-5.872v-7.944c0-3.238-2.625-5.864-5.864-5.864h-26.073c-3.238,0-5.864,2.625-5.864,5.864v7.944c0,3.423-2.81,5.872-5.872,5.872-0.976,0-1.978-0.249-2.923-0.794l-6.88-3.972c-0.923-0.533-1.932-0.786-2.926-0.787-2.027,0-3.997,1.052-5.083,2.933l-13.036,22.579c-1.619,2.805-0.658,6.391 2.146,8.01l6.88,3.972c3.909,2.257 3.909,7.899 0,10.156l-6.88,3.972c-2.805,1.619-3.765,5.205-2.146,8.01l13.036,22.579c1.086,1.881 3.057,2.933 5.083,2.933 0.995,0 2.003-0.254 2.926-0.787l6.88-3.972c0.945-0.545 1.947-0.794 2.923-0.794 3.063,0 5.872,2.449 5.872,5.872v7.944c0,3.238 2.625,5.864 5.864,5.864h26.072c3.238,0 5.864-2.625 5.864-5.864v-7.944c0-3.423 2.81-5.872 5.872-5.872 0.976,0 1.978,0.249 2.923,0.794l6.88,3.972c0.923,0.533 1.932,0.787 2.926,0.787 2.027,0 3.997-1.052 5.083-2.933l13.036-22.579c1.619-2.805 0.658-6.391-2.146-8.01l-6.88-3.972c-3.908-2.257-3.908-7.9 0.001-10.156zm-46.594,22.474c-9.608,0-17.396-7.789-17.396-17.396 0-9.608 7.789-17.396 17.396-17.396s17.396,7.789 17.396,17.396c0,9.607-7.789,17.396-17.396,17.396z" fill="#6B7687"/>
    <path d="m108.109,23.659c-3.146-3.144-8.243-3.144-11.389,0-3.145,3.146-3.145,8.244 0,11.389l14.39,14.389c-52.889,2.619-95.701,44.162-100.334,96.506l1.19-2.062c3.406-5.9 9.756-9.565 16.57-9.564 0.144,0 0.287,0.013 0.431,0.017 9.074-37.721 41.965-66.251 81.815-68.729l-14.062,14.061c-3.145,3.145-3.145,8.244 0,11.389 1.573,1.572 3.633,2.358 5.694,2.358s4.122-0.786 5.694-2.358l28.004-28.004c1.51-1.511 2.358-3.559 2.358-5.694 0-2.136-0.848-4.184-2.358-5.694l-28.003-28.004z" fill="#6B7687"/>
    <path d="m209.868,64.857c17.881,0 32.428-14.547 32.428-32.428 0-17.882-14.547-32.429-32.428-32.429-17.881,0-32.428,14.547-32.428,32.428 0,17.881 14.547,32.429 32.428,32.429z" fill="#6B7687"/>
    <path d="m273.039,152.276v-44.58c0-12.34-7.93-23.283-19.657-27.124l-.054-.018-17.152-2.84c-1.46-0.449-3.02,0.324-3.545,1.764l-19.462,53.399c-1.123,3.081-5.48,3.081-6.602,0l-19.462-53.399c-0.424-1.163-1.522-1.892-2.698-1.892-0.279,0-17.999,2.964-17.999,2.964-11.823,3.94-19.723,14.9-19.723,27.294v44.432c0,6.659 5.398,12.056 12.056,12.056h102.241c6.66-2.84217e-14 12.057-5.398 12.057-12.056z" fill="#6B7687"/>
    <path d="m287.37,162.933c-0.673,9.215-8.233,14.858-17.45,15.526-7.062,40.425-41.207,71.64-82.979,74.237l14.061-14.061c3.145-3.146 3.145-8.244 0-11.389-3.146-3.144-8.243-3.144-11.389,0l-28.003,28.004c-3.145,3.146-3.145,8.244 0,11.389l28.003,28.003c1.573,1.572 3.633,2.358 5.694,2.358s4.122-0.786 5.694-2.358c3.145-3.145 3.145-8.244 0-11.389l-14.389-14.389c56.028-2.774 100.758-49.227 100.758-105.931z" fill="#6B7687"/>
    <path d="m216.936,77.105c-0.747-0.814-1.84-1.224-2.946-1.224h-8.245c-1.105,0-2.198,0.41-2.946,1.224-1.157,1.261-1.325,3.082-0.504,4.505l4.407,6.644-2.063,17.405 4.063,10.808c0.396,1.087 1.933,1.087 2.33,0l4.063-10.808-2.063-17.405 4.407-6.644c0.822-1.423 0.654-3.244-0.503-4.505z" fill="#6B7687"/>
  </g>
</svg>
