<?xml version="1.0" encoding="iso-8859-1"?>
<!-- Generator: Adobe Illustrator 18.0.0, SVG Export Plug-In . SVG Version: 6.00 Build 0)  -->
<!DOCTYPE svg PUBLIC "-//W3C//DTD SVG 1.1//EN" "http://www.w3.org/Graphics/SVG/1.1/DTD/svg11.dtd">
<svg xmlns="http://www.w3.org/2000/svg" xmlns:xlink="http://www.w3.org/1999/xlink" version="1.1" id="Capa_1" x="0px" y="0px" viewBox="0 0 457.172 457.172" style="enable-background:new 0 0 457.172 457.172;" xml:space="preserve" width="512px" height="512px">
<g id="XMLID_2_">
	<path id="XMLID_4_" d="M365.089,152.754c-2.058,0-3.725,1.668-3.725,3.726v34.341c0,2.058,1.668,3.726,3.725,3.726h25.29   c2.058,0,3.725-1.668,3.725-3.726v-34.341c0-2.058-1.668-3.726-3.725-3.726H365.089z" fill="#6B7687"/>
	<path id="XMLID_896_" d="M314.34,126.582c-2.058,0-3.726,1.668-3.726,3.726v60.512c0,2.058,1.668,3.726,3.726,3.726h25.29   c2.058,0,3.726-1.668,3.726-3.726v-60.512c0-2.058-1.668-3.726-3.726-3.726H314.34z" fill="#6B7687"/>
	<path id="XMLID_897_" d="M259.866,190.82c0,2.058,1.668,3.726,3.726,3.726h25.29c2.058,0,3.726-1.668,3.726-3.726v-86.491   c0-2.058-1.668-3.726-3.726-3.726h-25.29c-2.058,0-3.726,1.668-3.726,3.726V190.82z" fill="#6B7687"/>
	<path id="XMLID_898_" d="M241.859,126.798v-51.49c0-2.058-1.668-3.726-3.726-3.726h-25.29c-2.058,0-3.726,1.668-3.726,3.726v51.418   C219.66,121.258,231.878,121.586,241.859,126.798z" fill="#6B7687"/>
	<path id="XMLID_899_" d="M46.799,301.016c-1.226,0-2.437-0.085-3.634-0.237v129.794c0,11.752,9.527,21.28,21.28,21.28   s21.28-9.528,21.28-21.28V273.877l-18.804,18.804C61.546,298.056,54.4,301.016,46.799,301.016z" fill="#6B7687"/>
	<path id="XMLID_901_" d="M47.498,139.642c9.681-6.367,22.503-6.23,32.096,0.632l-5.502-14.27L60.417,90.539H42.62   c-21.691,0-39.649,16.627-41.753,37.805c-0.293,2.95-0.158-6.766-0.866,134.23c-0.049,9.794,7.85,17.773,17.644,17.822   c0.031,0,0.06,0,0.091,0c9.752,0,17.682-7.881,17.731-17.644c0.708-140.903,0.225-131.392,1.637-133.661   c0.027-0.043,0.054-0.086,0.082-0.129c0.784-1.206,2.269-1.753,3.648-1.343c1.379,0.41,2.324,1.678,2.324,3.117v3.357   C44.786,135.785,46.241,137.645,47.498,139.642z" fill="#6B7687"/>
	<path id="XMLID_957_" d="M137.087,216.874c-1.241,4.919-3.788,9.43-7.468,13.11c-6.475,6.475-27.935,27.935-34.706,34.706v165.884   c0,11.752,9.527,21.28,21.28,21.28s21.28-9.528,21.28-21.28C137.472,247.9,137.087,228.55,137.087,216.874z" fill="#6B7687"/>
	<circle id="XMLID_958_" cx="90.315" cy="42.071" r="36.753" fill="#6B7687"/>
	<path id="XMLID_959_" d="M144.834,197.325c0.032,6.421,3.533,12.323,9.152,15.43c5.619,3.106,12.48,2.934,17.934-0.454   l62.843-39.018c8.321-5.165,10.878-16.098,5.712-24.42c-5.166-8.32-16.099-10.877-24.419-5.711l-35.916,22.299l-0.104-20.808   l6.885-4.275V43.541h230.961v166.082H209.853l-28.578,17.744c-1.15,0.714-2.331,1.333-3.526,1.901h249.955   c5.425,0,9.822-4.398,9.822-9.822V33.719c0-5.424-4.398-9.822-9.822-9.822H177.099c-5.425,0-9.822,4.398-9.822,9.822v68.773   c-7.573-7.387-17.906-11.953-29.267-11.953h-17.446l-13.675,35.466l-9.057,23.488l5.297-25.003   c0.368-1.735,0.101-3.545-0.754-5.099l-7.21-13.112l6.397-11.634c0.444-0.808,0.429-1.79-0.04-2.583   c-0.469-0.793-1.322-1.28-2.244-1.28H81.702c-0.922,0-1.775,0.487-2.244,1.28c-0.469,0.794-0.485,1.776-0.041,2.583l6.41,11.659   l-7.223,13.137c-0.838,1.525-1.112,3.296-0.773,5.003l3.433,17.293c19.508,19.04,6.07,5.721,48.354,48.005   c3.68,3.68,6.227,8.191,7.468,13.11c0-1.034,0-55.67,0-72.208c0-1.253,0.72-2.394,1.851-2.932c1.131-0.539,2.471-0.38,3.444,0.409   c1.19,0.966,2.112,2.357,2.128,4.352C144.542,139.029,144.784,187.226,144.834,197.325z" fill="#6B7687"/>
	<path id="XMLID_961_" d="M56.858,157.222l-4.113,4.112l-0.634,101.542c-0.043,6.82-2.077,13.159-5.537,18.484   c0.075,0.002,0.15,0.011,0.225,0.011c2.255,0,4.51-0.86,6.231-2.581l62.698-62.698c3.441-3.441,3.441-9.02,0-12.461l-46.409-46.409   C65.878,153.782,60.299,153.781,56.858,157.222z" fill="#6B7687"/>
	<path id="XMLID_962_" d="M457.172,254.349c0-5.424-4.398-9.822-9.822-9.822H157.454c-5.425,0-9.822,4.398-9.822,9.822   s4.398,9.822,9.822,9.822h289.895C452.774,264.172,457.172,259.774,457.172,254.349z" fill="#6B7687"/>
</g>
<g>
</g>
<g>
</g>
<g>
</g>
<g>
</g>
<g>
</g>
<g>
</g>
<g>
</g>
<g>
</g>
<g>
</g>
<g>
</g>
<g>
</g>
<g>
</g>
<g>
</g>
<g>
</g>
<g>
</g>
</svg>
