<?xml version="1.0" encoding="iso-8859-1"?>
<!-- Generator: Adobe Illustrator 18.0.0, SVG Export Plug-In . SVG Version: 6.00 Build 0)  -->
<!DOCTYPE svg PUBLIC "-//W3C//DTD SVG 1.1//EN" "http://www.w3.org/Graphics/SVG/1.1/DTD/svg11.dtd">
<svg xmlns="http://www.w3.org/2000/svg" xmlns:xlink="http://www.w3.org/1999/xlink" version="1.1" id="Capa_1" x="0px" y="0px" viewBox="0 0 461.006 461.006" style="enable-background:new 0 0 461.006 461.006;" xml:space="preserve" width="512px" height="512px">
<g id="XMLID_462_">
	<path id="XMLID_978_" d="M115.266,305.774c6.015,0,11.755-2.736,15.543-7.508c4.238-5.34,5.44-12.481,3.182-18.914l-18.156-51.718   l42.27,65.662l-29.947,84.344c-3.667,10.33,1.733,21.677,12.063,25.345c10.356,3.674,21.686-1.758,25.345-12.063l21.044-59.271   c-12.984-1.813-23.011-12.984-23.011-26.458V245.06c0-4.543-1.427-19.171,12.789-27.893c-8.099-2.082-25.263-4.483-31.919-23.6   c-0.89-2.557-0.179,2.454-8.075-72.964l23.523,67.586v0c1.88,5.399,6.333,9.483,11.851,10.902l35.361,9.088   c-0.327,1.426-0.245-0.151-0.245,22.701h-16.563c-5.014,0-9.079,4.065-9.079,9.079v65.232c0,5.014,4.065,9.079,9.079,9.079h100.096   c5.014,0,9.079-4.065,9.079-9.079v-65.232c0-5.014-4.065-9.079-9.079-9.079h-16.563c0-21.589,0.036-20.55-0.042-21.435   c-0.425-4.792-4.445-8.55-9.346-8.55h-5.552c0.681-8.434-4.842-15.837-12.728-17.864c-7.121-1.83-50.023-12.857-57.085-14.672v0   l-21.302-61.204l30.861,46.081l11.166-29.243c5.005-13.108-1.564-27.792-14.672-32.797l-42.326-16.161   c-2.158-0.824-8.466-3.278-14.823-2.418L65.69,82.912c-5.506,0.784-10.283,4.205-12.797,9.166   c-2.514,4.96-2.449,10.836,0.174,15.74l35.037,65.504L74.06,211.683c-2.062,4.506-2.462,9.779-0.691,14.824l12.733,36.271   l-53.125-5.796c-10.902-1.187-20.694,6.682-21.884,17.578c-1.189,10.897,6.681,20.695,17.578,21.884l84.439,9.212   C113.832,305.735,114.551,305.774,115.266,305.774z M255.078,230.88h-29.416v-11.209h29.416V230.88z M94.603,113.218l17.396-2.477   l-7.798,20.422L94.603,113.218z" fill="#6B7687"/>
	<circle id="XMLID_1143_" cx="198.34" cy="37.619" r="37.609" fill="#6B7687"/>
	<path id="XMLID_1200_" d="M445.059,297.006h-76.5c-2.746,0-4.973,2.226-4.973,4.973l0,36.027h-81.473   c-2.746,0-4.973,2.226-4.973,4.973v36.027h-81.473c-2.746,0-4.973,2.226-4.973,4.973v36.027h-81.473   c-2.746,0-4.973,2.226-4.973,4.973v31.055c0,2.746,2.226,4.973,4.973,4.973h335.836c2.746,0,4.973-2.226,4.973-4.973V301.979   C450.031,299.233,447.805,297.006,445.059,297.006z" fill="#6B7687"/>
</g>
<g>
</g>
<g>
</g>
<g>
</g>
<g>
</g>
<g>
</g>
<g>
</g>
<g>
</g>
<g>
</g>
<g>
</g>
<g>
</g>
<g>
</g>
<g>
</g>
<g>
</g>
<g>
</g>
<g>
</g>
</svg>
