<?xml version="1.0" encoding="iso-8859-1"?>
<!-- Generator: Adobe Illustrator 18.0.0, SVG Export Plug-In . SVG Version: 6.00 Build 0)  -->
<!DOCTYPE svg PUBLIC "-//W3C//DTD SVG 1.1//EN" "http://www.w3.org/Graphics/SVG/1.1/DTD/svg11.dtd">
<svg xmlns="http://www.w3.org/2000/svg" xmlns:xlink="http://www.w3.org/1999/xlink" version="1.1" id="Capa_1" x="0px" y="0px" viewBox="0 0 460.438 460.438" style="enable-background:new 0 0 460.438 460.438;" xml:space="preserve" width="512px" height="512px">
<g id="XMLID_11_">
	<path id="XMLID_12_" d="M442.653,121.768c-0.111-22.012-18.11-39.92-40.122-39.92c-9.424,0-81.564,0-91.02,0   c-2.443,0-4.833,0.232-7.158,0.655c14.088,11.549,23.138,29.042,23.236,48.59l0.674,134.228c0.034,6.778-1.713,13.154-4.789,18.698   c4.839,4.964,7.828,11.738,7.828,19.201v72.705c0,12.369-8.201,22.857-19.451,26.318v4.705c0,11.236,9.109,20.345,20.345,20.345   s20.345-9.108,20.345-20.345V248.719c0-2.426,1.967-4.393,4.393-4.393c2.426,0,4.393,1.967,4.393,4.393v158.229   c0,11.236,9.108,20.345,20.345,20.345s20.345-9.108,20.345-20.345l-0.361-284.889c-0.002-1.936,1.549-3.516,3.485-3.549   c1.936-0.033,3.541,1.494,3.603,3.429c0,0.001,0,0.001,0,0.002l0.626,124.557c0.047,9.335,7.628,16.869,16.952,16.869   c0.028,0,0.059,0,0.087,0c9.363-0.047,16.916-7.676,16.869-17.039L442.653,121.768z" fill="#6B7687"/>
	<path id="XMLID_986_" d="M192.289,68.174c6.406,4.966,14.442,7.93,23.175,7.93s16.769-2.964,23.175-7.93   c1.744-1.352,3.373-2.845,4.855-4.476c0.407-0.448,0.804-0.906,1.19-1.374c2.701-3.273,4.863-7.007,6.349-11.067   c0.212-0.58,0.411-1.167,0.595-1.759c0.277-0.889,0.521-1.792,0.733-2.709c0.634-2.748,0.97-5.611,0.97-8.552v0   c0-11.11-4.785-21.103-12.406-28.029c-0.448-0.407-0.906-0.804-1.374-1.19c-0.8-0.66-1.633-1.281-2.486-1.875   c-5.744-3.998-12.644-6.452-20.102-6.743c-0.497-0.02-0.997-0.029-1.499-0.029s-1.002,0.01-1.499,0.029   c-7.458,0.291-14.357,2.745-20.102,6.743c-9.828,6.84-16.266,18.213-16.266,31.094C177.597,50.418,183.354,61.247,192.289,68.174z" fill="#6B7687"/>
	<path id="XMLID_987_" d="M357.164,70.648c19.391,0,35.138-15.747,35.138-35.138c0-19.407-15.732-35.139-35.138-35.139   c-19.406,0-35.138,15.732-35.138,35.139C322.026,54.908,337.78,70.648,357.164,70.648z" fill="#6B7687"/>
	<path id="XMLID_989_" d="M311.303,303.22c0-4.158-3.371-7.529-7.529-7.529h-3.187v-15.307c1.781-1.271,3.329-2.845,4.554-4.658h0   c1.986-2.94,3.123-6.423,3.123-10.304l0,0c-0.006-1.157-0.669-133.176-0.674-134.227c-0.118-23.622-19.438-43.021-43.237-43.021   h-18.201l0,0c-2.332,6.092-20.301,53.037-22.928,59.9l5.34-25.155c0.375-1.766,0.103-3.609-0.767-5.191l-7.333-13.337l6.519-11.857   c0.452-0.822,0.436-1.822-0.041-2.63s-1.315-1.73-2.253-1.73h-17.893c-0.938,0-1.838,0.922-2.316,1.73   c-0.478,0.808-0.493,1.808-0.041,2.63l6.519,11.857l-7.36,13.386c-0.854,1.552-1.132,3.356-0.787,5.094l4.669,25.203   c-2.466-6.325-19.639-52.054-22.699-59.901h-13.184c-0.01,0-0.02,0-0.031,0c0,0-7.333-0.602-12.899,5.364   c-4.822,4.831-39.195,39.271-43.877,43.962l-29.384-4.576V77.201h34.275c4.955,0,8.971-4.016,8.971-8.971V8.971   c0-4.955-4.016-8.971-8.971-8.971H26.13c-4.955,0-8.971,4.016-8.971,8.971V68.23c0,4.954,4.016,8.971,8.971,8.971h34.275v51.869   c-9.668-1.086-18.57,5.614-20.082,15.323c-1.553,9.971,5.271,19.312,15.241,20.864l4.841,0.754V177.2c0,6.903,5.597,12.5,12.5,12.5   s12.5-5.597,12.5-12.5v-7.296l32.941,5.13c5.683,0.887,11.563-0.957,15.743-5.146c7.168-7.182,25.337-25.387,32.536-32.6   c0,23.122,0.008,301.225,0.008,301.225c0,12.108,9.816,21.925,21.925,21.925c12.109,0,21.925-9.817,21.925-21.925V267.999   c0-2.614,2.119-4.733,4.733-4.733c2.614,0,4.733,2.119,4.733,4.733v170.514c0,12.109,9.816,21.925,21.925,21.925   c12.109,0,21.925-9.816,21.925-21.925v0v-38.029c-8.958-4.547-15.116-13.845-15.116-24.56V303.22   c0-10.715,6.157-20.013,15.116-24.56c0-0.183-0.303-117.494-0.38-147.182c-0.005-2.091,1.673-3.797,3.764-3.825   c2.091-0.028,3.815,1.632,3.865,3.724c0-0.001,0,0,0,0l0.675,134.228c0.018,3.652,1.111,7.144,3.121,10.12h0   c1.203,1.781,2.72,3.323,4.458,4.582v15.384h-3.089c-4.158,0-7.529,3.371-7.529,7.529v72.705c0,4.158,3.371,7.529,7.529,7.529   h27.561c4.158,0,7.529-3.371,7.529-7.529V303.22z" fill="#6B7687"/>
</g>
<g>
</g>
<g>
</g>
<g>
</g>
<g>
</g>
<g>
</g>
<g>
</g>
<g>
</g>
<g>
</g>
<g>
</g>
<g>
</g>
<g>
</g>
<g>
</g>
<g>
</g>
<g>
</g>
<g>
</g>
</svg>
