<?xml version="1.0" encoding="iso-8859-1"?>
<!-- Generator: Adobe Illustrator 18.0.0, SVG Export Plug-In . SVG Version: 6.00 Build 0)  -->
<!DOCTYPE svg PUBLIC "-//W3C//DTD SVG 1.1//EN" "http://www.w3.org/Graphics/SVG/1.1/DTD/svg11.dtd">
<svg xmlns="http://www.w3.org/2000/svg" xmlns:xlink="http://www.w3.org/1999/xlink" version="1.1" id="Capa_1" x="0px" y="0px" viewBox="0 0 458.834 458.834" style="enable-background:new 0 0 458.834 458.834;" xml:space="preserve" width="512px" height="512px">
<g id="XMLID_225_">
	<circle id="XMLID_226_" cx="351.507" cy="41.448" r="40.242" fill="#6B7687"/>
	<circle id="XMLID_1005_" cx="94.721" cy="41.448" r="40.242" fill="#6B7687"/>
	<path id="XMLID_1040_" d="M226.479,173.74l-63.815-16.406l-46.713-43.624l29.982,16.354v-7.475   c0-15.014-12.171-27.185-27.185-27.185c-52.793,0-48.889-0.035-50.479,0.081c-7.392-0.902-14.964,2.5-19.03,9.304   c-3.233,5.41-27.474,45.975-46.49,77.796c-2.236,3.743-3.148,8.13-2.588,12.454l10,77.229c1.376,10.629,11.105,18.14,21.749,16.763   c4.376-0.567,8.207-2.564,11.123-5.442l-0.426,150.674c-0.036,12.869,10.366,23.33,23.235,23.366c0.022,0,0.044,0,0.066,0   c12.838,0,23.263-10.389,23.3-23.234l0.487-172.263c0-0.022-0.001-0.044-0.001-0.066h10.048l0.013,172.265   c0.001,12.868,10.435,23.299,23.303,23.298s23.3-10.434,23.299-23.302l-0.423-222.898c-8.076-2.076-13.923-2.623-18.251-9.379   l-38.236-59.958l50.333,47.005c2.376,2.219,5.271,3.805,8.418,4.615l68.613,17.64c10.387,2.67,20.971-3.586,23.641-13.971   C243.12,186.994,236.865,176.41,226.479,173.74z M39.538,196.728l3.547-5.936v33.331L39.538,196.728z" fill="#6B7687"/>
	<path id="XMLID_1043_" d="M452.867,164.73l-50.475-48.475c-3.139-13.15-15.003-21.99-30.983-20.851h-43.931   c-15.014,0-27.185,12.171-27.185,27.185v28.789l12.287-0.991l31.024-22.835l-30.673,40.587l-59.744,4.82   c5.157,8.306,7.054,18.618,4.428,28.835c-0.94,3.658-2.397,7.045-4.267,10.109c0.023-0.002,0.046-0.001,0.069-0.003l71.317-5.753   c5.521-0.445,10.59-3.228,13.93-7.647l35.921-47.531l-21.783,58.217c-3.03,8.099-10.401,13.308-18.484,13.974   c-10.49,0.84-3.647,0.289-34.024,2.74c0,0-0.406-6.623-0.423,208.428c-0.001,12.869,10.431,23.301,23.299,23.302   c0.001,0,0.001,0,0.002,0c12.867,0,23.3-10.431,23.301-23.298l0.013-172.265h10.048c0,0.022-0.001,0.044-0.001,0.066l0.487,172.263   c0.037,12.846,10.461,23.234,23.3,23.234c0.021,0,0.045,0,0.067,0c12.868-0.036,23.271-10.498,23.234-23.366l-0.479-177.154   c3.251-2.357-0.062,1.447,51.727-66.616C460.842,182.643,459.98,171.562,452.867,164.73z M403.142,194.342v-23.524l10.342,9.932   L403.142,194.342z" fill="#6B7687"/>
</g>
<g>
</g>
<g>
</g>
<g>
</g>
<g>
</g>
<g>
</g>
<g>
</g>
<g>
</g>
<g>
</g>
<g>
</g>
<g>
</g>
<g>
</g>
<g>
</g>
<g>
</g>
<g>
</g>
<g>
</g>
</svg>
