<?xml version="1.0" encoding="iso-8859-1"?>
<!-- Generator: Adobe Illustrator 18.0.0, SVG Export Plug-In . SVG Version: 6.00 Build 0)  -->
<!DOCTYPE svg PUBLIC "-//W3C//DTD SVG 1.1//EN" "http://www.w3.org/Graphics/SVG/1.1/DTD/svg11.dtd">
<svg xmlns="http://www.w3.org/2000/svg" xmlns:xlink="http://www.w3.org/1999/xlink" version="1.1" id="Capa_1" x="0px" y="0px" viewBox="0 0 454.611 454.611" style="enable-background:new 0 0 454.611 454.611;" xml:space="preserve" width="512px" height="512px">
<g id="XMLID_230_">
	<path id="XMLID_231_" d="M422.356,47.185c-51.29-21.425-102.58,13.336-153.871-18.944v-7.233c0-5.523-4.478-10-10-10   s-10,4.477-10,10v149.337l20,10.715v-76.425c50.677,10.075,101.353-45.298,152.029-47.26c2.486-0.096,4.572-1.907,5.014-4.355   C425.972,50.571,424.652,48.144,422.356,47.185z" fill="#6B7687"/>
	<circle id="XMLID_1082_" cx="120.946" cy="37.417" r="37.417" fill="#6B7687"/>
	<path id="XMLID_1083_" d="M268.485,383.432V251.345c-6.519,1.881-13.313,1.941-20,0.006v132.655   c-14.948,3.938-22.894,16.795-43.556,26.663c0.188-1.149,0.291-2.327,0.291-3.53v-91.333c0-3.849-1.025-7.629-2.972-10.95   l-33.685-57.508c0-4.504,0-93.575,0-118.304c0-2.09,1.694-3.784,3.784-3.784c2.09,0,3.784,1.694,3.784,3.784   c0,0.14-0.004,0.284-0.011,0.431c0.207,33.203,0.124,19.815,0.331,53.026c0.041,6.615,3.697,12.677,9.528,15.801l63.979,34.276   c8.789,4.709,19.731,1.4,24.439-7.388c4.709-8.79,1.4-19.731-7.389-24.44l-54.519-29.208c-0.062-9.897-0.125-20.046-0.264-42.271   c-0.118-23.44-19.284-42.51-42.725-42.51l-18.119,0l-22.81,60.084l5.417-25.519c0.375-1.766,0.103-3.609-0.767-5.191l-7.34-13.35   l6.513-12.091c0.452-0.822,0.437-1.822-0.041-2.63c-0.478-0.808-1.346-1.303-2.285-1.303h-17.893c-0.938,0-1.807,0.495-2.285,1.303   c-0.478,0.808-0.493,1.808-0.041,2.63l6.526,12.116l-7.354,13.374c-0.854,1.552-1.132,3.356-0.787,5.094l4.693,25.567   L90.507,86.762H72.388c-23.439,0-42.605,19.07-42.724,42.51l-0.667,132.635c-0.05,9.971,7.992,18.094,17.963,18.145   c0.031,0,0.062,0,0.093,0c9.928,0,18.002-8.023,18.052-17.963l0.667-132.635c0.01-1.975,1.617-3.569,3.591-3.564   s3.572,1.607,3.572,3.582l0.008,303.475c0,11.965,9.7,21.665,21.665,21.665s21.665-9.699,21.665-21.665V259.778h9.354   l36.263,61.907v85.455c0,6.163,2.578,11.721,6.709,15.666c-17.426,6.823-26.205,15.933-30.513,22.448   c-1.076,1.628-1.171,3.716-0.246,5.435c0.925,1.719,2.719,2.785,4.671,2.785h232.147c2.173,0,4.126-1.326,4.927-3.346   c0.801-2.02,0.289-4.325-1.294-5.814C359.421,426.556,314.408,388.733,268.485,383.432z" fill="#6B7687"/>
</g>
<g>
</g>
<g>
</g>
<g>
</g>
<g>
</g>
<g>
</g>
<g>
</g>
<g>
</g>
<g>
</g>
<g>
</g>
<g>
</g>
<g>
</g>
<g>
</g>
<g>
</g>
<g>
</g>
<g>
</g>
</svg>
