<?xml version="1.0" encoding="iso-8859-1"?>
<!-- Generator: Adobe Illustrator 19.0.0, SVG Export Plug-In . SVG Version: 6.00 Build 0)  -->
<svg xmlns="http://www.w3.org/2000/svg" xmlns:xlink="http://www.w3.org/1999/xlink" version="1.1" id="Layer_1" x="0px" y="0px" viewBox="0 0 512 512" style="enable-background:new 0 0 512 512;" xml:space="preserve" width="512px" height="512px">
<g>
	<g>
		<circle cx="391.411" cy="42.141" r="42.141" fill="#6B7687"/>
	</g>
</g>
<g>
	<g>
		<path d="M378.529,299.16l-41.462,12.661V487.6c0,13.475,10.925,24.4,24.401,24.4s24.401-10.924,24.401-24.4V305.461    C383.191,303.755,380.713,301.653,378.529,299.16z" fill="#6B7687"/>
	</g>
</g>
<g>
	<g>
		<path d="M444.82,288.296c-0.017,0.012-19.237,15.165-19.254,15.177c-8.247,6.502-18.904,8.861-29.166,6.435V487.6    c0,13.475,10.925,24.4,24.401,24.4c13.475,0,24.401-10.924,24.401-24.4C445.201,277.812,445.382,291.471,444.82,288.296z" fill="#6B7687"/>
	</g>
</g>
<g>
	<g>
		<path d="M493.933,145.591c-0.132-26.4-21.717-47.876-48.118-47.876h-20.84c-2.472,6.458-22.736,59.399-25.205,65.85l5.944-27.995    c0.418-1.966,0.115-4.017-0.854-5.778l-8.161-14.843l7.255-13.196c1.08-1.965-0.343-4.377-2.589-4.377h-19.914    c-2.242,0-3.67,2.41-2.589,4.377l7.255,13.196l-8.192,14.897c-0.95,1.727-1.26,3.735-0.876,5.668l5.196,28.048    c-2.598-6.661-22.125-58.618-24.945-65.85h-20.645c-25.79,0-46.986,20.497-48.075,46.055l-8.9,54.224l-33.224,41.369    l17.209,15.747c4.77,4.364,8.059,9.741,9.855,15.497l15.25-18.989l-3.812-13.469c-3.03-10.705,3.214-21.877,13.918-24.908    l20.46-5.791c10.463-63.741,9.854-59.38,9.865-61.656c0,0,0.135-0.34,0.395-0.875c0.8-1.645,2.63-2.519,4.413-2.107    s3.044,1.999,3.044,3.828v55.795c69.694-19.724,65.226-18.738,69.006-18.738c8.979,0,16.959,6.038,19.406,14.685l4.109,14.52    l15.179-11.966v-54.83c0-2.249,1.749-4.111,3.994-4.252c2.245-0.14,4.215,1.489,4.492,3.721c0.018,0.14,0.023,0.22,0.023,0.22    c0.041,8.227,0.295,58.854,0.331,65.985l-61.869,48.772c-8.819,6.952-10.332,19.737-3.379,28.557    c6.953,8.821,19.74,10.33,28.556,3.38l69.664-54.917c4.927-3.884,7.777-9.818,7.745-16.07    C494.276,213.606,493.977,154.172,493.933,145.591z" fill="#6B7687"/>
	</g>
</g>
<g>
	<g>
		<circle cx="114.471" cy="72.62" r="39.364" fill="#6B7687"/>
	</g>
</g>
<g>
	<g>
		<path d="M252.657,267.146l-42.117-38.535c-0.056-11.159-0.243-48.208-0.299-59.359c-0.124-24.659-20.286-44.72-44.945-44.72    c-10.591,0-91.366,0-101.962,0c-24.658,0-44.822,20.061-44.945,44.72l-0.701,139.531c-0.052,10.49,8.408,19.035,18.897,19.087    c0.032,0,0.065,0,0.097,0c10.445,0,18.937-8.441,18.99-18.897l0.701-139.531c0.011-2.023,1.655-3.654,3.677-3.649    c2.022,0.006,3.657,1.646,3.658,3.668l0.009,319.253c0,12.587,10.204,22.791,22.791,22.791s22.791-10.204,22.791-22.791v-182.17    h9.841v182.172c0,12.587,10.204,22.791,22.791,22.791s22.791-10.204,22.791-22.791c0-301.248-0.403-129.006-0.414-318.974    c0-1.78,1.18-3.345,2.892-3.833s3.543,0.215,4.481,1.729c0.358,0.576,0.573,1.182,0.576,1.808    c0.033,6.698,0.306,60.886,0.34,67.667c0.027,5.296,2.264,10.341,6.171,13.917l48.244,44.143    c7.739,7.081,19.754,6.547,26.833-1.191C260.929,286.241,260.395,274.228,252.657,267.146z" fill="#6B7687"/>
	</g>
</g>
<g>
	<g>
		<path d="M411.059,202.46c-0.761-2.689-3.59-4.388-6.417-3.585L302.96,227.652c-2.758,0.78-4.368,3.66-3.586,6.417l17.432,61.591    c0.761,2.69,3.589,4.389,6.417,3.586l48.006-13.587c-3.562-12.914,0.661-27.281,11.843-36.095l33.782-26.632L411.059,202.46z     M339.762,269.772c-7.015,1.96-14.291-2.138-16.25-9.153c-1.96-7.015,2.138-14.291,9.153-16.25    c7.015-1.96,14.291,2.138,16.25,9.153C350.875,260.536,346.777,267.811,339.762,269.772z" fill="#6B7687"/>
	</g>
</g>
<g>
</g>
<g>
</g>
<g>
</g>
<g>
</g>
<g>
</g>
<g>
</g>
<g>
</g>
<g>
</g>
<g>
</g>
<g>
</g>
<g>
</g>
<g>
</g>
<g>
</g>
<g>
</g>
<g>
</g>
</svg>
