<?xml version="1.0" encoding="iso-8859-1"?>
<!-- Generator: Adobe Illustrator 19.0.0, SVG Export Plug-In . SVG Version: 6.00 Build 0)  -->
<svg xmlns="http://www.w3.org/2000/svg" xmlns:xlink="http://www.w3.org/1999/xlink" version="1.1" id="Layer_1" x="0px" y="0px" viewBox="0 0 512.005 512.005" style="enable-background:new 0 0 512.005 512.005;" xml:space="preserve" width="512px" height="512px">
<g>
	<g>
		<path d="M465.561,12.413C465.561,5.558,460.005,0,453.149,0H66.007c-6.856,0-12.413,5.558-12.413,12.413v107.333    c7.16-5.738,15.607-9.919,24.825-12.045V24.827h26.59c10.087-9.364,23.581-15.106,38.397-15.106    c14.817,0,28.311,5.741,38.397,15.106h258.931V259.42H211.364v24.826h241.785c6.856,0,12.413-5.558,12.413-12.413V12.413H465.561z    " fill="#6B7687"/>
	</g>
</g>
<g>
	<g>
		<path d="M143.408,26.647c-21.897,0-39.565,17.778-39.565,39.565c0,21.852,17.715,39.565,39.565,39.565    c21.858,0,39.565-17.72,39.565-39.565C182.973,44.373,165.277,26.647,143.408,26.647z" fill="#6B7687"/>
	</g>
</g>
<g>
	<g>
		<path d="M318.459,70.577c-4.763-4.491-11.225-6.052-17.172-4.758l-5.91-10.197c-3.125-5.391-10.029-7.226-15.422-4.105    c-2.52,1.461-4.251,3.749-5.074,6.321l-13.792-3.156c-1.04-0.238-2.123-0.226-3.16,0.034l-17.061,4.283l-13.077-7.203    c-2.234-1.232-4.974-1.102-7.083,0.34l-19.01,12.977c-3.098,2.115-3.861,6.352-1.775,9.409c2.105,3.085,6.317,3.886,9.409,1.775    l15.571-10.63l11.763,6.479c1.499,0.825,3.257,1.053,4.914,0.635l18.068-4.536l19.547,4.474l4.188,7.226l-32.928,34.916    c-0.51,0.059-69.7,8.174-70.213,8.174c-15.905,0-71.369,0-87.92,0c-24.878,0-45.056,20.272-45.177,44.951    c-0.036,7.092-0.67,133.257-0.705,140.25c-0.051,10.434,8.371,19.134,18.994,19.186c0.032,0,0.066,0,0.098,0    c10.499,0,19.034-8.484,19.088-18.994c0.004-0.932,0.687-136.768,0.705-140.251c-0.006-0.156-0.009-0.309-0.009-0.459    c0-2.209,1.79-4,4-4s4,1.79,4,4c-0.009,184.378-0.415,23.444-0.415,321.377c0,12.652,10.257,22.909,22.909,22.909    s22.909-10.257,22.909-22.909V305.982h9.891v183.111c0,12.652,10.257,22.909,22.909,22.909s22.909-10.257,22.909-22.909    l0.044-329.245c21.637-2.53,64.554-7.548,67.324-7.872c4.459-0.522,8.591-2.598,11.672-5.864l45.783-48.548    C326.483,89.893,326.13,77.812,318.459,70.577z" fill="#6B7687"/>
	</g>
</g>
<g>
</g>
<g>
</g>
<g>
</g>
<g>
</g>
<g>
</g>
<g>
</g>
<g>
</g>
<g>
</g>
<g>
</g>
<g>
</g>
<g>
</g>
<g>
</g>
<g>
</g>
<g>
</g>
<g>
</g>
</svg>
