<?xml version="1.0" encoding="iso-8859-1"?>
<!-- Generator: Adobe Illustrator 19.0.0, SVG Export Plug-In . SVG Version: 6.00 Build 0)  -->
<svg xmlns="http://www.w3.org/2000/svg" xmlns:xlink="http://www.w3.org/1999/xlink" version="1.1" id="Layer_1" x="0px" y="0px" viewBox="0 0 512.002 512.002" style="enable-background:new 0 0 512.002 512.002;" xml:space="preserve" width="512px" height="512px">
<g>
	<g>
		<path d="M433.311,223.607l-28.91-9.127c-20.015-6.317-31.12-27.665-24.801-47.68c3.401-10.775,11.16-18.96,20.72-23.243    c1.902-7.119,6.974-26.116,11.203-41.95c-33.264,0-35.735,0-83.862,0c-25.75,0-46.805,20.949-46.934,46.699l-0.732,145.704    c-0.055,10.953,8.78,19.877,19.733,19.932c0.034,0,0.068,0,0.102,0c10.906,0,19.776-8.814,19.83-19.733l0.732-145.704    c0.011-2.17,1.776-3.922,3.945-3.915c2.169,0.007,3.924,1.766,3.924,3.935l0.009,333.378c0,13.144,10.655,23.799,23.799,23.799    s23.799-10.655,23.799-23.799V291.672h10.276v190.232c0,13.144,10.655,23.799,23.799,23.799s23.799-10.655,23.799-23.799    C433.742,464.51,433.311,241.01,433.311,223.607z" fill="#6B7687"/>
	</g>
</g>
<g>
	<g>
		<circle cx="380.998" cy="47.403" r="41.104" fill="#6B7687"/>
	</g>
</g>
<g>
	<g>
		<path d="M510.052,193.842c-3.504-7.413-25.679-54.323-29.313-62.011c-6.954-14.712-20.365-25.245-35.867-28.854l-10.256,38.401    c3.849,0.478,7.32,2.655,9.425,5.911c0.702,1.086,0.008-0.26,10.741,22.445c-8.604-2.716-14.056-4.437-32.971-10.408    c-10.446-3.295-21.586,2.498-24.883,12.943c-3.237,10.256,2.372,21.546,12.943,24.883l76.281,24.079    C502.622,226.429,517.435,209.461,510.052,193.842z" fill="#6B7687"/>
	</g>
</g>
<g>
	<g>
		<path d="M183.574,223.607l-28.911-9.127c-11.02-3.478-19.33-11.518-23.526-21.378c-4.196,9.86-12.505,17.899-23.526,21.378    l-29.087,9.182l0.009,258.242c0,13.144,10.655,23.799,23.799,23.799s23.799-10.655,23.799-23.799V291.672h10.276v190.232    c0,13.144,10.655,23.799,23.799,23.799c13.145,0,23.799-10.655,23.799-23.799C184.005,464.511,183.574,241.01,183.574,223.607z" fill="#6B7687"/>
	</g>
</g>
<g>
	<g>
		<circle cx="131.27" cy="47.403" r="41.104" fill="#6B7687"/>
	</g>
</g>
<g>
	<g>
		<path d="M100.488,101.606c4.139,15.495,6.707,25.108,11.204,41.951c8.512,3.813,15.594,10.724,19.444,19.8    c3.85-9.078,10.932-15.988,19.444-19.801c1.893-7.088,6.97-26.097,11.203-41.95C158.679,101.606,130.027,101.606,100.488,101.606z    " fill="#6B7687"/>
	</g>
</g>
<g>
	<g>
		<path d="M260.314,193.841c-3.504-7.412-25.679-54.321-29.313-62.01c-6.954-14.712-20.365-25.245-35.867-28.854l-10.256,38.401    c4.476,0.555,8.368,3.398,10.261,7.404l9.903,20.95c-8.604-2.716-14.056-4.437-32.971-10.408    c-10.445-3.295-21.586,2.498-24.883,12.943c-3.238,10.256,2.372,21.546,12.943,24.883l76.281,24.079    C252.884,226.428,267.698,209.458,260.314,193.841z" fill="#6B7687"/>
	</g>
</g>
<g>
	<g>
		<path d="M115.084,172.269c-3.297-10.445-14.436-16.24-24.883-12.942L57.23,169.735l9.903-20.95    c1.898-4.016,5.794-6.85,10.261-7.404l-10.256-38.401c-15.502,3.608-28.912,14.142-35.867,28.854    c-3.684,7.794-26.284,55.602-29.313,62.011c-7.45,15.76,7.624,32.525,23.901,27.389l76.281-24.079    C112.787,193.791,118.306,182.474,115.084,172.269z" fill="#6B7687"/>
	</g>
</g>
<g>
</g>
<g>
</g>
<g>
</g>
<g>
</g>
<g>
</g>
<g>
</g>
<g>
</g>
<g>
</g>
<g>
</g>
<g>
</g>
<g>
</g>
<g>
</g>
<g>
</g>
<g>
</g>
<g>
</g>
</svg>
