<?xml version="1.0" encoding="iso-8859-1"?>
<!-- Generator: Adobe Illustrator 19.0.0, SVG Export Plug-In . SVG Version: 6.00 Build 0)  -->
<svg xmlns="http://www.w3.org/2000/svg" xmlns:xlink="http://www.w3.org/1999/xlink" version="1.1" id="Layer_1" x="0px" y="0px" viewBox="0 0 511.991 511.991" style="enable-background:new 0 0 511.991 511.991;" xml:space="preserve" width="512px" height="512px">
<g>
	<g>
		<path d="M486.852,190.378h-82.453c-6.746,0-12.215,5.468-12.215,12.215c0,6.559,5.174,11.897,11.662,12.187    c-8.552-0.017-17.18-2.555-24.686-7.842c-19.485-13.723-24.149-40.601-10.421-60.089l5.662-8.897l16.398,11.572    c3.158,2.229,7.527,1.476,9.756-1.684l7.687-10.892c2.229-3.159,1.476-7.527-1.684-9.756l-80.263-56.64    c-3.158-2.229-7.527-1.476-9.756,1.684l-7.687,10.892c-2.229,3.158-1.476,7.527,1.684,9.756l7.241,5.109    c8.964-0.143,18.053,2.403,25.982,7.901c20.143,13.967,25.172,41.644,11.191,61.807l-20.193,29.124    c5.083,14.089,14.317,26.275,26.816,35.08c5.297,3.731,10.971,6.701,16.889,8.897c-11.431,0-88.121,0-98.192,0    c0.906-1.13-3.066,4.542,58.532-84.297c7.794-11.239,4.999-26.669-6.239-34.462c-11.239-7.793-26.668-4.998-34.462,6.239    l-42.036,60.625c-6.315-5.288-51.7-43.3-57.902-48.494l48.374,23.416c-0.315-7.64-2.729-15.114-7.088-21.55    c-6.201-9.158-15.805-15.46-26.675-17.504l-37.491-7.05c-22.663-4.262-44.459,10.803-48.494,33.495l-24.628,138.48    c-1.932,10.862,0.545,22.046,6.881,31.076c11.021,15.711,26.289,16.945,34.815,18.42H88.884L53.542,159.402    c-2.184-11.107-12.96-18.348-24.068-16.159c-11.109,2.183-18.345,12.959-16.161,24.068l38.595,196.343    c1.846,9.39,9.934,16.204,19.438,16.515L31.939,482.346c-2.716,7.042,0.791,14.953,7.833,17.669    c7.044,2.716,14.954-0.793,17.669-7.833l43.189-111.984h86.281l24.694,64.029l-10.725,27.103    c-6.039,15.262,1.437,32.528,16.699,38.568c15.293,6.048,32.539-1.465,38.568-16.699l67.458-170.472    c3.627-9.165,2.473-19.532-3.081-27.677c-5.537-8.12-14.728-12.975-24.553-12.975c-0.028,0-0.058,0-0.087,0l-71.502,0.209    l4.227-21.461l-52.862-74.579c45.347,37.98,29.011,24.298,69.314,58.051c0.087,0.073,0.181,0.135,0.269,0.207    c-2.664,2.493-4.337,6.031-4.337,9.967c0,7.547,6.119,13.666,13.666,13.666c6.116,0,137.121,0,142.617,0    c7.547,0,13.666-6.119,13.666-13.666c0-3.545-1.362-6.765-3.577-9.195c3.066-0.147,6.143-0.478,9.216-1.011    c19.098-3.312,35.786-13.767,47.111-29.454h23.158c6.747-0.002,12.216-5.471,12.216-12.217    C499.067,195.847,493.598,190.378,486.852,190.378z M236.016,359.698c0-7.754-4.308-14.5-10.659-17.983l26.843-0.078    l-25.76,65.099l-10.248-26.572C227.198,379.805,236.016,370.792,236.016,359.698z" fill="#6B7687"/>
	</g>
</g>
<g>
	<g>
		<circle cx="246.579" cy="54.662" r="54.662" fill="#6B7687"/>
	</g>
</g>
<g>
</g>
<g>
</g>
<g>
</g>
<g>
</g>
<g>
</g>
<g>
</g>
<g>
</g>
<g>
</g>
<g>
</g>
<g>
</g>
<g>
</g>
<g>
</g>
<g>
</g>
<g>
</g>
<g>
</g>
</svg>
