<?xml version="1.0" encoding="iso-8859-1"?>
<!-- Generator: Adobe Illustrator 19.0.0, SVG Export Plug-In . SVG Version: 6.00 Build 0)  -->
<svg xmlns="http://www.w3.org/2000/svg" xmlns:xlink="http://www.w3.org/1999/xlink" version="1.1" id="Layer_1" x="0px" y="0px" viewBox="0 0 512 512" style="enable-background:new 0 0 512 512;" xml:space="preserve" width="512px" height="512px">
<g>
	<g>
		<path d="M61.726,152.513l-3.566-0.268c-10.791-0.815-20.195,7.281-21.004,18.07c-0.811,10.79,7.28,20.194,18.07,21.005    l23.849,1.79h4.485C70.536,184.248,61.923,169.375,61.726,152.513z" fill="#6B7687"/>
	</g>
</g>
<g>
	<g>
		<path d="M428.462,158.961l-3.284-0.116c-1.583,12.636-8.211,23.721-17.804,31.172c7.218,0.337,15.402,2.349,23.11,7.906    c9.246-1.287,16.519-9.038,16.862-18.687C447.729,168.422,439.275,159.344,428.462,158.961z" fill="#6B7687"/>
	</g>
</g>
<g>
	<g>
		<circle cx="111.498" cy="151.928" r="39.289" fill="#6B7687"/>
	</g>
</g>
<g>
	<g>
		<circle cx="247.022" cy="40.608" r="40.608" fill="#6B7687"/>
	</g>
</g>
<g>
	<g>
		<path d="M331.799,152.985c0-9.46,2.826-18.268,7.665-25.642l-8.746-13.764c-7.73-12.166-20.951-19.429-35.365-19.429h-15.986    c-2.963,7.742-21.654,56.571-24.287,63.45l5.726-26.974c0.402-1.894,0.111-3.87-0.822-5.567l-7.863-14.301l6.991-12.714    c1.041-1.893-0.331-4.217-2.494-4.217h-19.188c-2.16,0-3.537,2.322-2.494,4.217l6.991,12.714l-7.893,14.355    c-0.915,1.665-1.215,3.599-0.845,5.462l5.006,27.025c-17.648-45.261-13.101-35.409-24.035-63.45h-19.287    c-15.445,0-29.584,8.449-36.9,22.051l-4.689,8.717c5.049,7.785,7.994,17.056,7.994,27.005c0,16.69-8.265,31.477-20.907,40.514    c12.192,0,14.367-0.172,19.403,0.675c1.655-1.486,3.074-3.265,4.166-5.294c14.193-26.487,23.041-41.749,27.41-49.054    c0.41-0.686,1.229-1.015,2-0.801s1.304,0.915,1.304,1.715v79.18c3.254,6.424,5.116,13.666,5.155,21.33l0.21,41.715l0.348,68.992    c0.032,6.347-2.103,12.196-5.702,16.86v102.067c0,12.985,10.525,23.51,23.51,23.51c12.985,0,23.51-10.526,23.51-23.51V281.905    h10.151v187.92c0,12.985,10.525,23.51,23.51,23.51c12.985,0,23.51-10.526,23.51-23.51V365.096    c-4.499,0.606-8.779,0.085-12.794-1.385c-13.956-5.102-21.129-20.529-16.025-34.487l0.04-0.109    c7.877-21.559,19.796-54.443,28.353-78.569V141.938c0-0.791,0.522-1.486,1.282-1.707c0.759-0.221,1.573,0.086,1.997,0.753    l28.715,45.191c1.688,2.656,3.964,4.82,6.597,6.371c4.459-1.611,8.866-2.338,12.964-2.53    C338.931,181.432,331.799,168.029,331.799,152.985z" fill="#6B7687"/>
	</g>
</g>
<g>
	<g>
		<path d="M348.346,216.85c-1.14-6.93-2.858-12.26-3.604-14.388c-14.545,3.294-22.831,16.041-27.679,30.149    c-10.282,29.929-34.731,96.979-36.076,100.61c-2.89,7.903,1.174,16.65,9.076,19.539c7.894,2.887,16.647-1.17,19.537-9.077    c0.437-1.163,18.516-50.696,30.274-83.984l0.044,0.14C350.548,246.656,350.381,229.228,348.346,216.85z" fill="#6B7687"/>
	</g>
</g>
<g>
	<g>
		<path d="M476.368,333.223c-9.35-25.621-27.205-74.802-36.076-100.611c-5.897-17.156-15.132-27.23-27.494-30.108    c-0.753,2.156-2.457,7.461-3.589,14.348c-2.467,15.003-1.178,31.04,8.427,42.988c0.399,2.221,27.977,78.013,30.118,83.846    c2.889,7.9,11.631,11.966,19.537,9.077C475.193,349.872,479.257,341.125,476.368,333.223z" fill="#6B7687"/>
	</g>
</g>
<g>
	<g>
		<path d="M439.114,373.136l-18.524-95.649c-20.587-13.87-26.9-36.3-23.607-60.637c0.955-7.056,2.543-12.552,3.418-15.234    c-17.774,0-25.915,0-43.248,0c0.875,2.681,2.463,8.179,3.417,15.234c3.298,24.353-3.015,46.91-23.838,60.801v-0.001    l-10.597,54.709l-7.898,40.777c-1.015,5.24,3.024,10.082,8.308,10.082c3.276,0,7.223,0,11.624,0v110.501    c0,10.096,8.184,18.28,18.28,18.28s18.28-8.184,18.28-18.28V383.218c2.628,0,5.265,0,7.893,0v110.501    c0,10.096,8.184,18.28,18.28,18.28s18.28-8.184,18.28-18.28V383.218c4.4,0,8.347,0,11.624,0    C436.117,383.218,440.128,378.37,439.114,373.136z" fill="#6B7687"/>
	</g>
</g>
<g>
	<g>
		<circle cx="378.679" cy="152.989" r="36.385" fill="#6B7687"/>
	</g>
</g>
<g>
	<g>
		<path d="M75.755,204.77h-4.836c-19.565,0-35.563,15.917-35.66,35.482c-0.066,13.081-0.466,92.665-0.557,110.706    c-0.042,8.322,6.67,15.102,14.992,15.145c0.026,0,0.053,0,0.077,0c8.287,0,15.026-6.697,15.068-14.993    c0.125-24.869,0.444-88.18,0.556-110.706c0.009-1.606,1.314-2.9,2.918-2.895c1.604,0.005,2.901,1.306,2.901,2.911v19.874    c5.88-7.71,8.234-16.762,8.76-25.385C80.779,221.67,77.309,209.466,75.755,204.77z" fill="#6B7687"/>
	</g>
</g>
<g>
	<g>
		<path d="M151.032,276.04c-12.883-10.198-19.373-24.218-20.478-41.132c-0.678-10.374,0.659-20.75,3.435-30.139h-22.558h-0.128    H88.397c2.769,9.369,4.114,19.745,3.435,30.139c-1.108,16.976-7.64,31.039-20.618,41.246c0,0,0.007,216.107,0.007,217.763    c0,9.987,8.096,18.083,18.083,18.083c9.987,0,18.082-8.097,18.082-18.084V349.378c0-0.067-0.009-0.131-0.01-0.197h7.829    c-0.001,0.066-0.01,0.131-0.01,0.197v144.538c0,9.987,8.096,18.083,18.083,18.083c9.987,0,18.083-8.096,18.083-18.083    C151.359,344.93,151.032,276.04,151.032,276.04z" fill="#6B7687"/>
	</g>
</g>
<g>
	<g>
		<path d="M187.476,240.252c-0.098-19.565-16.095-35.482-35.659-35.482h-5.186c-1.554,4.696-5.024,16.9-4.218,30.139    c0.521,8.554,2.844,17.529,8.62,25.2v-19.687c0-1.739,1.407-3.149,3.145-3.153c1.739-0.004,3.153,1.398,3.162,3.137    c0.114,22.699,0.435,86.402,0.556,110.706c0.041,8.297,6.78,14.993,15.068,14.993c0.025,0,0.051,0,0.077,0    c8.322-0.042,15.034-6.823,14.992-15.145C187.943,333.135,187.543,253.477,187.476,240.252z" fill="#6B7687"/>
	</g>
</g>
<g>
</g>
<g>
</g>
<g>
</g>
<g>
</g>
<g>
</g>
<g>
</g>
<g>
</g>
<g>
</g>
<g>
</g>
<g>
</g>
<g>
</g>
<g>
</g>
<g>
</g>
<g>
</g>
<g>
</g>
</svg>
