<?xml version="1.0" encoding="iso-8859-1"?>
<!-- Generator: Adobe Illustrator 19.0.0, SVG Export Plug-In . SVG Version: 6.00 Build 0)  -->
<svg xmlns="http://www.w3.org/2000/svg" xmlns:xlink="http://www.w3.org/1999/xlink" version="1.1" id="Layer_1" x="0px" y="0px" viewBox="0 0 512 512" style="enable-background:new 0 0 512 512;" xml:space="preserve" width="512px" height="512px">
<g>
	<g>
		<path d="M335.067,78.66c-17.345-17.147-39.309-27.982-63.06-31.347V0h-31.347v47.219c-24.001,3.25-46.216,14.138-63.728,31.441    c-17.439,17.251-28.568,39.246-32.131,63.101h15.882h15.977h158.678h15.977h15.882C363.635,117.906,352.507,95.911,335.067,78.66z    " fill="#6B7687"/>
	</g>
</g>
<g>
	<g>
		<path d="M256.334,268.278c-11.839,0-21.462,9.634-21.462,21.473c0,11.828,9.623,21.462,21.462,21.462s21.462-9.634,21.462-21.462    C277.797,277.911,268.173,268.278,256.334,268.278z" fill="#6B7687"/>
	</g>
</g>
<g>
	<g>
		<polygon points="362.287,480.653 346.614,480.653 165.386,480.653 149.713,480.653 123.016,480.653 123.016,512 149.713,512     362.287,512 388.984,512 388.984,480.653   " fill="#6B7687"/>
	</g>
</g>
<g>
	<g>
		<path d="M438.429,283.278v-40.141h-0.001v-21.149h-31.347v21.149h-44.794v-70.029h-15.674H330.94H181.06h-15.673h-15.673v70.029    h-44.794v-21.149H73.572v21.149h-0.001v40.142h-27.98v31.347h27.98v36.001h0.001v25.29h31.347v-25.291h44.794v98.68h15.673h15.673    h149.88h15.673h15.674v-98.68h44.794v25.29h31.347v-25.29h0.001v-36.001h27.98v-31.347H438.429z M256.334,342.559    c-29.121,0-52.809-23.698-52.809-52.809c0-29.121,23.688-52.82,52.809-52.82c29.121,0,52.809,23.698,52.809,52.82    C309.144,318.861,285.456,342.559,256.334,342.559z" fill="#6B7687"/>
	</g>
</g>
<g>
</g>
<g>
</g>
<g>
</g>
<g>
</g>
<g>
</g>
<g>
</g>
<g>
</g>
<g>
</g>
<g>
</g>
<g>
</g>
<g>
</g>
<g>
</g>
<g>
</g>
<g>
</g>
<g>
</g>
</svg>
