<?xml version="1.0" encoding="iso-8859-1"?>
<!-- Generator: Adobe Illustrator 19.0.0, SVG Export Plug-In . SVG Version: 6.00 Build 0)  -->
<svg xmlns="http://www.w3.org/2000/svg" xmlns:xlink="http://www.w3.org/1999/xlink" version="1.1" id="Layer_1" x="0px" y="0px" viewBox="0 0 512 512" style="enable-background:new 0 0 512 512;" xml:space="preserve" width="512px" height="512px">
<g>
	<g>
		<path d="M326.761,223.639c-8.509,0-15.431,6.922-15.431,15.432c0,8.509,6.922,15.431,15.431,15.431    c8.51,0,15.432-6.922,15.432-15.431C342.193,230.561,335.27,223.639,326.761,223.639z" fill="#6B7687"/>
	</g>
</g>
<g>
	<g>
		<path d="M409.803,92.011H243.719l-9.275,314.564h184.636L409.803,92.011z M326.761,284.918c-25.281,0-45.848-20.567-45.848-45.848    c0-25.282,20.567-45.849,45.848-45.849c25.282,0,45.849,20.567,45.849,45.849C372.61,264.351,352.042,284.918,326.761,284.918z" fill="#6B7687"/>
	</g>
</g>
<g>
	<g>
		<polygon points="233.546,436.992 231.335,512 274.676,512 275.414,436.992   " fill="#6B7687"/>
	</g>
</g>
<g>
	<g>
		<polygon points="419.976,436.992 378.109,436.992 378.847,512 422.188,512   " fill="#6B7687"/>
	</g>
</g>
<g>
	<g>
		<polygon points="347.691,436.992 305.832,436.992 305.094,512 348.428,512   " fill="#6B7687"/>
	</g>
</g>
<g>
	<g>
		<rect x="295.666" width="62.183" height="61.594" fill="#6B7687"/>
	</g>
</g>
<g>
	<g>
		<polygon points="187.359,30.417 187.359,0 152.144,0 136.935,0 89.812,0 89.812,512 152.144,512 152.144,152.086 187.359,152.086     187.359,121.669 152.144,121.669 152.144,111.53 187.359,111.53 187.359,81.113 152.144,81.113 152.144,70.974 187.359,70.974     187.359,40.556 152.144,40.556 152.144,30.417   " fill="#6B7687"/>
	</g>
</g>
<g>
</g>
<g>
</g>
<g>
</g>
<g>
</g>
<g>
</g>
<g>
</g>
<g>
</g>
<g>
</g>
<g>
</g>
<g>
</g>
<g>
</g>
<g>
</g>
<g>
</g>
<g>
</g>
<g>
</g>
</svg>
