<?xml version="1.0" encoding="iso-8859-1"?>
<!-- Generator: Adobe Illustrator 19.0.0, SVG Export Plug-In . SVG Version: 6.00 Build 0)  -->
<svg xmlns="http://www.w3.org/2000/svg" xmlns:xlink="http://www.w3.org/1999/xlink" version="1.1" id="Layer_1" x="0px" y="0px" viewBox="0 0 512 512" style="enable-background:new 0 0 512 512;" xml:space="preserve" width="512px" height="512px">
<g>
	<g>
		<path d="M511.927,110.445l-241.723,0.045c3.259-5.751,7.046-13.61,7.044-26.685c-0.003-14.569-4.709-22.669-8.145-28.583    c-2.597-4.47-4.028-6.932-4.029-13.312c-0.001-6.379,1.428-8.842,4.024-13.313c3.435-5.915,8.136-14.016,8.133-28.586    l-30.413,0.006c0.001,6.379-1.428,8.842-4.024,13.313c-3.435,5.915-8.136,14.016-8.133,28.586    c0.003,14.569,4.709,22.669,8.145,28.583c2.597,4.47,4.028,6.932,4.029,13.311c0.001,6.377-1.428,8.839-4.024,13.309    c-1.996,3.438-4.414,7.625-6.095,13.378l-30.808,0.006l0.053,290.026c0.003,16.223-6.313,31.476-17.781,42.948    c-11.469,11.474-26.719,17.794-42.942,17.797l-46.867,0.009c-0.002,0-0.008,0-0.01,0c-33.486,0-60.728-27.237-60.735-60.721    l-0.053-290.027L0,110.539l0.073,401.449L512,511.895L511.927,110.445z M271.294,176.367h183.445v64.59H271.294V176.367z     M454.739,267.343v45.633h-47.215v-45.633H454.739z M318.51,446.043h-47.215v-45.633h47.215V446.043z M318.51,379.51h-47.215    v-45.633h47.215V379.51z M318.51,312.976h-47.215v-45.633h47.215V312.976z M386.625,446.043h-47.216v-45.633h47.216V446.043z     M386.625,379.51h-47.216v-45.633h47.216V379.51z M386.625,312.976h-47.216v-45.633h47.216V312.976z M407.524,333.876h47.215    v45.633h-47.215V333.876z M454.74,446.043h-47.215v-45.633h47.215V446.043z" fill="#6B7687"/>
	</g>
</g>
<g>
	<g>
		<path d="M175.511,202.658l-107.51,0.02l0.036,197.875c0.003,16.716,13.606,30.314,30.323,30.314c0.002,0,0.003,0,0.005,0    l46.867-0.009c16.719-0.003,30.319-13.607,30.315-30.327L175.511,202.658z" fill="#6B7687"/>
	</g>
</g>
<g>
	<g>
		<path d="M175.494,97.754c-0.002-8.099-3.157-15.712-8.886-21.438c-5.726-5.724-13.338-8.876-21.435-8.876    c-0.002,0-0.004,0-0.006,0l-46.869,0.008c-8.099,0.002-15.712,3.157-21.438,8.886c-5.725,5.727-8.879,13.342-8.877,21.44    l0.013,74.493l107.51-0.02L175.494,97.754z" fill="#6B7687"/>
	</g>
</g>
<g>
</g>
<g>
</g>
<g>
</g>
<g>
</g>
<g>
</g>
<g>
</g>
<g>
</g>
<g>
</g>
<g>
</g>
<g>
</g>
<g>
</g>
<g>
</g>
<g>
</g>
<g>
</g>
<g>
</g>
</svg>
