<?xml version="1.0" encoding="iso-8859-1"?>
<!-- Generator: Adobe Illustrator 19.0.0, SVG Export Plug-In . SVG Version: 6.00 Build 0)  -->
<svg xmlns="http://www.w3.org/2000/svg" xmlns:xlink="http://www.w3.org/1999/xlink" version="1.1" id="Layer_1" x="0px" y="0px" viewBox="0 0 512 512" style="enable-background:new 0 0 512 512;" xml:space="preserve" width="512px" height="512px">
<g>
	<g>
		<path d="M370.49,211.503h-66.252c-17.897,0-32.515,14.305-33.017,32.084h132.285C403.005,225.808,388.388,211.503,370.49,211.503z    " fill="#6B7687"/>
	</g>
</g>
<g>
	<g>
		<path d="M207.761,211.503H141.51c-17.897,0-32.515,14.305-33.017,32.084h132.285C240.276,225.808,225.658,211.503,207.761,211.503    z" fill="#6B7687"/>
	</g>
</g>
<g>
	<g>
		<path d="M445.492,72.109v30.417h18.046v33.835c-17.993-17.44-42.504-28.195-69.482-28.195H117.945    c-26.978,0-51.488,10.753-69.482,28.195v-33.835h18.046V72.109H0v30.417h18.046v105.539v35.521v30.417v135.42v30.466h30.417    v-30.466h415.075v30.466h30.417v-30.466v-135.42v-30.417v-35.521V102.527H512V72.109H445.492z M463.537,274.004h-29.6H271.209    h-30.417H78.063h-29.6v-30.417h29.624c0.51-34.549,28.755-62.501,63.423-62.501h66.252c19.295,0,36.593,8.668,48.239,22.301    c11.647-13.634,28.944-22.301,48.239-22.301h66.252c34.668,0,62.914,27.952,63.423,62.501h29.624V274.004z" fill="#6B7687"/>
	</g>
</g>
<g>
</g>
<g>
</g>
<g>
</g>
<g>
</g>
<g>
</g>
<g>
</g>
<g>
</g>
<g>
</g>
<g>
</g>
<g>
</g>
<g>
</g>
<g>
</g>
<g>
</g>
<g>
</g>
<g>
</g>
</svg>
