<?xml version="1.0" encoding="iso-8859-1"?>
<!-- Generator: Adobe Illustrator 19.0.0, SVG Export Plug-In . SVG Version: 6.00 Build 0)  -->
<svg xmlns="http://www.w3.org/2000/svg" xmlns:xlink="http://www.w3.org/1999/xlink" version="1.1" id="Layer_1" x="0px" y="0px" viewBox="0 0 512 512" style="enable-background:new 0 0 512 512;" xml:space="preserve" width="512px" height="512px">
<g>
	<g>
		<path d="M474.485,17.991H37.515C16.829,17.991,0,34.82,0,55.505v255.887h30.417h451.166H512V55.505    C512,34.82,495.171,17.991,474.485,17.991z M255.999,277.522c-20.284,0-36.786-16.502-36.786-36.787s16.501-36.787,36.786-36.787    s36.786,16.502,36.786,36.787S276.284,277.522,255.999,277.522z M301.858,202.703c-12.272-12.273-28.559-19.032-45.858-19.032    s-33.585,6.76-45.858,19.032l-21.508-21.508c18.018-18.018,41.941-27.942,67.365-27.942c25.424,0,49.348,9.923,67.365,27.942    L301.858,202.703z M337.688,166.873c-21.86-21.86-50.87-33.898-81.688-33.898c-30.818,0-59.829,12.038-81.687,33.898    l-21.508-21.508c27.604-27.605,64.252-42.807,103.196-42.807c38.943,0,75.593,15.203,103.195,42.807L337.688,166.873z     M373.518,131.042C342.073,99.597,300.338,82.28,256,82.28s-86.074,17.318-117.518,48.763l-21.508-21.508    c37.19-37.19,86.563-57.672,139.026-57.672s101.836,20.482,139.026,57.672L373.518,131.042z" fill="#6B7687"/>
	</g>
</g>
<g>
	<g>
		<path d="M255.999,234.366c-3.512,0-6.368,2.857-6.368,6.369c0,3.512,2.856,6.369,6.368,6.369c3.512,0,6.368-2.857,6.368-6.369    C262.368,237.223,259.512,234.366,255.999,234.366z" fill="#6B7687"/>
	</g>
</g>
<g>
	<g>
		<path d="M481.582,341.811H30.417H0v44.7c0,20.686,16.829,37.515,37.515,37.515h134.503l-5.733,39.567h-28.913v30.417h24.506    h188.242h24.506v-30.417h-28.913l-5.733-39.567h134.503c20.686,0,37.515-16.829,37.515-37.515v-44.7H481.582z M276.948,394.07    h-41.897v-30.417h41.897V394.07z" fill="#6B7687"/>
	</g>
</g>
<g>
</g>
<g>
</g>
<g>
</g>
<g>
</g>
<g>
</g>
<g>
</g>
<g>
</g>
<g>
</g>
<g>
</g>
<g>
</g>
<g>
</g>
<g>
</g>
<g>
</g>
<g>
</g>
<g>
</g>
</svg>
