<?xml version="1.0" encoding="iso-8859-1"?>
<!-- Generator: Adobe Illustrator 19.0.0, SVG Export Plug-In . SVG Version: 6.00 Build 0)  -->
<svg xmlns="http://www.w3.org/2000/svg" xmlns:xlink="http://www.w3.org/1999/xlink" version="1.1" id="Layer_1" x="0px" y="0px" viewBox="0 0 511.999 511.999" style="enable-background:new 0 0 511.999 511.999;" xml:space="preserve" width="512px" height="512px">
<g>
	<g>
		<path d="M279.823,234.708v140.933h122.659V234.708H279.823z M382.117,345.731h-81.929v-30.417h81.929V345.731z M382.117,295.035    h-81.929v-30.417h81.929V295.035z" fill="#6B7687"/>
	</g>
</g>
<g>
	<g>
		<path d="M339.441,31.099C333.134,13.016,315.919,0,295.713,0c-20.206,0-37.421,13.016-43.729,31.099h-6.43    c-70.459,0-127.781,57.322-127.781,127.781v41.018H94.309v148.235h77.342V199.897h-23.463v-41.018    c0-53.686,43.677-97.363,97.364-97.363h6.43c1.026,2.942,2.338,5.751,3.908,8.39c-39.206,15.817-66.947,54.257-66.947,99.06    v343.034h213.538V406.058H249.406V204.291h153.076v-35.324c0-44.802-27.742-83.243-66.947-99.06    c1.571-2.639,2.882-5.448,3.908-8.39h78.247v-0.001V31.099H339.441z" fill="#6B7687"/>
	</g>
</g>
<g>
</g>
<g>
</g>
<g>
</g>
<g>
</g>
<g>
</g>
<g>
</g>
<g>
</g>
<g>
</g>
<g>
</g>
<g>
</g>
<g>
</g>
<g>
</g>
<g>
</g>
<g>
</g>
<g>
</g>
</svg>
