<?xml version="1.0" encoding="iso-8859-1"?>
<!-- Generator: Adobe Illustrator 19.0.0, SVG Export Plug-In . SVG Version: 6.00 Build 0)  -->
<svg xmlns="http://www.w3.org/2000/svg" xmlns:xlink="http://www.w3.org/1999/xlink" version="1.1" id="Layer_1" x="0px" y="0px" viewBox="0 0 512 512" style="enable-background:new 0 0 512 512;" xml:space="preserve" width="512px" height="512px">
<g>
	<g>
		<path d="M322.598,255.865v-30.417h21.906c-2.304-13.448-7.604-25.886-15.193-36.595l-15.465,15.465l-21.508-21.508l15.465-15.465    c-10.709-7.589-23.146-12.89-36.595-15.193v21.906h-30.417v-21.906c-13.448,2.304-25.886,7.604-36.595,15.193l15.465,15.465    l-21.508,21.508l-15.465-15.465c-7.589,10.709-12.89,23.146-15.193,36.595h21.906v30.417h-21.906    c2.304,13.448,7.604,25.885,15.194,36.594l15.465-15.465l21.508,21.508l-15.465,15.465c10.709,7.589,23.146,12.89,36.594,15.193    v-21.906h30.417v21.906c13.448-2.304,25.885-7.604,36.594-15.193l-15.465-15.465l21.508-21.508l15.465,15.465    c7.589-10.709,12.89-23.146,15.194-36.594H322.598z M256,270.635c-16.556,0-29.978-13.422-29.978-29.978    c0-16.556,13.422-29.978,29.978-29.978c16.557,0,29.978,13.422,29.978,29.978C285.978,257.213,272.556,270.635,256,270.635z" fill="#6B7687"/>
	</g>
</g>
<g>
	<g>
		<path d="M99.836,81.112v29.213h16.582v30.417H99.836v184.62h16.582v30.417H99.836v44.421h331.05V81.112H99.836z M399.417,255.865    h-24.159C367.76,314.998,317.136,360.872,256,360.872c-66.287,0-120.216-53.929-120.216-120.216    C135.783,174.369,189.712,120.441,256,120.441c61.136,0,111.76,45.874,119.258,105.007h24.159V255.865z" fill="#6B7687"/>
	</g>
</g>
<g>
	<g>
		<path d="M0,0v481.313h30.417V512h30.417v-30.687h390.331V512h30.417v-30.687H512V0H0z M461.304,430.618H69.419v-74.838H52.837    v-30.417h16.582v-184.62H52.837v-30.417h16.582v-59.63h391.885V430.618z" fill="#6B7687"/>
	</g>
</g>
<g>
</g>
<g>
</g>
<g>
</g>
<g>
</g>
<g>
</g>
<g>
</g>
<g>
</g>
<g>
</g>
<g>
</g>
<g>
</g>
<g>
</g>
<g>
</g>
<g>
</g>
<g>
</g>
<g>
</g>
</svg>
