<?xml version="1.0" encoding="iso-8859-1"?>
<!-- Generator: Adobe Illustrator 19.0.0, SVG Export Plug-In . SVG Version: 6.00 Build 0)  -->
<svg xmlns="http://www.w3.org/2000/svg" xmlns:xlink="http://www.w3.org/1999/xlink" version="1.1" id="Layer_1" x="0px" y="0px" viewBox="0 0 512 512" style="enable-background:new 0 0 512 512;" xml:space="preserve" width="512px" height="512px">
<g>
	<g>
		<path d="M182.095,334.78c-7.268,0-13.181,5.912-13.181,13.181c0,7.268,5.913,13.181,13.181,13.181s13.181-5.913,13.181-13.181    C195.276,340.693,189.362,334.78,182.095,334.78z" fill="#6B7687"/>
	</g>
</g>
<g>
	<g>
		
			<rect x="291.524" y="293.05" transform="matrix(0.7071 -0.7071 0.7071 0.7071 -119.077 316.334)" width="61.573" height="17.711" fill="#6B7687"/>
	</g>
</g>
<g>
	<g>
		<rect x="155.351" y="220.21" width="73.681" height="24.044" fill="#6B7687"/>
	</g>
</g>
<g>
	<g>
		<path d="M472.715,91.949H348.559V63.476c0-22.539-18.338-40.877-40.877-40.877H204.319c-22.539,0-40.877,18.338-40.877,40.877    v28.473H39.286C17.624,91.949,0,109.571,0,131.234v318.882c0,21.662,17.624,39.285,39.286,39.285h433.429    c21.661,0,39.285-17.623,39.285-39.285V131.234C512,109.571,494.376,91.949,472.715,91.949z M193.859,63.476    c0-5.767,4.692-10.459,10.459-10.459h103.363c5.767,0,10.459,4.692,10.459,10.459v28.473H193.859V63.476z M84.988,474.192H54.571    v-29.403h30.417V474.192z M84.988,425.958H54.571v-29.403h30.417V425.958z M84.988,377.726H54.571v-29.403h30.417V377.726z     M84.988,329.492H54.571v-29.403h30.417V329.492z M84.988,281.259H54.571v-29.403h30.417V281.259z M84.988,233.027H54.571v-29.403    h30.417V233.027z M84.988,184.793H54.571V155.39h30.417V184.793z M84.988,136.561H54.571v-29.403h30.417V136.561z     M124.933,189.791h134.512v84.878H124.933V189.791z M182.095,391.558c-24.04,0-43.598-19.558-43.598-43.598    c0-24.04,19.558-43.598,43.598-43.598c24.04,0,43.598,19.557,43.598,43.598C225.693,372,206.135,391.558,182.095,391.558z     M306.811,372.947l-55.539-55.541l86.554-86.555l55.54,55.541L306.811,372.947z M457.43,474.192h-30.417v-29.403h30.417V474.192z     M457.43,425.958h-30.417v-29.403h30.417V425.958z M457.43,377.726h-30.417v-29.403h30.417V377.726z M457.43,329.492h-30.417    v-29.403h30.417V329.492z M457.43,281.259h-30.417v-29.403h30.417V281.259z M457.43,233.027h-30.417v-29.403h30.417V233.027z     M457.43,184.793h-30.417V155.39h30.417V184.793z M457.43,136.561h-30.417v-29.403h30.417V136.561z" fill="#6B7687"/>
	</g>
</g>
<g>
</g>
<g>
</g>
<g>
</g>
<g>
</g>
<g>
</g>
<g>
</g>
<g>
</g>
<g>
</g>
<g>
</g>
<g>
</g>
<g>
</g>
<g>
</g>
<g>
</g>
<g>
</g>
<g>
</g>
</svg>
