<?xml version="1.0" encoding="iso-8859-1"?>
<!-- Generator: Adobe Illustrator 19.0.0, SVG Export Plug-In . SVG Version: 6.00 Build 0)  -->
<svg xmlns="http://www.w3.org/2000/svg" xmlns:xlink="http://www.w3.org/1999/xlink" version="1.1" id="Layer_1" x="0px" y="0px" viewBox="0 0 512 512" style="enable-background:new 0 0 512 512;" xml:space="preserve" width="512px" height="512px">
<g>
	<g>
		<path d="M389.742,77.553H329.99V30.417h15.146V0H166.865v30.417h15.146v47.135h-59.752c-19.059,0-34.566,15.506-34.566,34.566    V438.41c0,19.059,15.506,34.566,34.566,34.566h26.268V512h30.417v-39.024h154.114V512h30.417v-39.024h26.268    c19.059,0,34.566-15.506,34.566-34.566V112.119C424.308,93.058,408.802,77.553,389.742,77.553z M179.349,408.086h-30.417V229.638    h30.417V408.086z M212.426,30.417h87.146v47.135h-87.146V30.417z M240.589,408.086h-30.417V229.638h30.417V408.086z     M301.829,408.086h-30.417V229.638h30.417V408.086z M316.834,190.41H195.166v-46.294h121.669V190.41z M363.068,408.086h-30.417    V229.638h30.417V408.086z" fill="#6B7687"/>
	</g>
</g>
<g>
</g>
<g>
</g>
<g>
</g>
<g>
</g>
<g>
</g>
<g>
</g>
<g>
</g>
<g>
</g>
<g>
</g>
<g>
</g>
<g>
</g>
<g>
</g>
<g>
</g>
<g>
</g>
<g>
</g>
</svg>
