<?xml version="1.0" encoding="iso-8859-1"?>
<!-- Generator: Adobe Illustrator 19.0.0, SVG Export Plug-In . SVG Version: 6.00 Build 0)  -->
<svg xmlns="http://www.w3.org/2000/svg" xmlns:xlink="http://www.w3.org/1999/xlink" version="1.1" id="Layer_1" x="0px" y="0px" viewBox="0 0 512 512" style="enable-background:new 0 0 512 512;" xml:space="preserve" width="512px" height="512px">
<g>
	<g>
		<path d="M209.263,13.234c-0.521-1.479-1.043-2.983-1.559-4.502c-42.015,15.786-74.228,51.591-85.025,95.796    c3.558,1.839,5.889,4.212,7.41,5.767c0.813,0.83,1.054,1.063,1.336,1.239c11.215,7.009,27.244,4.267,38.504-0.634    c5.22-2.273,7.826-6.527,12.546-17.368c6.62-15.204,12.843-28.862,21.983-42.034c0.677-0.975,1.366-1.948,2.055-2.922    c3.888-5.492,7.246-10.234,7.507-14.433C214.409,27.859,212.024,21.082,209.263,13.234z" fill="#6B7687"/>
	</g>
</g>
<g>
	<g>
		<path d="M386,93.41c-8.565,8.129-18.777,14.155-28.436,16.47c-6.735,1.614-16.792,7.411-15.108,16.094    c1.589,8.196,7.629,15.539,14.621,24.041c3.523,4.283,7.165,8.711,10.47,13.582c9.385,13.832,6.308,27.975,4.271,37.334    c-1.266,5.815-1.733,8.735-0.967,9.609c0.207,0.236,0.42,0.449,0.636,0.648c13.7-21.349,21.651-46.741,21.651-73.993    C393.138,121.884,390.627,107.161,386,93.41z" fill="#6B7687"/>
	</g>
</g>
<g>
	<g>
		<path d="M327.982,341.629c-14.116-21.643-26.308-40.348-26.406-63.206v-0.276c0-13.221-2.183-36.013-8.333-56.739    c-8.209-27.657-20.756-41.68-37.294-41.68s-29.085,14.023-37.294,41.68c-6.151,20.725-8.333,43.518-8.333,56.739    c0,22.985-12.238,41.752-26.408,63.484c-17.19,26.36-36.674,56.239-36.674,99.439v16.777v10.307v23.411h28.169v-14.471    l46.816,14.859h19.639V512h28.169v-20.049h19.639l46.816-14.859v14.471h28.169v-23.411v-10.307v-16.777    C364.655,397.867,345.172,367.989,327.982,341.629z M275.266,272.696h-38.64v-33.391h38.64V272.696z" fill="#6B7687"/>
	</g>
</g>
<g>
	<g>
		<path d="M255.944,0c-5.285,0-10.496,0.309-15.625,0.892c0.148,0.421,0.292,0.835,0.441,1.261    c3.466,9.853,7.395,21.019,6.585,34.062c-0.849,13.674-7.909,23.646-13.582,31.657c-0.628,0.887-1.254,1.772-1.872,2.662    c-7.422,10.696-12.688,22.286-18.802,36.329c-4.913,11.282-11.64,26.732-29.832,34.652c-11.713,5.099-23.722,7.638-35.124,7.638    c-10.51,0.001-20.499-2.164-29.27-6.462c1.768,44.873,25.1,84.193,59.911,107.924c1.505-12.228,4.015-25.719,7.869-38.708    c5.577-18.79,12.986-33.174,22.65-43.975c12.641-14.127,28.773-21.594,46.654-21.594s34.015,7.467,46.654,21.594    c9.665,10.801,17.073,25.186,22.65,43.976c3.854,12.986,6.363,26.475,7.868,38.699c6.039-4.124,11.739-8.708,17.037-13.716    c-1.564-1.325-3.049-2.776-4.435-4.361c-11.976-13.684-8.7-28.738-6.532-38.699c1.527-7.016,1.865-9.806,0.726-11.486    c-2.441-3.596-5.446-7.251-8.628-11.119c-8.629-10.492-18.411-22.383-21.612-38.894c-5.453-28.122,16.593-49.286,40.106-54.922    c3.586-0.859,9.971-4.52,15.508-10.522c1.976-2.141,3.488-4.192,4.629-6.077C345.293,24.136,303.439,0,255.944,0z" fill="#6B7687"/>
	</g>
</g>
<g>
</g>
<g>
</g>
<g>
</g>
<g>
</g>
<g>
</g>
<g>
</g>
<g>
</g>
<g>
</g>
<g>
</g>
<g>
</g>
<g>
</g>
<g>
</g>
<g>
</g>
<g>
</g>
<g>
</g>
</svg>
