<?xml version="1.0" encoding="iso-8859-1"?>
<!-- Generator: Adobe Illustrator 19.0.0, SVG Export Plug-In . SVG Version: 6.00 Build 0)  -->
<svg xmlns="http://www.w3.org/2000/svg" xmlns:xlink="http://www.w3.org/1999/xlink" version="1.1" id="Layer_1" x="0px" y="0px" viewBox="0 0 512 512" style="enable-background:new 0 0 512 512;" xml:space="preserve" width="512px" height="512px">
<g>
	<g>
		<path d="M363.751,249.649c-22.42-34.381-41.788-64.095-41.951-101.209v-0.469C321.8,116.716,310.633,0,256.003,0    c-54.632,0-65.798,116.716-65.798,147.971c0,37.334-19.444,67.152-41.957,101.678c-26.36,40.425-56.238,86.243-56.238,151.936    v26.116v12.218v40.268h33.391v-29.67l78.914,25.045h34.989V512h33.391v-36.438h34.988l78.915-25.045v29.67h33.391v-40.269v-12.218    v-26.116C419.99,335.892,390.111,290.074,363.751,249.649z M284.374,150.469h-56.742v-33.391h56.742V150.469z" fill="#6B7687"/>
	</g>
</g>
<g>
</g>
<g>
</g>
<g>
</g>
<g>
</g>
<g>
</g>
<g>
</g>
<g>
</g>
<g>
</g>
<g>
</g>
<g>
</g>
<g>
</g>
<g>
</g>
<g>
</g>
<g>
</g>
<g>
</g>
</svg>
