<?xml version="1.0" encoding="iso-8859-1"?>
<!-- Generator: Adobe Illustrator 19.0.0, SVG Export Plug-In . SVG Version: 6.00 Build 0)  -->
<svg xmlns="http://www.w3.org/2000/svg" xmlns:xlink="http://www.w3.org/1999/xlink" version="1.1" id="Layer_1" x="0px" y="0px" viewBox="0 0 512 512" style="enable-background:new 0 0 512 512;" xml:space="preserve" width="512px" height="512px">
<g>
	<g>
		<rect x="0.295" y="464.26" width="30.382" height="47.74" fill="#6B7687"/>
	</g>
</g>
<g>
	<g>
		<rect x="220.654" y="437.776" width="70.68" height="74.214" fill="#6B7687"/>
	</g>
</g>
<g>
	<g>
		<polygon points="446.015,407.399 377.509,300.066 433.628,300.066 349.801,180.261 396.848,180.261 255.999,0 115.15,180.261     162.197,180.261 78.369,300.066 134.488,300.066 65.983,407.399   " fill="#6B7687"/>
	</g>
</g>
<g>
	<g>
		<rect x="53.494" y="464.26" width="30.382" height="47.74" fill="#6B7687"/>
	</g>
</g>
<g>
	<g>
		<rect x="106.691" y="464.26" width="30.382" height="47.74" fill="#6B7687"/>
	</g>
</g>
<g>
	<g>
		<rect x="159.89" y="464.26" width="30.382" height="47.74" fill="#6B7687"/>
	</g>
</g>
<g>
	<g>
		<rect x="321.726" y="464.26" width="30.382" height="47.74" fill="#6B7687"/>
	</g>
</g>
<g>
	<g>
		<rect x="374.925" y="464.26" width="30.382" height="47.74" fill="#6B7687"/>
	</g>
</g>
<g>
	<g>
		<rect x="428.124" y="464.26" width="30.382" height="47.74" fill="#6B7687"/>
	</g>
</g>
<g>
	<g>
		<rect x="481.323" y="464.26" width="30.382" height="47.74" fill="#6B7687"/>
	</g>
</g>
<g>
</g>
<g>
</g>
<g>
</g>
<g>
</g>
<g>
</g>
<g>
</g>
<g>
</g>
<g>
</g>
<g>
</g>
<g>
</g>
<g>
</g>
<g>
</g>
<g>
</g>
<g>
</g>
<g>
</g>
</svg>
