<?xml version="1.0" encoding="iso-8859-1"?>
<!-- Generator: Adobe Illustrator 19.0.0, SVG Export Plug-In . SVG Version: 6.00 Build 0)  -->
<svg xmlns="http://www.w3.org/2000/svg" xmlns:xlink="http://www.w3.org/1999/xlink" version="1.1" id="Layer_1" x="0px" y="0px" viewBox="0 0 512 512" style="enable-background:new 0 0 512 512;" xml:space="preserve" width="512px" height="512px">
<g>
	<g>
		<polygon points="435.419,118.687 358.836,467.117 512,467.117   " fill="#6B7687"/>
	</g>
</g>
<g>
	<g>
		<polygon points="54.438,219.435 0,467.117 327.642,467.117 382.08,219.435   " fill="#6B7687"/>
	</g>
</g>
<g>
	<g>
		<path d="M376.483,103.454c0-32.297-26.274-58.571-58.571-58.571c-32.297,0-58.571,26.274-58.571,58.571h30.468    c0-15.496,12.607-28.103,28.103-28.103c15.496,0,28.103,12.607,28.103,28.103h-56.207c0,15.497,12.607,28.103,28.103,28.103    v30.468c-32.297,0-58.571-26.274-58.571-58.571H242.5c0-32.297-26.275-58.571-58.571-58.571s-58.571,26.274-58.571,58.571h30.468    c0-15.496,12.607-28.103,28.103-28.103c15.496,0,28.103,12.607,28.103,28.103h-56.207c0,14.528,11.08,26.516,25.234,27.957    c0.943,0.096,1.901,0.146,2.869,0.146v30.468c-32.296,0-58.571-26.274-58.571-58.571H79.93l-18.795,85.513h327.643l18.794-85.513    H376.483z" fill="#6B7687"/>
	</g>
</g>
<g>
</g>
<g>
</g>
<g>
</g>
<g>
</g>
<g>
</g>
<g>
</g>
<g>
</g>
<g>
</g>
<g>
</g>
<g>
</g>
<g>
</g>
<g>
</g>
<g>
</g>
<g>
</g>
<g>
</g>
</svg>
