<?xml version="1.0" encoding="iso-8859-1"?>
<!-- Generator: Adobe Illustrator 19.0.0, SVG Export Plug-In . SVG Version: 6.00 Build 0)  -->
<svg xmlns="http://www.w3.org/2000/svg" xmlns:xlink="http://www.w3.org/1999/xlink" version="1.1" id="Layer_1" x="0px" y="0px" viewBox="0 0 512 512" style="enable-background:new 0 0 512 512;" xml:space="preserve" width="512px" height="512px">
<g>
	<g>
		<polygon points="265.203,361.884 230.046,326.727 208.467,348.306 222.044,361.884 132.022,361.884 165.069,304.645     103.919,321.03 84.346,247.982 0,394.074 38.134,460.124 222.044,460.124 208.467,473.703 230.046,495.281 265.202,460.124     265.203,460.124 314.322,411.004   " fill="#6B7687"/>
	</g>
</g>
<g>
	<g>
		<polygon points="417.283,230.019 441.782,236.584 449.68,207.106 395.704,192.644 395.704,192.643 334.555,176.259     311.606,261.905 303.707,291.383 333.185,299.282 336.56,286.685 379.977,361.884 308.361,361.884 357.48,411.004 308.36,460.124     473.865,460.124 512,394.074   " fill="#6B7687"/>
	</g>
</g>
<g>
	<g>
		<polygon points="294.135,16.719 217.865,16.719 127.505,173.229 124.129,160.631 94.651,168.529 102.55,198.007 102.551,198.007     125.498,283.654 186.648,267.269 186.649,267.269 240.623,252.807 232.725,223.329 208.228,229.893 256,147.149 293.402,211.931     312.976,138.882 374.125,155.267   " fill="#6B7687"/>
	</g>
</g>
<g>
</g>
<g>
</g>
<g>
</g>
<g>
</g>
<g>
</g>
<g>
</g>
<g>
</g>
<g>
</g>
<g>
</g>
<g>
</g>
<g>
</g>
<g>
</g>
<g>
</g>
<g>
</g>
<g>
</g>
</svg>
