<?xml version="1.0" encoding="iso-8859-1"?>
<!-- Generator: Adobe Illustrator 19.0.0, SVG Export Plug-In . SVG Version: 6.00 Build 0)  -->
<svg xmlns="http://www.w3.org/2000/svg" xmlns:xlink="http://www.w3.org/1999/xlink" version="1.1" id="Layer_1" x="0px" y="0px" viewBox="0 0 511.995 511.995" style="enable-background:new 0 0 511.995 511.995;" xml:space="preserve" width="512px" height="512px">
<g>
	<g>
		<rect x="299.243" y="5.526" transform="matrix(0.7071 -0.7071 0.7071 0.7071 -6.1765 289.3201)" width="93.818" height="293.18" fill="#6B7687"/>
	</g>
</g>
<g>
	<g>
		<path d="M126.401,330.397L10.305,446.492c-13.74,13.739-13.74,36.016,0,49.754c13.74,13.741,36.016,13.741,49.756,0.001    l116.096-116.096L126.401,330.397z" fill="#6B7687"/>
	</g>
</g>
<g>
	<g>
		
			<rect x="469.527" y="275.492" transform="matrix(0.7071 -0.7071 0.7071 0.7071 -64.5674 430.2863)" width="35.182" height="35.182" fill="#6B7687"/>
	</g>
</g>
<g>
	<g>
		<path d="M238.347,185.279l-74.633-74.633c-16.002-16.003-16.002-42.044,0-58.047c9.84-9.84,23.473-13.619,36.236-11.358    l27.481-27.482c-28.642-14.616-64.659-9.972-88.595,13.963c-29.719,29.722-29.719,78.082,0.001,107.802l74.632,74.633    c16.004,16.003,16.005,42.045,0.002,58.048l-49.756,49.754l24.878,24.877l49.754-49.754    C268.07,263.361,268.069,215.002,238.347,185.279z" fill="#6B7687"/>
	</g>
</g>
<g>
</g>
<g>
</g>
<g>
</g>
<g>
</g>
<g>
</g>
<g>
</g>
<g>
</g>
<g>
</g>
<g>
</g>
<g>
</g>
<g>
</g>
<g>
</g>
<g>
</g>
<g>
</g>
<g>
</g>
</svg>
