<?xml version="1.0" encoding="iso-8859-1"?>
<!-- Generator: Adobe Illustrator 19.0.0, SVG Export Plug-In . SVG Version: 6.00 Build 0)  -->
<svg xmlns="http://www.w3.org/2000/svg" xmlns:xlink="http://www.w3.org/1999/xlink" version="1.1" id="Layer_1" x="0px" y="0px" viewBox="0 0 512 512" style="enable-background:new 0 0 512 512;" xml:space="preserve" width="512px" height="512px">
<g>
	<g>
		<path d="M14.313,333.167C-10.2,378.808-3.228,437.031,35.247,475.505l1.248,1.248c38.474,38.474,96.697,45.448,142.338,20.934    L14.313,333.167z" fill="#6B7687"/>
	</g>
</g>
<g>
	<g>
		<path d="M164.2,176.188c-1.049,0.978-2.09,1.969-3.112,2.991L35.247,305.02c-1.022,1.022-2.014,2.063-2.991,3.113l171.611,171.611    c1.049-0.978,2.091-1.969,3.113-2.991l125.84-125.84c1.022-1.022,2.014-2.062,2.991-3.112L164.2,176.188z M218.578,373.566    l-36.57-19.226l-36.57,19.227l6.985-40.722l-29.586-28.838l40.887-5.941l18.284-37.049l18.284,37.049l40.885,5.941l-29.584,28.839    L218.578,373.566z" fill="#6B7687"/>
	</g>
</g>
<g>
	<g>
		<path d="M512,193.688L397.153,135.8l-55.052,55.053c-2.86-3.608-5.948-7.093-9.28-10.426l-1.248-1.248    c-3.333-3.333-6.818-6.42-10.427-9.281l55.053-55.053L318.313,0l-92.769,92.768l25.842,51.27    c-21.34-0.887-42.868,3.848-62.153,14.206l164.521,164.521c10.358-19.285,15.095-40.813,14.206-62.152l51.27,25.842L512,193.688z" fill="#6B7687"/>
	</g>
</g>
<g>
</g>
<g>
</g>
<g>
</g>
<g>
</g>
<g>
</g>
<g>
</g>
<g>
</g>
<g>
</g>
<g>
</g>
<g>
</g>
<g>
</g>
<g>
</g>
<g>
</g>
<g>
</g>
<g>
</g>
</svg>
