<?xml version="1.0" encoding="iso-8859-1"?>
<!-- Generator: Adobe Illustrator 19.0.0, SVG Export Plug-In . SVG Version: 6.00 Build 0)  -->
<svg xmlns="http://www.w3.org/2000/svg" xmlns:xlink="http://www.w3.org/1999/xlink" version="1.1" id="Layer_1" x="0px" y="0px" viewBox="0 0 512 512" style="enable-background:new 0 0 512 512;" xml:space="preserve" width="512px" height="512px">
<g>
	<g>
		<path d="M66.519,50.46L52.617,19.104L38.713,50.46c-0.883,1.991-19.51,44.695-23.469,107.216h74.744    C86.029,95.155,67.402,52.451,66.519,50.46z" fill="#6B7687"/>
	</g>
</g>
<g>
	<g>
		<polygon points="8.922,188.094 8.922,218.51 16.196,218.51 94.406,218.51 96.31,218.51 96.31,188.094   " fill="#6B7687"/>
	</g>
</g>
<g>
	<g>
		<polygon points="101.021,248.927 9.581,248.927 0,248.927 0,492.896 105.232,492.896 105.232,248.927   " fill="#6B7687"/>
	</g>
</g>
<g>
	<g>
		<path d="M202.138,50.46l-13.903-31.356L174.333,50.46c-0.883,1.991-19.51,44.695-23.469,107.217h74.744    C221.649,95.155,203.021,52.451,202.138,50.46z" fill="#6B7687"/>
	</g>
</g>
<g>
	<g>
		<polygon points="144.542,188.094 144.542,218.51 158.104,218.51 231.929,218.51 231.929,188.094   " fill="#6B7687"/>
	</g>
</g>
<g>
	<g>
		<polygon points="151.49,248.927 135.649,248.927 135.649,492.896 240.822,492.896 240.822,248.927   " fill="#6B7687"/>
	</g>
</g>
<g>
	<g>
		<path d="M337.728,50.46l-13.903-31.356L309.923,50.46c-0.883,1.991-19.51,44.695-23.469,107.217h74.744    C357.237,95.155,338.611,52.451,337.728,50.46z" fill="#6B7687"/>
	</g>
</g>
<g>
	<g>
		<polygon points="280.131,188.094 280.131,218.51 299.981,218.51 367.518,218.51 367.518,188.094   " fill="#6B7687"/>
	</g>
</g>
<g>
	<g>
		<polygon points="293.366,248.927 271.239,248.927 271.239,492.896 376.41,492.896 376.41,248.927   " fill="#6B7687"/>
	</g>
</g>
<g>
	<g>
		<path d="M473.316,50.46l-13.903-31.356L445.51,50.46c-0.883,1.991-19.51,44.695-23.469,107.217h74.744    C492.827,95.155,474.2,52.451,473.316,50.46z" fill="#6B7687"/>
	</g>
</g>
<g>
	<g>
		<polygon points="415.721,188.094 415.721,218.51 441.859,218.51 503.107,218.51 503.107,188.094   " fill="#6B7687"/>
	</g>
</g>
<g>
	<g>
		<polygon points="435.244,248.927 406.828,248.927 406.828,492.896 512,492.896 512,248.927   " fill="#6B7687"/>
	</g>
</g>
<g>
</g>
<g>
</g>
<g>
</g>
<g>
</g>
<g>
</g>
<g>
</g>
<g>
</g>
<g>
</g>
<g>
</g>
<g>
</g>
<g>
</g>
<g>
</g>
<g>
</g>
<g>
</g>
<g>
</g>
</svg>
