<?xml version="1.0" encoding="iso-8859-1"?>
<!-- Generator: Adobe Illustrator 19.0.0, SVG Export Plug-In . SVG Version: 6.00 Build 0)  -->
<svg xmlns="http://www.w3.org/2000/svg" xmlns:xlink="http://www.w3.org/1999/xlink" version="1.1" id="Layer_1" x="0px" y="0px" viewBox="0 0 512 512" style="enable-background:new 0 0 512 512;" xml:space="preserve" width="512px" height="512px">
<g>
	<g>
		<path d="M359.623,145.066l123.55-123.549L461.656,0l-23.268,23.268L422.78,7.66l-21.517,21.517l15.607,15.607l-78.764,78.764    l-10.759,10.759l-52.197,52.199l-21.517,21.517L150.015,311.641l-21.517,21.517l-99.671,99.671L107.998,512l71.295-118.135    l45.488,84.396l56.299-56.299l-21.281-39.483l31.798-31.797l-26.332-51.208l11.25-11.25l38.77,38.77l50.176-50.176l-38.77-38.77    l62.957-62.957L359.623,145.066z M244.728,354.516l-12.085-22.421l10.024-10.024l11.718,22.788L244.728,354.516z" fill="#6B7687"/>
	</g>
</g>
<g>
	<g>
		<polygon points="204.647,154.46 183.129,175.977 191.391,184.24 84.529,291.101 76.267,282.838 54.75,304.357 92.792,342.398     114.309,320.881 106.047,312.618 212.909,205.757 221.171,214.018 242.688,192.501   " fill="#6B7687"/>
	</g>
</g>
<g>
</g>
<g>
</g>
<g>
</g>
<g>
</g>
<g>
</g>
<g>
</g>
<g>
</g>
<g>
</g>
<g>
</g>
<g>
</g>
<g>
</g>
<g>
</g>
<g>
</g>
<g>
</g>
<g>
</g>
</svg>
