<?xml version="1.0" encoding="iso-8859-1"?>
<!-- Generator: Adobe Illustrator 19.0.0, SVG Export Plug-In . SVG Version: 6.00 Build 0)  -->
<svg xmlns="http://www.w3.org/2000/svg" xmlns:xlink="http://www.w3.org/1999/xlink" version="1.1" id="Layer_1" x="0px" y="0px" viewBox="0 0 512 512" style="enable-background:new 0 0 512 512;" xml:space="preserve" width="512px" height="512px">
<g>
	<g>
		<path d="M468,190v-54.92C468,109.12,450.904,94,424.944,94H95.22C69.264,94,44,109.12,44,135.08V190h7.16    C73.792,190,88,202.416,88,225.048V282h336v-56.952C424,202.416,446.372,190,469.004,190H468z" fill="#6B7687"/>
	</g>
</g>
<g>
	<g>
		<path d="M88,298v4.956v11.012C88,321.708,98.5,334,106.236,334h307.692c7.736,0,10.072-12.292,10.072-20.032v-11.012V298H88z" fill="#6B7687"/>
	</g>
</g>
<g>
	<g>
		<path d="M491.036,206h-22.032C455.192,206,440,211.236,440,225.048v77.908v11.012c0,16.56-9.512,36.032-26.072,36.032H106.236    C89.676,350,72,330.528,72,313.968v-11.012v-77.908C72,211.236,64.972,206,51.16,206H29.128C15.32,206,0,211.236,0,225.048v99.872    C0,350.88,25.204,378,51.16,378H48v30c0,2.208,5.852,10,8.064,10H84c2.208,0,0-7.792,0-10v-30h344v30c0,2.208,5.552,10,7.76,10    h27.936c2.208,0,0.304-7.792,0.304-10v-30h5.004c25.96,0,42.996-27.12,42.996-53.08v-99.872C512,211.236,504.848,206,491.036,206z    " fill="#6B7687"/>
	</g>
</g>
<g>
</g>
<g>
</g>
<g>
</g>
<g>
</g>
<g>
</g>
<g>
</g>
<g>
</g>
<g>
</g>
<g>
</g>
<g>
</g>
<g>
</g>
<g>
</g>
<g>
</g>
<g>
</g>
<g>
</g>
</svg>
