<?xml version="1.0" encoding="iso-8859-1"?>
<!-- Generator: Adobe Illustrator 19.0.0, SVG Export Plug-In . SVG Version: 6.00 Build 0)  -->
<svg xmlns="http://www.w3.org/2000/svg" xmlns:xlink="http://www.w3.org/1999/xlink" version="1.1" id="Layer_1" x="0px" y="0px" viewBox="0 0 505.188 505.188" style="enable-background:new 0 0 505.188 505.188;" xml:space="preserve" width="512px" height="512px">
<g>
	<g>
		<path d="M447.208,102.594h-227.04c-12.472,0-23.476,6.368-29.94,16.032c-0.02,0-0.036-0.032-0.06-0.032h-50    c-8.22,0-15.28,4-18.356,12h-13.396c-6.616,0-19.228-0.28-19.228,6.336v13.664H8c-4.416,0-8,3.584-8,8s3.584,8,8,8h81.188v2.148    c0,6.616,12.612,17.852,19.232,17.852h13.4c3.072,8,10.132,12,18.352,12h48.81c6.065,7.445,13.555,10.5,24.206,10.5v33.752    c-4,4.364-8,10.7-8,17.756v112.52c0,13.124,17.796,29.468,30.92,29.468h0.308c13.128,0.004,16.772-16.34,16.772-29.464v-112.52    c0-7.036-4-13.352-8-17.716v-28.296h27.956c17.2,0,24.044,8.264,24.044,25.468v117.78c0,21.552,24.688,44.752,46.24,44.752h53.752    c21.188,0,32.012-23.88,32.012-45.436v-50.564h18.02c35.812,0,57.976-35.156,57.976-71.22v-73.18    C505.188,126.142,483.024,102.594,447.208,102.594z M404.168,282.594H336.5c-4.416,0-8-3.584-8-8c0-4.416,3.584-8,8-8h67.668    c4.416,0,8,3.584,8,8S408.588,282.594,404.168,282.594z M404.168,246.594H336.5c-4.416,0-8-3.584-8-8s3.584-8,8-8h67.668    c4.416,0,8,3.584,8,8S408.588,246.594,404.168,246.594z M404.168,210.594H336.5c-4.416,0-8-3.584-8-8s3.584-8,8-8h67.668    c4.416,0,8,3.584,8,8S408.588,210.594,404.168,210.594z M404.168,174.594H336.5c-4.416,0-8-3.584-8-8s3.584-8,8-8h67.668    c4.416,0,8,3.584,8,8S408.588,174.594,404.168,174.594z M469.188,235.374c0,16.212-6.012,35.22-21.98,35.22h-18.02v-132h18.02    c15.968,0,21.98,7.396,21.98,23.6V235.374z" fill="#6B7687"/>
	</g>
</g>
<g>
</g>
<g>
</g>
<g>
</g>
<g>
</g>
<g>
</g>
<g>
</g>
<g>
</g>
<g>
</g>
<g>
</g>
<g>
</g>
<g>
</g>
<g>
</g>
<g>
</g>
<g>
</g>
<g>
</g>
</svg>
