<?xml version="1.0" encoding="iso-8859-1"?>
<!-- Generator: Adobe Illustrator 19.0.0, SVG Export Plug-In . SVG Version: 6.00 Build 0)  -->
<svg xmlns="http://www.w3.org/2000/svg" xmlns:xlink="http://www.w3.org/1999/xlink" version="1.1" id="Layer_1" x="0px" y="0px" viewBox="0 0 512 512" style="enable-background:new 0 0 512 512;" xml:space="preserve" width="512px" height="512px">
<g>
	<g>
		<circle cx="256" cy="256" r="37.625" fill="#6B7687"/>
	</g>
</g>
<g>
	<g>
		<path d="M431.971,165.836c-3.742-1.656-7.59-3.247-11.516-4.784c0.632-4.169,1.179-8.297,1.615-12.365    c6.022-56.115-7.497-96.739-38.069-114.389c-30.568-17.65-72.51-9.047-118.098,24.225c-3.305,2.412-6.606,4.95-9.902,7.582    c-3.295-2.632-6.596-5.169-9.902-7.582C200.51,25.251,158.569,16.647,128,34.299c-30.572,17.65-44.091,58.273-38.069,114.389    c0.436,4.068,0.983,8.195,1.615,12.365c-3.927,1.537-7.775,3.128-11.516,4.784C28.422,188.679,0,220.699,0,256    s28.422,67.321,80.029,90.164c3.742,1.656,7.59,3.247,11.516,4.784c-0.632,4.169-1.179,8.297-1.615,12.365    c-6.022,56.115,7.497,96.739,38.069,114.389c10.384,5.996,22.076,8.961,34.781,8.961c24.698,0,53.216-11.215,83.317-33.185    c3.305-2.412,6.606-4.95,9.902-7.582c3.295,2.632,6.596,5.169,9.902,7.582c30.106,21.973,58.617,33.185,83.317,33.185    c12.702,0,24.4-2.966,34.781-8.961c30.572-17.65,44.091-58.273,38.069-114.389c-0.436-4.068-0.983-8.195-1.615-12.365    c3.927-1.537,7.775-3.128,11.516-4.784C483.578,323.323,512,291.302,512,256S483.578,188.679,431.971,165.836z M349.24,58.816    c6.867,0,12.955,1.45,18.065,4.4c18.714,10.804,26.531,43.004,20.905,87.101c-19.906-5.576-41.377-9.838-63.865-12.693    c-13.716-18.048-28.143-34.512-42.926-48.963C307.134,69.092,330.958,58.816,349.24,58.816z M139.084,297.838    c3.424,6.514,6.997,13.009,10.728,19.47c3.731,6.462,7.57,12.802,11.497,19.024c-11.02-2.195-21.463-4.75-31.284-7.601    C132.465,318.802,135.474,308.481,139.084,297.838z M130.023,183.267c9.822-2.851,20.263-5.405,31.284-7.601    c-3.927,6.222-7.766,12.563-11.497,19.024c-3.731,6.461-7.304,12.959-10.728,19.47    C135.474,203.518,132.465,193.199,130.023,183.267z M155.724,256c6.628-14.568,14.274-29.492,23.004-44.613    c8.728-15.117,17.826-29.206,27.126-42.227c15.932-1.544,32.682-2.385,50.146-2.385c17.46,0,34.208,0.84,50.138,2.384    c9.302,13.024,18.403,27.107,27.134,42.228c8.731,15.121,16.376,30.046,23.004,44.613c-6.628,14.568-14.275,29.492-23.004,44.613    c-8.731,15.121-17.832,29.204-27.134,42.228c-15.93,1.544-32.678,2.384-50.138,2.384s-34.208-0.84-50.138-2.384    c-9.302-13.024-18.403-27.107-27.134-42.228C169.997,285.493,162.352,270.568,155.724,256z M350.692,175.668    c11.02,2.195,21.463,4.75,31.284,7.601c-2.442,9.931-5.451,20.251-9.06,30.894c-3.424-6.512-6.997-13.008-10.727-19.47    C358.458,188.229,354.619,181.889,350.692,175.668z M362.189,317.31c3.731-6.461,7.304-12.958,10.727-19.47    c3.61,10.643,6.618,20.962,9.06,30.894c-9.822,2.85-20.263,5.405-31.284,7.601C354.619,330.112,358.458,323.771,362.189,317.31z     M255.999,110.533c7.381,7.081,14.815,14.848,22.226,23.295c-7.352-0.289-14.763-0.444-22.225-0.444    c-7.461,0-14.871,0.155-22.221,0.444C241.189,125.384,248.621,117.612,255.999,110.533z M144.696,63.216    c18.714-10.805,50.509-1.476,85.886,25.444c-14.782,14.451-29.21,30.915-42.926,48.963c-22.488,2.855-43.96,7.117-63.865,12.693    C118.165,106.219,125.982,74.02,144.696,63.216z M98.371,317.656C57.368,300.479,33.391,277.609,33.391,256    s23.977-44.478,64.978-61.656c5.123,20.028,12.169,40.753,20.941,61.656C110.539,276.903,103.494,297.628,98.371,317.656z     M144.696,448.785c-18.714-10.804-26.531-43.004-20.905-87.101c19.906,5.576,41.377,9.838,63.865,12.693    c13.716,18.048,28.143,34.512,42.926,48.963C195.204,450.26,163.411,459.589,144.696,448.785z M256,401.466    c-7.379-7.08-14.813-14.847-22.225-23.294c7.352,0.289,14.763,0.444,22.225,0.444c7.462,0,14.874-0.155,22.225-0.444    C270.813,386.619,263.38,394.386,256,401.466z M367.304,448.785c-18.715,10.805-50.509,1.476-85.885-25.445    c14.782-14.451,29.208-30.915,42.926-48.963c22.488-2.855,43.96-7.117,63.865-12.693    C393.835,405.781,386.018,437.981,367.304,448.785z M413.63,317.656c-5.123-20.027-12.169-40.753-20.94-61.656    c8.772-20.903,15.816-41.628,20.94-61.656c41.001,17.178,64.978,40.047,64.978,61.656S454.632,300.479,413.63,317.656z" fill="#6B7687"/>
	</g>
</g>
<g>
</g>
<g>
</g>
<g>
</g>
<g>
</g>
<g>
</g>
<g>
</g>
<g>
</g>
<g>
</g>
<g>
</g>
<g>
</g>
<g>
</g>
<g>
</g>
<g>
</g>
<g>
</g>
<g>
</g>
</svg>
