<?xml version="1.0" encoding="iso-8859-1"?>
<!-- Generator: Adobe Illustrator 19.0.0, SVG Export Plug-In . SVG Version: 6.00 Build 0)  -->
<svg xmlns="http://www.w3.org/2000/svg" xmlns:xlink="http://www.w3.org/1999/xlink" version="1.1" id="Layer_1" x="0px" y="0px" viewBox="0 0 512 512" style="enable-background:new 0 0 512 512;" xml:space="preserve" width="512px" height="512px">
<g>
	<g>
		<path d="M387.453,256.998L387.453,256.998l-114.98,0v-39.379c18.663,10.067,39.641,15.416,61.443,15.416    c34.64,0,67.207-13.489,91.702-37.984l11.648-11.648l-45.522-45.522c15.343-25.855,11.911-59.843-10.302-82.056    s-56.201-25.646-82.056-10.302L253.863,0l-11.648,11.649c-49.65,49.649-50.543,129.87-2.688,180.625v64.724h-114.98H48.689v75.858    v57.656v75.858h56.186C112.112,492.641,136.197,512,164.738,512c18.026,0,34.275-7.726,45.631-20.032    C221.724,504.274,237.975,512,255.999,512c18.025,0,34.275-7.726,45.631-20.032C312.986,504.274,329.236,512,347.262,512    c28.54,0,52.625-19.359,59.862-45.631h56.187v-75.858v-57.656v-75.858H387.453z M358.145,79.121    c9.161,9.161,12.067,22.24,8.732,33.893l-42.624-42.625C335.906,67.053,348.985,69.96,358.145,79.121z M164.738,479.054    c-16.078,0-29.157-13.08-29.157-29.157c0-16.078,13.08-29.157,29.157-29.157s29.157,13.08,29.157,29.157    C193.896,465.974,180.816,479.054,164.738,479.054z M255.999,479.054c-16.078,0-29.157-13.08-29.157-29.157    c0-16.078,13.08-29.157,29.157-29.157s29.157,13.08,29.157,29.157C285.157,465.974,272.077,479.054,255.999,479.054z     M347.262,479.054c-16.078,0-29.159-13.08-29.159-29.157c0-16.078,13.081-29.157,29.159-29.157    c16.078,0,29.157,13.08,29.157,29.157C376.419,465.974,363.34,479.054,347.262,479.054z" fill="#6B7687"/>
	</g>
</g>
<g>
</g>
<g>
</g>
<g>
</g>
<g>
</g>
<g>
</g>
<g>
</g>
<g>
</g>
<g>
</g>
<g>
</g>
<g>
</g>
<g>
</g>
<g>
</g>
<g>
</g>
<g>
</g>
<g>
</g>
</svg>
