<?xml version="1.0" encoding="iso-8859-1"?>
<!-- Generator: Adobe Illustrator 19.0.0, SVG Export Plug-In . SVG Version: 6.00 Build 0)  -->
<svg xmlns="http://www.w3.org/2000/svg" xmlns:xlink="http://www.w3.org/1999/xlink" version="1.1" id="Layer_1" x="0px" y="0px" viewBox="0 0 512.001 512.001" style="enable-background:new 0 0 512.001 512.001;" xml:space="preserve" width="512px" height="512px">
<g>
	<g>
		<path d="M457.986,7.739c-20.378,0-38.152,11.346-47.349,28.051c-26.942,9.89-58.738,30.358-83.117,47.789    c-27.805-13.254-58.441-20.251-90.156-20.251c-56.041,0-108.729,21.824-148.358,61.451    c-39.628,39.628-61.452,92.314-61.452,148.357c0,32.297,7.26,63.473,20.987,91.684c-18.753,26.939-32.278,50.409-40.215,69.839    c-4.222,10.337-17.073,41.796,1.248,60.115c6.324,6.324,14.801,9.489,25.341,9.489c7.675,0,16.445-1.679,26.271-5.041    c17.536-5.999,39.162-17.402,64.28-33.894c50.175-32.942,110.01-83.286,168.482-141.759    c75.611-75.611,137.482-153.779,164.877-207.82c29.398-0.453,53.178-24.493,53.178-53.994    C512.001,31.97,487.77,7.739,457.986,7.739z M270.339,299.96c-53.645,53.645-108.935,100.678-155.685,132.438    c-55.56,37.746-76.397,38.844-81.111,38.408c-0.412-4.525,0.574-23.984,33.946-74.478c4.447,6.106,9.236,12.008,14.376,17.668    c4.333-2.745,8.994-5.795,14.028-9.215c45.065-30.615,98.634-76.226,150.838-128.429    c55.297-55.297,103.388-112.597,132.894-157.414c-6.529-6.035-13.384-11.6-20.513-16.703c17.209-11.728,32.92-21.151,46.37-27.828    c3.074,12.753,10.681,23.751,21.018,31.196C399.644,156.211,341.476,228.822,270.339,299.96z M457.985,82.382    c-11.374,0-20.627-9.253-20.627-20.627c0-11.374,9.253-20.627,20.627-20.627c11.374,0,20.627,9.253,20.627,20.627    C478.612,73.129,469.359,82.382,457.985,82.382z" fill="#6B7687"/>
	</g>
</g>
<g>
	<g>
		<path d="M437.621,210.256c-3.522,4.713-7.153,9.483-10.907,14.312c-30.744,39.544-68.49,81.943-109.158,122.61    c-49.132,49.132-99.384,92.791-144.533,125.752c20.523,6.584,42.166,10.013,64.339,10.013c56.041,0,108.728-21.824,148.357-61.451    c39.628-39.628,61.452-92.314,61.452-148.357C447.172,251.486,443.902,230.343,437.621,210.256z" fill="#6B7687"/>
	</g>
</g>
<g>
</g>
<g>
</g>
<g>
</g>
<g>
</g>
<g>
</g>
<g>
</g>
<g>
</g>
<g>
</g>
<g>
</g>
<g>
</g>
<g>
</g>
<g>
</g>
<g>
</g>
<g>
</g>
<g>
</g>
</svg>
