<?xml version="1.0" encoding="iso-8859-1"?>
<!-- Generator: Adobe Illustrator 19.0.0, SVG Export Plug-In . SVG Version: 6.00 Build 0)  -->
<svg xmlns="http://www.w3.org/2000/svg" xmlns:xlink="http://www.w3.org/1999/xlink" version="1.1" id="Layer_1" x="0px" y="0px" viewBox="0 0 297 297" style="enable-background:new 0 0 297 297;" xml:space="preserve" width="512px" height="512px">
<g>
	<g>
		<g>
			<path d="M110.751,20.109v90.752c0,4.711-0.267,9.379-0.777,13.994h77.051c-0.509-4.615-0.777-9.284-0.777-13.994V20.109     c5.429-0.146,9.789-4.583,9.789-10.048C196.038,4.505,191.533,0,185.977,0h-74.953c-5.556,0-10.061,4.505-10.061,10.061     C100.962,15.526,105.322,19.963,110.751,20.109z M142.812,94.008c1.499-1.49,3.572-2.354,5.685-2.354     c2.122,0,4.195,0.865,5.695,2.354c1.498,1.499,2.354,3.572,2.354,5.695c0,2.122-0.856,4.196-2.354,5.695     c-1.499,1.498-3.573,2.354-5.695,2.354c-2.113,0-4.186-0.856-5.685-2.354c-1.499-1.499-2.364-3.573-2.364-5.695     C140.448,97.579,141.313,95.507,142.812,94.008z" fill="#6B7687"/>
			<path d="M254.082,230.624L222.97,199.51c-16.413-16.413-27.71-36.576-33.101-58.556h-82.737     c-5.391,21.98-16.688,42.144-33.101,58.556l-31.113,31.114c-11.331,11.331-14.561,27.567-8.428,42.373     C40.622,287.802,54.387,297,70.413,297h156.175c16.025,0,29.791-9.198,35.923-24.004     C268.644,258.191,265.413,241.954,254.082,230.624z M104.388,254.808c-1.499,1.498-3.573,2.354-5.695,2.354     c-2.123,0-4.195-0.856-5.685-2.354c-1.499-1.499-2.364-3.573-2.364-5.695c0-2.123,0.865-4.196,2.364-5.695     c1.49-1.499,3.572-2.354,5.685-2.354c2.122,0,4.195,0.855,5.695,2.354c1.498,1.499,2.354,3.581,2.354,5.695     C106.743,251.226,105.887,253.309,104.388,254.808z M137.591,204.994c-1.499,1.509-3.573,2.365-5.695,2.365     c-2.113,0-4.195-0.856-5.685-2.365c-1.499-1.489-2.364-3.562-2.364-5.684c0-2.123,0.865-4.195,2.364-5.695     c1.49-1.499,3.572-2.354,5.685-2.354c2.122,0,4.196,0.855,5.695,2.354c1.498,1.499,2.354,3.572,2.354,5.695     C139.945,201.432,139.089,203.505,137.591,204.994z M170.793,238.207c-1.499,1.498-3.573,2.354-5.695,2.354     c-2.113,0-4.186-0.856-5.685-2.354c-1.499-1.499-2.364-3.573-2.364-5.695c0-2.123,0.865-4.195,2.364-5.695     c1.49-1.49,3.572-2.354,5.685-2.354c2.122,0,4.195,0.865,5.695,2.354c1.498,1.499,2.354,3.581,2.354,5.695     C173.147,234.625,172.292,236.708,170.793,238.207z M220.597,254.808c-1.499,1.498-3.573,2.354-5.695,2.354     c-2.113,0-4.196-0.856-5.685-2.354c-1.499-1.499-2.364-3.573-2.364-5.695c0-2.123,0.865-4.196,2.364-5.695     c1.49-1.499,3.572-2.354,5.685-2.354c2.122,0,4.195,0.855,5.695,2.354c1.498,1.499,2.354,3.581,2.354,5.695     C222.951,251.226,222.095,253.309,220.597,254.808z" fill="#6B7687"/>
		</g>
	</g>
</g>
<g>
</g>
<g>
</g>
<g>
</g>
<g>
</g>
<g>
</g>
<g>
</g>
<g>
</g>
<g>
</g>
<g>
</g>
<g>
</g>
<g>
</g>
<g>
</g>
<g>
</g>
<g>
</g>
<g>
</g>
</svg>
