<?xml version="1.0" encoding="iso-8859-1"?>
<!-- Generator: Adobe Illustrator 19.0.0, SVG Export Plug-In . SVG Version: 6.00 Build 0)  -->
<svg xmlns="http://www.w3.org/2000/svg" xmlns:xlink="http://www.w3.org/1999/xlink" version="1.1" id="Layer_1" x="0px" y="0px" viewBox="0 0 350 350" style="enable-background:new 0 0 350 350;" xml:space="preserve" width="512px" height="512px">
<g id="XMLID_840_">
	<g>
		<g>
			<path d="M107.938,291.248L105,350h55v-35c0-8.284,6.716-15,15-15s15,6.716,15,15v35h55l-5.444-108.892L107.938,291.248z" fill="#6B7687"/>
			<path d="M235,90c0-29.728-21.626-54.392-50-59.154V0h-20v30.846C136.626,35.608,115,60.271,115,90v30H95v30h20l-5.972,119.432     l129.478-49.326L235,150h20v-30h-20V90z M190,210h-30v-25c0-8.284,6.716-15,15-15s15,6.716,15,15V210z M175,100     c-8.284,0-15-6.716-15-15s6.716-15,15-15s15,6.716,15,15S183.284,100,175,100z" fill="#6B7687"/>
			<polygon points="255,70 255,100 315,130 315,40    " fill="#6B7687"/>
			<polygon points="95,70 35,40 35,130 95,100    " fill="#6B7687"/>
		</g>
	</g>
</g>
<g>
</g>
<g>
</g>
<g>
</g>
<g>
</g>
<g>
</g>
<g>
</g>
<g>
</g>
<g>
</g>
<g>
</g>
<g>
</g>
<g>
</g>
<g>
</g>
<g>
</g>
<g>
</g>
<g>
</g>
</svg>
