<?xml version="1.0" encoding="iso-8859-1"?>
<!-- Generator: Adobe Illustrator 19.0.0, SVG Export Plug-In . SVG Version: 6.00 Build 0)  -->
<svg xmlns="http://www.w3.org/2000/svg" xmlns:xlink="http://www.w3.org/1999/xlink" version="1.1" id="Layer_1" x="0px" y="0px" viewBox="0 0 319.999 319.999" style="enable-background:new 0 0 319.999 319.999;" xml:space="preserve" width="512px" height="512px">
<g id="XMLID_792_">
	<g>
		<path d="M300.003,139.999c-2.979,0-11,1.456-21.125,3.579c-2.855-20.859-11.068-40.01-23.211-56.021    c8.663-5.658,15.367-10.303,17.474-12.408c7.809-7.811,7.809-20.476-0.003-28.285c-7.809-7.811-20.474-7.811-28.283-0.002    c-2.105,2.106-6.751,8.811-12.41,17.474c-16.011-12.144-35.162-20.356-56.023-23.212c2.124-10.124,3.579-18.147,3.579-21.125    c0-11.044-8.955-19.999-20-19.999s-20,8.955-20,19.999c0,2.978,1.455,11,3.579,21.124c-20.861,2.855-40.013,11.068-56.023,23.211    c-5.658-8.662-10.303-15.365-12.409-17.472c-7.809-7.81-20.475-7.81-28.283,0.001c-7.811,7.81-7.811,20.475-0.002,28.283    c2.106,2.106,8.811,6.752,17.473,12.41c-12.143,16.01-20.355,35.162-23.211,56.021C31,141.455,22.979,140,20,140    c-11.044,0-20,8.956-19.999,20c0,11.045,8.955,20.001,19.998,20.001c2.979,0,11.001-1.455,21.125-3.579    c2.855,20.86,11.068,40.012,23.212,56.021c-8.663,5.658-15.367,10.304-17.474,12.41c-7.809,7.81-7.809,20.476,0.002,28.283    c7.81,7.811,20.475,7.812,28.283,0.003c2.106-2.106,6.752-8.81,12.41-17.474c16.011,12.143,35.162,20.356,56.021,23.211    c-2.123,10.124-3.579,18.146-3.579,21.125c0.001,11.044,8.957,20,20.001,19.998c11.045,0,20.001-8.954,20.002-19.998    c0-2.979-1.456-11-3.58-21.125c20.86-2.855,40.011-11.068,56.021-23.212c5.658,8.663,10.304,15.368,12.41,17.475    c7.81,7.809,20.476,7.809,28.283-0.003c7.811-7.809,7.812-20.474,0.003-28.283c-2.106-2.105-8.81-6.752-17.475-12.41    c12.144-16.011,20.357-35.161,23.212-56.021c10.124,2.125,18.146,3.58,21.125,3.58c11.044-0.001,20-8.957,19.998-20.002    C320.002,148.956,311.047,140,300.003,139.999z M89.686,103.827l28.605,28.606c-3.476,5.247-5.992,11.185-7.288,17.568H70.557    C72.475,132.643,79.329,116.774,89.686,103.827z M70.557,170h40.446c1.296,6.384,3.813,12.32,7.289,17.568l-28.605,28.605    C79.329,203.227,72.475,187.357,70.557,170z M150.001,249.444c-17.357-1.919-33.226-8.772-46.172-19.13l28.605-28.604    c5.247,3.475,11.185,5.993,17.568,7.288L150.001,249.444z M150.002,111.002h-0.001c-6.383,1.296-12.32,3.813-17.568,7.288    l-28.604-28.604c12.946-10.357,28.815-17.211,46.173-19.13V111.002z M170.001,70.556c17.357,1.919,33.226,8.772,46.173,19.13    l-28.605,28.604c-5.248-3.476-11.186-5.992-17.568-7.288V70.556z M170.001,249.444v-40.446c6.383-1.296,12.32-3.813,17.568-7.288    l28.604,28.604C203.225,240.671,187.359,247.525,170.001,249.444z M230.315,216.173l-28.604-28.605    c3.475-5.248,5.992-11.186,7.288-17.568h40.446C247.526,187.357,240.672,203.226,230.315,216.173z M208.999,150.001    c-1.296-6.384-3.812-12.321-7.288-17.568l28.605-28.604c10.357,12.946,17.21,28.814,19.129,46.172H208.999z" fill="#6B7687"/>
	</g>
</g>
<g>
</g>
<g>
</g>
<g>
</g>
<g>
</g>
<g>
</g>
<g>
</g>
<g>
</g>
<g>
</g>
<g>
</g>
<g>
</g>
<g>
</g>
<g>
</g>
<g>
</g>
<g>
</g>
<g>
</g>
</svg>
