<?xml version="1.0" encoding="iso-8859-1"?>
<!-- Generator: Adobe Illustrator 19.0.0, SVG Export Plug-In . SVG Version: 6.00 Build 0)  -->
<svg xmlns="http://www.w3.org/2000/svg" xmlns:xlink="http://www.w3.org/1999/xlink" version="1.1" id="Layer_1" x="0px" y="0px" viewBox="0 0 320 320" style="enable-background:new 0 0 320 320;" xml:space="preserve" width="512px" height="512px">
<g id="XMLID_523_">
	<g>
		<g>
			<path d="M309.256,175h-80.884c-5.813,26.615-26.758,47.559-53.372,53.372v80.884c10.214-1.015,20.128-3.05,29.635-6.01     C216.863,313.681,232.703,320,250,320c38.598,0,70-31.402,70-70c0-17.297-6.319-33.137-16.753-45.365     C306.207,195.128,308.242,185.215,309.256,175z M250,300c-8.347,0-16.217-2.066-23.142-5.699     c29.153-14.541,52.902-38.29,67.443-67.443C297.933,233.783,300,241.652,300,250C300,277.57,277.57,300,250,300z" fill="#6B7687"/>
			<path d="M228.372,145h80.883c-1.014-10.215-3.049-20.128-6.009-29.635C313.681,103.137,320,87.297,320,70     c0-38.598-31.402-70-70-70c-17.297,0-33.137,6.319-45.365,16.754c-9.507-2.96-19.421-4.995-29.635-6.01v80.884     C201.614,97.441,222.559,118.385,228.372,145z M250,20c27.57,0,50,22.43,50,50c0,8.348-2.067,16.217-5.699,23.143     C279.76,63.99,256.011,40.241,226.858,25.7C233.783,22.066,241.653,20,250,20z" fill="#6B7687"/>
			<path d="M91.628,175H10.745c1.014,10.215,3.049,20.128,6.009,29.635C6.319,216.863,0,232.703,0,250c0,38.598,31.402,70,70,70     c17.297,0,33.137-6.319,45.365-16.754c9.507,2.96,19.421,4.995,29.635,6.01v-80.884C118.386,222.559,97.441,201.615,91.628,175z      M70,300c-27.57,0-50-22.43-50-50c0-8.348,2.067-16.217,5.699-23.143c14.541,29.153,38.29,52.902,67.443,67.443     C86.217,297.934,78.347,300,70,300z" fill="#6B7687"/>
			<path d="M70,0C31.402,0,0,31.402,0,70c0,17.297,6.319,33.137,16.753,45.365c-2.959,9.507-4.995,19.42-6.009,29.635h80.883     c5.814-26.615,26.759-47.559,53.373-53.372V10.744c-10.214,1.015-20.128,3.05-29.635,6.01C103.137,6.319,87.297,0,70,0z      M25.699,93.143C22.067,86.217,20,78.348,20,70c0-27.57,22.43-50,50-50c8.347,0,16.217,2.066,23.142,5.699     C63.989,40.24,40.24,63.989,25.699,93.143z" fill="#6B7687"/>
		</g>
	</g>
</g>
<g>
</g>
<g>
</g>
<g>
</g>
<g>
</g>
<g>
</g>
<g>
</g>
<g>
</g>
<g>
</g>
<g>
</g>
<g>
</g>
<g>
</g>
<g>
</g>
<g>
</g>
<g>
</g>
<g>
</g>
</svg>
