<?xml version="1.0" encoding="iso-8859-1"?>
<!-- Generator: Adobe Illustrator 19.0.0, SVG Export Plug-In . SVG Version: 6.00 Build 0)  -->
<svg xmlns="http://www.w3.org/2000/svg" xmlns:xlink="http://www.w3.org/1999/xlink" version="1.1" id="Layer_1" x="0px" y="0px" viewBox="0 0 325.001 325.001" style="enable-background:new 0 0 325.001 325.001;" xml:space="preserve" width="512px" height="512px">
<g id="XMLID_518_">
	<g>
		<path d="M312.5,185.001l-25-40l-25,40h11.667c0,0-21.667,70-81.667,70c0-27.976,0-60.739,0-90h30v-40h-30    c0-9.328,0-17.473,0-23.938c15.036-9.826,25-26.799,25-46.063c0-30.327-24.673-55-55-55c-30.327,0-55,24.673-55,55    c0,19.264,9.964,36.236,25,46.063c0,6.465,0,14.609,0,23.938h-30v40h30c0,29.261,0,62.024,0,90c-60,0-81.667-70-81.667-70h11.667    l-25-40l-25,40h10c0,0-10,110,140,140c150-30,140-140,140-140H312.5z M162.501,80.001c-13.785,0-25-11.215-25-25    c0-13.785,11.215-25,25-25c13.785,0,25,11.215,25,25S176.286,80.001,162.501,80.001z" fill="#6B7687"/>
	</g>
</g>
<g>
</g>
<g>
</g>
<g>
</g>
<g>
</g>
<g>
</g>
<g>
</g>
<g>
</g>
<g>
</g>
<g>
</g>
<g>
</g>
<g>
</g>
<g>
</g>
<g>
</g>
<g>
</g>
<g>
</g>
</svg>
