<?xml version="1.0" encoding="iso-8859-1"?>
<!-- Generator: Adobe Illustrator 19.0.0, SVG Export Plug-In . SVG Version: 6.00 Build 0)  -->
<svg xmlns="http://www.w3.org/2000/svg" xmlns:xlink="http://www.w3.org/1999/xlink" version="1.1" id="Layer_1" x="0px" y="0px" viewBox="0 0 484.948 484.948" style="enable-background:new 0 0 484.948 484.948;" xml:space="preserve" width="512px" height="512px">
<path d="M397.474,76.948h-70v70h20v68.626l-90,15V66.926l35.407,0.153L242.408,0l-50.146,66.644l35.211,0.152v203.779l-90-15v-72.01  c11.814-5.628,20-17.682,20-31.616c0-19.299-15.701-35-35-35s-35,15.701-35,35c0,13.934,8.186,25.989,20,31.616v97.424l120,20  v55.726c-28.631,6.792-50,32.556-50,63.234c0,35.841,29.159,65,65,65c35.841,0,65-29.159,65-65c0-30.678-21.37-56.442-50-63.234  v-95.726l120-20v-94.041h20V76.948z" fill="#6B7687"/>
<g>
</g>
<g>
</g>
<g>
</g>
<g>
</g>
<g>
</g>
<g>
</g>
<g>
</g>
<g>
</g>
<g>
</g>
<g>
</g>
<g>
</g>
<g>
</g>
<g>
</g>
<g>
</g>
<g>
</g>
</svg>
