<?xml version="1.0" encoding="iso-8859-1"?>
<!-- Generator: Adobe Illustrator 19.0.0, SVG Export Plug-In . SVG Version: 6.00 Build 0)  -->
<svg version="1.1" id="Layer_1" xmlns="http://www.w3.org/2000/svg" xmlns:xlink="http://www.w3.org/1999/xlink" x="0px" y="0px"
	 viewBox="0 0 455 455" style="enable-background:new 0 0 455 455;" xml:space="preserve">
<g>
	<polygon points="150.618,395 130.5,455 324.5,455 304.382,395 	"/>
	<path d="M0,260c0,37.555,30.669,68,68.5,68c37.832,0,68.5-30.445,68.5-68H0z"/>
	<path d="M318,260c0,37.555,30.669,68,68.5,68c37.832,0,68.5-30.445,68.5-68H318z"/>
	<path d="M68.5,148.477L103.012,230h32.577l-44.45-105H212.5v240h30V125h121.362l-44.45,105h32.577l34.511-81.523L421.011,230
		h32.578l-57.15-135H242.5V55.977c8.964-5.188,15-14.874,15-25.977c0-16.569-13.431-30-30-30s-30,13.431-30,30
		c0,11.102,6.036,20.789,15,25.977V95H58.561L1.411,230h32.578L68.5,148.477z"/>
</g>
<g>
</g>
<g>
</g>
<g>
</g>
<g>
</g>
<g>
</g>
<g>
</g>
<g>
</g>
<g>
</g>
<g>
</g>
<g>
</g>
<g>
</g>
<g>
</g>
<g>
</g>
<g>
</g>
<g>
</g>
</svg>
