<?xml version="1.0" encoding="iso-8859-1"?>
<!-- Generator: Adobe Illustrator 19.1.0, SVG Export Plug-In . SVG Version: 6.00 Build 0)  -->
<svg xmlns="http://www.w3.org/2000/svg" xmlns:xlink="http://www.w3.org/1999/xlink" version="1.1" id="Capa_1" x="0px" y="0px" viewBox="0 0 465.61 465.61" style="enable-background:new 0 0 465.61 465.61;" xml:space="preserve" width="512px" height="512px">
<g>
	<polygon points="51.559,308.815 156.795,414.051 201.013,385.202 80.407,264.596  " fill="#6B7687"/>
	<polygon points="198.667,87.057 113.175,91.204 22.961,181.418 84.654,201.069  " fill="#6B7687"/>
	<polygon points="284.192,442.648 374.406,352.434 378.553,266.942 264.541,380.955  " fill="#6B7687"/>
	<path d="M0.001,360.612L34,326.612l21.213,21.213l-33.999,33.999L0.001,360.612z" fill="#6B7687"/>
	<path d="M104.992,465.61l-21.213-21.213l33.999-34l21.213,21.213L104.992,465.61z" fill="#6B7687"/>
	<path d="M25.021,417.876l50.122-50.122l21.213,21.213l-50.122,50.122L25.021,417.876z" fill="#6B7687"/>
	<circle cx="364.939" cy="100.67" r="15" fill="#6B7687"/>
	<path d="M454.967,10.643c-58.835-22.219-127.811-9.648-175.172,37.712L93.194,234.956l137.46,137.459l186.601-186.601   C464.615,138.454,477.185,69.478,454.967,10.643z M396.759,132.49c-17.574,17.573-46.066,17.573-63.64,0   c-17.574-17.574-17.574-46.066,0-63.64s46.066-17.574,63.64,0C414.332,86.424,414.332,114.917,396.759,132.49z" fill="#6B7687"/>
</g>
<g>
</g>
<g>
</g>
<g>
</g>
<g>
</g>
<g>
</g>
<g>
</g>
<g>
</g>
<g>
</g>
<g>
</g>
<g>
</g>
<g>
</g>
<g>
</g>
<g>
</g>
<g>
</g>
<g>
</g>
</svg>
