<?xml version="1.0" encoding="iso-8859-1"?>
<!-- Generator: Adobe Illustrator 19.0.0, SVG Export Plug-In . SVG Version: 6.00 Build 0)  -->
<svg xmlns="http://www.w3.org/2000/svg" xmlns:xlink="http://www.w3.org/1999/xlink" version="1.1" id="Layer_1" x="0px" y="0px" viewBox="0 0 455 455" style="enable-background:new 0 0 455 455;" xml:space="preserve" width="512px" height="512px">
<g>
	<path d="M152.217,256.537l-16.572,16.551c-35.298-16.404-78.582-10.07-107.711,19.007C-1.194,321.17-7.542,364.372,8.889,399.605   l49.257-49.142l46.218,46.135L55.107,445.74c35.297,16.401,78.577,10.065,107.705-19.01c29.125-29.072,35.474-72.268,19.05-107.499   l16.536-16.515L152.217,256.537z" fill="#6B7687"/>
	<path d="M302.789,198.457l16.566-16.545c35.298,16.404,78.582,10.069,107.711-19.007c29.128-29.075,35.475-72.277,19.045-107.51   l-49.257,49.142l-46.219-46.135L399.893,9.26C364.596-7.141,321.316-0.805,292.188,28.27   c-29.125,29.072-35.474,72.268-19.05,107.499l-16.532,16.51L302.789,198.457z" fill="#6B7687"/>
	<path d="M358.43,337.215l-97.189-97.189l20.345-20.345L76.549,14.664C59.48-2.463,31.73-2.435,14.652,14.625   c-17.127,17.127-17.089,44.847,0.01,61.936l205.026,205.018l20.34-20.34l97.19,97.19l7.565,31.645l63.102,63.102l45.294-45.294   l-63.102-63.102L358.43,337.215z" fill="#6B7687"/>
</g>
<g>
</g>
<g>
</g>
<g>
</g>
<g>
</g>
<g>
</g>
<g>
</g>
<g>
</g>
<g>
</g>
<g>
</g>
<g>
</g>
<g>
</g>
<g>
</g>
<g>
</g>
<g>
</g>
<g>
</g>
</svg>
