<?xml version="1.0" encoding="iso-8859-1"?>
<!-- Generator: Adobe Illustrator 19.0.0, SVG Export Plug-In . SVG Version: 6.00 Build 0)  -->
<svg xmlns="http://www.w3.org/2000/svg" xmlns:xlink="http://www.w3.org/1999/xlink" version="1.1" id="Layer_1" x="0px" y="0px" viewBox="0 0 455 455" style="enable-background:new 0 0 455 455;" xml:space="preserve" width="512px" height="512px">
<path d="M312.895,0.047c-33.328,0-63.498,13.445-85.395,35.229C205.603,13.492,175.433,0,142.105,0C75.221,0,21,54.213,21,121.097  c0,54.936,69.594,296.755,69.594,296.755C95.498,438.146,117.466,455,138.343,455H177V345.684c0-28.31,22.69-51.26,51-51.26  s51,22.95,51,51.26V455h38.875c20.878,0,41.986-16.854,46.89-37.147c0,0,69.235-241.645,69.235-296.638  C434,54.33,379.779,0.047,312.895,0.047z" fill="#6B7687"/>
<g>
</g>
<g>
</g>
<g>
</g>
<g>
</g>
<g>
</g>
<g>
</g>
<g>
</g>
<g>
</g>
<g>
</g>
<g>
</g>
<g>
</g>
<g>
</g>
<g>
</g>
<g>
</g>
<g>
</g>
</svg>
