<?xml version="1.0" encoding="iso-8859-1"?>
<!-- Generator: Adobe Illustrator 19.0.0, SVG Export Plug-In . SVG Version: 6.00 Build 0)  -->
<svg xmlns="http://www.w3.org/2000/svg" xmlns:xlink="http://www.w3.org/1999/xlink" version="1.1" id="Layer_1" x="0px" y="0px" viewBox="0 0 469.5 469.5" style="enable-background:new 0 0 469.5 469.5;" xml:space="preserve" width="512px" height="512px">
<path d="M353.625,0c-39.765,0-72.094,32.235-72.094,72c0,34.441,24.406,63.217,56.406,70.309V344.5c0,52.383-42.617,95-95,95  s-95-42.617-95-95v-70.701c42-7.023,74-44.166,74-88.799V0.5h-60v30h30V185c0,33.084-26.467,60-59,60s-59-26.916-59-60V30.5h30v-30  h-60V185c0,44.281,33,81.193,74,88.631V344.5c0,68.925,56.075,125,125,125s125-56.075,125-125V142.539  c33-6.71,57.625-35.741,57.625-70.539C425.563,32.235,393.39,0,353.625,0z M353.521,92.166c-11.028,0-19.999-8.972-19.999-20  c0-11.028,8.971-20,19.999-20c11.028,0,20.001,8.972,20.001,20C373.522,83.194,364.549,92.166,353.521,92.166z" fill="#6B7687"/>
<g>
</g>
<g>
</g>
<g>
</g>
<g>
</g>
<g>
</g>
<g>
</g>
<g>
</g>
<g>
</g>
<g>
</g>
<g>
</g>
<g>
</g>
<g>
</g>
<g>
</g>
<g>
</g>
<g>
</g>
</svg>
