<?xml version="1.0" encoding="iso-8859-1"?>
<!-- Generator: Adobe Illustrator 19.0.0, SVG Export Plug-In . SVG Version: 6.00 Build 0)  -->
<svg xmlns="http://www.w3.org/2000/svg" xmlns:xlink="http://www.w3.org/1999/xlink" version="1.1" id="Layer_1" x="0px" y="0px" viewBox="0 0 481.906 481.906" style="enable-background:new 0 0 481.906 481.906;" xml:space="preserve" width="512px" height="512px">
<g>
	<path d="M85,5.953c-23.805,0-45.783,12.984-61.884,36.563C8.209,64.342,0,93.087,0,123.453s8.209,59.111,23.116,80.938   C35.769,222.92,52.053,234.902,70,239.185v236.768h30V239.185c17.947-4.283,34.231-16.266,46.885-34.795   C161.791,182.564,170,153.819,170,123.453s-8.209-59.111-23.115-80.938C130.783,18.937,108.805,5.953,85,5.953z" fill="#6B7687"/>
	<path d="M209.16,80.953V274.31h60v201.643h30v-470h-15C242.805,5.953,209.16,39.597,209.16,80.953z" fill="#6B7687"/>
	<path d="M451.906,5.953v145h-30v-145h-30v145h-30v-145h-30v160c0,36.22,25.808,66.522,60,73.491v236.509h30V239.444   c34.192-6.969,60-37.271,60-73.491v-160H451.906z" fill="#6B7687"/>
</g>
<g>
</g>
<g>
</g>
<g>
</g>
<g>
</g>
<g>
</g>
<g>
</g>
<g>
</g>
<g>
</g>
<g>
</g>
<g>
</g>
<g>
</g>
<g>
</g>
<g>
</g>
<g>
</g>
<g>
</g>
</svg>
