<?xml version="1.0" encoding="iso-8859-1"?>
<!-- Generator: Adobe Illustrator 19.0.0, SVG Export Plug-In . SVG Version: 6.00 Build 0)  -->
<svg xmlns="http://www.w3.org/2000/svg" xmlns:xlink="http://www.w3.org/1999/xlink" version="1.1" id="Layer_1" x="0px" y="0px" viewBox="0 0 455 455" style="enable-background:new 0 0 455 455;" xml:space="preserve" width="512px" height="512px">
<g>
	<polygon style="fill-rule:evenodd;clip-rule:evenodd;" points="135.905,187.68 227.462,245.953 324.002,185.499 227.462,129.423     " fill="#6B7687"/>
	<path style="fill-rule:evenodd;clip-rule:evenodd;" d="M0,0v455h455V0H0z M324.123,315.34l-96.661,63.299l-96.358-63.769v-22.655   l35.436,20.762l60.922-46.794l62.301,46.854l34.36-20.413V315.34z M385,237.321l-94.42,56.076l-63.118-47.444l-61.816,47.444   L70,237.321l65.905-49.641L70,138.055l95.646-61.694l61.816,53.063l64.542-53.063L385,135.147l-60.998,50.352L385,237.321z" fill="#6B7687"/>
</g>
<g>
</g>
<g>
</g>
<g>
</g>
<g>
</g>
<g>
</g>
<g>
</g>
<g>
</g>
<g>
</g>
<g>
</g>
<g>
</g>
<g>
</g>
<g>
</g>
<g>
</g>
<g>
</g>
<g>
</g>
</svg>
