<?xml version="1.0" encoding="iso-8859-1"?>
<!-- Generator: Adobe Illustrator 19.0.0, SVG Export Plug-In . SVG Version: 6.00 Build 0)  -->
<svg xmlns="http://www.w3.org/2000/svg" xmlns:xlink="http://www.w3.org/1999/xlink" version="1.1" id="Layer_1" x="0px" y="0px" viewBox="0 0 454.992 454.992" style="enable-background:new 0 0 454.992 454.992;" xml:space="preserve" width="512px" height="512px">
<g>
	<path d="M446.524,8.468c-44.052-9.604-89.526-11.037-134.005-4.31l138.314,138.315C457.561,97.995,456.128,52.521,446.524,8.468z" fill="#6B7687"/>
	<path d="M8.468,446.524c44.052,9.604,89.527,11.037,134.005,4.31L4.159,312.519C-2.568,356.998-1.136,402.472,8.468,446.524z" fill="#6B7687"/>
	<path d="M107.729,107.729c-48.586,48.586-80.732,107.384-96.45,169.484l166.501,166.501c62.1-15.718,120.898-47.864,169.484-96.45   c48.586-48.586,80.731-107.384,96.45-169.484l-166.5-166.501C215.113,26.997,156.315,59.143,107.729,107.729z M314.128,210.554   l-24.238-24.238L250.305,225.9l24.238,24.238l-21.213,21.213l-24.238-24.238l-42.776,42.776l24.238,24.238l-21.213,21.213   l-69.689-69.689l21.213-21.213l24.238,24.238l42.776-42.776l-24.238-24.238l21.213-21.213l24.238,24.238l39.585-39.585   l-24.238-24.238l21.213-21.213l69.689,69.689L314.128,210.554z" fill="#6B7687"/>
</g>
<g>
</g>
<g>
</g>
<g>
</g>
<g>
</g>
<g>
</g>
<g>
</g>
<g>
</g>
<g>
</g>
<g>
</g>
<g>
</g>
<g>
</g>
<g>
</g>
<g>
</g>
<g>
</g>
<g>
</g>
</svg>
