<?xml version="1.0" encoding="iso-8859-1"?>
<!-- Generator: Adobe Illustrator 19.0.0, SVG Export Plug-In . SVG Version: 6.00 Build 0)  -->
<svg xmlns="http://www.w3.org/2000/svg" xmlns:xlink="http://www.w3.org/1999/xlink" version="1.1" id="Layer_1" x="0px" y="0px" viewBox="0 0 443.231 443.231" style="enable-background:new 0 0 443.231 443.231;" xml:space="preserve" width="512px" height="512px">
<g>
	<path d="M381.051,231.153H62.18c0,60.741,63.418,110.635,144.436,116.169v35.91h-41.361l-20,60h152.721l-20-60h-41.361v-35.91   C317.634,341.788,381.051,291.894,381.051,231.153z" fill="#6B7687"/>
	<path d="M327.183,113.632c-58.21-58.21-152.925-58.21-211.135,0l21.213,21.213c46.514-46.513,122.195-46.513,168.709,0   L327.183,113.632z" fill="#6B7687"/>
	<path d="M221.616,30c50.625,0,98.161,19.656,133.852,55.347l21.213-21.213C335.323,22.776,280.253,0,221.616,0   S107.908,22.776,66.551,64.134l21.213,21.213C123.455,49.656,170.991,30,221.616,30z" fill="#6B7687"/>
	<path d="M165.546,163.129l21.213,21.213c9.292-9.291,21.67-14.408,34.857-14.408s25.565,5.117,34.857,14.408l21.213-21.213   c-14.958-14.958-34.87-23.195-56.07-23.195S180.503,148.171,165.546,163.129z" fill="#6B7687"/>
</g>
<g>
</g>
<g>
</g>
<g>
</g>
<g>
</g>
<g>
</g>
<g>
</g>
<g>
</g>
<g>
</g>
<g>
</g>
<g>
</g>
<g>
</g>
<g>
</g>
<g>
</g>
<g>
</g>
<g>
</g>
</svg>
