<?xml version="1.0" encoding="iso-8859-1"?>
<!-- Generator: Adobe Illustrator 19.0.0, SVG Export Plug-In . SVG Version: 6.00 Build 0)  -->
<svg xmlns="http://www.w3.org/2000/svg" xmlns:xlink="http://www.w3.org/1999/xlink" version="1.1" id="Layer_1" x="0px" y="0px" viewBox="0 0 450.606 450.606" style="enable-background:new 0 0 450.606 450.606;" xml:space="preserve" width="512px" height="512px">
<g>
	<path d="M154.625,252.537c7.036,22.595,14.52,28.862,16.375,29.443c1.855-0.581,9.339-6.848,16.375-29.443   c5.719-18.365,9.284-41.583,10.309-66.537h-53.368C145.341,210.955,148.906,234.172,154.625,252.537z" fill="#6B7687"/>
	<path d="M61.017,156h53.275c1.251-32.38,6.572-64.632,16.341-88.4C93.801,82.029,66.5,115.595,61.017,156z" fill="#6B7687"/>
	<path d="M280.983,156c-5.483-40.405-32.784-73.971-69.616-88.4c9.769,23.768,15.09,56.02,16.341,88.4H280.983z" fill="#6B7687"/>
	<path d="M171,60.02c-1.855,0.581-9.339,6.848-16.375,29.443c-5.719,18.365-9.284,41.583-10.309,66.537h53.368   c-1.025-24.955-4.59-48.172-10.309-66.537C180.339,66.868,172.855,60.601,171,60.02z" fill="#6B7687"/>
	<path d="M61.017,186c5.483,40.405,32.784,73.971,69.616,88.4c-9.769-23.768-15.09-56.02-16.341-88.4H61.017z" fill="#6B7687"/>
	<path d="M211.367,274.4c36.831-14.429,64.133-47.995,69.616-88.4h-53.275C226.457,218.38,221.136,250.632,211.367,274.4z" fill="#6B7687"/>
	<path d="M171,0C76.71,0,0,76.71,0,171s76.71,171,171,171s171-76.71,171-171S265.29,0,171,0z M171,312c-77.748,0-141-63.252-141-141   S93.252,30,171,30s141,63.252,141,141S248.748,312,171,312z" fill="#6B7687"/>
	<path d="M323.271,302.059c-6.537,7.584-13.629,14.676-21.213,21.213l127.335,127.335l21.213-21.213L323.271,302.059z" fill="#6B7687"/>
</g>
<g>
</g>
<g>
</g>
<g>
</g>
<g>
</g>
<g>
</g>
<g>
</g>
<g>
</g>
<g>
</g>
<g>
</g>
<g>
</g>
<g>
</g>
<g>
</g>
<g>
</g>
<g>
</g>
<g>
</g>
</svg>
