<?xml version="1.0" encoding="iso-8859-1"?>
<!-- Generator: Adobe Illustrator 19.0.0, SVG Export Plug-In . SVG Version: 6.00 Build 0)  -->
<svg xmlns="http://www.w3.org/2000/svg" xmlns:xlink="http://www.w3.org/1999/xlink" version="1.1" id="Layer_1" x="0px" y="0px" viewBox="0 0 485 485" style="enable-background:new 0 0 485 485;" xml:space="preserve" width="512px" height="512px">
<g>
	<path d="M282.503,455v-88.877c-4.96,0.472-9.962,0.715-15,0.715c-5.038,0-10.04-0.243-15-0.715v24.937   c-92.723-7.65-165.838-85.559-165.838-180.222S159.78,38.267,252.503,30.616v24.937c4.96-0.471,9.962-0.715,15-0.715   c5.038,0,10.04,0.243,15,0.715V0h-15C151.246,0,56.664,94.582,56.664,210.838c0,111.211,86.558,202.589,195.838,210.311V455   H106.669v30h321.667v-30H282.503z" fill="#6B7687"/>
	<path d="M267.503,99.858c-1.855,0.581-9.339,6.848-16.375,29.442c-5.719,18.365-9.284,41.583-10.309,66.538h53.369   c-1.026-24.954-4.59-48.171-10.309-66.536C276.842,106.707,269.358,100.439,267.503,99.858z" fill="#6B7687"/>
	<path d="M392.61,225.838H324.21c-1.627,42.123-10.148,84.024-26.378,107.316C348.051,320.742,386.395,278.22,392.61,225.838z" fill="#6B7687"/>
	<path d="M392.61,195.838c-6.215-52.382-44.558-94.905-94.778-107.316c16.231,23.292,24.751,65.194,26.378,107.316H392.61z" fill="#6B7687"/>
	<path d="M251.128,292.376c7.036,22.594,14.52,28.861,16.375,29.442c1.855-0.581,9.339-6.849,16.375-29.444   c5.719-18.365,9.283-41.582,10.309-66.536h-53.369C241.844,250.793,245.409,274.011,251.128,292.376z" fill="#6B7687"/>
	<path d="M142.395,195.838h68.4c1.627-42.123,10.148-84.024,26.379-107.316C186.954,100.933,148.61,143.456,142.395,195.838z" fill="#6B7687"/>
	<path d="M142.395,225.838c6.215,52.382,44.559,94.905,94.778,107.316c-16.231-23.292-24.752-65.194-26.379-107.316H142.395z" fill="#6B7687"/>
</g>
<g>
</g>
<g>
</g>
<g>
</g>
<g>
</g>
<g>
</g>
<g>
</g>
<g>
</g>
<g>
</g>
<g>
</g>
<g>
</g>
<g>
</g>
<g>
</g>
<g>
</g>
<g>
</g>
<g>
</g>
</svg>
