<?xml version="1.0" encoding="iso-8859-1"?>
<!-- Generator: Adobe Illustrator 19.0.0, SVG Export Plug-In . SVG Version: 6.00 Build 0)  -->
<svg xmlns="http://www.w3.org/2000/svg" xmlns:xlink="http://www.w3.org/1999/xlink" version="1.1" id="Capa_1" x="0px" y="0px" viewBox="0 0 400 400" style="enable-background:new 0 0 400 400;" xml:space="preserve" width="512px" height="512px">
<g id="XMLID_9_">
	<polygon id="XMLID_821_" points="300,399.999 360,340 300,340  " fill="#6B7687"/>
	<path id="XMLID_822_" d="M360,310V0H40v400h230v-90H360z M100,80h200v30H100V80z M100,140h200v30H100V140z M100,200h200v30H100V200   z M183.743,342.322L180.208,360l-29.497-29.498L121.213,360l-3.535-17.678L100,338.787l24.389-24.389   c-2.344-4.274-3.678-9.18-3.678-14.398c0-16.568,13.432-30,30-30c16.568,0,30,13.432,30,30c0,5.219-1.334,10.125-3.678,14.398   l24.388,24.389L183.743,342.322z" fill="#6B7687"/>
</g>
<g>
</g>
<g>
</g>
<g>
</g>
<g>
</g>
<g>
</g>
<g>
</g>
<g>
</g>
<g>
</g>
<g>
</g>
<g>
</g>
<g>
</g>
<g>
</g>
<g>
</g>
<g>
</g>
<g>
</g>
</svg>
