<?xml version="1.0" encoding="iso-8859-1"?>
<!-- Generator: Adobe Illustrator 17.1.0, SVG Export Plug-In . SVG Version: 6.00 Build 0)  -->
<!DOCTYPE svg PUBLIC "-//W3C//DTD SVG 1.1//EN" "http://www.w3.org/Graphics/SVG/1.1/DTD/svg11.dtd">
<svg xmlns="http://www.w3.org/2000/svg" xmlns:xlink="http://www.w3.org/1999/xlink" version="1.1" id="Capa_1" x="0px" y="0px" viewBox="0 0 297.142 297.142" style="enable-background:new 0 0 297.142 297.142;" xml:space="preserve" width="512px" height="512px">
<path d="M263.685,147.071h-33.544V127.41c0-7.149-5.517-13.339-12.667-13.339h-3.333v-24c0-4.418-3.582-8-8-8s-8,3.582-8,8v24h-1.83  c-7.15,0-15.795,5.309-19.212,11.59l-11.362,20.975l-50.929,0.305c-9.3,0-38.916,8.768-65.693,17.334l-16.641-16.203H16.142v26.976  c-9,3.3-16.142,5.524-16.142,5.524s7.142,2.274,16.142,5.651v27.849h16.333l16.284-16.963c27.024,8.855,57.091,17.963,66.455,17.963  h148.472c18.661,0,33.456-15.129,33.456-33.79v-0.42C297.142,162.2,282.347,147.071,263.685,147.071z" fill="#6B7687"/>
<g>
</g>
<g>
</g>
<g>
</g>
<g>
</g>
<g>
</g>
<g>
</g>
<g>
</g>
<g>
</g>
<g>
</g>
<g>
</g>
<g>
</g>
<g>
</g>
<g>
</g>
<g>
</g>
<g>
</g>
</svg>
