<?xml version="1.0" encoding="iso-8859-1"?>
<!-- Generator: Adobe Illustrator 17.1.0, SVG Export Plug-In . SVG Version: 6.00 Build 0)  -->
<!DOCTYPE svg PUBLIC "-//W3C//DTD SVG 1.1//EN" "http://www.w3.org/Graphics/SVG/1.1/DTD/svg11.dtd">
<svg xmlns="http://www.w3.org/2000/svg" xmlns:xlink="http://www.w3.org/1999/xlink" version="1.1" id="Capa_1" x="0px" y="0px" viewBox="0 0 297.283 297.283" style="enable-background:new 0 0 297.283 297.283;" xml:space="preserve" width="512px" height="512px">
<path d="M263.642,247.283v-32.666l-91-116.272V90.95c0-18.226-8.167-90.95-24-90.95s-24,72.725-24,90.95v8.421l-0.079-1.088  L33.642,214.617v32.666l91-50.563v35.844l-42,31.719v16h33v9c0,4.418,3.582,8,8,8s8-3.582,8-8v-9h34v9c0,4.418,3.582,8,8,8  s8-3.582,8-8v-9h33v-16l-42-31.835v-35.705L263.642,247.283z" fill="#6B7687"/>
<g>
</g>
<g>
</g>
<g>
</g>
<g>
</g>
<g>
</g>
<g>
</g>
<g>
</g>
<g>
</g>
<g>
</g>
<g>
</g>
<g>
</g>
<g>
</g>
<g>
</g>
<g>
</g>
<g>
</g>
</svg>
