<?xml version="1.0" encoding="iso-8859-1"?>
<!-- Generator: Adobe Illustrator 17.1.0, SVG Export Plug-In . SVG Version: 6.00 Build 0)  -->
<!DOCTYPE svg PUBLIC "-//W3C//DTD SVG 1.1//EN" "http://www.w3.org/Graphics/SVG/1.1/DTD/svg11.dtd">
<svg xmlns="http://www.w3.org/2000/svg" xmlns:xlink="http://www.w3.org/1999/xlink" version="1.1" id="Capa_1" x="0px" y="0px" viewBox="0 0 299 299" style="enable-background:new 0 0 299 299;" xml:space="preserve" width="512px" height="512px">
<g>
	<path d="M291,141h-25.917c-1.661-25.737-11.796-49.203-27.645-67.624l18.274-18.274c3.124-3.125,3.124-8.189,0-11.314   c-3.125-3.123-8.189-3.123-11.314,0l-18.375,18.208c-18.46-16.278-42.357-26.753-68.357-28.546V8c0-4.418-3.582-8-8-8   c-4.418,0-8,3.582-8,8v25.449c-26,1.793-49.564,12.268-68.024,28.546L55.518,43.787c-3.125-3.123-8.148-3.123-11.273,0   c-3.124,3.125-3.103,8.189,0.021,11.314l18.285,18.274C46.702,91.797,36.578,115.263,34.917,141H8c-4.418,0-8,3.582-8,8   s3.582,8,8,8h26.981c1.892,25.845,12.34,49.348,28.514,67.69l-19.208,19.208c-3.124,3.125-3.124,8.189,0,11.314   c1.563,1.562,3.609,2.343,5.657,2.343c2.048,0,4.095-0.781,5.657-2.343l19.108-19.274c18.302,15.746,41.957,25.853,66.958,27.612   V291c0,4.418,3.582,8,8,8c4.418,0,8-3.582,8-8v-27.449c26-1.759,48.989-11.866,67.29-27.612l19.358,19.274   c1.563,1.562,3.651,2.343,5.699,2.343c2.048,0,4.116-0.781,5.678-2.343c3.124-3.125,3.134-8.189,0.01-11.314L236.5,224.69   c16.174-18.343,26.627-41.846,28.519-67.69H291c4.418,0,8-3.582,8-8S295.418,141,291,141z M232.979,141h-63.164l44.911-44.911   C224.868,108.591,231.461,124.072,232.979,141z M203.174,84.679l-45.507,45.507V65.56   C175.667,67.209,190.607,74.126,203.174,84.679z M141.667,65.56v64.626L96.16,84.679C108.727,74.126,124.667,67.209,141.667,65.56z    M85.274,96.089L130.186,141H67.021C68.539,124.072,75.132,108.591,85.274,96.089z M67.098,157h64.088l-45.007,45.007   C75.728,189.561,68.831,174.035,67.098,157z M97.256,213.226l44.411-44.411v62.626C125.667,229.839,109.635,223.269,97.256,213.226   z M157.667,231.44v-62.626l44.411,44.411C189.699,223.269,174.667,229.839,157.667,231.44z M213.821,202.007L168.814,157h64.088   C231.169,174.035,224.273,189.561,213.821,202.007z" fill="#6B7687"/>
</g>
<g>
</g>
<g>
</g>
<g>
</g>
<g>
</g>
<g>
</g>
<g>
</g>
<g>
</g>
<g>
</g>
<g>
</g>
<g>
</g>
<g>
</g>
<g>
</g>
<g>
</g>
<g>
</g>
<g>
</g>
</svg>
