<?xml version="1.0" encoding="iso-8859-1"?>
<!-- Generator: Adobe Illustrator 16.0.0, SVG Export Plug-In . SVG Version: 6.00 Build 0)  -->
<!DOCTYPE svg PUBLIC "-//W3C//DTD SVG 1.1//EN" "http://www.w3.org/Graphics/SVG/1.1/DTD/svg11.dtd">
<svg xmlns="http://www.w3.org/2000/svg" xmlns:xlink="http://www.w3.org/1999/xlink" version="1.1" id="Capa_1" x="0px" y="0px" width="512px" height="512px" viewBox="0 0 44.335 44.335" style="enable-background:new 0 0 44.335 44.335;" xml:space="preserve">
<g>
	<path d="M33.667,10.146c0.828,0,1.5-0.671,1.5-1.5V5.021c0-0.829-0.672-1.5-1.5-1.5h-2.5V1.5c0-0.829-0.672-1.5-1.5-1.5   s-1.5,0.67-1.5,1.5v2.021h-12V1.5c0-0.829-0.672-1.5-1.5-1.5s-1.5,0.67-1.5,1.5v2.021h-2.5c-0.828,0-1.5,0.671-1.5,1.5v3.625   c0,0.829,0.672,1.5,1.5,1.5h2.5v1.042h-2.5c-0.828,0-1.5,0.671-1.5,1.5v3.625c0,0.829,0.672,1.5,1.5,1.5h2.5v1.042h-2.5   c-0.828,0-1.5,0.671-1.5,1.5v3.625c0,0.828,0.672,1.5,1.5,1.5h2.5v1.041h-2.5c-0.828,0-1.5,0.672-1.5,1.5v3.625   c0,0.83,0.672,1.5,1.5,1.5h2.5v1.043h-2.5c-0.828,0-1.5,0.67-1.5,1.5v3.625c0,0.828,0.672,1.5,1.5,1.5h2.5v2.021   c0,0.828,0.672,1.5,1.5,1.5s1.5-0.672,1.5-1.5v-2.021h12v2.021c0,0.828,0.672,1.5,1.5,1.5s1.5-0.672,1.5-1.5v-2.021h2.5   c0.828,0,1.5-0.672,1.5-1.5v-3.625c0-0.83-0.672-1.5-1.5-1.5h-2.5v-1.043h2.5c0.828,0,1.5-0.67,1.5-1.5v-3.625   c0-0.828-0.672-1.5-1.5-1.5h-2.5V25.48h2.5c0.828,0,1.5-0.672,1.5-1.5v-3.625c0-0.829-0.672-1.5-1.5-1.5h-2.5v-1.042h2.5   c0.828,0,1.5-0.671,1.5-1.5v-3.625c0-0.829-0.672-1.5-1.5-1.5h-2.5v-1.042H33.667z M16.167,34.188v-1.041h12v1.041H16.167z    M16.167,26.521v-1.043h12v1.043H16.167z M16.167,18.854v-1.042h12v1.042H16.167z M16.167,11.188v-1.042h12v1.042H16.167z" fill="#6B7687"/>
</g>
<g>
</g>
<g>
</g>
<g>
</g>
<g>
</g>
<g>
</g>
<g>
</g>
<g>
</g>
<g>
</g>
<g>
</g>
<g>
</g>
<g>
</g>
<g>
</g>
<g>
</g>
<g>
</g>
<g>
</g>
</svg>
