<?xml version="1.0" encoding="iso-8859-1"?>
<!-- Generator: Adobe Illustrator 16.0.0, SVG Export Plug-In . SVG Version: 6.00 Build 0)  -->
<!DOCTYPE svg PUBLIC "-//W3C//DTD SVG 1.1//EN" "http://www.w3.org/Graphics/SVG/1.1/DTD/svg11.dtd">
<svg xmlns="http://www.w3.org/2000/svg" xmlns:xlink="http://www.w3.org/1999/xlink" version="1.1" id="Capa_1" x="0px" y="0px" width="512px" height="512px" viewBox="0 0 418.799 418.799" style="enable-background:new 0 0 418.799 418.799;" xml:space="preserve">
<g>
	<g>
		<path d="M395.719,225.122c-39.439-54.618-115.959-66.967-170.576-27.528c-54.618,39.439-66.967,115.959-27.528,170.577    c39.439,54.616,115.959,66.966,170.577,27.526C422.809,356.259,435.156,279.738,395.719,225.122z M261.141,286.261    c-6.343,4.58-15.197,3.152-19.777-3.189c-4.58-6.343-3.15-15.197,3.19-19.777c6.343-4.58,15.197-3.149,19.776,3.191    C268.91,272.826,267.482,281.683,261.141,286.261z M278.209,256.464c-4.58-6.342-3.15-15.195,3.191-19.776    c6.342-4.579,15.197-3.149,19.777,3.19c4.58,6.344,3.148,15.197-3.191,19.777C291.643,264.236,282.789,262.808,278.209,256.464z     M302.713,305.021c-6.342,4.578-15.195,3.148-19.775-3.191c-4.582-6.344-3.152-15.197,3.189-19.777    c6.344-4.58,15.197-3.15,19.777,3.19C310.484,291.585,309.057,300.439,302.713,305.021z" fill="#6B7687"/>
		<path d="M98.008,48.1c0.87-3.195,1.344-6.553,1.344-10.023c0-21.018-17.039-38.056-38.056-38.056S23.24,17.059,23.24,38.076    c0,3.471,0.473,6.828,1.343,10.023l8.284,47.576C13.33,122.543,0,157.339,0,219.196c0,69.838,16.99,148.151,40.723,170.319h41.144    c23.732-22.168,40.724-100.481,40.724-170.319c0-61.857-13.33-96.653-32.868-123.521L98.008,48.1z" fill="#6B7687"/>
		<path d="M210.506,177.325c14.477-10.453,30.457-18.059,47.32-22.652c-5.758-24.895-15.028-43.313-26.434-58.996l8.285-47.577    c0.871-3.195,1.344-6.553,1.344-10.023c0-21.018-17.039-38.056-38.057-38.056c-21.018,0-38.056,17.038-38.056,38.056    c0,3.471,0.473,6.828,1.343,10.023l8.284,47.576c-19.537,26.868-32.867,61.664-32.867,123.521c0,29.308,2.993,60.104,8.22,87.621    C146.573,257.788,167.815,208.153,210.506,177.325z" fill="#6B7687"/>
		<path d="M296.504,149.513c41.572,0,81.139,17.652,108.826,47.899c-2.799-48.572-15.148-78.197-32.266-101.735L381.35,48.1    c0.871-3.195,1.344-6.553,1.344-10.023c0-21.018-17.039-38.056-38.057-38.056S306.58,17.059,306.58,38.076    c0,3.471,0.475,6.828,1.346,10.023l8.283,47.576c-10.619,14.604-19.393,31.578-25.197,53.943    C292.838,149.551,294.668,149.513,296.504,149.513z" fill="#6B7687"/>
	</g>
</g>
<g>
</g>
<g>
</g>
<g>
</g>
<g>
</g>
<g>
</g>
<g>
</g>
<g>
</g>
<g>
</g>
<g>
</g>
<g>
</g>
<g>
</g>
<g>
</g>
<g>
</g>
<g>
</g>
<g>
</g>
</svg>
