<?xml version="1.0" encoding="iso-8859-1"?>
<!-- Generator: Adobe Illustrator 16.0.0, SVG Export Plug-In . SVG Version: 6.00 Build 0)  -->
<!DOCTYPE svg PUBLIC "-//W3C//DTD SVG 1.1//EN" "http://www.w3.org/Graphics/SVG/1.1/DTD/svg11.dtd">
<svg xmlns="http://www.w3.org/2000/svg" xmlns:xlink="http://www.w3.org/1999/xlink" version="1.1" id="Capa_1" x="0px" y="0px" width="512px" height="512px" viewBox="0 0 448.824 448.824" style="enable-background:new 0 0 448.824 448.824;" xml:space="preserve">
<g>
	<polygon points="444.619,113.301 412.363,94.264 385.73,67.723 372.857,21.23 363.104,18.496 276.938,117.611 240.59,141.064    204.744,146.133 52.289,145.99 34.353,132.994 20.508,80.35 4.992,74.148 0,83.861 3.369,117.873 22.324,169.193 22.433,169.996    4.859,220.135 16.504,282.162 14.58,322.984 8.355,344.891 7.969,403.799 19.603,430.305 48.82,430.328 59.049,420.699    42.801,403.166 38.051,373.701 51.459,332.061 55.441,325.932 56.963,326.84 57.695,365.16 72.221,410.006 82.912,425.912    114.611,426.02 119.912,415.746 99.745,394.079 97.642,343.799 117.48,289.037 131.293,266.389 151.002,263.744 259.316,283.982    263.844,300.77 253.441,402.151 267.777,426.081 292.037,426.079 305.232,416.354 302.277,402.214 286.027,393.964    303.643,305.852 310.902,408.619 332.037,430.328 353.912,430.311 361.85,417.412 347.547,406.015 340.262,391.814    354.459,161.898 370.592,150.978 382.914,150.453 412.832,159.801 448.824,144.079  " fill="#6B7687"/>
</g>
<g>
</g>
<g>
</g>
<g>
</g>
<g>
</g>
<g>
</g>
<g>
</g>
<g>
</g>
<g>
</g>
<g>
</g>
<g>
</g>
<g>
</g>
<g>
</g>
<g>
</g>
<g>
</g>
<g>
</g>
</svg>
