<?xml version="1.0" encoding="iso-8859-1"?>
<!-- Generator: Adobe Illustrator 16.0.0, SVG Export Plug-In . SVG Version: 6.00 Build 0)  -->
<!DOCTYPE svg PUBLIC "-//W3C//DTD SVG 1.1//EN" "http://www.w3.org/Graphics/SVG/1.1/DTD/svg11.dtd">
<svg xmlns="http://www.w3.org/2000/svg" xmlns:xlink="http://www.w3.org/1999/xlink" version="1.1" id="Capa_1" x="0px" y="0px" width="512px" height="512px" viewBox="0 0 983 983" style="enable-background:new 0 0 983 983;" xml:space="preserve">
<g>
	<path d="M937.8,702.95c-4.399-3.2-10.399,1.3-8.5,6.399c2.2,6,3.4,12.101,3.4,18.301c0,81.3-197.5,147.1-441.2,147.1   s-441.2-65.8-441.2-147c0-6.2,1.1-12.3,3.4-18.3c1.9-5.101-4-9.601-8.5-6.4c-29,20.9-45.2,44.2-45.2,68.7   c0,90.5,220,163.8,491.5,163.8S983,862.25,983,771.75C983,747.15,966.8,723.85,937.8,702.95z" fill="#6B7687"/>
	<path d="M811.6,674.15c4.301,6.1,6.601,12.399,6.601,18.8c0,51.8-146.3,93.8-326.7,93.8s-326.7-42-326.7-93.8   c0-6.4,2.3-12.7,6.6-18.8c3.3-4.7-1.8-10.7-7-8.2c-34.6,16.5-54.5,35.8-54.5,56.399c0,60.5,170.8,109.5,381.5,109.5   c210.699,0,381.5-49,381.5-109.5c0-20.6-19.9-39.899-54.5-56.399C813.4,663.45,808.3,669.45,811.6,674.15z" fill="#6B7687"/>
	<path d="M259.5,670.55c-3.2,1.8-4.7,5.601-3.6,9c11.6,34.5,112.6,61.4,235.6,61.4c122.9,0,223.8-26.9,235.6-61.2   c1.2-3.5-0.399-7.4-3.699-9.1c-28-14.7-191.2-69-225.9-354c21.9-3,38.9-21.7,38.9-44.5c0-24.8-20.101-44.9-44.9-44.9   s-44.9,20.1-44.9,44.9c0,22.9,17.101,41.7,39.2,44.5C451.6,602.85,286.2,655.85,259.5,670.55z" fill="#6B7687"/>
	<path d="M556.5,112.55c0-35.9-29.1-65.1-65.1-65.1c-35.9,0-65.101,29.1-65.101,65.1s29.101,65.1,65.101,65.1   C527.4,177.55,556.5,148.45,556.5,112.55z M471,115.55c-10.8,0-19.8-9-19.8-19.8s9-19.8,19.8-19.8s19.8,9,19.8,19.8   S481.8,115.55,471,115.55z" fill="#6B7687"/>
</g>
<g>
</g>
<g>
</g>
<g>
</g>
<g>
</g>
<g>
</g>
<g>
</g>
<g>
</g>
<g>
</g>
<g>
</g>
<g>
</g>
<g>
</g>
<g>
</g>
<g>
</g>
<g>
</g>
<g>
</g>
</svg>
