<?xml version="1.0" encoding="iso-8859-1"?>
<!-- Generator: Adobe Illustrator 16.0.0, SVG Export Plug-In . SVG Version: 6.00 Build 0)  -->
<!DOCTYPE svg PUBLIC "-//W3C//DTD SVG 1.1//EN" "http://www.w3.org/Graphics/SVG/1.1/DTD/svg11.dtd">
<svg xmlns="http://www.w3.org/2000/svg" xmlns:xlink="http://www.w3.org/1999/xlink" version="1.1" id="Capa_1" x="0px" y="0px" width="512px" height="512px" viewBox="0 0 940.466 940.467" style="enable-background:new 0 0 940.466 940.467;" xml:space="preserve">
<g>
	<g>
		<path d="M120.269,930.855c14.171,14.17,38.842,12.477,55.103-3.785l172.059-172.059l125.145,125.145    c16.262,16.26,42.626,16.26,58.889,0l48.765-48.766c16.261-16.26,16.261-42.625,0-58.887l-412.26-412.261    c-16.261-16.261-42.626-16.261-58.888,0l-48.765,48.765c-16.261,16.261-16.261,42.626,0,58.888l125.145,125.145L13.402,765.102    c-16.261,16.26-17.956,40.932-3.785,55.102L120.269,930.855z M104.553,774.85c16.864-16.865,44.207-16.865,61.071,0    c16.865,16.863,16.865,44.207,0,61.07c-16.864,16.863-44.207,16.863-61.071,0C87.688,819.057,87.688,791.713,104.553,774.85z" fill="#6B7687"/>
		<path d="M182.89,308.062c0.087,0.604,0.189,1.206,0.305,1.806c0.141,0.727,0.31,1.45,0.494,2.17    c1.633,6.404,4.948,12.467,9.959,17.479l104.327,104.327l312.982,312.982c2.788,2.787,5.899,5.053,9.215,6.795    c1.104,0.58,2.232,1.104,3.378,1.568c1.719,0.697,3.478,1.262,5.262,1.699c1.261,0.307,2.535,0.545,3.816,0.723    c1.055,0.146,2.114,0.246,3.177,0.305c0.11,0.006,0.22,0.014,0.331,0.02c0.58,0.027,1.159,0.043,1.739,0.043    c0.019,0,0.037-0.002,0.055-0.002c0.791-0.002,1.581-0.035,2.371-0.086c0.21-0.014,0.42-0.029,0.629-0.045    c0.805-0.064,1.609-0.145,2.409-0.26c3.019-0.436,5.996-1.234,8.859-2.396c1.146-0.465,2.273-0.986,3.378-1.568    c0.553-0.289,1.101-0.594,1.641-0.914c2.028-1.197,3.968-2.6,5.792-4.207c0.607-0.533,1.203-1.092,1.783-1.674l122.313-122.312    L909.42,502.199l19.898-19.898c0.602-0.602,1.177-1.217,1.729-1.846c3.861-4.404,6.528-9.49,8.016-14.834    c3.562-12.799,0.32-27.095-9.744-37.16l-4.789-4.788L548.13,47.267L512.013,11.15c-0.929-0.929-1.896-1.8-2.891-2.613    c-0.996-0.813-2.025-1.568-3.081-2.265c-1.583-1.045-3.228-1.96-4.917-2.744c-1.126-0.523-2.273-0.987-3.437-1.394    c-1.163-0.407-2.341-0.755-3.531-1.045c-1.783-0.436-3.594-0.74-5.414-0.915c-0.571-0.055-1.144-0.094-1.717-0.123    c-0.188-0.01-0.376-0.012-0.563-0.018c-0.388-0.014-0.774-0.026-1.162-0.028c-0.069,0-0.138-0.005-0.207-0.005    c-0.108,0-0.216,0.009-0.324,0.01c-0.545,0.005-1.09,0.021-1.634,0.049c-0.166,0.009-0.332,0.015-0.498,0.025    c-0.671,0.043-1.342,0.102-2.011,0.18c-0.12,0.014-0.24,0.034-0.361,0.049c-0.565,0.072-1.129,0.157-1.691,0.254    c-0.182,0.031-0.362,0.063-0.545,0.097c-0.669,0.126-1.337,0.263-2,0.425c-0.435,0.106-0.866,0.229-1.299,0.351    c-6.062,1.709-11.786,4.94-16.557,9.711l-4.731,4.731L193.648,275.677c-3.576,3.576-6.283,7.69-8.138,12.077    c-0.164,0.388-0.32,0.778-0.471,1.17c-0.521,1.356-0.963,2.734-1.323,4.13c-0.364,1.41-0.65,2.836-0.85,4.272    c-0.159,1.144-0.27,2.293-0.325,3.444c-0.029,0.608-0.044,1.217-0.044,1.826c0,0.609,0.014,1.218,0.044,1.826    C182.599,305.639,182.715,306.854,182.89,308.062z M479.388,32.363c1.954-1.953,4.181-2.363,5.706-2.363s3.753,0.41,5.706,2.363    l417.309,417.31c1.954,1.952,2.364,4.181,2.364,5.706c0,1.524-0.41,3.752-2.364,5.705l-35.76,35.76    c-22.289-2.576-45.004-2.17-66.333,4.598c-17.153,5.443-30.652,15.387-44.135,27.033c-14.211,12.273-29.746,25.285-48.874,28.549    c-16.185,2.76-34.984,0.664-46.476-12.539c-12.03-13.824-15.919-32.877-11.342-50.598c4.674-18.094,15.435-33.299,26.217-48.233    c11.19-15.497,22.867-30.812,32.259-47.503c9.07-16.121,29.632-47.116,18.218-65.91c-11.97-19.703-41.84-11.31-57.961-2.262    c-33.237,18.693-57.012,48.939-79.784,78.753c-6.471,8.472-12.824,17.068-19.581,25.316c-6.124,7.476-13.219,14.29-22.527,17.516    c-19.011,6.59-37.264-4.955-39.798-24.721c-2.48-19.355,12.443-34.246,25.229-46.51c14.409-13.819,29.678-26.718,43.984-40.645    c13.527-13.168,26.93-27.273,36.038-43.971c3.133-5.744,6.147-12.423,7.196-19.151c-27.065,0.615-54.272,1.188-79.893-9.117    c-16.372-6.585-31.188-17.422-40.014-33.036c-7.671-13.571-10.892-28.956-11.21-44.451c-0.637-30.967,7.706-61.689,1.901-92.569    c-3.923-20.872-11.735-40.511-23.14-57.968L479.388,32.363z" fill="#6B7687"/>
	</g>
</g>
<g>
</g>
<g>
</g>
<g>
</g>
<g>
</g>
<g>
</g>
<g>
</g>
<g>
</g>
<g>
</g>
<g>
</g>
<g>
</g>
<g>
</g>
<g>
</g>
<g>
</g>
<g>
</g>
<g>
</g>
</svg>
