<?xml version="1.0" encoding="iso-8859-1"?>
<!-- Generator: Adobe Illustrator 16.0.0, SVG Export Plug-In . SVG Version: 6.00 Build 0)  -->
<!DOCTYPE svg PUBLIC "-//W3C//DTD SVG 1.1//EN" "http://www.w3.org/Graphics/SVG/1.1/DTD/svg11.dtd">
<svg xmlns="http://www.w3.org/2000/svg" xmlns:xlink="http://www.w3.org/1999/xlink" version="1.1" id="Capa_1" x="0px" y="0px" width="512px" height="512px" viewBox="0 0 914.939 914.939" style="enable-background:new 0 0 914.939 914.939;" xml:space="preserve">
<g>
	<g>
		<path d="M486.769,58.598c-11.41,0-22.714,0.451-33.898,1.327v88.949c0,21.732-16.996,39.709-38.69,40.926    c-29.176,1.637-57.345,8.456-83.725,20.268c-26.442,11.841-50.396,28.391-71.197,49.19c-20.8,20.8-37.35,44.754-49.191,71.197    c-11.812,26.379-18.632,54.547-20.268,83.723c-1.217,21.695-19.194,38.691-40.926,38.691H59.926    c-0.876,11.185-1.328,22.49-1.328,33.9c0,236.473,191.699,428.17,428.171,428.17S914.939,723.24,914.939,486.77    C914.939,250.297,723.241,58.598,486.769,58.598z M670.618,670.619c-49.108,49.107-114.399,76.152-183.85,76.152    c-69.45,0-134.741-27.045-183.85-76.152c-49.109-49.107-76.153-114.4-76.153-183.85c0-69.451,27.045-134.742,76.153-183.851    c49.108-49.108,114.4-76.153,183.85-76.153c69.45,0,134.741,27.045,183.85,76.153s76.153,114.4,76.153,183.851    C746.771,556.219,719.727,621.512,670.618,670.619z" fill="#6B7687"/>
		<path d="M486.769,276.767c-115.795,0-210.002,94.207-210.002,210.002c0,115.795,94.207,210.002,210.002,210.002    c115.796,0,210.003-94.207,210.003-210.002C696.771,370.974,602.564,276.767,486.769,276.767z M486.769,322.146    c12.981,0,23.507,10.524,23.507,23.507c0,12.982-10.524,23.507-23.507,23.507c-12.983,0-23.507-10.524-23.507-23.507    C463.262,332.671,473.786,322.146,486.769,322.146z M344.258,511.67c-12.981,0-23.507-10.523-23.507-23.508    c0-12.98,10.524-23.506,23.507-23.506s23.507,10.523,23.507,23.506C367.765,501.146,357.241,511.67,344.258,511.67z     M486.769,654.182c-12.982,0-23.507-10.525-23.507-23.508s10.523-23.508,23.507-23.508c12.982,0,23.507,10.525,23.507,23.508    S499.751,654.182,486.769,654.182z M486.769,561.803c-41.44,0-75.034-33.594-75.034-75.033c0-41.441,33.594-75.035,75.034-75.035    c41.439,0,75.034,33.594,75.034,75.035C561.803,528.209,528.209,561.803,486.769,561.803z M652.785,488.162    c0,12.982-10.523,23.508-23.507,23.508c-12.982,0-23.506-10.523-23.506-23.508c0-12.98,10.523-23.506,23.506-23.506    C642.262,464.656,652.785,475.182,652.785,488.162z" fill="#6B7687"/>
		<path d="M16.004,427.871h46.617h86.253c8.483,0,15.49-6.622,15.965-15.092c3.629-64.697,30.556-125.011,76.742-171.198    c46.188-46.186,106.501-73.112,171.198-76.741c8.47-0.475,15.092-7.482,15.092-15.965V62.622V16.004    C427.871,7.173,420.727,0,411.974,0c-0.202,0-0.405,0.004-0.609,0.012C188.018,8.478,8.478,188.018,0.012,411.364    C-0.33,420.393,6.969,427.871,16.004,427.871z" fill="#6B7687"/>
	</g>
</g>
<g>
</g>
<g>
</g>
<g>
</g>
<g>
</g>
<g>
</g>
<g>
</g>
<g>
</g>
<g>
</g>
<g>
</g>
<g>
</g>
<g>
</g>
<g>
</g>
<g>
</g>
<g>
</g>
<g>
</g>
</svg>
