<?xml version="1.0" encoding="iso-8859-1"?>
<!-- Generator: Adobe Illustrator 16.0.0, SVG Export Plug-In . SVG Version: 6.00 Build 0)  -->
<!DOCTYPE svg PUBLIC "-//W3C//DTD SVG 1.1//EN" "http://www.w3.org/Graphics/SVG/1.1/DTD/svg11.dtd">
<svg xmlns="http://www.w3.org/2000/svg" xmlns:xlink="http://www.w3.org/1999/xlink" version="1.1" id="Capa_1" x="0px" y="0px" width="512px" height="512px" viewBox="0 0 946.867 946.867" style="enable-background:new 0 0 946.867 946.867;" xml:space="preserve">
<g>
	<g>
		<path d="M345.186,397.903l195.191,266.176c2.62,3.572,4.76,7.395,6.412,11.387c26.712-10.389,67.738-25.886,71.041-29.361    c3.809-4.008,0.767-9.709-0.57-14.285c-3.314-11.346-6.9-22.615-10.521-33.867c-0.656-2.04-1.313-4.079-1.979-6.116    c-0.811-3.295,1.203-6.623,4.497-7.436c0,0,49.829-12.266,50.02-12.312c1.479-0.364,2.828-1.507,3.753-2.94    c1.019-1.578,1.521-3.509,1.121-5.142l-12.888-52.352c-0.811-3.295,1.202-6.623,4.497-7.435l50.114-12.337    c1.619-0.399,3.006-1.438,3.844-2.88l0.306-0.526c0.8-1.376,1.034-3.009,0.653-4.555l-12.911-52.448    c-0.811-3.295,1.202-6.623,4.497-7.435l50.208-12.36c1.619-0.398,3.007-1.438,3.844-2.88l0.235-0.405    c0.8-1.376,1.034-3.009,0.653-4.555l-12.936-52.545c-0.812-3.295,1.202-6.623,4.497-7.435l50.302-12.383    c1.618-0.398,3.006-1.438,3.844-2.879l0.166-0.285c0.799-1.376,1.034-3.009,0.652-4.555l-10.808-43.903    c-1.188-4.826-2.822-11.107-1.442-13.388c0.814-1.345,2.142-2.38,3.789-2.786l50.396-12.406c0.81-0.199,1.561-0.559,2.215-1.049    c1.091-0.817,1.65-1.868,1.677-1.913l0.049-0.082c0.8-1.376,1.033-3.009,0.653-4.555l-12.982-52.74    c-0.812-3.295,1.202-6.623,4.497-7.434l50.488-12.429c1.619-0.398,3.006-1.438,3.845-2.879l0.025-0.044    c0.8-1.376,1.034-3.009,0.653-4.555l-13.007-52.837c-0.812-3.295,1.202-6.623,4.497-7.435l49.237-14.003    c4.781-1.36,9.393-2.555,9.355-6.819c-0.021-2.493-5.385-6.41-9.065-9.751l-53.676-48.722c-3.681-3.341-9.938-8.613-14.731-9.929    c-7.222-1.984-15.138-0.665-21.432,3.95L338.866,391.377C341.231,393.248,343.37,395.427,345.186,397.903z" fill="#6B7687"/>
		<path d="M26.063,699.651c5.694,7.766,14.518,11.879,23.461,11.879c5.965,0,11.984-1.83,17.163-5.628c0,0,2.452-1.798,5.477-4.016    c0.96-0.704,2.103-1.039,3.31-1.039c2.594,0,5.482,1.545,7.489,4.28l97.44,132.877c2.939,4.008,2.87,9.056-0.154,11.273    l-5.477,4.017c-12.944,9.491-15.742,27.68-6.25,40.624l20.434,27.864c5.694,7.766,14.518,11.88,23.46,11.88    c5.966,0,11.984-1.83,17.164-5.629l34.391-25.219l27.713-20.322l222.284-163.005c11.083-8.127,14.72-22.628,9.58-34.756    c-0.863-2.036-1.965-4.008-3.33-5.868L325.026,412.687c-1.764-2.404-4.496-3.678-7.266-3.678c-1.847,0-3.711,0.566-5.314,1.743    l-49.596,36.368L73.982,585.62l-27.713,20.322l-34.39,25.219c-12.944,9.492-15.743,27.681-6.25,40.625L26.063,699.651z     M132.58,609.825l65.62-48.119c12.944-9.492,31.132-6.694,40.624,6.25l119.258,162.628c9.492,12.943,6.694,31.132-6.25,40.624    l-65.62,48.119c-12.944,9.492-31.132,6.694-40.624-6.25L126.33,650.449C116.838,637.506,119.636,619.317,132.58,609.825z" fill="#6B7687"/>
	</g>
</g>
<g>
</g>
<g>
</g>
<g>
</g>
<g>
</g>
<g>
</g>
<g>
</g>
<g>
</g>
<g>
</g>
<g>
</g>
<g>
</g>
<g>
</g>
<g>
</g>
<g>
</g>
<g>
</g>
<g>
</g>
</svg>
