<?xml version="1.0" encoding="iso-8859-1"?>
<!-- Generator: Adobe Illustrator 16.0.0, SVG Export Plug-In . SVG Version: 6.00 Build 0)  -->
<!DOCTYPE svg PUBLIC "-//W3C//DTD SVG 1.1//EN" "http://www.w3.org/Graphics/SVG/1.1/DTD/svg11.dtd">
<svg xmlns="http://www.w3.org/2000/svg" xmlns:xlink="http://www.w3.org/1999/xlink" version="1.1" id="Capa_1" x="0px" y="0px" width="512px" height="512px" viewBox="0 0 503.3 503.3" style="enable-background:new 0 0 503.3 503.3;" xml:space="preserve">
<g>
	<g>
		<path d="M111.7,211.59c3.2-10.6,7.2-21,12.1-31.1c10.4-21.4,24.3-40.6,41.4-57c35.6-34.2,81.6-53,129.6-53    c2.101,0,4.3,0.1,6.5,0.1c12.9,0.4,25.6,2,38,4.5c-13.4-20.1-36.2-33.3-62.2-33.3h-184c-9.6,0-17.3,7.8-17.3,17.3v107.4H22.5    c-12.4,0-22.5,10.1-22.5,22.5s10.1,22.5,22.5,22.5h53.3h19.3L111.7,211.59L111.7,211.59z" fill="#6B7687"/>
		<path d="M470.3,297.99H351.1c-1.6,24.399-21.899,43.7-46.7,43.7c-24.8,0-45.1-19.301-46.7-43.7H138.4    c5.9,4.899,23.4,9.101,24,14.2c0.8,6.3-22.5,16.9-21,22.9c1.5,6.1,27,4.699,29.3,10.5c2.2,5.899-17.8,21.799-14.9,27.299    s27.4-2,31,3.201c3.6,5.199-12.1,25.399-7.9,30.1c4.1,4.7,26.1-8.4,30.8-4.3c4.7,4.1-5.7,27.5-0.5,31.1    c5.2,3.5,23.4-14.4,28.9-11.5s1,28.1,6.9,30.3c5.8,2.2,19.199-19.6,25.3-18.1c6,1.5,7.7,27,14,27.8    c6.101,0.8,13.899-23.6,20.2-23.6c6.3,0,14.1,24.399,20.2,23.6c6.3-0.8,8-26.3,14-27.8c6.1-1.5,19.5,20.3,25.3,18.1    c5.899-2.2,1.399-27.399,6.899-30.3s23.801,15,28.9,11.5c5.2-3.6-5.2-26.9-0.5-31.1c4.7-4.101,26.7,9,30.8,4.3    c4.101-4.7-11.5-24.9-7.899-30.1c3.5-5.201,28,2.299,31-3.201c2.899-5.5-17.2-21.399-14.9-27.299c2.2-5.801,27.8-4.4,29.3-10.5    c1.5-6-21.8-16.601-21-22.9C446.899,306.99,464.399,302.89,470.3,297.99z" fill="#6B7687"/>
		<path d="M497.3,251.19h-13.6c-4.2-76.6-59.301-139.9-136.4-160.2c-14.7-3.9-30.3-6.2-46.399-6.8c-2-0.1-4-0.1-6-0.1    c-79.201,0-145.801,54.7-168.9,127.5c-4,12.7-6.7,26-8,39.6H99c-3.3,0-5.9,2.699-5.9,5.9v21.299c0,3.301,2.7,5.9,5.9,5.9h398.399    c3.301,0,5.9-2.699,5.9-5.9v-21.299C503.2,253.89,500.6,251.19,497.3,251.19z M376.3,256.79H346c-7.3-15.9-23.601-26.9-42.5-26.9    c-19,0-35.301,11-42.5,26.9h-30.2c-4.6,0-8.1-4-7.7-8.5c1.4-13.5,6.1-26,13.4-36.7c14.6-21.6,39.199-35.7,67.1-35.7    c11.601,0,22.5,2.4,32.5,6.8c26,11.5,44.9,36.2,48,65.6C384.5,252.89,380.899,256.79,376.3,256.79z" fill="#6B7687"/>
	</g>
</g>
<g>
</g>
<g>
</g>
<g>
</g>
<g>
</g>
<g>
</g>
<g>
</g>
<g>
</g>
<g>
</g>
<g>
</g>
<g>
</g>
<g>
</g>
<g>
</g>
<g>
</g>
<g>
</g>
<g>
</g>
</svg>
