<?xml version="1.0" encoding="iso-8859-1"?>
<!-- Generator: Adobe Illustrator 16.0.0, SVG Export Plug-In . SVG Version: 6.00 Build 0)  -->
<!DOCTYPE svg PUBLIC "-//W3C//DTD SVG 1.1//EN" "http://www.w3.org/Graphics/SVG/1.1/DTD/svg11.dtd">
<svg xmlns="http://www.w3.org/2000/svg" xmlns:xlink="http://www.w3.org/1999/xlink" version="1.1" id="Capa_1" x="0px" y="0px" width="512px" height="512px" viewBox="0 0 950 950" style="enable-background:new 0 0 950 950;" xml:space="preserve">
<g>
	<g>
		<path d="M548.3,484.707c94.151,75.152,202.333,116.124,256.266,58.737C927.611,412.519,971.776,72.286,915.407,19.31    c-58.565-55.04-393.21,12.198-516.254,143.123c-52.455,55.814-8.86,157.076,67.948,244.752l-96.483,102.663l3.327,3.127    l9.108,8.561l9.109,8.561l41.854,39.334l0.188,0.178l94.839-100.914l98.505-104.814c0.885-0.941,1.686-1.929,2.419-2.95    l4.743-5.047c10.062-10.707,8.22-29.343-3.337-44.8c-2.024-2.708-4.341-5.321-6.951-7.774    c-6.677-6.275-14.266-10.607-21.756-12.875c1.284-0.094,2.573-0.158,3.867-0.158c13.752,0,26.847,5.188,36.871,14.609    c21.636,20.334,22.695,54.478,2.362,76.114L548.3,484.707z" fill="#6B7687"/>
		<path d="M21.943,831.784l115.204,108.27c7.077,6.651,16.098,9.946,25.1,9.946c9.765,0,19.507-3.877,26.722-11.554l256.854-273.305    c13.866-14.754,13.146-37.955-1.608-51.82l-8.913-8.376l-9.108-8.561l-9.109-8.561l-0.188-0.177l-41.854-39.334l-9.108-8.562    l-9.109-8.56l-3.327-3.127l-24.488-23.015c-7.076-6.65-16.098-9.945-25.099-9.945c-9.765,0-19.507,3.877-26.722,11.554    L20.334,779.963C6.469,794.717,7.188,817.918,21.943,831.784z M123.01,782.418c16.775-16.775,43.973-16.775,60.748,0    s16.775,43.973,0,60.747c-16.775,16.775-43.973,16.775-60.748,0S106.235,799.193,123.01,782.418z" fill="#6B7687"/>
	</g>
</g>
<g>
</g>
<g>
</g>
<g>
</g>
<g>
</g>
<g>
</g>
<g>
</g>
<g>
</g>
<g>
</g>
<g>
</g>
<g>
</g>
<g>
</g>
<g>
</g>
<g>
</g>
<g>
</g>
<g>
</g>
</svg>
