<?xml version="1.0" encoding="iso-8859-1"?>
<!-- Generator: Adobe Illustrator 16.0.0, SVG Export Plug-In . SVG Version: 6.00 Build 0)  -->
<!DOCTYPE svg PUBLIC "-//W3C//DTD SVG 1.1//EN" "http://www.w3.org/Graphics/SVG/1.1/DTD/svg11.dtd">
<svg xmlns="http://www.w3.org/2000/svg" xmlns:xlink="http://www.w3.org/1999/xlink" version="1.1" id="Capa_1" x="0px" y="0px" width="512px" height="512px" viewBox="0 0 938 938" style="enable-background:new 0 0 938 938;" xml:space="preserve">
<g>
	<g>
		<path d="M50.792,747.965c0,13.415,10.875,24.29,24.29,24.29h787.836c13.415,0,24.29-10.875,24.29-24.29v-408.36H50.792V747.965z     M649.792,476.871c0-6.419,5.203-11.622,11.622-11.622h112.098c6.419,0,11.622,5.203,11.622,11.622v27.54    c0,6.419-5.203,11.622-11.622,11.622H661.414c-6.419,0-11.622-5.203-11.622-11.622V476.871z M152.866,476.295    c0-6.091,4.938-11.029,11.029-11.029h36.764v-36.8c0-6.091,4.938-11.028,11.029-11.028h28.725c6.091,0,11.029,4.938,11.029,11.028    v36.8h36.764c6.091,0,11.029,4.938,11.029,11.029v28.727c0,6.091-4.938,11.028-11.029,11.028h-36.764v36.765    c0,6.091-4.938,11.028-11.029,11.028h-28.725c-6.091,0-11.029-4.938-11.029-11.028V516.05h-36.764    c-6.091,0-11.029-4.938-11.029-11.028V476.295L152.866,476.295z" fill="#6B7687"/>
		<path d="M915.285,314.605c12.545,0,22.715-10.17,22.715-22.715v-38.164c0-12.545-10.17-22.715-22.715-22.715H788.537v-42.552    c0-12.545-10.17-22.715-22.715-22.715h-97.83c-12.545,0-22.715,10.17-22.715,22.715v42.552H301.611v-42.552    c0-12.545-10.17-22.715-22.715-22.715h-97.83c-12.545,0-22.715,10.17-22.715,22.715v42.552H22.715    C10.17,231.01,0,241.181,0,253.727v38.165c0,12.545,10.17,22.715,22.715,22.715h28.076h836.417L915.285,314.605L915.285,314.605z" fill="#6B7687"/>
	</g>
</g>
<g>
</g>
<g>
</g>
<g>
</g>
<g>
</g>
<g>
</g>
<g>
</g>
<g>
</g>
<g>
</g>
<g>
</g>
<g>
</g>
<g>
</g>
<g>
</g>
<g>
</g>
<g>
</g>
<g>
</g>
</svg>
