<?xml version="1.0" encoding="iso-8859-1"?>
<!-- Generator: Adobe Illustrator 16.0.0, SVG Export Plug-In . SVG Version: 6.00 Build 0)  -->
<!DOCTYPE svg PUBLIC "-//W3C//DTD SVG 1.1//EN" "http://www.w3.org/Graphics/SVG/1.1/DTD/svg11.dtd">
<svg xmlns="http://www.w3.org/2000/svg" xmlns:xlink="http://www.w3.org/1999/xlink" version="1.1" id="Capa_1" x="0px" y="0px" width="512px" height="512px" viewBox="0 0 958.62 958.621" style="enable-background:new 0 0 958.62 958.621;" xml:space="preserve">
<g>
	<g>
		<path d="M128.293,399.812h15.44v273.777h186.655v-171.87c4.077-0.768,8.334-1.755,12.5-3.021c4.381-1.333,8.652-2.979,12.5-5.002    c12.779-6.722,20.846-17.646,12.342-35.406c-6.271-13.1-9.502-24.245-10.957-33.478c-0.734-4.653-1.022-8.825-1.005-12.5    c0.023-5.115,0.62-9.278,1.366-12.5h228.71c11.1,0,20.097-8.997,20.097-20.096v-2.358V75.84v-2.358    c0-11.099-8.997-20.096-20.097-20.096H128.293C57.439,53.386,0,110.825,0,181.679v89.84C0,342.374,57.439,399.812,128.293,399.812    z M307.659,158.518c9.763-9.763,25.592-9.763,35.354,0c9.764,9.763,9.764,25.592,0,35.355l-74.373,74.373    c-4.881,4.881-11.28,7.322-17.678,7.322c-6.398,0-12.796-2.441-17.678-7.322c-9.763-9.763-9.763-25.592,0-35.355L307.659,158.518z     M112.083,232.891l74.373-74.373c9.763-9.763,25.592-9.763,35.355,0c9.763,9.763,9.763,25.592,0,35.355l-74.373,74.373    c-4.881,4.881-11.28,7.322-17.678,7.322s-12.796-2.441-17.678-7.322C102.32,258.483,102.32,242.654,112.083,232.891z" fill="#6B7687"/>
		<path d="M512.918,875.073V728.75c0-16.657-13.503-30.161-30.161-30.161h-127.37h-12.5h-12.5H143.733h-12.5h-12.5H107.45    c-16.657,0-30.161,13.503-30.161,30.161v146.323c0,16.656,13.503,30.16,30.161,30.16h375.307    C499.415,905.233,512.918,891.73,512.918,875.073z" fill="#6B7687"/>
		<path d="M933.12,201.099H754.541C743.809,138.106,694.003,88.441,630.94,77.916v297.368    c63.062-10.526,112.869-60.191,123.601-123.185H933.12c14.083,0,25.5-11.417,25.5-25.5S947.203,201.099,933.12,201.099z" fill="#6B7687"/>
	</g>
</g>
<g>
</g>
<g>
</g>
<g>
</g>
<g>
</g>
<g>
</g>
<g>
</g>
<g>
</g>
<g>
</g>
<g>
</g>
<g>
</g>
<g>
</g>
<g>
</g>
<g>
</g>
<g>
</g>
<g>
</g>
</svg>
