<?xml version="1.0" encoding="iso-8859-1"?>
<!-- Generator: Adobe Illustrator 16.0.0, SVG Export Plug-In . SVG Version: 6.00 Build 0)  -->
<!DOCTYPE svg PUBLIC "-//W3C//DTD SVG 1.1//EN" "http://www.w3.org/Graphics/SVG/1.1/DTD/svg11.dtd">
<svg xmlns="http://www.w3.org/2000/svg" xmlns:xlink="http://www.w3.org/1999/xlink" version="1.1" id="Capa_1" x="0px" y="0px" width="512px" height="512px" viewBox="0 0 950 950" style="enable-background:new 0 0 950 950;" xml:space="preserve">
<g>
	<g>
		<path d="M26.511,402.809c13.716,11.397,101.076,84.563,130.979,109.82c1.692,1.43,14.523,78.33,20.263,114.413    c5.324,33.468,28.348,60.992,68.117,59.74c26.817-0.844,202.119-0.376,262.916-0.045c18.577,0.101,34.268-5.947,47.778-18.438    c10.061-9.301,220.791-193.959,247.719-217.554c1.796-1.573,4.181-2.286,6.546-1.96l34.131,4.704    c4.175,0.576,8.11-2.094,9.119-6.186l13.346-54.14c0.982-3.983-1.119-8.083-4.926-9.611l-75.337-30.253    c-2.235-0.897-4.751-0.771-6.885,0.345c-20.005,10.468-123.316,64.565-148.729,78.577c0,0-35.548-25.368-51.325-36.627    c-12.325-8.797-26.078-14.728-42.013-14.557c-32.936,0.354-101.875,0.089-103.531,0.089v-6.874c0-2.846,2.308-5.153,5.153-5.153    h35.93c3.435,0,6.219-2.784,6.219-6.219V292.7c0-3.434-2.783-6.218-6.216-6.219l-188.795-0.074    c-3.434-0.001-6.219,2.78-6.221,6.214l-0.052,70.473c-0.003,3.437,2.783,6.224,6.219,6.224h32.986    c2.846,0,5.153,2.307,5.153,5.154v6.655l-75.473,0.042c0,0-130.347-107.446-141.815-111.922    c-18.578-7.251-37.187-8.483-55.924-1.087c-21.544,8.503-35.903,24.246-45.148,45.19C-7.142,344.706,0.948,381.564,26.511,402.809    z M228.635,425.557c50.775-0.319,101.554-0.112,152.331-0.117c50.636-0.004,101.271-0.02,151.907-0.023    c0.331-0.026,0.654-0.046,0.971-0.058c6.435-0.229,6.912,9.449,0.498,10.005c-49.807,4.319-227.692,18.398-271.579,21.866    c-5.658,0.446-10.135,4.966-10.532,10.627c0,0-10.948,156.11-10.974,156.483c-0.298,4.249-5.589,7.127-9.616,6.898    c-5.682-0.322-5.927-4.033-6.555-8.761c-1.105-8.326-2.149-16.661-3.225-24.992c-2.993-23.188-5.989-46.376-8.993-69.562    c-3.159-24.385-5.677-48.967-9.585-73.247C200.379,436.647,211.932,425.661,228.635,425.557z M44.805,331.015    c9.054-22.186,35.4-34.506,55.823-17.775c0.218,0.179,87.707,71.852,87.707,71.852c-28.081,13.495-43.023,33.938-37.692,66.741    c-6.225-5.205-69.969-58.445-96.183-80.627C42.243,360.867,38.76,345.828,44.805,331.015z" fill="#6B7687"/>
		<path d="M904.436,463.771c-4.247-4.516-8.857-8.489-14.142-11.759c-4.963-3.071-11.169,1.086-10.476,6.881    c1.536,12.852-1.428,24.949-7.099,36.694c-16.854,34.908-50.562,78.09-20.497,115.64c17.422,21.758,52.568,27.62,74.778,10.779    c18.812-14.265,25.356-40.396,22.267-63.803C945.011,525.947,926.739,487.483,904.436,463.771z" fill="#6B7687"/>
	</g>
</g>
<g>
</g>
<g>
</g>
<g>
</g>
<g>
</g>
<g>
</g>
<g>
</g>
<g>
</g>
<g>
</g>
<g>
</g>
<g>
</g>
<g>
</g>
<g>
</g>
<g>
</g>
<g>
</g>
<g>
</g>
</svg>
