<?xml version="1.0" encoding="iso-8859-1"?>
<!-- Generator: Adobe Illustrator 16.0.0, SVG Export Plug-In . SVG Version: 6.00 Build 0)  -->
<!DOCTYPE svg PUBLIC "-//W3C//DTD SVG 1.1//EN" "http://www.w3.org/Graphics/SVG/1.1/DTD/svg11.dtd">
<svg xmlns="http://www.w3.org/2000/svg" xmlns:xlink="http://www.w3.org/1999/xlink" version="1.1" id="Capa_1" x="0px" y="0px" width="512px" height="512px" viewBox="0 0 93.137 93.137" style="enable-background:new 0 0 93.137 93.137;" xml:space="preserve">
<g>
	<g>
		<path d="M36.042,25.437c-6.537,0-11.84,5.303-11.84,11.84v12.409h54.267V37.277c0-6.537-5.303-11.84-11.84-11.84H36.042z     M69.381,37.104H33.304c0,0-1.011-6.845,5.316-6.845h25.457C70.688,30.259,69.381,37.104,69.381,37.104z" fill="#6B7687"/>
		<path d="M9.241,14.669c-3.935,3.947-3.972,9.522-3.972,9.744v38.704c0,3.54,1.566,6.858,4.317,9.103l14.628,11.977L24.189,83.8    v6.537c0,1.555,1.258,2.8,2.8,2.8h48.669c1.555,0,2.801-1.258,2.801-2.8V54.619H58.526v4.341c0,1.086-0.875,1.961-1.961,1.961    h-8.302c-1.084,0-1.96-0.875-1.96-1.961v-4.341H24.202v22.57l-11.175-9.164c-1.48-1.209-2.318-2.984-2.318-4.896V24.425    c0-0.074,0.049-2.245,1.159-4.28c1.394-2.541,3.811-3.787,7.388-3.787c6.648,0,24.815-0.025,40.146-0.062    c0.777,0.974,1.984,1.603,3.33,1.603h16.402v5.674c0,0.913,0.543,1.702,1.297,1.899l6.08,1.566    c0.703,0.173,1.355-0.444,1.355-1.295V1.324c0-0.851-0.666-1.467-1.355-1.295l-6.08,1.566c-0.766,0.197-1.297,0.987-1.297,1.899    v5.871H62.732c-1.295,0-2.454,0.58-3.23,1.492c-15.344,0.024-33.573,0.062-40.232,0.062C15.099,10.92,11.732,12.19,9.241,14.669z     M41.099,76.832c0.765-0.766,2.022-0.766,2.788,0l6.845,6.845c0.766,0.766,0.766,2.022,0,2.787    c-0.383,0.383-0.889,0.58-1.395,0.58s-1.011-0.197-1.394-0.58l-6.845-6.845C40.334,78.854,40.334,77.596,41.099,76.832z     M31.27,76.832c0.765-0.766,2.023-0.766,2.788,0l6.845,6.845c0.765,0.766,0.765,2.022,0,2.787c-0.382,0.383-0.888,0.58-1.394,0.58    c-0.505,0-1.011-0.197-1.394-0.58l-6.845-6.845C30.492,78.854,30.492,77.596,31.27,76.832z" fill="#6B7687"/>
	</g>
</g>
<g>
</g>
<g>
</g>
<g>
</g>
<g>
</g>
<g>
</g>
<g>
</g>
<g>
</g>
<g>
</g>
<g>
</g>
<g>
</g>
<g>
</g>
<g>
</g>
<g>
</g>
<g>
</g>
<g>
</g>
</svg>
