<?xml version="1.0" encoding="iso-8859-1"?>
<!-- Generator: Adobe Illustrator 16.0.0, SVG Export Plug-In . SVG Version: 6.00 Build 0)  -->
<!DOCTYPE svg PUBLIC "-//W3C//DTD SVG 1.1//EN" "http://www.w3.org/Graphics/SVG/1.1/DTD/svg11.dtd">
<svg xmlns="http://www.w3.org/2000/svg" xmlns:xlink="http://www.w3.org/1999/xlink" version="1.1" id="Capa_1" x="0px" y="0px" width="512px" height="512px" viewBox="0 0 797.366 797.366" style="enable-background:new 0 0 797.366 797.366;" xml:space="preserve">
<g>
	<path d="M725.227,143.504c-8.724,0-17.084,1.549-24.825,4.385c0,0-460.438,102.824-518.218,169.356l-0.045,0.052   c-1.869,2.159-43.68,92.977-53.8,114.982H96.389c0,0-196.092,95.369-28.898,210.619h207.546v-82.842   c21.185-18.574,181.51-158.521,301.817-245.71l47.796-33.11c0.007-0.006,0.016-0.01,0.021-0.016l42.249-23.119   c8.478,11.621,20.336,20.609,34.137,25.517v269.269c0,0.301,0.131,0.541,0.166,0.83c0.771,15.881,12.051,28.977,27.08,32.4v23.236   c0,2.68,1.381,5.16,3.662,6.586l12.72,7.914c1.333,1.592,2.062,3.572,2.062,5.678c0,2.365-0.909,4.604-2.576,6.271   c-3.453,3.416-9.052,3.438-12.507-0.021c-3.024-3.021-7.93-3.021-10.958,0c-3.026,3.029-3.026,7.938,0,10.961   c4.736,4.756,10.979,7.119,17.212,7.119c6.225,0,12.46-2.365,17.212-7.102c4.604-4.615,7.119-10.721,7.119-17.232   c0-6.508-2.528-12.607-7.132-17.193c-0.407-0.426-0.882-0.789-1.378-1.105l-9.934-6.176v-18.939   c15.034-3.424,26.311-16.52,27.087-32.398c0.026-0.289,0.163-0.529,0.163-0.83l0.055-281.576   c16.034-13.232,26.255-33.257,26.255-55.669C797.365,175.803,765.066,143.504,725.227,143.504z M258.738,527.264l-50.07-71.984   l120.349-60.546c17.604-9.567,35.875-18.889,53.745-27.035l139.882-66.081l6.587,9.882L258.738,527.264z M653.997,204.215   L353.978,336.558l-120.569,56.346l-11.106-6.059l-42.408,6.059l23.223-56.346l94.245-38.422l368.716-123.77   C659.973,183.1,655.745,193.242,653.997,204.215z M702.661,234.859c-4.258-5.224-6.812-11.892-6.812-19.16   c0-8.708,3.668-16.551,9.539-22.083c5.255-4.735,12.209-7.62,19.839-7.62c16.372,0,29.646,13.273,29.646,29.646   s-13.273,29.646-29.646,29.646C716.187,245.29,708.1,241.24,702.661,234.859z M728.303,287.705v230.288   c-4.252,0.969-8.232,2.646-11.743,5.012V287.247c2.843,0.341,5.732,0.536,8.667,0.536   C726.258,287.783,727.281,287.748,728.303,287.705z M736.056,571.551c-10.749,0-19.496-8.752-19.496-19.496   c0-10.748,8.747-19.5,19.496-19.5c10.751,0,19.499,8.752,19.499,19.5C755.555,562.799,746.807,571.551,736.056,571.551z    M755.555,523.002c-3.514-2.365-7.495-4.041-11.75-5.01V285.355c2.009-0.534,3.984-1.148,5.92-1.848h5.83V523.002z" fill="#6B7687"/>
</g>
<g>
</g>
<g>
</g>
<g>
</g>
<g>
</g>
<g>
</g>
<g>
</g>
<g>
</g>
<g>
</g>
<g>
</g>
<g>
</g>
<g>
</g>
<g>
</g>
<g>
</g>
<g>
</g>
<g>
</g>
</svg>
