<?xml version="1.0" encoding="iso-8859-1"?>
<!-- Generator: Adobe Illustrator 16.0.0, SVG Export Plug-In . SVG Version: 6.00 Build 0)  -->
<!DOCTYPE svg PUBLIC "-//W3C//DTD SVG 1.1//EN" "http://www.w3.org/Graphics/SVG/1.1/DTD/svg11.dtd">
<svg xmlns="http://www.w3.org/2000/svg" xmlns:xlink="http://www.w3.org/1999/xlink" version="1.1" id="Capa_1" x="0px" y="0px" width="512px" height="512px" viewBox="0 0 526.98 526.98" style="enable-background:new 0 0 526.98 526.98;" xml:space="preserve">
<g>
	<path d="M443.686,329.133c0-42.191,29.578-113.46,29.578-113.46s-31.031-15.31-94.736-15.31s-97.557,16.084-97.557,16.084   c28.965,39.713,28.582,116.098,28.582,116.098c0,51.639-26.162,108.373-26.162,194.436c57.088,0,194.424,0,194.424,0   C477.814,431.355,443.686,371.322,443.686,329.133z" fill="#6B7687"/>
	<path d="M25.203,526.98c57.088,0,194.425,0,194.425,0c0-95.625-34.128-155.658-34.128-197.848   c0-42.191,29.577-113.46,29.577-113.46s-31.03-15.31-94.736-15.31c-63.705,0-97.557,16.084-97.557,16.084   c28.965,39.713,28.583,116.098,28.583,116.098C51.366,384.184,25.203,440.918,25.203,526.98z" fill="#6B7687"/>
	<path d="M246.01,23.065C246.01,10.328,235.683,0,222.946,0c-11.552,0-21.028,8.521-22.711,19.594   c-5.001-2.831-10.701-4.581-16.859-4.581c-18.149,0-32.857,14.086-34.176,31.9c-5.365-3.461-11.714-5.518-18.58-5.518   c-19.02,0-34.435,15.415-34.435,34.435c0,2.458,0.277,4.839,0.765,7.153c-3.854-1.186-7.87-2.008-12.116-2.008   c-22.874,0-41.415,18.542-41.415,41.415s18.542,41.415,41.415,41.415c4.667,0,9.084-0.947,13.273-2.372   c7.439,11.007,20.033,18.236,34.32,18.236c22.874,0,41.415-18.542,41.415-41.415c0-5.259-1.081-10.242-2.869-14.87   c18.647-0.431,33.641-15.606,33.641-34.349c0-3.882-0.784-7.554-1.97-11.035c9.151-6.187,15.166-16.658,15.166-28.535   c0-1.396-0.249-2.715-0.411-4.064c1.788,0.44,3.624,0.746,5.546,0.746C235.692,46.129,246.01,35.802,246.01,23.065z" fill="#6B7687"/>
	<path d="M504.197,23.065C504.197,10.328,493.871,0,481.133,0c-11.551,0-21.027,8.521-22.711,19.594   c-5-2.831-10.699-4.581-16.857-4.581c-18.15,0-32.857,14.086-34.178,31.9c-5.363-3.461-11.713-5.518-18.58-5.518   c-19.02,0-34.434,15.415-34.434,34.435c0,2.458,0.277,4.839,0.764,7.153c-3.854-1.186-7.869-2.008-12.115-2.008   c-22.873,0-41.414,18.542-41.414,41.415s18.541,41.415,41.414,41.415c19.871,0,36.443-14.009,40.449-32.685   c7.631,10.002,19.547,16.562,33.096,16.562c23.057,0,41.75-18.695,41.75-41.75c0-8.73-2.695-16.82-7.277-23.514   c14.363-4.141,24.939-17.241,24.939-32.943c0-1.396-0.248-2.716-0.41-4.064c1.787,0.44,3.623,0.746,5.545,0.746   C493.881,46.129,504.197,35.802,504.197,23.065z" fill="#6B7687"/>
</g>
<g>
</g>
<g>
</g>
<g>
</g>
<g>
</g>
<g>
</g>
<g>
</g>
<g>
</g>
<g>
</g>
<g>
</g>
<g>
</g>
<g>
</g>
<g>
</g>
<g>
</g>
<g>
</g>
<g>
</g>
</svg>
