<?xml version="1.0" encoding="iso-8859-1"?>
<!-- Generator: Adobe Illustrator 16.0.0, SVG Export Plug-In . SVG Version: 6.00 Build 0)  -->
<!DOCTYPE svg PUBLIC "-//W3C//DTD SVG 1.1//EN" "http://www.w3.org/Graphics/SVG/1.1/DTD/svg11.dtd">
<svg xmlns="http://www.w3.org/2000/svg" xmlns:xlink="http://www.w3.org/1999/xlink" version="1.1" id="Capa_1" x="0px" y="0px" width="512px" height="512px" viewBox="0 0 548.491 548.49" style="enable-background:new 0 0 548.491 548.49;" xml:space="preserve">
<g>
	<path d="M224.717,105.37c-3.986,0.576-7.744,1.167-11.273,1.787c3.509,2.114,6.838,4.276,9.984,6.483   C223.856,110.829,224.285,108.075,224.717,105.37z" fill="#6B7687"/>
	<path d="M272.49,145.337c-5.345,0.078-10.526,0.249-15.528,0.526c7.335,9.878,12.26,19.307,15.528,27.263V145.337z" fill="#6B7687"/>
	<path d="M282.053,92.077c7.956,0.094,16.21,0.449,24.692,1.118c3.709,0.298,7.45,0.632,11.236,1.052   c-2.505-12.88-5.067-24.479-7.499-34.712c-1.914-0.171-3.827-0.363-5.708-0.506c-7.793-0.592-15.394-0.955-22.722-1.041V92.077z" fill="#6B7687"/>
	<path d="M373.384,158.688c-12.461-3.68-24.75-6.447-36.74-8.503c1.501,11.714,2.839,23.905,3.921,36.549   c13.223,1.636,26.336,3.949,39.062,7.115c-1.566-12.546-3.537-24.68-5.908-36.3L373.384,158.688z" fill="#6B7687"/>
	<path d="M251.959,28.074c-1.758,5.72-3.835,13.007-6.042,21.64c1.624-0.134,3.272-0.269,4.945-0.383   c6.866-0.477,14.104-0.795,21.632-0.897V18.168c-6.732,0.926-13.301,3.309-19.641,7.059   C252.563,26.153,252.274,27.05,251.959,28.074z" fill="#6B7687"/>
	<path d="M235.827,50.69c1.453-5.814,2.848-11.024,4.162-15.671c-5.153,4.782-10.118,10.453-14.831,16.993   C228.561,51.53,232.127,51.089,235.827,50.69z" fill="#6B7687"/>
	<path d="M200.254,99.948c0.008,0,0.008,0.008,0.021,0.008c7.287-1.53,16.075-3.109,26.116-4.455   c2.277-12.966,4.684-24.672,7.046-34.884c-5.459,0.649-10.596,1.367-15.349,2.134C211.56,73.546,205.57,86.022,200.254,99.948z" fill="#6B7687"/>
	<path d="M383.817,263.025c-10.498-2.876-21.371-5.117-32.416-6.826c12.51,17.911,22.799,36.537,30.543,52.135   C383.148,293.646,383.796,278.518,383.817,263.025z" fill="#6B7687"/>
	<path d="M313.102,31.106c1.53,5.585,3.243,12.077,5.067,19.498c4.839,0.535,9.743,1.216,14.708,1.979   C326.672,43.901,320.042,36.699,313.102,31.106z" fill="#6B7687"/>
	<path d="M282.053,17.882v30.535c7.16,0.086,14.574,0.384,22.167,0.938c1.281,0.094,2.562,0.184,3.855,0.286   c-1.787-7.115-3.452-13.378-4.904-18.601c-0.832-2.975-1.579-5.557-2.256-7.87C294.807,20.118,288.496,18.339,282.053,17.882z" fill="#6B7687"/>
	<path d="M282.053,135.729c8.739,0.106,17.834,0.506,27.205,1.31c5.316,0.457,10.739,1.061,16.219,1.787   c-1.751-12.248-3.664-23.859-5.643-34.712c-4.248-0.506-8.397-0.869-12.538-1.216c-8.674-0.718-17.136-1.175-25.247-1.273v34.104   H282.053z" fill="#6B7687"/>
	<path d="M320.552,60.567c2.411,10.355,4.925,22.081,7.381,34.921c9.727,1.358,19.689,3.194,29.796,5.544   c-5.279-14.011-11.236-26.593-17.748-37.495C333.404,62.346,326.921,61.343,320.552,60.567z" fill="#6B7687"/>
	<path d="M371.719,148.295c-2.909-12.844-6.304-24.986-10.106-36.349c-10.804-2.746-21.42-4.867-31.803-6.426   c1.95,10.881,3.807,22.538,5.516,34.749C347.191,142.204,359.365,144.832,371.719,148.295z" fill="#6B7687"/>
	<path d="M341.339,196.574c1.167,15.7,1.914,31.987,2.134,48.719c13.664,1.799,27.178,4.361,40.258,7.821   c-0.27-16.85-1.261-33.248-2.926-49.054C368.04,200.728,354.784,198.268,341.339,196.574z" fill="#6B7687"/>
	<path d="M272.49,101.686c-8.576,0.123-16.724,0.518-24.402,1.118c-4.696,0.371-9.201,0.812-13.513,1.31   c-0.853,5.145-1.673,10.51-2.456,16.046c5.353,4.341,10.184,8.768,14.39,13.215c1.061,1.13,2.007,2.248,3.003,3.366   c7.279-0.535,14.957-0.89,22.979-1.004V101.686z" fill="#6B7687"/>
	<path d="M282.053,193.734c11.188,4.456,21.746,11.286,31.596,19.662c7.046,5.998,13.741,12.758,20.041,20.004   c-0.371-12.966-1.061-25.639-1.999-37.936c-6.377-0.641-12.774-1.13-19.164-1.481c-10.249-0.575-20.453-0.795-30.485-0.747v0.498   H282.053z" fill="#6B7687"/>
	<path d="M282.053,183.437c9.829-0.037,19.841,0.192,29.923,0.755c6.291,0.343,12.611,0.84,18.923,1.473   c-1.13-12.767-2.484-25.101-4.035-36.892c-5.777-0.812-11.444-1.481-17.03-1.979c-9.563-0.861-18.878-1.388-27.768-1.494v38.136   H282.053z" fill="#6B7687"/>
	<polygon points="252.87,10.424 252.878,10.424 252.878,10.412  " fill="#6B7687"/>
	<path d="M236.268,94.285c3.949-0.429,8.07-0.804,12.317-1.13c7.544-0.575,15.528-0.955,23.896-1.073V58.03   c-7.715,0.106-15.128,0.412-22.125,0.926c-2.354,0.172-4.61,0.384-6.867,0.592C241.095,69.662,238.618,81.212,236.268,94.285z" fill="#6B7687"/>
	<path d="M301.98,10.412L301.98,10.412L301.98,10.412z" fill="#6B7687"/>
	<path d="M267.688,343.723c-0.555,3.367-1.138,6.646-1.722,9.879c-3.737,20.465-8.079,38.156-12.803,53.264   c1.697-5.43,5.985-10.971,8.581-16.078c2.799-5.518,5.284-11.119,7.952-16.684c21.269-44.367,32.538-93.485,32.742-142.682   c0.021-4.557-0.086-9.262-1.954-13.419c-3.717-8.278-13.142-12.081-21.693-15.108c0.922,0.331-0.421,17.98-0.466,19.874   c-0.146,6.312-0.347,12.607-0.624,18.915c-0.143,3.309-0.298,6.577-0.469,9.8c-0.918,17.356-2.179,33.449-3.737,48.455   c-0.335,3.211-0.649,6.475-1.041,9.494c-1.396,9.562-3.003,23.525-4.761,34.121" fill="#6B7687"/>
	<path d="M197.002,108.887c-3.721-1.873-7.735-3.651-11.848-5.385c-0.89-0.372-1.665-0.796-2.57-1.159   c-0.135,0.576-0.298,1.318-0.449,1.979c-0.641,2.803-1.424,6.349-2.334,10.604c-3.664,17.201-9.131,45.537-13.586,79.389   c-0.428,3.301-0.861,6.626-1.273,10.021c-1.893,15.614-3.521,32.195-4.619,49.266c-0.212,3.28-0.383,6.589-0.555,9.898   c-0.833,16.018-1.146,32.322-0.775,48.56c0.078,3.252,0.143,6.504,0.277,9.734c0.457,11.266,1.338,22.416,2.591,33.375   c0.372,3.211,0.767,6.406,1.204,9.572c4.705,33.525,13.721,64.5,29.233,88.674c4.761,7.41,10.098,13.953,15.883,19.768   c3.023-3.301,6.198-7.287,9.458-12.02c13.427-19.479,28.16-52.277,38.479-107.178c0.612-3.252,1.224-6.504,1.799-9.914   c1.787-10.547,3.415-21.889,4.839-34.023c0.383-3.203,0.726-6.539,1.069-9.857c1.579-14.965,2.86-31.097,3.794-48.511   c0.171-3.251,0.355-6.483,0.506-9.82c0.641-14.382,1.073-29.527,1.204-45.623c-0.049-0.412-0.191-1.359-0.477-2.803   c-0.441-2.219-1.253-5.557-2.62-9.714c-3.052-9.302-9.037-22.636-20.453-36.626c-0.114-0.135-0.2-0.27-0.314-0.4   c-2.428-2.946-5.031-5.908-7.964-8.882c-2.134-2.163-4.496-4.304-6.924-6.446c-1.436-1.261-2.982-2.505-4.524-3.75   c-1.359-1.102-2.717-2.191-4.162-3.272c-6.655-5.01-14.248-9.829-22.885-14.325C198.332,109.642,197.72,109.25,197.002,108.887z" fill="#6B7687"/>
	<path d="M389.61,356.584c-0.077-3.701-0.257-6.646-0.461-8.539c-0.804-2.064-3.941-9.984-9.058-21.123   c-1.102-2.391-2.264-4.896-3.55-7.557c-1.681-3.508-3.521-7.229-5.508-11.109c-7.286-14.248-16.589-30.637-27.54-46.377   c-1.501-2.15-3.031-4.292-4.59-6.418c-0.257-0.355-0.518-0.718-0.775-1.069c-1.366-1.836-2.754-3.652-4.17-5.459   c-1.366-1.75-2.762-3.48-4.178-5.194c-4.888-5.908-10.004-11.521-15.356-16.687c-0.955-0.926-1.922-1.828-2.897-2.726   c0.307,6.055,0.343,12.069,0.241,18.034c-0.058,3.26-0.163,6.512-0.335,9.735c-0.897,16.532-3.252,32.647-6.646,48.136   c-0.705,3.26-1.465,6.492-2.256,9.686c-2.909,11.637-6.34,22.873-10.127,33.604c-1.167,3.301-2.362,6.549-3.586,9.756   c-2.191,5.707-4.447,11.264-6.769,16.637c-3.125,7.23-6.332,14.125-9.563,20.666c-19.576,39.596-39.617,65.811-42.342,69.291   c-2.285,3.736-4.553,7.131-6.789,10.191c-2.717,3.701-5.386,6.953-7.964,9.764c11.081,9.246,23.762,15.92,37.98,19.947v4.961v4.859   v38.898h47.813v-34.789v-4.877v-4.781c21.678-2.412,39.743-11.543,53.722-27.377c27.605-31.277,33.917-81.76,34.664-110.082   C389.66,362.846,389.679,359.451,389.61,356.584z" fill="#6B7687"/>
	<path d="M355.876,56.953c2.143,3.578,4.121,7.381,5.863,11.379c1.347,3.097,2.591,6.283,3.586,9.608   c1.567-2.383,2.975-4.933,4.293-7.544c1.452-2.868,2.782-5.834,3.97-8.882C384.539,33.476,384.788,0,384.788,0   c-37.295,1.559-58.218,23.305-58.218,23.305S343.559,36.385,355.876,56.953z" fill="#6B7687"/>
</g>
<g>
</g>
<g>
</g>
<g>
</g>
<g>
</g>
<g>
</g>
<g>
</g>
<g>
</g>
<g>
</g>
<g>
</g>
<g>
</g>
<g>
</g>
<g>
</g>
<g>
</g>
<g>
</g>
<g>
</g>
</svg>
