<?xml version="1.0" encoding="iso-8859-1"?>
<!-- Generator: Adobe Illustrator 16.0.0, SVG Export Plug-In . SVG Version: 6.00 Build 0)  -->
<!DOCTYPE svg PUBLIC "-//W3C//DTD SVG 1.1//EN" "http://www.w3.org/Graphics/SVG/1.1/DTD/svg11.dtd">
<svg xmlns="http://www.w3.org/2000/svg" xmlns:xlink="http://www.w3.org/1999/xlink" version="1.1" id="Capa_1" x="0px" y="0px" width="512px" height="512px" viewBox="0 0 506.81 506.81" style="enable-background:new 0 0 506.81 506.81;" xml:space="preserve">
<g>
	<path d="M38.248,439.873h372.937v66.937H38.248V439.873z M440.984,162.017l-2.19,212.164l0.057,1.09   c0.384,3.807,0.327,15.94-4.753,21.562c-1.244,1.379-3.46,3.194-8.425,3.194c-5.729,0-8.263-2.035-9.67-3.578   c-4.904-5.345-5.174-15.847-4.818-20.31V219.937h-28.687V24.488C382.498,12.726,372.963,0,361.2,0H97.795   C86.033,0,76.498,12.729,76.498,24.488V420.75h306V239.06h9.563l0.049,136.178c-0.2,2.171-1.693,21.515,9.715,34.052   c5.871,6.455,14.125,9.87,23.848,9.87c9.208,0,17.05-3.31,22.672-9.572c10.959-12.203,9.943-31.489,9.58-35.716l2.191-211.658   L440.984,162.017z M334.688,172.123H133.875V57.373h200.813V172.123z M468.562,62.787l-76.5-24.386v37.936l8.752,3.088   c-0.335,10.282,0.946,26.194,10.489,37.353c4.847,5.671,11.954,9.274,19.009,11.093V153h38.25V62.787z M418.406,110.588   c-6.675-7.785-8.042-19.156-7.948-27.752l19.854,7.009v28.45C425.599,116.88,421.687,114.424,418.406,110.588z M185.561,76.027   c3.329,0,6.369,0.293,9.106,0.881c2.738,0.587,5.092,1.55,7.05,2.889c1.958,1.338,3.48,3.117,4.553,5.336   c1.073,2.22,1.616,4.961,1.616,8.225c0,3.525-0.8,6.463-2.403,8.813c-1.599,2.35-3.965,4.276-7.095,5.777   c4.308,1.24,7.523,3.411,9.641,6.512c2.125,3.101,3.182,6.838,3.182,11.212c0,3.525-0.686,6.577-2.056,9.155   c-1.371,2.579-3.215,4.684-5.528,6.316c-2.318,1.632-4.966,2.84-7.932,3.623c-2.975,0.783-6.026,1.175-9.156,1.175h-33.88V76.027   H185.561z M183.602,104.326c2.742,0,4.994-0.653,6.756-1.958c1.763-1.306,2.64-3.427,2.64-6.365c0-1.628-0.294-2.97-0.881-4.015   c-0.592-1.044-1.371-1.86-2.35-2.448c-0.979-0.588-2.105-0.996-3.378-1.224s-2.595-0.343-3.966-0.343h-14.394v16.353H183.602z    M184.483,133.996c1.501,0,2.938-0.147,4.309-0.441c1.371-0.293,2.579-0.783,3.627-1.469c1.041-0.686,1.873-1.616,2.493-2.791   c0.621-1.175,0.935-2.677,0.935-4.504c0-3.59-1.012-6.153-3.036-7.687c-2.023-1.534-4.7-2.301-8.029-2.301h-16.744v19.192H184.483z    M236.964,76.027v69.915h-15.374V76.027H236.964z M249.796,96.737c1.566-4.472,3.819-8.372,6.753-11.701   c2.941-3.33,6.544-5.941,10.819-7.834c4.276-1.893,9.091-2.839,14.443-2.839c5.419,0,10.249,0.946,14.492,2.839   s7.834,4.504,10.775,7.834c2.938,3.329,5.186,7.229,6.753,11.701c1.57,4.472,2.35,9.319,2.35,14.541   c0,5.092-0.779,9.841-2.35,14.248c-1.567,4.406-3.819,8.242-6.753,11.505c-2.941,3.264-6.532,5.827-10.775,7.687   s-9.073,2.791-14.492,2.791c-5.353,0-10.167-0.93-14.443-2.791c-4.275-1.86-7.882-4.423-10.819-7.687   c-2.938-3.264-5.187-7.099-6.753-11.505c-1.57-4.406-2.35-9.155-2.35-14.248C247.446,106.06,248.226,101.213,249.796,96.737z    M263.844,119.85c0.686,2.774,1.782,5.271,3.284,7.491c1.497,2.22,3.46,3.999,5.871,5.337c2.415,1.338,5.353,2.007,8.812,2.007   s6.397-0.669,8.813-2.007c2.415-1.338,4.369-3.117,5.871-5.337c1.501-2.215,2.599-4.716,3.284-7.491s1.028-5.63,1.028-8.568   c0-3.068-0.343-6.034-1.028-8.911c-0.686-2.872-1.783-5.435-3.284-7.687c-1.502-2.252-3.46-4.047-5.871-5.386   c-2.412-1.338-5.354-2.007-8.813-2.007c-3.464,0-6.397,0.669-8.812,2.007c-2.415,1.338-4.374,3.134-5.871,5.386   c-1.502,2.252-2.599,4.814-3.284,7.687c-0.686,2.877-1.028,5.843-1.028,8.911C262.815,114.22,263.158,117.076,263.844,119.85z" fill="#6B7687"/>
</g>
<g>
</g>
<g>
</g>
<g>
</g>
<g>
</g>
<g>
</g>
<g>
</g>
<g>
</g>
<g>
</g>
<g>
</g>
<g>
</g>
<g>
</g>
<g>
</g>
<g>
</g>
<g>
</g>
<g>
</g>
</svg>
