<?xml version="1.0" encoding="iso-8859-1"?>
<!-- Generator: Adobe Illustrator 16.0.0, SVG Export Plug-In . SVG Version: 6.00 Build 0)  -->
<!DOCTYPE svg PUBLIC "-//W3C//DTD SVG 1.1//EN" "http://www.w3.org/Graphics/SVG/1.1/DTD/svg11.dtd">
<svg xmlns="http://www.w3.org/2000/svg" xmlns:xlink="http://www.w3.org/1999/xlink" version="1.1" id="Capa_1" x="0px" y="0px" width="512px" height="512px" viewBox="0 0 526.195 526.195" style="enable-background:new 0 0 526.195 526.195;" xml:space="preserve">
<g>
	<path d="M181.023,273.766v51.617h153v-44.867c46.617-25.235,78.287-74.568,78.287-131.302C412.311,66.804,345.508,0,263.098,0   S113.885,66.804,113.885,149.213C113.885,201.281,140.593,247.066,181.023,273.766z" fill="#6B7687"/>
	<polygon points="334.023,344.508 181.023,373.195 181.023,392.32 334.023,363.633  " fill="#6B7687"/>
	<polygon points="334.023,382.758 181.023,411.445 181.023,430.57 334.023,401.883  " fill="#6B7687"/>
	<polygon points="334.023,421.008 181.023,449.695 181.023,468.82 334.023,440.133  " fill="#6B7687"/>
	<polygon points="233.54,526.195 279.928,526.195 323.6,487.945 189.868,487.945  " fill="#6B7687"/>
	<polygon points="181.023,350.121 256.729,334.945 181.023,334.945  " fill="#6B7687"/>
	<polygon points="334.023,464.193 259.311,478.383 334.023,478.383  " fill="#6B7687"/>
</g>
<g>
</g>
<g>
</g>
<g>
</g>
<g>
</g>
<g>
</g>
<g>
</g>
<g>
</g>
<g>
</g>
<g>
</g>
<g>
</g>
<g>
</g>
<g>
</g>
<g>
</g>
<g>
</g>
<g>
</g>
</svg>
