<?xml version="1.0" encoding="iso-8859-1"?>
<!-- Generator: Adobe Illustrator 16.0.0, SVG Export Plug-In . SVG Version: 6.00 Build 0)  -->
<!DOCTYPE svg PUBLIC "-//W3C//DTD SVG 1.1//EN" "http://www.w3.org/Graphics/SVG/1.1/DTD/svg11.dtd">
<svg xmlns="http://www.w3.org/2000/svg" xmlns:xlink="http://www.w3.org/1999/xlink" version="1.1" id="Capa_1" x="0px" y="0px" width="512px" height="512px" viewBox="0 0 460.688 460.688" style="enable-background:new 0 0 460.688 460.688;" xml:space="preserve">
<g>
	<path d="M451.033,32.646c-15.09-28.506-44.849-36.768-74.349-21.143c-19.105,10.117-27.674,26.67-30.532,43.739l-10.48-18.484   c-4.322-8.166-15.013-14.535-22.061-10.806l-140.406,74.32c-7.048,3.729-7.793,16.151-3.471,24.317l22.49,46.302l-118.642-22.51   c-1.052-11.513-4.619-19.354-10.155-20.024c-7.956-0.966-16.208,14.296-18.57,33.794c-2.371,19.479,2.219,36.194,10.174,37.15   c6.087,0.741,12.389-7.89,16.086-20.705l161.021,74.6l24.93,51.8c4.321,8.166,12.871,10.5,19.919,6.77l153.172-81.08   c7.048-3.729,9.926-12.106,5.613-20.272l-15.177-26.192c4.169-21.085,13.005-38.03,21.277-55.243   C456.58,98.331,470.694,69.777,451.033,32.646z M409.513,165.134L363.077,84.6c-3.156-17.27-3.634-45.068,21.42-58.331   c21.64-11.456,41.052-6.005,51.953,14.573c15.711,29.682,4.695,52.622-9.247,81.664   C421.007,135.396,414.438,149.375,409.513,165.134z" fill="#6B7687"/>
	<path d="M66.936,409.169c5.288,0,9.562-4.284,9.562-9.562V256.169c0-5.278-4.274-9.562-9.562-9.562s-9.562,4.283-9.562,9.562   v143.438C57.374,404.885,61.648,409.169,66.936,409.169z" fill="#6B7687"/>
	<path d="M9.562,409.169c5.288,0,9.562-4.284,9.562-9.562V227.481c0-5.278-4.274-9.562-9.562-9.562S0,222.204,0,227.481v172.125   C-0.001,404.885,4.273,409.169,9.562,409.169z" fill="#6B7687"/>
	<path d="M38.249,294.419c5.288,0,9.562-4.284,9.562-9.562v-57.375c0-5.278-4.274-9.562-9.562-9.562s-9.562,4.284-9.562,9.562   v57.375C28.686,290.135,32.961,294.419,38.249,294.419z" fill="#6B7687"/>
	<path d="M38.249,370.919c5.288,0,9.562-4.284,9.562-9.562v-47.812c0-5.277-4.274-9.562-9.562-9.562s-9.562,4.285-9.562,9.562   v47.812C28.686,366.635,32.961,370.919,38.249,370.919z" fill="#6B7687"/>
	<path d="M38.249,447.419c5.288,0,9.562-4.284,9.562-9.562v-47.812c0-5.278-4.274-9.562-9.562-9.562s-9.562,4.283-9.562,9.562   v47.812C28.686,443.135,32.961,447.419,38.249,447.419z" fill="#6B7687"/>
	<path d="M57.374,447.419c0,5.279,4.274,9.562,9.562,9.562s9.562-4.284,9.562-9.562v-19.125c0-5.278-4.274-9.562-9.562-9.562   s-9.562,4.284-9.562,9.562V447.419z" fill="#6B7687"/>
	<path d="M9.562,456.982c5.288,0,9.562-4.284,9.562-9.562v-19.125c0-5.278-4.274-9.562-9.562-9.562S0,423.016,0,428.294v19.125   C-0.001,452.699,4.273,456.982,9.562,456.982z" fill="#6B7687"/>
</g>
<g>
</g>
<g>
</g>
<g>
</g>
<g>
</g>
<g>
</g>
<g>
</g>
<g>
</g>
<g>
</g>
<g>
</g>
<g>
</g>
<g>
</g>
<g>
</g>
<g>
</g>
<g>
</g>
<g>
</g>
</svg>
