<?xml version="1.0" encoding="iso-8859-1"?>
<!-- Generator: Adobe Illustrator 16.0.0, SVG Export Plug-In . SVG Version: 6.00 Build 0)  -->
<!DOCTYPE svg PUBLIC "-//W3C//DTD SVG 1.1//EN" "http://www.w3.org/Graphics/SVG/1.1/DTD/svg11.dtd">
<svg xmlns="http://www.w3.org/2000/svg" xmlns:xlink="http://www.w3.org/1999/xlink" version="1.1" id="Capa_1" x="0px" y="0px" width="512px" height="512px" viewBox="0 0 377.547 377.547" style="enable-background:new 0 0 377.547 377.547;" xml:space="preserve">
<g>
	<g>
		<path d="M222.703,149.877c0-7.167-1.073-14.074-3.014-20.614c-1.799-12.788-5.854-25.629-11.909-37.397    C178.856,35.726,136.323,0,136.323,0s-0.605,30.294-23.91,57.306c-43.178,50.017-34.504,100.4-34.504,100.4l0.008,0.008    c3.909,36.417,34.723,64.786,72.176,64.786C190.191,222.493,222.703,189.988,222.703,149.877z M113.829,97.44    c-0.899,0.571-21.035,13.868-18.264,57.252c0.13,2.158-1.499,4.025-3.669,4.167c-0.084,0-0.164,0.006-0.249,0.006    c-2.06,0-3.777-1.602-3.911-3.671c-3.094-48.518,20.961-63.812,21.989-64.438c1.839-1.146,4.262-0.551,5.4,1.304    C116.242,93.898,115.67,96.302,113.829,97.44z" fill="#6B7687"/>
		<path d="M300.351,244.144c0-4.264-0.638-8.355-1.795-12.25c-1.074-7.606-3.475-15.232-7.078-22.226    c-17.188-33.364-42.462-54.593-42.462-54.593s-0.361,18.001-14.223,34.055c-25.659,29.724-20.498,59.659-20.498,59.659v0.016    c2.32,21.636,20.639,38.491,42.892,38.491C281.031,287.292,300.351,267.973,300.351,244.144z M235.651,212.979    c-0.533,0.34-12.495,8.243-10.852,34.022c0.076,1.291-0.898,2.4-2.188,2.477c-0.044,0-0.1,0-0.145,0    c-1.226,0-2.248-0.949-2.332-2.184c-1.831-28.825,12.467-37.919,13.072-38.291c1.098-0.678,2.537-0.333,3.214,0.766    C237.078,210.871,236.741,212.305,235.651,212.979z" fill="#6B7687"/>
		<path d="M237.984,339.405c-0.738-5.226-2.393-10.471-4.878-15.284c-11.829-22.971-29.222-37.581-29.222-37.581    s-0.244,12.395-9.782,23.443c-17.665,20.453-14.114,41.06-14.114,41.06v0.008c1.601,14.896,14.211,26.497,29.522,26.497    c16.398,0,29.699-13.301,29.699-29.69C239.217,344.911,238.773,342.09,237.984,339.405z M194.691,326.397    c-0.368,0.236-8.605,5.675-7.474,23.419c0.052,0.882-0.613,1.644-1.499,1.703c-0.032,0-0.074,0-0.104,0    c-0.848,0-1.545-0.661-1.603-1.511c-1.26-19.832,8.576-26.096,9.001-26.349c0.753-0.477,1.739-0.229,2.2,0.521    C195.673,324.946,195.437,325.928,194.691,326.397z" fill="#6B7687"/>
	</g>
</g>
<g>
</g>
<g>
</g>
<g>
</g>
<g>
</g>
<g>
</g>
<g>
</g>
<g>
</g>
<g>
</g>
<g>
</g>
<g>
</g>
<g>
</g>
<g>
</g>
<g>
</g>
<g>
</g>
<g>
</g>
</svg>
