<?xml version="1.0" encoding="iso-8859-1"?>
<!-- Generator: Adobe Illustrator 18.1.1, SVG Export Plug-In . SVG Version: 6.00 Build 0)  -->
<svg xmlns="http://www.w3.org/2000/svg" xmlns:xlink="http://www.w3.org/1999/xlink" version="1.1" id="Capa_1" x="0px" y="0px" viewBox="0 0 495.168 495.168" style="enable-background:new 0 0 495.168 495.168;" xml:space="preserve" width="512px" height="512px">
<g>
	<g>
		<path d="M493.146,387.188l-27.011-51.299c0.87-2.166,1.362-4.521,1.362-6.994V96.074    c0-10.388-8.443-18.826-18.825-18.826H47.056c-10.383,0-18.826,8.438-18.826,18.826v232.82c0,2.963,0.708,5.758,1.933,8.256    L2.037,387.953c-2.365,3.964-2.63,6.91-1.004,10.219c1.022,2.059,2.791,3.695,4.98,4.607l0.923,0.385    c0,0,28.425,14.756,240.925,14.756s241.138-14.746,241.138-14.746l0.951-0.412C497.922,399.459,494.828,390.147,493.146,387.188z     M47.056,96.074h401.616l0.013,232.578H47.056V96.074z M29.424,384.156l18.317-36.092h401.43l17.64,36.092H29.424z" fill="#6B7687"/>
		<path d="M331.61,157.923c-2.458-4.059-5.93-7.404-10.324-9.949c-0.753-4.563-4.69-7.942-9.364-7.942    c-2.517,0-4.932,1.007-6.707,2.781c-6.096-0.831-12.764-0.81-20.101,0.062c-0.271-0.611-0.547-1.218-0.828-1.813    c-9.216-19.492-22.038-30.255-36.108-30.305c-14.342,0-27.859,11.706-37.167,32.147c-3.859-0.469-7.568-0.706-11.036-0.706    c-17.155,0-29.515,5.438-35.742,15.725c-7.253,11.982-4.729,28.506,7.107,46.525c0.826,1.258,1.757,2.596,2.836,4.074    c-14.105,19.398-17.732,37.855-9.943,50.723c6.228,10.287,18.587,15.725,35.744,15.725c3.337,0,6.93-0.225,10.69-0.67    c9.173,20.367,22.628,32.059,36.999,32.111h0.003c14.34,0,27.857-11.706,37.164-32.148c3.857,0.469,7.566,0.707,11.036,0.707    c17.154,0,29.513-5.438,35.741-15.725c7.788-12.867,4.161-31.324-9.943-50.723c1.087-1.489,2.018-2.827,2.837-4.074    C336.34,186.429,338.864,169.905,331.61,157.923z M282.919,172.185c-3.031-2.067-6.16-4.08-9.331-5.999    c-3.814-2.31-7.769-4.521-11.783-6.593c5.582-1.908,11.073-3.411,16.365-4.479C280.059,160.421,281.652,166.147,282.919,172.185z     M248.234,121.757c9.194,0.033,18.505,8.415,25.644,23.041c-8.396,1.849-17.121,4.646-25.957,8.328    c-8.708-3.627-17.302-6.398-25.568-8.244C229.657,129.958,238.819,121.76,248.234,121.757z M218.022,155.189    c5.188,1.062,10.561,2.54,16.015,4.403c-4.007,2.068-7.962,4.28-11.782,6.593c-3.049,1.846-6.068,3.784-9.006,5.78    C214.545,166.037,216.147,160.407,218.022,155.189z M199.974,263.97c-12.912,0-22.263-3.701-26.331-10.421    c-5.047-8.339-2.209-21.417,7.773-36.009c5.413,6.145,11.687,12.139,18.669,17.837c1.375,10.142,3.54,19.652,6.439,28.294    C204.218,263.87,202.02,263.97,199.974,263.97z M198.619,219.495c-3.786-3.561-7.267-7.205-10.374-10.862    c3.125-3.672,6.625-7.337,10.434-10.926c-0.199,3.548-0.307,7.136-0.319,10.698C198.346,212.113,198.434,215.833,198.619,219.495z     M200.261,181.605c-7.092,5.756-13.449,11.809-18.919,18.012c-0.274-0.402-0.543-0.805-0.808-1.207    c-9.244-14.072-11.756-26.753-6.891-34.789c4.068-6.721,13.419-10.422,26.332-10.422c2.121,0,4.417,0.109,6.843,0.326    C203.895,162.106,201.69,171.544,200.261,181.605z M214.065,249.715c1.747,1.974,4.294,3.223,7.108,3.223    c1.15,0,2.276-0.208,3.354-0.619c3.16,1.856,6.35,3.619,9.513,5.255c-5.563,1.902-11.038,3.402-16.315,4.468    C216.347,258.147,215.123,254.023,214.065,249.715z M247.608,295.411c-9.356-0.034-18.421-8.207-25.605-23.051    c8.38-1.846,17.09-4.643,25.917-8.318c8.714,3.629,17.311,6.4,25.579,8.246C266.203,287.213,257.057,295.411,247.608,295.411z     M277.826,261.98c-5.188-1.063-10.563-2.541-16.02-4.406c4.005-2.064,7.959-4.277,11.781-6.592c3.037-1.838,6.06-3.78,9.012-5.79    C281.303,251.125,279.701,256.759,277.826,261.98z M285.198,229.732c-5.429,4.189-11.248,8.171-17.306,11.839    c-6.468,3.915-13.185,7.443-19.972,10.492c-5.776-2.596-11.575-5.586-17.25-8.896c-0.144-5.114-4.349-9.23-9.497-9.23    c-1.279,0-2.561,0.266-3.74,0.771c-2.438-1.704-4.764-3.409-6.923-5.078c-0.79-6.939-1.177-14.064-1.151-21.185    c0.025-7.053,0.456-14.104,1.28-20.967c5.453-4.232,11.275-8.229,17.311-11.884c6.469-3.915,13.186-7.444,19.971-10.493    c6.789,3.051,13.505,6.579,19.972,10.493c6.089,3.687,11.97,7.729,17.483,12.021c0.421,3.8,0.725,7.708,0.904,11.63    c-2.391,1.791-3.802,4.586-3.802,7.587c0,2.992,1.478,5.872,3.892,7.651C286.19,219.632,285.797,224.756,285.198,229.732z     M322.199,253.548c-4.068,6.721-13.42,10.422-26.331,10.422c-2.125,0-4.422-0.109-6.844-0.327    c2.929-8.598,5.135-18.052,6.563-28.13c7.05-5.738,13.381-11.779,18.838-17.973C324.409,232.132,327.246,245.21,322.199,253.548z     M297.275,198.952c-0.018-0.396-0.037-0.795-0.058-1.194c3.785,3.571,7.268,7.218,10.38,10.875    c-3.128,3.682-6.631,7.346-10.439,10.923c0.094-1.644,0.167-3.287,0.22-4.914c2.543-1.766,4.102-4.707,4.102-7.808    C301.48,203.68,299.882,200.708,297.275,198.952z M315.309,198.409c-0.265,0.402-0.533,0.805-0.808,1.207    c-5.441-6.169-11.755-12.186-18.789-17.905c-1.39-10.118-3.559-19.6-6.453-28.208c5.278-0.457,9.841-0.396,14.127,0.175    c1.577,3.225,4.937,5.354,8.536,5.354c1.567,0,3.102-0.386,4.473-1.12c2.504,1.559,4.455,3.477,5.806,5.709    C327.064,171.655,324.553,184.336,315.309,198.409z" fill="#6B7687"/>
		<path d="M396.217,264.203l10.622-4.288c0.355-0.144,0.589-0.488,0.589-0.872    c0.001-0.383-0.231-0.729-0.586-0.873l-43.208-17.568c-0.352-0.144-0.753-0.063-1.021,0.206c-0.269,0.268-0.35,0.67-0.206,1.021    l17.569,43.207c0.144,0.355,0.489,0.588,0.873,0.587c0.383,0,0.729-0.232,0.871-0.589l4.288-10.622l25.452,25.452    c0.367,0.368,0.965,0.368,1.332,0l8.876-8.876c0.367-0.367,0.367-0.964,0-1.332L396.217,264.203z" fill="#6B7687"/>
	</g>
</g>
<g>
</g>
<g>
</g>
<g>
</g>
<g>
</g>
<g>
</g>
<g>
</g>
<g>
</g>
<g>
</g>
<g>
</g>
<g>
</g>
<g>
</g>
<g>
</g>
<g>
</g>
<g>
</g>
<g>
</g>
</svg>
