<?xml version="1.0" encoding="iso-8859-1"?>
<!-- Generator: Adobe Illustrator 18.1.1, SVG Export Plug-In . SVG Version: 6.00 Build 0)  -->
<svg xmlns="http://www.w3.org/2000/svg" xmlns:xlink="http://www.w3.org/1999/xlink" version="1.1" id="Capa_1" x="0px" y="0px" viewBox="0 0 29.935 29.935" style="enable-background:new 0 0 29.935 29.935;" xml:space="preserve" width="512px" height="512px">
<g>
	<g>
		<g>
			<path d="M22.875,25.177l0.183-2.197l-2.872-7.808h1.593v1.259h0.777v-3.295h-0.777v1.26h-1.878     L18.04,9.337c0.199-0.448,0.312-0.94,0.312-1.461c0-1.838-1.368-3.335-3.137-3.576V0h-0.973v4.3     c-1.769,0.239-3.138,1.738-3.138,3.576c0,0.735,0.221,1.417,0.599,1.988l-1.667,4.531H8.081v-1.26H7.303v3.295h0.778v-1.259H9.75     l-2.872,7.808l0.183,2.197l-1.069,4.759l2.403-4.21l1.727-1.618l4.845-12.4l4.846,12.4l1.726,1.618l2.403,4.21L22.875,25.177z      M14.784,10.388c-1.383,0-2.506-1.12-2.506-2.506c0-1.382,1.123-2.503,2.506-2.503c1.384,0,2.506,1.121,2.506,2.503     C17.291,9.268,16.168,10.388,14.784,10.388z" fill="#6B7687"/>
		</g>
		<g>
			<circle cx="14.784" cy="7.918" r="1.234" fill="#6B7687"/>
		</g>
	</g>
</g>
<g>
</g>
<g>
</g>
<g>
</g>
<g>
</g>
<g>
</g>
<g>
</g>
<g>
</g>
<g>
</g>
<g>
</g>
<g>
</g>
<g>
</g>
<g>
</g>
<g>
</g>
<g>
</g>
<g>
</g>
</svg>
