<?xml version="1.0" encoding="iso-8859-1"?>
<!-- Generator: Adobe Illustrator 18.1.1, SVG Export Plug-In . SVG Version: 6.00 Build 0)  -->
<svg xmlns="http://www.w3.org/2000/svg" xmlns:xlink="http://www.w3.org/1999/xlink" version="1.1" id="Capa_1" x="0px" y="0px" viewBox="0 0 28.801 28.801" style="enable-background:new 0 0 28.801 28.801;" xml:space="preserve" width="512px" height="512px">
<g>
	<g>
		<path d="M9.038,22.149H9.14v-1.114c-4.489-0.42-8.017-4.208-8.017-8.805c0-4.879,3.968-8.846,8.846-8.846    c4.819,0,8.742,3.873,8.837,8.671h1.123c-0.096-5.414-4.522-9.794-9.96-9.794C4.472,2.261,0,6.733,0,12.23    c0,5.184,3.976,9.449,9.036,9.921L9.038,22.149z" fill="#6B7687"/>
		<path d="M10.095,8.395c0.498,0.012,0.995,0.042,1.492,0.087c0.185,1.186,0.26,2.379,0.237,3.573h1.121    c0.016-1.164-0.105-2.331-0.373-3.464c0.564,0.073,1.129,0.168,1.692,0.279c0.534,0.102,1.067,0.225,1.6,0.354    c0.202,0.927,0.275,1.87,0.231,2.817c0,0.004-0.001,0.009-0.001,0.013h1.123c0.036-0.854-0.049-1.716-0.258-2.546    c0.487,0.132,0.975,0.27,1.466,0.41c-0.518-0.355-1.062-0.672-1.625-0.956c-0.09-0.277-0.191-0.548-0.31-0.813    c-0.549-1.227-1.39-2.293-2.419-3.085c0.681,1.1,1.245,2.214,1.591,3.38c-0.387-0.159-0.779-0.302-1.179-0.433    c-0.727-0.23-1.473-0.41-2.229-0.536c-0.197-0.591-0.433-1.167-0.718-1.717c-0.171-0.328-0.353-0.646-0.561-0.952    c-0.205-0.303-0.423-0.601-0.678-0.865c0.298,0.666,0.529,1.341,0.729,2.021c0.135,0.464,0.251,0.927,0.351,1.395    c-0.417-0.045-0.836-0.075-1.257-0.084C9.254,7.251,8.383,7.31,7.525,7.444c0.108-0.533,0.239-1.061,0.393-1.587    c0.2-0.681,0.431-1.356,0.728-2.02C8.392,4.099,8.174,4.396,7.969,4.699c-0.207,0.306-0.39,0.626-0.56,0.952    C7.083,6.28,6.819,6.941,6.608,7.62C6.311,7.689,6.014,7.764,5.722,7.853c-0.551,0.167-1.09,0.371-1.61,0.612    C4.46,7.33,5.011,6.242,5.674,5.172c-1.03,0.79-1.87,1.861-2.419,3.085C3.131,8.532,3.026,8.816,2.934,9.104    C2.862,9.151,2.787,9.195,2.715,9.241C2.412,9.445,2.114,9.663,1.851,9.919C2.168,9.777,2.487,9.651,2.81,9.535    c-0.228,0.868-0.323,1.774-0.28,2.665c0.038,0.859,0.194,1.701,0.439,2.514c-0.425-0.143-0.848-0.304-1.267-0.49    c0.265,0.255,0.562,0.472,0.865,0.679c0.189,0.126,0.385,0.243,0.583,0.356c0.099,0.273,0.205,0.54,0.323,0.805    c0.271,0.603,0.588,1.178,0.953,1.721c0.184,0.271,0.375,0.535,0.583,0.787c0.207,0.251,0.423,0.498,0.664,0.719    C5.134,18.147,4.681,17,4.326,15.839c0.406,0.172,0.822,0.324,1.247,0.452c0.397,0.121,0.802,0.221,1.208,0.304    c0.448,1.357,1.062,2.649,1.863,3.818c-0.352-1.232-0.689-2.446-0.949-3.663c0.479,0.063,0.96,0.093,1.442,0.11v-1.113    c-0.551-0.008-1.102-0.028-1.651-0.08c-0.209-1.192-0.337-2.388-0.367-3.586c-0.03-1.194,0.04-2.388,0.217-3.573    C8.255,8.408,9.175,8.37,10.095,8.395z M5.782,15.436c-0.561-0.1-1.118-0.228-1.673-0.377c-0.248-0.963-0.412-1.936-0.457-2.909    c-0.047-0.999,0.038-1.996,0.266-2.973c0.666-0.191,1.335-0.35,2.01-0.469C6.064,8.684,6.201,8.66,6.337,8.64    C6.083,9.775,5.971,10.943,6,12.108c0.026,1.162,0.194,2.317,0.479,3.439C6.247,15.513,6.014,15.478,5.782,15.436z" fill="#6B7687"/>
		<path d="M27.064,21.917v-5.089v-4.22H15.486H9.842v4.307v5.002h10.876H27.064z M10.39,17.056V13.32h4.739    h11.386v3.304l0,0v4.583h-5.439H10.39V17.056L10.39,17.056z" fill="#6B7687"/>
		<polygon points="8.241,26.539 28.523,26.539 28.673,26.04 8.051,26.04   " fill="#6B7687"/>
		<path d="M27.713,22.702H9.441l-1.388,3.079h20.699l0.049-0.168L27.713,22.702z M16.766,25.648l0.328-0.986    h2.018l0.388,0.986H16.766z M9.432,24.498l0.68-1.439h16.633l0.584,1.439H9.432z" fill="#6B7687"/>
	</g>
</g>
<g>
</g>
<g>
</g>
<g>
</g>
<g>
</g>
<g>
</g>
<g>
</g>
<g>
</g>
<g>
</g>
<g>
</g>
<g>
</g>
<g>
</g>
<g>
</g>
<g>
</g>
<g>
</g>
<g>
</g>
</svg>
