<?xml version="1.0" encoding="iso-8859-1"?>
<!-- Generator: Adobe Illustrator 19.0.0, SVG Export Plug-In . SVG Version: 6.00 Build 0)  -->
<svg xmlns="http://www.w3.org/2000/svg" xmlns:xlink="http://www.w3.org/1999/xlink" version="1.1" id="Layer_1" x="0px" y="0px" viewBox="0 0 511.999 511.999" style="enable-background:new 0 0 511.999 511.999;" xml:space="preserve" width="512px" height="512px">
<g>
	<g>
		<path d="M374.495,112.971l40.651-67.871c2.103-3.513,2.156-7.886,0.138-11.447c-2.019-3.562-5.797-5.763-9.891-5.763H166.435    V17.053C166.435,7.635,158.799,0,149.381,0s-17.053,7.635-17.053,17.053v425.498c-21.354,5.88-37.09,25.46-37.09,48.657v9.421    c0,6.278,5.09,11.369,11.369,11.369h85.549c6.279,0,11.369-5.091,11.369-11.369v-9.421c0-23.197-15.736-42.777-37.09-48.657    V198.055h238.958c4.094,0,7.872-2.202,9.891-5.763c2.018-3.563,1.966-7.934-0.138-11.446L374.495,112.971z M269.149,148.834    H166.435v-22.738h102.714c6.279,0,11.369,5.091,11.369,11.369C280.518,143.743,275.428,148.834,269.149,148.834z" fill="#6B7687"/>
	</g>
</g>
<g>
</g>
<g>
</g>
<g>
</g>
<g>
</g>
<g>
</g>
<g>
</g>
<g>
</g>
<g>
</g>
<g>
</g>
<g>
</g>
<g>
</g>
<g>
</g>
<g>
</g>
<g>
</g>
<g>
</g>
</svg>
