<?xml version="1.0" encoding="iso-8859-1"?>
<!-- Generator: Adobe Illustrator 19.0.0, SVG Export Plug-In . SVG Version: 6.00 Build 0)  -->
<svg xmlns="http://www.w3.org/2000/svg" xmlns:xlink="http://www.w3.org/1999/xlink" version="1.1" id="Layer_1" x="0px" y="0px" viewBox="0 0 512.002 512.002" style="enable-background:new 0 0 512.002 512.002;" xml:space="preserve" width="512px" height="512px">
<g>
	<g>
		<path d="M412.258,173.326c-18.865-34.828-48.135-63.18-83.359-81.077l8.395-20.266l14.428,5.976l11.484-27.726L241.932,0    l-11.484,27.726l14.429,5.977l-55.465,133.902l12.489,5.173l-16.524,39.893l67.439,27.935l16.524-39.894l12.489,5.173    l15.218-36.74c30.812,17.912,51.198,49.418,55.29,84.387c0.422-0.184,0.835-0.382,1.261-0.559    c18.819-7.792,39.546-7.792,58.363,0.002c9.184,3.804,17.214,9.221,23.936,15.768C436.23,235.693,428.158,202.678,412.258,173.326    z" fill="#6B7687"/>
	</g>
</g>
<g>
	<g>
		<path d="M382.463,431.973h-38.04c14.374-9.03,27.545-19.902,39.123-32.314c-0.289,0.003-0.577,0.016-0.865,0.016    c-9.707,0-19.569-1.865-29.08-5.805c-19.265-7.981-33.521-22.999-41.043-40.847c-31.633,26.314-76.002,33.778-115.183,17.548    l-73.443-30.422l12.78-30.853l103.374,42.82l11.484-27.726l-156.93-65.003l-11.484,27.726l25.83,10.699l-12.78,30.853    l-31.688,76.503l64.737,26.815c-35.677,0.208-64.641,29.288-64.641,65.014v15.005h382.873v-15.005    C447.485,461.143,418.316,431.973,382.463,431.973z" fill="#6B7687"/>
	</g>
</g>
<g>
	<g>
		<path d="M425.502,305.725c-4.728-11.412-13.614-20.299-25.027-25.027c-11.413-4.729-23.983-4.728-35.393-0.001    c-11.412,4.727-20.299,13.614-25.027,25.027c-9.756,23.56,1.471,50.662,25.028,60.42c23.559,9.76,50.661-1.469,60.419-25.027    C430.23,329.706,430.23,317.136,425.502,305.725z" fill="#6B7687"/>
	</g>
</g>
<g>
</g>
<g>
</g>
<g>
</g>
<g>
</g>
<g>
</g>
<g>
</g>
<g>
</g>
<g>
</g>
<g>
</g>
<g>
</g>
<g>
</g>
<g>
</g>
<g>
</g>
<g>
</g>
<g>
</g>
</svg>
