<?xml version="1.0" encoding="iso-8859-1"?>
<!-- Generator: Adobe Illustrator 19.0.0, SVG Export Plug-In . SVG Version: 6.00 Build 0)  -->
<svg xmlns="http://www.w3.org/2000/svg" xmlns:xlink="http://www.w3.org/1999/xlink" version="1.1" id="Layer_1" x="0px" y="0px" viewBox="0 0 512 512" style="enable-background:new 0 0 512 512;" xml:space="preserve" width="512px" height="512px">
<g>
	<g>
		<polygon points="194.019,57.42 134.812,191.793 188.349,215.308 247.526,80.995   " fill="#6B7687"/>
	</g>
</g>
<g>
	<g>
		<path d="M274.934,93.072l-59.177,134.283l165.882,72.861l59.906-133.735L274.934,93.072z M371.868,271.87l-18.724-8.244    l8.254-18.724l18.714,8.244L371.868,271.87z" fill="#6B7687"/>
	</g>
</g>
<g>
	<g>
		<polygon points="460.059,198.4 411.682,306.404 451.496,341.406 512,204.079   " fill="#6B7687"/>
	</g>
</g>
<g>
	<g>
		<path d="M150.143,231.227l-14.452,32.797l43.247,19.054l0.001,0.001l-26.254,57.809h-0.007c-1.896-0.269-3.833-0.409-5.809-0.409    c-16.997,0-31.618,10.439-37.767,25.259H79.847v-66.411H0V454.58h79.847v-58.9h28.754c0,0.001,0,0.002,0.001,0.002    c5.819,15.48,20.78,26.529,38.267,26.529c22.537,0,40.872-18.335,40.872-40.862c0-9.64-3.353-18.513-8.961-25.509l27.56-60.684    l36.356,16.018l14.502-32.917L150.143,231.227z" fill="#6B7687"/>
	</g>
</g>
<g>
</g>
<g>
</g>
<g>
</g>
<g>
</g>
<g>
</g>
<g>
</g>
<g>
</g>
<g>
</g>
<g>
</g>
<g>
</g>
<g>
</g>
<g>
</g>
<g>
</g>
<g>
</g>
<g>
</g>
</svg>
