<?xml version="1.0" encoding="iso-8859-1"?>
<!-- Generator: Adobe Illustrator 19.0.0, SVG Export Plug-In . SVG Version: 6.00 Build 0)  -->
<svg xmlns="http://www.w3.org/2000/svg" xmlns:xlink="http://www.w3.org/1999/xlink" version="1.1" id="Layer_1" x="0px" y="0px" viewBox="0 0 512 512" style="enable-background:new 0 0 512 512;" xml:space="preserve" width="512px" height="512px">
<g>
	<g>
		<path d="M378.845,304.982h33.299v-30H365.93L318.383,164.54c12.169-14.299,19.536-32.805,19.536-53.009    c0-40.045-28.891-73.449-66.919-80.518V0h-30v31.013c-38.028,7.07-66.919,40.473-66.919,80.518    c0,20.204,7.367,38.709,19.536,53.009L146.07,274.982H99.855v30h33.299L95.66,392.075v66.96h22.655V512h30v-52.964h0.016    l66.298-154.053h82.741l66.298,154.053h0.016V512h30v-52.964h22.655v-66.961h0.001L378.845,304.982z M227.54,274.982l28.46-66.13    l28.46,66.13H227.54z M271,161.233v-27.395h-30v27.395c-21.336-6.452-36.919-26.287-36.919-49.701S219.664,68.283,241,61.831    v31.577h30V61.831c21.336,6.452,36.919,26.287,36.919,49.701S292.336,154.781,271,161.233z" fill="#6B7687"/>
	</g>
</g>
<g>
</g>
<g>
</g>
<g>
</g>
<g>
</g>
<g>
</g>
<g>
</g>
<g>
</g>
<g>
</g>
<g>
</g>
<g>
</g>
<g>
</g>
<g>
</g>
<g>
</g>
<g>
</g>
<g>
</g>
</svg>
