<?xml version="1.0" encoding="iso-8859-1"?>
<!-- Generator: Adobe Illustrator 19.0.0, SVG Export Plug-In . SVG Version: 6.00 Build 0)  -->
<svg xmlns="http://www.w3.org/2000/svg" xmlns:xlink="http://www.w3.org/1999/xlink" version="1.1" id="Layer_1" x="0px" y="0px" viewBox="0 0 512 512" style="enable-background:new 0 0 512 512;" xml:space="preserve" width="512px" height="512px">
<g>
	<g>
		<polygon points="105.739,106.244 105.739,200.634 245.243,153.155 256.002,149.493 266.76,153.155 406.26,200.633 406.26,106.244       " fill="#6B7687"/>
	</g>
</g>
<g>
	<g>
		<path d="M434.287,472.15c-5.857,4.165-9.084,6.459-17.18,6.459s-11.323-2.294-17.18-6.459c-7.5-5.333-17.772-12.636-36.53-12.636    c-18.757,0-29.028,7.304-36.528,12.638c-5.856,4.164-9.08,6.458-17.175,6.458s-11.321-2.294-17.177-6.458    c-7.5-5.334-17.771-12.638-36.528-12.638s-29.027,7.304-36.527,12.638c-5.856,4.164-9.08,6.458-17.175,6.458    c-8.094,0-11.32-2.294-17.174-6.458c-7.5-5.334-17.77-12.638-36.527-12.638s-29.028,7.304-36.527,12.638    c-5.856,4.164-9.08,6.458-17.175,6.458c-8.094,0-11.32-2.294-17.174-6.458c-7.5-5.333-17.771-12.638-36.528-12.638v33.391    c8.094,0,11.32,2.294,17.175,6.458C65.856,504.696,76.127,512,94.884,512c18.757,0,29.028-7.304,36.528-12.638    c5.856-4.164,9.081-6.458,17.177-6.458c8.094,0,11.32,2.294,17.174,6.458c7.5,5.334,17.77,12.638,36.527,12.638    s29.028-7.305,36.527-12.638c5.855-4.164,9.08-6.458,17.174-6.458c8.095,0,11.321,2.294,17.177,6.458    c7.5,5.334,17.771,12.638,36.528,12.638c18.757,0,29.028-7.304,36.527-12.638c5.856-4.164,9.081-6.458,17.176-6.458    c8.096,0,11.323,2.294,17.18,6.459c7.5,5.333,17.772,12.636,36.53,12.636s29.03-7.304,36.53-12.636    c5.857-4.165,9.084-6.459,17.18-6.459v-33.391C452.059,459.513,441.786,466.817,434.287,472.15z" fill="#6B7687"/>
	</g>
</g>
<g>
	<g>
		<polygon points="272.695,25.6 272.695,0 239.304,0 239.304,25.6 160.278,25.6 160.278,72.853 352.834,72.853 352.834,25.6   " fill="#6B7687"/>
	</g>
</g>
<g>
	<g>
		<path d="M47.934,255.58l70.659,175.369c8.186-2.823,18.09-4.827,29.994-4.827c27.248,0,44.025,10.502,53.701,17.277    c7.516-5.264,19.347-12.754,37.015-15.845V190.448L47.934,255.58z" fill="#6B7687"/>
	</g>
</g>
<g>
	<g>
		<path d="M272.695,190.447v237.109c17.661,3.093,29.486,10.582,36.999,15.843c9.675-6.775,26.453-17.278,53.703-17.278    c11.58,0,21.252,1.906,29.31,4.607l71.432-175.125L272.695,190.447z" fill="#6B7687"/>
	</g>
</g>
<g>
</g>
<g>
</g>
<g>
</g>
<g>
</g>
<g>
</g>
<g>
</g>
<g>
</g>
<g>
</g>
<g>
</g>
<g>
</g>
<g>
</g>
<g>
</g>
<g>
</g>
<g>
</g>
<g>
</g>
</svg>
