<?xml version="1.0" encoding="iso-8859-1"?>
<!-- Generator: Adobe Illustrator 19.0.0, SVG Export Plug-In . SVG Version: 6.00 Build 0)  -->
<svg xmlns="http://www.w3.org/2000/svg" xmlns:xlink="http://www.w3.org/1999/xlink" version="1.1" id="Layer_1" x="0px" y="0px" viewBox="0 0 512 512" style="enable-background:new 0 0 512 512;" xml:space="preserve" width="512px" height="512px">
<g>
	<g>
		<path d="M446.851,325.53l-83.543,51.856l17.608,28.37l19.611-12.172c-8.933,16.562-19.5,30.854-31.651,42.704    c-25.236,24.615-57.513,38.593-96.182,41.669V223.643h72.554v-33.391h-72.553v-86.074c21.311-7.02,36.745-27.115,36.745-50.76    C309.44,23.963,285.486,0,256.042,0c-29.463,0-53.435,23.963-53.435,53.417c0,23.618,15.409,43.694,36.697,50.736v86.099H166.73    v33.391h72.574v254.315c-38.61-3.074-70.889-17.052-96.122-41.669c-12.13-11.834-22.682-26.104-31.607-42.642l19.508,12.109    l17.608-28.37l-83.543-51.856L44.323,426.352l32.7,6.754l4.952-23.974c10.574,19.679,23.229,36.759,37.888,51.059    C155.103,494.569,200.897,512,256.07,512c55.078,0,100.877-17.431,136.124-51.809c14.641-14.28,27.284-31.333,37.849-50.972    l4.934,23.885l32.7-6.754L446.851,325.53z" fill="#6B7687"/>
	</g>
</g>
<g>
</g>
<g>
</g>
<g>
</g>
<g>
</g>
<g>
</g>
<g>
</g>
<g>
</g>
<g>
</g>
<g>
</g>
<g>
</g>
<g>
</g>
<g>
</g>
<g>
</g>
<g>
</g>
<g>
</g>
</svg>
