<?xml version="1.0" encoding="iso-8859-1"?>
<!-- Generator: Adobe Illustrator 19.0.0, SVG Export Plug-In . SVG Version: 6.00 Build 0)  -->
<svg xmlns="http://www.w3.org/2000/svg" xmlns:xlink="http://www.w3.org/1999/xlink" version="1.1" id="Layer_1" x="0px" y="0px" viewBox="0 0 512 512" style="enable-background:new 0 0 512 512;" xml:space="preserve" width="512px" height="512px">
<g>
	<g>
		<path d="M465.513,11.92l-16.136,13.928L423.528,0l-23.479,23.479l24.124,24.124l-6.812,5.881l-27.482-27.482L366.399,49.48    l25.757,25.757l-18.708,16.148l12.286,12.286L249.112,240.294l-8.487-5.457c-4.773-3.068-6.971-8.806-5.472-14.278l6.272-22.893    c3.113-11.365-1.587-23.175-11.698-29.388c-10.058-6.182-22.163-5.095-30.836,2.763c-0.294,0.266-0.573,0.531-0.838,0.796    c-18.503,18.504-25.996,33.006-33.243,47.033c-6.664,12.9-12.96,25.084-27.99,40.113c-11.509,11.509-26.191,17.076-41.735,22.97    c-16.981,6.438-34.539,13.096-49.405,27.962c-25.462,25.464-33.796,53.217-24.767,82.489    c8.288,26.872,29.767,50.734,47.553,68.521c17.785,17.785,41.647,39.264,68.52,47.552c7.625,2.352,15.142,3.525,22.548,3.524    c21.023-0.001,41.111-9.464,59.941-28.295c14.866-14.867,21.523-32.424,27.962-49.405c5.893-15.543,11.46-30.225,22.968-41.734    c11.039-11.039,19.992-15.242,29.47-19.69c10.058-4.721,20.458-9.602,33.05-22.193c2.529-2.529,5.324-6.374,8.542-11.755    c4.915-8.219,4.992-18.092,0.204-26.411c-4.81-8.36-13.428-13.284-23.068-13.157l-28.957,0.367    c-5.315,0.05-10.06-3.125-12.071-7.934l148.142-148.141l12.541,12.541l56.356-72.173L465.513,11.92z M153.442,435.291    l-59.344-59.347l23.48-23.479l59.344,59.346L153.442,435.291z M183.639,374.521l-28.773-28.774l23.48-23.479l28.773,28.774    L183.639,374.521z" fill="#6B7687"/>
	</g>
</g>
<g>
</g>
<g>
</g>
<g>
</g>
<g>
</g>
<g>
</g>
<g>
</g>
<g>
</g>
<g>
</g>
<g>
</g>
<g>
</g>
<g>
</g>
<g>
</g>
<g>
</g>
<g>
</g>
<g>
</g>
</svg>
