<?xml version="1.0" encoding="iso-8859-1"?>
<!-- Generator: Adobe Illustrator 19.0.0, SVG Export Plug-In . SVG Version: 6.00 Build 0)  -->
<svg xmlns="http://www.w3.org/2000/svg" xmlns:xlink="http://www.w3.org/1999/xlink" version="1.1" id="Layer_1" x="0px" y="0px" viewBox="0 0 512.002 512.002" style="enable-background:new 0 0 512.002 512.002;" xml:space="preserve" width="512px" height="512px">
<g>
	<g>
		
			<rect x="406.324" y="145.007" transform="matrix(0.9808 -0.1951 0.1951 0.9808 -50.3631 87.2844)" width="23.173" height="308.599" fill="#6B7687"/>
	</g>
</g>
<g>
	<g>
		
			<rect x="458.948" y="134.53" transform="matrix(0.9808 -0.1951 0.1951 0.9808 -47.3079 97.3498)" width="23.173" height="308.599" fill="#6B7687"/>
	</g>
</g>
<g>
	<g>
		<path d="M0,99.049V457.58h77.646V99.049H0z M54.065,422.886H23.582V133.744h30.482V422.886z" fill="#6B7687"/>
	</g>
</g>
<g>
	<g>
		<rect x="108.132" y="219.882" width="98.347" height="237.692" fill="#6B7687"/>
	</g>
</g>
<g>
	<g>
		<path d="M108.128,54.422v14.145v120.837h98.343V60.972v-6.55H108.128z M182.275,160.792h-49.949v-30.482h49.949V160.792z     M182.275,113.516h-49.949V83.034h49.949V113.516z" fill="#6B7687"/>
	</g>
</g>
<g>
	<g>
		<path d="M236.955,457.58h108.191V91.454H236.955V457.58z M255.335,351.716h71.43v30.482h-71.43V351.716z M255.335,398.99h71.43    v30.482h-71.43V398.99z" fill="#6B7687"/>
	</g>
</g>
<g>
</g>
<g>
</g>
<g>
</g>
<g>
</g>
<g>
</g>
<g>
</g>
<g>
</g>
<g>
</g>
<g>
</g>
<g>
</g>
<g>
</g>
<g>
</g>
<g>
</g>
<g>
</g>
<g>
</g>
</svg>
