<?xml version="1.0" encoding="iso-8859-1"?>
<!-- Generator: Adobe Illustrator 19.0.0, SVG Export Plug-In . SVG Version: 6.00 Build 0)  -->
<svg xmlns="http://www.w3.org/2000/svg" xmlns:xlink="http://www.w3.org/1999/xlink" version="1.1" id="Layer_1" x="0px" y="0px" viewBox="0 0 512 512" style="enable-background:new 0 0 512 512;" xml:space="preserve" width="512px" height="512px">
<g>
	<g>
		<polygon points="458.97,95.229 256,13.104 53.029,95.229 0,95.229 0,149.391 30.417,149.391 31.187,149.391 480.813,149.391     481.583,149.391 512,149.391 512,95.229   " fill="#6B7687"/>
	</g>
</g>
<g>
	<g>
		<polygon points="481.583,444.734 480.813,444.734 31.187,444.734 30.417,444.734 0,444.734 0,498.896 512,498.896 512,444.734       " fill="#6B7687"/>
	</g>
</g>
<g>
	<g>
		<path d="M480.813,221.945v-42.138h-30.417H61.604H31.187v42.138h15.209v150.234H31.187v42.138h30.417h388.792h30.417v-42.138    h-15.209V221.945H480.813z M157.27,372.179h-24.291V221.945h24.291V372.179z M268.146,372.179h-24.292V221.945h24.292V372.179z     M379.02,372.179h-24.291V221.945h24.291V372.179z" fill="#6B7687"/>
	</g>
</g>
<g>
</g>
<g>
</g>
<g>
</g>
<g>
</g>
<g>
</g>
<g>
</g>
<g>
</g>
<g>
</g>
<g>
</g>
<g>
</g>
<g>
</g>
<g>
</g>
<g>
</g>
<g>
</g>
<g>
</g>
</svg>
