<?xml version="1.0" encoding="iso-8859-1"?>
<!-- Generator: Adobe Illustrator 19.0.0, SVG Export Plug-In . SVG Version: 6.00 Build 0)  -->
<svg xmlns="http://www.w3.org/2000/svg" xmlns:xlink="http://www.w3.org/1999/xlink" version="1.1" id="Layer_1" x="0px" y="0px" viewBox="0 0 512 512" style="enable-background:new 0 0 512 512;" xml:space="preserve" width="512px" height="512px">
<g>
	<g>
		
			<rect x="244.05" y="178.313" transform="matrix(0.7071 -0.7071 0.7071 0.7071 -38.185 319.5081)" width="245.075" height="55.069" fill="#6B7687"/>
	</g>
</g>
<g>
	<g>
		<polygon points="399.805,22.776 489.223,112.195 512,0.001   " fill="#6B7687"/>
	</g>
</g>
<g>
	<g>
		<polygon points="230.85,77.963 87.415,221.397 136.388,233.246 279.821,89.812   " fill="#6B7687"/>
	</g>
</g>
<g>
	<g>
		
			<rect x="183.604" y="117.878" transform="matrix(0.7071 -0.7071 0.7071 0.7071 -13.1556 259.0656)" width="245.075" height="55.069" fill="#6B7687"/>
	</g>
</g>
<g>
	<g>
		<path d="M277.906,333.464l-99.371-99.37l-7.529,7.529h0.001l-17.602,17.602c-6.989,6.988-10.838,16.28-10.838,26.164    s3.849,19.176,10.838,26.164l47.04,47.041c6.989,6.989,16.281,10.838,26.165,10.838s19.176-3.849,26.165-10.838l17.601-17.601    v0.001L277.906,333.464z" fill="#6B7687"/>
	</g>
</g>
<g>
	<g>
		<polygon points="422.19,232.178 278.754,375.614 290.604,424.586 434.039,281.151   " fill="#6B7687"/>
	</g>
</g>
<g>
	<g>
		<path d="M164.717,347.284c-35.842-35.842-94.164-35.843-130.008,0c-52.68,52.679-30.01,144.2-29.019,148.07l2.234,8.722    l8.723,2.234c1.814,0.464,22.876,5.69,50.175,5.69c30.946,0,69.905-6.72,97.895-34.709    C200.56,441.448,200.56,383.127,164.717,347.284z M125.304,437.878c-15.166,15.166-40.137,18.349-58.414,18.349l-11.081-0.063    l-0.068-10.006c-0.23-33.724,9.869-50.95,18.383-59.463c6.836-6.835,15.923-10.599,25.589-10.599s18.755,3.765,25.591,10.6    c6.827,6.827,10.587,15.916,10.587,25.59C135.891,421.962,132.131,431.051,125.304,437.878z" fill="#6B7687"/>
	</g>
</g>
<g>
</g>
<g>
</g>
<g>
</g>
<g>
</g>
<g>
</g>
<g>
</g>
<g>
</g>
<g>
</g>
<g>
</g>
<g>
</g>
<g>
</g>
<g>
</g>
<g>
</g>
<g>
</g>
<g>
</g>
</svg>
