<?xml version="1.0" encoding="iso-8859-1"?>
<!-- Generator: Adobe Illustrator 19.0.0, SVG Export Plug-In . SVG Version: 6.00 Build 0)  -->
<svg xmlns="http://www.w3.org/2000/svg" xmlns:xlink="http://www.w3.org/1999/xlink" version="1.1" id="Layer_1" x="0px" y="0px" viewBox="0 0 512 512" style="enable-background:new 0 0 512 512;" xml:space="preserve" width="512px" height="512px">
<g>
	<g>
		<path d="M507.631,111.291c-7.347-12.776-22.311-19.254-44.481-19.254c-0.161,0-0.322,0.001-0.484,0.002    c-15.455,0.065-34.68,3.196-57.227,9.306c-25.842-25.044-57.743-43.269-93.447-52.901c-55.439-14.956-113.386-7.427-163.164,21.2    c-49.779,28.626-85.43,74.924-100.385,130.364c-9.632,35.704-9.924,72.445-1.274,107.376    c-16.662,16.457-29.06,31.531-36.885,44.881C-1.029,371.563-3.02,387.861,4.369,400.71c7.348,12.776,22.309,19.253,44.479,19.253    c0.122,0,0.246,0,0.368-0.001c15.475-0.05,34.739-3.183,57.344-9.307c-8.158-7.906-15.717-16.486-22.593-25.698    c6.727-1.498,14.208-3.413,22.558-5.859c50.173-14.7,112.327-42.647,175.011-78.696c62.684-36.049,118.101-75.714,156.04-111.687    c6.309-5.981,11.736-11.488,16.41-16.545c-3.382-7.945-7.257-15.74-11.628-23.342c-4.371-7.601-9.159-14.869-14.324-21.787    c38.797-8.64,51.859-3.034,53.256-0.603c1.396,2.427-0.309,16.53-27.304,45.732c4.503,10.575,8.116,21.422,10.846,32.448    c16.662-16.458,29.059-31.534,36.885-44.883C513.029,140.437,515.019,124.137,507.631,111.291z M30.711,385.561    c-1.396-2.427,0.309-16.531,27.304-45.732c3.383,7.945,7.257,15.739,11.628,23.341c4.37,7.601,9.158,14.868,14.323,21.786    C45.163,393.595,32.107,387.985,30.711,385.561z M372.111,189.225c-17.836-31.014-46.683-53.226-81.225-62.544    c-23.177-6.252-47.552-6.198-70.492,0.161l-8.118-29.284c28.177-7.811,58.097-7.886,86.524-0.217    c42.38,11.433,77.77,38.684,99.653,76.736L372.111,189.225z" fill="#6B7687"/>
	</g>
</g>
<g>
	<g>
		<path d="M464.832,204.618c-2.055,2.03-4.164,4.077-6.349,6.149c-39.632,37.578-97.093,78.765-161.799,115.976    c-64.706,37.211-129.205,66.161-181.616,81.517c-2.89,0.847-5.719,1.64-8.508,2.395c25.842,25.044,57.744,43.269,93.448,52.901    c18.634,5.027,37.543,7.514,56.339,7.513c37.123-0.002,73.779-9.708,106.825-28.713c49.779-28.626,85.43-74.924,100.385-130.364    C473.188,276.289,473.48,239.549,464.832,204.618z" fill="#6B7687"/>
	</g>
</g>
<g>
</g>
<g>
</g>
<g>
</g>
<g>
</g>
<g>
</g>
<g>
</g>
<g>
</g>
<g>
</g>
<g>
</g>
<g>
</g>
<g>
</g>
<g>
</g>
<g>
</g>
<g>
</g>
<g>
</g>
</svg>
