<?xml version="1.0" encoding="iso-8859-1"?>
<!-- Generator: Adobe Illustrator 19.0.0, SVG Export Plug-In . SVG Version: 6.00 Build 0)  -->
<svg xmlns="http://www.w3.org/2000/svg" xmlns:xlink="http://www.w3.org/1999/xlink" version="1.1" id="Layer_1" x="0px" y="0px" viewBox="0 0 512.003 512.003" style="enable-background:new 0 0 512.003 512.003;" xml:space="preserve" width="512px" height="512px">
<g>
	<g>
		
			<rect x="93.025" y="126.497" transform="matrix(0.7071 -0.7071 0.7071 0.7071 -62.0552 149.8196)" width="113.593" height="46.64" fill="#6B7687"/>
	</g>
</g>
<g>
	<g>
		<path d="M405.347,325.026l-19.02-19.02c-11.622-11.622-27.069-17.134-42.328-16.557c0.577-15.257-4.935-30.705-16.557-42.328    l-20.517-20.517l23.059-23.039l38.696,38.696l33.481-33.481l-38.752-38.752l-33.481,33.481l-21.382-21.382l-23.059,23.039    l-57.578-57.579l-80.323,80.323l57.544,57.544l-23.059,23.04l21.436,21.436l-33.481,33.481l38.752,38.752l33.481-33.481    l-38.749-38.749l23.059-23.04l20.551,20.551c11.072,11.072,25.617,16.61,40.161,16.61c0.723,0,1.444-0.024,2.166-0.052    c-0.577,15.257,4.935,30.705,16.557,42.327l19.02,19.02l29.442-29.442l17.056,17.056l21.438-21.438l-17.056-17.056    L405.347,325.026z" fill="#6B7687"/>
	</g>
</g>
<g>
	<g>
		
			<rect x="122.282" y="278.457" transform="matrix(0.7071 -0.7071 0.7071 0.7071 -173.526 192.7906)" width="47.348" height="54.805" fill="#6B7687"/>
	</g>
</g>
<g>
	<g>
		
			<rect x="72.628" y="448.483" transform="matrix(0.7071 -0.7071 0.7071 0.7071 -308.2957 207.4794)" width="47.348" height="54.805" fill="#6B7687"/>
	</g>
</g>
<g>
	<g>
		
			<rect x="127.557" y="393.566" transform="matrix(0.7071 -0.7071 0.7071 0.7071 -253.375 230.2356)" width="47.348" height="54.805" fill="#6B7687"/>
	</g>
</g>
<g>
	<g>
		
			<rect x="67.364" y="333.372" transform="matrix(0.7071 -0.7071 0.7071 0.7071 -228.4422 170.042)" width="47.348" height="54.805" fill="#6B7687"/>
	</g>
</g>
<g>
	<g>
		
			<rect x="12.443" y="388.285" transform="matrix(0.7071 -0.7071 0.7071 0.7071 -283.3576 147.2908)" width="47.348" height="54.805" fill="#6B7687"/>
	</g>
</g>
<g>
	<g>
		
			<rect x="452.213" y="68.911" transform="matrix(0.7071 -0.7071 0.7071 0.7071 71.2803 364.7122)" width="47.348" height="54.805" fill="#6B7687"/>
	</g>
</g>
<g>
	<g>
		<rect x="392.013" y="8.715" transform="matrix(0.7071 -0.7071 0.7071 0.7071 96.2123 304.5132)" width="47.348" height="54.805" fill="#6B7687"/>
	</g>
</g>
<g>
	<g>
		
			<rect x="397.288" y="123.821" transform="matrix(0.7071 -0.7071 0.7071 0.7071 16.3655 341.9577)" width="47.348" height="54.805" fill="#6B7687"/>
	</g>
</g>
<g>
	<g>
		
			<rect x="337.099" y="63.632" transform="matrix(0.7071 -0.7071 0.7071 0.7071 41.2969 281.7681)" width="47.348" height="54.805" fill="#6B7687"/>
	</g>
</g>
<g>
	<g>
		
			<rect x="282.177" y="118.556" transform="matrix(0.7071 -0.7071 0.7071 0.7071 -13.6266 259.0194)" width="47.348" height="54.805" fill="#6B7687"/>
	</g>
</g>
<g>
</g>
<g>
</g>
<g>
</g>
<g>
</g>
<g>
</g>
<g>
</g>
<g>
</g>
<g>
</g>
<g>
</g>
<g>
</g>
<g>
</g>
<g>
</g>
<g>
</g>
<g>
</g>
<g>
</g>
</svg>
