<?xml version="1.0" encoding="iso-8859-1"?>
<!-- Generator: Adobe Illustrator 19.0.0, SVG Export Plug-In . SVG Version: 6.00 Build 0)  -->
<svg xmlns="http://www.w3.org/2000/svg" xmlns:xlink="http://www.w3.org/1999/xlink" version="1.1" id="Layer_1" x="0px" y="0px" viewBox="0 0 511.998 511.998" style="enable-background:new 0 0 511.998 511.998;" xml:space="preserve" width="512px" height="512px">
<g>
	<g>
		<path d="M485.088,314.459c2.933-4.555,4.642-9.975,4.642-15.796c0-16.14-13.084-29.226-29.226-29.226    c-2.382,0-4.694,0.292-6.912,0.829c-2.589-1.899-5.283-3.682-8.103-5.31L429.974,256l15.515-8.957    c41.615-24.026,55.924-77.428,31.897-119.043c-24.026-41.614-77.427-55.923-119.043-31.896l-15.515,8.957V87.145    C342.829,39.093,303.736,0,255.684,0c-14.171,0-27.551,3.422-39.39,9.45c-3.534-1.516-7.425-2.358-11.513-2.358    c-16.14,0-29.226,13.084-29.226,29.226c0,4.103,0.85,8.007,2.376,11.55c-5.992,11.812-9.392,25.152-9.392,39.279v17.915    l-15.515-8.957c-41.614-24.026-95.016-9.717-119.043,31.896c-11.639,20.158-14.73,43.643-8.705,66.127    c6.025,22.484,20.444,41.276,40.603,52.915l15.515,8.957l-15.515,8.957C45.72,276.594,31.3,295.387,25.276,317.871    c-6.025,22.483-2.933,45.968,8.705,66.127c9.906,17.156,24.807,29.663,41.813,36.764c3.681,11.929,14.792,20.596,27.929,20.596    c11.467,0,21.387-6.609,26.173-16.221c7.928-1.909,15.714-4.962,23.126-9.242l15.515-8.957v17.915    c0,48.052,39.093,87.145,87.145,87.145s87.145-39.093,87.145-87.145v-17.915l15.515,8.957    c13.428,7.753,28.33,11.713,43.431,11.713c7.569,0,15.19-0.996,22.696-3.007c22.484-6.025,41.276-20.444,52.915-40.603    c11.639-20.158,14.73-43.643,8.705-66.127C485.784,316.722,485.44,315.588,485.088,314.459z M168.539,240.81v30.381L142.229,256    L168.539,240.81z M81.088,220.701c-13.123-7.577-22.51-19.81-26.432-34.446s-1.909-29.923,5.667-43.046    c15.641-27.091,50.402-36.403,77.492-20.764l30.723,17.738v65.504l-56.728,32.752L81.088,220.701z M168.54,371.816l-30.724,17.738    c-3.487,2.013-7.13,3.621-10.869,4.841c-5.341-6.981-13.753-11.487-23.221-11.487c-7.793,0-14.869,3.056-20.108,8.028    c-9.674-4.924-17.738-12.525-23.293-22.146c-7.576-13.122-9.59-28.41-5.667-43.046c3.922-14.637,13.308-26.87,26.431-34.446    l30.723-17.738l56.728,32.752V371.816z M198.957,157.743l26.311,15.19l-26.311,15.191V157.743z M198.957,323.874l26.311,15.191    l-26.311,15.19V323.874z M312.413,424.854c0,31.28-25.448,56.728-56.728,56.728c-31.28,0-56.728-25.448-56.728-56.728v-35.476    l56.728-32.752l56.728,32.752V424.854z M312.413,354.256l-26.311-15.19l26.311-15.191V354.256z M312.413,288.751l-56.728,32.752    l-56.728-32.752v-65.504l56.728-32.752l56.728,32.752V288.751z M286.101,172.935l26.311-15.19v30.382L286.101,172.935z     M312.413,122.621l-56.728,32.752l-56.728-32.752V87.145c0-7.662,1.535-14.969,4.3-21.643c0.505,0.026,1.013,0.04,1.524,0.04    c16.14,0,29.226-13.084,29.226-29.226c0-0.526-0.015-1.048-0.043-1.568c6.694-2.786,14.029-4.331,21.721-4.331    c31.28,0,56.728,25.448,56.728,56.728V122.621z M342.83,140.183l30.723-17.738c8.742-5.047,18.441-7.625,28.272-7.625    c4.927,0,9.888,0.648,14.775,1.958c14.637,3.922,26.87,13.309,34.446,26.432c7.576,13.122,9.59,28.41,5.667,43.046    c-3.922,14.637-13.309,26.87-26.432,34.446l-30.723,17.738l-56.728-32.752V140.183z M342.83,240.809l26.311,15.19l-26.311,15.19    V240.809z M451.045,368.791c-15.641,27.09-50.403,36.402-77.492,20.764l-30.723-17.738v-65.504l56.728-32.752l30.723,17.738    c0.575,0.332,1.134,0.684,1.693,1.033c-0.45,2.039-0.696,4.156-0.696,6.331c0,15.018,11.328,27.384,25.905,29.032    C460.431,341.733,458.285,356.25,451.045,368.791z" fill="#6B7687"/>
	</g>
</g>
<g>
	<g>
		<path d="M255.685,211.566c-24.501,0-44.434,19.933-44.434,44.434s19.933,44.434,44.434,44.434    c24.501,0,44.434-19.933,44.434-44.434S280.186,211.566,255.685,211.566z" fill="#6B7687"/>
	</g>
</g>
<g>
</g>
<g>
</g>
<g>
</g>
<g>
</g>
<g>
</g>
<g>
</g>
<g>
</g>
<g>
</g>
<g>
</g>
<g>
</g>
<g>
</g>
<g>
</g>
<g>
</g>
<g>
</g>
<g>
</g>
</svg>
