<?xml version="1.0" encoding="iso-8859-1"?>
<!-- Generator: Adobe Illustrator 19.0.0, SVG Export Plug-In . SVG Version: 6.00 Build 0)  -->
<svg xmlns="http://www.w3.org/2000/svg" xmlns:xlink="http://www.w3.org/1999/xlink" version="1.1" id="Layer_1" x="0px" y="0px" viewBox="0 0 512 512" style="enable-background:new 0 0 512 512;" xml:space="preserve" width="512px" height="512px">
<g>
	<g>
		<polygon points="480.54,202.332 474.262,217.489 404.627,188.646 376.946,255.477 446.579,284.32 440.302,299.477     468.373,311.104 474.651,295.948 488.493,262.532 508.611,213.961   " fill="#6B7687"/>
	</g>
</g>
<g>
	<g>
		<path d="M103.003,35.865l10.039-24.237L84.97,0L74.207,25.985C46.843,22.001,19.154,36.859,8.1,63.547    c-11.054,26.688-1.982,56.772,20.185,73.305l-0.724,1.749l-10.039,24.237l28.072,11.627l10.039-24.237l103.148,42.726    c0.578-5.041,1.851-10.033,3.847-14.851c5.619-13.567,16.185-24.133,29.752-29.753c13.567-5.619,28.51-5.62,42.076,0    c13.567,5.619,24.133,16.185,29.753,29.751c5.619,13.568,5.619,28.51,0,42.076c-1.995,4.818-4.625,9.247-7.781,13.221    l82.601,34.215l47.372-114.363L103.003,35.865z" fill="#6B7687"/>
	</g>
</g>
<g>
	<g>
		<path d="M366.334,481.615L249.463,240.667c-4.414,3.824-9.453,6.965-15.006,9.265c-6.783,2.81-13.912,4.214-21.039,4.214    c-7.128,0-14.254-1.405-21.038-4.215c-5.553-2.3-10.592-5.441-15.007-9.264L60.503,481.615H18.569V512h389.699v-30.385H366.334z     M198.225,481.617H94.273l47.52-97.972h56.432V481.617z M198.225,353.259h-41.695l41.695-85.96V353.259z M228.61,267.3    l41.695,85.96H228.61V267.3z M228.61,481.617v-0.001v-97.971h56.432l47.52,97.972H228.61z" fill="#6B7687"/>
	</g>
</g>
<g>
	<g>
		<path d="M236.137,189.73c-2.514-6.069-7.241-10.795-13.309-13.308c-3.034-1.257-6.223-1.886-9.411-1.886    c-3.187,0-6.376,0.629-9.41,1.885c-6.069,2.514-10.795,7.241-13.308,13.309c-2.514,6.068-2.514,12.752,0,18.821    c2.514,6.069,7.241,10.796,13.309,13.309c6.069,2.515,12.753,2.514,18.821,0c6.069-2.514,10.795-7.241,13.308-13.309    C238.651,202.482,238.651,195.799,236.137,189.73z" fill="#6B7687"/>
	</g>
</g>
<g>
</g>
<g>
</g>
<g>
</g>
<g>
</g>
<g>
</g>
<g>
</g>
<g>
</g>
<g>
</g>
<g>
</g>
<g>
</g>
<g>
</g>
<g>
</g>
<g>
</g>
<g>
</g>
<g>
</g>
</svg>
