<?xml version="1.0" encoding="iso-8859-1"?>
<!-- Generator: Adobe Illustrator 19.0.0, SVG Export Plug-In . SVG Version: 6.00 Build 0)  -->
<svg xmlns="http://www.w3.org/2000/svg" xmlns:xlink="http://www.w3.org/1999/xlink" version="1.1" id="Layer_1" x="0px" y="0px" viewBox="0 0 511.999 511.999" style="enable-background:new 0 0 511.999 511.999;" xml:space="preserve" width="512px" height="512px">
<g>
	<g>
		<path d="M254.115,301.819v12.198h-0.001c0,9.049,7.362,16.411,16.411,16.411h19.087c9.049,0,16.411-7.362,16.411-16.411v-12.198    H254.115z" fill="#6B7687"/>
	</g>
</g>
<g>
	<g>
		<path d="M280.068,175.206c-5.622,0-10.196,4.574-10.196,10.197c0,5.622,4.574,10.196,10.196,10.196    c5.622,0,10.197-4.574,10.197-10.196C290.265,179.781,285.69,175.206,280.068,175.206z" fill="#6B7687"/>
	</g>
</g>
<g>
	<g>
		<path d="M280.068,112.806c-40.029,0-72.597,32.567-72.597,72.598c0,18.966,7.245,36.866,20.418,50.474l0.322,0.321    c10.042,10.005,17.596,22.01,22.229,35.203h14.419v-48.351c-14.879-6.033-25.404-20.63-25.404-37.647    c0-22.394,18.219-40.614,40.613-40.614c22.394,0,40.614,18.219,40.614,40.614c0,17.017-10.526,31.615-25.405,37.647v48.351h14.42    c4.632-13.194,12.187-25.198,22.229-35.203l0.333-0.332c13.166-13.608,20.408-31.503,20.408-50.464    C352.666,145.373,320.098,112.806,280.068,112.806z" fill="#6B7687"/>
	</g>
</g>
<g>
	<g>
		<path d="M280.068,0C175.516,0,90.293,84.355,88.886,188.58L40.731,327.056h48.138V430.24h93.414v81.759h219.545V338.606    c20.245-16.76,37.064-37.757,48.903-61.125c13.627-26.9,20.538-55.929,20.538-86.28C471.268,85.772,385.496,0,280.068,0z     M353.505,257.646l-1.423,1.447c-7.76,8.199-13.132,18.232-15.643,29.189v25.737c0,25.821-21.007,46.828-46.828,46.828h-19.087    c-25.821,0-46.828-21.007-46.828-46.828v-25.737c-2.513-10.974-7.896-21.018-15.675-29.224l-1.39-1.412    c-19.074-19.387-29.578-45.043-29.578-72.242c0-56.802,46.212-103.015,103.014-103.015c56.802,0,103.015,46.212,103.015,103.015    C383.083,212.603,372.578,238.259,353.505,257.646z" fill="#6B7687"/>
	</g>
</g>
<g>
</g>
<g>
</g>
<g>
</g>
<g>
</g>
<g>
</g>
<g>
</g>
<g>
</g>
<g>
</g>
<g>
</g>
<g>
</g>
<g>
</g>
<g>
</g>
<g>
</g>
<g>
</g>
<g>
</g>
</svg>
