<?xml version="1.0" encoding="iso-8859-1"?>
<!-- Generator: Adobe Illustrator 19.0.0, SVG Export Plug-In . SVG Version: 6.00 Build 0)  -->
<svg xmlns="http://www.w3.org/2000/svg" xmlns:xlink="http://www.w3.org/1999/xlink" version="1.1" id="Layer_1" x="0px" y="0px" viewBox="0 0 511.999 511.999" style="enable-background:new 0 0 511.999 511.999;" xml:space="preserve" width="512px" height="512px">
<g>
	<g>
		<path d="M280.068,174.292c-9.323,0-16.908,7.585-16.908,16.908c0,9.323,7.584,16.908,16.908,16.908    c9.324,0,16.908-7.585,16.908-16.908C296.976,181.877,289.391,174.292,280.068,174.292z" fill="#6B7687"/>
	</g>
</g>
<g>
	<g>
		<path d="M280.068,123.597c-37.276,0-67.602,30.327-67.602,67.603c0,37.276,30.326,67.603,67.602,67.603    c37.277,0,67.603-30.327,67.603-67.603C347.671,153.924,317.345,123.597,280.068,123.597z M280.068,238.524    c-26.095,0-47.325-21.229-47.325-47.325s21.229-47.325,47.325-47.325c26.096,0,47.325,21.229,47.325,47.325    S306.163,238.524,280.068,238.524z" fill="#6B7687"/>
	</g>
</g>
<g>
	<g>
		<path d="M280.068,0C175.516,0,90.293,84.355,88.886,188.58L40.731,327.056h48.138V430.24h93.414v81.759h219.545V338.606    c20.245-16.76,37.064-37.757,48.903-61.125c13.627-26.9,20.538-55.929,20.538-86.28C471.268,85.772,385.496,0,280.068,0z     M404.089,206.41h-27.182c-2.456,15.697-8.653,30.169-17.643,42.479l19.254,19.253L357.01,289.65l-19.254-19.254    c-12.309,8.991-26.781,15.188-42.479,17.644v27.182h-30.417v-27.182c-15.697-2.456-30.169-8.653-42.478-17.644l-19.254,19.254    l-21.508-21.508l19.254-19.254c-8.99-12.309-15.187-26.781-17.643-42.479H156.05v-30.417h27.182    c2.456-15.697,8.653-30.169,17.643-42.479l-19.254-19.254l21.508-21.508l19.254,19.254c12.309-8.991,26.78-15.188,42.478-17.644    V67.18h30.417v27.181c15.698,2.456,30.17,8.653,42.479,17.644l19.254-19.254l21.508,21.508l-19.254,19.255    c8.99,12.309,15.187,26.78,17.643,42.479h27.182V206.41z" fill="#6B7687"/>
	</g>
</g>
<g>
</g>
<g>
</g>
<g>
</g>
<g>
</g>
<g>
</g>
<g>
</g>
<g>
</g>
<g>
</g>
<g>
</g>
<g>
</g>
<g>
</g>
<g>
</g>
<g>
</g>
<g>
</g>
<g>
</g>
</svg>
