<?xml version="1.0" encoding="iso-8859-1"?>
<!-- Generator: Adobe Illustrator 19.0.0, SVG Export Plug-In . SVG Version: 6.00 Build 0)  -->
<svg xmlns="http://www.w3.org/2000/svg" xmlns:xlink="http://www.w3.org/1999/xlink" version="1.1" id="Layer_1" x="0px" y="0px" viewBox="0 0 512 512" style="enable-background:new 0 0 512 512;" xml:space="preserve" width="512px" height="512px">
<g>
	<g>
		<path d="M511.991,81.608h-14.724H372.966h-14.724v30.417h14.724v25.348h68.405v30.417h-68.405v20.278h68.405v30.417h-68.405    v20.278h68.405v30.417h-68.405v20.278h68.405v30.417h-68.405v20.278h68.405v30.417h-68.405v20.278h68.405v30.417h-68.405v28.583    c0,34.27,27.881,62.15,62.15,62.15s62.15-27.88,62.15-62.15V112.025h14.724L511.991,81.608L511.991,81.608z" fill="#6B7687"/>
	</g>
</g>
<g>
	<g>
		<path d="M331.511,437.24l-54.081-73.065H63.326L9.246,437.24c-10.593,14.312-12.196,33.08-4.182,48.982    C13.078,502.123,29.117,512,46.923,512h246.912c17.806,0,33.845-9.878,41.858-25.779    C343.706,470.321,342.104,451.553,331.511,437.24z" fill="#6B7687"/>
	</g>
</g>
<g>
	<g>
		<polygon points="108.228,288.963 108.228,303.51 85.84,333.757 254.917,333.757 232.528,303.51 232.528,30.417 247.252,30.417     247.252,0 232.528,0 108.228,0 93.504,0 93.504,30.417 108.228,30.417 108.228,55.765 176.633,55.765 176.633,86.182     108.228,86.182 108.228,106.46 176.633,106.46 176.633,136.877 108.228,136.877 108.228,157.155 176.633,157.155 176.633,187.573     108.228,187.573 108.228,207.851 176.633,207.851 176.633,238.268 108.228,238.268 108.228,258.546 176.633,258.546     176.633,288.963   " fill="#6B7687"/>
	</g>
</g>
<g>
</g>
<g>
</g>
<g>
</g>
<g>
</g>
<g>
</g>
<g>
</g>
<g>
</g>
<g>
</g>
<g>
</g>
<g>
</g>
<g>
</g>
<g>
</g>
<g>
</g>
<g>
</g>
<g>
</g>
</svg>
