<?xml version="1.0" encoding="iso-8859-1"?>
<!-- Generator: Adobe Illustrator 19.0.0, SVG Export Plug-In . SVG Version: 6.00 Build 0)  -->
<svg xmlns="http://www.w3.org/2000/svg" xmlns:xlink="http://www.w3.org/1999/xlink" version="1.1" id="Layer_1" x="0px" y="0px" viewBox="0 0 512 512" style="enable-background:new 0 0 512 512;" xml:space="preserve" width="512px" height="512px">
<g>
	<g>
		<polygon points="322.538,256.263 304.378,326.123 368.828,326.123 368.828,256.263   " fill="#6B7687"/>
	</g>
</g>
<g>
	<g>
		<path d="M449.895,376.83V175.196H259.85l-6.559,25.232L15.995,7.926v111.927v4.74v174.304h15.2c3.824,0,7.374,1.536,9.997,4.326    c2.617,2.785,3.927,6.439,3.689,10.289c-0.432,6.953-6.237,12.577-13.217,12.802c-3.847,0.132-7.454-1.3-10.165-4.01L0,343.798    c8.257,8.258,19.571,12.923,31.234,12.923c0.469,0,0.94-0.008,1.411-0.022c22.482-0.728,41.184-18.869,42.576-41.303    c0.764-12.313-3.454-24.03-11.878-32.994c-4.728-5.031-10.563-8.84-16.948-11.188V168.596l143.83,208.194h-32.445    c-35.093,0-63.643,28.55-63.643,63.643c0,35.092,28.55,63.642,63.643,63.642h290.579c35.092,0,63.642-28.55,63.642-63.642    C512,405.855,484.277,377.65,449.895,376.83z M46.395,115.112c0,0,0-43.381,0-43.381l35.959,29.172l-27.072,27.072L46.395,115.112    z M72.847,153.402l16.981-16.982c0,0,0,41.562,0,41.562L72.847,153.402z M120.228,131.629l32.243,26.157l-32.243,32.243V131.629z     M159.925,279.447l-35.188-50.934l35.188-35.188V279.447z M190.325,188.494l54.562,44.264l-1.466,5.642l-53.096,53.096V188.494z     M192.483,455.633H150.05v-30.4h42.433V455.633z M194.833,329.978l33.486-33.486l-15.48,59.55L194.833,329.978z M258.384,455.633    h-42.433v-30.4h42.433V455.633z M324.286,455.633h-42.433v-30.4h42.433V455.633z M390.187,455.633h-42.433v-30.4h42.433V455.633z     M399.229,356.523h-0.001H265.065l33.965-130.661h100.199V356.523z M456.088,455.633h-42.434v-30.4h42.434V455.633z" fill="#6B7687"/>
	</g>
</g>
<g>
</g>
<g>
</g>
<g>
</g>
<g>
</g>
<g>
</g>
<g>
</g>
<g>
</g>
<g>
</g>
<g>
</g>
<g>
</g>
<g>
</g>
<g>
</g>
<g>
</g>
<g>
</g>
<g>
</g>
</svg>
