<?xml version="1.0" encoding="iso-8859-1"?>
<!-- Generator: Adobe Illustrator 19.0.0, SVG Export Plug-In . SVG Version: 6.00 Build 0)  -->
<svg xmlns="http://www.w3.org/2000/svg" xmlns:xlink="http://www.w3.org/1999/xlink" version="1.1" id="Layer_1" x="0px" y="0px" viewBox="0 0 512 512" style="enable-background:new 0 0 512 512;" xml:space="preserve" width="512px" height="512px">
<g>
	<g>
		<path d="M76.807,285.712l-63.181,63.181C4.839,357.679,0,369.361,0,381.787c0,12.426,4.839,24.108,13.626,32.895l78.419,78.419    c8.787,8.787,20.469,13.626,32.895,13.626c12.426,0,24.108-4.839,32.895-13.626l46.132-46.13L76.807,285.712z M122.967,448.572    l-64.813-64.812l21.476-21.476l64.813,64.812L122.967,448.572z" fill="#6B7687"/>
	</g>
</g>
<g>
	<g>
		<path d="M465.076,26.016C451.7,12.639,433.916,5.273,414.998,5.273s-36.701,7.366-50.078,20.743L110.962,279.974l98.381,124.763    l7.775-3.348l6.313-22.862l21.784-9.381l6.313-22.863l21.785-9.382l6.315-22.865l21.785-9.382l6.316-22.865l21.785-9.383    l6.312-22.86l21.785-9.381l6.314-22.865l21.786-9.381l6.314-22.865l21.786-9.384l6.317-22.866l21.788-9.386l6.316-22.866    l21.788-9.386l6.319-22.87L512,72.934L465.076,26.016z" fill="#6B7687"/>
	</g>
</g>
<g>
</g>
<g>
</g>
<g>
</g>
<g>
</g>
<g>
</g>
<g>
</g>
<g>
</g>
<g>
</g>
<g>
</g>
<g>
</g>
<g>
</g>
<g>
</g>
<g>
</g>
<g>
</g>
<g>
</g>
</svg>
