<?xml version="1.0" encoding="iso-8859-1"?>
<!-- Generator: Adobe Illustrator 19.0.0, SVG Export Plug-In . SVG Version: 6.00 Build 0)  -->
<svg xmlns="http://www.w3.org/2000/svg" xmlns:xlink="http://www.w3.org/1999/xlink" version="1.1" id="Layer_1" x="0px" y="0px" viewBox="0 0 512 512" style="enable-background:new 0 0 512 512;" xml:space="preserve" width="512px" height="512px">
<g>
	<g>
		<path d="M459.526,199.222v-59.82h52.238l-41.252-78.904h-299.28V20.28H92.329v40.217H0.001V139.4h92.328v321.903H0v30.417h92.329    h78.904h92.329v-30.417h-92.329V139.401h257.876v59.82h-52.475v117.613H512V199.222H459.526z M35.274,108.984h-4.856v-18.07    h22.925L35.274,108.984z M108.014,108.984H92.329H78.289l18.07-18.07h29.726L108.014,108.984z M180.755,108.984h-9.522H151.03    l18.07-18.07h2.133h27.591L180.755,108.984z M253.497,108.984h-29.726l18.07-18.07h29.726L253.497,108.984z M326.237,108.984    h-29.725l18.07-18.07h29.725L326.237,108.984z M398.978,108.984h-29.725l18.07-18.07h29.725L398.978,108.984z M454.829,96.149    l6.71,12.835h-19.545L454.829,96.149z" fill="#6B7687"/>
	</g>
</g>
<g>
</g>
<g>
</g>
<g>
</g>
<g>
</g>
<g>
</g>
<g>
</g>
<g>
</g>
<g>
</g>
<g>
</g>
<g>
</g>
<g>
</g>
<g>
</g>
<g>
</g>
<g>
</g>
<g>
</g>
</svg>
