<?xml version="1.0" encoding="iso-8859-1"?>
<!-- Generator: Adobe Illustrator 19.0.0, SVG Export Plug-In . SVG Version: 6.00 Build 0)  -->
<svg xmlns="http://www.w3.org/2000/svg" xmlns:xlink="http://www.w3.org/1999/xlink" version="1.1" id="Layer_1" x="0px" y="0px" viewBox="0 0 512 512" style="enable-background:new 0 0 512 512;" xml:space="preserve" width="512px" height="512px">
<g>
	<g>
		<path d="M354.171,126.943c-14.255-26.697-39.99-44.914-69.672-49.595V50.072h64.427V19.656h-64.427V0h-30.416v19.656h-64.427    v30.416h64.427v27.276c-29.683,4.681-55.417,22.897-69.672,49.595H19.796v91.009H184.41c16.643,31.168,48.926,50.796,84.88,50.796    s68.238-19.628,84.88-50.796h28.895v37.188h91.009v0V126.943H354.171z" fill="#6B7687"/>
	</g>
</g>
<g>
	<g>
		<rect x="364.933" y="285.557" width="127.271" height="54.141" fill="#6B7687"/>
	</g>
</g>
<g>
	<g>
		<path d="M462.023,394.16c-11.362-15.212-22.707-25.651-23.184-26.088l-10.268-9.399l-10.267,9.399    c-0.478,0.437-11.822,10.876-23.182,26.088c-16.117,21.58-24.288,41.801-24.288,60.101c0,31.838,25.901,57.739,57.739,57.739    s57.739-25.901,57.739-57.739C486.312,435.961,478.14,415.74,462.023,394.16z" fill="#6B7687"/>
	</g>
</g>
<g>
</g>
<g>
</g>
<g>
</g>
<g>
</g>
<g>
</g>
<g>
</g>
<g>
</g>
<g>
</g>
<g>
</g>
<g>
</g>
<g>
</g>
<g>
</g>
<g>
</g>
<g>
</g>
<g>
</g>
</svg>
