<?xml version="1.0" encoding="iso-8859-1"?>
<!-- Generator: Adobe Illustrator 19.0.0, SVG Export Plug-In . SVG Version: 6.00 Build 0)  -->
<svg xmlns="http://www.w3.org/2000/svg" xmlns:xlink="http://www.w3.org/1999/xlink" version="1.1" id="Layer_1" x="0px" y="0px" viewBox="0 0 512.001 512.001" style="enable-background:new 0 0 512.001 512.001;" xml:space="preserve" width="512px" height="512px">
<g>
	<g>
		<rect x="79.304" y="327.686" transform="matrix(0.9808 -0.1951 0.1951 0.9808 -63.9303 24.606)" width="27.284" height="18.311" fill="#6B7687"/>
	</g>
</g>
<g>
	<g>
		<path d="M461.369,156.643l-22.411,4.458L301.06,60.672c0.853-3.301,1.307-6.761,1.307-10.324c0-22.773-18.527-41.3-41.3-41.3    c-22.773,0-41.3,18.527-41.3,41.3c0,4.983,0.888,9.763,2.512,14.19L20.365,244.365L0,248.416l50.632,254.536l461.369-91.772    L461.369,156.643z M242.511,87.229c5.583,2.821,11.884,4.42,18.556,4.42c8.115,0,15.683-2.362,22.074-6.42l115.258,83.94    l-319.181,63.49L242.511,87.229z M134.553,420.468l-43.78-24.65l6.297,31.656l-29.815,5.931l-12.748-64.092l-12.469-62.677    l86.389-17.184l15.432,77.585l-31.213,6.209l36.823,20.732L134.553,420.468z M172.445,411.011l-24.934-125.355l87.799-17.465    l5.932,29.816l-57.986,11.534l3.571,17.955l28.43-5.655l5.93,29.816l-28.429,5.654l3.571,17.955l57.985-11.533l5.932,29.816    L172.445,411.011z M308.069,385.502l-29.816,5.931l-26.026-130.84l68.342,47.918l-11.241-56.512l29.816-5.931l26.025,130.839    l-68.342-47.918L308.069,385.502z M441.886,358.884l-29.815,5.931l-19.285-96.952l-29.699,5.908l-5.932-29.815l89.213-17.746    l5.932,29.815l-29.699,5.908L441.886,358.884z" fill="#6B7687"/>
	</g>
</g>
<g>
</g>
<g>
</g>
<g>
</g>
<g>
</g>
<g>
</g>
<g>
</g>
<g>
</g>
<g>
</g>
<g>
</g>
<g>
</g>
<g>
</g>
<g>
</g>
<g>
</g>
<g>
</g>
<g>
</g>
</svg>
