<?xml version="1.0" encoding="iso-8859-1"?>
<!-- Generator: Adobe Illustrator 19.0.0, SVG Export Plug-In . SVG Version: 6.00 Build 0)  -->
<svg xmlns="http://www.w3.org/2000/svg" xmlns:xlink="http://www.w3.org/1999/xlink" version="1.1" id="Layer_1" x="0px" y="0px" viewBox="0 0 512 512" style="enable-background:new 0 0 512 512;" xml:space="preserve" width="512px" height="512px">
<g>
	<g>
		<path d="M379.214,84.766V21.52H132.786v63.247H39.812v31.347h31.994v81.503v1.045h15.673h15.673h305.695h15.673h15.673v-1.045    v-81.503h35.318V84.766H379.214z M164.571,172.8h-28.212v-28.212h28.212V172.8z M217.339,172.8h-28.212v-28.212h28.212V172.8z     M270.106,172.8h-28.212v-28.212h28.212V172.8z M322.873,172.8h-28.212v-28.212h28.212V172.8z M375.641,172.8h-28.212v-28.212    h28.212V172.8z" fill="#6B7687"/>
	</g>
</g>
<g>
	<g>
		<path d="M463.935,459.133v-230.17h-15.673h-8.067H71.805h-8.067H48.065v230.17H0v31.347h48.065h163.736h88.398h163.736H512    v-31.347H463.935z M136.014,336.191h-28.212v-28.212h28.212V336.191z M136.014,284.991h-28.212v-28.212h28.212V284.991z     M188.782,336.191h-28.212v-28.212h28.212V336.191z M188.782,284.991h-28.212v-28.212h28.212V284.991z M266.104,256.778h28.212    v28.212h-28.212V256.778z M266.104,307.978h28.212v28.212h-28.212V307.978z M213.337,256.778h28.212v28.212h-28.212V256.778z     M213.337,307.978h28.212v28.212h-28.212V307.978z M300.199,459.133h-31.347v-64.428h-25.704v64.428h-31.347v-95.775h88.398    V459.133z M347.084,336.191h-28.212v-28.212h28.212V336.191z M347.084,284.991h-28.212v-28.212h28.212V284.991z M399.851,336.191    h-28.212v-28.212h28.212V336.191z M399.851,284.991h-28.212v-28.212h28.212V284.991z" fill="#6B7687"/>
	</g>
</g>
<g>
</g>
<g>
</g>
<g>
</g>
<g>
</g>
<g>
</g>
<g>
</g>
<g>
</g>
<g>
</g>
<g>
</g>
<g>
</g>
<g>
</g>
<g>
</g>
<g>
</g>
<g>
</g>
<g>
</g>
</svg>
