<?xml version="1.0" encoding="iso-8859-1"?>
<!-- Generator: Adobe Illustrator 19.0.0, SVG Export Plug-In . SVG Version: 6.00 Build 0)  -->
<svg xmlns="http://www.w3.org/2000/svg" xmlns:xlink="http://www.w3.org/1999/xlink" version="1.1" id="Layer_1" x="0px" y="0px" viewBox="0 0 512 512" style="enable-background:new 0 0 512 512;" xml:space="preserve" width="512px" height="512px">
<g>
	<g>
		<path d="M330.643,285.719H31.349H15.675H0v97.622h47.097c6.667,21.15,26.469,36.533,49.793,36.533    c23.334,0,43.126-15.382,49.793-36.533h183.959h1.045v-15.675v-81.948H330.643z M96.891,388.525    c-11.495,0-20.847-9.353-20.847-20.858c0-11.495,9.353-20.847,20.847-20.847s20.847,9.353,20.847,20.847    C117.738,379.172,108.386,388.525,96.891,388.525z" fill="#6B7687"/>
	</g>
</g>
<g>
	<g>
		<polygon points="0,92.126 0,254.37 15.675,254.37 31.349,254.37 330.643,254.37 331.688,254.37 331.688,178.744 331.688,107.8     331.688,92.126   " fill="#6B7687"/>
	</g>
</g>
<g>
	<g>
		<path d="M475.196,262.207h-18.13v-37.682c0-25.236-20.534-45.781-45.781-45.781h-48.247v15.675v15.675v141.898v15.675v15.675    h9.018c6.667,21.15,26.469,36.533,49.793,36.533c23.334,0,43.126-15.382,49.793-36.533H512v-84.341    C512,278.707,495.489,262.207,475.196,262.207z M421.849,388.525c-11.495,0-20.847-9.353-20.847-20.858    c0-11.495,9.353-20.847,20.847-20.847s20.847,9.353,20.847,20.847C442.697,379.172,433.344,388.525,421.849,388.525z" fill="#6B7687"/>
	</g>
</g>
<g>
</g>
<g>
</g>
<g>
</g>
<g>
</g>
<g>
</g>
<g>
</g>
<g>
</g>
<g>
</g>
<g>
</g>
<g>
</g>
<g>
</g>
<g>
</g>
<g>
</g>
<g>
</g>
<g>
</g>
</svg>
