<?xml version="1.0" encoding="iso-8859-1"?>
<!-- Generator: Adobe Illustrator 19.0.0, SVG Export Plug-In . SVG Version: 6.00 Build 0)  -->
<svg xmlns="http://www.w3.org/2000/svg" xmlns:xlink="http://www.w3.org/1999/xlink" version="1.1" id="Layer_1" x="0px" y="0px" viewBox="0 0 512.004 512.004" style="enable-background:new 0 0 512.004 512.004;" xml:space="preserve" width="512px" height="512px">
<g>
	<g>
		<path d="M258.042,280.056c-49.528,0-89.824,40.296-89.824,89.824s40.296,89.824,89.824,89.824    c49.532,0,89.828-40.296,89.828-89.824S307.574,280.056,258.042,280.056z M258.046,419.828c-27.544,0-49.952-22.408-49.952-49.948    c0-27.54,22.412-49.948,49.952-49.948s49.948,22.408,49.948,49.948C307.994,397.42,285.586,419.828,258.046,419.828z" fill="#6B7687"/>
	</g>
</g>
<g>
	<g>
		<path d="M439.938,232.88c0.016-0.208,0.064-0.412,0.064-0.624v-4.128c0-4.412-3.584-8.124-7.992-8.124h-32    c-4.412-0.004-8.008,3.712-8.008,8.12V232h-40.896l-14.264-32.212C331.418,188.624,317.442,180,305.03,180h-5.028v-12.928    c16-3.648,28-17.968,28-35.072v-4h12.008c11.028,0,19.992-8.972,19.992-20V20c0-11.028-8.964-20-19.992-20h-168    c-11.028,0-20.008,8.972-20.008,20v88c0,11.028,8.98,20,20.008,20h11.992v4c0,17.1,12,31.42,28,35.072V180h-5.016    c-12.416,0-26.384,8.624-31.872,19.92l-14.2,32.08h-12.912v-12c0-2.212-1.656-4-3.868-4H79.886c-2.212,0-3.884,1.788-3.884,4    v12.372c-16,1.184-28,14.2-28,30.068v219.38c0,16.644,13.548,30.184,30.188,30.184h355.636c16.644,0,30.176-13.54,30.176-30.184    V262.436C464.002,247.892,453.658,235.72,439.938,232.88z M180.002,28h152v28h-152V28z M180.002,100V72h152v28H180.002z     M204.002,212c0-2.212,1.788-4,4-4h96c2.212,0,4,1.788,4,4v16c0,2.212-1.788,4-4,4h-96c-2.212,0-4-1.788-4-4V212z M92.374,296    c-11.228,0-20.364-9.136-20.364-20.364s9.136-20.364,20.364-20.364c11.228,0,20.364,9.136,20.364,20.364    C112.738,286.864,103.598,296,92.374,296z M118.554,312.364c-5.812,0-10.544-4.732-10.544-10.548    c0-5.808,4.732-10.544,10.544-10.544c5.816,0,10.548,4.736,10.548,10.544C129.098,307.632,124.37,312.364,118.554,312.364z     M257.378,485.072c-63.148,0-114.524-51.376-114.524-114.524s51.376-114.524,114.524-114.524S371.902,307.4,371.902,370.548    S320.526,485.072,257.378,485.072z" fill="#6B7687"/>
	</g>
</g>
<g>
</g>
<g>
</g>
<g>
</g>
<g>
</g>
<g>
</g>
<g>
</g>
<g>
</g>
<g>
</g>
<g>
</g>
<g>
</g>
<g>
</g>
<g>
</g>
<g>
</g>
<g>
</g>
<g>
</g>
</svg>
