<?xml version="1.0" encoding="iso-8859-1"?>
<!-- Generator: Adobe Illustrator 19.0.0, SVG Export Plug-In . SVG Version: 6.00 Build 0)  -->
<svg xmlns="http://www.w3.org/2000/svg" xmlns:xlink="http://www.w3.org/1999/xlink" version="1.1" id="Layer_1" x="0px" y="0px" viewBox="0 0 512 512" style="enable-background:new 0 0 512 512;" xml:space="preserve" width="512px" height="512px">
<g>
	<g>
		<circle cx="346.556" cy="121.786" r="53.971" fill="#6B7687"/>
	</g>
</g>
<g>
	<g>
		<path d="M505.851,181.359c-13.231-14.147-40.159-6.691-61.656,13.417c-14.05,13.141-26.136,32.688-23.211,49.025    c-1.335,0.901-0.349,0.058-15.479,14.616c-2.263-0.729-4.671-1.139-7.172-1.173l-78.4-1.042l-17.057-28.407    c8.227-14.78,5.262-33.79-8.042-45.285l-46.94-40.557c-16.07-13.886-40.608-11.142-53.204,5.986L87.762,293.333    c-10.542,14.334-6.962,34.65,8.009,44.473c2.787,3.991-0.023,1.072,51.571,47.162l-117.799-0.814    c-0.069,0-0.138-0.001-0.207-0.001c-16.109,0-29.225,13.005-29.336,29.139c-0.112,16.205,12.934,29.43,29.138,29.543    l195.489,1.349c0.068,0,0.135,0.001,0.204,0.001c12.123-0.001,23.009-7.461,27.375-18.787c4.392-11.388,1.274-24.305-7.829-32.436    l-46.956-41.947l5.447-6.305l-6.493-5.02c-12.018-9.292-16.123-25.049-11.271-38.619l36.13-100.641L210.44,303.72    c-0.881,8.424,2.662,16.704,9.362,21.884l72.806,56.294c10.689,8.262,26.042,6.292,34.3-4.388    c8.26-10.682,6.296-26.04-4.386-34.299l-62.028-47.96l9.378-89.74c1.248,9.088,8.895,64.803,9.949,72.483l34.975,27.042    l41.795,0.555c-4.086,4.884-3.923,12.164,0.593,16.858c4.842,5.031,12.841,5.182,17.868,0.345l17.383-16.726l5.252,0.069    c0.112,0.001,0.22,0.002,0.332,0.002c13.352,0,24.264-10.734,24.441-24.127c0.02-1.531-0.119-3.025-0.368-4.483    c15.871-15.271,15.075-14.399,16.03-15.663c17,4.083,37.305-7.801,50.229-19.89C509.475,222.221,519.285,195.718,505.851,181.359z     M474.763,227.455c-15.869,14.843-30.974,17.108-33.547,14.356c-2.533-2.704,0.515-17.501,16.565-32.511    c15.527-14.526,30.835-17.257,33.545-14.356C493.906,197.698,490.702,212.549,474.763,227.455z" fill="#6B7687"/>
	</g>
</g>
<g>
</g>
<g>
</g>
<g>
</g>
<g>
</g>
<g>
</g>
<g>
</g>
<g>
</g>
<g>
</g>
<g>
</g>
<g>
</g>
<g>
</g>
<g>
</g>
<g>
</g>
<g>
</g>
<g>
</g>
</svg>
