<?xml version="1.0" encoding="iso-8859-1"?>
<!-- Generator: Adobe Illustrator 19.0.0, SVG Export Plug-In . SVG Version: 6.00 Build 0)  -->
<svg xmlns="http://www.w3.org/2000/svg" xmlns:xlink="http://www.w3.org/1999/xlink" version="1.1" id="Layer_1" x="0px" y="0px" viewBox="0 0 512.001 512.001" style="enable-background:new 0 0 512.001 512.001;" xml:space="preserve" width="512px" height="512px">
<g>
	<g>
		<circle cx="226.633" cy="98.633" r="39.328" fill="#6B7687"/>
	</g>
</g>
<g>
	<g>
		<path d="M289.959,242.55c-12.421-5.407-20.868-9.086-33.565-14.614c-3.235-1.411-7.008,0.071-8.42,3.31l-0.746,1.713    c-36.457-13.082-20.753-7.447-57.647-20.686l-16.24-65.796l28.162,51.9l9.167,3.289l8.088-12.25    c8.084-12.246,4.711-28.725-7.534-36.81l-39.54-26.104c-12.246-8.084-28.725-4.711-36.81,7.534    c-2.411,3.653-51.729,78.698-68.977,104.945c-3.837,5.839-5.897,12.686-5.893,19.673c0.014,20.255,0.104,64.933,0.597,95.963    L5.107,418.302c-7.53,8.642-6.63,21.753,2.012,29.284c8.643,7.532,21.754,6.629,29.285-2.012l60.721-69.683    c3.365-3.863,5.183-8.833,5.105-13.956l-1.34-86.993l6.036,3.985l37.1,55.662l-14.054,94.288    c-1.69,11.338,6.131,21.898,17.469,23.588c11.334,1.691,21.899-6.129,23.589-17.469l15.233-102.202    c0.758-5.093-0.402-10.286-3.258-14.571l-24.76-37.149l12.815-19.411l-8.286-2.974c-15.551-5.58-22.517-20.27-22.61-28.409    l-0.828-72.85l17.933,72.654c1.433,5.803,5.675,10.489,11.282,12.502l64.41,23.112l-0.777,1.784    c-1.413,3.245,0.078,7.013,3.31,8.421c16.134,7.029,17.2,7.494,33.566,14.624c3.217,1.403,7-0.05,8.42-3.309l15.789-36.249    C294.681,247.736,293.199,243.961,289.959,242.55z M259.258,272.302L247.088,267c7.308-2.309,12.607-9.138,12.607-17.21    c0-2.522-0.522-4.919-1.458-7.096l11.701,5.095L259.258,272.302z" fill="#6B7687"/>
	</g>
</g>
<g>
	<g>
		<path d="M505.083,307.328H390.299l5.591-12.848c1.026-2.358-0.054-5.101-2.41-6.127l-82.966-36.138    c-1.132-0.493-2.415-0.516-3.564-0.065c-1.149,0.452-2.072,1.342-2.565,2.474l-15.121,34.723c-0.569,1.307-0.509,2.803,0.165,4.06    c0.674,1.256,1.886,2.135,3.29,2.384l1.467,0.26c1.35,0.24,2.736-0.127,3.789-1.003l4.361-3.623    c0.133-0.11,0.311-0.146,0.476-0.096c0.164,0.05,0.292,0.181,0.341,0.347l1.641,5.664c0.044,0.152,0.155,0.274,0.301,0.332    c0.147,0.058,0.312,0.046,0.448-0.035l4.251-2.496c0.223-0.13,0.508-0.075,0.665,0.129l2.943,3.84    c0.084,0.108,0.206,0.18,0.342,0.196c0.136,0.017,0.272-0.021,0.379-0.105l8.153-6.417c0.139-0.109,0.325-0.139,0.491-0.078    c0.166,0.06,0.289,0.203,0.326,0.376l1.601,7.679c0.035,0.167,0.151,0.306,0.309,0.369c0.158,0.064,0.338,0.045,0.479-0.051    l3.512-2.384c0.115-0.078,0.255-0.106,0.39-0.078c0.135,0.028,0.253,0.109,0.328,0.226l2.236,3.509    c0.077,0.12,0.201,0.204,0.342,0.229c0.142,0.025,0.287-0.011,0.4-0.098l6.388-4.918c0.135-0.104,0.311-0.134,0.473-0.08    c0.161,0.054,0.284,0.183,0.331,0.347l1.091,3.875c0.484,1.719,1.908,3.009,3.666,3.323l12.9,2.297H247.629    c-3.82,0-6.918,3.097-6.918,6.918v29.915c0,3.82,3.097,6.918,6.918,6.918h73.132l-31.264,88.111    c-1.869,5.267,0.884,11.052,6.152,12.921c5.27,1.869,11.053-0.889,12.921-6.152l33.665-94.879h67.78l33.667,94.879    c1.868,5.266,7.651,8.022,12.921,6.152c5.267-1.868,8.021-7.654,6.152-12.921l-31.264-88.111h73.593    c3.82,0,6.918-3.097,6.918-6.918v-29.915C512,310.425,508.903,307.328,505.083,307.328z" fill="#6B7687"/>
	</g>
</g>
<g>
</g>
<g>
</g>
<g>
</g>
<g>
</g>
<g>
</g>
<g>
</g>
<g>
</g>
<g>
</g>
<g>
</g>
<g>
</g>
<g>
</g>
<g>
</g>
<g>
</g>
<g>
</g>
<g>
</g>
</svg>
