<?xml version="1.0" encoding="iso-8859-1"?>
<!-- Generator: Adobe Illustrator 18.0.0, SVG Export Plug-In . SVG Version: 6.00 Build 0)  -->
<!DOCTYPE svg PUBLIC "-//W3C//DTD SVG 1.1//EN" "http://www.w3.org/Graphics/SVG/1.1/DTD/svg11.dtd">
<svg xmlns="http://www.w3.org/2000/svg" xmlns:xlink="http://www.w3.org/1999/xlink" version="1.1" id="Capa_1" x="0px" y="0px" viewBox="0 0 459.836 459.836" style="enable-background:new 0 0 459.836 459.836;" xml:space="preserve" width="512px" height="512px">
<g id="XMLID_861_">
	<path id="XMLID_883_" d="M106.973,72.286c8.677-8.441,21.78-11.592,33.834-6.984c1.177,0.45,2.306,0.968,3.397,1.536   c8.639-6.867,14.184-17.459,14.184-29.353C158.388,16.783,141.606,0,120.903,0c-20.702,0-37.485,16.783-37.485,37.485   C83.418,53.264,93.171,66.755,106.973,72.286z" fill="#6B7687"/>
	<path id="XMLID_932_" d="M141.967,244.279c-16.285,6.965-35.135-0.585-42.104-16.875c-1.187-2.776-1.943-5.626-2.315-8.479   c-9.289,0.956-18.336-2.171-24.992-8.294l0.008,227.501c0,11.987,9.717,21.704,21.704,21.704s21.704-9.717,21.704-21.704V264.649   h9.371v173.483c0,11.987,9.717,21.704,21.704,21.704s21.704-9.717,21.704-21.704l-0.393-205.142L141.967,244.279z" fill="#6B7687"/>
	<path id="XMLID_933_" d="M97.414,204.838c6.259-1.105,11.479-5.415,13.749-11.352l35.084-91.766   c3.566-9.331-1.105-19.786-10.436-23.353c-9.328-3.567-19.786,1.104-23.354,10.435l-24.137,63.134l-18.502-23.74l15.311-0.705   L98.63,91.318H72.481c-13.457,0-26.158,6.702-33.325,17.03c-6.61,9.525-8.09,21.181-4.058,31.977   c3.706,9.944,38.534,50.519,45.511,58.557C84.823,203.737,91.229,205.932,97.414,204.838z" fill="#6B7687"/>
	<path id="XMLID_965_" d="M212.101,133.854c-0.146-23.459-19.335-42.536-42.801-42.536h-8.115c0.63,5.046,0.07,10.315-1.873,15.396   c-3.271,8.557-24.294,63.543-27.595,72.18l36.643-15.674v-29.085c0-2.086,1.687-3.778,3.773-3.785   c2.086-0.007,3.784,1.675,3.797,3.762c0.092,14.478,0.165,26.051,0.26,40.972c-6.344,2.714-48.499,20.746-53.949,23.077   c-8.776,3.754-12.818,13.49-10.157,22.006c3.227,10.306,14.587,15.444,24.384,11.253l64.999-27.804   c6.694-2.864,11.02-9.463,10.974-16.744c-0.23-36.214-0.106-16.77-0.336-52.99C212.103,133.873,212.101,133.864,212.101,133.854z" fill="#6B7687"/>
	<circle id="XMLID_1024_" cx="334.312" cy="38.284" r="37.808" fill="#6B7687"/>
	<path id="XMLID_1037_" d="M426.296,131.098c-0.118-23.685-19.485-42.955-43.17-42.955h-18.698l-22.614,59.08l5.332-25.116   c0.374-1.764,0.102-3.603-0.766-5.183l-7.322-13.316l6.51-11.839c0.451-0.821,0.436-1.819-0.041-2.626   c-0.477-0.807-1.344-1.301-2.281-1.301h-17.866c-0.937,0-1.804,0.495-2.281,1.301c-0.477,0.806-0.493,1.805-0.041,2.626   l6.509,11.839l-7.349,13.366c-0.852,1.55-1.131,3.351-0.786,5.086l4.662,25.164l-22.38-59.08h-18.522   c-23.685,0-43.051,19.269-43.171,42.955l-0.673,134.021c-0.051,10.075,8.076,18.284,18.151,18.334   c0.031,0.001,0.062,0.001,0.094,0.001c10.032-0.001,18.19-8.107,18.24-18.151l0.673-134.021c0.01-1.943,1.59-3.51,3.532-3.505   c1.942,0.005,3.513,1.581,3.513,3.523l0.009,306.646c0,12.09,9.801,21.891,21.891,21.891s21.891-9.801,21.891-21.891V267.694   c0-2.61,2.116-4.726,4.726-4.726c2.61,0,4.726,2.116,4.726,4.726v170.252c0,12.09,9.801,21.891,21.891,21.891   s21.891-9.801,21.891-21.891l-0.397-307.436c0-2.119,1.718-3.837,3.837-3.837c2.119,0,3.837,1.718,3.837,3.837   c0,0.247-0.013,0.504-0.039,0.772l0.673,134.021c0.05,10.044,8.207,18.151,18.24,18.151c0.031,0,0.063,0,0.094-0.001   c10.075-0.05,18.201-8.259,18.151-18.334L426.296,131.098z" fill="#6B7687"/>
</g>
<g>
</g>
<g>
</g>
<g>
</g>
<g>
</g>
<g>
</g>
<g>
</g>
<g>
</g>
<g>
</g>
<g>
</g>
<g>
</g>
<g>
</g>
<g>
</g>
<g>
</g>
<g>
</g>
<g>
</g>
</svg>
