<?xml version="1.0" encoding="iso-8859-1"?>
<!-- Generator: Adobe Illustrator 18.0.0, SVG Export Plug-In . SVG Version: 6.00 Build 0)  -->
<!DOCTYPE svg PUBLIC "-//W3C//DTD SVG 1.1//EN" "http://www.w3.org/Graphics/SVG/1.1/DTD/svg11.dtd">
<svg xmlns="http://www.w3.org/2000/svg" xmlns:xlink="http://www.w3.org/1999/xlink" version="1.1" id="Capa_1" x="0px" y="0px" viewBox="0 0 454.231 454.231" style="enable-background:new 0 0 454.231 454.231;" xml:space="preserve" width="512px" height="512px">
<g id="XMLID_238_">
	<circle id="XMLID_245_" cx="239.971" cy="40.832" r="36.243" fill="#6B7687"/>
	<path id="XMLID_1285_" d="M291.289,308.145v2.323c1.186-0.022,2.364,0.027,3.524,0.151l37.269,4.105v-19.422   c0-2.607-1.389-4.884-3.463-6.149c-2.698,10.892-12.552,18.991-24.265,18.991H291.289z" fill="#6B7687"/>
	<path id="XMLID_1286_" d="M185.954,233.568l0.52-103.59c0.01-1.863,1.524-3.365,3.385-3.36c1.862,0.005,3.368,1.516,3.368,3.377   l0.003,109.104c4.848,5.062,7.773,11.722,8.035,19.047c55.047,0,30.015,0,84.929,0c-0.029-3.807-0.071-6.64-0.115-11.872   l-22.213-13.538c-13.698-8.348-18.034-26.22-9.686-39.917c6.752-11.078,19.732-16.029,31.696-13.103   c-0.013-13.622-0.021-29.96-0.023-49.664c0-2.007,1.616-3.64,3.624-3.66c2.007-0.02,3.656,1.581,3.695,3.589l0.265,52.773   c1,0.575-3.188-1.966,35.083,21.359l-0.374-74.309c-0.114-22.704-18.679-41.175-41.384-41.175h-18.418   c-2.291,5.985-18.727,50.215-21.184,56.634l5.111-24.077c0.359-1.691,0.098-3.454-0.734-4.969l-7.019-12.765l6.24-11.059   c0.433-0.787,0.418-1.744-0.039-2.517s-1.289-1.247-2.187-1.247h-17.126c-0.898,0-1.729,0.474-2.187,1.247s-0.472,1.73-0.039,2.517   l6.24,11.059l-7.045,12.813c-0.817,1.486-1.084,3.212-0.754,4.875l4.469,24.123c-2.232-5.723-18.071-50.415-20.497-56.634h-18.712   c-22.705,0-41.27,18.471-41.384,41.176l-0.51,101.595l19.452-1.212C176.034,229.837,181.354,231.1,185.954,233.568z" fill="#6B7687"/>
	<path id="XMLID_1287_" d="M272.146,364.891v-2.524c-3.832-8.524-2.635-5.862-5.723-12.73c-4.874-10.841-2.222-23.149,5.723-31.075   v-10.417h-20.03v98.895h17c6.619,0,12.641,2.591,17.118,6.805v-20.14l-3.465-7.708C276.331,381.19,272.146,373.525,272.146,364.891   z" fill="#6B7687"/>
	<rect id="XMLID_1340_" x="193.233" y="308.145" width="8.884" height="98.895" fill="#6B7687"/>
	<path id="XMLID_1342_" d="M305.612,258.177l-11.831-7.211l0.036,7.179C304.791,258.145,304.612,258.127,305.612,258.177z" fill="#6B7687"/>
	<circle id="XMLID_1353_" cx="72.623" cy="141.854" r="34.701" fill="#6B7687"/>
	<circle id="XMLID_1355_" cx="381.609" cy="144.467" r="33.562" fill="#6B7687"/>
	<path id="XMLID_1358_" d="M443.192,212.604c-6.097,0-11.039,4.942-11.039,11.039v109.963h-18.068l7.685-116.711   c0.785-11.929-8.245-22.237-20.173-23.029l-38.54-2.557c-10.53-0.699-19.796,6.255-22.374,16.099l31.418-5.659l-42.665,19.926   l-42.896-26.144c-6.849-4.174-15.784-2.006-19.958,4.843c-4.175,6.849-2.006,15.784,4.843,19.958l49.545,30.196   c2.312,1.409,4.931,2.122,7.559,2.122c2.093,0,4.191-0.452,6.145-1.364l49.719-23.221c-47.209,39.412-44.645,37.643-48.073,39.167   l-3.159,47.61l36.104,3.977l-73.397,5.608c-5.66,0.433-10.755,3.595-13.654,8.476s-3.24,10.868-0.912,16.046l40.643,90.406   c3.951,8.789,14.273,12.692,23.04,8.749c8.778-3.946,12.695-14.262,8.749-23.04l-30.469-67.775   c27.416-2.095,3.517-1.606,108.89-1.606v21.398h-71.561v-20.47l-20.03,5.377c11.18,24.869,14.294,31.797,20.03,44.556v-7.385   h71.561v32.878c0,6.097,4.942,11.039,11.039,11.039s11.039-4.942,11.039-11.039v-87.394V223.644   C454.231,217.547,449.289,212.604,443.192,212.604z" fill="#6B7687"/>
	<path id="XMLID_1359_" d="M269.116,422.04L269.116,422.04h-32V293.145h67.237h0c5.521,0,10-4.476,10-10c0-5.525-4.479-10-10-10h0   c-3.887,0-124.895,0-128.154,0c6.442-1.815,10.977-7.923,10.543-14.874c-0.499-8.005-7.393-14.103-15.397-13.591l-50.138,3.125   l-28.452-37.523l22.731,17.762l-1.272-19.175c-0.792-11.932-11.107-20.964-23.039-20.172l-38.53,2.556   c-11.932,0.792-20.964,11.107-20.172,23.039l6.698,100.961c-0.625,7.213,3.29,14.549,11.041,17.741H22.078V223.031   c0-6.097-4.942-11.039-11.039-11.039S0,216.934,0,223.031c0,1.389,0,202.913,0,209.181c0,6.097,4.942,11.039,11.039,11.039   s11.039-4.942,11.039-11.039v-33.05h43.8l20.034-22.078H22.078v-22.011c11.154,0,73.713,0,81.742,0l15.119,6.227l-49.935,55.029   c-6.468,7.127-5.934,18.149,1.194,24.617c7.139,6.477,18.159,5.922,24.616-1.195l66.609-73.405   c3.815-4.204,5.344-10.003,4.096-15.542c-1.248-5.538-5.115-10.122-10.364-12.283L87.09,310.488l34.339,7.129l39.001,8.097   c3.286,0.682,6.316,1.919,9.011,3.592l-3.88-16.536c-1.811-7.715-8.754-13.445-16.966-13.445h-16.111h-12.268l-0.516-7.775   c-3.994,0.249-2.111,0.132-9.622,0.6c-8.381,0.522-15.845-4.466-18.881-11.818l-21.584-52.5l33.156,43.725   c2.968,3.914,7.677,6.023,12.476,5.72l29.937-1.866c-2.235,1.834-3.662,4.617-3.662,7.733c0,2.666,1.05,5.082,2.75,6.874l0,0   c1.822,1.921,4.393,3.126,7.25,3.126h0h65.597V422.04h-25.915l-3.52-15l-9.269-39.499c-1.833,2.963-0.481,1.225-28.315,31.898   l7.646,32.582c2.19,9.332,11.574,15.186,20.947,12.984c2.528-0.593,4.785-1.722,6.707-3.219c1.835,0.415-5.191,0.253,83.718,0.253   h0c5.521,0,10-4.476,10-10C279.116,426.515,274.637,422.04,269.116,422.04z" fill="#6B7687"/>
</g>
<g>
</g>
<g>
</g>
<g>
</g>
<g>
</g>
<g>
</g>
<g>
</g>
<g>
</g>
<g>
</g>
<g>
</g>
<g>
</g>
<g>
</g>
<g>
</g>
<g>
</g>
<g>
</g>
<g>
</g>
</svg>
