<?xml version="1.0" encoding="iso-8859-1"?>
<!-- Generator: Adobe Illustrator 18.0.0, SVG Export Plug-In . SVG Version: 6.00 Build 0)  -->
<!DOCTYPE svg PUBLIC "-//W3C//DTD SVG 1.1//EN" "http://www.w3.org/Graphics/SVG/1.1/DTD/svg11.dtd">
<svg xmlns="http://www.w3.org/2000/svg" xmlns:xlink="http://www.w3.org/1999/xlink" version="1.1" id="Capa_1" x="0px" y="0px" viewBox="0 0 460.713 460.713" style="enable-background:new 0 0 460.713 460.713;" xml:space="preserve" width="512px" height="512px">
<g id="XMLID_241_">
	<path id="XMLID_244_" d="M344.09,407.04l0.085,30.218c0.037,12.968,10.56,23.455,23.52,23.455c0.022,0,0.046,0,0.068,0   c12.991-0.037,23.492-10.598,23.455-23.588l-0.085-30.085H344.09z" fill="#6B7687"/>
	<path id="XMLID_1025_" d="M286.488,401.022l-0.003,36.167c-0.001,12.991,10.529,23.522,23.52,23.523c0.001,0,0.001,0,0.002,0   c12.989,0,23.521-10.53,23.521-23.52l0.002-30.154h-29.941C297.124,407.04,291.178,404.783,286.488,401.022z" fill="#6B7687"/>
	<circle id="XMLID_1026_" cx="91.124" cy="40.624" r="40.624" fill="#6B7687"/>
	<path id="XMLID_1027_" d="M192.368,165.43l-61.55-7.221l-40.252-39.995l38.18,20.017l14.077,1.651v-17.387   c0-15.156-12.286-27.443-27.443-27.443H66.441c-15.156,0-27.443,12.287-27.443,27.443l-0.483,314.63   c-0.037,12.99,10.464,23.551,23.455,23.588c0.023,0,0.045,0,0.068,0c12.959,0,23.483-10.487,23.52-23.455l0.492-173.897   c0-0.022-0.001-0.044-0.001-0.066h10.144l0.013,173.899c0.001,12.99,10.533,23.521,23.523,23.52   c12.99-0.001,23.521-10.533,23.52-23.523c-0.016-209.227-0.427-218.365-0.427-218.365l-25.583-3.001   c-7.824-0.918-17.436-0.732-23.064-11.127l-31.242-58.674l45.057,44.77c3.113,3.093,7.174,5.052,11.532,5.563l68.277,8.01   c10.763,1.261,20.491-6.442,21.751-17.184C210.813,176.43,203.12,166.691,192.368,165.43z" fill="#6B7687"/>
	<circle id="XMLID_1028_" cx="338.61" cy="40.624" r="40.624" fill="#6B7687"/>
	<path id="XMLID_1031_" d="M411.805,301.04h-20.546c0-12.415,0-14.571,0-29.04c0-5.523-4.477-10-10-10h-3.113   c1.118-6.961,8.603-53.567,9.796-60.998c0.521-3.24,0.219-6.558-0.876-9.651l-23.209-65.535l1.393,2.07l25.486,37.881v-43.272   c0-15.156-12.287-27.443-27.443-27.443h-48.939c-15.156,0-27.443,12.287-27.443,27.443v6.973l-62.828,35.914   c4.049,7.041,5.955,15.396,4.936,24.083c-1.298,11.068-7.095,20.507-15.342,26.726c0.96-0.363,1.906-0.796,2.826-1.321   l70.407-40.247l-0.415,115.427c8.253-6.611,16.414-6.01,20.638-6.01V272c0-10.578,6.193-20.022,15.503-24.423l8.934-55.628   l-3.581-40.807l-1.086-12.237l21.539,60.819c-1.038,6.461-8.841,55.048-10.001,62.276h-4.307c-5.523,0-10,4.477-10,10   c0,14.346,0,16.709,0,29.04h-20.545c-5.74,0-10.392,4.653-10.392,10.392v68.215c0,5.74,4.653,10.392,10.392,10.392h108.215   c5.74,0,10.392-4.653,10.392-10.392v-68.215C422.197,305.693,417.544,301.04,411.805,301.04z M354.141,287.858   c1.053,0.169,2.099,0.251,3.132,0.251c4.406,0,8.556-1.504,11.899-4.07h2.086v17h-27.124v-17h1.155   C347.793,285.97,350.8,287.322,354.141,287.858z" fill="#6B7687"/>
</g>
<g>
</g>
<g>
</g>
<g>
</g>
<g>
</g>
<g>
</g>
<g>
</g>
<g>
</g>
<g>
</g>
<g>
</g>
<g>
</g>
<g>
</g>
<g>
</g>
<g>
</g>
<g>
</g>
<g>
</g>
</svg>
