<?xml version="1.0" encoding="iso-8859-1"?>
<!-- Generator: Adobe Illustrator 18.0.0, SVG Export Plug-In . SVG Version: 6.00 Build 0)  -->
<!DOCTYPE svg PUBLIC "-//W3C//DTD SVG 1.1//EN" "http://www.w3.org/Graphics/SVG/1.1/DTD/svg11.dtd">
<svg xmlns="http://www.w3.org/2000/svg" xmlns:xlink="http://www.w3.org/1999/xlink" version="1.1" id="Capa_1" x="0px" y="0px" viewBox="0 0 460.1 460.1" style="enable-background:new 0 0 460.1 460.1;" xml:space="preserve" width="512px" height="512px">
<g id="XMLID_232_">
	<circle id="XMLID_512_" cx="330.895" cy="37.9" r="37.866" fill="#6B7687"/>
	<path id="XMLID_530_" d="M419.601,296.24h-3.187v-16.493c4.53-3.422,7.31-8.807,7.281-14.663l-0.674-134.228   c-0.12-23.721-19.516-43.02-43.237-43.02h-19.243c-2.394,6.253-19.566,52.464-22.133,59.171l5.34-25.155   c0.375-1.766,0.103-3.609-0.767-5.191l-7.333-13.337l6.519-11.554c0.452-0.822,0.437-1.822-0.041-2.63s-1.346-1.303-2.285-1.303   h-17.894c-0.938,0-1.807,0.495-2.284,1.303c-0.478,0.808-0.493,1.808-0.041,2.63l6.519,11.554l-7.36,13.387   c-0.854,1.552-1.132,3.356-0.787,5.094l4.669,25.203c-2.332-5.98-18.881-52.673-21.415-59.171h-19.55   c-23.722,0-43.118,19.299-43.237,43.02l-0.674,134.228c-0.051,10.09,8.088,18.312,18.179,18.362c0.031,0,0.063,0,0.094,0   c10.047,0,18.218-8.12,18.269-18.179l0.674-134.228c0.01-1.946,1.592-3.516,3.537-3.511c1.945,0.005,3.518,1.583,3.518,3.528   l0.009,307.119c0,12.109,9.816,21.925,21.925,21.925s21.925-9.816,21.925-21.925V267.661c0-2.614,2.119-4.733,4.733-4.733   s4.733,2.119,4.733,4.733v170.514c0,12.109,9.816,21.925,21.925,21.925s21.925-9.816,21.925-21.925v-37.345   c-8.744-4.617-14.719-13.8-14.719-24.356v-72.705c0-10.557,5.976-19.739,14.719-24.356c0-34.255-0.386,0.76-0.397-148.298   c0-2.097,1.689-3.803,3.786-3.824s3.82,1.651,3.861,3.749l0.674,134.228c0.031,6.233,3.257,11.771,7.975,14.997v15.976h-3.089   c-4.158,0-7.529,3.371-7.529,7.529v72.705c0,4.158,3.371,7.529,7.529,7.529h27.561c4.158,0,7.529-3.371,7.529-7.529v-72.705   C427.131,299.611,423.76,296.24,419.601,296.24z" fill="#6B7687"/>
	<path id="XMLID_531_" d="M218.347,130.852c-0.101-20.019-13.936-36.887-32.511-41.658c-6.722-1.753-9.582-1.391-30.111-1.391   c-2.394,6.253-19.566,52.464-22.133,59.171l5.34-25.155c0.375-1.766,0.103-3.609-0.767-5.191l-7.333-13.337l6.519-11.554   c0.452-0.822,0.437-1.822-0.041-2.63s-1.346-1.303-2.285-1.303h-17.894c-0.938,0-1.807,0.495-2.284,1.303   c-0.478,0.808-0.493,1.808-0.041,2.63l6.519,11.554l-7.36,13.387c-0.854,1.552-1.132,3.356-0.787,5.094l4.669,25.203   c-2.332-5.98-18.881-52.673-21.415-59.171h-19.55c-22.99,0-41.915,18.125-43.171,40.835c-0.092,1.651-0.021-7.067-0.741,136.404   c-0.05,10.088,8.086,18.306,18.174,18.357c0.031,0,0.063,0,0.094,0c10.045,0,18.213-8.118,18.264-18.174l0.001-0.271   c0.341-57.483,0.499-99.382,0.506-100.771c0.004,0.002,0.007,0.004,0.011,0.006l0.167-33.184c0.01-1.946,1.592-3.516,3.537-3.511   c1.945,0.005,3.518,1.583,3.518,3.528l0.001,36.846c11.244-9.97,28.65-9.813,39.675,1.212l47.248,47.248   c11.322,11.322,11.323,29.648,0,40.971l-33.6,33.6v147.241c0,12.109,9.816,21.925,21.925,21.925s21.925-9.816,21.925-21.925   c0,0-0.386-158.003-0.397-307.061c0-2.097,1.689-3.803,3.786-3.824s3.82,1.651,3.861,3.749l1.108,134.286   c0.087,10.034,8.247,18.107,18.262,18.107c0.053,0,0.108,0,0.162-0.001c10.087-0.087,18.193-8.336,18.105-18.423l-0.62-71.375   L218.347,130.852z" fill="#6B7687"/>
	<circle id="XMLID_532_" cx="126.079" cy="37.866" r="37.866" fill="#6B7687"/>
	<path id="XMLID_533_" d="M77.247,329.498l0.003,108.644c0,12.109,9.816,21.925,21.925,21.925s21.925-9.816,21.925-21.925V300.367   l-20.766,20.766C94.312,327.154,86.017,330.274,77.247,329.498z" fill="#6B7687"/>
	<path id="XMLID_790_" d="M86.191,306.991l63.832-63.832c3.503-3.503,3.503-9.183,0-12.687l-47.248-47.248   c-3.503-3.503-9.183-3.503-12.687,0c0,0-0.151,8.457-0.588,82.102c-0.078,15.516-9.479,28.885-22.852,34.81l6.855,6.855   C77.008,310.494,82.688,310.494,86.191,306.991z" fill="#6B7687"/>
</g>
<g>
</g>
<g>
</g>
<g>
</g>
<g>
</g>
<g>
</g>
<g>
</g>
<g>
</g>
<g>
</g>
<g>
</g>
<g>
</g>
<g>
</g>
<g>
</g>
<g>
</g>
<g>
</g>
<g>
</g>
</svg>
