<?xml version="1.0" encoding="iso-8859-1"?>
<!-- Generator: Adobe Illustrator 19.0.0, SVG Export Plug-In . SVG Version: 6.00 Build 0)  -->
<svg xmlns="http://www.w3.org/2000/svg" xmlns:xlink="http://www.w3.org/1999/xlink" version="1.1" id="Layer_1" x="0px" y="0px" viewBox="0 0 465.606 465.606" style="enable-background:new 0 0 465.606 465.606;" xml:space="preserve" width="512px" height="512px">
<g>
	<path d="M394.258,372.679c-5.988,8.071-13.142,15.225-21.213,21.213l71.349,71.349l21.213-21.213L394.258,372.679z" fill="#6B7687"/>
	<path d="M312.674,210.775c22.96,0,44.161,7.665,61.189,20.564V55.366H248.391v-55H125.473v55H0v273.617h212.518   c-0.901-5.427-1.377-10.996-1.377-16.675C211.141,256.323,256.688,210.775,312.674,210.775z M218.391,55.366h-62.918v-25h62.918   V55.366z" fill="#6B7687"/>
	<path d="M312.674,240.775c-39.443,0-71.533,32.09-71.533,71.533c0,39.443,32.09,71.533,71.533,71.533s71.533-32.09,71.533-71.533   C384.207,272.865,352.117,240.775,312.674,240.775z" fill="#6B7687"/>
</g>
<g>
</g>
<g>
</g>
<g>
</g>
<g>
</g>
<g>
</g>
<g>
</g>
<g>
</g>
<g>
</g>
<g>
</g>
<g>
</g>
<g>
</g>
<g>
</g>
<g>
</g>
<g>
</g>
<g>
</g>
</svg>
