<?xml version="1.0" encoding="iso-8859-1"?>
<!DOCTYPE svg PUBLIC "-//W3C//DTD SVG 1.1//EN" "http://www.w3.org/Graphics/SVG/1.1/DTD/svg11.dtd">
<svg xmlns="http://www.w3.org/2000/svg" xmlns:xlink="http://www.w3.org/1999/xlink" version="1.1" viewBox="0 0 297 297" enable-background="new 0 0 297 297" width="512px" height="512px">
  <g>
    <path d="M226.717,76c19.385,0,35.156-15.77,35.156-35.155c0-19.385-15.771-35.155-35.156-35.155   c-19.385,0-35.155,15.771-35.155,35.155C191.562,60.229,207.332,76,226.717,76z" fill="#6B7687"/>
    <path d="M70.295,76c19.385,0,35.155-15.77,35.155-35.155c0-19.385-15.771-35.155-35.155-35.155   C50.91,5.689,35.14,21.46,35.14,40.844C35.14,60.229,50.91,76,70.295,76z" fill="#6B7687"/>
    <path d="m285.579,177.951h-105.6c-6.448,10.652-18.146,17.787-31.479,17.787s-25.031-7.135-31.479-17.787h-105.6c-6.297,0-11.421,5.124-11.421,11.421v45.804c0,6.297 5.124,11.421 11.421,11.421h71.317v-4.181c0-15.695 10.005-29.576 24.895-34.54 0.06-0.02 0.119-0.039 0.179-0.058l10.229-3.138c1.776-0.543 3.691-0.435 5.393,0.308l25.065,10.94 25.065-10.94c1.703-0.745 3.617-0.851 5.393-0.308l10.229,3.138c0.06,0.019 0.119,0.038 0.179,0.058 14.891,4.964 24.895,18.845 24.895,34.54v4.181h71.317c6.297,0 11.421-5.124 11.421-11.421v-45.804c0.002-6.297-5.122-11.421-11.419-11.421z" fill="#6B7687"/>
    <path d="m112.019,163.503c-0.184-1.488-0.29-2.999-0.29-4.536 0-16.91 11.478-31.182 27.05-35.457v-1.069c0-13.378-8.597-25.241-21.31-29.406l-.059-.019-18.595-3.079c-1.583-0.487-3.274,0.351-3.843,1.912l-21.098,57.891c-1.217,3.34-5.94,3.34-7.158,0l-21.098-57.89c-0.46-1.261-1.649-2.051-2.925-2.051-0.302,0-19.513,3.214-19.513,3.214-12.817,4.271-21.381,16.153-21.381,29.589v42.764c2.976-1.198 6.222-1.863 9.621-1.863h100.599z" fill="#6B7687"/>
    <path d="m127.289,158.968c0,11.696 9.515,21.212 21.211,21.212s21.211-9.515 21.211-21.212-9.515-21.212-21.211-21.212-21.211,9.515-21.211,21.212z" fill="#6B7687"/>
    <path d="m184.528,222.664l-7.379-2.264-25.538,11.146c-1.984,0.866-4.239,0.866-6.223,0l-25.537-11.146-7.379,2.264c-8.482,2.866-14.174,10.792-14.174,19.752v39.538c0,5.168 4.189,9.357 9.357,9.357h81.691c5.168,0 9.357-4.189 9.357-9.357v-39.538c0-8.959-5.693-16.885-14.175-19.752z" fill="#6B7687"/>
    <path d="m185.271,158.968c0,1.536-0.106,3.048-0.29,4.536h100.598c3.4,0 6.645,0.666 9.621,1.863v-42.925c0-13.378-8.597-25.241-21.31-29.406l-.059-.019-18.595-3.079c-1.583-0.487-3.273,0.351-3.843,1.912l-21.098,57.889c-1.217,3.34-5.94,3.34-7.157,0l-21.098-57.889c-0.46-1.261-1.649-2.051-2.925-2.051-0.302,0-19.513,3.214-19.513,3.214-12.817,4.271-21.381,16.153-21.381,29.589v0.909c15.571,4.275 27.05,18.547 27.05,35.457z" fill="#6B7687"/>
    <path d="m78.239,88.253c-0.84-0.915-2.068-1.376-3.31-1.376h-9.266c-1.242,0-2.47,0.46-3.31,1.376-1.3,1.417-1.489,3.464-0.566,5.063l4.953,7.467-2.319,19.56 4.566,12.147c0.445,1.221 2.173,1.221 2.618,0l4.566-12.147-2.319-19.56 4.953-7.467c0.923-1.599 0.734-3.646-0.566-5.063z" fill="#6B7687"/>
    <path d="m234.66,88.253c-0.84-0.915-2.068-1.376-3.31-1.376h-9.266c-1.242,0-2.47,0.46-3.31,1.376-1.3,1.417-1.489,3.464-0.566,5.063l4.953,7.467-2.319,19.56 4.566,12.147c0.445,1.221 2.173,1.221 2.618,0l4.566-12.147-2.319-19.56 4.953-7.467c0.923-1.599 0.735-3.646-0.566-5.063z" fill="#6B7687"/>
  </g>
</svg>
