<?xml version="1.0" encoding="iso-8859-1"?>
<!DOCTYPE svg PUBLIC "-//W3C//DTD SVG 1.1//EN" "http://www.w3.org/Graphics/SVG/1.1/DTD/svg11.dtd">
<svg xmlns="http://www.w3.org/2000/svg" xmlns:xlink="http://www.w3.org/1999/xlink" version="1.1" viewBox="0 0 297 297" enable-background="new 0 0 297 297" width="512px" height="512px">
  <g>
    <path d="M72.466,69.319c19.112,0,34.66-15.548,34.66-34.66S91.578,0,72.466,0s-34.66,15.548-34.66,34.66   S53.354,69.319,72.466,69.319z" fill="#6B7687"/>
    <path d="m110.534,86.116l-.058-.019-9.892-3.035c-1.56-0.48-3.227,0.346-3.788,1.885l-20.802,57.073c-1.2,3.292-5.857,3.292-7.057,0l-20.8-57.074c-0.453-1.243-1.626-2.022-2.883-2.022-0.298,0-10.785,3.168-10.785,3.168-12.637,4.211-21.08,15.925-21.08,29.172v60.375c0,0.599 0.175,1.185 0.505,1.686l21.704,33.029v83.572c0,1.697 1.375,3.073 3.072,3.073h67.593c1.697,0 3.072-1.375 3.072-3.073v-83.572l21.704-33.029c0.329-0.501 0.505-1.087 0.505-1.686v-60.533c0-13.189-8.476-24.885-21.01-28.99z" fill="#6B7687"/>
    <path d="m250.713,49.558c-33.361-27.498-81.837-27.357-115.053,0.404l57.324,57.325 57.729-57.729z" fill="#6B7687"/>
    <path d="m263.493,62.415l-52.78,52.78 71.823,17.955c3.817-24.569-2.521-50.408-19.043-70.735z" fill="#6B7687"/>
    <path d="m186.836,125.885l-63.866-62.978c-3.447,4.301-6.434,8.848-8.979,13.571 16.635,5.576 27.793,21.061 27.793,38.629v60.536c0,2.596-0.76,5.135-2.185,7.305l-3.753,5.711c35.439,29.456 88.132,27.585 121.36-5.643 9.474-9.474 16.375-20.538 20.753-32.326l-86.769-22.339c-1.642-0.424-3.145-1.274-4.354-2.466z" fill="#6B7687"/>
    <path d="m80.753,80.185c-0.876-0.955-2.157-1.435-3.453-1.435h-9.666c-1.296,0-2.577,0.48-3.453,1.435-1.357,1.478-1.553,3.613-0.59,5.282l5.167,7.79-2.419,20.405 4.763,12.671c0.464,1.274 2.267,1.274 2.731,0l4.763-12.671-2.419-20.405 5.167-7.79c0.962-1.668 0.765-3.803-0.591-5.282z" fill="#6B7687"/>
  </g>
</svg>
