<?xml version="1.0" encoding="iso-8859-1"?>
<!DOCTYPE svg PUBLIC "-//W3C//DTD SVG 1.1//EN" "http://www.w3.org/Graphics/SVG/1.1/DTD/svg11.dtd">
<svg xmlns="http://www.w3.org/2000/svg" xmlns:xlink="http://www.w3.org/1999/xlink" version="1.1" viewBox="0 0 297 297" enable-background="new 0 0 297 297" width="512px" height="512px">
  <g>
    <path d="M148.51,117.216c32.317,0,58.608-26.291,58.608-58.608S180.827,0,148.51,0c-32.317,0-58.608,26.291-58.608,58.608   S116.193,117.216,148.51,117.216z" fill="#6B7687"/>
    <path d="m227.154,145.618c-0.025-0.008-0.073-0.026-0.098-0.032-7.631-1.864-30.999-5.133-30.999-5.133-2.638-0.812-5.457,0.585-6.406,3.188l-35.174,96.509c-2.029,5.567-9.903,5.567-11.932,0l-35.174-96.509c-0.766-2.102-2.75-3.42-4.876-3.42-0.504,0-24.531,3.369-32.53,5.358-21.858,5.435-35.645,26.929-35.645,49.329v80.302c0,12.034 9.756,21.79 21.79,21.79h184.782c12.034,0 21.79-9.756 21.79-21.79v-80.569c-0.001-22.303-14.328-42.096-35.528-49.023z" fill="#6B7687"/>
    <path d="m161.775,138.613c-1.404-1.53-3.456-2.299-5.532-2.299h-15.485c-2.076,0-4.129,0.77-5.532,2.299-2.173,2.368-2.489,5.789-0.946,8.462l8.278,12.479-3.875,32.69 7.631,20.3c0.744,2.042 3.631,2.042 4.375,0l7.631-20.3-3.875-32.69 8.278-12.479c1.541-2.673 1.225-6.094-0.948-8.462z" fill="#6B7687"/>
  </g>
</svg>
