<?xml version="1.0" encoding="iso-8859-1"?>
<!DOCTYPE svg PUBLIC "-//W3C//DTD SVG 1.1//EN" "http://www.w3.org/Graphics/SVG/1.1/DTD/svg11.dtd">
<svg xmlns="http://www.w3.org/2000/svg" xmlns:xlink="http://www.w3.org/1999/xlink" version="1.1" viewBox="0 0 316.456 316.456" enable-background="new 0 0 316.456 316.456" width="512px" height="512px">
  <g>
    <path d="m306.433,208.311l-163.867-50.408c-0.06,0.187-0.114,0.374-0.179,0.56-2.072,5.973-6.313,10.744-11.648,13.587l32.088,9.871-.924,67.702c-0.114,8.337 5.284,15.75 13.252,18.201l40.682,12.514c2.971-7.551 8.537-14.121 16.253-18.206 12.45-6.592 27.738-5.173 38.773,3.869l27.887-42.268 2.686,.826c4.46,1.377 9.237-1.118 10.623-5.625 1.379-4.486-1.139-9.243-5.626-10.623z" fill="#6B7687"/>
    <circle cx="248.563" cy="293.246" r="23.206" fill="#6B7687"/>
    <circle cx="88.041" cy="27.597" r="27.59" fill="#6B7687"/>
    <path d="m131.049,154.531c2.263-6.522-1.19-13.644-7.713-15.906l-40.851-14.171-9.53-36.921 17.79,27.085 4.78,1.658 7.191-26.466c2.699-9.933-3.166-20.174-13.099-22.873l-32.074-8.715c-9.933-2.699-20.174,3.166-22.873,13.099l-24.449,89.983c-1.722,3.805-1.869,8.3-0.003,12.401l20.548,45.137-25.971,77.864c-2.621,7.858 1.625,16.354 9.483,18.976 7.843,2.617 16.349-1.611 18.976-9.483l27.838-83.457c1.199-3.595 0.993-7.511-0.577-10.961l-15.108-33.189c-0.498-1.093-0.319-2.375 0.459-3.29 0.778-0.915 2.014-1.298 3.173-0.984 0.853,0.232 1.566,0.817 1.961,1.608l21.525,43.182v82.349c0,8.284 6.716,15 15,15s15-6.716 15-15v-85.88c0-2.322-0.539-4.613-1.575-6.691l-19.796-39.713 1.494-5.498-18.62-6.459c-10.51-3.646-15.936-13.595-16.071-19.759l1.481-41.004 10.516,40.74c1.047,4.054 4.052,7.314 8.007,8.686l47.183,16.367c6.516,2.259 13.642-1.189 15.905-7.715z" fill="#6B7687"/>
  </g>
</svg>
