<?xml version="1.0" encoding="iso-8859-1"?>
<!DOCTYPE svg PUBLIC "-//W3C//DTD SVG 1.1//EN" "http://www.w3.org/Graphics/SVG/1.1/DTD/svg11.dtd">
<svg xmlns="http://www.w3.org/2000/svg" xmlns:xlink="http://www.w3.org/1999/xlink" version="1.1" viewBox="0 0 314.758 314.758" enable-background="new 0 0 314.758 314.758" width="512px" height="512px">
  <g>
    <g>
      <circle cx="70.815" cy="25.907" r="25.907" fill="#6B7687"/>
      <path d="m187.741,248.33h-8.069v-124.899l1.328-.415c6.589-2.061 10.261-9.072 8.2-15.661-1.417-4.531-5.177-7.681-9.528-8.538v-30.036c0-4.694-3.806-8.5-8.5-8.5-4.694,0-8.5,3.806-8.5,8.5v33.772l-25.785,8.064c0,0-2.269-16.492-2.889-22.006-1.834-16.323-13.633-28.541-29.563-28.541h-67.239c-16.23,0-29.5,13.203-29.581,29.433l-.462,91.833c-0.034,6.903 5.533,12.527 12.438,12.563 0.021,0 0.042,0 0.063,0 6.874,0 12.464-5.555 12.499-12.438l.462-91.833c0-0.011 0-0.021 0-0.032 0.016-1.364 1.131-2.458 2.495-2.45 1.364,0.008 2.464,1.116 2.464,2.48l.005,210.131c0,8.284 6.716,15 15,15s15-6.716 15-15v-116.657c0-1.789 1.45-3.238 3.238-3.238 1.788,0 3.238,1.45 3.238,3.238v116.658c0,8.284 6.716,15 15,15s15-6.716 15-15c-0.005-28.551-0.272-210.564-0.272-210.564 0-1.188 0.842-2.209 2.008-2.434 1.166-0.226 2.513,0.349 2.773,1.508 0.728,3.258 0.077-0.732 5.47,40.343 0.48,3.659 2.553,6.919 5.663,8.906 2.032,1.299 4.371,1.967 6.731,1.967 1.251,0 2.509-0.188 3.729-0.569l32.513-10.168v119.583h-8.069c-7.914,0-14.33,6.416-14.33,14.33v20.13c0,5.709 2.449,11.144 6.726,14.925l15.61,13.8c4.89,4.323 12.235,4.323 17.125,0l15.61-13.8c4.277-3.781 6.727-9.216 6.727-14.925v-20.13c0.002-7.914-6.413-14.33-14.328-14.33z" fill="#6B7687"/>
    </g>
    <g>
      <path d="m219.88,314.758c-2.133,0-4.071-1.244-4.96-3.183-0.889-1.94-0.566-4.219 0.827-5.835l10.551-12.24c1.186-1.376 2.697-2.434 4.396-3.079l19.202-7.281c2.696-1.022 4.878-3.07 6.069-5.697l3.963-8.738c1.376-3.034 4.062-5.273 7.294-6.08l10.255-2.561c3.519-0.879 6.372-3.449 7.611-6.858l11.017-30.303 4.284-11.476c0.63-1.689 2.379-2.684 4.153-2.364 1.774,0.32 3.064,1.864 3.064,3.667v96.572c0,3.013-2.443,5.456-5.456,5.456h-82.27z" fill="#6B7687"/>
    </g>
  </g>
</svg>
