<?xml version="1.0" encoding="iso-8859-1"?>
<!DOCTYPE svg PUBLIC "-//W3C//DTD SVG 1.1//EN" "http://www.w3.org/Graphics/SVG/1.1/DTD/svg11.dtd">
<svg xmlns="http://www.w3.org/2000/svg" xmlns:xlink="http://www.w3.org/1999/xlink" version="1.1" viewBox="0 0 297.344 297.344" enable-background="new 0 0 297.344 297.344" width="512px" height="512px">
  <g>
    <path d="m288.844,256.296h-35.027v-23.999c6.979-1.861 11.833-5.929 11.833-10.662 0-6.488-9.104-11.747-20.333-11.747-11.23,0-20.333,5.26-20.333,11.747 0,4.732 4.854,8.801 11.833,10.662v23.999h-35.027c-4.694,0-8.5,3.806-8.5,8.5 0,4.694 3.806,8.5 8.5,8.5h87.055c4.694,0 8.5-3.806 8.5-8.5-0.001-4.694-3.807-8.5-8.501-8.5z" fill="#6B7687"/>
    <path d="m216.633,148.492l7.834,8.458c2.053,2.217 5.515,2.35 7.732,0.296l15.204-14.082c2.217-2.053 2.35-5.515 0.296-7.732l-7.834-8.458 1.956-1.812c3.443-3.19 3.649-8.568 0.46-12.013-3.192-3.443-8.568-3.65-12.013-0.46l-1.956,1.812-7.833-8.457c-2.053-2.217-5.515-2.35-7.732-0.296l-15.204,14.082c-2.217,2.053-2.35,5.515-0.296,7.732l7.833,8.457-21.108,19.551c3.841,5.777 5.204,13.113 3.211,20.199l29.45-27.277z" fill="#6B7687"/>
    <circle cx="142.128" cy="51.645" r="27.59" fill="#6B7687"/>
    <path d="m167.694,157.344l-40.851-14.171-8.859-34.319 17.118,24.482 8.813,3.057 6.638-17.386c3.672-9.616-1.147-20.388-10.764-24.06l-31.05-11.856c-12.397-3.85-20.69,2.078-24.06,10.763l-32.009,83.832c-0.975,2.887-1.995,5.149-1.422,8.983l8.692,56.623h-44.94c-8.284,0-15,6.716-15,15 0,8.284 6.716,15 15,15h62.421c4.376,0 8.533-1.911 11.383-5.231 2.85-3.32 4.107-7.72 3.443-12.045l-8.578-55.875 38.455,9.685-10.656,45.01c-1.908,8.061 3.079,16.143 11.141,18.053 8.045,1.906 16.141-3.067 18.053-11.141l14.063-59.399c0.912-3.851 0.238-7.704-1.585-10.892-33.384-11.58-22.171-7.691-44.754-15.525-10.51-3.646-15.936-13.595-16.071-19.759l2.225-38.122 9.772,37.858c1.047,4.054 4.052,7.314 8.007,8.686l47.183,16.367c6.517,2.261 13.643-1.187 15.906-7.713 2.262-6.522-1.191-13.643-7.714-15.905z" fill="#6B7687"/>
  </g>
</svg>
