<?xml version="1.0" encoding="iso-8859-1"?>
<!DOCTYPE svg PUBLIC "-//W3C//DTD SVG 1.1//EN" "http://www.w3.org/Graphics/SVG/1.1/DTD/svg11.dtd">
<svg xmlns="http://www.w3.org/2000/svg" xmlns:xlink="http://www.w3.org/1999/xlink" version="1.1" viewBox="0 0 316.455 316.455" enable-background="new 0 0 316.455 316.455" width="512px" height="512px">
  <g>
    <circle cx="88.383" cy="27.597" r="27.59" fill="#6B7687"/>
    <path d="M213.982,48.519c-16.389,6.1-29.385,19.17-35.378,35.611h35.378V48.519z" fill="#6B7687"/>
    <path d="m193.318,173.393c-7.514-4.556-14.215-10.317-19.858-17h-32.641c-0.161,0.613-0.338,1.225-0.55,1.834-2.524,7.277-8.261,12.78-15.287,15.166h68.336z" fill="#6B7687"/>
    <path d="m311.964,306.489l-20-114.393c-0.711-4.068-4.243-7.036-8.373-7.036h-95.463c-4.13,0-7.662,2.968-8.373,7.036l-20,114.393c-0.809,4.624 2.285,9.028 6.909,9.837 4.627,0.812 9.028-2.285 9.837-6.909l18.77-107.357h81.178l18.77,107.357c0.813,4.648 5.241,7.716 9.837,6.909 4.622-0.809 7.716-5.213 6.908-9.837z" fill="#6B7687"/>
    <path d="m142.036,216.308c3.963,2.619 9.298,1.529 11.917-2.433l9.619-14.555c1.38-2.094 1.324-4.929-0.339-6.981-2.055-2.537-5.778-2.927-8.314-0.871l-13.555,10.984c-0.653,0.535-1.27,1.199-1.761,1.94-2.62,3.962-1.53,9.297 2.433,11.916z" fill="#6B7687"/>
    <path d="m158.3,233.107c-2.826-1.634-6.442-0.668-8.076,2.159l-8.733,15.104c-0.419,0.733-0.758,1.574-0.951,2.441-1.029,4.637 1.896,9.23 6.533,10.259 4.637,1.029 9.23-1.896 10.259-6.533l3.78-17.032c0.541-2.449-0.525-5.076-2.812-6.398z" fill="#6B7687"/>
    <path d="m132.998,277.237c-0.183-2.501-1.957-4.713-4.526-5.325-3.176-0.756-6.364,1.205-7.12,4.381l-4.042,16.972c-0.192,0.823-0.276,1.725-0.212,2.612 0.342,4.737 4.459,8.301 9.197,7.959 4.738-0.342 8.301-4.459 7.959-9.197l-1.256-17.402z" fill="#6B7687"/>
    <path d="m234.859,172.988c37.693,0 68.358-30.665 68.358-68.358 0-37.693-30.665-68.359-68.358-68.359-0.166,0-0.329,0.004-0.52,0.011-4.634,0.077-8.357,3.855-8.357,8.499v51.35h-50.982c-4.694,0-8.5,3.806-8.5,8.5 0,37.692 30.666,68.357 68.359,68.357z" fill="#6B7687"/>
    <path d="m57.836,136.954c1.047,4.054 4.052,7.313 8.007,8.686l47.183,16.367c6.516,2.261 13.643-1.187 15.906-7.713 2.263-6.523-1.19-13.644-7.713-15.906l-40.851-14.171-9.514-36.858 17.773,27.021 7.087,2.458 7.344-27.029c2.699-9.933-3.166-20.174-13.099-22.873l-32.074-8.715c-9.933-2.699-20.174,3.166-22.873,13.099 0,0-16.567,68.05-24.45,89.989-1.412,3.929-1.866,8.297-0.001,12.395 5.136,11.284 20.547,45.137 20.547,45.137l-25.971,77.864c-2.621,7.858 1.625,16.354 9.483,18.976 1.574,0.525 3.175,0.774 4.748,0.774 6.279,0 12.132-3.974 14.227-10.258l27.837-83.456c1.199-3.595 0.993-7.511-0.577-10.961l-15.107-33.189c-0.498-1.093-0.319-2.375 0.459-3.29 0.778-0.915 2.014-1.299 3.174-0.984 0.853,0.232 1.567,0.817 1.961,1.608l21.525,43.182v82.348c0,8.284 6.716,15 15,15 8.284,0 15-6.716 15-15v-85.879c0-2.322-0.539-4.613-1.575-6.691l-19.796-39.714 1.341-4.934-20.926-7.259c-10.509-3.646-15.936-13.595-16.071-19.759l1.499-40.934 10.497,40.669z" fill="#6B7687"/>
  </g>
</svg>
