<?xml version="1.0" encoding="iso-8859-1"?>
<!DOCTYPE svg PUBLIC "-//W3C//DTD SVG 1.1//EN" "http://www.w3.org/Graphics/SVG/1.1/DTD/svg11.dtd">
<svg xmlns="http://www.w3.org/2000/svg" xmlns:xlink="http://www.w3.org/1999/xlink" version="1.1" viewBox="0 0 303.358 303.358" enable-background="new 0 0 303.358 303.358" width="512px" height="512px">
  <g>
    <path d="m235.379,124.456h-49.489c2.872,1.987 5.32,4.566 7.15,7.662 3.33,5.634 4.266,12.227 2.637,18.565-1.024,3.983-3.011,7.529-5.667,10.43h45.369c5.109,0 9.25-4.141 9.25-9.25v-18.157c0-5.109-4.142-9.25-9.25-9.25z" fill="#6B7687"/>
    <path d="m235.379,75.799h-59c-5.109,0-9.25,4.141-9.25,9.25v18.157c0,5.109 4.141,9.25 9.25,9.25h59c5.109,0 9.25-4.141 9.25-9.25v-18.157c0-5.108-4.142-9.25-9.25-9.25z" fill="#6B7687"/>
    <path d="m235.379,27.143h-59c-5.109,0-9.25,4.141-9.25,9.25v18.156c0,5.109 4.141,9.25 9.25,9.25h59c5.109,0 9.25-4.141 9.25-9.25v-18.156c0-5.109-4.142-9.25-9.25-9.25z" fill="#6B7687"/>
    <circle cx="117.968" cy="25.907" r="25.907" fill="#6B7687"/>
    <path d="m184.055,147.696c1.719-6.687-2.308-13.499-8.995-15.218l-41.878-10.764-13.639-39.186 21.061,28.704 5.27,1.355v-33.92c0-9.665-6.999-17.501-15.634-17.501h-27.88c-8.634,0-15.634,7.835-15.634,17.501v98.613l-1.87,44.699-24.992,60.661c-3.155,7.659 0.495,16.427 8.155,19.583 7.653,3.155 16.425-0.492 19.583-8.155l26-63.105c0.666-1.617 1.045-3.339 1.118-5.087l1.801-43.028c0.079-1.895 1.638-3.39 3.535-3.39 1.484,0 2.811,0.926 3.322,2.32l13.991,38.145-13.834,65.324c-1.716,8.104 3.463,16.065 11.567,17.782 8.107,1.715 16.065-3.465 17.782-11.567l14.728-69.546c0.584-2.758 0.379-5.626-0.592-8.272l-18.235-49.716c-5.08-1.306-1.608-0.413-31.305-8.046-7.965-2.047-14.335-7.907-17.039-15.674-0.623-1.791-3.722-47.202-3.722-47.202l15.055,43.256c1.377,3.954 4.639,6.956 8.694,7.998l48.369,12.432c6.657,1.711 13.493-2.283 15.218-8.996z" fill="#6B7687"/>
  </g>
</svg>
