<?xml version="1.0" encoding="iso-8859-1"?>
<!-- Generator: Adobe Illustrator 17.1.0, SVG Export Plug-In . SVG Version: 6.00 Build 0)  -->
<!DOCTYPE svg PUBLIC "-//W3C//DTD SVG 1.1//EN" "http://www.w3.org/Graphics/SVG/1.1/DTD/svg11.dtd">
<svg xmlns="http://www.w3.org/2000/svg" xmlns:xlink="http://www.w3.org/1999/xlink" version="1.1" id="Capa_1" x="0px" y="0px" viewBox="0 0 307.122 307.122" style="enable-background:new 0 0 307.122 307.122;" xml:space="preserve" width="512px" height="512px">
<g>
	<path d="M132.394,256.406c1.464,1.464,3.384,2.196,5.303,2.196c1.919,0,3.839-0.732,5.303-2.196   c12.325-12.325,19.112-28.712,19.112-46.142s-6.788-33.816-19.112-46.142c-2.929-2.928-7.678-2.928-10.606,0   c-2.929,2.93-2.929,7.678,0,10.607c9.492,9.491,14.719,22.11,14.719,35.534s-5.227,26.043-14.719,35.534   C129.464,248.728,129.464,253.476,132.394,256.406z" fill="#6B7687"/>
	<path d="M195.49,111.243c-6.568-6.569-15.301-10.187-24.59-10.187c-9.289,0-18.022,3.617-24.59,10.186l-10.352,10.351   c-12.158-5.365-25.411-8.187-39.099-8.187c-25.872,0-50.195,10.074-68.489,28.368C10.075,160.07,0,184.392,0,210.264   s10.075,50.194,28.37,68.489c18.294,18.294,42.617,28.368,68.489,28.368c25.872,0,50.195-10.074,68.489-28.368   c37.765-37.766,37.765-99.213,0-136.979c-4.822-4.822-10.066-9.067-15.644-12.713l7.213-7.213   c3.735-3.734,8.702-5.792,13.983-5.792c5.283,0,10.249,2.058,13.984,5.793l0.39,0.39c3.735,3.734,5.792,8.7,5.792,13.983   c0,5.282-2.057,10.248-5.792,13.982c-2.929,2.929-2.929,7.678,0,10.606c1.464,1.465,3.384,2.197,5.303,2.197   s3.839-0.732,5.303-2.196c6.568-6.568,10.186-15.301,10.186-24.59c0-9.29-3.617-18.022-10.186-24.591L195.49,111.243z    M154.741,268.146c-15.461,15.461-36.018,23.976-57.882,23.976c-21.865,0-42.422-8.515-57.883-23.976S15,232.129,15,210.264   s8.515-42.421,23.976-57.882s36.018-23.976,57.883-23.976c21.865,0,42.421,8.515,57.882,23.976   C186.658,184.298,186.658,236.23,154.741,268.146z" fill="#6B7687"/>
	<path d="M169.911,126.601c-1.4,1.399-2.2,3.34-2.2,5.31s0.8,3.91,2.2,5.3c1.39,1.4,3.33,2.2,5.3,2.2c1.98,0,3.91-0.8,5.3-2.2   c1.4-1.39,2.2-3.33,2.2-5.3c0-1.979-0.8-3.91-2.2-5.31c-1.39-1.391-3.32-2.19-5.3-2.19   C173.241,124.41,171.312,125.21,169.911,126.601z" fill="#6B7687"/>
	<path d="M208.801,90.821c-1.97,0-3.91,0.8-5.3,2.2c-1.4,1.39-2.2,3.33-2.2,5.3s0.8,3.91,2.2,5.3c1.39,1.4,3.33,2.2,5.3,2.2   c1.97,0,3.91-0.8,5.3-2.2c1.4-1.39,2.2-3.33,2.2-5.3s-0.8-3.91-2.2-5.3C212.711,91.62,210.771,90.821,208.801,90.821z" fill="#6B7687"/>
	<path d="M231.511,68.111c-1.98,0-3.91,0.8-5.31,2.2c-1.39,1.399-2.2,3.33-2.2,5.3c0,1.979,0.81,3.91,2.2,5.31   c1.4,1.391,3.33,2.2,5.31,2.2c1.97,0,3.9-0.81,5.3-2.2c1.4-1.399,2.2-3.33,2.2-5.31c0-1.97-0.8-3.9-2.2-5.3   C235.411,68.91,233.481,68.111,231.511,68.111z" fill="#6B7687"/>
	<path d="M254.211,45.41c-1.97,0-3.91,0.8-5.3,2.2c-1.4,1.39-2.2,3.32-2.2,5.3c0,1.97,0.8,3.91,2.2,5.3c1.39,1.4,3.33,2.2,5.3,2.2   c1.98,0,3.91-0.8,5.3-2.2c1.4-1.399,2.2-3.33,2.2-5.3s-0.8-3.91-2.2-5.3C258.122,46.21,256.181,45.41,254.211,45.41z" fill="#6B7687"/>
	<path d="M276.921,22.7c-1.98,0-3.91,0.8-5.31,2.2c-1.39,1.4-2.19,3.33-2.19,5.3c0,1.98,0.8,3.91,2.19,5.311   c1.4,1.39,3.33,2.189,5.31,2.189c1.97,0,3.9-0.8,5.3-2.189c1.4-1.4,2.2-3.33,2.2-5.311c0-1.97-0.8-3.899-2.2-5.3   C280.821,23.5,278.892,22.7,276.921,22.7z" fill="#6B7687"/>
	<path d="M304.931,2.2c-1.4-1.399-3.33-2.2-5.31-2.2c-1.97,0-3.91,0.801-5.3,2.2c-1.4,1.39-2.2,3.32-2.2,5.3   c0,1.971,0.8,3.91,2.2,5.301c1.4,1.399,3.33,2.199,5.3,2.199c1.97,0,3.91-0.8,5.31-2.199c1.39-1.391,2.19-3.33,2.19-5.301   C307.122,5.521,306.321,3.59,304.931,2.2z" fill="#6B7687"/>
</g>
<g>
</g>
<g>
</g>
<g>
</g>
<g>
</g>
<g>
</g>
<g>
</g>
<g>
</g>
<g>
</g>
<g>
</g>
<g>
</g>
<g>
</g>
<g>
</g>
<g>
</g>
<g>
</g>
<g>
</g>
</svg>
