<?xml version="1.0" encoding="iso-8859-1"?>
<!-- Generator: Adobe Illustrator 16.0.0, SVG Export Plug-In . SVG Version: 6.00 Build 0)  -->
<!DOCTYPE svg PUBLIC "-//W3C//DTD SVG 1.1//EN" "http://www.w3.org/Graphics/SVG/1.1/DTD/svg11.dtd">
<svg xmlns="http://www.w3.org/2000/svg" xmlns:xlink="http://www.w3.org/1999/xlink" version="1.1" id="Capa_1" x="0px" y="0px" width="512px" height="512px" viewBox="0 0 612 612" style="enable-background:new 0 0 612 612;" xml:space="preserve">
<g>
	<path d="M199.944,36.46c0-20.136,16.323-36.46,36.46-36.46c16.756,0,30.724,11.368,34.99,26.766   c0.497-0.026,0.965-0.148,1.469-0.148c15.137,0,27.407,12.271,27.407,27.408c0,3.692-0.753,7.204-2.076,10.418l0.011-0.001   c9.384,0,16.991,7.606,16.991,16.99c0,9.383-7.606,16.991-16.991,16.991c-9.383,0-16.99-7.606-16.99-16.991   c0-0.507,0.105-0.985,0.149-1.481c-2.691,0.883-5.514,1.481-8.5,1.481c-9.152,0-17.205-4.531-22.183-11.425   c-4.386,1.869-9.208,2.912-14.277,2.912C216.268,72.92,199.944,56.596,199.944,36.46z M216.492,217.077h-49.937   c-8.761,0-15.863,7.102-15.863,15.863v106.207l155.305-74.393l155.311,74.393V232.94c0-8.761-7.102-15.863-15.862-15.863h-49.938    M395.508,201.214v-9.721c0-8.761-7.102-15.863-15.862-15.863h-38.529l-6.889-63.13h-56.455l-6.888,63.13h-38.529   c-8.761,0-15.863,7.102-15.863,15.863v9.721H395.508z M306,282.345L75.247,392.877l68.331,199.338   c31.721-14.751,72.487-28.507,114.275-28.507c67.151,0,121.121,31.984,192.013,48.292h11.775l75.112-219.123L306,282.345z" fill="#6B7687"/>
</g>
<g>
</g>
<g>
</g>
<g>
</g>
<g>
</g>
<g>
</g>
<g>
</g>
<g>
</g>
<g>
</g>
<g>
</g>
<g>
</g>
<g>
</g>
<g>
</g>
<g>
</g>
<g>
</g>
<g>
</g>
</svg>
