<?xml version="1.0" encoding="iso-8859-1"?>
<!-- Generator: Adobe Illustrator 19.0.0, SVG Export Plug-In . SVG Version: 6.00 Build 0)  -->
<svg xmlns="http://www.w3.org/2000/svg" xmlns:xlink="http://www.w3.org/1999/xlink" version="1.1" id="Layer_1" x="0px" y="0px" viewBox="0 0 370 370" style="enable-background:new 0 0 370 370;" xml:space="preserve" width="512px" height="512px">
<g id="XMLID_817_">
	<g>
		<path d="M355,105c-8.284,0-15,6.716-15,15H220v15H110v20H29.128c-2.061-5.822-7.6-10-14.128-10c-8.284,0-15,6.716-15,15v50    c0,8.284,6.716,15,15,15c6.528,0,12.067-4.178,14.128-10H110v20h110v15h120c0,8.284,6.716,15,15,15s15-6.716,15-15V120    C370,111.716,363.284,105,355,105z" fill="#6B7687"/>
	</g>
</g>
<g>
</g>
<g>
</g>
<g>
</g>
<g>
</g>
<g>
</g>
<g>
</g>
<g>
</g>
<g>
</g>
<g>
</g>
<g>
</g>
<g>
</g>
<g>
</g>
<g>
</g>
<g>
</g>
<g>
</g>
</svg>
