<?xml version="1.0" encoding="utf-8"?>
<!-- Generator: Adobe Illustrator 21.1.0, SVG Export Plug-In . SVG Version: 6.00 Build 0)  -->
<svg version="1.1" id="Layer_1" xmlns="http://www.w3.org/2000/svg" xmlns:xlink="http://www.w3.org/1999/xlink" x="0px" y="0px"
	 viewBox="0 0 512 512" style="enable-background:new 0 0 512 512;" xml:space="preserve">
<path d="M159.3,313.6c1.2,2.8,2.6,5.8,4,9c1.3,3.3,3.8,6.1,5.8,9.4c2.2,3.2,4.2,6.7,7.2,9.4c2.8,2.9,5.6,6,8.7,8.9
	c3.4,2.5,6.7,5,10.1,7.5c2,1.7,4.2,2.8,6.4,3.9l-0.7-14.1c-3.2-1.7-6.5-3.4-9.8-5.1c-3.1-2.2-6-4.5-9-6.8c-3.2-2.1-5.5-5-8-7.6
	c-2.3-2.7-5.2-5-6.8-7.9c-1.8-2.8-3.5-5.5-5.1-7.9c-1.8-2.4-2.8-4.8-3.7-7.1c-0.9-2.2-1.7-4.1-2.4-5.7c-1.3-3.2-2.1-5-2.1-5
	s0.5,1.9,1.3,5.3c0.4,1.7,0.9,3.8,1.5,6.1C157.2,308.2,157.9,310.9,159.3,313.6z M135.5,355.9c-3.5-4.3-7.3-8.4-10.1-12.7
	c-3-4.3-5.7-8.4-7.8-12.4c-2.4-3.9-4.1-7.8-5.6-11.2c-1.6-3.4-2.8-6.4-3.6-9c-1.7-5.1-2.8-8.1-2.8-8.1s0.6,3.1,1.5,8.4
	c0.4,2.7,1.2,5.9,2.3,9.6c1,3.7,2.1,7.9,3.9,12.2c1.5,4.5,3.6,9.2,6.1,14c2.2,5,5.5,9.8,8.6,14.9c3.5,4.8,7,10.1,11.3,14.7
	c4,5,8.8,9.3,13.5,13.8c5,4.1,10,8.4,15.5,11.9c5.2,3.9,11,6.7,16.4,9.8c5.7,2.5,11.1,5.3,16.6,7c1,0.4,2,0.7,3,1l-1.2-23.9
	c-3.4-0.8-6.9-1.9-10.6-2.8c-5-2-10.4-3.6-15.4-6.3c-5.3-2.3-10.2-5.4-15.2-8.4c-4.7-3.4-9.7-6.6-14-10.6
	C143.3,364.2,139.5,360,135.5,355.9z M204.2,446.6c-3.1-0.6-6.2-1.3-9.5-2c-6.6-1.1-13.3-3.6-20.4-5.6c-6.8-2.8-14.1-5.2-20.9-8.9
	c-7.1-3.3-13.7-7.6-20.5-11.8c-6.4-4.7-13.1-9.2-18.8-14.6c-6.1-5-11.3-10.9-16.6-16.3c-4.7-5.9-9.7-11.4-13.4-17.3
	c-4-5.8-7.6-11.3-10.3-16.8c-3.1-5.3-5.4-10.5-7.4-15.1c-2.1-4.6-3.7-8.6-4.8-12.1c-2.3-6.9-3.6-10.8-3.6-10.8s0.9,4.1,2.4,11.2
	c0.6,3.6,1.8,7.9,3.4,12.7c1.4,4.9,3.2,10.4,5.7,16.1c2.2,5.9,5.2,12,8.7,18.4c3.2,6.6,7.7,12.8,11.9,19.5
	c4.8,6.3,9.6,13.1,15.5,19.1c5.5,6.5,12,12,18.3,17.9c6.8,5.3,13.5,10.8,20.8,15.2c7,4.9,14.7,8.4,21.9,12.4
	c7.6,3.1,14.7,6.7,22,8.8c3.6,1.2,7.1,2.3,10.5,3.4c2.8,0.6,5.4,1.3,8,1.9l-1.3-25C205.3,446.8,204.7,446.7,204.2,446.6z
	 M258.6,295.2l-13.4,0.7c-14.8,0.8-26.2,13.4-25.4,28.2l1.5,29.9l0.8,16.1l1.5,29.1l1.3,26.2l1.2,23.3l1.4,26.9l0.2,4.8
	c0.7,14.8,11.2,26.3,23.2,25.7c12.1-0.6,23.8-13,26.2-27.6l21.3-130.1C301.5,320.8,294.8,293.3,258.6,295.2z M387.6,228.6
	c0.5-2.5,0.4-5,0.2-7.5l-11.9,7.7c0.2,3.7,0.3,7.4,0.5,11.1c-0.3,3.7-0.9,7.4-1.4,11.2c-0.2,3.8-1.5,7.2-2.6,10.7
	c-1.2,3.4-1.7,7-3.4,9.8c-1.5,3-3,5.8-4.3,8.4c-1.2,2.7-2.8,4.9-4.3,6.7c-1.5,1.9-2.7,3.6-3.8,5c-2.1,2.8-3.3,4.4-3.3,4.4
	s1.4-1.4,3.9-3.8c1.3-1.2,2.8-2.7,4.6-4.4c1.8-1.7,3.8-3.6,5.4-6.2c1.8-2.5,3.7-5.1,5.8-8c2.3-2.7,3.4-6.3,5.2-9.7
	c1.7-3.5,3.7-7,4.5-11c1.1-3.9,2.4-7.9,3.4-12C386.7,236.9,387.2,232.7,387.6,228.6z M431.6,267.5c2.3-6,3.6-12.3,5.2-18.6
	c1.1-6.4,2.3-12.9,2.6-19.4c0.7-6.5,0.3-12.9,0.2-19.1c-0.7-6.2-0.9-12.3-2.2-17.9c-0.2-1.1-0.4-2.1-0.6-3.1l-20.1,13
	c1,3.4,1.8,6.9,2.9,10.6c0.8,5.3,2.1,10.8,2.3,16.5c0.6,5.7,0.4,11.5,0.3,17.4c-0.6,5.8-0.9,11.8-2.2,17.4
	c-0.9,5.8-2.6,11.3-4.1,16.7c-2,5.2-3.6,10.5-6,15.1c-2.2,4.7-4.4,9.1-6.9,13c-2.2,4-4.7,7.4-6.9,10.4c-2.1,3.1-4.1,5.7-6,7.6
	c-3.6,4.1-5.6,6.4-5.6,6.4s2.4-2,6.5-5.5c2.2-1.7,4.5-4,7.2-6.7c2.7-2.7,5.7-5.8,8.6-9.5c3.1-3.6,6.1-7.7,9.1-12.3
	c3.2-4.4,5.7-9.7,8.7-14.9C427,279.2,429.7,273.6,431.6,267.5z M485.1,179.9c-0.8-3.7-1.6-7.3-2.3-10.8c-0.8-2.7-1.6-5.3-2.4-7.9
	l-21,13.6c0.2,0.5,0.4,1,0.6,1.5c1,3,2,6.1,3.1,9.2c2.4,6.3,3.5,13.3,5.4,20.4c1,7.3,2.6,14.8,2.7,22.6c0.7,7.8,0.3,15.7,0.1,23.7
	c-0.9,7.9-1.4,15.9-3.3,23.6c-1.3,7.8-3.8,15.2-5.9,22.5c-2.8,7-5,14.1-8.3,20.3c-3,6.3-6,12.2-9.4,17.4c-3,5.4-6.4,9.9-9.4,13.9
	c-2.9,4.1-5.6,7.6-8.1,10.2c-4.8,5.4-7.5,8.5-7.5,8.5s3.1-2.8,8.5-7.7c2.8-2.4,5.9-5.5,9.3-9.3c3.5-3.7,7.4-7.9,11.1-13
	c4-4.9,7.8-10.5,11.6-16.7c4.1-6,7.2-13,10.9-20.1c3-7.3,6.5-14.9,8.8-23c2.9-7.9,4.4-16.4,6.3-24.8c1.2-8.5,2.6-17.1,2.8-25.6
	c0.8-8.5,0-16.9-0.2-25.1C487.5,195.2,487,187.2,485.1,179.9z M384.8,199.1l24.4-15.8l22-14.2l19.6-12.7l22.6-14.6l4.1-2.6
	c12.4-8,17.2-22.8,10.6-33c-6.6-10.2-23.2-14.2-37-8.9l-123.3,46.6c-25.4,11.2-45.8,30.7-26.1,61.1l7.3,11.3
	c8.1,12.4,24.7,16,37.1,7.9l25.1-16.3L384.8,199.1z M243.7,119.1c-2.3-0.8-5-1.5-8-1.6c-3-0.3-6.3-0.7-9.8-1
	c-3.5-0.6-7.1,0.2-11,0.3c-3.8,0.3-7.9,0.3-11.8,1.5c-3.9,1-8,1.9-12.1,3c-3.8,1.7-7.7,3.3-11.5,5c-2.4,0.9-4.5,2.2-6.6,3.6
	l12.6,6.5c3.1-2,6.2-4,9.4-6c3.4-1.6,6.9-2.9,10.4-4.4c3.4-1.7,7-2.3,10.6-3.1c3.5-0.6,6.9-2,10.2-1.9c3.3-0.2,6.5-0.3,9.4-0.5
	c3-0.3,5.6,0,8,0.3c2.4,0.3,4.5,0.6,6.2,0.8c3.5,0.4,5.4,0.7,5.4,0.7s-1.9-0.5-5.2-1.5C248.1,120.4,246,119.8,243.7,119.1z
	 M272,76.6c0,0-2.9-1-8-2.9c-2.5-1-5.7-1.9-9.4-2.8c-3.7-1-7.9-2.1-12.5-2.7c-4.7-0.9-9.8-1.4-15.2-1.7c-5.4-0.6-11.2-0.1-17.2,0
	c-6,0.6-12.2,1-18.4,2.4c-6.3,1-12.5,3-18.8,4.8c-6.1,2.3-12.3,4.5-18,7.5c-6,2.6-11.3,6.2-16.7,9.3c-5,3.7-10.2,6.9-14.4,10.9
	c-0.8,0.7-1.6,1.4-2.4,2.1l21.3,10.9c2.4-2.6,5.1-5,7.7-7.8c4.2-3.3,8.3-7.2,13.2-10.2c4.6-3.4,9.8-6.1,14.9-9
	c5.3-2.4,10.6-5.1,16.2-6.8c5.5-2.1,11.1-3.4,16.6-4.8c5.5-0.9,10.9-2.1,16.1-2.4c5.2-0.5,10.1-0.8,14.7-0.5
	c4.6-0.1,8.8,0.3,12.5,0.8c3.7,0.3,7,0.8,9.6,1.4C269,76,272,76.6,272,76.6z M98,89.9c2.1-2.3,4.2-4.8,6.5-7.3
	c4.2-5.2,9.7-9.7,15-14.9c5.8-4.5,11.5-9.6,18.2-13.6c6.4-4.5,13.4-8.1,20.5-11.9c7.3-3.2,14.5-6.7,22.1-9
	c7.4-2.8,15.1-4.4,22.4-6.2c7.5-1.1,14.7-2.7,21.7-3c7-0.6,13.6-0.9,19.7-0.5c6.2,0,11.8,0.5,16.7,1.2c5,0.5,9.4,1.1,12.9,1.9
	c7.1,1.4,11.2,2.3,11.2,2.3s-3.9-1.3-10.9-3.5c-3.4-1.3-7.7-2.3-12.7-3.4c-4.9-1.2-10.6-2.4-16.8-3.1c-6.2-1.1-13-1.5-20.3-1.7
	c-7.3-0.5-14.9,0.2-22.9,0.6c-7.9,1-16.1,1.8-24.3,3.8c-8.3,1.5-16.4,4.4-24.6,6.9c-8,3.2-16.1,6.3-23.6,10.4
	c-7.8,3.6-14.7,8.5-21.7,12.8c-6.5,5-13.2,9.4-18.6,14.7c-2.8,2.5-5.5,5-8.2,7.4c-1.9,2.1-3.8,4.1-5.6,6L97,91.2
	C97.3,90.7,97.6,90.3,98,89.9z M196.4,164.6L169.7,151l-14.4-7.4l-25.9-13.3l-23.3-11.9l-20.7-10.6l-24-12.3l-4.3-2.2
	c-13.2-6.8-28.3-3.5-33.9,7.3c-5.5,10.8-0.7,27.1,10.8,36.5l102,83.5c22.4,16.4,49.5,24.3,66-7.9l6.1-12
	C214.8,187.5,209.6,171.4,196.4,164.6z M235.1,277.1c6.5,3.4,13.8,5.2,21.6,4.8c6.9-0.3,13.2-2.5,18.8-5.7
	c13.4-7.7,22.2-22.3,21.3-38.7c-0.1-1.9-0.5-3.8-0.9-5.6c-2-10.9-8.1-20.2-16.7-26.4c-7.6-5.5-16.8-8.7-26.9-8.2
	c-9.9,0.5-18.7,4.5-25.6,10.6c-7.3,6.5-12.5,15.2-14.1,25.3c-0.4,2.8-0.6,5.7-0.4,8.6C213,257.4,222.2,270.4,235.1,277.1z"/>
</svg>
