<?xml version="1.0" encoding="utf-8"?>
<!-- Generator: Adobe Illustrator 21.1.0, SVG Export Plug-In . SVG Version: 6.00 Build 0)  -->
<svg version="1.1" id="Layer_1" xmlns="http://www.w3.org/2000/svg" xmlns:xlink="http://www.w3.org/1999/xlink" x="0px" y="0px"
	 viewBox="0 0 512 512" style="enable-background:new 0 0 512 512;" xml:space="preserve">
<g>
	<g>
		<path d="M48.5,302.1C22.9,302.1,2,281.2,2,255.5C2,229.9,22.9,209,48.5,209c25.7,0,46.6,20.9,46.6,46.5
			C95.1,281.2,74.2,302.1,48.5,302.1L48.5,302.1z"/>
	</g>
	<g>
		<path d="M254.5,96.1c-25.6,0-46.5-20.9-46.5-46.5c0-25.7,20.9-46.5,46.5-46.5C280.1,3.1,301,24,301,49.6
			C301,75.3,280.1,96.1,254.5,96.1L254.5,96.1z"/>
	</g>
	<g>
		<path d="M108.9,156.5c-12.4,0-24.1-4.8-32.9-13.6C57.8,124.7,57.8,95.2,76,77c17.6-17.6,48.2-17.6,65.8,0
			c18.1,18.1,18.1,47.7,0,65.8C133,151.6,121.3,156.5,108.9,156.5L108.9,156.5z"/>
	</g>
	<g>
		<path d="M460.4,302.1c-25.6,0-46.5-20.9-46.5-46.5c0-25.7,20.9-46.5,46.5-46.5c25.7,0,46.6,20.9,46.6,46.5
			C507,281.2,486.1,302.1,460.4,302.1L460.4,302.1z"/>
	</g>
	<g>
		<path d="M400.1,156.5c-12.4,0-24.1-4.8-32.9-13.6c-8.8-8.8-13.6-20.5-13.6-32.9c0-12.4,4.8-24.1,13.6-32.9
			c17.6-17.6,48.2-17.6,65.8,0c8.8,8.8,13.6,20.5,13.6,32.9c0,12.4-4.8,24.1-13.6,32.9C424.2,151.6,412.5,156.5,400.1,156.5
			L400.1,156.5z"/>
	</g>
	<g>
		<path d="M254.5,508c-25.6,0-46.5-20.9-46.5-46.5c0-25.7,20.9-46.5,46.5-46.5c25.7,0,46.6,20.9,46.6,46.5
			C301,487.1,280.1,508,254.5,508L254.5,508z"/>
	</g>
	<g>
		<path d="M108.9,447.7c-12.4,0-24.1-4.8-32.9-13.6c-18.1-18.1-18.1-47.7,0-65.8c17.6-17.6,48.2-17.6,65.8,0
			c18.1,18.2,18.1,47.7,0,65.8C133,442.9,121.3,447.7,108.9,447.7L108.9,447.7z"/>
	</g>
	<g>
		<path d="M400.1,447.7c-12.4,0-24.1-4.8-32.9-13.6c-8.8-8.8-13.6-20.5-13.6-32.9c0-12.4,4.8-24.1,13.6-32.9
			c17.6-17.6,48.2-17.6,65.8,0c8.8,8.8,13.7,20.5,13.7,32.9c0,12.4-4.8,24.1-13.7,32.9C424.2,442.9,412.5,447.7,400.1,447.7
			L400.1,447.7z"/>
	</g>
</g>
<g>
	<path d="M29.9,201.1c-18.1-7.6-26.7-28.6-19.1-46.7c7.6-18.1,28.6-26.7,46.7-19.1c18.1,7.6,26.7,28.6,19.1,46.7
		C69,200.1,48,208.7,29.9,201.1L29.9,201.1z"/>
</g>
<g>
	<path d="M329.4,71.7c-18.1-7.6-26.7-28.6-19.1-46.7C318,7,338.9-1.6,357.1,6c18.1,7.6,26.7,28.6,19.1,46.7
		C368.5,70.8,347.6,79.4,329.4,71.7L329.4,71.7z"/>
</g>
<g>
	<path d="M151.7,75.2c-8.8-3.7-15.6-10.6-19.2-19.4c-7.4-18.2,1.4-39.1,19.5-46.5c17.6-7.2,39.3,1.9,46.5,19.5
		c7.4,18.2-1.3,39-19.5,46.5C170.2,78.9,160.5,78.8,151.7,75.2L151.7,75.2z"/>
</g>
<g>
	<path d="M330.3,502.6c-18.1-7.6-26.7-28.6-19.1-46.7c7.6-18.1,28.6-26.7,46.7-19.1c18.1,7.6,26.7,28.6,19.1,46.7
		C369.3,501.6,348.4,510.2,330.3,502.6L330.3,502.6z"/>
</g>
<g>
	<path d="M455.4,199.6c-8.8-3.7-15.6-10.6-19.2-19.4c-3.6-8.8-3.5-18.5,0.1-27.3c3.7-8.8,10.6-15.6,19.4-19.2
		c17.6-7.2,39.3,1.9,46.5,19.5c3.6,8.8,3.5,18.5-0.1,27.3c-3.7,8.8-10.6,15.6-19.4,19.2C473.8,203.3,464.1,203.3,455.4,199.6
		L455.4,199.6z"/>
</g>
<g>
	<path d="M153.2,500.6c-18.1-7.6-26.7-28.6-19.1-46.7c7.6-18.1,28.6-26.7,46.7-19.1c18.1,7.6,26.7,28.6,19.1,46.7
		C192.3,499.6,171.3,508.2,153.2,500.6L153.2,500.6z"/>
</g>
<g>
	<path d="M27.9,375.2c-8.8-3.7-15.6-10.6-19.2-19.4c-7.4-18.2,1.3-39,19.5-46.5c17.6-7.2,39.3,1.9,46.5,19.5
		c7.4,18.2-1.3,39.1-19.5,46.5C46.4,378.9,36.7,378.9,27.9,375.2L27.9,375.2z"/>
</g>
<g>
	<path d="M453.9,377.2c-8.8-3.7-15.6-10.6-19.2-19.4c-3.6-8.8-3.5-18.5,0.1-27.3c3.7-8.8,10.6-15.6,19.4-19.2
		c17.7-7.2,39.3,1.9,46.5,19.5c3.6,8.8,3.6,18.5-0.1,27.3c-3.7,8.8-10.6,15.6-19.4,19.2C472.4,380.9,462.7,380.9,453.9,377.2
		L453.9,377.2z"/>
</g>
<g>
	<g>
		<path d="M134.2,348.7c-17.4,7.9-38,0.1-45.9-17.3c-7.9-17.4-0.1-38,17.3-45.9c17.4-7.9,38-0.1,45.9,17.3
			C159.4,320.3,151.6,340.9,134.2,348.7L134.2,348.7z"/>
	</g>
	<g>
		<path d="M210.9,145.8c-17.4,7.9-38,0.1-45.9-17.3c-7.9-17.4-0.1-38,17.3-45.9c17.4-7.9,38-0.1,45.9,17.3
			C236.2,117.3,228.4,137.9,210.9,145.8L210.9,145.8z"/>
	</g>
	<g>
		<path d="M130.5,231.4c-8.5,3.8-17.9,4.1-26.5,0.8c-17.9-6.8-26.9-26.8-20.2-44.7c6.6-17.3,27.4-26.7,44.7-20.2
			c17.9,6.8,26.9,26.8,20.2,44.7C145.4,220.7,139,227.6,130.5,231.4L130.5,231.4z"/>
	</g>
	<g>
		<path d="M413.9,222.5c-17.4,7.9-38,0.1-45.9-17.3c-7.9-17.4-0.1-38,17.3-45.9c17.4-7.9,38-0.1,45.9,17.3
			C439.1,194.1,431.3,214.7,413.9,222.5L413.9,222.5z"/>
	</g>
	<g>
		<path d="M328.3,142.1c-8.4,3.8-17.9,4.1-26.5,0.8c-8.7-3.3-15.5-9.7-19.3-18.2c-3.8-8.4-4.1-17.9-0.8-26.5
			c6.6-17.3,27.4-26.7,44.7-20.2c8.7,3.3,15.5,9.7,19.3,18.2c3.8,8.4,4.1,17.9,0.8,26.5C343.2,131.4,336.8,138.3,328.3,142.1
			L328.3,142.1z"/>
	</g>
	<g>
		<path d="M337.1,425.5c-17.4,7.9-38,0.1-45.9-17.3c-7.9-17.4-0.1-38,17.3-45.9c17.4-7.9,38-0.1,45.9,17.3
			C362.4,397,354.6,417.6,337.1,425.5L337.1,425.5z"/>
	</g>
	<g>
		<path d="M219.8,429.2c-8.5,3.8-17.9,4.1-26.5,0.8c-17.9-6.8-26.9-26.8-20.2-44.7c6.5-17.4,27.4-26.7,44.7-20.2
			c17.9,6.8,26.9,26.8,20.2,44.7C234.7,418.5,228.2,425.3,219.8,429.2L219.8,429.2z"/>
	</g>
	<g>
		<path d="M417.6,339.9c-8.4,3.8-17.9,4.1-26.5,0.8c-8.7-3.3-15.5-9.7-19.3-18.2c-3.8-8.4-4.1-17.9-0.8-26.5
			c6.6-17.3,27.4-26.7,44.7-20.2c8.7,3.3,15.6,9.7,19.4,18.2c3.8,8.4,4.1,17.9,0.8,26.6C432.5,329.2,426,336.1,417.6,339.9
			L417.6,339.9z"/>
	</g>
</g>
<g>
	<g>
		<path d="M151.5,287.4c-17.5,0-31.8-14.3-31.8-31.8c0-17.6,14.3-31.8,31.8-31.8c17.6,0,31.8,14.3,31.8,31.8
			C183.3,273.1,169.1,287.4,151.5,287.4L151.5,287.4z"/>
	</g>
	<g>
		<path d="M254.5,184.4c-17.5,0-31.8-14.3-31.8-31.8c0-17.6,14.3-31.8,31.8-31.8c17.6,0,31.8,14.3,31.8,31.8
			C286.3,170.1,272,184.4,254.5,184.4L254.5,184.4z"/>
	</g>
	<g>
		<path d="M181.7,214.6c-8.5,0-16.5-3.3-22.5-9.3c-12.4-12.4-12.4-32.6,0-45c12-12,33-12,45,0c12.4,12.4,12.4,32.6,0,45
			C198.2,211.3,190.2,214.6,181.7,214.6L181.7,214.6z"/>
	</g>
	<g>
		<path d="M357.4,287.4c-17.5,0-31.8-14.3-31.8-31.8c0-17.6,14.3-31.8,31.8-31.8c17.6,0,31.8,14.3,31.8,31.8
			C389.3,273.1,375,287.4,357.4,287.4L357.4,287.4z"/>
	</g>
	<g>
		<path d="M327.3,214.6c-8.5,0-16.5-3.3-22.5-9.3c-12.4-12.4-12.4-32.6,0-45c12-12,33-12,45,0c12.4,12.4,12.4,32.6,0,45
			C343.8,211.3,335.8,214.6,327.3,214.6L327.3,214.6z"/>
	</g>
	<g>
		<path d="M254.5,390.3c-17.5,0-31.8-14.3-31.8-31.8c0-17.6,14.3-31.8,31.8-31.8c17.6,0,31.8,14.3,31.8,31.8
			C286.3,376.1,272,390.3,254.5,390.3L254.5,390.3z"/>
	</g>
	<g>
		<path d="M181.7,360.2c-8.5,0-16.5-3.3-22.5-9.3c-12.4-12.4-12.4-32.6,0-45c12-12,33-12,45,0c12.4,12.4,12.4,32.6,0,45
			C198.2,356.9,190.2,360.2,181.7,360.2L181.7,360.2z"/>
	</g>
	<g>
		<path d="M327.3,360.2c-8.5,0-16.5-3.3-22.5-9.3c-12.4-12.4-12.4-32.6,0-45c12-12,33-12,45,0c12.4,12.4,12.4,32.6,0,45
			C343.8,356.9,335.8,360.2,327.3,360.2L327.3,360.2z"/>
	</g>
</g>
<g>
	<g>
		<path d="M198.3,250.2c-9.3-3.7-13.8-14.3-10-23.6c3.8-9.3,14.3-13.8,23.6-10c9.3,3.8,13.8,14.3,10,23.6
			C218.2,249.5,207.6,254,198.3,250.2L198.3,250.2z"/>
	</g>
	<g>
		<path d="M274.7,217.8c-9.3-3.7-13.8-14.3-10-23.6c3.8-9.3,14.3-13.8,23.6-10c9.3,3.8,13.8,14.3,10,23.6
			C294.5,217.1,284,221.6,274.7,217.8L274.7,217.8z"/>
	</g>
	<g>
		<path d="M229.8,218.2c-4.5-1.8-8-5.3-9.9-9.7c-3.9-9.2,0.4-19.9,9.6-23.8c8.9-3.8,20,0.7,23.8,9.6c3.9,9.2-0.4,19.9-9.6,23.8
			C239.2,220,234.3,220,229.8,218.2L229.8,218.2z"/>
	</g>
	<g>
		<path d="M307.1,294.2c-9.3-3.7-13.8-14.3-10-23.6c3.8-9.3,14.3-13.8,23.6-10c9.3,3.8,13.8,14.3,10,23.6
			C326.9,293.5,316.3,298,307.1,294.2L307.1,294.2z"/>
	</g>
	<g>
		<path d="M306.7,249.3c-4.5-1.8-8-5.3-9.9-9.7c-3.9-9.2,0.4-19.9,9.6-23.8c8.9-3.8,20,0.7,23.8,9.6c3.9,9.2-0.4,19.9-9.6,23.8
			C316.1,251.1,311.2,251.1,306.7,249.3L306.7,249.3z"/>
	</g>
	<g>
		<path d="M230.7,326.6c-9.3-3.7-13.8-14.3-10-23.6c3.8-9.3,14.3-13.8,23.6-10c9.3,3.8,13.8,14.3,10,23.6
			C250.6,325.8,240,330.3,230.7,326.6L230.7,326.6z"/>
	</g>
	<g>
		<path d="M198.7,295.1c-4.5-1.8-8-5.3-9.9-9.7c-3.9-9.2,0.4-19.9,9.6-23.8c8.9-3.8,20,0.7,23.8,9.6c3.9,9.2-0.4,19.9-9.6,23.8
			C208.1,296.9,203.2,296.9,198.7,295.1L198.7,295.1z"/>
	</g>
	<g>
		<path d="M275.6,326.2c-4.5-1.8-8-5.3-9.9-9.7c-3.9-9.2,0.4-19.9,9.6-23.8c8.9-3.8,20,0.7,23.8,9.6c3.9,9.2-0.4,19.9-9.6,23.8
			C285,328,280.1,328,275.6,326.2L275.6,326.2z"/>
	</g>
</g>
<g>
	<path d="M254.5,287.4c-8.5,0-16.5-3.3-22.5-9.3c-12.4-12.4-12.4-32.6,0-45c12.1-12,33-12,45,0c12.4,12.4,12.4,32.6,0,45
		C271,284.1,263,287.4,254.5,287.4L254.5,287.4z"/>
</g>
</svg>
