<?xml version="1.0" encoding="utf-8"?>
<!-- Generator: Adobe Illustrator 21.1.0, SVG Export Plug-In . SVG Version: 6.00 Build 0)  -->
<svg version="1.1" id="Capa_1" xmlns="http://www.w3.org/2000/svg" xmlns:xlink="http://www.w3.org/1999/xlink" x="0px" y="0px"
	 viewBox="0 0 914.9 914.9" style="enable-background:new 0 0 914.9 914.9;" xml:space="preserve">
<g>
	<g>
		<path d="M460.7,28.6c-11.4,0-22.7,0.5-33.9,1.3L33.9,422.8c-0.9,11.2-1.3,22.5-1.3,33.9c0,236.5,191.7,428.2,428.2,428.2
			s428.2-191.7,428.2-428.2C888.9,220.3,697.2,28.6,460.7,28.6z M644.6,640.6c-49.1,49.1-114.4,76.2-183.9,76.2
			c-69.4,0-134.7-27-183.9-76.2s-76.2-114.4-76.2-183.9c0-69.5,27-134.7,76.2-183.9c49.1-49.1,114.4-76.2,183.9-76.2
			s134.7,27,183.9,76.2s76.2,114.4,76.2,183.9C720.8,526.2,693.7,591.5,644.6,640.6z"/>
		<path d="M460.7,246.7c-115.8,0-210,94.2-210,210s94.2,210,210,210c115.8,0,210-94.2,210-210C670.8,341,576.5,246.7,460.7,246.7z
			 M460.7,292.1c13,0,23.5,10.5,23.5,23.5c0,13-10.5,23.5-23.5,23.5s-23.5-10.5-23.5-23.5C437.2,302.6,447.8,292.1,460.7,292.1z
			 M318.2,481.6c-13,0-23.5-10.5-23.5-23.5c0-13,10.5-23.5,23.5-23.5s23.5,10.5,23.5,23.5C341.7,471.1,331.2,481.6,318.2,481.6z
			 M460.7,624.2c-13,0-23.5-10.5-23.5-23.5s10.5-23.5,23.5-23.5c13,0,23.5,10.5,23.5,23.5S473.7,624.2,460.7,624.2z M460.7,531.8
			c-41.4,0-75-33.6-75-75c0-41.4,33.6-75,75-75c41.4,0,75,33.6,75,75C535.8,498.2,502.2,531.8,460.7,531.8z M626.8,458.1
			c0,13-10.5,23.5-23.5,23.5c-13,0-23.5-10.5-23.5-23.5c0-13,10.5-23.5,23.5-23.5C616.2,434.6,626.8,445.2,626.8,458.1z"/>
	</g>
</g>
<g>
	<path d="M503.6,29.5c-11.5-0.8-23.1-1.2-34.8-1.1C226,30,30.5,228,32,470.8L503.6,29.5z"/>
</g>
</svg>
