<?xml version="1.0" encoding="utf-8"?>
<!-- Generator: Adobe Illustrator 21.1.0, SVG Export Plug-In . SVG Version: 6.00 Build 0)  -->
<svg version="1.1" id="Layer_1" xmlns="http://www.w3.org/2000/svg" xmlns:xlink="http://www.w3.org/1999/xlink" x="0px" y="0px"
	 viewBox="0 0 512 512" style="enable-background:new 0 0 512 512;" xml:space="preserve">
<g>
	<path d="M257.7,87.4c-82.5,0-149.3,66.8-149.3,149.3c0,30.2,9,58.3,24.4,81.8l33.4-21.9c-11.3-17.2-17.9-37.7-17.9-59.9
		c0-30.3,12.2-57.5,32-77.3c19.9-19.8,47.1-32,77.4-32c30.3,0,57.5,12.2,77.4,32c19.8,19.9,32,47.1,32,77.3c0,22.9-7,44.1-19,61.6
		l33,22.5c16.4-24,26-52.9,26-84.1C407,154.2,340.2,87.4,257.7,87.4z"/>
	<path d="M257.7,8C131.4,8,29,110.4,29,236.7C29,283,42.8,326,66.4,362l33.4-21.9C80.3,310.4,69,274.9,69,236.7
		c0-52.2,21.1-99.2,55.3-133.5c34.2-34.2,81.3-55.3,133.5-55.3c52.2,0,99.2,21.1,133.5,55.3c34.2,34.2,55.3,81.3,55.3,133.5
		c0,39.5-12.1,76.1-32.8,106.4l33,22.5c25.1-36.7,39.7-81.1,39.7-128.9C486.4,110.4,384,8,257.7,8z"/>
	<path d="M297.6,263.8c5.3-7.7,8.4-17.1,8.4-27.2c0-26.6-21.6-48.2-48.2-48.2c-26.6,0-48.2,21.6-48.2,48.2c0,9.8,2.9,18.8,7.9,26.4
		c5.1,7.7,12.3,13.9,20.9,17.7L132.8,508h43.1l11.5-24.8h141.9l11.5,24.8h43.1L278.2,280.3C286,276.7,292.7,270.9,297.6,263.8z
		 M316.4,455.6H200.2l17.4-37.4H299L316.4,455.6z M286.2,390.5h-55.8l27.9-60.1L286.2,390.5z"/>
</g>
</svg>
