<?xml version="1.0" encoding="iso-8859-1"?>
<!-- Generator: Adobe Illustrator 16.0.0, SVG Export Plug-In . SVG Version: 6.00 Build 0)  -->
<!DOCTYPE svg PUBLIC "-//W3C//DTD SVG 1.1//EN" "http://www.w3.org/Graphics/SVG/1.1/DTD/svg11.dtd">
<svg xmlns="http://www.w3.org/2000/svg" xmlns:xlink="http://www.w3.org/1999/xlink" version="1.1" id="Capa_1" x="0px" y="0px" width="512px" height="512px" viewBox="0 0 96.039 96.04" style="enable-background:new 0 0 96.039 96.04;" xml:space="preserve">
<g>
	<g>
		<path d="M48.023,0C37.551,0,27.894,3.388,20.002,9.076h18.585h1.798h12.718v5.105c3.313,3.414,6.157,7.366,8.303,11.81    c-2.382,1.976-5.223,3.384-8.303,4.201v5.52c3.819-0.806,7.365-2.363,10.407-4.591c1.707,4.965,2.673,10.319,2.673,15.94    c0,0.323-0.031,0.628-0.038,0.939c-4,1.908-8.395,3.208-13.042,3.803v4.771c4.449-0.51,8.706-1.602,12.648-3.217    c-0.91,7.193-3.364,13.843-6.987,19.534c-1.838,0.472-3.73,0.814-5.661,1.061l-0.864,0.059c-1.548,0.164-3.106,0.301-4.698,0.301    c-3.487,0-6.865-0.387-10.112-1.129c-3.383-5.229-5.71-11.304-6.824-17.847c-1.549,1.95-3.013,4.404-3.785,7.255    c0.845,2.83,1.875,5.571,3.15,8.158c-1.201-0.51-2.361-1.078-3.501-1.684c0.291,2.07,0.926,4.188,1.969,6.365    c1.742,0.719,3.527,1.376,5.373,1.896c2.517,3.648,5.463,6.92,8.764,9.702c0.347,0.144,0.705,0.236,1.066,0.366    c-0.284,0.15-0.555,0.28-0.828,0.425c-2.151-0.281-4.23-0.78-6.257-1.39c0.188,0.195,0.349,0.383,0.545,0.582l3.375,3.377    l-3.556,4.309c3.566,0.846,7.271,1.342,11.098,1.342c26.521,0,48.02-21.498,48.02-48.017C96.039,21.501,74.541,0,48.023,0z     M88.052,45.539c-2.978,10.797-11.04,19.756-21.744,24.674c2.847-5.948,4.63-12.583,5.078-19.626    c6.174-3.576,11.354-8.472,15.041-14.279C87.323,39.262,87.847,42.349,88.052,45.539z M84.178,30.68    c-2.847,5.698-7.255,10.607-12.724,14.305c-0.239-6.276-1.526-12.255-3.686-17.742c2.598-2.922,4.589-6.386,5.746-10.226    C77.998,20.725,81.632,25.385,84.178,30.68z M65.274,21.818c-2.684-5.039-6.13-9.542-10.178-13.285    c4.948,0.896,9.589,2.691,13.736,5.213C68.2,16.704,66.965,19.431,65.274,21.818z M48.013,84.534    c-2.24-1.663-4.319-3.531-6.211-5.629c1.879,0.223,3.807,0.339,5.744,0.339c2.31,0,4.571-0.171,6.794-0.466    C52.417,80.917,50.287,82.833,48.013,84.534z M53.201,87.809c-0.274-0.134-0.555-0.271-0.813-0.414    c0.341-0.123,0.703-0.223,1.046-0.366c3.415-2.874,6.45-6.259,9.021-10.04c9.753-3.022,18.069-8.912,23.75-16.581    C81.481,74.915,68.717,85.8,53.201,87.809z" fill="#6B7687"/>
		<path d="M8.122,29.894l-3.119-3.119C1.829,33.188,0,40.383,0,48.023c0,3.351,0.351,6.622,1.002,9.78    C-0.318,48.215,2.007,38.735,8.122,29.894z" fill="#6B7687"/>
		<path d="M21.166,63.132c1.026-9.511,8.336-15.901,11.024-17.951L47.893,60.88V13.028H0.041l15.09,15.097    c-19.273,23.078-4.184,44.548,6.654,55.396c5.142,5.137,9.529,8.124,9.71,8.247l1.935-2.34    C24.393,80.379,20.264,71.537,21.166,63.132z" fill="#6B7687"/>
	</g>
</g>
<g>
</g>
<g>
</g>
<g>
</g>
<g>
</g>
<g>
</g>
<g>
</g>
<g>
</g>
<g>
</g>
<g>
</g>
<g>
</g>
<g>
</g>
<g>
</g>
<g>
</g>
<g>
</g>
<g>
</g>
</svg>
