<?xml version="1.0" encoding="utf-8"?>
<!-- Generator: Adobe Illustrator 19.2.0, SVG Export Plug-In . SVG Version: 6.00 Build 0)  -->
<svg version="1.1" id="Layer_1" xmlns="http://www.w3.org/2000/svg" xmlns:xlink="http://www.w3.org/1999/xlink" x="0px" y="0px"
	 viewBox="0 0 466 140.333" enable-background="new 0 0 466 140.333" xml:space="preserve">
<g>
	<g>
		<g>
			<polygon points="53.351,60.884 76.958,74.503 100.564,88.123 76.966,101.758 53.368,115.392 53.359,88.138 			"/>
			<polygon fill="#EFE6DE" points="53.351,60.884 29.731,47.286 6.111,33.688 29.697,20.032 53.283,6.376 53.317,33.63 			"/>
			<polygon fill="#EF4136" points="53.351,60.884 53.308,33.63 53.266,6.376 76.89,19.966 100.514,33.556 100.556,33.63 
				100.556,60.884 100.556,88.138 76.953,74.511 			"/>
			<polygon fill="#1C75BC" points="6.171,88.182 6.145,60.928 6.12,33.674 29.735,47.279 53.351,60.884 53.368,88.138 
				53.384,115.392 29.773,101.78 6.162,88.167 			"/>
			<polygon points="53.351,60.884 76.958,74.503 100.564,88.123 76.966,101.758 53.368,115.392 53.359,88.138 			"/>
			<polygon fill="#EFE6DE" points="53.351,60.884 29.731,47.286 6.111,33.688 29.697,20.032 53.283,6.376 53.317,33.63 			"/>
			<polygon fill="#1C75BC" points="53.351,60.884 53.308,33.63 53.266,6.376 76.89,19.966 100.514,33.556 100.556,33.63 
				100.556,60.884 100.556,88.138 76.953,74.511 			"/>
			<polygon fill="#EF4136" points="6.171,88.182 6.145,60.928 6.12,33.674 29.735,47.279 53.351,60.884 53.368,88.138 
				53.384,115.392 29.773,101.78 6.162,88.167 			"/>
		</g>
		<g>
			<path d="M133.832,37.456h14.48c7.325,0,12.917,1.924,16.776,5.774c3.861,3.85,5.789,8.825,5.789,14.925
				c0,5.982-1.909,10.923-5.73,14.821c-3.821,3.9-9.245,5.849-16.272,5.849h-15.044V37.456z M137.03,40.122V76.16h11.667
				c5.351,0,9.806-1.645,13.371-4.93c3.563-3.287,5.345-7.645,5.345-13.075c0-5.31-1.758-9.643-5.271-13
				c-3.513-3.356-8.065-5.034-13.651-5.034H137.03z"/>
			<path d="M203.901,37.16l19.125,41.665h-3.355l-6.545-14.302h-20.232l-6.519,14.302h-3.357l19.125-41.665H203.901z
				 M211.908,61.857l-8.916-19.485l-8.882,19.485H211.908z"/>
			<path d="M262.766,37.456v2.665h-15.517v38.703h-3.228V40.122h-15.518v-2.665H262.766z"/>
			<path d="M289.488,37.16l19.125,41.665h-3.355l-6.545-14.302h-20.232l-6.519,14.302h-3.357L287.73,37.16H289.488z M297.495,61.857
				l-8.916-19.485l-8.882,19.485H297.495z"/>
			<path d="M367.409,37.16l19.125,41.665h-3.355l-6.545-14.302h-20.232l-6.519,14.302h-3.357l19.125-41.665H367.409z
				 M375.416,61.857l-8.916-19.485l-8.882,19.485H375.416z"/>
			<path d="M419.909,52.381v3.228c-2.605-1.145-4.966-1.717-7.077-1.717c-3.041,0-5.513,1.055-7.42,3.168
				c-1.905,2.113-2.857,4.857-2.857,8.232c0,3.435,0.952,6.165,2.857,8.188c1.907,2.024,4.458,3.035,7.656,3.035
				c2.329,0,4.777-0.524,7.344-1.569v3.02c-2.724,0.928-5.251,1.393-7.58,1.393c-3.99,0-7.211-1.264-9.67-3.791
				c-2.458-2.526-3.686-5.843-3.686-9.949c0-4.283,1.238-7.783,3.716-10.498c2.478-2.714,5.642-4.071,9.491-4.071
				C414.797,51.049,417.205,51.492,419.909,52.381z"/>
			<path d="M447.079,42.55v9.032h7.642v2.369h-7.642v16.199c0,2.606,0.212,4.319,0.637,5.138c0.425,0.819,1.565,1.228,3.42,1.228
				c1.422,0,3.081-0.444,4.976-1.333v2.783c-1.914,0.928-3.791,1.393-5.626,1.393c-1.797,0-3.297-0.514-4.501-1.54
				c-1.204-1.028-1.805-2.448-1.805-4.265V53.95h-7.344v-2.369h7.344v-6.485l1.984-2.546H447.079z"/>
		</g>
	</g>
	<g>
		<g>
			<path d="M137.15,111.855h-2.797v-8.263h2.164c0.682,0,1.214,0.091,1.597,0.276c0.383,0.183,0.675,0.434,0.875,0.756
				c0.202,0.321,0.302,0.694,0.302,1.115c0,0.813-0.419,1.395-1.26,1.746c0.603,0.113,1.083,0.363,1.44,0.744
				c0.357,0.383,0.536,0.841,0.536,1.373c0,0.423-0.109,0.8-0.325,1.131s-0.536,0.601-0.954,0.809
				C138.306,111.749,137.781,111.855,137.15,111.855z M136.553,104.645h-1.018v2.484h0.788c0.631,0,1.079-0.121,1.345-0.361
				s0.399-0.552,0.399-0.934C138.066,105.042,137.562,104.645,136.553,104.645z M136.642,108.182h-1.107v2.619h1.165
				c0.647,0,1.087-0.05,1.317-0.151c0.23-0.099,0.415-0.256,0.555-0.47c0.141-0.212,0.21-0.44,0.21-0.686
				c0-0.252-0.073-0.482-0.222-0.69c-0.147-0.21-0.357-0.365-0.629-0.468C137.658,108.232,137.229,108.182,136.642,108.182z"/>
			<path d="M143.352,103.592h4.686v1.053h-3.502v2.52h3.383v1.057h-3.383v2.567h3.613v1.053h-4.797V103.592z"/>
			<path d="M150.886,103.58h6.902v1.053h-2.881v7.221h-1.188v-7.221h-2.833V103.58z"/>
			<path d="M160.383,103.58h6.902v1.053h-2.881v7.221h-1.188v-7.221h-2.833V103.58z"/>
			<path d="M170.583,103.592h4.686v1.053h-3.502v2.52h3.383v1.057h-3.383v2.567h3.613v1.053h-4.797V103.592z"/>
			<path d="M178.855,111.855v-8.263h2.069c0.837,0,1.5,0.206,1.99,0.621c0.492,0.415,0.738,0.974,0.738,1.68
				c0,0.48-0.121,0.897-0.361,1.248c-0.242,0.351-0.585,0.613-1.036,0.786c0.264,0.175,0.522,0.411,0.776,0.71
				c0.252,0.3,0.607,0.823,1.063,1.567c0.288,0.47,0.52,0.823,0.692,1.059l0.438,0.591h-1.409l-0.361-0.544
				c-0.01-0.02-0.034-0.054-0.069-0.101l-0.23-0.325l-0.367-0.603l-0.395-0.647c-0.246-0.339-0.468-0.609-0.673-0.809
				c-0.202-0.2-0.387-0.345-0.55-0.434c-0.165-0.087-0.44-0.133-0.827-0.133h-0.308v3.597H178.855z M180.393,104.597h-0.355v2.609
				h0.45c0.599,0,1.01-0.052,1.232-0.155c0.222-0.101,0.397-0.258,0.522-0.464c0.123-0.206,0.184-0.442,0.184-0.706
				c0-0.26-0.067-0.496-0.206-0.706c-0.137-0.212-0.331-0.361-0.583-0.446C181.387,104.641,180.972,104.597,180.393,104.597z"/>
			<path d="M193.874,111.843v-8.251h2.787c1.123,0,2.012,0.169,2.666,0.506c0.655,0.337,1.174,0.833,1.561,1.488
				c0.387,0.655,0.579,1.369,0.579,2.141c0,0.552-0.105,1.081-0.319,1.585c-0.212,0.504-0.516,0.948-0.911,1.331
				c-0.401,0.395-0.869,0.692-1.401,0.893c-0.311,0.123-0.597,0.204-0.859,0.246c-0.26,0.042-0.756,0.062-1.49,0.062H193.874z
				 M196.536,104.645h-1.478v6.144h1.514c0.591,0,1.049-0.04,1.377-0.121c0.327-0.079,0.601-0.183,0.819-0.308
				c0.22-0.123,0.421-0.276,0.601-0.458c0.583-0.591,0.875-1.339,0.875-2.242c0-0.887-0.3-1.611-0.899-2.17
				c-0.22-0.208-0.474-0.381-0.76-0.514c-0.286-0.135-0.557-0.224-0.813-0.266C197.516,104.667,197.103,104.645,196.536,104.645z"/>
			<path d="M207.098,103.544h0.831l3.704,8.311h-1.21l-1.101-2.448h-3.525l-1.032,2.448h-1.216L207.098,103.544z M208.836,108.353
				l-1.333-2.992l-1.236,2.992H208.836z"/>
			<path d="M212.804,103.58h6.902v1.053h-2.881v7.221h-1.188v-7.221h-2.833V103.58z"/>
			<path d="M224.43,103.544h0.831l3.704,8.311h-1.21l-1.101-2.448h-3.525l-1.032,2.448h-1.216L224.43,103.544z M226.167,108.353
				l-1.333-2.992l-1.236,2.992H226.167z"/>
			<path d="M232.458,110.535c0.2,0,0.373,0.069,0.514,0.208c0.143,0.137,0.214,0.308,0.214,0.508c0,0.196-0.071,0.363-0.21,0.496
				c-0.141,0.135-0.313,0.202-0.518,0.202c-0.2,0-0.371-0.067-0.508-0.202c-0.139-0.133-0.208-0.3-0.208-0.496
				c0-0.2,0.069-0.371,0.208-0.508C232.087,110.605,232.258,110.535,232.458,110.535z"/>
			<path d="M249.564,111.855h-2.797v-8.263h2.164c0.682,0,1.214,0.091,1.597,0.276c0.383,0.183,0.675,0.434,0.875,0.756
				c0.202,0.321,0.302,0.694,0.302,1.115c0,0.813-0.419,1.395-1.26,1.746c0.603,0.113,1.083,0.363,1.44,0.744
				c0.357,0.383,0.536,0.841,0.536,1.373c0,0.423-0.109,0.8-0.325,1.131c-0.216,0.331-0.536,0.601-0.954,0.809
				C250.72,111.749,250.194,111.855,249.564,111.855z M248.966,104.645h-1.018v2.484h0.788c0.631,0,1.079-0.121,1.345-0.361
				c0.266-0.24,0.399-0.552,0.399-0.934C250.48,105.042,249.976,104.645,248.966,104.645z M249.056,108.182h-1.107v2.619h1.165
				c0.647,0,1.087-0.05,1.317-0.151c0.23-0.099,0.415-0.256,0.555-0.47c0.141-0.212,0.21-0.44,0.21-0.686
				c0-0.252-0.073-0.482-0.222-0.69c-0.147-0.21-0.357-0.365-0.629-0.468C250.071,108.232,249.643,108.182,249.056,108.182z"/>
			<path d="M255.765,103.592h4.686v1.053h-3.502v2.52h3.383v1.057h-3.383v2.567h3.613v1.053h-4.797V103.592z"/>
			<path d="M263.3,103.58h6.902v1.053h-2.881v7.221h-1.188v-7.221H263.3V103.58z"/>
			<path d="M272.795,103.58h6.902v1.053h-2.881v7.221h-1.188v-7.221h-2.833V103.58z"/>
			<path d="M282.996,103.592h4.684v1.053h-3.502v2.52h3.383v1.057h-3.383v2.567h3.615v1.053h-4.797V103.592z"/>
			<path d="M291.269,111.855v-8.263h2.069c0.837,0,1.5,0.206,1.99,0.621c0.492,0.415,0.738,0.974,0.738,1.68
				c0,0.48-0.121,0.897-0.361,1.248c-0.242,0.351-0.585,0.613-1.036,0.786c0.264,0.175,0.522,0.411,0.776,0.71
				c0.252,0.3,0.607,0.823,1.063,1.567c0.288,0.47,0.52,0.823,0.692,1.059l0.438,0.591h-1.409l-0.361-0.544
				c-0.01-0.02-0.034-0.054-0.069-0.101l-0.23-0.325l-0.367-0.603l-0.395-0.647c-0.246-0.339-0.468-0.609-0.673-0.809
				c-0.202-0.2-0.387-0.345-0.55-0.434c-0.165-0.087-0.44-0.133-0.827-0.133h-0.307v3.597H291.269z M292.807,104.597h-0.355v2.609
				h0.45c0.599,0,1.01-0.052,1.232-0.155c0.222-0.101,0.397-0.258,0.522-0.464c0.123-0.206,0.184-0.442,0.184-0.706
				c0-0.26-0.067-0.496-0.206-0.706c-0.137-0.212-0.331-0.361-0.583-0.446C293.801,104.641,293.386,104.597,292.807,104.597z"/>
			<path d="M306.287,111.843v-8.251h2.787c1.123,0,2.012,0.169,2.666,0.506c0.655,0.337,1.174,0.833,1.561,1.488
				s0.579,1.369,0.579,2.141c0,0.552-0.105,1.081-0.319,1.585c-0.212,0.504-0.516,0.948-0.911,1.331
				c-0.401,0.395-0.869,0.692-1.401,0.893c-0.311,0.123-0.597,0.204-0.859,0.246c-0.26,0.042-0.756,0.062-1.49,0.062H306.287z
				 M308.95,104.645h-1.478v6.144h1.514c0.591,0,1.049-0.04,1.377-0.121c0.327-0.079,0.601-0.183,0.819-0.308
				c0.22-0.123,0.421-0.276,0.601-0.458c0.583-0.591,0.875-1.339,0.875-2.242c0-0.887-0.3-1.611-0.899-2.17
				c-0.22-0.208-0.474-0.381-0.76-0.514c-0.286-0.135-0.557-0.224-0.813-0.266C309.93,104.667,309.517,104.645,308.95,104.645z"/>
			<path d="M317.54,103.592h4.684v1.053h-3.5v2.52h3.383v1.057h-3.383v2.567h3.613v1.053h-4.797V103.592z"/>
			<path d="M332.899,109.938v1.301c-0.869,0.472-1.869,0.71-3.006,0.71c-0.923,0-1.706-0.186-2.347-0.557
				c-0.643-0.369-1.153-0.881-1.528-1.532c-0.373-0.651-0.561-1.353-0.561-2.111c0-1.202,0.429-2.214,1.288-3.033
				c0.857-0.821,1.914-1.232,3.172-1.232c0.867,0,1.831,0.228,2.893,0.68v1.272c-0.966-0.552-1.91-0.827-2.833-0.827
				c-0.946,0-1.732,0.298-2.357,0.897c-0.625,0.597-0.938,1.345-0.938,2.244c0,0.907,0.307,1.653,0.923,2.236
				s1.403,0.875,2.361,0.875C330.967,110.861,331.945,110.553,332.899,109.938z"/>
			<path d="M336.546,103.592h1.182v8.263h-1.182V103.592z"/>
			<path d="M343.791,108.393l-0.899-0.546c-0.565-0.345-0.966-0.684-1.204-1.018c-0.238-0.333-0.359-0.716-0.359-1.151
				c0-0.649,0.226-1.178,0.678-1.583c0.45-0.407,1.038-0.611,1.76-0.611c0.69,0,1.323,0.194,1.899,0.581v1.343
				c-0.595-0.573-1.236-0.859-1.922-0.859c-0.387,0-0.704,0.089-0.952,0.268s-0.373,0.409-0.373,0.686
				c0,0.248,0.091,0.48,0.274,0.696c0.185,0.214,0.478,0.442,0.883,0.68l0.905,0.534c1.008,0.601,1.512,1.369,1.512,2.299
				c0,0.663-0.222,1.2-0.667,1.615c-0.442,0.413-1.02,0.621-1.73,0.621c-0.815,0-1.559-0.252-2.23-0.754v-1.502
				c0.639,0.809,1.379,1.214,2.218,1.214c0.371,0,0.68-0.103,0.926-0.309c0.246-0.206,0.369-0.464,0.369-0.776
				C344.878,109.321,344.515,108.843,343.791,108.393z"/>
			<path d="M349.483,103.592h1.182v8.263h-1.182V103.592z"/>
			<path d="M358.738,103.473c1.278,0,2.341,0.405,3.192,1.214c0.849,0.807,1.274,1.821,1.274,3.039c0,1.218-0.428,2.228-1.286,3.025
				c-0.859,0.798-1.94,1.198-3.244,1.198c-1.248,0-2.285-0.401-3.115-1.198c-0.831-0.798-1.246-1.799-1.246-3.002
				c0-1.234,0.419-2.256,1.254-3.063C356.405,103.877,357.46,103.473,358.738,103.473z M358.785,104.597
				c-0.946,0-1.724,0.296-2.333,0.887c-0.609,0.591-0.915,1.347-0.915,2.266c0,0.891,0.306,1.633,0.919,2.224
				c0.611,0.591,1.375,0.887,2.293,0.887c0.922,0,1.692-0.302,2.309-0.905c0.619-0.603,0.926-1.355,0.926-2.254
				c0-0.875-0.307-1.611-0.926-2.208C360.442,104.895,359.684,104.597,358.785,104.597z"/>
			<path d="M373.397,103.592h1.125v8.263h-1.018l-5.523-6.364v6.364h-1.113v-8.263h0.958l5.571,6.418V103.592z"/>
			<path d="M380.517,108.393l-0.899-0.546c-0.565-0.345-0.966-0.684-1.204-1.018c-0.238-0.333-0.359-0.716-0.359-1.151
				c0-0.649,0.226-1.178,0.678-1.583c0.45-0.407,1.038-0.611,1.76-0.611c0.69,0,1.323,0.194,1.899,0.581v1.343
				c-0.595-0.573-1.236-0.859-1.922-0.859c-0.387,0-0.704,0.089-0.952,0.268s-0.373,0.409-0.373,0.686
				c0,0.248,0.091,0.48,0.274,0.696c0.184,0.214,0.478,0.442,0.883,0.68l0.905,0.534c1.008,0.601,1.512,1.369,1.512,2.299
				c0,0.663-0.222,1.2-0.667,1.615c-0.442,0.413-1.02,0.621-1.73,0.621c-0.815,0-1.559-0.252-2.23-0.754v-1.502
				c0.639,0.809,1.379,1.214,2.218,1.214c0.371,0,0.68-0.103,0.926-0.309c0.246-0.206,0.369-0.464,0.369-0.776
				C381.604,109.321,381.241,108.843,380.517,108.393z"/>
			<path d="M386.607,110.535c0.2,0,0.373,0.069,0.514,0.208c0.143,0.137,0.214,0.308,0.214,0.508c0,0.196-0.071,0.363-0.21,0.496
				c-0.141,0.135-0.313,0.202-0.518,0.202c-0.202,0-0.371-0.067-0.51-0.202c-0.137-0.133-0.206-0.3-0.206-0.496
				c0-0.2,0.069-0.371,0.206-0.508C386.236,110.605,386.405,110.535,386.607,110.535z"/>
			<path d="M137.15,132.461h-2.797v-8.263h2.164c0.682,0,1.214,0.091,1.597,0.276c0.383,0.183,0.675,0.434,0.875,0.756
				c0.202,0.321,0.302,0.694,0.302,1.115c0,0.813-0.419,1.395-1.26,1.746c0.603,0.113,1.083,0.363,1.44,0.744
				c0.357,0.383,0.536,0.841,0.536,1.373c0,0.423-0.109,0.8-0.325,1.131s-0.536,0.601-0.954,0.809
				C138.306,132.356,137.781,132.461,137.15,132.461z M136.553,125.252h-1.018v2.484h0.788c0.631,0,1.079-0.121,1.345-0.361
				s0.399-0.552,0.399-0.934C138.066,125.649,137.562,125.252,136.553,125.252z M136.642,128.789h-1.107v2.619h1.165
				c0.647,0,1.087-0.05,1.317-0.151c0.23-0.099,0.415-0.256,0.555-0.47c0.141-0.212,0.21-0.44,0.21-0.686
				c0-0.252-0.073-0.482-0.222-0.69c-0.147-0.21-0.357-0.365-0.629-0.468C137.658,128.839,137.229,128.789,136.642,128.789z"/>
			<path d="M143.352,124.198h4.686v1.053h-3.502v2.52h3.383v1.057h-3.383v2.567h3.613v1.053h-4.797V124.198z"/>
			<path d="M150.886,124.187h6.902v1.053h-2.881v7.221h-1.188v-7.221h-2.833V124.187z"/>
			<path d="M160.383,124.187h6.902v1.053h-2.881v7.221h-1.188v-7.221h-2.833V124.187z"/>
			<path d="M170.583,124.198h4.686v1.053h-3.502v2.52h3.383v1.057h-3.383v2.567h3.613v1.053h-4.797V124.198z"/>
			<path d="M178.855,132.461v-8.263h2.069c0.837,0,1.5,0.206,1.99,0.621c0.492,0.415,0.738,0.974,0.738,1.68
				c0,0.48-0.121,0.897-0.361,1.248c-0.242,0.351-0.585,0.613-1.036,0.786c0.264,0.175,0.522,0.411,0.776,0.71
				c0.252,0.3,0.607,0.823,1.063,1.567c0.288,0.47,0.52,0.823,0.692,1.059l0.438,0.591h-1.409l-0.361-0.544
				c-0.01-0.02-0.034-0.054-0.069-0.101l-0.23-0.325l-0.367-0.603l-0.395-0.647c-0.246-0.339-0.468-0.609-0.673-0.809
				c-0.202-0.2-0.387-0.345-0.55-0.434c-0.165-0.087-0.44-0.133-0.827-0.133h-0.308v3.597H178.855z M180.393,125.204h-0.355v2.609
				h0.45c0.599,0,1.01-0.052,1.232-0.155c0.222-0.101,0.397-0.258,0.522-0.464c0.123-0.206,0.184-0.442,0.184-0.706
				c0-0.26-0.067-0.496-0.206-0.706c-0.137-0.212-0.331-0.361-0.583-0.446C181.387,125.248,180.972,125.204,180.393,125.204z"/>
			<path d="M198.327,128.392h2.775v3.502c-1.018,0.44-2.028,0.663-3.029,0.663c-1.369,0-2.462-0.401-3.279-1.198
				c-0.819-0.798-1.228-1.784-1.228-2.954c0-1.234,0.425-2.262,1.272-3.081c0.849-0.821,1.91-1.232,3.188-1.232
				c0.466,0,0.907,0.052,1.325,0.151c0.419,0.101,0.946,0.286,1.585,0.554v1.206c-0.986-0.571-1.964-0.857-2.934-0.857
				c-0.903,0-1.663,0.308-2.281,0.923c-0.621,0.615-0.93,1.371-0.93,2.266c0,0.938,0.309,1.706,0.93,2.301
				c0.619,0.595,1.415,0.893,2.389,0.893c0.472,0,1.04-0.109,1.698-0.325l0.111-0.036v-1.72h-1.591V128.392z"/>
			<path d="M209.066,124.079c1.278,0,2.341,0.405,3.19,1.214c0.851,0.807,1.276,1.821,1.276,3.039c0,1.218-0.429,2.228-1.286,3.025
				c-0.859,0.798-1.94,1.198-3.246,1.198c-1.246,0-2.283-0.401-3.113-1.198c-0.831-0.798-1.246-1.799-1.246-3.002
				c0-1.234,0.419-2.256,1.254-3.063C206.731,124.484,207.789,124.079,209.066,124.079z M209.114,125.204
				c-0.946,0-1.724,0.296-2.333,0.887c-0.609,0.591-0.915,1.347-0.915,2.266c0,0.891,0.306,1.633,0.917,2.224
				c0.611,0.591,1.377,0.887,2.295,0.887c0.923,0,1.692-0.302,2.309-0.905s0.926-1.355,0.926-2.254c0-0.875-0.309-1.611-0.926-2.208
				C210.77,125.502,210.013,125.204,209.114,125.204z"/>
			<path d="M221.91,124.198h1.178l-3.494,8.299h-0.268l-3.561-8.299h1.19l2.486,5.803L221.91,124.198z"/>
			<path d="M226.173,124.198h4.684v1.053h-3.502v2.52h3.383v1.057h-3.383v2.567h3.615v1.053h-4.797V124.198z"/>
			<path d="M234.446,132.461v-8.263h2.069c0.837,0,1.5,0.206,1.99,0.621c0.492,0.415,0.738,0.974,0.738,1.68
				c0,0.48-0.121,0.897-0.361,1.248c-0.242,0.351-0.585,0.613-1.036,0.786c0.264,0.175,0.522,0.411,0.776,0.71
				c0.252,0.3,0.607,0.823,1.063,1.567c0.288,0.47,0.52,0.823,0.692,1.059l0.438,0.591h-1.409l-0.361-0.544
				c-0.01-0.02-0.034-0.054-0.069-0.101l-0.23-0.325l-0.367-0.603l-0.395-0.647c-0.246-0.339-0.468-0.609-0.673-0.809
				c-0.202-0.2-0.387-0.345-0.55-0.434c-0.165-0.087-0.44-0.133-0.827-0.133h-0.308v3.597H234.446z M235.984,125.204h-0.355v2.609
				h0.45c0.599,0,1.01-0.052,1.232-0.155c0.222-0.101,0.397-0.258,0.522-0.464c0.123-0.206,0.185-0.442,0.185-0.706
				c0-0.26-0.067-0.496-0.206-0.706c-0.137-0.212-0.331-0.361-0.583-0.446C236.978,125.248,236.563,125.204,235.984,125.204z"/>
			<path d="M250.472,124.198h1.125v8.263h-1.018l-5.525-6.364v6.364h-1.111v-8.263h0.958l5.571,6.418V124.198z"/>
			<path d="M262.116,124.198h1.107v8.263h-1.19v-6.43l-2.539,3.194h-0.218l-2.571-3.194v6.43h-1.182v-8.263h1.119l2.746,3.394
				L262.116,124.198z"/>
			<path d="M267.183,124.198h4.686v1.053h-3.502v2.52h3.383v1.057h-3.383v2.567h3.613v1.053h-4.797V124.198z"/>
			<path d="M281.986,124.198h1.123v8.263h-1.018l-5.523-6.364v6.364h-1.113v-8.263h0.958l5.573,6.418V124.198z"/>
			<path d="M286.355,124.187h6.902v1.053h-2.881v7.221h-1.188v-7.221h-2.833V124.187z"/>
			<path d="M295.449,131.142c0.2,0,0.371,0.069,0.514,0.208c0.143,0.137,0.212,0.308,0.212,0.508c0,0.196-0.069,0.363-0.21,0.496
				c-0.139,0.135-0.311,0.202-0.516,0.202c-0.202,0-0.371-0.067-0.51-0.202c-0.137-0.133-0.206-0.3-0.206-0.496
				c0-0.2,0.069-0.371,0.206-0.508C295.078,131.212,295.247,131.142,295.449,131.142z"/>
		</g>
	</g>
</g>
</svg>
