<?xml version="1.0" encoding="utf-8"?>
<!-- Generator: Adobe Illustrator 19.2.0, SVG Export Plug-In . SVG Version: 6.00 Build 0)  -->
<svg version="1.1" id="Layer_1" xmlns="http://www.w3.org/2000/svg" xmlns:xlink="http://www.w3.org/1999/xlink" x="0px" y="0px"
	 viewBox="0 0 233.333 74" enable-background="new 0 0 233.333 74" xml:space="preserve">
<g>
	<g>
		<polygon points="29.365,33.072 40.985,39.776 52.605,46.48 40.989,53.192 29.373,59.903 29.369,46.488 		"/>
		<polygon fill="#EFE6DE" points="29.365,33.072 17.738,26.379 6.111,19.685 17.721,12.963 29.331,6.241 29.348,19.656 		"/>
		<polygon fill="#EF4136" points="29.365,33.072 29.344,19.656 29.323,6.241 40.952,12.931 52.58,19.62 52.601,19.656 
			52.601,33.072 52.601,46.488 40.983,39.78 		"/>
		<polygon fill="#1C75BC" points="6.141,46.509 6.128,33.094 6.116,19.678 17.74,26.375 29.365,33.072 29.373,46.488 29.381,59.903 
			17.759,53.203 6.136,46.502 		"/>
		<polygon points="29.365,33.072 40.985,39.776 52.605,46.48 40.989,53.192 29.373,59.903 29.369,46.488 		"/>
		<polygon fill="#EFE6DE" points="29.365,33.072 17.738,26.379 6.111,19.685 17.721,12.963 29.331,6.241 29.348,19.656 		"/>
		<polygon fill="#1C75BC" points="29.365,33.072 29.344,19.656 29.323,6.241 40.952,12.931 52.58,19.62 52.601,19.656 
			52.601,33.072 52.601,46.488 40.983,39.78 		"/>
		<polygon fill="#EF4136" points="6.141,46.509 6.128,33.094 6.116,19.678 17.74,26.375 29.365,33.072 29.373,46.488 29.381,59.903 
			17.759,53.203 6.136,46.502 		"/>
	</g>
	<g>
		<path d="M68.981,21.54h7.128c3.605,0,6.358,0.947,8.258,2.842c1.9,1.895,2.85,4.344,2.85,7.347c0,2.945-0.939,5.377-2.82,7.295
			c-1.881,1.92-4.551,2.879-8.01,2.879h-7.405V21.54z M70.555,22.852v17.74h5.743c2.634,0,4.827-0.81,6.582-2.427
			c1.754-1.618,2.631-3.763,2.631-6.436c0-2.614-0.865-4.747-2.595-6.399c-1.729-1.652-3.97-2.478-6.72-2.478H70.555z"/>
		<path d="M103.472,21.394l9.414,20.509h-1.651l-3.222-7.04h-9.959l-3.209,7.04h-1.652l9.414-20.509H103.472z M107.414,33.551
			l-4.389-9.591l-4.372,9.591H107.414z"/>
		<path d="M132.448,21.54v1.312h-7.638v19.051h-1.589V22.852h-7.639V21.54H132.448z"/>
		<path d="M145.602,21.394l9.414,20.509h-1.651l-3.222-7.04h-9.959l-3.209,7.04h-1.652l9.414-20.509H145.602z M149.543,33.551
			l-4.389-9.591l-4.372,9.591H149.543z"/>
		<path d="M183.958,21.394l9.414,20.509h-1.651l-3.222-7.04h-9.959l-3.209,7.04h-1.652l9.414-20.509H183.958z M187.899,33.551
			l-4.389-9.591l-4.372,9.591H187.899z"/>
		<path d="M209.801,28.887v1.589c-1.282-0.563-2.444-0.845-3.483-0.845c-1.497,0-2.714,0.52-3.652,1.56
			c-0.938,1.04-1.406,2.391-1.406,4.052c0,1.691,0.469,3.035,1.406,4.03c0.938,0.996,2.194,1.494,3.769,1.494
			c1.146,0,2.352-0.258,3.615-0.772v1.486c-1.341,0.457-2.585,0.686-3.731,0.686c-1.964,0-3.55-0.622-4.76-1.866
			c-1.21-1.243-1.814-2.876-1.814-4.897c0-2.108,0.609-3.831,1.829-5.167c1.22-1.336,2.777-2.004,4.672-2.004
			C207.284,28.231,208.47,28.449,209.801,28.887z"/>
		<path d="M223.175,24.047v4.446h3.762v1.166h-3.762v7.974c0,1.283,0.104,2.126,0.313,2.529s0.771,0.604,1.684,0.604
			c0.7,0,1.517-0.219,2.449-0.656v1.37c-0.942,0.457-1.866,0.686-2.77,0.686c-0.885,0-1.623-0.253-2.216-0.758
			c-0.593-0.506-0.889-1.205-0.889-2.1v-9.649h-3.615v-1.166h3.615v-3.192l0.977-1.253H223.175z"/>
	</g>
</g>
<g>
	<g>
		<path d="M70.614,58.162h-1.377v-4.067h1.065c0.336,0,0.598,0.045,0.786,0.136c0.188,0.09,0.332,0.214,0.431,0.372
			c0.1,0.158,0.148,0.342,0.148,0.549c0,0.4-0.206,0.687-0.62,0.859c0.297,0.056,0.533,0.179,0.709,0.366
			c0.176,0.188,0.264,0.414,0.264,0.676c0,0.208-0.054,0.394-0.16,0.557s-0.264,0.296-0.47,0.398
			C71.184,58.11,70.925,58.162,70.614,58.162z M70.32,54.613h-0.501v1.223h0.388c0.311,0,0.531-0.06,0.662-0.178
			s0.196-0.271,0.196-0.46C71.065,54.809,70.817,54.613,70.32,54.613z M70.364,56.354h-0.545v1.289h0.573
			c0.318,0,0.535-0.024,0.648-0.074c0.113-0.049,0.204-0.126,0.273-0.231c0.069-0.104,0.104-0.217,0.104-0.338
			c0-0.124-0.036-0.237-0.109-0.34c-0.072-0.104-0.176-0.18-0.31-0.23C70.864,56.379,70.653,56.354,70.364,56.354z"/>
		<path d="M73.667,54.095h2.307v0.519H74.25v1.24h1.665v0.521H74.25v1.264h1.778v0.519h-2.361V54.095z"/>
		<path d="M77.376,54.089h3.397v0.519h-1.418v3.555h-0.585v-3.555h-1.395V54.089z"/>
		<path d="M82.051,54.089h3.397v0.519H84.03v3.555h-0.585v-3.555h-1.395V54.089z"/>
		<path d="M87.071,54.095h2.307v0.519h-1.724v1.24h1.665v0.521h-1.665v1.264h1.778v0.519h-2.361V54.095z"/>
		<path d="M91.144,58.162v-4.067h1.019c0.412,0,0.738,0.102,0.979,0.306c0.242,0.204,0.363,0.479,0.363,0.827
			c0,0.236-0.06,0.441-0.178,0.614c-0.119,0.173-0.288,0.302-0.51,0.387c0.13,0.086,0.257,0.202,0.382,0.35
			c0.124,0.147,0.299,0.405,0.523,0.771c0.142,0.231,0.256,0.405,0.341,0.521l0.216,0.291h-0.693l-0.178-0.268
			c-0.005-0.01-0.017-0.026-0.034-0.05l-0.113-0.16l-0.181-0.297l-0.194-0.318c-0.121-0.167-0.23-0.3-0.331-0.398
			c-0.1-0.099-0.19-0.17-0.271-0.214c-0.081-0.043-0.217-0.065-0.407-0.065h-0.151v1.771H91.144z M91.9,54.59h-0.175v1.284h0.222
			c0.295,0,0.497-0.025,0.606-0.076c0.109-0.05,0.195-0.127,0.257-0.229c0.061-0.102,0.091-0.218,0.091-0.348
			c0-0.128-0.033-0.244-0.102-0.348c-0.067-0.104-0.163-0.178-0.287-0.22C92.39,54.611,92.186,54.59,91.9,54.59z"/>
		<path d="M98.536,58.156v-4.062h1.372c0.553,0,0.99,0.083,1.312,0.249s0.578,0.41,0.769,0.732s0.285,0.674,0.285,1.054
			c0,0.271-0.052,0.532-0.157,0.78c-0.104,0.248-0.254,0.467-0.448,0.655c-0.197,0.194-0.428,0.341-0.689,0.439
			c-0.153,0.061-0.294,0.101-0.423,0.121c-0.128,0.021-0.372,0.03-0.733,0.03H98.536z M99.847,54.613h-0.728v3.024h0.745
			c0.291,0,0.517-0.02,0.678-0.06c0.161-0.039,0.296-0.09,0.403-0.151c0.108-0.061,0.207-0.136,0.296-0.226
			c0.287-0.291,0.431-0.659,0.431-1.104c0-0.437-0.147-0.793-0.442-1.068c-0.108-0.103-0.233-0.188-0.374-0.253
			c-0.141-0.066-0.274-0.11-0.4-0.131C100.329,54.624,100.126,54.613,99.847,54.613z"/>
		<path d="M105.046,54.071h0.409l1.823,4.091h-0.596l-0.542-1.205h-1.735l-0.508,1.205h-0.599L105.046,54.071z M105.901,56.438
			l-0.656-1.473l-0.608,1.473H105.901z"/>
		<path d="M107.854,54.089h3.397v0.519h-1.418v3.555h-0.585v-3.555h-1.395V54.089z"/>
		<path d="M113.577,54.071h0.409l1.823,4.091h-0.596l-0.542-1.205h-1.735l-0.508,1.205h-0.599L113.577,54.071z M114.433,56.438
			l-0.656-1.473l-0.608,1.473H114.433z"/>
		<path d="M117.529,57.513c0.099,0,0.184,0.034,0.253,0.103c0.07,0.067,0.105,0.151,0.105,0.25c0,0.097-0.035,0.179-0.104,0.244
			c-0.069,0.066-0.154,0.1-0.255,0.1c-0.099,0-0.183-0.033-0.25-0.1c-0.068-0.065-0.103-0.147-0.103-0.244
			c0-0.099,0.034-0.183,0.103-0.25C117.347,57.547,117.431,57.513,117.529,57.513z"/>
		<path d="M125.949,58.162h-1.377v-4.067h1.065c0.336,0,0.598,0.045,0.786,0.136c0.188,0.09,0.332,0.214,0.431,0.372
			c0.1,0.158,0.148,0.342,0.148,0.549c0,0.4-0.206,0.687-0.62,0.859c0.297,0.056,0.533,0.179,0.709,0.366
			c0.176,0.188,0.264,0.414,0.264,0.676c0,0.208-0.054,0.394-0.16,0.557s-0.264,0.296-0.47,0.398
			C126.519,58.11,126.26,58.162,125.949,58.162z M125.655,54.613h-0.501v1.223h0.388c0.311,0,0.531-0.06,0.662-0.178
			s0.196-0.271,0.196-0.46C126.4,54.809,126.152,54.613,125.655,54.613z M125.699,56.354h-0.545v1.289h0.573
			c0.318,0,0.535-0.024,0.648-0.074c0.113-0.049,0.204-0.126,0.273-0.231c0.069-0.104,0.104-0.217,0.104-0.338
			c0-0.124-0.036-0.237-0.109-0.34c-0.072-0.104-0.176-0.18-0.31-0.23C126.199,56.379,125.988,56.354,125.699,56.354z"/>
		<path d="M129.002,54.095h2.307v0.519h-1.724v1.24h1.665v0.521h-1.665v1.264h1.778v0.519h-2.361V54.095z"/>
		<path d="M132.711,54.089h3.397v0.519h-1.418v3.555h-0.585v-3.555h-1.395V54.089z"/>
		<path d="M137.385,54.089h3.397v0.519h-1.418v3.555h-0.585v-3.555h-1.395V54.089z"/>
		<path d="M142.406,54.095h2.306v0.519h-1.724v1.24h1.665v0.521h-1.665v1.264h1.779v0.519h-2.361V54.095z"/>
		<path d="M146.479,58.162v-4.067h1.019c0.412,0,0.738,0.102,0.979,0.306c0.242,0.204,0.363,0.479,0.363,0.827
			c0,0.236-0.06,0.441-0.178,0.614c-0.119,0.173-0.288,0.302-0.51,0.387c0.13,0.086,0.257,0.202,0.382,0.35
			c0.124,0.147,0.299,0.405,0.523,0.771c0.142,0.231,0.256,0.405,0.341,0.521l0.216,0.291h-0.693l-0.178-0.268
			c-0.005-0.01-0.017-0.026-0.034-0.05l-0.113-0.16l-0.181-0.297l-0.194-0.318c-0.121-0.167-0.23-0.3-0.331-0.398
			c-0.1-0.099-0.19-0.17-0.271-0.214c-0.081-0.043-0.217-0.065-0.407-0.065h-0.151v1.771H146.479z M147.235,54.59h-0.175v1.284
			h0.222c0.295,0,0.497-0.025,0.606-0.076c0.109-0.05,0.195-0.127,0.257-0.229c0.061-0.102,0.091-0.218,0.091-0.348
			c0-0.128-0.033-0.244-0.102-0.348c-0.067-0.104-0.163-0.178-0.287-0.22C147.725,54.611,147.521,54.59,147.235,54.59z"/>
		<path d="M153.871,58.156v-4.062h1.372c0.553,0,0.99,0.083,1.312,0.249s0.578,0.41,0.769,0.732s0.285,0.674,0.285,1.054
			c0,0.271-0.052,0.532-0.157,0.78c-0.104,0.248-0.254,0.467-0.448,0.655c-0.197,0.194-0.428,0.341-0.689,0.439
			c-0.153,0.061-0.294,0.101-0.423,0.121c-0.128,0.021-0.372,0.03-0.733,0.03H153.871z M155.182,54.613h-0.728v3.024h0.745
			c0.291,0,0.517-0.02,0.678-0.06c0.161-0.039,0.296-0.09,0.403-0.151c0.108-0.061,0.207-0.136,0.296-0.226
			c0.287-0.291,0.431-0.659,0.431-1.104c0-0.437-0.147-0.793-0.442-1.068c-0.108-0.103-0.233-0.188-0.374-0.253
			c-0.141-0.066-0.274-0.11-0.4-0.131C155.664,54.624,155.461,54.613,155.182,54.613z"/>
		<path d="M159.41,54.095h2.306v0.519h-1.723v1.24h1.665v0.521h-1.665v1.264h1.778v0.519h-2.361V54.095z"/>
		<path d="M166.971,57.219v0.641c-0.428,0.232-0.92,0.35-1.479,0.35c-0.454,0-0.84-0.092-1.155-0.274
			c-0.316-0.182-0.567-0.434-0.752-0.754c-0.184-0.32-0.276-0.666-0.276-1.039c0-0.592,0.211-1.09,0.634-1.493
			c0.422-0.404,0.942-0.606,1.562-0.606c0.427,0,0.901,0.112,1.424,0.335v0.626c-0.476-0.271-0.94-0.407-1.395-0.407
			c-0.466,0-0.853,0.146-1.16,0.441c-0.308,0.294-0.462,0.662-0.462,1.104c0,0.446,0.151,0.813,0.454,1.101s0.69,0.431,1.162,0.431
			C166.02,57.673,166.501,57.521,166.971,57.219z"/>
		<path d="M168.766,54.095h0.582v4.067h-0.582V54.095z"/>
		<path d="M172.332,56.458l-0.442-0.269c-0.278-0.17-0.476-0.337-0.593-0.501s-0.177-0.353-0.177-0.566
			c0-0.319,0.111-0.58,0.334-0.779c0.222-0.2,0.511-0.301,0.866-0.301c0.34,0,0.651,0.096,0.935,0.286v0.661
			c-0.293-0.282-0.608-0.423-0.946-0.423c-0.19,0-0.347,0.044-0.469,0.132s-0.184,0.201-0.184,0.338
			c0,0.122,0.045,0.236,0.135,0.343c0.091,0.105,0.235,0.218,0.435,0.335l0.445,0.263c0.496,0.296,0.744,0.674,0.744,1.132
			c0,0.326-0.109,0.591-0.328,0.795c-0.218,0.203-0.502,0.306-0.852,0.306c-0.401,0-0.768-0.124-1.098-0.371v-0.739
			c0.314,0.398,0.679,0.598,1.092,0.598c0.183,0,0.335-0.051,0.456-0.152s0.182-0.229,0.182-0.382
			C172.867,56.915,172.688,56.68,172.332,56.458z"/>
		<path d="M175.134,54.095h0.582v4.067h-0.582V54.095z"/>
		<path d="M179.689,54.036c0.629,0,1.152,0.199,1.571,0.598c0.418,0.397,0.627,0.896,0.627,1.496s-0.211,1.097-0.633,1.489
			c-0.423,0.393-0.955,0.59-1.597,0.59c-0.614,0-1.125-0.197-1.533-0.59c-0.409-0.393-0.613-0.886-0.613-1.478
			c0-0.607,0.206-1.11,0.617-1.508C178.541,54.235,179.061,54.036,179.689,54.036z M179.713,54.59c-0.466,0-0.849,0.146-1.148,0.437
			s-0.45,0.663-0.45,1.115c0,0.438,0.15,0.804,0.452,1.095c0.301,0.291,0.677,0.437,1.129,0.437c0.454,0,0.833-0.148,1.137-0.445
			c0.305-0.297,0.456-0.667,0.456-1.109c0-0.431-0.151-0.793-0.456-1.087C180.528,54.736,180.155,54.59,179.713,54.59z"/>
		<path d="M186.905,54.095h0.554v4.067h-0.501l-2.719-3.133v3.133h-0.548v-4.067h0.472l2.742,3.159V54.095z"/>
		<path d="M190.41,56.458l-0.442-0.269c-0.278-0.17-0.476-0.337-0.593-0.501s-0.177-0.353-0.177-0.566
			c0-0.319,0.111-0.58,0.334-0.779c0.222-0.2,0.511-0.301,0.866-0.301c0.34,0,0.651,0.096,0.935,0.286v0.661
			c-0.293-0.282-0.608-0.423-0.946-0.423c-0.19,0-0.347,0.044-0.469,0.132s-0.184,0.201-0.184,0.338
			c0,0.122,0.045,0.236,0.135,0.343c0.091,0.105,0.235,0.218,0.435,0.335l0.445,0.263c0.496,0.296,0.744,0.674,0.744,1.132
			c0,0.326-0.109,0.591-0.328,0.795c-0.218,0.203-0.502,0.306-0.852,0.306c-0.401,0-0.768-0.124-1.098-0.371v-0.739
			c0.314,0.398,0.679,0.598,1.092,0.598c0.183,0,0.335-0.051,0.456-0.152s0.182-0.229,0.182-0.382
			C190.945,56.915,190.767,56.68,190.41,56.458z"/>
		<path d="M193.408,57.513c0.099,0,0.184,0.034,0.253,0.103c0.07,0.067,0.105,0.151,0.105,0.25c0,0.097-0.035,0.179-0.104,0.244
			c-0.069,0.066-0.154,0.1-0.255,0.1c-0.1,0-0.183-0.033-0.251-0.1c-0.067-0.065-0.102-0.147-0.102-0.244
			c0-0.099,0.034-0.183,0.102-0.25C193.226,57.547,193.309,57.513,193.408,57.513z"/>
		<path d="M70.614,68.306h-1.377v-4.067h1.065c0.336,0,0.598,0.045,0.786,0.136c0.188,0.09,0.332,0.214,0.431,0.372
			c0.1,0.158,0.148,0.342,0.148,0.549c0,0.4-0.206,0.687-0.62,0.859c0.297,0.056,0.533,0.179,0.709,0.366
			c0.176,0.188,0.264,0.414,0.264,0.676c0,0.208-0.054,0.394-0.16,0.557s-0.264,0.296-0.47,0.398
			C71.184,68.254,70.925,68.306,70.614,68.306z M70.32,64.757h-0.501v1.223h0.388c0.311,0,0.531-0.06,0.662-0.178
			s0.196-0.271,0.196-0.46C71.065,64.952,70.817,64.757,70.32,64.757z M70.364,66.498h-0.545v1.289h0.573
			c0.318,0,0.535-0.024,0.648-0.074c0.113-0.049,0.204-0.126,0.273-0.231c0.069-0.104,0.104-0.217,0.104-0.338
			c0-0.124-0.036-0.237-0.109-0.34c-0.072-0.104-0.176-0.18-0.31-0.23C70.864,66.522,70.653,66.498,70.364,66.498z"/>
		<path d="M73.667,64.238h2.307v0.519H74.25v1.24h1.665v0.521H74.25v1.264h1.778V68.3h-2.361V64.238z"/>
		<path d="M77.376,64.232h3.397v0.519h-1.418v3.555h-0.585v-3.555h-1.395V64.232z"/>
		<path d="M82.051,64.232h3.397v0.519H84.03v3.555h-0.585v-3.555h-1.395V64.232z"/>
		<path d="M87.071,64.238h2.307v0.519h-1.724v1.24h1.665v0.521h-1.665v1.264h1.778V68.3h-2.361V64.238z"/>
		<path d="M91.144,68.306v-4.067h1.019c0.412,0,0.738,0.102,0.979,0.306c0.242,0.204,0.363,0.479,0.363,0.827
			c0,0.236-0.06,0.441-0.178,0.614c-0.119,0.173-0.288,0.302-0.51,0.387c0.13,0.086,0.257,0.202,0.382,0.35
			c0.124,0.147,0.299,0.405,0.523,0.771c0.142,0.231,0.256,0.405,0.341,0.521l0.216,0.291h-0.693l-0.178-0.268
			c-0.005-0.01-0.017-0.026-0.034-0.05l-0.113-0.16l-0.181-0.297l-0.194-0.318c-0.121-0.167-0.23-0.3-0.331-0.398
			c-0.1-0.099-0.19-0.17-0.271-0.214c-0.081-0.043-0.217-0.065-0.407-0.065h-0.151v1.771H91.144z M91.9,64.733h-0.175v1.284h0.222
			c0.295,0,0.497-0.025,0.606-0.076c0.109-0.05,0.195-0.127,0.257-0.229c0.061-0.102,0.091-0.218,0.091-0.348
			c0-0.128-0.033-0.244-0.102-0.348c-0.067-0.104-0.163-0.178-0.287-0.22C92.39,64.755,92.186,64.733,91.9,64.733z"/>
		<path d="M100.729,66.303h1.366v1.724c-0.501,0.217-0.998,0.326-1.491,0.326c-0.674,0-1.212-0.197-1.614-0.59
			c-0.403-0.393-0.604-0.878-0.604-1.454c0-0.607,0.209-1.113,0.626-1.517c0.418-0.404,0.94-0.606,1.569-0.606
			c0.229,0,0.446,0.025,0.652,0.074c0.206,0.05,0.466,0.141,0.78,0.272v0.594c-0.485-0.281-0.967-0.422-1.444-0.422
			c-0.444,0-0.818,0.151-1.123,0.454c-0.306,0.303-0.458,0.675-0.458,1.115c0,0.462,0.152,0.84,0.458,1.133
			c0.305,0.293,0.696,0.439,1.176,0.439c0.232,0,0.512-0.054,0.836-0.16l0.055-0.018v-0.847h-0.783V66.303z"/>
		<path d="M106.015,64.18c0.629,0,1.152,0.199,1.57,0.598c0.419,0.397,0.628,0.896,0.628,1.496s-0.211,1.097-0.633,1.489
			c-0.423,0.393-0.955,0.59-1.598,0.59c-0.613,0-1.124-0.197-1.532-0.59c-0.409-0.393-0.613-0.886-0.613-1.478
			c0-0.607,0.206-1.11,0.617-1.508C104.865,64.379,105.386,64.18,106.015,64.18z M106.038,64.733c-0.466,0-0.849,0.146-1.148,0.437
			s-0.45,0.663-0.45,1.115c0,0.438,0.15,0.804,0.451,1.095s0.678,0.437,1.13,0.437c0.454,0,0.833-0.148,1.137-0.445
			s0.456-0.667,0.456-1.109c0-0.431-0.152-0.793-0.456-1.087C106.854,64.88,106.48,64.733,106.038,64.733z"/>
		<path d="M112.337,64.238h0.58l-1.72,4.085h-0.132l-1.753-4.085h0.586l1.224,2.856L112.337,64.238z"/>
		<path d="M114.436,64.238h2.306v0.519h-1.724v1.24h1.665v0.521h-1.665v1.264h1.779V68.3h-2.361V64.238z"/>
		<path d="M118.508,68.306v-4.067h1.019c0.412,0,0.738,0.102,0.979,0.306c0.242,0.204,0.363,0.479,0.363,0.827
			c0,0.236-0.06,0.441-0.178,0.614c-0.119,0.173-0.288,0.302-0.51,0.387c0.13,0.086,0.257,0.202,0.382,0.35
			c0.124,0.147,0.299,0.405,0.523,0.771c0.142,0.231,0.256,0.405,0.341,0.521l0.216,0.291h-0.693l-0.178-0.268
			c-0.005-0.01-0.017-0.026-0.034-0.05l-0.113-0.16l-0.181-0.297l-0.194-0.318c-0.121-0.167-0.23-0.3-0.331-0.398
			c-0.1-0.099-0.19-0.17-0.271-0.214c-0.081-0.043-0.217-0.065-0.407-0.065h-0.151v1.771H118.508z M119.265,64.733h-0.175v1.284
			h0.222c0.295,0,0.497-0.025,0.606-0.076c0.109-0.05,0.195-0.127,0.257-0.229c0.061-0.102,0.091-0.218,0.091-0.348
			c0-0.128-0.033-0.244-0.102-0.348c-0.067-0.104-0.163-0.178-0.287-0.22C119.754,64.755,119.55,64.733,119.265,64.733z"/>
		<path d="M126.396,64.238h0.554v4.067h-0.501l-2.72-3.133v3.133h-0.547v-4.067h0.472l2.742,3.159V64.238z"/>
		<path d="M132.128,64.238h0.545v4.067h-0.586v-3.165l-1.25,1.572h-0.107l-1.266-1.572v3.165h-0.582v-4.067h0.551l1.352,1.671
			L132.128,64.238z"/>
		<path d="M134.622,64.238h2.307v0.519h-1.724v1.24h1.665v0.521h-1.665v1.264h1.778V68.3h-2.361V64.238z"/>
		<path d="M141.909,64.238h0.553v4.067h-0.501l-2.719-3.133v3.133h-0.548v-4.067h0.472l2.743,3.159V64.238z"/>
		<path d="M144.06,64.232h3.397v0.519h-1.418v3.555h-0.585v-3.555h-1.395V64.232z"/>
		<path d="M148.536,67.656c0.099,0,0.183,0.034,0.253,0.103c0.07,0.067,0.104,0.151,0.104,0.25c0,0.097-0.034,0.179-0.104,0.244
			c-0.068,0.066-0.153,0.1-0.254,0.1c-0.1,0-0.183-0.033-0.251-0.1c-0.067-0.065-0.102-0.147-0.102-0.244
			c0-0.099,0.034-0.183,0.102-0.25C148.354,67.69,148.437,67.656,148.536,67.656z"/>
	</g>
</g>
</svg>
