<?xml version="1.0" encoding="utf-8"?>
<!-- Generator: Adobe Illustrator 19.2.0, SVG Export Plug-In . SVG Version: 6.00 Build 0)  -->
<svg version="1.1" id="Layer_1" xmlns="http://www.w3.org/2000/svg" xmlns:xlink="http://www.w3.org/1999/xlink" x="0px" y="0px"
	 viewBox="0 0 233.333 74" enable-background="new 0 0 233.333 74" xml:space="preserve">
<g>
	<g>
		<polygon points="29.365,33.072 40.985,39.776 52.605,46.48 40.989,53.192 29.373,59.903 29.369,46.488 		"/>
		<polygon fill="#EFE6DE" points="29.365,33.072 17.738,26.379 6.111,19.685 17.721,12.963 29.331,6.241 29.348,19.656 		"/>
		<polygon fill="#EF4136" points="29.365,33.072 29.344,19.656 29.323,6.241 40.952,12.931 52.58,19.62 52.601,19.656 
			52.601,33.072 52.601,46.488 40.983,39.78 		"/>
		<polygon fill="#1C75BC" points="6.141,46.509 6.128,33.094 6.116,19.678 17.74,26.375 29.365,33.072 29.373,46.488 29.381,59.903 
			17.759,53.203 6.136,46.502 		"/>
		<polygon points="29.365,33.072 40.985,39.776 52.605,46.48 40.989,53.192 29.373,59.903 29.369,46.488 		"/>
		<polygon fill="#EFE6DE" points="29.365,33.072 17.738,26.379 6.111,19.685 17.721,12.963 29.331,6.241 29.348,19.656 		"/>
		<polygon fill="#1C75BC" points="29.365,33.072 29.344,19.656 29.323,6.241 40.952,12.931 52.58,19.62 52.601,19.656 
			52.601,33.072 52.601,46.488 40.983,39.78 		"/>
		<polygon fill="#EF4136" points="6.141,46.509 6.128,33.094 6.116,19.678 17.74,26.375 29.365,33.072 29.373,46.488 29.381,59.903 
			17.759,53.203 6.136,46.502 		"/>
	</g>
	<text transform="matrix(1 0 0 1 66.6195 41.9037)"><tspan x="0" y="0" font-family="'GillSans-Light'" font-size="29.8533px" letter-spacing="4">D</tspan><tspan x="26.457" y="0" font-family="'GillSans-Light'" font-size="29.8533px" letter-spacing="2">A</tspan><tspan x="48.847" y="0" font-family="'GillSans-Light'" font-size="29.8533px" letter-spacing="2">T</tspan><tspan x="68.587" y="0" font-family="'GillSans-Light'" font-size="29.8533px" letter-spacing="6">A</tspan><tspan x="95.066" y="0" font-family="'GillSans-Light'" font-size="29.8533px" letter-spacing="3"> </tspan><tspan x="106.943" y="0" font-family="'GillSans-Light'" font-size="29.8533px" letter-spacing="5">A</tspan><tspan x="131.87" y="0" font-family="'GillSans-Light'" font-size="29.8533px" letter-spacing="7">c</tspan><tspan x="152.081" y="0" font-family="'GillSans-Light'" font-size="29.8533px" letter-spacing="4">t</tspan></text>
</g>
<g>
	<text transform="matrix(1 0 0 1 68.7888 58.1625)"><tspan x="0" y="0" font-family="'GillSans'" font-size="5.9626px" letter-spacing="1">BETTER DATA.  BETTER DECISIONS.</tspan><tspan x="0" y="10.144" font-family="'GillSans'" font-size="5.9626px" letter-spacing="1">BETTER GOVERNMENT.</tspan></text>
</g>
</svg>
