<svg id="svg64533" xmlns="http://www.w3.org/2000/svg" viewBox="0 0 158.21 158.18"><defs><style>.cls-1{fill:#005a9c;}.cls-11,.cls-12,.cls-13,.cls-14,.cls-15,.cls-16,.cls-17,.cls-19,.cls-2,.cls-20,.cls-4,.cls-5,.cls-7,.cls-8,.cls-9{fill:none;}.cls-2{stroke:#005a9c;stroke-width:0px;}.cls-11,.cls-12,.cls-13,.cls-14,.cls-15,.cls-16,.cls-17,.cls-18,.cls-19,.cls-2,.cls-20,.cls-4,.cls-5,.cls-8,.cls-9{stroke-miterlimit:10.43;}.cls-3{fill:#efd763;}.cls-4,.cls-5{stroke:#efd763;}.cls-4{stroke-width:0.01px;}.cls-5{stroke-width:0px;}.cls-18,.cls-6{fill:#3197d4;}.cls-11,.cls-12,.cls-13,.cls-14,.cls-15,.cls-17,.cls-19,.cls-20,.cls-8,.cls-9{stroke:#fff;}.cls-8{stroke-width:0px;}.cls-9{stroke-width:0.47px;}.cls-10{fill:#fff;}.cls-11{stroke-width:0px;}.cls-12{stroke-width:0.59px;}.cls-13{stroke-width:0.35px;}.cls-14{stroke-width:0.78px;}.cls-15{stroke-width:0.01px;}.cls-16,.cls-18{stroke:#3197d4;}.cls-16{stroke-width:0.5px;}.cls-18{stroke-width:0px;}.cls-19{stroke-width:0px;}.cls-20{stroke-width:0.25px;}</style></defs><title>US-DeptOfTheTreasury-Seal</title><g id="g67483"><path id="path64543" class="cls-1" d="M226.58,248l4.08-.11,4-.3,3.94-.5,3.89-.69,3.83-.88,3.75-1.08,3.67-1.24,3.59-1.41,3.5-1.57,3.42-1.77,3.31-1.9,3.2-2.07,3.12-2.21,3-2.34,2.87-2.48,2.76-2.62,2.62-2.73,2.48-2.87,2.34-3,2.21-3.09,2-3.2,1.9-3.31,1.74-3.42,1.57-3.5,1.43-3.59,1.24-3.67,1.08-3.75,0.88-3.83,0.69-3.89,0.52-3.94,0.3-4,0.11-4.08A79.1,79.1,0,1,0,226.58,248Z" transform="translate(-147.49 -89.78)"/><path id="path64545" class="cls-2" d="M226.58,248l4.08-.11,4-.3,3.94-.5,3.89-.69,3.83-.88,3.75-1.08,3.67-1.24,3.59-1.41,3.5-1.57,3.42-1.77,3.31-1.9,3.2-2.07,3.12-2.21,3-2.34,2.87-2.48,2.76-2.62,2.62-2.73,2.48-2.87,2.34-3,2.21-3.09,2-3.2,1.9-3.31,1.74-3.42,1.57-3.5,1.43-3.59,1.24-3.67,1.08-3.75,0.88-3.83,0.69-3.89,0.52-3.94,0.3-4,0.11-4.08A79.1,79.1,0,1,0,226.58,248Z" transform="translate(-147.49 -89.78)"/><path id="path64547" class="cls-3" d="M185.17,184.32l2.73-33.74c-0.25-13.21-4.63-14.48-4.63-14.48l17.19-10.37c16.3,9.41,26-2.92,26-2.92,14.45,13.85,26.7,3.2,26.7,3.2l17.93,10.23c-5.77,6.23-4.85,10.79-4.85,10.79l1.49,36.88-40.8-30Z" transform="translate(-147.49 -89.78)"/><path id="path64549" class="cls-4" d="M185.17,184.32l2.73-33.74c-0.25-13.21-4.63-14.48-4.63-14.48l17.19-10.37c16.3,9.41,26-2.92,26-2.92,14.45,13.85,26.7,3.2,26.7,3.2l17.93,10.23c-5.77,6.23-4.85,10.79-4.85,10.79l1.49,36.88-40.8-30Z" transform="translate(-147.49 -89.78)"/><path id="path64551" class="cls-3" d="M226.85,223.82h0l0.06-.08,0.08-.08,0.11-.11,0.14-.17,0.14-.17,0.19-.19,0.22-.22,0.28-.28,0.3-.28,0.33-.3,0.36-.33,0.41-.33,0.44-.36,0.5-.36,0.52-.36,0.58-.39,0.61-.39,0.66-.39,0.69-.41,0.74-.41,0.8-.41,0.83-.41,0.88-.39,0.91-.41,1-.39,1-.39,1.1-.39,1.13-.36,1.19-.36,1.27-.36,1.3-.33s9.82-.33,18.51-13.82L226.69,173.7l-36.8,26.12C199.1,213.39,209,213.67,209,213.67,224.07,218.77,226.85,223.82,226.85,223.82Z" transform="translate(-147.49 -89.78)"/><path id="path64553" class="cls-5" d="M226.85,223.82h0l0.06-.08,0.08-.08,0.11-.11,0.14-.17,0.14-.17,0.19-.19,0.22-.22,0.28-.28,0.3-.28,0.33-.3,0.36-.33,0.41-.33,0.44-.36,0.5-.36,0.52-.36,0.58-.39,0.61-.39,0.66-.39,0.69-.41,0.74-.41,0.8-.41,0.83-.41,0.88-.39,0.91-.41,1-.39,1-.39,1.1-.39,1.13-.36,1.19-.36,1.27-.36,1.3-.33s9.82-.33,18.51-13.82L226.69,173.7l-36.8,26.12C199.1,213.39,209,213.67,209,213.67,224.07,218.77,226.85,223.82,226.85,223.82Z" transform="translate(-147.49 -89.78)"/><path id="path64555" class="cls-6" d="M242.6,202.14l0,0.36,0.06,0.36,0.06,0.36,0.06,0.33,0.06,0.33,0.06,0.33,0.08,0.33,0.08,0.3,0.08,0.3,0.08,0.3,0.11,0.3,0.11,0.28,0.11,0.28,0.14,0.25,0.14,0.25L244,207l0.17,0.22,0.17,0.19,0.17,0.19,0.19,0.19,0.19,0.17,0.19,0.17,0.22,0.14,0.25,0.14,0.22,0.11,0.25,0.11,0.28,0.08,0.28,0.08,0.28,0.06,0.3,0.06,0.3,0,0.33,0c4.3,0,5-4.25,5-9.08s-0.83-8.41-5-8.41c-3.92,0-5,2.84-5.13,6.87l-0.06-.06a1.51,1.51,0,0,1-1.74-.91,1.51,1.51,0,0,1-1.6,1l-41,.06c-2.51,2,0,3.64,0,3.64h2v5.77h4.61v-4.61h-1.82l0,1.08H202v-2.15h6.51l0,2.15h-1l-0.06-1.08-1.85,0,0,4.61,4.63,0.06v-5.68l29.27-.06a1.77,1.77,0,0,1,1.38,1.19A1.57,1.57,0,0,1,242.6,202.14Z" transform="translate(-147.49 -89.78)"/><path id="path64557" class="cls-6" d="M212.21,203h0.14l0.14,0,0.14,0,0.14,0,0.14,0,0.11-.06,0.14-.06,0.11-.06,0.11-.06,0.11-.06,0.11-.08,0.11-.08,0.11-.08,0.11-.08,0.11-.08,0.08-.08,0.11-.11,0.08-.11,0.08-.11,0.08-.11,0.08-.11,0.06-.11,0.06-.11,0.06-.14,0.06-.11,0.06-.14,0-.14,0-.14,0-.14,0-.14,0-.14V200.1a2.69,2.69,0,1,0-5.38,0A2.67,2.67,0,0,0,212.21,203Z" transform="translate(-147.49 -89.78)"/><path id="path64559" class="cls-7" d="M212.21,203h0.14l0.14,0,0.14,0,0.14,0,0.14,0,0.11-.06,0.14-.06,0.11-.06,0.11-.06,0.11-.06,0.11-.08,0.11-.08,0.11-.08,0.11-.08,0.11-.08,0.08-.08,0.11-.11,0.08-.11,0.08-.11,0.08-.11,0.08-.11,0.06-.11,0.06-.11,0.06-.14,0.06-.11,0.06-.14,0-.14,0-.14,0-.14,0-.14,0-.14V200.1a2.69,2.69,0,1,0-5.38,0A2.67,2.67,0,0,0,212.21,203Z" transform="translate(-147.49 -89.78)"/><line id="line64561" class="cls-8" x1="50.98" y1="109.27" x2="61.54" y2="109.27"/><polyline id="polyline64563" class="cls-9" points="61.21 115.86 62.04 115.86 62.04 113.1"/><polyline id="polyline64565" class="cls-9" points="55.2 115.86 56.25 115.86 56.25 115.25"/><line id="line64567" class="cls-8" x1="53.3" y1="112.47" x2="53.3" y2="117.63"/><path id="path64569" class="cls-10" d="M210.41,199.6v-0.06l0-.06,0-.06,0-.06,0-.06,0-.06,0-.11,0.06-.08,0.06-.08,0.06-.08,0.06-.08,0.06-.08,0.06-.08,0.06-.06,0.06-.08,0.08-.06,0.06-.06,0.06-.06,0.06-.06,0.06-.06,0.06-.06,0.06,0,0.06-.06,0.06,0,0.06,0,0.06,0,0.06,0,0.06,0,0,0,0.06,0,0,0,0,0H212A1.41,1.41,0,0,0,210.41,199.6Z" transform="translate(-147.49 -89.78)"/><line id="line64571" class="cls-11" x1="67.81" y1="109.29" x2="90.67" y2="109.29"/><path id="path64573" class="cls-10" d="M240.23,198.69h0.19l0,0h0.06l0,0h0l0,0h0l0,0,0,0,0,0,0,0,0,0,0,0,0,0,0,0,0,0,0,0,0,0,0,0,0,0,0,0,0,0,0,0,0,0v0l0,0v0h0v0h0v0h0v0h0A1.61,1.61,0,0,0,240.23,198.69Z" transform="translate(-147.49 -89.78)"/><path id="path64575" class="cls-8" d="M251.1,201.5c0.91,1.79,0,4.36,0,4.36" transform="translate(-147.49 -89.78)"/><path id="path64577" class="cls-8" d="M251.18,195.21c0.74,1.54-.28,3.83-0.28,3.83" transform="translate(-147.49 -89.78)"/><path id="path64579" class="cls-8" d="M245.64,192.57l-0.14.11-0.14.11-0.14.11-0.11.11-0.11.14-0.11.11-0.11.14-0.11.14-0.08.14-0.11.17-0.11.14-0.08.17-0.08.17-0.08.17-0.08.17-0.08.17-0.08.17-0.08.19-0.06.19-0.06.19-0.06.19-0.06.19-0.06.22-0.06.19,0,0.22-0.06.22,0,0.22,0.06,0.28,0,0.22,0,0.22,0,0.25,0,0.22a20.33,20.33,0,0,0,.5,6.45A5.7,5.7,0,0,0,246,207.9" transform="translate(-147.49 -89.78)"/><path id="path64581" class="cls-6" d="M229,147.57l-0.77-6.37H247a5.8,5.8,0,0,0,4.11,3.92l2.46,0a7.75,7.75,0,0,0,4.44-5.85l-2.21-.5c-3.37,5.16-6.76.14-6.76,0.14l-18.43-4-3.23,2.51L226.25,129l-0.08-.22-1.24,8.55-3-2.62-18.45,3.89s-3.45,5-6.76-.19l-2.21.47a7.74,7.74,0,0,0,4.41,5.88l2.46,0.06a5.26,5.26,0,0,0,4.08-3.67l18.81-.08h0l-0.28,6.48a2.44,2.44,0,0,0,2.51,2A2.17,2.17,0,0,0,229,147.57Z" transform="translate(-147.49 -89.78)"/><polyline id="polyline64583" class="cls-12" points="53.19 52.19 53.27 52.19 53.41 52.17 53.49 52.14 53.6 52.11 53.71 52.08 53.79 52.08 53.99 52 54.18 51.95 54.37 51.86 54.54 51.78 54.7 51.67 54.84 51.59 54.98 51.48 55.15 51.39 55.28 51.28 55.39 51.17 55.5 51.09 55.61 50.95 55.72 50.87 55.81 50.73 55.89 50.65 56 50.54 56.05 50.43 56.14 50.34 56.19 50.23 56.25 50.15 56.3 50.07 56.33 50.01 56.39 49.93 56.41 49.88 56.41 49.82 56.47 49.79 56.47 49.77 56.47 49.77 56.47 49.77 56.47 49.74 56.47 49.74 56.47 49.74 74.15 45.68 74.76 46.37"/><polygon id="polygon64585" class="cls-10" points="47.81 49.57 48.33 51.12 48.25 49.44 47.81 49.57"/><polygon id="polygon64587" class="cls-13" points="47.81 49.57 48.33 51.12 48.25 49.44 47.81 49.57"/><path id="path64589" class="cls-10" d="M252.09,141.51l0.11,0,0.11,0,0.11,0,0.11,0,0.11,0h0.22l0.11,0h0.11l0.11,0,0.11,0,0.11,0,0.11,0,0.11,0,0.19-.06,0.19-.08,0.17-.08,0.17-.11,0.17-.11,0.17-.11,0.14-.11,0.14-.11,0.14-.14,0.11-.11,0.14-.11,0.11-.14,0.11-.11,0.08-.11,0.08-.11,0.08-.11,0.08-.11,0.06-.08,0.06-.08,0.06-.08,0,0,0,0,0,0,0,0,0,0,0,0v0h0v0h0l1.24,0.28A4.16,4.16,0,0,1,252.09,141.51Z" transform="translate(-147.49 -89.78)"/><polyline id="polyline64591" class="cls-14" points="81.43 47.59 83.14 46.04 84.99 46.37"/><path id="path64593" class="cls-15" d="M225.17,141.29L225,147.22a1.6,1.6,0,0,0,1.3,1.54" transform="translate(-147.49 -89.78)"/><path id="path64595" class="cls-6" d="M253.53,146.88l7.92,14.26s-7.48,12.8-17.52.52l7.61-14.7Z" transform="translate(-147.49 -89.78)"/><path id="path64597" class="cls-10" d="M247.35,164.1l-0.11-.08-0.11-.08-0.11-.08-0.11-.08-0.08-.08-0.11-.08-0.08-.11-0.08-.08-0.08-.08-0.08-.11-0.08-.08-0.06-.08-0.08-.08-0.06-.08-0.06-.08-0.06-.08-0.06-.08-0.06-.08-0.06-.08,0-.08-0.06-.08,0-.06,0-.08,0-.06,0-.06,0-.06,0,0,0-.06,0,0v0h0.08v0l11.48,0.06a5,5,0,0,1-2.57,3.31,6.77,6.77,0,0,0,1.57-2.73h-8.61A2.73,2.73,0,0,0,247.35,164.1Z" transform="translate(-147.49 -89.78)"/><path id="path64599" class="cls-6" d="M199.13,146.47l-8,14.18s7.39,12.85,17.52.66l-7.5-14.76Z" transform="translate(-147.49 -89.78)"/><polygon id="polygon64601" class="cls-3" points="52.83 56.47 52.8 71.03 60.22 70.95 52.83 56.47"/><polygon id="polygon64603" class="cls-16" points="52.83 56.47 52.8 71.03 60.22 70.95 52.83 56.47"/><polygon id="polygon64605" class="cls-3" points="52.08 57.05 52.08 70.95 44.25 70.95 52.08 57.05"/><polygon id="polygon64607" class="cls-16" points="52.08 57.05 52.08 70.95 44.25 70.95 52.08 57.05"/><path id="path64609" class="cls-10" d="M197.06,163.38l-0.06-.06-0.06,0-0.06,0-0.06,0-0.11-.08-0.11-.08-0.08-.08-0.08-.08-0.08-.08-0.08-.08-0.08-.08-0.06-.08-0.06-.08-0.06-.08-0.06-.08-0.06-.08-0.06-.08,0-.08,0-.08,0-.08,0-.06,0-.08,0-.06,0-.06,0-.06,0-.06v-0.06l0,0v-0.08l0,0v-0.06h0l11,0a6.06,6.06,0,0,1-2.46,3.12,3.42,3.42,0,0,0,1.19-2.65H196.7A2.51,2.51,0,0,0,197.06,163.38Z" transform="translate(-147.49 -89.78)"/><path id="path64611" class="cls-3" d="M249.14,200.12l0.08,0.06,0.08,0.06,0.08,0.06,0.08,0.08,0.06,0.06,0.08,0.08,0.08,0.08,0.06,0.08,0.08,0.08,0.06,0.08,0.06,0.08L250,201l0.06,0.08,0.06,0.11,0.06,0.08,0.06,0.11,0.06,0.11,0.06,0.11,0.06,0.11,0.06,0.11,0.06,0.11,0,0.11,0.06,0.11,0,0.11,0,0.11,0,0.14,0,0.11,0,0.11,0,0.14,0,0.11,0,0.14v0.14c0.11,2.1-1,3.94-2.57,4.11s-2.9-1.43-3-3.53a4.45,4.45,0,0,1,1.27-3.53l0.14-.14a4.09,4.09,0,0,1-1.49-3.14c-0.11-2.1,1-3.94,2.62-4.08s2.87,1.46,3,3.59a4.28,4.28,0,0,1-1.3,3.5Z" transform="translate(-147.49 -89.78)"/><polygon id="polygon64613" class="cls-3" points="104.77 57.38 104.72 71.34 97.35 71.34 104.77 57.38"/><polygon id="polygon64615" class="cls-16" points="104.77 57.38 104.72 71.34 97.35 71.34 104.77 57.38"/><polygon id="polygon64617" class="cls-3" points="105.41 57.3 105.46 71.31 113.21 71.31 105.41 57.3"/><polygon id="polygon64619" class="cls-16" points="105.41 57.3 105.46 71.31 113.21 71.31 105.41 57.3"/><path id="path64621" class="cls-6" d="M200.1,147.33h0.17l0.06,0,0.08,0,0.08,0,0.08,0,0.06,0,0.08,0,0.06,0,0.06-.06,0.06,0,0.06-.06,0.06-.06,0.06,0,0.06-.06,0.06-.06,0.06-.06,0.06-.06,0.06-.06,0.06-.06,0-.06,0.06-.06,0-.06,0-.08,0-.06,0-.08,0-.08,0-.06,0-.08v-0.08l0-.08v-0.08a1.45,1.45,0,0,0-1.43-1.46,1.47,1.47,0,0,0-1.46,1.46A1.33,1.33,0,0,0,200.1,147.33Z" transform="translate(-147.49 -89.78)"/><path id="path64623" class="cls-3" d="M200.1,146.91l0.06,0h0.11l0.06,0,0.06,0,0.06,0,0.06,0,0.06,0,0.06,0,0.06,0,0,0,0.06,0,0.06,0,0,0,0.06,0,0-.06,0,0,0-.06,0-.06,0,0,0-.06,0-.06,0-.06,0-.06,0-.06,0-.06v-0.06l0-.06,0-.06v-0.06l0-.06v-0.06a1,1,0,1,0-2,0A0.94,0.94,0,0,0,200.1,146.91Z" transform="translate(-147.49 -89.78)"/><path id="path64625" class="cls-6" d="M252.45,147.66l0.08,0h0.08l0.08,0,0.08,0,0.08,0,0.06,0,0.08,0,0.06,0,0.08,0,0.06-.06,0.06,0,0.06-.06,0.06,0,0.06-.06,0.06-.06,0.06-.06,0.06-.06,0.06-.06,0.06-.06,0.06-.06,0-.06,0.06-.06,0-.06,0-.08,0-.06,0-.08,0-.08,0-.08,0-.08v-0.08l0-.08V146a1.45,1.45,0,1,0-2.9,0A1.35,1.35,0,0,0,252.45,147.66Z" transform="translate(-147.49 -89.78)"/><path id="path64627" class="cls-3" d="M252.48,147.22h0.11l0.06,0h0.06l0.06,0,0.06,0,0.06,0,0.06,0,0.06,0,0.06,0,0.06,0,0.06,0,0,0,0.06,0,0-.06,0.06,0,0,0,0-.06,0-.06,0-.06,0-.06,0-.06,0-.06,0-.06,0-.06,0-.06,0-.06,0-.06v-0.06l0-.06V146a1,1,0,0,0-1-1,1,1,0,0,0-1,1A1.08,1.08,0,0,0,252.48,147.22Z" transform="translate(-147.49 -89.78)"/><path id="path64629" class="cls-17" d="M227.35,227.35l3-.08,3-.25,2.92-.36,2.9-.52,2.84-.66,2.79-.8,2.73-.91,2.68-1,2.62-1.19,2.54-1.3,2.46-1.43,2.4-1.52,2.32-1.66,2.23-1.74,2.12-1.85,2-2,1.93-2,1.85-2.12,1.74-2.23,1.63-2.29,1.54-2.4,1.41-2.48,1.3-2.54,1.16-2.62,1-2.68,0.94-2.73,0.77-2.81,0.66-2.84,0.5-2.9,0.39-3,0.22-3,0.08-3A58.81,58.81,0,1,0,227.35,227.35Z" transform="translate(-147.49 -89.78)"/><path id="path64631" class="cls-17" d="M226.66,245.83l3.94-.11,3.89-.3,3.83-.5,3.78-.66,3.7-.86,3.64-1,3.56-1.21,3.48-1.38,3.39-1.54,3.31-1.68,3.2-1.85,3.12-2,3-2.15,2.9-2.26,2.76-2.43,2.68-2.54,2.54-2.68,2.43-2.79,2.26-2.9,2.15-3,2-3.12,1.85-3.23,1.68-3.31,1.54-3.39,1.38-3.48,1.21-3.56,1-3.64,0.86-3.7,0.66-3.78,0.5-3.83,0.3-3.89,0.11-3.94A76.65,76.65,0,1,0,226.66,245.83Z" transform="translate(-147.49 -89.78)"/><path id="path64633" class="cls-18" d="M189.61,199.71l-0.5-.74-0.5-.77-0.47-.8-0.44-.83-0.44-.86-0.39-.91-0.39-.91-0.36-.94-0.3-1-0.3-1-0.22-1-0.19-1-0.17-1-0.06-.5-0.06-.5-0.06-.5,0-.5,0-.5,0-.47,42.21-30.59,41.18,30.34c0,5.08-1,11.42-3.7,15.2l-37.74-27.2Z" transform="translate(-147.49 -89.78)"/><path id="path64635" class="cls-7" d="M189.61,199.71l-0.5-.74-0.5-.77-0.47-.8-0.44-.83-0.44-.86-0.39-.91-0.39-.91-0.36-.94-0.3-1-0.3-1-0.22-1-0.19-1-0.17-1-0.06-.5-0.06-.5-0.06-.5,0-.5,0-.5,0-.47,42.21-30.59,41.18,30.34c0,5.08-1,11.42-3.7,15.2l-37.74-27.2Z" transform="translate(-147.49 -89.78)"/><path id="path64637" class="cls-10" d="M170.19,192.51l2,3.86-0.25.14c-0.66-1.19-1-1.08-1.9-.5l-6.62,3.34,0.3,0.63c0.74,1.46,1.16,1.68,2.76,1.24l0.17,0.33-2.29,1-3.78-7.45,2.21-1.21,0.17,0.3c-1.32,1-1.35,1.52-.63,3l0.3,0.72,6.76-3.42c1-.44,1.13-0.74.61-1.88Z" transform="translate(-147.49 -89.78)"/><path id="path64639" class="cls-19" d="M170.19,192.51l2,3.86-0.25.14c-0.66-1.19-1-1.08-1.9-.5l-6.62,3.34,0.3,0.63c0.74,1.46,1.16,1.68,2.76,1.24l0.17,0.33-2.29,1-3.78-7.45,2.21-1.21,0.17,0.3c-1.32,1-1.35,1.52-.63,3l0.3,0.72,6.76-3.42c1-.44,1.13-0.74.61-1.88Z" transform="translate(-147.49 -89.78)"/><path id="path64641" class="cls-10" d="M169.25,190.58l0-.06,0-.06,0-.06,0-.06,0-.06,0-.06,0-.06,0-.06,0-.06,0-.06,0,0,0-.06,0,0,0,0-0.06-.06-0.06-.06-0.06-.06-0.06-.06-0.06-.06-0.06,0-0.06,0-0.06,0-0.06,0-0.06,0-0.06,0-0.06,0H168.1l-0.06,0H168l-0.08,0-0.08,0-0.08,0-0.08,0-0.08,0-0.08,0-0.08,0-0.08,0-0.11,0-6.12,2c-1,.33-1.1.58-0.86,1.63l-0.28.08-1.27-3.92,0.28-.08c0.41,1,.66,1.13,1.68.83l2.73-.88-1.43-4.28-2.73.88c-1,.33-1.08.58-0.83,1.63l-0.28.11-1-3.81,0.28-.08c0.44,1,.66,1.16,1.68.83l6.26-2c0.91-.3,1.16-0.52.86-1.63l0.28-.11,1.27,3.92-0.28.08c-0.44-1.16-.77-1.1-1.82-0.77l-2.76.88,1.46,4.33,2.9-.94c0.86-.36,1.08-0.61.8-1.74l0.28-.08,1.27,3.92Z" transform="translate(-147.49 -89.78)"/><path id="path64643" class="cls-19" d="M169.25,190.58l0-.06,0-.06,0-.06,0-.06,0-.06,0-.06,0-.06,0-.06,0-.06,0-.06,0,0,0-.06,0,0,0,0-0.06-.06-0.06-.06-0.06-.06-0.06-.06-0.06-.06-0.06,0-0.06,0-0.06,0-0.06,0-0.06,0-0.06,0-0.06,0H168.1l-0.06,0H168l-0.08,0-0.08,0-0.08,0-0.08,0-0.08,0-0.08,0-0.08,0-0.08,0-0.11,0-6.12,2c-1,.33-1.1.58-0.86,1.63l-0.28.08-1.27-3.92,0.28-.08c0.41,1,.66,1.13,1.68.83l2.73-.88-1.43-4.28-2.73.88c-1,.33-1.08.58-0.83,1.63l-0.28.11-1-3.81,0.28-.08c0.44,1,.66,1.16,1.68.83l6.26-2c0.91-.3,1.16-0.52.86-1.63l0.28-.11,1.27,3.92-0.28.08c-0.44-1.16-.77-1.1-1.82-0.77l-2.76.88,1.46,4.33,2.9-.94c0.86-.36,1.08-0.61.8-1.74l0.28-.08,1.27,3.92Z" transform="translate(-147.49 -89.78)"/><path id="path64645" class="cls-10" d="M165.23,172.35l1.24,7.89-0.28.06c-0.19-.91-0.39-1.24-1.49-1l-6.51,1c-1.16.11-1.21,0.47-1.13,1.41l-0.28.06L155.55,174l2.07-.39,0.06,0.36c-1.27.41-1.43,0.86-1.19,2.48l0.33,2c0.06,0.33.08,0.5,0.58,0.41l3.26-.52-0.36-2.26c-0.19-1.3-.58-1.38-1.63-1.38l-0.06-.33,3.39-.55,0.06,0.33c-1.13.36-1.32,0.61-1.13,1.82l0.33,2.26,3.61-.58c0.61-.08.63-0.11,0.28-2.29-0.3-1.82-.86-2.48-2.43-2.9l-0.06-.41Z" transform="translate(-147.49 -89.78)"/><path id="path64647" class="cls-19" d="M165.23,172.35l1.24,7.89-0.28.06c-0.19-.91-0.39-1.24-1.49-1l-6.51,1c-1.16.11-1.21,0.47-1.13,1.41l-0.28.06L155.55,174l2.07-.39,0.06,0.36c-1.27.41-1.43,0.86-1.19,2.48l0.33,2c0.06,0.33.08,0.5,0.58,0.41l3.26-.52-0.36-2.26c-0.19-1.3-.58-1.38-1.63-1.38l-0.06-.33,3.39-.55,0.06,0.33c-1.13.36-1.32,0.61-1.13,1.82l0.33,2.26,3.61-.58c0.61-.08.63-0.11,0.28-2.29-0.3-1.82-.86-2.48-2.43-2.9l-0.06-.41Z" transform="translate(-147.49 -89.78)"/><path id="path64649" class="cls-10" d="M165.28,169v-0.3l0-.08v-0.08l0-.08v-0.08l0-.08,0-.06,0-.08,0-.06,0-.06,0-.06,0-.06,0-.06,0,0-0.06-.06,0,0-0.06,0-0.06,0-0.06,0,0.06,0.08-0.06,0-0.06,0-0.08,0h-0.06l-0.08,0h-0.17l-0.08,0H164l-6.59-.33c-1.1-.14-1.27,0-1.41,1.16l-0.3,0,0.22-4c0.19-3.56,1.93-5.82,5.24-5.65,2,0.11,4.83,1.43,4.58,6l-0.22,4.19Z" transform="translate(-147.49 -89.78)"/><path id="path64651" class="cls-19" d="M165.28,169v-0.3l0-.08v-0.08l0-.08v-0.08l0-.08,0-.06,0-.08,0-.06,0-.06,0-.06,0-.06,0-.06,0,0-0.06-.06,0,0-0.06,0-0.06,0-0.06,0,0.06,0.08-0.06,0-0.06,0-0.08,0h-0.06l-0.08,0h-0.17l-0.08,0H164l-6.59-.33c-1.1-.14-1.27,0-1.41,1.16l-0.3,0,0.22-4c0.19-3.56,1.93-5.82,5.24-5.65,2,0.11,4.83,1.43,4.58,6l-0.22,4.19Z" transform="translate(-147.49 -89.78)"/><path id="path64653" class="cls-10" d="M167.9,151l-1.66,7.83-0.39.06c0.14-1,.08-1.3-1-1.54L158.39,156c-1.16-.22-1.32.08-1.57,1l-0.28-.06,1.63-7.7,2.07,0.39-0.08.36c-1.32-.06-1.63.28-2,1.9l-0.41,2c-0.06.3-.11,0.5,0.39,0.58l3.23,0.66,0.47-2.23c0.28-1.3-.06-1.52-1-1.9l0.06-.33,3.37,0.69-0.08.33c-1.19-.08-1.43.11-1.71,1.3l-0.5,2.29,3.59,0.69c0.61,0.11.61,0.11,1.08-2,0.39-1.82.08-2.62-1.24-3.59l0.08-.41Z" transform="translate(-147.49 -89.78)"/><path id="path64655" class="cls-19" d="M167.9,151l-1.66,7.83-0.39.06c0.14-.94.08-1.3-1-1.52L158.39,156c-1.16-.22-1.32.08-1.57,1l-0.28-.06,1.63-7.7,2.07,0.39-0.08.36c-1.32-.06-1.63.28-2,1.9l-0.41,2c-0.06.3-.11,0.5,0.39,0.58l3.23,0.66,0.47-2.23c0.28-1.3-.06-1.52-1-1.9l0.06-.33,3.37,0.69-0.08.33c-1.19-.08-1.43.11-1.71,1.3l-0.5,2.29L165.5,156c0.61,0.11.61,0.11,1.08-2,0.39-1.82.08-2.62-1.24-3.59l0.08-.41Z" transform="translate(-147.49 -89.78)"/><path id="path64657" class="cls-10" d="M159.38,146.53l1.32-3.7c0.69-1.93,2-3.39,3.83-2.76a2.64,2.64,0,0,1,1.57,1.52,4.33,4.33,0,0,1-.25,3.26,3.86,3.86,0,0,1-.41.91l2.54,0.91c1.08,0.36,1.35.19,1.77-.86h0.36l-1.38,3.89-0.36,0c0.33-1.21,0-1.32-.91-1.6L161.39,146c-1-.41-1.3-0.33-1.74.63Z" transform="translate(-147.49 -89.78)"/><path id="path64659" class="cls-19" d="M159.38,146.53l1.32-3.7c0.69-1.93,2-3.39,3.83-2.76a2.64,2.64,0,0,1,1.57,1.52,4.33,4.33,0,0,1-.25,3.26,3.86,3.86,0,0,1-.41.91l2.54,0.91c1.08,0.36,1.35.19,1.77-.86h0.36l-1.38,3.89-0.36,0c0.33-1.21,0-1.32-.91-1.6L161.39,146c-1-.41-1.3-0.33-1.74.63Z" transform="translate(-147.49 -89.78)"/><path id="path64661" class="cls-10" d="M175.65,135.24l-1.79,3.34-0.22-.14c0.25-.5.41-0.91-0.06-1.19a3.58,3.58,0,0,0-.91-0.19l-1.54-.14-1.85,3.42,1.21,1.43a1,1,0,0,0,.41.36c0.55,0.3.88-.3,1-0.58l0.22,0.14-1.38,2.57-0.22-.14a1.13,1.13,0,0,0,.06-0.83,11.62,11.62,0,0,0-1.32-2l-5-6.18,0.14-.25,9.19,0.74c1.19,0.08,1.43,0,1.77-.58Z" transform="translate(-147.49 -89.78)"/><path id="path64663" class="cls-19" d="M175.65,135.24l-1.79,3.34-0.22-.14c0.25-.5.41-0.91-0.06-1.19a3.58,3.58,0,0,0-.91-0.19l-1.54-.14-1.85,3.42,1.21,1.43a1,1,0,0,0,.41.36c0.55,0.3.88-.3,1-0.58l0.22,0.14-1.38,2.57-0.22-.14a1.13,1.13,0,0,0,.06-0.83,11.62,11.62,0,0,0-1.32-2l-5-6.18,0.14-.25,9.19,0.74c1.19,0.08,1.43,0,1.77-.58Z" transform="translate(-147.49 -89.78)"/><path id="path64665" class="cls-10" d="M182.47,126.75l-1.52,1.9-5.77,0-0.41.66,2.32,1.79c0.8,0.61,1.1.66,1.88-.25l0.22,0.17-2.51,3.26-0.22-.17c0.66-1,.47-1.24-0.36-1.85L171,128.4c-0.94-.74-1.16-0.63-1.9.11l-0.22-.17,2.48-3.26c0.8-1,2.54-2.79,4.36-1.38,1.57,1.21.69,3,.33,3.64l4.83-.14a1.68,1.68,0,0,0,1.35-.61Z" transform="translate(-147.49 -89.78)"/><path id="path64667" class="cls-19" d="M182.47,126.75l-1.52,1.9-5.77,0-0.41.66,2.32,1.79c0.8,0.61,1.1.66,1.88-.25l0.22,0.17-2.51,3.26-0.22-.17c0.66-1,.47-1.24-0.36-1.85L171,128.4c-0.94-.74-1.16-0.63-1.9.11l-0.22-.17,2.48-3.26c0.8-1,2.54-2.79,4.36-1.38,1.57,1.21.69,3,.33,3.64l4.83-.14a1.68,1.68,0,0,0,1.35-.61Z" transform="translate(-147.49 -89.78)"/><path id="path64669" class="cls-10" d="M187,122.42l-3.12,3-0.19-.19c0.94-1,.74-1.24,0-2l-5.13-5.32-0.63.5c-1.16,1.13-1.27,1.6-.39,3l-0.25.28-1.71-1.88,6-5.82,1.82,1.77-0.28.22c-1.35-1-1.82-.86-3,0.28l-0.69.63,5.38,5.38c0.69,0.72,1,.8,2,0Z" transform="translate(-147.49 -89.78)"/><path id="path64671" class="cls-19" d="M187,122.42l-3.12,3-0.19-.19c0.94-1,.74-1.24,0-2l-5.13-5.32-0.63.5c-1.16,1.13-1.27,1.6-.39,3l-0.25.28-1.71-1.88,6-5.82,1.82,1.77-0.28.22c-1.35-1-1.82-.86-3,0.28l-0.69.63,5.38,5.38c0.69,0.72,1,.8,2,0Z" transform="translate(-147.49 -89.78)"/><path id="path64673" class="cls-10" d="M193.42,106.61l-0.08.06-0.06.06-0.08.06-0.06.06-0.06.06-0.06.06L193,107l-0.06.06v0l-0.06.06,0,0.06-0.06.06,0,0.06,0,0.06,0,0.06,0,0.06,0,0.06,0,0.06v0.22l0,0.08,0,0.06,0,0.08,0,0.08,0,0.08,0,0.08,0,0.06,0,0.06,0,0.06,0,0.06,0,0.06,0,0.06,0,0.06,0,0.06,3.67,5.27c0.77,0.88,1.1.8,1.93,0.3l0.17,0.22-3.45,2.32-0.17-.22c0.94-.69,1-1,0.28-2l-3.72-5.52,0,0,1.6,9.08-0.17.14-7.59-4.63,0,0,3.31,4.88c0.86,1.27,1.3,1.35,2.23.8l0.17,0.22-2.9,2-0.14-.22c0.91-.72,1.16-0.83.11-2.37l-3.39-5c-0.66-1-1-.88-1.93-0.33l-0.17-.22,2.43-1.63,7,4.3L190.77,108l2.46-1.66Z" transform="translate(-147.49 -89.78)"/><path id="path64675" class="cls-19" d="M193.42,106.61l-0.08.06-0.06.06-0.08.06-0.06.06-0.06.06-0.06.06L193,107l-0.06.06v0l-0.06.06,0,0.06-0.06.06,0,0.06,0,0.06,0,0.06,0,0.06,0,0.06,0,0.06v0.22l0,0.08,0,0.06,0,0.08,0,0.08,0,0.08,0,0.08,0,0.06,0,0.06,0,0.06,0,0.06,0,0.06,0,0.06,0,0.06,0,0.06,3.67,5.27c0.77,0.88,1.1.8,1.93,0.3l0.17,0.22-3.45,2.32-0.17-.22c0.94-.69,1-1,0.28-2l-3.72-5.52,0,0,1.6,9.08-0.17.14-7.59-4.63,0,0,3.31,4.88c0.86,1.27,1.3,1.35,2.23.8l0.17,0.22-2.9,2-0.14-.22c0.91-.72,1.16-0.83.11-2.37l-3.39-5c-0.66-1-1-.88-1.93-0.33l-0.17-.22,2.43-1.63,7,4.3L190.77,108l2.46-1.66Z" transform="translate(-147.49 -89.78)"/><path id="path64677" class="cls-10" d="M215.38,99.25l-0.08,0-0.08,0-0.08,0-0.08,0-0.08,0-0.08.06-0.06,0-0.06,0-0.06,0-0.06.06-0.06.06-0.06,0-0.06.06-0.06.06-0.06.06,0,0.06,0,0.06,0,0.06,0,0.08,0,0.06,0,0.08v0.08l0,0.06v0.11h0l0,0.06v0.17l0,0.06v0.06l0,0.06,0,0.08,0,0.06,0,0.06v0.08l0,0.08,0,0.08,0,0.08,0,0.08,0,0.08,2,7.53-0.25.06L207.85,103h0l1.52,5.57c0.39,1.49.8,1.71,1.85,1.49l0,0.28-3.37.91,0-.28c1.08-.36,1.32-0.66.88-2.21L207,102.42a1.5,1.5,0,0,0-1.6-.41l-0.08-.28,2.46-.66,7.34,5.41h0l-1.24-4.85C213.45,100,213,100,212,100.16l-0.08-.28,3.37-.91Z" transform="translate(-147.49 -89.78)"/><path id="path64679" class="cls-19" d="M215.38,99.25l-0.08,0-0.08,0-0.08,0-0.08,0-0.08,0-0.08.06-0.06,0-0.06,0-0.06,0-0.06.06-0.06.06-0.06,0-0.06.06-0.06.06-0.06.06,0,0.06,0,0.06,0,0.06,0,0.08,0,0.06,0,0.08v0.08l0,0.06v0.11h0l0,0.06v0.17l0,0.06v0.06l0,0.06,0,0.08,0,0.06,0,0.06v0.08l0,0.08,0,0.08,0,0.08,0,0.08,0,0.08,2,7.53-0.25.06L207.85,103h0l1.52,5.57c0.39,1.49.8,1.71,1.85,1.46l0,0.28-3.37.91,0-.28c1.08-.36,1.32-0.66.88-2.21L207,102.39a1.5,1.5,0,0,0-1.6-.41l-0.08-.28,2.46-.66,7.34,5.41h0l-1.24-4.83C213.45,100,213,100,212,100.16l-0.08-.28,3.37-.91Z" transform="translate(-147.49 -89.78)"/><path id="path64681" class="cls-10" d="M223.46,107.85l-4.33.47,0-.28c1.32-.19,1.35-0.55,1.24-1.63l-0.8-7.37-0.8.08c-1.63.17-2,.5-2.15,2.15l-0.36.06-0.19-2.51,8.3-.91,0.36,2.51-0.36,0c-0.5-1.57-.94-1.79-2.54-1.63l-0.8.08,0.8,7.53c0.11,1,.33,1.27,1.57,1.16Z" transform="translate(-147.49 -89.78)"/><path id="path64683" class="cls-19" d="M223.46,107.85l-4.33.47,0-.28c1.32-.19,1.35-0.55,1.24-1.63l-0.8-7.37-0.8.08c-1.63.17-2,.5-2.15,2.15l-0.36.06-0.19-2.51,8.3-.91,0.36,2.51-0.36,0c-0.5-1.57-.94-1.79-2.54-1.63l-0.8.08,0.8,7.53c0.11,1,.33,1.27,1.57,1.16Z" transform="translate(-147.49 -89.78)"/><path id="path64685" class="cls-10" d="M228.37,102.69l0.06-.33,0.06-.3,0.06-.3,0.08-.28,0.08-.28,0.11-.28,0.11-.25,0.11-.22,0.14-.22,0.14-.22,0.14-.19,0.17-.19,0.17-.19,0.17-.17,0.17-.17L230.3,99l0.19-.14,0.19-.14,0.19-.11,0.19-.11,0.22-.11,0.19-.08,0.22-.08,0.22-.08,0.22-.06,0.22-.06,0.22-.06,0.22,0,0.22,0h0.44l0.22,0a5.11,5.11,0,0,1-1,10.15C229.86,108,228,105.84,228.37,102.69Z" transform="translate(-147.49 -89.78)"/><path id="path64687" class="cls-19" d="M228.37,102.69l0.06-.33,0.06-.3,0.06-.3,0.08-.28,0.08-.28,0.11-.28,0.11-.25,0.11-.22,0.14-.22,0.14-.22,0.14-.19,0.17-.19,0.17-.19,0.17-.17,0.17-.17L230.3,99l0.19-.14,0.19-.14,0.19-.11,0.19-.11,0.22-.11,0.19-.08,0.22-.08,0.22-.08,0.22-.06,0.22-.06,0.22-.06,0.22,0,0.22,0h0.44l0.22,0a5.11,5.11,0,0,1-1,10.15C229.86,108,228,105.84,228.37,102.69Z" transform="translate(-147.49 -89.78)"/><path id="path64689" class="cls-10" d="M244.87,106.94l0-.06v-0.06l0-.11v-0.11l0-.11v-0.17l0-.08v-0.08l0-.08,0-.08,0-.06,0-.08,0-.06,0-.06,0-.06,0-.06-0.06-.06-0.06-.06-0.06-.06-0.06,0-0.06-.06-0.06,0-0.06,0-0.06-.06-0.08,0-0.08,0-0.08,0-0.08,0-0.08,0-0.11,0-0.08,0-0.11,0-2.07-.55-0.8,3.14c-0.28,1.08-.06,1.32,1,1.63l-0.08.28-4-1,0.08-.28c1.08,0.22,1.32.06,1.63-1.13l1.57-6.23c0.3-1.13,0-1.3-.91-1.6L240,99l7.64,2-0.5,2.07-0.36-.08c0.11-1.32-.19-1.68-1.79-2.07l-2-.52c-0.36-.08-0.47-0.06-0.58.39l-0.8,3.17,2.07,0.55c1.16,0.3,1.52.08,1.93-1l0.33,0.08-0.86,3.34h-0.22Z" transform="translate(-147.49 -89.78)"/><path id="path64691" class="cls-19" d="M244.87,106.94l0-.06v-0.06l0-.11v-0.11l0-.11v-0.17l0-.08v-0.08l0-.08,0-.08,0-.06,0-.08,0-.06,0-.06,0-.06,0-.06-0.06-.06-0.06-.06-0.06-.06-0.06,0-0.06-.06-0.06,0-0.06,0-0.06-.06-0.08,0-0.08,0-0.08,0-0.08,0-0.08,0-0.11,0-0.08,0-0.11,0-2.07-.55-0.8,3.14c-0.28,1.08-.06,1.32,1,1.63l-0.08.28-4-1,0.08-.28c1.08,0.22,1.32.06,1.63-1.13l1.57-6.23c0.3-1.13,0-1.3-.91-1.6L240,99l7.64,2-0.5,2.07-0.36-.08c0.11-1.32-.19-1.68-1.79-2.07l-2-.52c-0.36-.08-0.47-0.06-0.58.39l-0.8,3.17,2.07,0.55c1.16,0.3,1.52.08,1.93-1l0.33,0.08-0.86,3.34h-0.22Z" transform="translate(-147.49 -89.78)"/><path id="path64693" class="cls-10" d="M254.27,114.44l-3.92-1.85,0.11-.25c1.27,0.52,1.43.22,1.93-.74l3.17-6.7-0.74-.36c-1.46-.69-2-0.61-2.92.69l-0.33-.14,1.16-2.23,7.56,3.59-1,2.32-0.33-.14c0.41-1.6.17-2-1.32-2.73l-0.72-.36-3.26,6.84c-0.41.91-.39,1.24,0.72,1.82Z" transform="translate(-147.49 -89.78)"/><path id="path64695" class="cls-19" d="M254.27,114.44l-3.92-1.85,0.11-.25c1.27,0.52,1.43.22,1.93-.74l3.17-6.7-0.74-.36c-1.46-.69-2-0.61-2.92.69l-0.33-.14,1.16-2.23,7.56,3.59-1,2.32-0.33-.14c0.41-1.6.17-2-1.32-2.73l-0.72-.36-3.26,6.84c-0.41.91-.39,1.24,0.72,1.82Z" transform="translate(-147.49 -89.78)"/><path id="path64697" class="cls-10" d="M256.37,115.08l0.06,0,0.06,0,0.06,0,0.06,0,0.06,0,0.06,0,0.06,0,0.06,0,0.06,0,0,0,0.06,0,0.06,0-0.08-.06,0.06,0,0.06,0,0.08,0,0.06,0h0.06l0.06,0,0.06,0h0.06l0.06,0,0.06,0,0.06,0,0.06,0,0.06,0,0.06,0,0.06,0,0.06-.06,0.06-.06,0.06-.06,0.06-.06,0.06-.06,0.06-.06,0.06-.08,0.06-.08,0.06-.08,0.06-.08,0.06-.08,3.64-5.3c0.61-.91.52-1.13-0.33-1.82l0.17-.22,3.42,2.32-0.17.22c-1-.55-1.24-0.5-1.82.36l-1.63,2.4,3.7,2.54,1.63-2.4c0.61-.88.52-1.13-0.33-1.82l0.17-.22,3.39,2.32-0.17.22c-1-.58-1.24-0.5-1.82.36l-3.83,5.46c-0.55.8-.61,1.13,0.33,1.82l-0.17.22-3.39-2.32,0.17-.25c1,0.66,1.3.41,1.93-.5l1.63-2.4L261.2,113l-1.74,2.51c-0.55.83-.58,1.13,0.33,1.85l-0.17.22-3.42-2.32Z" transform="translate(-147.49 -89.78)"/><path id="path64699" class="cls-19" d="M256.37,115.08l0.06,0,0.06,0,0.06,0,0.06,0,0.06,0,0.06,0,0.06,0,0.06,0,0.06,0,0,0,0.06,0,0.06,0-0.08-.06,0.06,0,0.06,0,0.08,0,0.06,0h0.06l0.06,0,0.06,0h0.06l0.06,0,0.06,0,0.06,0,0.06,0,0.06,0,0.06,0,0.06,0,0.06-.06,0.06-.06,0.06-.06,0.06-.06,0.06-.06,0.06-.06,0.06-.08,0.06-.08,0.06-.08,0.06-.08,0.06-.08,3.64-5.3c0.61-.91.52-1.13-0.33-1.82l0.17-.22,3.42,2.32-0.17.22c-1-.55-1.24-0.5-1.82.36l-1.63,2.37,3.7,2.54,1.63-2.4c0.61-.88.52-1.13-0.33-1.82l0.17-.22,3.39,2.32-0.17.22c-1-.58-1.24-0.5-1.82.36l-3.83,5.49c-0.55.8-.61,1.13,0.33,1.82l-0.17.22-3.39-2.32,0.17-.25c1,0.66,1.3.41,1.93-.5l1.63-2.4L261.2,113l-1.74,2.51c-0.55.83-.58,1.13,0.33,1.85l-0.17.22-3.42-2.32Z" transform="translate(-147.49 -89.78)"/><path id="path64701" class="cls-10" d="M271,127.16l-5.82-5.46,0.19-.19c0.74,0.61,1.08.74,1.85-.11l4.5-4.8c0.8-.86.61-1.16,0-1.85l0.19-.19,5.74,5.38-1.43,1.57-0.28-.25c0.74-1.1.63-1.54-.58-2.68l-1.46-1.35c-0.22-.22-0.36-0.33-0.69,0l-2.26,2.4,1.66,1.57c1,0.88,1.32.74,2.15,0.08l0.28,0.22L272.62,124l-0.25-.22c0.66-1,.66-1.3-0.22-2.15l-1.66-1.57L268,122.78c-0.41.44-.44,0.44,1.16,2,1.35,1.27,2.21,1.46,3.7.83l0.3,0.28Z" transform="translate(-147.49 -89.78)"/><path id="path64703" class="cls-19" d="M271,127.16l-5.82-5.46,0.19-.19c0.74,0.61,1.08.74,1.85-.11l4.5-4.8c0.8-.86.61-1.16,0-1.85l0.19-.19,5.74,5.38-1.43,1.57-0.28-.25c0.74-1.1.63-1.54-.58-2.68l-1.46-1.35c-0.22-.22-0.36-0.33-0.69,0l-2.26,2.4,1.66,1.57c1,0.88,1.32.74,2.15,0.08l0.28,0.22L272.62,124l-0.25-.22c0.66-1,.66-1.3-0.22-2.15l-1.66-1.57L268,122.78c-0.41.44-.44,0.44,1.16,2,1.35,1.27,2.21,1.46,3.7.83l0.3,0.28Z" transform="translate(-147.49 -89.78)"/><path id="path64705" class="cls-10" d="M276.75,134.75l-2.51-3.5,0.22-.17c0.83,1.08,1.13.91,2,.28l6-4.3-0.47-.63c-1-1.32-1.41-1.49-2.92-.83l-0.19-.3,2.1-1.38,4.85,6.81-2,1.54-0.19-.3c1.13-1.21,1.13-1.71.17-3l-0.44-.66-6.18,4.39c-0.83.58-.94,0.88-0.25,1.93Z" transform="translate(-147.49 -89.78)"/><path id="path64707" class="cls-19" d="M276.75,134.75l-2.51-3.5,0.22-.17c0.83,1.08,1.13.91,2,.28l6-4.3-0.47-.63c-1-1.32-1.41-1.49-2.92-.83l-0.19-.3,2.1-1.38,4.85,6.81-2,1.54-0.19-.3c1.13-1.21,1.13-1.71.17-3l-0.44-.66-6.18,4.39c-0.83.58-.94,0.88-0.25,1.93Z" transform="translate(-147.49 -89.78)"/><path id="path64709" class="cls-10" d="M282.49,144.54l-1.08-2.12,2.46-5.21-0.39-.74-2.62,1.32c-0.88.44-1.08,0.69-.58,1.79l-0.25.14L278.19,136l0.25-.14c0.61,1,.91,1,1.9.44l5.74-2.92c1-.5,1-0.74.61-1.74l0.25-.14,1.85,3.64c0.61,1.16,1.43,3.5-.61,4.55-1.77.88-3-.66-3.45-1.27l-2,4.41a1.69,1.69,0,0,0,0,1.46Z" transform="translate(-147.49 -89.78)"/><path id="path64711" class="cls-19" d="M282.49,144.54l-1.08-2.12,2.46-5.21-0.39-.74-2.62,1.32c-0.88.44-1.08,0.69-.58,1.79l-0.25.14L278.19,136l0.25-.14c0.61,1,.91,1,1.9.44l5.74-2.92c1-.5,1-0.74.61-1.74l0.25-.14,1.85,3.64c0.61,1.16,1.43,3.5-.61,4.55-1.77.88-3-.66-3.45-1.27l-2,4.41a1.69,1.69,0,0,0,0,1.46Z" transform="translate(-147.49 -89.78)"/><path id="path64713" class="cls-10" d="M285.8,152.62L283.26,145l0.28-.08c0.36,0.88.58,1.16,1.68,0.8l6.23-2.07c1.13-.36,1.1-0.74.86-1.63l0.28-.08,2.48,7.48-2,.66-0.11-.36c1.19-.63,1.3-1.08.77-2.62l-0.63-1.9c-0.11-.3-0.14-0.47-0.63-0.3l-3.12,1,0.72,2.18c0.41,1.27.8,1.3,1.85,1.1l0.11,0.33-3.26,1.1-0.11-.33c1.08-.55,1.19-0.83.8-2l-0.69-2.18-3.48,1.16c-0.58.19-.58,0.19,0.11,2.29,0.61,1.77,1.24,2.32,2.87,2.46l0.14,0.39Z" transform="translate(-147.49 -89.78)"/><path id="path64715" class="cls-19" d="M285.8,152.62L283.26,145l0.28-.08c0.36,0.88.58,1.16,1.68,0.8l6.23-2.07c1.13-.36,1.1-0.74.86-1.63l0.28-.08,2.48,7.48-2,.66-0.11-.36c1.19-.63,1.3-1.08.77-2.62l-0.63-1.9c-0.11-.3-0.14-0.47-0.63-0.3l-3.12,1,0.72,2.18c0.41,1.27.8,1.3,1.85,1.1l0.11,0.33-3.26,1.1-0.11-.33c1.08-.55,1.19-0.83.8-2l-0.69-2.18-3.48,1.16c-0.58.19-.58,0.19,0.11,2.29,0.61,1.77,1.24,2.32,2.87,2.46l0.14,0.39Z" transform="translate(-147.49 -89.78)"/><path id="path64717" class="cls-10" d="M287.68,163.57l-0.61-3.72,0.28-.06c0.08,0.55.17,1,.74,0.91a3.49,3.49,0,0,0,.86-0.41l1.3-.83-0.63-3.83-1.82-.39a1.39,1.39,0,0,0-.58,0c-0.61.11-.5,0.8-0.44,1.1l-0.28.06-0.5-2.9,0.28-.06a1.09,1.09,0,0,0,.44.69,9.51,9.51,0,0,0,2.26.72l7.67,1.85,0.06,0.3-7.7,5c-1,.63-1.1.88-1,1.52Z" transform="translate(-147.49 -89.78)"/><path id="path64719" class="cls-19" d="M287.68,163.57l-0.61-3.72,0.28-.06c0.08,0.55.17,1,.74,0.91a3.49,3.49,0,0,0,.86-0.41l1.3-.83-0.63-3.83-1.82-.39a1.39,1.39,0,0,0-.58,0c-0.61.11-.5,0.8-0.44,1.1l-0.28.06-0.5-2.9,0.28-.06a1.09,1.09,0,0,0,.44.69,9.51,9.51,0,0,0,2.26.72l7.67,1.85,0.06,0.3-7.7,5c-1,.63-1.1.88-1,1.52Z" transform="translate(-147.49 -89.78)"/><path id="path64721" class="cls-10" d="M294.91,170.11l0-.36a3,3,0,0,0,2.51-2.79,1.43,1.43,0,0,0-1.41-1.49c-2.23.06-2.43,5-5.46,5a2.81,2.81,0,0,1-2.73-3.09,14.36,14.36,0,0,1,.44-2.32,0.46,0.46,0,0,0-.5-0.44v-0.33l3.14-.5v0.33c-0.69.3-2.59,1.08-2.57,3.09A1.65,1.65,0,0,0,290,169c0.83,0,1.32-.28,2.57-2.46,0.77-1.38,1.38-2.32,2.87-2.37a2.51,2.51,0,0,1,2.57,2.65,10.2,10.2,0,0,1-.47,2.07,0.55,0.55,0,0,0,.52.52v0.3Z" transform="translate(-147.49 -89.78)"/><path id="path64723" class="cls-19" d="M294.91,170.11l0-.36a3,3,0,0,0,2.51-2.79,1.43,1.43,0,0,0-1.41-1.49c-2.23.06-2.43,5-5.46,5a2.81,2.81,0,0,1-2.73-3.09,14.36,14.36,0,0,1,.44-2.32,0.46,0.46,0,0,0-.5-0.44v-0.33l3.14-.5v0.33c-0.69.3-2.59,1.08-2.57,3.09A1.65,1.65,0,0,0,290,169c0.83,0,1.32-.28,2.57-2.46,0.77-1.38,1.38-2.32,2.87-2.37a2.51,2.51,0,0,1,2.57,2.65,10.2,10.2,0,0,1-.47,2.07,0.55,0.55,0,0,0,.52.52v0.3Z" transform="translate(-147.49 -89.78)"/><path id="path64725" class="cls-10" d="M296.31,181.92v-0.47l0-.08,0-.08,0-.08,0-.08,0-.06,0-.06,0-.06,0-.06,0-.06-0.06-.06-0.06-.06-0.06-.06-0.06-.06-0.06-.06-0.08,0-0.06,0-0.08-.06-0.08,0-0.08,0-0.11,0-0.08,0-0.11,0H295l-0.06,0-0.06,0-0.06,0h-0.06l-0.08,0-0.06,0H294.6l-0.08,0-0.06,0-3.86-.5c-1.16-.14-3.92-0.5-3.42-4.3,0.47-3.64,3.34-3.28,4.22-3.17l4.58,0.61c1.08,0.14,1.27-.06,1.49-1.16l0.28,0-0.55,4.17-0.28,0c0.06-1.16-.11-1.38-1.13-1.52l-4.72-.61c-1-.11-3-0.39-3.34,2.18a2.65,2.65,0,0,0,.86,2.54,3.82,3.82,0,0,0,2,.61l4,0.52c1.57,0.19,1.88-.11,2.07-1.13l0.28,0-0.44,3.42Z" transform="translate(-147.49 -89.78)"/><path id="path64727" class="cls-19" d="M296.31,181.92v-0.47l0-.08,0-.08,0-.08,0-.08,0-.06,0-.06,0-.06,0-.06,0-.06-0.06-.06-0.06-.06-0.06-.06-0.06-.06-0.06-.06-0.08,0-0.06,0-0.08-.06-0.08,0-0.08,0-0.11,0-0.08,0-0.11,0H295l-0.06,0-0.06,0-0.06,0h-0.06l-0.08,0-0.06,0H294.6l-0.08,0-0.06,0-3.86-.5c-1.16-.14-3.92-0.5-3.42-4.3,0.47-3.64,3.34-3.28,4.22-3.17l4.58,0.61c1.08,0.14,1.27-.06,1.49-1.16l0.28,0-0.55,4.17-0.28,0c0.06-1.16-.11-1.38-1.13-1.52l-4.72-.61c-1-.11-3-0.39-3.34,2.18a2.65,2.65,0,0,0,.86,2.54,3.82,3.82,0,0,0,2,.61l4,0.52c1.57,0.19,1.88-.11,2.07-1.13l0.28,0-0.44,3.42Z" transform="translate(-147.49 -89.78)"/><path id="path64729" class="cls-10" d="M284.09,189.75l0.69-2.29,5.38-2.07,0.19-.8-2.79-.83c-1-.3-1.27-0.22-1.68.88l-0.28-.08,1.16-3.92,0.28,0.08c-0.28,1.16,0,1.3,1.08,1.63l6.15,1.85c1,0.33,1.24.14,1.66-.83l0.28,0.08L295,187.38c-0.36,1.27-1.38,3.5-3.56,2.87-1.9-.58-1.68-2.54-1.6-3.31l-4.47,1.85a1.65,1.65,0,0,0-1,1Z" transform="translate(-147.49 -89.78)"/><path id="path64731" class="cls-19" d="M284.09,189.75l0.69-2.29,5.38-2.07,0.19-.8-2.79-.83c-1-.3-1.27-0.22-1.68.88l-0.28-.08,1.16-3.92,0.28,0.08c-0.28,1.16,0,1.3,1.08,1.63l6.15,1.85c1,0.33,1.24.14,1.66-.83l0.28,0.08L295,187.38c-0.36,1.27-1.38,3.5-3.56,2.87-1.9-.58-1.68-2.54-1.6-3.31l-4.47,1.85a1.65,1.65,0,0,0-1,1Z" transform="translate(-147.49 -89.78)"/><path id="path64733" class="cls-10" d="M289,202.22l0-.08,0-.11,0-.11,0-.06,0-.06v-0.06l0-.06v-0.25l0-.06v-0.08l0-.08,0-.08,0-.08,0-.08,0-.08,0-.11-0.06-.08-0.06-.11-0.06-.11-0.06-.11-0.06-.11,0-.06,0-.06-0.06-.08,0-.06-0.06-.08,0-.06-0.06-.08-0.06-.08-0.06-.08-0.06-.08-2-3.45-2.59-1.27c-1-.47-1.27-0.41-1.85.77l-0.28-.11,2-4.08,0.28,0.11c-0.61,1.32-.33,1.52.69,2l2.32,1.13,3.42-.5c2.65-.39,2.79-0.55,3.14-1.13l0.28,0.11-1.82,3.72-0.25-.11c0.28-.61.41-1,0.06-1.13a1.35,1.35,0,0,0-.69-0.06l-3.92.52,2.07,3.39a0.93,0.93,0,0,0,.39.41c0.41,0.19.69-.3,0.88-0.69l0.25,0.11-1.43,2.92Z" transform="translate(-147.49 -89.78)"/><path id="path64735" class="cls-19" d="M289,202.22l0-.11,0-.08,0-.11,0-.06,0-.06v-0.06l0-.06v-0.25l0-.06v-0.08l0-.08,0-.08,0-.08,0-.08,0-.08,0-.11-0.06-.08-0.06-.11-0.06-.11-0.06-.11-0.06-.11,0-.06,0-.06-0.06-.08,0-.06-0.06-.08,0-.06-0.06-.08-0.06-.08-0.06-.08-0.06-.08-2-3.45-2.59-1.27c-1-.47-1.27-0.41-1.85.77l-0.28-.11,2-4.08,0.28,0.11c-0.61,1.32-.33,1.52.69,2l2.32,1.13,3.42-.5c2.65-.39,2.79-0.55,3.14-1.13l0.28,0.11-1.82,3.72-0.25-.11c0.28-.61.41-1,0.06-1.13a1.35,1.35,0,0,0-.69-0.06l-3.92.52,2.07,3.39a0.93,0.93,0,0,0,.39.41c0.41,0.19.69-.3,0.88-0.69l0.25,0.11-1.43,2.92Z" transform="translate(-147.49 -89.78)"/><path id="path64737" class="cls-1" d="M164.57,166.14h0.22l0.06,0h0l0,0,0,0,0,0,0,0,0,0,0,0,0,0,0,0,0,0,0,0,0,0,0,0,0,0,0-.06v-0.06l0,0,0-.06V165.5l0-.06v-0.11l0-.06v-0.11c0.06-1,.25-4.61-4.06-4.83a4.26,4.26,0,0,0-3.45,1.21,4.59,4.59,0,0,0-1.21,3.37c0,0.69.25,0.69,0.55,0.72Z" transform="translate(-147.49 -89.78)"/><path id="path64739" class="cls-19" d="M164.57,166.14h0.22l0.06,0h0l0,0,0,0,0,0,0,0,0,0,0,0,0,0,0,0,0,0,0,0,0,0,0,0,0,0,0-.06v-0.06l0,0,0-.06V165.5l0-.06v-0.11l0-.06v-0.11c0.06-1,.25-4.61-4.06-4.83a4.26,4.26,0,0,0-3.45,1.21,4.59,4.59,0,0,0-1.21,3.37c0,0.69.25,0.69,0.55,0.72Z" transform="translate(-147.49 -89.78)"/><path id="path64741" class="cls-1" d="M164.92,145.59l0.06-.11,0.06-.11,0.06-.11,0.06-.11,0.06-.11,0.06-.11,0-.11,0.06-.11a2.18,2.18,0,0,0-1.27-3.14c-2-.72-2.73,1.3-3,1.93-0.14.41-.19,0.58,0.28,0.74Z" transform="translate(-147.49 -89.78)"/><path id="path64743" class="cls-19" d="M164.92,145.59l0.06-.11,0.06-.11,0.06-.11,0.06-.11,0.06-.11,0.06-.11,0-.11,0.06-.11a2.18,2.18,0,0,0-1.27-3.14c-2-.72-2.73,1.3-3,1.93-0.14.41-.19,0.58,0.28,0.74Z" transform="translate(-147.49 -89.78)"/><polygon id="polygon64745" class="cls-1" points="23.31 47.39 18.93 46.95 21.68 50.4 23.31 47.39"/><polygon id="polygon64747" class="cls-20" points="23.31 47.39 18.93 46.95 21.68 50.4 23.31 47.39"/><path id="path64749" class="cls-1" d="M174.3,129l0.08-.08,0.08-.11,0.08-.11,0.08-.11,0.08-.11,0.08-.11,0.08-.11,0.08-.11L175,128l0.08-.14,0.08-.11,0.06-.14,0.06-.14,0.06-.14,0.06-.14,0.06-.14,0-.14,0-.14,0-.14V126.5l0-.14,0-.14,0-.14,0-.08,0-.06,0-.08,0-.08,0-.06,0-.08-0.06-.06,0-.08-0.06-.08-0.06-.06-0.06-.06-0.06-.08-0.06-.06-0.06-.08-0.06-.06-0.08-.06-0.08-.06-0.08-.06c-1.57-1.21-2.79.3-3.14,0.8s-0.5.8-.14,1Z" transform="translate(-147.49 -89.78)"/><path id="path64751" class="cls-19" d="M174.3,129l0.08-.08,0.08-.11,0.08-.11,0.08-.11,0.08-.11,0.08-.11,0.08-.11,0.08-.11L175,128l0.08-.14,0.08-.11,0.06-.14,0.06-.14,0.06-.14,0.06-.14,0.06-.14,0-.14,0-.14,0-.14V126.5l0-.14,0-.14,0-.14,0-.08,0-.06,0-.08,0-.08,0-.06,0-.08-0.06-.06,0-.08-0.06-.08-0.06-.06-0.06-.06-0.06-.08-0.06-.06-0.06-.08-0.06-.06-0.08-.06-0.08-.06-0.08-.06c-1.57-1.21-2.79.3-3.14,0.8s-0.5.8-.14,1Z" transform="translate(-147.49 -89.78)"/><path id="path64753" class="cls-1" d="M236.34,103.47l0-.3,0-.3,0-.28,0-.28,0-.28,0-.25,0-.25-0.06-.22-0.06-.22-0.06-.19-0.06-.19-0.08-.19-0.08-.17-0.08-.17-0.08-.17-0.11-.14-0.11-.14-0.11-.14-0.11-.11-0.11-.11-0.14-.11L235,99.16l-0.14-.08L234.71,99l-0.14-.08-0.14-.06-0.14-.06-0.14-.06L234,98.69l-0.14,0-0.14,0-0.14,0c-1.52-.17-3.26.86-3.61,4.25s1,4.72,2.68,4.88S236,106.72,236.34,103.47Z" transform="translate(-147.49 -89.78)"/><path id="path64755" class="cls-19" d="M236.34,103.47l0-.3,0-.3,0-.28,0-.28,0-.28,0-.25,0-.25-0.06-.22-0.06-.22-0.06-.19-0.06-.19-0.08-.19-0.08-.17-0.08-.17-0.08-.17-0.11-.14-0.11-.14-0.11-.14-0.11-.11-0.11-.11-0.14-.11L235,99.16l-0.14-.08L234.71,99l-0.14-.08-0.14-.06-0.14-.06-0.14-.06L234,98.69l-0.14,0-0.14,0-0.14,0c-1.52-.17-3.26.86-3.61,4.25s1,4.72,2.68,4.88S236,106.72,236.34,103.47Z" transform="translate(-147.49 -89.78)"/><path id="path64757" class="cls-1" d="M283.79,136.57l0.06,0.11,0.06,0.11L284,136.9,284,137l0.06,0.11,0.08,0.14,0.08,0.11,0.08,0.11,0.08,0.14,0.08,0.11,0.08,0.11,0.11,0.11,0.08,0.11,0.11,0.11,0.08,0.11,0.11,0.11,0.11,0.08,0.11,0.08,0.11,0.08,0.11,0.08,0.11,0.06,0.14,0.06,0.14,0.06,0.08,0,0.06,0,0.08,0h0.17l0.08,0,0.08,0h0.17l0.08,0,0.08,0,0.08,0,0.08,0,0.08,0,0.08,0,0.08,0,0.08-.06,0.08-.06c1.74-.88.91-2.65,0.63-3.2s-0.52-.77-0.88-0.58Z" transform="translate(-147.49 -89.78)"/><path id="path64759" class="cls-19" d="M283.79,136.57l0.06,0.11,0.06,0.11L284,136.9,284,137l0.06,0.11,0.08,0.14,0.08,0.11,0.08,0.11,0.08,0.14,0.08,0.11,0.08,0.11,0.11,0.11,0.08,0.11,0.11,0.11,0.08,0.11,0.11,0.11,0.11,0.08,0.11,0.08,0.11,0.08,0.11,0.08,0.11,0.06,0.14,0.06,0.14,0.06,0.08,0,0.06,0,0.08,0h0.17l0.08,0,0.08,0h0.17l0.08,0,0.08,0,0.08,0,0.08,0,0.08,0,0.08,0,0.08,0,0.08-.06,0.08-.06c1.74-.88.91-2.65,0.63-3.2s-0.52-.77-0.88-0.58Z" transform="translate(-147.49 -89.78)"/><polygon id="polygon64761" class="cls-1" points="143.67 69.38 147.39 67.03 143.11 65.99 143.67 69.38"/><polygon id="polygon64763" class="cls-20" points="143.67 69.38 147.39 67.03 143.11 65.99 143.67 69.38"/><path id="path64765" class="cls-1" d="M290.91,184.76l0,0.11,0,0.11-0.06.11,0,0.14,0,0.14-0.06.14,0,0.14,0,0.14,0,0.14,0,0.14,0,0.14,0,0.14,0,0.14v0.41l0,0.14,0,0.14,0,0.14,0,0.14,0.06,0.14,0.06,0.14,0.08,0.11,0.06,0.06,0,0.06,0.06,0.06L291,188,291,188.1l0.06,0.06,0.06,0.06,0.06,0.06,0.06,0.06,0.08,0.06,0.06,0.06,0.08,0.06,0.08,0.06,0.08,0,0.08,0.06,0.08,0,0.08,0,0.11,0c1.9,0.58,2.48-1.27,2.68-1.85a0.89,0.89,0,0,0-.25-1Z" transform="translate(-147.49 -89.78)"/><path id="path64767" class="cls-19" d="M290.91,184.76l0,0.11,0,0.11-0.06.11,0,0.14,0,0.14-0.06.14,0,0.14,0,0.14,0,0.14,0,0.14,0,0.14,0,0.14,0,0.14v0.41l0,0.14,0,0.14,0,0.14,0,0.14,0.06,0.14,0.06,0.14,0.08,0.11,0.06,0.06,0,0.06,0.06,0.06L291,188,291,188.1l0.06,0.06,0.06,0.06,0.06,0.06,0.06,0.06,0.08,0.06,0.06,0.06,0.08,0.06,0.08,0.06,0.08,0,0.08,0.06,0.08,0,0.08,0,0.11,0c1.9,0.58,2.48-1.27,2.68-1.85a0.89,0.89,0,0,0-.25-1Z" transform="translate(-147.49 -89.78)"/><path id="path64769" class="cls-10" d="M206.88,111.08l-7.31,3.26-0.11-.25c0.83-.44,1.1-0.69.52-1.68l-2.68-6c-0.36-1.13-.72-1.08-1.6-0.77l-0.11-.25,7.17-3.2,0.91,1.93-0.33.14c-0.74-1.1-1.19-1.16-2.7-.5l-1.82.8c-0.28.14-.44,0.19-0.22,0.66l1.32,3,2.1-.91c1.21-.55,1.21-0.91.91-2l0.33-.14,1.38,3.14-0.3.14c-0.63-1-.94-1.1-2.07-0.61l-2.1.88,1.49,3.37c0.25,0.55.28,0.55,2.26-.33,1.71-.77,2.21-1.46,2.18-3.09l0.36-.17Z" transform="translate(-147.49 -89.78)"/><path id="path64771" class="cls-19" d="M206.88,111.08l-7.31,3.26-0.11-.25c0.83-.44,1.1-0.69.52-1.68l-2.68-6c-0.36-1.13-.72-1.08-1.6-0.77l-0.11-.25,7.17-3.2,0.91,1.93-0.33.14c-0.74-1.1-1.19-1.16-2.7-.5l-1.82.8c-0.28.14-.44,0.19-0.22,0.66l1.32,3,2.1-.91c1.21-.55,1.21-0.91.91-2l0.33-.14,1.38,3.14-0.3.14c-0.63-1-.94-1.1-2.07-0.61l-2.1.88,1.49,3.37c0.25,0.55.28,0.55,2.26-.33,1.71-.77,2.21-1.46,2.18-3.09l0.36-.17Z" transform="translate(-147.49 -89.78)"/><path id="path64773" class="cls-10" d="M209.75,238.14l0.08,0,0.08,0,0.08,0,0.08,0,0.06,0h0.08l0.08,0h0.06l0.08,0h0.11l0.06,0h0.11l0.06,0,0.06,0,0.06,0,0.06,0,0.06,0,0.06,0,0.06-.06,0.06,0,0-.06,0,0,0,0,0,0,0,0,0,0,0-.06,0,0,0,0,0,0,0-.06,0-.06,0,0,0-.06v-0.06l0-.06,0-.06,0-.06,0-.06,1.46-6.54c0.06-.3.14-0.69-0.33-0.8a2,2,0,0,0-1.08.11l0.06-.19,2.9-.74,0.11,0.06-1.93,8.66c-0.17.69,0.08,0.91,1.16,1.16l-0.06.22-4-.88Z" transform="translate(-147.49 -89.78)"/><path id="path64775" class="cls-19" d="M209.75,238.14l0.08,0,0.08,0,0.08,0,0.08,0,0.06,0h0.08l0.08,0h0.06l0.08,0h0.11l0.06,0h0.11l0.06,0,0.06,0,0.06,0,0.06,0,0.06,0,0.06,0,0.06-.06,0.06,0,0-.06,0,0,0,0,0,0,0,0,0,0,0-.06,0,0,0,0,0,0,0-.06,0-.06,0,0,0-.06v-0.06l0-.06,0-.06,0-.06,0-.06,1.46-6.54c0.06-.3.14-0.69-0.33-0.8a2,2,0,0,0-1.08.11l0.06-.19,2.9-.74,0.11,0.06-1.93,8.66c-0.17.69,0.08,0.91,1.16,1.16l-0.06.22-4-.88Z" transform="translate(-147.49 -89.78)"/><path id="path64777" class="cls-10" d="M225.83,231L222,240.45l-1-.06,3.56-8.61-3.2-.22c-1-.08-1.27.33-1.79,1.08l-0.22-.14,0.74-1.49,0.3-.63,5.46,0.39Z" transform="translate(-147.49 -89.78)"/><path id="path64779" class="cls-19" d="M225.83,231L222,240.45l-1-.06,3.56-8.61-3.2-.22c-1-.08-1.27.33-1.79,1.08l-0.22-.14,0.74-1.49,0.3-.63,5.46,0.39Z" transform="translate(-147.49 -89.78)"/><path id="path64781" class="cls-10" d="M240.62,239.32l0.17-.08,0.14-.06,0.14-.08,0.14-.08,0.14-.08,0.14-.08,0.14-.08,0.11-.08,0.11-.08,0.11-.08,0.22-.17,0.19-.19,0.17-.19,0.17-.19,0.17-.19,0.14-.19,0.11-.19,0.14-.19,0.11-.19,0.08-.22,0.08-.19,0.08-.19,0.08-.19,0.06-.19,0.06-.19,0.06-.17,0.06-.17,0-.17,0-.17,0-.14v-0.14l0-.11,0-.11v-0.3l0,0a3.42,3.42,0,0,1-1.93,1.3,2.7,2.7,0,0,1-3.26-2.26c-0.44-1.93.33-3.75,2.23-4.17s3.53,0.88,4.11,3.31a6.07,6.07,0,0,1-4.39,7.37Z" transform="translate(-147.49 -89.78)"/><path id="path64783" class="cls-19" d="M240.62,239.32l0.17-.08,0.14-.06,0.14-.08,0.14-.08,0.14-.08,0.14-.08,0.14-.08,0.11-.08,0.11-.08,0.11-.08,0.22-.17,0.19-.19,0.17-.19,0.17-.19,0.17-.19,0.14-.19,0.11-.19,0.14-.19,0.11-.19,0.08-.22,0.08-.19,0.08-.19,0.08-.19,0.06-.19,0.06-.19,0.06-.17,0.06-.17,0-.17,0-.17,0-.14v-0.14l0-.11,0-.11v-0.3l0,0a3.42,3.42,0,0,1-1.93,1.3,2.7,2.7,0,0,1-3.26-2.26c-0.44-1.93.33-3.75,2.23-4.17s3.53,0.88,4.11,3.31a6.07,6.07,0,0,1-4.39,7.37Z" transform="translate(-147.49 -89.78)"/><path id="path64785" class="cls-10" d="M231.35,235.57l-0.14-.08-0.11-.08-0.11-.08-0.11-.08-0.11-.08-0.11-.08-0.11-.08-0.08-.08-0.11-.08-0.08-.08-0.08-.08-0.08-.06-0.08-.08-0.08-.08-0.06-.08-0.08-.08-0.06-.08-0.06-.08-0.06-.08-0.06-.08-0.06-.08-0.06-.08-0.06-.08,0-.08-0.06-.08,0-.08,0-.08,0-.08,0-.11,0-.11,0-.11v-0.11a2.57,2.57,0,0,1,2.57-2.51c1.68-.14,2.68.77,2.76,1.9,0.11,1.35-1,2.07-1.79,2.57,2.1,1.27,2.48,2.1,2.57,3.09,0.06,0.77-.3,2.46-2.76,2.65a2.55,2.55,0,0,1-3-2.15C229.53,237.2,230.11,236.67,231.35,235.57Z" transform="translate(-147.49 -89.78)"/><path id="path64787" class="cls-19" d="M231.35,235.57l-0.14-.08-0.11-.08-0.11-.08-0.11-.08-0.11-.08-0.11-.08-0.11-.08-0.08-.08-0.11-.08-0.08-.08-0.08-.08-0.08-.06-0.08-.08-0.08-.08-0.06-.08-0.08-.08-0.06-.08-0.06-.08-0.06-.08-0.06-.08-0.06-.08-0.06-.08-0.06-.08,0-.08-0.06-.08,0-.08,0-.08,0-.08,0-.11,0-.11,0-.11v-0.11a2.57,2.57,0,0,1,2.57-2.51c1.68-.14,2.68.77,2.76,1.9,0.11,1.35-1,2.07-1.79,2.57,2.1,1.27,2.48,2.1,2.57,3.09,0.06,0.77-.3,2.46-2.76,2.65a2.55,2.55,0,0,1-3-2.15C229.53,237.2,230.11,236.67,231.35,235.57Z" transform="translate(-147.49 -89.78)"/><path id="path64789" class="cls-1" d="M243.71,232.59l0-.08,0-.11,0-.11,0-.11,0-.11-0.06-.14,0-.14-0.06-.14-0.06-.14-0.06-.14-0.06-.14-0.06-.14-0.06-.17-0.08-.14-0.08-.14-0.08-.14-0.08-.14-0.08-.14-0.08-.14-0.11-.11-0.11-.11-0.11-.11-0.11-.11-0.08-.06-0.06-.06-0.06,0-0.08-.06-0.06,0-0.08,0-0.08,0-0.06,0-0.08,0-0.08,0-0.08,0H241.2l-0.08,0-0.08,0-0.08,0c-1.21.28-1.24,1.71-1,2.9s1,2.7,2.48,2.37a2.62,2.62,0,0,0,1.27-.83,0.64,0.64,0,0,0,.08-0.63Z" transform="translate(-147.49 -89.78)"/><path id="path64791" class="cls-19" d="M243.71,232.59l0-.08,0-.11,0-.11,0-.11,0-.11-0.06-.14,0-.14-0.06-.14-0.06-.14-0.06-.14-0.06-.14-0.06-.14-0.06-.17-0.08-.14-0.08-.14-0.08-.14-0.08-.14-0.08-.14-0.08-.14-0.11-.11-0.11-.11-0.11-.11-0.11-.11-0.08-.06-0.06-.06-0.06,0-0.08-.06-0.06,0-0.08,0-0.08,0-0.06,0-0.08,0-0.08,0-0.08,0H241.2l-0.08,0-0.08,0-0.08,0c-1.21.28-1.24,1.71-1,2.9s1,2.7,2.48,2.37a2.62,2.62,0,0,0,1.27-.83,0.64,0.64,0,0,0,.08-0.63Z" transform="translate(-147.49 -89.78)"/><path id="path64793" class="cls-1" d="M230.94,238.11l0,0.11,0,0.11,0,0.11,0,0.11,0,0.11,0,0.08,0.06,0.11,0,0.08,0.06,0.08,0.06,0.08,0.06,0.08,0.06,0.08,0.06,0.08,0.06,0.08,0.06,0.08,0.06,0.08,0.08,0.06,0.08,0.08,0.08,0.06,0.08,0.06L232,239.9l0.08,0.06,0.08,0,0.08,0.06,0.08,0,0.11,0,0.08,0,0.11,0,0.11,0h0.33a1.59,1.59,0,0,0,1.52-1.79c-0.08-1.08-.74-1.49-2.54-2.57A2.15,2.15,0,0,0,230.94,238.11Z" transform="translate(-147.49 -89.78)"/><path id="path64795" class="cls-19" d="M230.94,238.11l0,0.11,0,0.11,0,0.11,0,0.11,0,0.11,0,0.08,0.06,0.11,0,0.08,0.06,0.08,0.06,0.08,0.06,0.08,0.06,0.08,0.06,0.08,0.06,0.08,0.06,0.08,0.06,0.08,0.08,0.06,0.08,0.08,0.08,0.06,0.08,0.06L232,239.9l0.08,0.06,0.08,0,0.08,0.06,0.08,0,0.11,0,0.08,0,0.11,0,0.11,0h0.33a1.59,1.59,0,0,0,1.52-1.79c-0.08-1.08-.74-1.49-2.54-2.57A2.15,2.15,0,0,0,230.94,238.11Z" transform="translate(-147.49 -89.78)"/><path id="path64797" class="cls-1" d="M232.56,234.52l0.11-.08,0.11-.08,0.11-.08,0.11-.11,0.06-.06,0.06-.06,0.06-.06,0.06-.06,0.06-.06,0.06-.06,0.06-.08,0.06-.06,0.06-.08,0.06-.08,0.06-.08,0-.08,0.06-.08,0-.08,0-.08,0-.08,0-.08,0-.11,0-.11,0-.11v-0.41a1.55,1.55,0,0,0-1.79-1.49,1.46,1.46,0,0,0-1.46,1.6C230.63,233.47,232,234.22,232.56,234.52Z" transform="translate(-147.49 -89.78)"/><path id="path64799" class="cls-19" d="M232.56,234.52l0.11-.08,0.11-.08,0.11-.08,0.11-.11,0.06-.06,0.06-.06,0.06-.06,0.06-.06,0.06-.06,0.06-.06,0.06-.08,0.06-.06,0.06-.08,0.06-.08,0.06-.08,0-.08,0.06-.08,0-.08,0-.08,0-.08,0-.08,0-.11,0-.11,0-.11v-0.41a1.55,1.55,0,0,0-1.79-1.49,1.46,1.46,0,0,0-1.46,1.6C230.63,233.47,232,234.22,232.56,234.52Z" transform="translate(-147.49 -89.78)"/><polygon id="polygon64801" class="cls-10" points="41.3 103.12 41.82 101.07 40.06 99.94 42.15 99.81 42.68 97.76 43.45 99.72 45.57 99.58 43.95 100.94 44.72 102.89 42.92 101.76 41.3 103.12"/><polygon id="polygon64803" class="cls-10" points="47.73 97.93 48.28 95.89 46.46 94.76 48.58 94.62 49.1 92.55 49.88 94.54 52 94.37 50.37 95.75 51.15 97.71 49.35 96.58 47.73 97.93"/><polygon id="polygon64805" class="cls-10" points="54.23 93.49 54.73 91.45 52.97 90.32 55.06 90.18 55.59 88.14 56.36 90.1 58.48 89.96 56.85 91.31 57.63 93.27 55.84 92.14 54.23 93.49"/><polygon id="polygon64807" class="cls-10" points="60.39 89.1 60.94 87.03 59.15 85.9 61.24 85.79 61.77 83.72 62.57 85.68 64.66 85.57 63.03 86.9 63.81 88.88 62.01 87.75 60.39 89.1"/><polygon id="polygon64809" class="cls-10" points="66.26 84.72 66.81 82.65 65.02 81.52 67.12 81.38 67.64 79.34 68.44 81.3 70.54 81.16 68.91 82.51 69.68 84.47 67.89 83.34 66.26 84.72"/><polygon id="polygon64811" class="cls-10" points="72.14 80.3 72.69 78.26 70.9 77.16 72.99 76.99 73.52 74.95 74.32 76.91 76.41 76.77 74.79 78.12 75.56 80.08 73.77 78.95 72.14 80.3"/><polygon id="polygon64813" class="cls-10" points="77.74 76.25 78.26 74.21 76.47 73.08 78.59 72.94 79.12 70.9 79.89 72.86 81.98 72.72 80.36 74.07 81.16 76.03 79.36 74.9 77.74 76.25"/><polygon id="polygon64815" class="cls-10" points="83.56 80.5 84.08 78.45 82.29 77.32 84.41 77.19 84.94 75.12 85.71 77.08 87.81 76.97 86.18 78.32 86.98 80.28 85.19 79.14 83.56 80.5"/><polygon id="polygon64817" class="cls-10" points="89.68 84.72 90.21 82.67 88.44 81.54 90.54 81.41 91.06 79.36 91.83 81.32 93.93 81.19 92.3 82.54 93.1 84.5 91.31 83.36 89.68 84.72"/><polygon id="polygon64819" class="cls-10" points="95.56 89.88 96.08 87.83 94.32 86.7 96.41 86.56 96.94 84.52 97.71 86.48 99.83 86.34 98.18 87.7 98.98 89.65 97.19 88.52 95.56 89.88"/><polygon id="polygon64821" class="cls-10" points="101.68 94.09 102.23 92.05 100.44 90.92 102.54 90.78 103.06 88.74 103.83 90.7 105.96 90.56 104.33 91.92 105.1 93.88 103.31 92.74 101.68 94.09"/><polygon id="polygon64823" class="cls-10" points="107.81 98.32 108.36 96.28 106.56 95.14 108.66 95.01 109.18 92.96 109.98 94.92 112.08 94.78 110.45 96.14 111.23 98.09 109.43 96.96 107.81 98.32"/><polygon id="polygon64825" class="cls-10" points="114.34 103.75 114.84 101.71 113.07 100.58 115.17 100.44 115.69 98.37 116.47 100.36 118.59 100.22 116.96 101.57 117.76 103.53 115.97 102.4 114.34 103.75"/></g></svg>