<?xml version="1.0" encoding="utf-8"?>
<!-- Generator: Adobe Illustrator 21.0.2, SVG Export Plug-In . SVG Version: 6.00 Build 0)  -->
<svg version="1.1" id="Layer_1" xmlns="http://www.w3.org/2000/svg" xmlns:xlink="http://www.w3.org/1999/xlink" x="0px" y="0px"
	 viewBox="0 0 406 118" style="enable-background:new 0 0 406 118;" xml:space="preserve">
<style type="text/css">
	.st0{fill:#231F20;}
	.st1{font-family:'Avenir-Heavy';}
	.st2{font-size:31.9922px;}
	.st3{font-family:'Avenir-Light';}
	.st4{letter-spacing:-1;}
	.st5{font-size:18.4013px;}
	.st6{font-size:21px;}
	.st7{fill:#CC2128;}
	.st8{fill:#212F64;}
</style>
<g>
	<text transform="matrix(1 0 0 1 119.3883 55.8452)"><tspan x="0" y="0" class="st0 st1 st2">U</tspan><tspan x="22.8" y="0" class="st0 st1 st2">S</tspan><tspan x="40.5" y="0" class="st0 st1 st2">A</tspan><tspan x="64.2" y="0" class="st0 st3 st2">S</tspan><tspan x="82" y="0" class="st0 st3 st2 st4">P</tspan><tspan x="99.1" y="0" class="st0 st3 st2">E</tspan><tspan x="118.1" y="0" class="st0 st3 st2 st4">N</tspan><tspan x="141.1" y="0" class="st0 st3 st2">DI</tspan><tspan x="171.8" y="0" class="st0 st3 st2">N</tspan><tspan x="196.7" y="0" class="st0 st3 st2 st4">G</tspan><tspan x="219.7" y="0" class="st0 st3 st5">.gov</tspan></text>
</g>
<g>
	<text transform="matrix(1 0 0 1 125.3695 87.9363)"><tspan x="0" y="0" class="st0 st3 st6">A</tspan><tspan x="14.4" y="0" class="st0 st3 st6">n</tspan><tspan x="25.4" y="0" class="st0 st3 st6">a</tspan><tspan x="36.1" y="0" class="st0 st3 st6">l</tspan><tspan x="41.2" y="0" class="st0 st3 st6">y</tspan><tspan x="51.3" y="0" class="st0 st3 st6">t</tspan><tspan x="58.9" y="0" class="st0 st3 st6">i</tspan><tspan x="63.5" y="0" class="st0 st3 st6">cs</tspan></text>
</g>
<g>
	<g>
		<rect x="66.5" y="26.7" class="st7" width="26.6" height="2.8"/>
		<rect x="66.5" y="32" class="st7" width="41.7" height="2.8"/>
		<rect x="66.5" y="37.3" class="st7" width="36.7" height="2.8"/>
		<rect x="66.5" y="42.6" class="st7" width="31.6" height="2.8"/>
		<rect x="40.1" y="47.9" class="st7" width="63" height="2.8"/>
		<rect x="40.1" y="53.2" class="st7" width="68.1" height="2.8"/>
		<rect x="40.1" y="58.5" class="st7" width="58" height="2.8"/>
	</g>
	<g>
		<g>
			<g>
				<rect x="40.1" y="26.7" class="st8" width="2.7" height="18.7"/>
				<rect x="45.4" y="32" class="st8" width="2.7" height="13.4"/>
				<rect x="50.7" y="27.8" class="st8" width="2.7" height="17.6"/>
				<rect x="55.9" y="29.4" class="st8" width="2.7" height="15.9"/>
				<rect x="61.2" y="26.7" class="st8" width="2.7" height="18.7"/>
			</g>
		</g>
	</g>
</g>
</svg>
